<svg width="1425" height="354" viewBox="0 0 1425 354" fill="none" xmlns="http://www.w3.org/2000/svg">
<rect width="1425" height="353.942" fill="#F3F3F3"/>
<path d="M311.84 224.44C308.42 224.44 305.45 223.42 302.93 221.38C300.41 219.28 298.49 216.4 297.17 212.74C295.85 209.02 295.19 204.76 295.19 199.96C295.19 194.92 295.91 190.42 297.35 186.46C298.79 182.5 300.86 179.38 303.56 177.1C306.32 174.82 309.59 173.68 313.37 173.68C317.15 173.68 320.21 174.79 322.55 177.01C324.89 179.17 326.06 181.96 326.06 185.38C326.06 187.3 325.64 188.8 324.8 189.88C323.96 190.9 322.79 191.41 321.29 191.41C319.97 191.41 318.92 191.02 318.14 190.24C317.42 189.46 317.06 188.47 317.06 187.27C317.06 186.79 317.09 186.37 317.15 186.01C317.21 185.59 317.27 185.23 317.33 184.93C317.57 183.73 317.69 182.77 317.69 182.05C317.69 180.55 317.3 179.41 316.52 178.63C315.74 177.85 314.66 177.46 313.28 177.46C310.22 177.46 307.91 179.26 306.35 182.86C304.85 186.46 304.1 191.02 304.1 196.54C304.1 202.72 305.03 207.79 306.89 211.75C308.81 215.65 311.54 217.6 315.08 217.6C317.42 217.6 319.52 216.52 321.38 214.36C323.3 212.14 324.62 208.42 325.34 203.2H327.5C327.02 210.34 325.37 215.68 322.55 219.22C319.73 222.7 316.16 224.44 311.84 224.44ZM358.39 173.68C359.95 173.68 361.15 174.1 361.99 174.94C362.83 175.78 363.25 176.95 363.25 178.45C363.25 180.13 362.8 181.51 361.9 182.59C361.06 183.67 360.04 184.21 358.84 184.21C358.06 184.21 357.43 184.09 356.95 183.85C356.53 183.55 355.99 183.04 355.33 182.32C354.73 181.72 354.25 181.33 353.89 181.15C353.59 180.91 353.17 180.79 352.63 180.79C351.55 180.79 350.44 181.54 349.3 183.04C348.16 184.48 347.14 186.55 346.24 189.25V213.19C346.24 215.35 346.45 216.94 346.87 217.96C347.35 218.98 348.25 219.7 349.57 220.12C350.89 220.54 352.96 220.75 355.78 220.75V223H331.48V220.84C333.28 220.84 334.6 220.66 335.44 220.3C336.28 219.88 336.85 219.19 337.15 218.23C337.45 217.27 337.6 215.77 337.6 213.73V186.01C337.6 183.55 337.51 181.93 337.33 181.15C337.15 180.31 336.64 179.89 335.8 179.89C335.02 179.89 333.82 180.25 332.2 180.97L331.3 178.9L338.5 176.02L344.62 173.5L346.24 174.85V183.49H346.51C347.95 180.79 349.72 178.48 351.82 176.56C353.92 174.64 356.11 173.68 358.39 173.68ZM398.62 203.74C397.72 210.76 395.83 215.98 392.95 219.4C390.13 222.76 386.53 224.44 382.15 224.44C378.79 224.44 375.85 223.45 373.33 221.47C370.87 219.43 368.95 216.58 367.57 212.92C366.25 209.2 365.59 204.88 365.59 199.96C365.59 195.16 366.28 190.78 367.66 186.82C369.04 182.8 370.99 179.62 373.51 177.28C376.09 174.88 379.12 173.68 382.6 173.68C387.64 173.68 391.48 175.81 394.12 180.07C396.76 184.27 398.08 189.82 398.08 196.72H374.32V196.9C374.32 203.2 375.28 208.27 377.2 212.11C379.12 215.89 381.91 217.78 385.57 217.78C387.91 217.78 390.04 216.7 391.96 214.54C393.94 212.38 395.44 208.78 396.46 203.74H398.62ZM382.6 177.46C377.74 177.46 375.01 182.65 374.41 193.03H389.44C389.44 182.65 387.16 177.46 382.6 177.46ZM443.244 212.83C442.944 220.57 440.154 224.44 434.874 224.44C429.414 224.44 426.684 220.51 426.684 212.65V211.03C425.664 215.29 423.984 218.59 421.644 220.93C419.364 223.27 416.604 224.44 413.364 224.44C410.244 224.44 407.784 223.45 405.984 221.47C404.244 219.43 403.374 216.88 403.374 213.82C403.374 210.52 404.394 207.67 406.434 205.27C408.474 202.81 410.904 200.77 413.724 199.15C416.604 197.53 420.294 195.7 424.794 193.66L426.684 192.85V187.63C426.684 183.91 426.084 181.24 424.884 179.62C423.744 178 422.034 177.19 419.754 177.19C417.954 177.19 416.484 177.64 415.344 178.54C414.264 179.38 413.724 180.52 413.724 181.96C413.724 182.5 413.814 183.04 413.994 183.58C414.174 184.12 414.294 184.45 414.354 184.57C414.774 185.53 414.984 186.43 414.984 187.27C414.984 188.53 414.594 189.55 413.814 190.33C413.034 191.05 411.954 191.41 410.574 191.41C409.014 191.41 407.784 190.9 406.884 189.88C406.044 188.86 405.624 187.51 405.624 185.83C405.624 183.61 406.284 181.57 407.604 179.71C408.984 177.85 410.844 176.38 413.184 175.3C415.584 174.16 418.254 173.59 421.194 173.59C425.634 173.59 429.084 174.85 431.544 177.37C434.064 179.83 435.324 183.46 435.324 188.26V214.81C435.324 216.91 435.504 218.35 435.864 219.13C436.284 219.91 436.884 220.3 437.664 220.3C439.824 220.3 440.994 217.81 441.174 212.83H443.244ZM416.874 217.6C418.794 217.6 420.624 216.67 422.364 214.81C424.104 212.95 425.544 210.16 426.684 206.44V195.82C422.004 198.22 418.374 200.59 415.794 202.93C413.274 205.21 412.014 208.03 412.014 211.39C412.014 213.31 412.434 214.84 413.274 215.98C414.114 217.06 415.314 217.6 416.874 217.6ZM471.07 202.84C471.07 210.16 470.2 215.59 468.46 219.13C466.72 222.67 463.72 224.44 459.46 224.44C455.8 224.44 453.1 223.18 451.36 220.66C449.62 218.08 448.75 213.73 448.75 207.61V178.99H442.45V175.66C445.75 175.6 448.39 174.4 450.37 172.06C452.35 169.72 453.58 166.42 454.06 162.16H457.3V175.3H468.1V178.99H457.48V205.27C457.48 209.71 457.81 213.04 458.47 215.26C459.19 217.48 460.54 218.59 462.52 218.59C464.56 218.59 466.06 217.3 467.02 214.72C468.04 212.14 468.55 208.18 468.55 202.84H471.07ZM484.026 164.86C482.346 164.86 480.936 164.35 479.796 163.33C478.716 162.25 478.176 160.93 478.176 159.37C478.176 157.75 478.716 156.43 479.796 155.41C480.936 154.33 482.346 153.79 484.026 153.79C485.706 153.79 487.086 154.33 488.166 155.41C489.246 156.43 489.786 157.75 489.786 159.37C489.786 160.93 489.246 162.25 488.166 163.33C487.086 164.35 485.706 164.86 484.026 164.86ZM489.066 213.73C489.066 215.77 489.216 217.27 489.516 218.23C489.816 219.19 490.416 219.88 491.316 220.3C492.216 220.66 493.596 220.84 495.456 220.84V223H474.036V220.84C475.896 220.84 477.276 220.66 478.176 220.3C479.076 219.88 479.676 219.19 479.976 218.23C480.276 217.27 480.426 215.77 480.426 213.73V186.01C480.426 183.61 480.336 181.99 480.156 181.15C479.976 180.31 479.436 179.89 478.536 179.89C477.876 179.89 476.736 180.22 475.116 180.88L474.306 178.81L487.536 173.5L489.066 174.85V213.73ZM526.427 184.21C527.087 182.11 527.417 180.64 527.417 179.8C527.417 178.9 527.057 178.3 526.337 178C525.617 177.64 524.267 177.46 522.287 177.46V175.3H537.857V177.46C535.757 177.46 534.167 177.91 533.087 178.81C532.067 179.71 531.137 181.51 530.297 184.21L518.057 223.72H513.197L500.957 184.21C500.117 181.51 499.187 179.71 498.167 178.81C497.207 177.91 495.767 177.46 493.847 177.46V175.3H514.727V177.46C512.747 177.46 511.367 177.64 510.587 178C509.807 178.3 509.417 178.93 509.417 179.89C509.417 180.67 509.717 182.11 510.317 184.21L517.877 210.58H518.417L526.427 184.21ZM570.007 203.74C569.107 210.76 567.217 215.98 564.337 219.4C561.517 222.76 557.917 224.44 553.537 224.44C550.177 224.44 547.237 223.45 544.717 221.47C542.257 219.43 540.337 216.58 538.957 212.92C537.637 209.2 536.977 204.88 536.977 199.96C536.977 195.16 537.667 190.78 539.047 186.82C540.427 182.8 542.377 179.62 544.897 177.28C547.477 174.88 550.507 173.68 553.987 173.68C559.027 173.68 562.867 175.81 565.507 180.07C568.147 184.27 569.467 189.82 569.467 196.72H545.707V196.9C545.707 203.2 546.667 208.27 548.587 212.11C550.507 215.89 553.297 217.78 556.957 217.78C559.297 217.78 561.427 216.7 563.347 214.54C565.327 212.38 566.827 208.78 567.847 203.74H570.007ZM553.987 177.46C549.127 177.46 546.397 182.65 545.797 193.03H560.827C560.827 182.65 558.547 177.46 553.987 177.46ZM579.151 224.44C577.651 224.44 576.391 223.93 575.371 222.91C574.351 221.89 573.841 220.63 573.841 219.13C573.841 217.69 574.351 216.46 575.371 215.44C576.391 214.36 577.651 213.82 579.151 213.82C580.591 213.82 581.821 214.36 582.841 215.44C583.921 216.46 584.461 217.69 584.461 219.13C584.461 220.63 583.921 221.89 582.841 222.91C581.821 223.93 580.591 224.44 579.151 224.44ZM714.311 153.43C711.671 153.43 709.511 153.88 707.831 154.78C706.151 155.62 704.561 157.33 703.061 159.91L665.081 224.44H657.251L659.681 177.19L632.231 224.44H624.311L626.201 161.26C626.321 158.2 625.931 156.13 625.031 155.05C624.131 153.97 622.301 153.43 619.541 153.43L620.351 151H650.411L649.871 153.43C647.351 153.43 645.551 154.03 644.471 155.23C643.451 156.43 642.851 158.44 642.671 161.26L640.151 200.68H640.781L660.221 167.02L660.491 161.26C660.551 160.66 660.581 159.88 660.581 158.92C660.581 156.82 660.281 155.38 659.681 154.6C659.141 153.82 658.091 153.43 656.531 153.43L656.981 151H685.871L685.241 153.43C682.421 153.43 680.411 154.03 679.211 155.23C678.011 156.43 677.261 158.44 676.961 161.26L673.091 200.68H673.721L697.481 159.91C698.681 157.81 699.281 156.37 699.281 155.59C699.281 154.81 698.801 154.27 697.841 153.97C696.941 153.61 695.381 153.43 693.161 153.43L693.881 151H715.031L714.311 153.43ZM724.609 224.35C719.329 224.35 714.949 223.15 711.469 220.75C707.989 218.35 705.409 215.14 703.729 211.12C702.109 207.1 701.299 202.63 701.299 197.71C701.299 189.79 703.159 182.11 706.879 174.67C710.659 167.23 715.729 161.2 722.089 156.58C728.509 151.9 735.409 149.56 742.789 149.56C748.069 149.56 752.449 150.76 755.929 153.16C759.409 155.56 761.959 158.77 763.579 162.79C765.259 166.75 766.099 171.22 766.099 176.2C766.099 184.12 764.209 191.8 760.429 199.24C756.709 206.68 751.639 212.74 745.219 217.42C738.859 222.04 731.989 224.35 724.609 224.35ZM725.059 219.58C728.899 219.58 732.739 216.58 736.579 210.58C740.419 204.52 743.569 197.26 746.029 188.8C748.549 180.34 749.809 172.87 749.809 166.39C749.809 162.43 749.209 159.43 748.009 157.39C746.809 155.29 744.919 154.24 742.339 154.24C738.499 154.24 734.659 157.27 730.819 163.33C726.979 169.33 723.799 176.59 721.279 185.11C718.819 193.57 717.589 201.04 717.589 207.52C717.589 211.48 718.189 214.48 719.389 216.52C720.589 218.56 722.479 219.58 725.059 219.58ZM864.868 153.43C862.228 153.43 860.068 153.88 858.388 154.78C856.708 155.62 855.118 157.33 853.618 159.91L815.638 224.44H807.808L810.238 177.19L782.788 224.44H774.868L776.758 161.26C776.878 158.2 776.488 156.13 775.588 155.05C774.688 153.97 772.858 153.43 770.098 153.43L770.908 151H800.968L800.428 153.43C797.908 153.43 796.108 154.03 795.028 155.23C794.008 156.43 793.408 158.44 793.228 161.26L790.708 200.68H791.338L810.778 167.02L811.048 161.26C811.108 160.66 811.138 159.88 811.138 158.92C811.138 156.82 810.838 155.38 810.238 154.6C809.698 153.82 808.648 153.43 807.088 153.43L807.538 151H836.428L835.798 153.43C832.978 153.43 830.968 154.03 829.768 155.23C828.568 156.43 827.818 158.44 827.518 161.26L823.648 200.68H824.278L848.038 159.91C849.238 157.81 849.838 156.37 849.838 155.59C849.838 154.81 849.358 154.27 848.398 153.97C847.498 153.61 845.938 153.43 843.718 153.43L844.438 151H865.588L864.868 153.43ZM868.229 157.03C869.909 151.81 872.819 149.2 876.959 149.2C878.759 149.2 880.109 149.65 881.009 150.55C881.969 151.45 882.449 152.71 882.449 154.33C882.449 155.11 882.239 156.28 881.819 157.84C881.399 159.22 880.799 160.78 880.019 162.52C879.239 164.26 878.099 166.57 876.599 169.45C873.659 175.15 871.019 180.64 868.679 185.92C866.399 191.2 864.119 197.38 861.839 204.46H859.409C861.449 197.44 862.919 191.29 863.819 186.01C864.779 180.67 865.589 175.06 866.249 169.18C866.609 166.12 866.909 163.69 867.149 161.89C867.449 160.09 867.809 158.47 868.229 157.03ZM854.729 224.26C852.989 224.26 851.609 223.78 850.589 222.82C849.509 221.8 848.969 220.51 848.969 218.95C848.969 217.63 849.359 216.31 850.139 214.99C850.859 213.61 851.849 212.5 853.109 211.66C854.429 210.76 855.839 210.31 857.339 210.31C859.079 210.31 860.459 210.79 861.479 211.75C862.499 212.71 863.009 214 863.009 215.62C863.009 216.94 862.619 218.29 861.839 219.67C861.119 220.99 860.129 222.1 858.869 223C857.609 223.84 856.229 224.26 854.729 224.26ZM892.69 228.6H972.69V148.6H892.69V228.6ZM972.69 228.6H1052.69V148.6H972.69V228.6ZM1052.69 228.6H1132.69V148.6H1052.69V228.6Z" fill="#282F2D"/>
<path d="M91.2422 89.4C95.8422 89.4 99.5422 91 102.342 94.2C105.142 97.2 106.542 101.1 106.542 105.9C106.542 111.1 104.642 115.5 100.842 119.1C97.2422 122.7 92.3422 124.5 86.1422 124.5C79.5422 124.5 74.0422 122.1 69.6422 117.3C65.2422 112.3 63.0422 105.8 63.0422 97.8C63.0422 88.8 66.1422 80.6 72.3422 73.2C78.5422 65.8 87.9422 60.2 100.542 56.4V64.2C92.3422 66.4 85.9422 69.8 81.3422 74.4C76.7422 79 74.4422 83.8 74.4422 88.8C74.4422 90.6 74.7422 92 75.3422 93C76.1422 94 77.0422 94.5 78.0422 94.5C78.8422 94.5 80.4422 93.7 82.8422 92.1C85.2422 90.3 88.0422 89.4 91.2422 89.4ZM148.842 89.4C153.442 89.4 157.142 91 159.942 94.2C162.742 97.2 164.142 101.1 164.142 105.9C164.142 111.1 162.242 115.5 158.442 119.1C154.842 122.7 149.942 124.5 143.742 124.5C137.142 124.5 131.642 122.1 127.242 117.3C122.842 112.3 120.642 105.8 120.642 97.8C120.642 88.8 123.742 80.6 129.942 73.2C136.142 65.8 145.542 60.2 158.142 56.4V64.2C149.942 66.4 143.542 69.8 138.942 74.4C134.342 79 132.042 83.8 132.042 88.8C132.042 90.6 132.342 92 132.942 93C133.742 94 134.642 94.5 135.642 94.5C136.642 94.5 138.242 93.7 140.442 92.1C142.842 90.3 145.642 89.4 148.842 89.4Z" fill="#282F2D"/>
<path d="M1321.51 298.98H1286.2L1286.89 296.82H1322.17L1321.51 298.98ZM1322.32 305.28C1323.46 305.28 1324.27 305.13 1324.75 304.83C1325.23 304.51 1325.6 303.91 1325.86 303.03L1331.59 284.37L1331.65 284.01C1331.65 283.57 1331.38 283.35 1330.84 283.35H1329.19C1328.41 283.35 1327.78 283.47 1327.3 283.71C1326.84 283.95 1326.43 284.36 1326.07 284.94C1325.71 285.52 1325.28 286.41 1324.78 287.61H1323.88L1325.83 282H1342.24L1340.92 287.61H1339.99C1340.23 286.55 1340.35 285.73 1340.35 285.15C1340.35 284.47 1340.18 284 1339.84 283.74C1339.52 283.48 1338.98 283.35 1338.22 283.35H1336.24C1335.56 283.35 1335.11 283.69 1334.89 284.37L1329.16 303.03C1329 303.57 1328.92 303.98 1328.92 304.26C1328.92 304.66 1329.1 304.93 1329.46 305.07C1329.84 305.21 1330.54 305.28 1331.56 305.28L1331.35 306H1322.11L1322.32 305.28ZM1340.37 306.42C1339.03 306.42 1337.95 305.96 1337.13 305.04C1336.33 304.1 1335.93 302.84 1335.93 301.26C1335.93 299.4 1336.35 297.57 1337.19 295.77C1338.03 293.97 1339.13 292.5 1340.49 291.36C1341.85 290.22 1343.25 289.65 1344.69 289.65C1346.03 289.65 1347.11 290.13 1347.93 291.09C1348.75 292.03 1349.16 293.29 1349.16 294.87C1349.16 296.73 1348.74 298.56 1347.9 300.36C1347.06 302.14 1345.96 303.6 1344.6 304.74C1343.24 305.86 1341.83 306.42 1340.37 306.42ZM1340.61 305.13C1341.45 305.13 1342.31 304.54 1343.19 303.36C1344.09 302.16 1344.84 300.68 1345.44 298.92C1346.04 297.16 1346.34 295.49 1346.34 293.91C1346.34 292.97 1346.18 292.24 1345.86 291.72C1345.56 291.18 1345.1 290.91 1344.48 290.91C1343.66 290.91 1342.8 291.52 1341.9 292.74C1341 293.94 1340.25 295.43 1339.65 297.21C1339.07 298.97 1338.78 300.63 1338.78 302.19C1338.78 304.15 1339.39 305.13 1340.61 305.13ZM1354.33 294.51C1354.81 293.07 1355.05 292.18 1355.05 291.84C1355.05 291.5 1354.92 291.33 1354.66 291.33C1354.24 291.33 1353.73 291.66 1353.13 292.32C1352.53 292.96 1351.92 293.79 1351.3 294.81H1350.58C1351.32 293.37 1352.21 292.17 1353.25 291.21C1354.31 290.23 1355.36 289.74 1356.4 289.74C1356.92 289.74 1357.31 289.9 1357.57 290.22C1357.85 290.54 1357.99 290.93 1357.99 291.39C1357.99 291.73 1357.92 292.11 1357.78 292.53C1357.64 292.93 1357.39 293.59 1357.03 294.51L1355.26 299.31H1355.53C1358.01 292.87 1360.56 289.65 1363.18 289.65C1363.92 289.65 1364.29 289.99 1364.29 290.67C1364.29 291.13 1364.12 291.56 1363.78 291.96C1363.46 292.36 1363.1 292.56 1362.7 292.56C1362.56 292.56 1362.41 292.54 1362.25 292.5C1362.11 292.46 1362.01 292.43 1361.95 292.41C1361.63 292.29 1361.37 292.23 1361.17 292.23C1360.33 292.23 1359.26 293.27 1357.96 295.35C1356.68 297.43 1355.19 300.98 1353.49 306H1350.52L1354.33 294.51ZM1370.68 286.68C1370.1 286.68 1369.63 286.51 1369.27 286.17C1368.93 285.83 1368.76 285.38 1368.76 284.82C1368.76 284.26 1368.93 283.81 1369.27 283.47C1369.63 283.13 1370.1 282.96 1370.68 282.96C1371.26 282.96 1371.72 283.13 1372.06 283.47C1372.42 283.81 1372.6 284.26 1372.6 284.82C1372.6 285.38 1372.42 285.83 1372.06 286.17C1371.72 286.51 1371.26 286.68 1370.68 286.68ZM1366.84 294.48C1367.36 293.04 1367.62 292.16 1367.62 291.84C1367.62 291.5 1367.49 291.33 1367.23 291.33C1366.81 291.33 1366.3 291.66 1365.7 292.32C1365.1 292.96 1364.49 293.79 1363.87 294.81H1363.15C1363.89 293.37 1364.78 292.17 1365.82 291.21C1366.88 290.23 1367.93 289.74 1368.97 289.74C1369.49 289.74 1369.88 289.9 1370.14 290.22C1370.42 290.54 1370.56 290.93 1370.56 291.39C1370.56 291.73 1370.49 292.13 1370.35 292.59C1370.23 293.03 1370.01 293.68 1369.69 294.54L1367.08 301.83C1366.66 302.99 1366.45 303.7 1366.45 303.96C1366.45 304.2 1366.49 304.38 1366.57 304.5C1366.65 304.6 1366.79 304.65 1366.99 304.65C1367.51 304.65 1368.08 304.27 1368.7 303.51C1369.32 302.73 1369.9 301.75 1370.44 300.57H1371.13C1370.49 302.15 1369.69 303.5 1368.73 304.62C1367.79 305.72 1366.76 306.27 1365.64 306.27C1364.22 306.27 1363.51 305.63 1363.51 304.35C1363.51 304.11 1363.56 303.83 1363.66 303.51C1363.76 303.17 1363.88 302.81 1364.02 302.43L1364.26 301.74L1366.84 294.48Z" fill="#282F2D"/>
</svg>
