<svg width="1425" height="368" viewBox="0 0 1425 368" fill="none" xmlns="http://www.w3.org/2000/svg">
<rect width="1424.53" height="367.168" fill="#F1E34E"/>
<path d="M681.824 117.185C682.244 118.002 682.606 118.608 682.909 119.005C683.212 119.378 683.597 119.67 684.064 119.88C684.531 120.067 685.184 120.16 686.024 120.16V121H684.309C682.676 121 681.486 120.918 680.739 120.755C679.992 120.568 679.397 120.218 678.954 119.705C678.511 119.168 677.997 118.27 677.414 117.01L672.829 107.735H672.304C671.837 107.735 671.207 107.712 670.414 107.665V117.395C670.414 118.165 670.496 118.737 670.659 119.11C670.846 119.483 671.196 119.752 671.709 119.915C672.246 120.078 673.062 120.16 674.159 120.16V121H662.784V120.16C663.881 120.16 664.686 120.078 665.199 119.915C665.712 119.752 666.051 119.483 666.214 119.11C666.401 118.737 666.494 118.165 666.494 117.395V96.605C666.494 95.835 666.401 95.2633 666.214 94.89C666.051 94.5167 665.712 94.2483 665.199 94.085C664.686 93.9217 663.881 93.84 662.784 93.84V93H673.564C676.621 93 678.896 93.6183 680.389 94.855C681.882 96.0917 682.629 97.8533 682.629 100.14C682.629 102.357 681.964 104.06 680.634 105.25C679.304 106.417 677.519 107.175 675.279 107.525C676.026 107.758 676.656 108.143 677.169 108.68C677.706 109.217 678.266 110.115 678.849 111.375L681.824 117.185ZM670.414 106.3C671.044 106.37 671.709 106.405 672.409 106.405C674.299 106.405 675.804 105.903 676.924 104.9C678.044 103.897 678.604 102.345 678.604 100.245C678.604 98.355 678.137 96.92 677.204 95.94C676.271 94.9367 674.952 94.435 673.249 94.435C672.479 94.435 671.744 94.5517 671.044 94.785C670.624 94.9483 670.414 95.2633 670.414 95.73V106.3ZM690.465 98.39C689.811 98.39 689.263 98.1917 688.82 97.795C688.4 97.375 688.19 96.8617 688.19 96.255C688.19 95.625 688.4 95.1117 688.82 94.715C689.263 94.295 689.811 94.085 690.465 94.085C691.118 94.085 691.655 94.295 692.075 94.715C692.495 95.1117 692.705 95.625 692.705 96.255C692.705 96.8617 692.495 97.375 692.075 97.795C691.655 98.1917 691.118 98.39 690.465 98.39ZM692.425 117.395C692.425 118.188 692.483 118.772 692.6 119.145C692.716 119.518 692.95 119.787 693.3 119.95C693.65 120.09 694.186 120.16 694.91 120.16V121H686.58V120.16C687.303 120.16 687.84 120.09 688.19 119.95C688.54 119.787 688.773 119.518 688.89 119.145C689.006 118.772 689.065 118.188 689.065 117.395V106.615C689.065 105.682 689.03 105.052 688.96 104.725C688.89 104.398 688.68 104.235 688.33 104.235C688.073 104.235 687.63 104.363 687 104.62L686.685 103.815L691.83 101.75L692.425 102.275V117.395ZM702.584 121.56C701.208 121.56 699.936 121.14 698.769 120.3C698.606 120.16 698.443 120.09 698.279 120.09C698.116 120.09 697.964 120.218 697.824 120.475L697.544 121.175H696.774L696.529 113.615H697.299C697.556 115.645 698.128 117.232 699.014 118.375C699.924 119.518 700.998 120.09 702.234 120.09C703.051 120.09 703.669 119.833 704.089 119.32C704.533 118.807 704.754 118.095 704.754 117.185C704.754 116.648 704.649 116.193 704.439 115.82C704.229 115.423 703.868 114.992 703.354 114.525C702.841 114.035 701.978 113.3 700.764 112.32C699.248 111.13 698.198 110.127 697.614 109.31C697.054 108.493 696.774 107.595 696.774 106.615C696.774 105.192 697.229 104.037 698.139 103.15C699.073 102.263 700.239 101.82 701.639 101.82C702.876 101.82 703.973 102.217 704.929 103.01C705.093 103.173 705.256 103.255 705.419 103.255C705.629 103.255 705.769 103.115 705.839 102.835L706.049 102.065H706.854L706.994 108.19H706.224C706.014 106.767 705.524 105.6 704.754 104.69C703.984 103.757 703.039 103.29 701.919 103.29C701.219 103.29 700.659 103.512 700.239 103.955C699.819 104.375 699.609 104.935 699.609 105.635C699.609 106.312 699.831 106.907 700.274 107.42C700.718 107.933 701.616 108.727 702.969 109.8C704.696 111.153 705.898 112.285 706.574 113.195C707.274 114.105 707.624 115.19 707.624 116.45C707.624 118.107 707.146 119.378 706.189 120.265C705.233 121.128 704.031 121.56 702.584 121.56ZM714.908 117.395C714.908 118.188 714.955 118.772 715.048 119.145C715.165 119.518 715.375 119.787 715.678 119.95C715.982 120.09 716.448 120.16 717.078 120.16V121H709.168V120.16C709.868 120.16 710.382 120.09 710.708 119.95C711.035 119.787 711.257 119.518 711.373 119.145C711.49 118.772 711.548 118.188 711.548 117.395L711.513 97.27C711.513 96.3833 711.49 95.8 711.443 95.52C711.397 95.24 711.233 95.1 710.953 95.1C710.697 95.1 710.207 95.2867 709.483 95.66L709.133 94.925L711.863 93.49L714.453 92.16L714.908 92.65V105.495H715.013C715.877 104.282 716.74 103.372 717.603 102.765C718.467 102.135 719.458 101.82 720.578 101.82C721.815 101.82 722.76 102.252 723.413 103.115C724.067 103.978 724.393 105.238 724.393 106.895V117.395C724.393 118.188 724.452 118.772 724.568 119.145C724.685 119.518 724.895 119.787 725.198 119.95C725.525 120.09 726.038 120.16 726.738 120.16V121H718.898V120.16C719.528 120.16 719.983 120.09 720.263 119.95C720.567 119.787 720.765 119.518 720.858 119.145C720.975 118.772 721.033 118.188 721.033 117.395V107.07C721.033 105.203 720.345 104.27 718.968 104.27C718.268 104.27 717.592 104.503 716.938 104.97C716.285 105.413 715.608 106.078 714.908 106.965V117.395ZM735.535 121.56C734.041 121.56 732.723 121.152 731.58 120.335C730.436 119.495 729.55 118.34 728.92 116.87C728.313 115.377 728.01 113.685 728.01 111.795C728.01 109.905 728.301 108.202 728.885 106.685C729.491 105.168 730.366 103.978 731.51 103.115C732.653 102.252 733.995 101.82 735.535 101.82C737.028 101.82 738.335 102.24 739.455 103.08C740.598 103.897 741.485 105.052 742.115 106.545C742.745 108.015 743.06 109.695 743.06 111.585C743.06 113.475 742.756 115.178 742.15 116.695C741.543 118.212 740.668 119.402 739.525 120.265C738.405 121.128 737.075 121.56 735.535 121.56ZM736.06 120.02C737.203 120.02 738.066 119.39 738.65 118.13C739.233 116.87 739.525 115.377 739.525 113.65C739.525 111.97 739.35 110.348 739 108.785C738.673 107.198 738.171 105.903 737.495 104.9C736.818 103.873 735.99 103.36 735.01 103.36C733.843 103.36 732.968 103.99 732.385 105.25C731.801 106.51 731.51 108.003 731.51 109.73C731.51 111.41 731.673 113.043 732 114.63C732.35 116.193 732.863 117.488 733.54 118.515C734.24 119.518 735.08 120.02 736.06 120.02ZM744.652 120.16C745.352 120.16 745.865 120.09 746.192 119.95C746.519 119.787 746.74 119.518 746.857 119.145C746.974 118.772 747.032 118.188 747.032 117.395V106.615C747.032 105.658 746.997 105.028 746.927 104.725C746.857 104.398 746.659 104.235 746.332 104.235C746.029 104.235 745.562 104.375 744.932 104.655L744.582 103.85L747.382 102.73L749.762 101.75L750.427 102.275V105.495H750.532C751.419 104.282 752.282 103.372 753.122 102.765C753.962 102.135 754.942 101.82 756.062 101.82C757.299 101.82 758.244 102.263 758.897 103.15C759.574 104.013 759.912 105.262 759.912 106.895V117.395C759.912 118.188 759.97 118.772 760.087 119.145C760.204 119.518 760.414 119.787 760.717 119.95C761.044 120.09 761.545 120.16 762.222 120.16V121H754.382V120.16C755.012 120.16 755.467 120.09 755.747 119.95C756.05 119.787 756.249 119.518 756.342 119.145C756.459 118.772 756.517 118.188 756.517 117.395V107.105C756.517 105.215 755.829 104.27 754.452 104.27C753.752 104.27 753.075 104.503 752.422 104.97C751.792 105.413 751.127 106.078 750.427 106.965V117.395C750.427 118.188 750.474 118.772 750.567 119.145C750.684 119.518 750.882 119.787 751.162 119.95C751.465 120.09 751.932 120.16 752.562 120.16V121H744.652V120.16Z" fill="#5C421B"/>
<path d="M273.683 160.08C274.603 160.08 275.343 160.4 275.903 161.04C276.463 161.64 276.743 162.42 276.743 163.38C276.743 164.42 276.363 165.3 275.603 166.02C274.883 166.74 273.903 167.1 272.663 167.1C271.343 167.1 270.243 166.62 269.363 165.66C268.483 164.66 268.043 163.36 268.043 161.76C268.043 159.96 268.663 158.32 269.903 156.84C271.143 155.36 273.023 154.24 275.543 153.48V155.04C273.903 155.48 272.623 156.16 271.703 157.08C270.783 158 270.323 158.96 270.323 159.96C270.323 160.32 270.383 160.6 270.503 160.8C270.663 161 270.843 161.1 271.043 161.1C271.203 161.1 271.523 160.94 272.003 160.62C272.483 160.26 273.043 160.08 273.683 160.08ZM285.203 160.08C286.123 160.08 286.863 160.4 287.423 161.04C287.983 161.64 288.263 162.42 288.263 163.38C288.263 164.42 287.883 165.3 287.123 166.02C286.403 166.74 285.423 167.1 284.183 167.1C282.863 167.1 281.763 166.62 280.883 165.66C280.003 164.66 279.563 163.36 279.563 161.76C279.563 159.96 280.183 158.32 281.423 156.84C282.663 155.36 284.543 154.24 287.063 153.48V155.04C285.423 155.48 284.143 156.16 283.223 157.08C282.303 158 281.843 158.96 281.843 159.96C281.843 160.32 281.903 160.6 282.023 160.8C282.183 161 282.363 161.1 282.563 161.1C282.763 161.1 283.083 160.94 283.523 160.62C284.003 160.26 284.563 160.08 285.203 160.08ZM292.146 201V199.56C294.026 199.56 295.406 199.42 296.286 199.14C297.166 198.86 297.746 198.4 298.026 197.76C298.346 197.12 298.506 196.14 298.506 194.82V159.18C298.506 157.86 298.346 156.88 298.026 156.24C297.746 155.6 297.166 155.14 296.286 154.86C295.406 154.58 294.026 154.44 292.146 154.44V153H309.426C313.786 153 317.766 153.88 321.366 155.64C325.006 157.4 327.906 160.1 330.066 163.74C332.266 167.38 333.366 171.88 333.366 177.24C333.366 182.4 332.326 186.78 330.246 190.38C328.206 193.94 325.426 196.6 321.906 198.36C318.386 200.12 314.426 201 310.026 201H292.146ZM309.306 198.54C313.026 198.54 316.146 197.64 318.666 195.84C321.226 194.04 323.126 191.58 324.366 188.46C325.646 185.3 326.286 181.7 326.286 177.66C326.286 173.18 325.526 169.26 324.006 165.9C322.526 162.54 320.506 159.96 317.946 158.16C315.386 156.36 312.526 155.46 309.366 155.46C308.046 155.46 307.066 155.58 306.426 155.82C305.666 155.98 305.286 156.5 305.286 157.38V195.96C305.286 196.92 305.606 197.6 306.246 198C306.886 198.36 307.906 198.54 309.306 198.54ZM359.36 188.16C358.76 192.84 357.5 196.32 355.58 198.6C353.7 200.84 351.3 201.96 348.38 201.96C346.14 201.96 344.18 201.3 342.5 199.98C340.86 198.62 339.58 196.72 338.66 194.28C337.78 191.8 337.34 188.92 337.34 185.64C337.34 182.44 337.8 179.52 338.72 176.88C339.64 174.2 340.94 172.08 342.62 170.52C344.34 168.92 346.36 168.12 348.68 168.12C352.04 168.12 354.6 169.54 356.36 172.38C358.12 175.18 359 178.88 359 183.48H343.16V183.6C343.16 187.8 343.8 191.18 345.08 193.74C346.36 196.26 348.22 197.52 350.66 197.52C352.22 197.52 353.64 196.8 354.92 195.36C356.24 193.92 357.24 191.52 357.92 188.16H359.36ZM348.68 170.64C345.44 170.64 343.62 174.1 343.22 181.02H353.24C353.24 174.1 351.72 170.64 348.68 170.64ZM373.558 201.96C371.198 201.96 369.018 201.24 367.018 199.8C366.738 199.56 366.458 199.44 366.178 199.44C365.898 199.44 365.638 199.66 365.398 200.1L364.918 201.3H363.598L363.178 188.34H364.498C364.938 191.82 365.918 194.54 367.438 196.5C368.998 198.46 370.838 199.44 372.958 199.44C374.358 199.44 375.418 199 376.138 198.12C376.898 197.24 377.278 196.02 377.278 194.46C377.278 193.54 377.098 192.76 376.738 192.12C376.378 191.44 375.758 190.7 374.878 189.9C373.998 189.06 372.518 187.8 370.438 186.12C367.838 184.08 366.038 182.36 365.038 180.96C364.078 179.56 363.598 178.02 363.598 176.34C363.598 173.9 364.378 171.92 365.938 170.4C367.538 168.88 369.538 168.12 371.938 168.12C374.058 168.12 375.938 168.8 377.578 170.16C377.858 170.44 378.138 170.58 378.418 170.58C378.778 170.58 379.018 170.34 379.138 169.86L379.498 168.54H380.878L381.118 179.04H379.798C379.438 176.6 378.598 174.6 377.278 173.04C375.958 171.44 374.338 170.64 372.418 170.64C371.218 170.64 370.258 171.02 369.538 171.78C368.818 172.5 368.458 173.46 368.458 174.66C368.458 175.82 368.838 176.84 369.598 177.72C370.358 178.6 371.898 179.96 374.218 181.8C377.178 184.12 379.238 186.06 380.398 187.62C381.598 189.18 382.198 191.04 382.198 193.2C382.198 196.04 381.378 198.22 379.738 199.74C378.098 201.22 376.038 201.96 373.558 201.96ZM402.728 168.12C405.648 168.12 407.868 169.56 409.388 172.44C410.908 175.28 411.668 179.1 411.668 183.9C411.668 187.22 411.248 190.24 410.408 192.96C409.608 195.64 408.428 197.78 406.868 199.38C405.308 200.94 403.468 201.72 401.348 201.72C399.908 201.72 398.548 201.36 397.268 200.64C395.988 199.88 394.948 198.8 394.148 197.4H394.028V208.02C394.028 209.38 394.128 210.38 394.328 211.02C394.528 211.7 394.928 212.16 395.528 212.4C396.128 212.64 397.048 212.76 398.288 212.76V214.2H384.008V212.76C385.248 212.76 386.148 212.64 386.708 212.4C387.308 212.16 387.708 211.7 387.908 211.02C388.108 210.38 388.208 209.38 388.208 208.02V176.34C388.208 174.7 388.148 173.62 388.028 173.1C387.908 172.54 387.548 172.26 386.948 172.26C386.508 172.26 385.728 172.48 384.608 172.92L384.068 171.54L393.068 168L394.028 168.9V174.18H394.268C396.748 170.14 399.568 168.12 402.728 168.12ZM399.848 198.84C401.768 198.84 403.168 197.52 404.048 194.88C404.928 192.24 405.368 188.88 405.368 184.8C405.368 176.44 403.668 172.26 400.268 172.26C399.108 172.26 397.988 172.7 396.908 173.58C395.828 174.46 394.868 175.62 394.028 177.06V187.98C394.028 190.14 394.288 192.06 394.808 193.74C395.328 195.38 396.028 196.64 396.908 197.52C397.788 198.4 398.768 198.84 399.848 198.84ZM421.161 162.24C420.041 162.24 419.101 161.9 418.341 161.22C417.621 160.5 417.261 159.62 417.261 158.58C417.261 157.5 417.621 156.62 418.341 155.94C419.101 155.22 420.041 154.86 421.161 154.86C422.281 154.86 423.201 155.22 423.921 155.94C424.641 156.62 425.001 157.5 425.001 158.58C425.001 159.62 424.641 160.5 423.921 161.22C423.201 161.9 422.281 162.24 421.161 162.24ZM424.521 194.82C424.521 196.18 424.621 197.18 424.821 197.82C425.021 198.46 425.421 198.92 426.021 199.2C426.621 199.44 427.541 199.56 428.781 199.56V201H414.501V199.56C415.741 199.56 416.661 199.44 417.261 199.2C417.861 198.92 418.261 198.46 418.461 197.82C418.661 197.18 418.761 196.18 418.761 194.82V176.34C418.761 174.74 418.701 173.66 418.581 173.1C418.461 172.54 418.101 172.26 417.501 172.26C417.061 172.26 416.301 172.48 415.221 172.92L414.681 171.54L423.501 168L424.521 168.9V194.82ZM449.437 187.56C449.437 192.44 448.857 196.06 447.697 198.42C446.537 200.78 444.537 201.96 441.697 201.96C439.257 201.96 437.457 201.12 436.297 199.44C435.137 197.72 434.557 194.82 434.557 190.74V171.66H430.357V169.44C432.557 169.4 434.317 168.6 435.637 167.04C436.957 165.48 437.777 163.28 438.097 160.44H440.257V169.2H447.457V171.66H440.377V189.18C440.377 192.14 440.597 194.36 441.037 195.84C441.517 197.32 442.417 198.06 443.737 198.06C445.097 198.06 446.097 197.2 446.737 195.48C447.417 193.76 447.757 191.12 447.757 187.56H449.437ZM474.321 188.16C473.721 192.84 472.461 196.32 470.541 198.6C468.661 200.84 466.261 201.96 463.341 201.96C461.101 201.96 459.141 201.3 457.461 199.98C455.821 198.62 454.541 196.72 453.621 194.28C452.741 191.8 452.301 188.92 452.301 185.64C452.301 182.44 452.761 179.52 453.681 176.88C454.601 174.2 455.901 172.08 457.581 170.52C459.301 168.92 461.321 168.12 463.641 168.12C467.001 168.12 469.561 169.54 471.321 172.38C473.081 175.18 473.961 178.88 473.961 183.48H458.121V183.6C458.121 187.8 458.761 191.18 460.041 193.74C461.321 196.26 463.181 197.52 465.621 197.52C467.181 197.52 468.601 196.8 469.881 195.36C471.201 193.92 472.201 191.52 472.881 188.16H474.321ZM463.641 170.64C460.401 170.64 458.581 174.1 458.181 181.02H468.201C468.201 174.1 466.681 170.64 463.641 170.64ZM497.04 162.24C495.92 162.24 494.98 161.9 494.22 161.22C493.5 160.5 493.14 159.62 493.14 158.58C493.14 157.5 493.5 156.62 494.22 155.94C494.98 155.22 495.92 154.86 497.04 154.86C498.16 154.86 499.08 155.22 499.8 155.94C500.52 156.62 500.88 157.5 500.88 158.58C500.88 159.62 500.52 160.5 499.8 161.22C499.08 161.9 498.16 162.24 497.04 162.24ZM500.4 194.82C500.4 196.18 500.5 197.18 500.7 197.82C500.9 198.46 501.3 198.92 501.9 199.2C502.5 199.44 503.42 199.56 504.66 199.56V201H490.38V199.56C491.62 199.56 492.54 199.44 493.14 199.2C493.74 198.92 494.14 198.46 494.34 197.82C494.54 197.18 494.64 196.18 494.64 194.82V176.34C494.64 174.74 494.58 173.66 494.46 173.1C494.34 172.54 493.98 172.26 493.38 172.26C492.94 172.26 492.18 172.48 491.1 172.92L490.56 171.54L499.38 168L500.4 168.9V194.82ZM525.316 187.56C525.316 192.44 524.736 196.06 523.576 198.42C522.416 200.78 520.416 201.96 517.576 201.96C515.136 201.96 513.336 201.12 512.176 199.44C511.016 197.72 510.436 194.82 510.436 190.74V171.66H506.236V169.44C508.436 169.4 510.196 168.6 511.516 167.04C512.836 165.48 513.656 163.28 513.976 160.44H516.136V169.2H523.336V171.66H516.256V189.18C516.256 192.14 516.476 194.36 516.916 195.84C517.396 197.32 518.296 198.06 519.616 198.06C520.976 198.06 521.976 197.2 522.616 195.48C523.296 193.76 523.636 191.12 523.636 187.56H525.316ZM538.5 201.96C536.14 201.96 533.96 201.24 531.96 199.8C531.68 199.56 531.4 199.44 531.12 199.44C530.84 199.44 530.58 199.66 530.34 200.1L529.86 201.3H528.54L528.12 188.34H529.44C529.88 191.82 530.86 194.54 532.38 196.5C533.94 198.46 535.78 199.44 537.9 199.44C539.3 199.44 540.36 199 541.08 198.12C541.84 197.24 542.22 196.02 542.22 194.46C542.22 193.54 542.04 192.76 541.68 192.12C541.32 191.44 540.7 190.7 539.82 189.9C538.94 189.06 537.46 187.8 535.38 186.12C532.78 184.08 530.98 182.36 529.98 180.96C529.02 179.56 528.54 178.02 528.54 176.34C528.54 173.9 529.32 171.92 530.88 170.4C532.48 168.88 534.48 168.12 536.88 168.12C539 168.12 540.88 168.8 542.52 170.16C542.8 170.44 543.08 170.58 543.36 170.58C543.72 170.58 543.96 170.34 544.08 169.86L544.44 168.54H545.82L546.06 179.04H544.74C544.38 176.6 543.54 174.6 542.22 173.04C540.9 171.44 539.28 170.64 537.36 170.64C536.16 170.64 535.2 171.02 534.48 171.78C533.76 172.5 533.4 173.46 533.4 174.66C533.4 175.82 533.78 176.84 534.54 177.72C535.3 178.6 536.84 179.96 539.16 181.8C542.12 184.12 544.18 186.06 545.34 187.62C546.54 189.18 547.14 191.04 547.14 193.2C547.14 196.04 546.32 198.22 544.68 199.74C543.04 201.22 540.98 201.96 538.5 201.96ZM590.522 194.82C590.522 196.18 590.622 197.18 590.822 197.82C591.022 198.46 591.422 198.92 592.022 199.2C592.622 199.44 593.542 199.56 594.782 199.56V201H580.622V199.56C581.822 199.56 582.702 199.44 583.262 199.2C583.822 198.92 584.202 198.46 584.402 197.82C584.602 197.18 584.702 196.18 584.702 194.82V160.02C584.302 160.1 583.962 160.14 583.682 160.14C582.922 160.14 582.302 159.92 581.822 159.48C581.342 159 580.822 158.26 580.262 157.26C579.702 156.34 579.162 155.66 578.642 155.22C578.162 154.74 577.562 154.5 576.842 154.5C575.482 154.5 574.422 155.18 573.662 156.54C572.942 157.9 572.582 160.28 572.582 163.68V169.2H578.582V171.66H572.582V194.82C572.582 196.18 572.702 197.18 572.942 197.82C573.182 198.46 573.662 198.92 574.382 199.2C575.102 199.44 576.222 199.56 577.742 199.56V201H562.262V199.56C563.582 199.56 564.542 199.44 565.142 199.2C565.782 198.92 566.202 198.46 566.402 197.82C566.642 197.18 566.762 196.18 566.762 194.82V171.66H562.802V169.68L566.762 169.38V164.22C566.762 161.26 567.282 158.84 568.322 156.96C569.362 155.08 570.702 153.72 572.342 152.88C573.982 152 575.722 151.56 577.562 151.56C579.442 151.56 581.182 151.92 582.782 152.64C584.422 153.36 585.562 154.28 586.202 155.4L589.682 152.76L590.522 153.42V194.82ZM623.426 194.22C623.226 199.38 621.366 201.96 617.846 201.96C614.206 201.96 612.386 199.34 612.386 194.1V193.02C611.706 195.86 610.586 198.06 609.026 199.62C607.506 201.18 605.666 201.96 603.506 201.96C601.426 201.96 599.786 201.3 598.586 199.98C597.426 198.62 596.846 196.92 596.846 194.88C596.846 192.68 597.526 190.78 598.886 189.18C600.246 187.54 601.866 186.18 603.746 185.1C605.666 184.02 608.126 182.8 611.126 181.44L612.386 180.9V177.42C612.386 174.94 611.986 173.16 611.186 172.08C610.426 171 609.286 170.46 607.766 170.46C606.566 170.46 605.586 170.76 604.826 171.36C604.106 171.92 603.746 172.68 603.746 173.64C603.746 174 603.806 174.36 603.926 174.72C604.046 175.08 604.126 175.3 604.166 175.38C604.446 176.02 604.586 176.62 604.586 177.18C604.586 178.02 604.326 178.7 603.806 179.22C603.286 179.7 602.566 179.94 601.646 179.94C600.606 179.94 599.786 179.6 599.186 178.92C598.626 178.24 598.346 177.34 598.346 176.22C598.346 174.74 598.786 173.38 599.666 172.14C600.586 170.9 601.826 169.92 603.386 169.2C604.986 168.44 606.766 168.06 608.726 168.06C611.686 168.06 613.986 168.9 615.626 170.58C617.306 172.22 618.146 174.64 618.146 177.84V195.54C618.146 196.94 618.266 197.9 618.506 198.42C618.786 198.94 619.186 199.2 619.706 199.2C621.146 199.2 621.926 197.54 622.046 194.22H623.426ZM605.846 197.4C607.126 197.4 608.346 196.78 609.506 195.54C610.666 194.3 611.626 192.44 612.386 189.96V182.88C609.266 184.48 606.846 186.06 605.126 187.62C603.446 189.14 602.606 191.02 602.606 193.26C602.606 194.54 602.886 195.56 603.446 196.32C604.006 197.04 604.806 197.4 605.846 197.4ZM662.857 170.64C661.577 170.64 660.597 170.94 659.917 171.54C659.277 172.14 658.717 173.34 658.237 175.14L650.617 201.54H647.017L641.797 181.14L636.277 201.54H632.497L624.637 175.14C624.077 173.34 623.457 172.14 622.777 171.54C622.137 170.94 621.177 170.64 619.897 170.64V169.2H632.497V170.64C631.617 170.64 630.997 170.74 630.637 170.94C630.317 171.1 630.157 171.42 630.157 171.9C630.157 172.34 630.397 173.42 630.877 175.14L635.977 192.9H636.217L640.597 176.52L640.237 175.2C639.757 173.36 639.237 172.14 638.677 171.54C638.157 170.94 637.337 170.64 636.217 170.64V169.2H648.757V170.64C647.677 170.64 646.917 170.76 646.477 171C646.077 171.24 645.877 171.7 645.877 172.38C645.877 172.94 646.037 173.9 646.357 175.26L650.437 192.9H650.677L655.717 175.14C655.757 174.94 655.877 174.5 656.077 173.82C656.277 173.1 656.377 172.56 656.377 172.2C656.377 171.6 656.137 171.2 655.657 171C655.177 170.76 654.297 170.64 653.017 170.64V169.2H662.857V170.64ZM673.793 201.96C671.433 201.96 669.253 201.24 667.253 199.8C666.973 199.56 666.693 199.44 666.413 199.44C666.133 199.44 665.873 199.66 665.633 200.1L665.153 201.3H663.833L663.413 188.34H664.733C665.173 191.82 666.153 194.54 667.673 196.5C669.233 198.46 671.073 199.44 673.193 199.44C674.593 199.44 675.653 199 676.373 198.12C677.133 197.24 677.513 196.02 677.513 194.46C677.513 193.54 677.333 192.76 676.973 192.12C676.613 191.44 675.993 190.7 675.113 189.9C674.233 189.06 672.753 187.8 670.673 186.12C668.073 184.08 666.273 182.36 665.273 180.96C664.313 179.56 663.833 178.02 663.833 176.34C663.833 173.9 664.613 171.92 666.173 170.4C667.773 168.88 669.773 168.12 672.173 168.12C674.293 168.12 676.173 168.8 677.813 170.16C678.093 170.44 678.373 170.58 678.653 170.58C679.013 170.58 679.253 170.34 679.373 169.86L679.733 168.54H681.113L681.353 179.04H680.033C679.673 176.6 678.833 174.6 677.513 173.04C676.193 171.44 674.573 170.64 672.653 170.64C671.453 170.64 670.493 171.02 669.773 171.78C669.053 172.5 668.693 173.46 668.693 174.66C668.693 175.82 669.073 176.84 669.833 177.72C670.593 178.6 672.133 179.96 674.453 181.8C677.413 184.12 679.473 186.06 680.633 187.62C681.833 189.18 682.433 191.04 682.433 193.2C682.433 196.04 681.613 198.22 679.973 199.74C678.333 201.22 676.273 201.96 673.793 201.96ZM689.934 201.66C689.094 201.66 688.394 201.36 687.834 200.76C687.274 200.16 686.994 199.4 686.994 198.48C686.994 197.44 687.334 196.58 688.014 195.9C688.734 195.22 689.594 194.88 690.594 194.88C691.834 194.88 692.874 195.36 693.714 196.32C694.594 197.24 695.034 198.5 695.034 200.1C695.034 202.26 694.374 204.32 693.054 206.28C691.774 208.28 689.774 209.82 687.054 210.9V209.28C688.654 208.6 689.994 207.6 691.074 206.28C692.194 205 692.754 203.7 692.754 202.38C692.754 201.58 692.494 201.18 691.974 201.18C691.774 201.18 691.474 201.26 691.074 201.42C690.674 201.58 690.294 201.66 689.934 201.66ZM717.861 159.18C717.861 157.86 717.701 156.88 717.381 156.24C717.101 155.6 716.521 155.14 715.641 154.86C714.761 154.58 713.381 154.44 711.501 154.44V153H731.061V154.44C729.181 154.44 727.781 154.58 726.861 154.86C725.981 155.14 725.381 155.6 725.061 156.24C724.781 156.88 724.641 157.86 724.641 159.18V194.82C724.641 196.14 724.781 197.12 725.061 197.76C725.381 198.4 725.981 198.86 726.861 199.14C727.781 199.42 729.181 199.56 731.061 199.56V201H711.501V199.56C713.381 199.56 714.761 199.42 715.641 199.14C716.521 198.86 717.101 198.4 717.381 197.76C717.701 197.12 717.861 196.14 717.861 194.82V159.18ZM749.319 160.32C749.319 158.76 749.279 157.74 749.199 157.26C749.119 156.74 748.839 156.48 748.359 156.48C747.879 156.48 747.079 156.78 745.959 157.38L745.299 156.12L749.919 153.84L754.359 151.56L755.199 152.4V173.76H755.439C757.919 170 760.839 168.12 764.199 168.12C766.919 168.12 769.079 169.5 770.679 172.26C772.279 174.98 773.079 178.78 773.079 183.66C773.079 189.34 771.959 193.8 769.719 197.04C767.519 200.28 764.379 201.9 760.299 201.9C758.459 201.9 756.539 201.56 754.539 200.88C752.579 200.2 750.839 199.2 749.319 197.88V160.32ZM755.199 196.02C755.759 196.9 756.479 197.64 757.359 198.24C758.239 198.84 759.219 199.14 760.299 199.14C762.379 199.14 763.979 197.88 765.099 195.36C766.219 192.84 766.779 189.28 766.779 184.68C766.779 180.56 766.279 177.46 765.279 175.38C764.279 173.3 762.899 172.26 761.139 172.26C760.019 172.26 758.939 172.66 757.899 173.46C756.899 174.26 755.999 175.34 755.199 176.7V196.02ZM799.106 188.16C798.506 192.84 797.246 196.32 795.326 198.6C793.446 200.84 791.046 201.96 788.126 201.96C785.886 201.96 783.926 201.3 782.246 199.98C780.606 198.62 779.326 196.72 778.406 194.28C777.526 191.8 777.086 188.92 777.086 185.64C777.086 182.44 777.546 179.52 778.466 176.88C779.386 174.2 780.686 172.08 782.366 170.52C784.086 168.92 786.106 168.12 788.426 168.12C791.786 168.12 794.346 169.54 796.106 172.38C797.866 175.18 798.746 178.88 798.746 183.48H782.906V183.6C782.906 187.8 783.546 191.18 784.826 193.74C786.106 196.26 787.966 197.52 790.406 197.52C791.966 197.52 793.386 196.8 794.666 195.36C795.986 193.92 796.986 191.52 797.666 188.16H799.106ZM788.426 170.64C785.186 170.64 783.366 174.1 782.966 181.02H792.986C792.986 174.1 791.466 170.64 788.426 170.64ZM811.348 194.82C811.348 196.18 811.448 197.18 811.648 197.82C811.848 198.46 812.228 198.92 812.788 199.2C813.388 199.44 814.308 199.56 815.548 199.56V201H801.268V199.56C802.508 199.56 803.428 199.44 804.028 199.2C804.628 198.92 805.028 198.46 805.228 197.82C805.428 197.18 805.528 196.18 805.528 194.82V160.14C805.528 158.66 805.468 157.68 805.348 157.2C805.268 156.68 804.988 156.42 804.508 156.42C803.988 156.42 803.128 156.72 801.928 157.32L801.328 156L810.448 151.56L811.348 152.4V194.82ZM824.872 162.24C823.752 162.24 822.812 161.9 822.052 161.22C821.332 160.5 820.972 159.62 820.972 158.58C820.972 157.5 821.332 156.62 822.052 155.94C822.812 155.22 823.752 154.86 824.872 154.86C825.992 154.86 826.912 155.22 827.632 155.94C828.352 156.62 828.712 157.5 828.712 158.58C828.712 159.62 828.352 160.5 827.632 161.22C826.912 161.9 825.992 162.24 824.872 162.24ZM828.232 194.82C828.232 196.18 828.332 197.18 828.532 197.82C828.732 198.46 829.132 198.92 829.732 199.2C830.332 199.44 831.252 199.56 832.492 199.56V201H818.212V199.56C819.452 199.56 820.372 199.44 820.972 199.2C821.572 198.92 821.972 198.46 822.172 197.82C822.372 197.18 822.472 196.18 822.472 194.82V176.34C822.472 174.74 822.412 173.66 822.292 173.1C822.172 172.54 821.812 172.26 821.212 172.26C820.772 172.26 820.012 172.48 818.932 172.92L818.392 171.54L827.212 168L828.232 168.9V194.82ZM857.114 188.16C856.514 192.84 855.254 196.32 853.334 198.6C851.454 200.84 849.054 201.96 846.134 201.96C843.894 201.96 841.934 201.3 840.254 199.98C838.614 198.62 837.334 196.72 836.414 194.28C835.534 191.8 835.094 188.92 835.094 185.64C835.094 182.44 835.554 179.52 836.474 176.88C837.394 174.2 838.694 172.08 840.374 170.52C842.094 168.92 844.114 168.12 846.434 168.12C849.794 168.12 852.354 169.54 854.114 172.38C855.874 175.18 856.754 178.88 856.754 183.48H840.914V183.6C840.914 187.8 841.554 191.18 842.834 193.74C844.114 196.26 845.974 197.52 848.414 197.52C849.974 197.52 851.394 196.8 852.674 195.36C853.994 193.92 854.994 191.52 855.674 188.16H857.114ZM846.434 170.64C843.194 170.64 841.374 174.1 840.974 181.02H850.994C850.994 174.1 849.474 170.64 846.434 170.64ZM878.569 175.14C879.009 173.74 879.229 172.76 879.229 172.2C879.229 171.6 878.989 171.2 878.509 171C878.029 170.76 877.129 170.64 875.809 170.64V169.2H886.189V170.64C884.789 170.64 883.729 170.94 883.009 171.54C882.329 172.14 881.709 173.34 881.149 175.14L872.989 201.48H869.749L861.589 175.14C861.029 173.34 860.409 172.14 859.729 171.54C859.089 170.94 858.129 170.64 856.849 170.64V169.2H870.769V170.64C869.449 170.64 868.529 170.76 868.009 171C867.489 171.2 867.229 171.62 867.229 172.26C867.229 172.78 867.429 173.74 867.829 175.14L872.869 192.72H873.229L878.569 175.14ZM907.622 188.16C907.022 192.84 905.762 196.32 903.842 198.6C901.962 200.84 899.562 201.96 896.642 201.96C894.402 201.96 892.442 201.3 890.762 199.98C889.122 198.62 887.842 196.72 886.922 194.28C886.042 191.8 885.602 188.92 885.602 185.64C885.602 182.44 886.062 179.52 886.982 176.88C887.902 174.2 889.202 172.08 890.882 170.52C892.602 168.92 894.622 168.12 896.942 168.12C900.302 168.12 902.862 169.54 904.622 172.38C906.382 175.18 907.262 178.88 907.262 183.48H891.422V183.6C891.422 187.8 892.062 191.18 893.342 193.74C894.622 196.26 896.482 197.52 898.922 197.52C900.482 197.52 901.902 196.8 903.182 195.36C904.502 193.92 905.502 191.52 906.182 188.16H907.622ZM896.942 170.64C893.702 170.64 891.882 174.1 891.482 181.02H901.502C901.502 174.1 899.982 170.64 896.942 170.64ZM941.801 187.56C941.801 192.44 941.221 196.06 940.061 198.42C938.901 200.78 936.901 201.96 934.061 201.96C931.621 201.96 929.821 201.12 928.661 199.44C927.501 197.72 926.921 194.82 926.921 190.74V171.66H922.721V169.44C924.921 169.4 926.681 168.6 928.001 167.04C929.321 165.48 930.141 163.28 930.461 160.44H932.621V169.2H939.821V171.66H932.741V189.18C932.741 192.14 932.961 194.36 933.401 195.84C933.881 197.32 934.781 198.06 936.101 198.06C937.461 198.06 938.461 197.2 939.101 195.48C939.781 193.76 940.121 191.12 940.121 187.56H941.801ZM953.318 194.82C953.318 196.18 953.398 197.18 953.558 197.82C953.758 198.46 954.118 198.92 954.638 199.2C955.158 199.44 955.958 199.56 957.038 199.56V201H943.478V199.56C944.678 199.56 945.558 199.44 946.118 199.2C946.678 198.92 947.058 198.46 947.258 197.82C947.458 197.18 947.558 196.18 947.558 194.82L947.498 160.32C947.498 158.8 947.458 157.8 947.378 157.32C947.298 156.84 947.018 156.6 946.538 156.6C946.098 156.6 945.258 156.92 944.018 157.56L943.418 156.3L948.098 153.84L952.538 151.56L953.318 152.4V174.42H953.498C954.978 172.34 956.458 170.78 957.938 169.74C959.418 168.66 961.118 168.12 963.038 168.12C965.158 168.12 966.778 168.86 967.898 170.34C969.018 171.82 969.578 173.98 969.578 176.82V194.82C969.578 196.18 969.678 197.18 969.878 197.82C970.078 198.46 970.438 198.92 970.958 199.2C971.518 199.44 972.398 199.56 973.598 199.56V201H960.158V199.56C961.238 199.56 962.018 199.44 962.498 199.2C963.018 198.92 963.358 198.46 963.518 197.82C963.718 197.18 963.818 196.18 963.818 194.82V177.12C963.818 173.92 962.638 172.32 960.278 172.32C959.078 172.32 957.918 172.72 956.798 173.52C955.678 174.28 954.518 175.42 953.318 176.94V194.82ZM1002.64 194.22C1002.44 199.38 1000.58 201.96 997.065 201.96C993.425 201.96 991.605 199.34 991.605 194.1V193.02C990.925 195.86 989.805 198.06 988.245 199.62C986.725 201.18 984.885 201.96 982.725 201.96C980.645 201.96 979.005 201.3 977.805 199.98C976.645 198.62 976.065 196.92 976.065 194.88C976.065 192.68 976.745 190.78 978.105 189.18C979.465 187.54 981.085 186.18 982.965 185.1C984.885 184.02 987.345 182.8 990.345 181.44L991.605 180.9V177.42C991.605 174.94 991.205 173.16 990.405 172.08C989.645 171 988.505 170.46 986.985 170.46C985.785 170.46 984.805 170.76 984.045 171.36C983.325 171.92 982.965 172.68 982.965 173.64C982.965 174 983.025 174.36 983.145 174.72C983.265 175.08 983.345 175.3 983.385 175.38C983.665 176.02 983.805 176.62 983.805 177.18C983.805 178.02 983.545 178.7 983.025 179.22C982.505 179.7 981.785 179.94 980.865 179.94C979.825 179.94 979.005 179.6 978.405 178.92C977.845 178.24 977.565 177.34 977.565 176.22C977.565 174.74 978.005 173.38 978.885 172.14C979.805 170.9 981.045 169.92 982.605 169.2C984.205 168.44 985.985 168.06 987.945 168.06C990.905 168.06 993.205 168.9 994.845 170.58C996.525 172.22 997.365 174.64 997.365 177.84V195.54C997.365 196.94 997.485 197.9 997.725 198.42C998.005 198.94 998.405 199.2 998.925 199.2C1000.36 199.2 1001.14 197.54 1001.26 194.22H1002.64ZM985.065 197.4C986.345 197.4 987.565 196.78 988.725 195.54C989.885 194.3 990.845 192.44 991.605 189.96V182.88C988.485 184.48 986.065 186.06 984.345 187.62C982.665 189.14 981.825 191.02 981.825 193.26C981.825 194.54 982.105 195.56 982.665 196.32C983.225 197.04 984.025 197.4 985.065 197.4ZM1021.2 187.56C1021.2 192.44 1020.62 196.06 1019.46 198.42C1018.3 200.78 1016.3 201.96 1013.46 201.96C1011.02 201.96 1009.22 201.12 1008.06 199.44C1006.9 197.72 1006.32 194.82 1006.32 190.74V171.66H1002.12V169.44C1004.32 169.4 1006.08 168.6 1007.4 167.04C1008.72 165.48 1009.54 163.28 1009.86 160.44H1012.02V169.2H1019.22V171.66H1012.14V189.18C1012.14 192.14 1012.36 194.36 1012.8 195.84C1013.28 197.32 1014.18 198.06 1015.5 198.06C1016.86 198.06 1017.86 197.2 1018.5 195.48C1019.18 193.76 1019.52 191.12 1019.52 187.56H1021.2ZM1050.7 201.96C1048.94 201.96 1047.24 201.6 1045.6 200.88C1043.96 200.16 1042.52 199.18 1041.28 197.94C1040.84 197.5 1040.46 197.28 1040.14 197.28C1039.74 197.28 1039.48 197.66 1039.36 198.42L1038.82 201.18H1037.32L1037.44 183.24H1039C1039.16 186.16 1039.74 188.86 1040.74 191.34C1041.74 193.82 1043.1 195.8 1044.82 197.28C1046.54 198.72 1048.46 199.44 1050.58 199.44C1052.98 199.44 1054.8 198.68 1056.04 197.16C1057.32 195.6 1057.96 193.78 1057.96 191.7C1057.96 189.98 1057.56 188.4 1056.76 186.96C1055.96 185.48 1054.92 184.16 1053.64 183C1052.4 181.8 1050.78 180.44 1048.78 178.92C1046.18 176.92 1044.16 175.28 1042.72 174C1041.28 172.68 1040.08 171.16 1039.12 169.44C1038.2 167.68 1037.74 165.7 1037.74 163.5C1037.74 161.18 1038.26 159.16 1039.3 157.44C1040.34 155.68 1041.76 154.34 1043.56 153.42C1045.36 152.5 1047.4 152.04 1049.68 152.04C1051.36 152.04 1052.84 152.3 1054.12 152.82C1055.4 153.3 1056.58 154.06 1057.66 155.1C1058.1 155.46 1058.46 155.64 1058.74 155.64C1059.26 155.64 1059.58 155.24 1059.7 154.44L1060 152.64H1061.44L1062.16 168.42H1060.66C1060.34 164.46 1059.26 161.16 1057.42 158.52C1055.58 155.84 1053.14 154.5 1050.1 154.5C1047.98 154.5 1046.3 155.18 1045.06 156.54C1043.86 157.86 1043.26 159.5 1043.26 161.46C1043.26 162.94 1043.6 164.3 1044.28 165.54C1045 166.78 1045.96 167.96 1047.16 169.08C1048.4 170.2 1050.12 171.58 1052.32 173.22C1054.84 175.06 1056.86 176.72 1058.38 178.2C1059.9 179.64 1061.12 181.28 1062.04 183.12C1063 184.96 1063.48 187.04 1063.48 189.36C1063.48 191.84 1062.92 194.04 1061.8 195.96C1060.72 197.84 1059.2 199.32 1057.24 200.4C1055.32 201.44 1053.14 201.96 1050.7 201.96ZM1071.94 159.18C1071.94 157.86 1071.78 156.88 1071.46 156.24C1071.18 155.6 1070.6 155.14 1069.72 154.86C1068.84 154.58 1067.46 154.44 1065.58 154.44V153H1085.14V154.44C1083.26 154.44 1081.86 154.58 1080.94 154.86C1080.06 155.14 1079.46 155.6 1079.14 156.24C1078.86 156.88 1078.72 157.86 1078.72 159.18V194.82C1078.72 196.14 1078.86 197.12 1079.14 197.76C1079.46 198.4 1080.06 198.86 1080.94 199.14C1081.86 199.42 1083.26 199.56 1085.14 199.56V201H1065.58V199.56C1067.46 199.56 1068.84 199.42 1069.72 199.14C1070.6 198.86 1071.18 198.4 1071.46 197.76C1071.78 197.12 1071.94 196.14 1071.94 194.82V159.18ZM1122.25 195.12C1122.89 196.92 1123.63 198.12 1124.47 198.72C1125.35 199.28 1126.77 199.56 1128.73 199.56V201H1110.49V199.56C1112.53 199.56 1113.93 199.42 1114.69 199.14C1115.45 198.86 1115.83 198.34 1115.83 197.58C1115.83 197.14 1115.65 196.3 1115.29 195.06L1112.41 185.82H1096.33L1093.39 195.12C1092.99 196.32 1092.79 197.16 1092.79 197.64C1092.79 198.36 1093.17 198.86 1093.93 199.14C1094.69 199.42 1096.05 199.56 1098.01 199.56V201H1084.45V199.56C1086.37 199.56 1087.75 199.28 1088.59 198.72C1089.43 198.12 1090.15 196.92 1090.75 195.12L1104.79 152.28H1108.09L1122.25 195.12ZM1104.31 160.92L1097.11 183.48H1111.63L1104.55 160.92H1104.31ZM1131.64 155.7C1130.08 155.7 1128.88 155.94 1128.04 156.42C1127.24 156.86 1126.62 157.76 1126.18 159.12C1125.74 160.48 1125.42 162.54 1125.22 165.3L1123.48 165.18L1124.26 154.8L1124.44 153H1157.5L1157.62 154.8L1158.4 165.18L1156.72 165.3C1156.48 162.5 1156.14 160.44 1155.7 159.12C1155.26 157.76 1154.62 156.86 1153.78 156.42C1152.98 155.94 1151.8 155.7 1150.24 155.7H1146.34C1145.7 155.7 1145.2 155.88 1144.84 156.24C1144.52 156.6 1144.36 157.1 1144.36 157.74V194.82C1144.36 196.14 1144.5 197.12 1144.78 197.76C1145.1 198.4 1145.7 198.86 1146.58 199.14C1147.46 199.42 1148.84 199.56 1150.72 199.56V201H1131.16V199.56C1133.04 199.56 1134.42 199.42 1135.3 199.14C1136.22 198.86 1136.82 198.4 1137.1 197.76C1137.42 197.12 1137.58 196.14 1137.58 194.82V157.74C1137.58 156.38 1136.9 155.7 1135.54 155.7H1131.64ZM448.641 223.24C447.521 223.24 446.581 222.9 445.821 222.22C445.101 221.5 444.741 220.62 444.741 219.58C444.741 218.5 445.101 217.62 445.821 216.94C446.581 216.22 447.521 215.86 448.641 215.86C449.761 215.86 450.681 216.22 451.401 216.94C452.121 217.62 452.481 218.5 452.481 219.58C452.481 220.62 452.121 221.5 451.401 222.22C450.681 222.9 449.761 223.24 448.641 223.24ZM452.001 255.82C452.001 257.18 452.101 258.18 452.301 258.82C452.501 259.46 452.901 259.92 453.501 260.2C454.101 260.44 455.021 260.56 456.261 260.56V262H441.981V260.56C443.221 260.56 444.141 260.44 444.741 260.2C445.341 259.92 445.741 259.46 445.941 258.82C446.141 258.18 446.241 257.18 446.241 255.82V237.34C446.241 235.74 446.181 234.66 446.061 234.1C445.941 233.54 445.581 233.26 444.981 233.26C444.541 233.26 443.781 233.48 442.701 233.92L442.161 232.54L450.981 229L452.001 229.9V255.82ZM469.418 262.96C467.058 262.96 464.878 262.24 462.878 260.8C462.598 260.56 462.318 260.44 462.038 260.44C461.758 260.44 461.498 260.66 461.258 261.1L460.778 262.3H459.458L459.038 249.34H460.358C460.798 252.82 461.778 255.54 463.298 257.5C464.858 259.46 466.698 260.44 468.818 260.44C470.218 260.44 471.278 260 471.998 259.12C472.758 258.24 473.138 257.02 473.138 255.46C473.138 254.54 472.958 253.76 472.598 253.12C472.238 252.44 471.618 251.7 470.738 250.9C469.858 250.06 468.378 248.8 466.298 247.12C463.698 245.08 461.898 243.36 460.898 241.96C459.938 240.56 459.458 239.02 459.458 237.34C459.458 234.9 460.238 232.92 461.798 231.4C463.398 229.88 465.398 229.12 467.798 229.12C469.918 229.12 471.798 229.8 473.438 231.16C473.718 231.44 473.998 231.58 474.278 231.58C474.638 231.58 474.878 231.34 474.998 230.86L475.358 229.54H476.738L476.978 240.04H475.658C475.298 237.6 474.458 235.6 473.138 234.04C471.818 232.44 470.198 231.64 468.278 231.64C467.078 231.64 466.118 232.02 465.398 232.78C464.678 233.5 464.318 234.46 464.318 235.66C464.318 236.82 464.698 237.84 465.458 238.72C466.218 239.6 467.758 240.96 470.078 242.8C473.038 245.12 475.098 247.06 476.258 248.62C477.458 250.18 478.058 252.04 478.058 254.2C478.058 257.04 477.238 259.22 475.598 260.74C473.958 262.22 471.898 262.96 469.418 262.96ZM520.48 212.8C524.36 212.8 526.3 213.82 526.3 215.86C526.3 216.9 525.86 217.92 524.98 218.92C524.14 219.88 523.22 220.36 522.22 220.36C521.46 220.36 520.78 220.16 520.18 219.76C519.62 219.32 518.98 218.72 518.26 217.96C517.58 217.28 517.02 216.78 516.58 216.46C516.18 216.14 515.72 215.98 515.2 215.98C514.08 215.98 513.4 216.86 513.16 218.62L513.04 219.82C512.76 223.7 512.26 227.04 511.54 229.84H518.14L517.36 232.24H510.88L504.16 254.2C503 258 501.16 261.5 498.64 264.7C496.16 267.94 493.32 270.5 490.12 272.38C486.88 274.26 483.68 275.2 480.52 275.2C477.32 275.2 475.72 274.16 475.72 272.08C475.72 270.8 476.22 269.62 477.22 268.54C478.22 267.5 479.32 266.98 480.52 266.98C481.24 266.98 481.88 267.16 482.44 267.52C483 267.88 483.62 268.4 484.3 269.08C484.9 269.64 485.38 270.04 485.74 270.28C486.06 270.52 486.44 270.64 486.88 270.64C487.6 270.64 488.26 270.24 488.86 269.44C489.42 268.64 490.06 267.24 490.78 265.24C491.5 263.28 492.5 260.2 493.78 256L501.1 232.24H496.3L497.02 229.84H501.82C503.62 224.4 506.06 220.2 509.14 217.24C512.26 214.28 516.04 212.8 520.48 212.8ZM519.925 262.9C518.165 262.9 516.785 262.42 515.785 261.46C514.825 260.5 514.345 259.26 514.345 257.74C514.345 255.94 514.865 253.66 515.905 250.9C516.985 248.1 518.385 244.88 520.105 241.24C520.225 240.92 520.525 240.18 521.005 239.02C521.525 237.86 521.905 236.9 522.145 236.14C522.425 235.34 522.565 234.78 522.565 234.46C522.565 233.86 522.325 233.56 521.845 233.56C521.165 233.56 520.325 234.08 519.325 235.12C518.365 236.12 517.165 237.68 515.725 239.8H514.105C515.785 236.56 517.825 233.94 520.225 231.94C522.625 229.94 525.125 228.94 527.725 228.94C529.165 228.94 530.245 229.36 530.965 230.2C531.725 231 532.105 232.02 532.105 233.26C532.105 234.02 531.925 234.86 531.565 235.78C531.245 236.7 530.685 238.12 529.885 240.04L529.165 241.78L527.965 244.72C527.005 247.12 526.165 249.3 525.445 251.26C524.725 253.18 524.345 254.44 524.305 255.04V255.22C524.305 256.02 524.645 256.42 525.325 256.42C526.205 256.42 527.425 255.52 528.985 253.72C530.585 251.88 532.445 248.74 534.565 244.3C537.805 237.82 539.465 233 539.545 229.84H550.405L543.085 250.84C542.645 252 542.205 253.22 541.765 254.5C541.325 255.78 541.105 256.66 541.105 257.14C541.105 257.54 541.165 257.84 541.285 258.04C541.445 258.2 541.685 258.28 542.005 258.28C542.925 258.28 543.965 257.58 545.125 256.18C546.285 254.78 547.365 253 548.365 250.84H549.985C548.585 254.28 546.845 257.16 544.765 259.48C542.685 261.8 540.245 262.96 537.445 262.96C535.405 262.96 533.925 262.52 533.005 261.64C532.085 260.72 531.625 259.52 531.625 258.04C531.625 257.48 531.705 256.94 531.865 256.42C532.065 255.86 532.405 255 532.885 253.84C533.005 253.52 533.185 253.1 533.425 252.58C533.665 252.06 533.925 251.4 534.205 250.6L537.145 242.86H536.485C533.285 249.7 530.445 254.76 527.965 258.04C525.485 261.28 522.805 262.9 519.925 262.9ZM558.549 241.36C559.989 237.48 560.709 235.18 560.709 234.46C560.709 233.86 560.469 233.56 559.989 233.56C559.309 233.56 558.469 234.08 557.469 235.12C556.509 236.12 555.309 237.68 553.869 239.8H552.249C553.929 236.56 555.969 233.94 558.369 231.94C560.809 229.94 563.309 228.94 565.869 228.94C567.309 228.94 568.389 229.36 569.109 230.2C569.869 231 570.249 232.02 570.249 233.26C570.249 234.02 570.069 234.92 569.709 235.96C569.349 236.96 568.769 238.4 567.969 240.28L567.429 241.48L564.609 248.98H565.269C567.509 244.34 569.449 240.62 571.089 237.82C572.729 235.02 574.409 232.84 576.129 231.28C577.889 229.72 579.749 228.94 581.709 228.94C583.509 228.94 584.889 229.44 585.849 230.44C586.809 231.4 587.289 232.68 587.289 234.28C587.289 235.8 586.809 237.8 585.849 240.28C584.929 242.72 583.589 245.88 581.829 249.76L581.349 250.84L580.869 251.98C580.789 252.22 580.469 253 579.909 254.32C579.389 255.6 579.129 256.48 579.129 256.96C579.129 257.76 579.429 258.16 580.029 258.16C580.949 258.16 581.989 257.46 583.149 256.06C584.349 254.62 585.429 252.84 586.389 250.72H588.069C586.629 254.16 584.869 257.04 582.789 259.36C580.709 261.64 578.289 262.78 575.529 262.78C573.449 262.78 571.949 262.34 571.029 261.46C570.109 260.54 569.649 259.36 569.649 257.92C569.649 257.36 569.749 256.8 569.949 256.24C570.149 255.64 570.489 254.8 570.969 253.72L572.469 250.18L573.369 247.9C574.729 244.58 575.729 242.06 576.369 240.34C577.009 238.58 577.329 237.4 577.329 236.8C577.329 235.88 576.969 235.42 576.249 235.42C575.569 235.42 574.569 236.14 573.249 237.58C571.969 239.02 570.269 241.72 568.149 245.68C566.069 249.64 563.669 255.08 560.949 262H551.409L558.549 241.36ZM629.993 258.16C630.913 258.16 631.953 257.46 633.113 256.06C634.313 254.62 635.393 252.84 636.353 250.72H638.033C636.593 254.16 634.833 257.04 632.753 259.36C630.673 261.64 628.253 262.78 625.493 262.78C623.413 262.78 621.913 262.34 620.993 261.46C620.073 260.54 619.613 259.36 619.613 257.92C619.613 257.32 619.713 256.72 619.913 256.12C620.113 255.48 620.453 254.54 620.933 253.3L622.013 250.42L622.853 248.08H622.313C620.313 252.28 618.213 255.8 616.013 258.64C613.853 261.44 611.433 262.84 608.753 262.84C606.673 262.84 605.033 262 603.833 260.32C602.673 258.6 602.093 256.36 602.093 253.6C602.093 249.92 603.033 246.16 604.913 242.32C606.793 238.44 609.173 235.24 612.053 232.72C614.973 230.2 617.873 228.94 620.753 228.94C622.953 228.94 624.533 229.6 625.493 230.92C626.493 232.24 626.973 233.96 626.933 236.08H627.173L628.793 231.52C630.633 231.52 632.273 231.22 633.713 230.62C635.193 230.02 636.373 229.28 637.253 228.4L638.573 229.18L631.133 250.72C631.093 250.88 631.033 251.06 630.953 251.26C630.873 251.42 630.793 251.62 630.713 251.86C630.353 252.86 629.993 253.88 629.633 254.92C629.273 255.92 629.093 256.6 629.093 256.96C629.093 257.76 629.393 258.16 629.993 258.16ZM613.373 256.24C614.333 256.24 615.473 255.54 616.793 254.14C618.153 252.7 619.453 250.88 620.693 248.68C621.933 246.48 622.893 244.32 623.573 242.2C624.173 240.24 624.473 238.56 624.473 237.16C624.473 234.48 623.673 233.14 622.073 233.14C620.753 233.14 619.253 234.24 617.573 236.44C615.933 238.64 614.513 241.28 613.313 244.36C612.153 247.4 611.573 250.12 611.573 252.52C611.573 255 612.173 256.24 613.373 256.24ZM646.557 241.36C647.997 237.48 648.717 235.18 648.717 234.46C648.717 233.86 648.477 233.56 647.997 233.56C647.317 233.56 646.477 234.08 645.477 235.12C644.517 236.12 643.317 237.68 641.877 239.8H640.257C641.937 236.56 643.977 233.94 646.377 231.94C648.817 229.94 651.317 228.94 653.877 228.94C655.317 228.94 656.397 229.36 657.117 230.2C657.877 231 658.257 232.02 658.257 233.26C658.257 234.02 658.077 234.92 657.717 235.96C657.357 236.96 656.777 238.4 655.977 240.28L655.437 241.48L652.617 248.98H653.277C655.517 244.34 657.457 240.62 659.097 237.82C660.737 235.02 662.417 232.84 664.137 231.28C665.897 229.72 667.757 228.94 669.717 228.94C671.517 228.94 672.897 229.44 673.857 230.44C674.817 231.4 675.297 232.68 675.297 234.28C675.297 235.8 674.817 237.8 673.857 240.28C672.937 242.72 671.597 245.88 669.837 249.76L669.357 250.84L668.877 251.98C668.797 252.22 668.477 253 667.917 254.32C667.397 255.6 667.137 256.48 667.137 256.96C667.137 257.76 667.437 258.16 668.037 258.16C668.957 258.16 669.997 257.46 671.157 256.06C672.357 254.62 673.437 252.84 674.397 250.72H676.077C674.637 254.16 672.877 257.04 670.797 259.36C668.717 261.64 666.297 262.78 663.537 262.78C661.457 262.78 659.957 262.34 659.037 261.46C658.117 260.54 657.657 259.36 657.657 257.92C657.657 257.36 657.757 256.8 657.957 256.24C658.157 255.64 658.497 254.8 658.977 253.72L660.477 250.18L661.377 247.9C662.737 244.58 663.737 242.06 664.377 240.34C665.017 238.58 665.337 237.4 665.337 236.8C665.337 235.88 664.977 235.42 664.257 235.42C663.577 235.42 662.577 236.14 661.257 237.58C659.977 239.02 658.277 241.72 656.157 245.68C654.077 249.64 651.677 255.08 648.957 262H639.417L646.557 241.36ZM705.644 258.16C706.564 258.16 707.604 257.46 708.764 256.06C709.964 254.62 711.044 252.84 712.004 250.72H713.684C712.244 254.16 710.484 257.04 708.404 259.36C706.324 261.64 703.904 262.78 701.144 262.78C699.064 262.78 697.564 262.34 696.644 261.46C695.724 260.54 695.264 259.36 695.264 257.92C695.264 257.28 695.344 256.64 695.504 256C695.704 255.36 696.064 254.38 696.584 253.06C696.544 253.18 696.864 252.28 697.544 250.36L698.324 248.08H697.364C695.404 252.28 693.364 255.8 691.244 258.64C689.124 261.48 686.724 262.9 684.044 262.9C682.044 262.9 680.444 262.04 679.244 260.32C678.044 258.6 677.444 256.36 677.444 253.6C677.444 249.92 678.384 246.16 680.264 242.32C682.144 238.44 684.524 235.24 687.404 232.72C690.324 230.2 693.224 228.94 696.104 228.94C698.304 228.94 699.884 229.62 700.844 230.98C701.844 232.3 702.304 234 702.224 236.08H702.464L707.444 221.5C707.804 220.42 707.984 219.52 707.984 218.8C707.984 217.68 707.604 216.88 706.844 216.4C706.084 215.88 704.964 215.62 703.484 215.62L703.964 214C708.044 214 711.224 213.86 713.504 213.58C715.824 213.26 717.484 212.8 718.484 212.2L719.204 212.86L706.724 250.72C706.284 251.88 705.844 253.1 705.404 254.38C704.964 255.66 704.744 256.52 704.744 256.96C704.744 257.76 705.044 258.16 705.644 258.16ZM688.724 256.3C689.684 256.3 690.824 255.58 692.144 254.14C693.504 252.7 694.804 250.88 696.044 248.68C697.284 246.48 698.244 244.32 698.924 242.2C699.524 240.24 699.824 238.56 699.824 237.16C699.824 234.48 699.024 233.14 697.424 233.14C696.104 233.14 694.604 234.24 692.924 236.44C691.284 238.64 689.864 241.28 688.664 244.36C687.504 247.4 686.924 250.12 686.924 252.52C686.924 255.04 687.524 256.3 688.724 256.3ZM737.385 262.9C734.505 262.9 732.185 261.92 730.425 259.96C728.705 258 727.845 255.26 727.845 251.74C727.845 248.22 728.705 244.66 730.425 241.06C732.145 237.46 734.425 234.5 737.265 232.18C740.145 229.86 743.205 228.7 746.445 228.7C748.525 228.7 750.225 229.34 751.545 230.62C752.865 231.86 753.525 233.52 753.525 235.6C753.525 237.52 753.025 239.22 752.025 240.7C751.065 242.14 749.845 242.86 748.365 242.86C747.445 242.86 746.705 242.58 746.145 242.02C745.625 241.46 745.365 240.76 745.365 239.92C745.365 239.32 745.485 238.84 745.725 238.48C745.965 238.08 746.365 237.58 746.925 236.98C747.485 236.46 747.905 235.98 748.185 235.54C748.465 235.06 748.605 234.48 748.605 233.8C748.605 233.12 748.425 232.6 748.065 232.24C747.745 231.84 747.285 231.64 746.685 231.64C745.245 231.64 743.805 232.58 742.365 234.46C740.965 236.34 739.805 238.72 738.885 241.6C738.005 244.48 737.565 247.26 737.565 249.94C737.565 254.82 738.945 257.26 741.705 257.26C743.225 257.26 744.705 256.56 746.145 255.16C747.625 253.76 749.005 251.8 750.285 249.28H751.905C750.185 253.72 748.105 257.1 745.665 259.42C743.225 261.74 740.465 262.9 737.385 262.9ZM761.285 241.42C762.685 237.58 763.385 235.26 763.385 234.46C763.385 233.86 763.145 233.56 762.665 233.56C761.985 233.56 761.145 234.08 760.145 235.12C759.185 236.12 757.985 237.68 756.545 239.8H754.925C756.605 236.56 758.645 233.94 761.045 231.94C763.485 229.94 765.985 228.94 768.545 228.94C769.985 228.94 771.065 229.36 771.785 230.2C772.545 231 772.925 232.02 772.925 233.26C772.925 234.02 772.745 234.92 772.385 235.96C772.025 236.96 771.445 238.4 770.645 240.28L770.105 241.48L767.285 248.98H767.945C770.905 242.26 773.585 237.22 775.985 233.86C778.385 230.5 780.965 228.82 783.725 228.82C784.605 228.82 785.285 229.06 785.765 229.54C786.245 229.98 786.485 230.64 786.485 231.52C786.485 232.4 786.265 233.28 785.825 234.16C785.385 235 784.805 235.7 784.085 236.26C783.405 236.78 782.705 237.04 781.985 237.04C781.425 237.04 780.785 236.92 780.065 236.68C779.465 236.48 778.945 236.38 778.505 236.38C777.105 236.38 775.205 238.22 772.805 241.9C770.405 245.58 767.465 252.28 763.985 262H754.445L761.285 241.42ZM796.325 257.32C797.965 257.32 799.525 256.66 801.005 255.34C802.485 253.98 804.025 251.86 805.625 248.98H807.245C803.205 258.26 798.085 262.9 791.885 262.9C788.885 262.9 786.465 261.96 784.625 260.08C782.825 258.16 781.925 255.46 781.925 251.98C781.925 248.34 782.825 244.72 784.625 241.12C786.465 237.48 788.845 234.52 791.765 232.24C794.685 229.92 797.685 228.76 800.765 228.76C803.085 228.76 804.925 229.36 806.285 230.56C807.685 231.72 808.385 233.28 808.385 235.24C808.385 237.56 807.565 239.64 805.925 241.48C804.325 243.32 802.245 244.82 799.685 245.98C797.125 247.14 794.445 247.9 791.645 248.26C791.485 249.22 791.405 250.22 791.405 251.26C791.405 253.34 791.845 254.88 792.725 255.88C793.645 256.84 794.845 257.32 796.325 257.32ZM800.645 231.64C798.925 231.64 797.245 233.1 795.605 236.02C794.005 238.9 792.825 242.16 792.065 245.8C794.945 244.92 797.385 243.4 799.385 241.24C801.425 239.08 802.445 236.76 802.445 234.28C802.445 233.36 802.305 232.7 802.025 232.3C801.785 231.86 801.325 231.64 800.645 231.64ZM837.18 258.16C838.1 258.16 839.14 257.46 840.3 256.06C841.5 254.62 842.58 252.84 843.54 250.72H845.22C843.78 254.16 842.02 257.04 839.94 259.36C837.86 261.64 835.44 262.78 832.68 262.78C830.6 262.78 829.1 262.34 828.18 261.46C827.26 260.54 826.8 259.36 826.8 257.92C826.8 257.32 826.9 256.72 827.1 256.12C827.3 255.48 827.64 254.54 828.12 253.3L829.2 250.42L830.04 248.08H829.5C827.5 252.28 825.4 255.8 823.2 258.64C821.04 261.44 818.62 262.84 815.94 262.84C813.86 262.84 812.22 262 811.02 260.32C809.86 258.6 809.28 256.36 809.28 253.6C809.28 249.92 810.22 246.16 812.1 242.32C813.98 238.44 816.36 235.24 819.24 232.72C822.16 230.2 825.06 228.94 827.94 228.94C830.14 228.94 831.72 229.6 832.68 230.92C833.68 232.24 834.16 233.96 834.12 236.08H834.36L835.98 231.52C837.82 231.52 839.46 231.22 840.9 230.62C842.38 230.02 843.56 229.28 844.44 228.4L845.76 229.18L838.32 250.72C838.28 250.88 838.22 251.06 838.14 251.26C838.06 251.42 837.98 251.62 837.9 251.86C837.54 252.86 837.18 253.88 836.82 254.92C836.46 255.92 836.28 256.6 836.28 256.96C836.28 257.76 836.58 258.16 837.18 258.16ZM820.56 256.24C821.52 256.24 822.66 255.54 823.98 254.14C825.34 252.7 826.64 250.88 827.88 248.68C829.12 246.48 830.08 244.32 830.76 242.2C831.36 240.24 831.66 238.56 831.66 237.16C831.66 234.48 830.86 233.14 829.26 233.14C827.94 233.14 826.44 234.24 824.76 236.44C823.12 238.64 821.7 241.28 820.5 244.36C819.34 247.4 818.76 250.12 818.76 252.52C818.76 255 819.36 256.24 820.56 256.24ZM858.019 249.22C857.339 251.06 856.859 252.46 856.579 253.42C856.299 254.38 856.159 255.2 856.159 255.88C856.159 256.4 856.239 256.8 856.399 257.08C856.599 257.32 856.939 257.44 857.419 257.44C858.619 257.44 859.879 256.74 861.199 255.34C862.519 253.94 863.799 252.04 865.039 249.64H866.659C864.899 253.68 862.779 256.88 860.299 259.24C857.819 261.6 855.059 262.78 852.019 262.78C850.139 262.78 848.719 262.34 847.759 261.46C846.839 260.54 846.379 259.26 846.379 257.62C846.379 256.62 846.559 255.46 846.919 254.14C847.319 252.78 847.899 251.02 848.659 248.86L854.599 232.24H850.459L851.479 229.96C856.999 229.48 861.459 226.7 864.859 221.62H867.799L864.739 229.84H870.499L869.719 232.24H863.959L858.019 249.22ZM885.806 224.68C884.246 224.68 882.986 224.24 882.026 223.36C881.066 222.44 880.586 221.24 880.586 219.76C880.586 218.28 881.066 217.08 882.026 216.16C882.986 215.24 884.246 214.78 885.806 214.78C887.326 214.78 888.566 215.24 889.526 216.16C890.486 217.08 890.966 218.28 890.966 219.76C890.966 221.24 890.486 222.44 889.526 223.36C888.566 224.24 887.326 224.68 885.806 224.68ZM875.306 241.36C875.426 241.08 875.826 240.02 876.506 238.18C877.186 236.34 877.526 235.1 877.526 234.46C877.526 233.86 877.286 233.56 876.806 233.56C876.126 233.56 875.286 234.08 874.286 235.12C873.326 236.12 872.126 237.68 870.686 239.8H869.066C870.746 236.56 872.786 233.94 875.186 231.94C877.626 229.94 880.126 228.94 882.686 228.94C884.126 228.94 885.206 229.36 885.926 230.2C886.686 231 887.066 232.02 887.066 233.26C887.066 234.18 886.846 235.28 886.406 236.56C886.006 237.8 885.386 239.48 884.546 241.6L881.186 250.78L880.706 252.04C879.626 254.6 879.086 256.24 879.086 256.96C879.086 257.76 879.386 258.16 879.986 258.16C880.906 258.16 881.946 257.46 883.106 256.06C884.306 254.62 885.386 252.84 886.346 250.72H888.026C886.626 254.12 884.886 256.98 882.806 259.3C880.726 261.62 878.286 262.78 875.486 262.78C873.446 262.78 871.966 262.34 871.046 261.46C870.126 260.54 869.666 259.36 869.666 257.92C869.666 257.28 869.746 256.64 869.906 256C870.106 255.36 870.466 254.38 870.986 253.06C870.946 253.18 871.266 252.28 871.946 250.36L875.306 241.36ZM915.118 228.94C916.158 228.94 917.018 229.36 917.698 230.2C918.418 231.04 918.778 232.18 918.778 233.62C918.778 236.62 917.758 240.5 915.718 245.26C913.718 249.98 911.138 254.1 907.978 257.62C904.818 261.14 901.598 262.9 898.318 262.9C896.038 262.9 894.218 262.1 892.858 260.5C891.538 258.9 890.878 256.84 890.878 254.32C890.878 251.4 891.838 248.38 893.758 245.26C895.718 242.1 898.358 238.82 901.678 235.42C901.118 235.38 900.078 235.16 898.558 234.76C896.798 234.28 895.658 234.04 895.138 234.04C894.298 234.04 893.878 234.4 893.878 235.12C893.878 235.44 893.938 235.72 894.058 235.96C894.218 236.2 894.458 236.5 894.778 236.86C895.098 237.22 895.338 237.54 895.498 237.82C895.658 238.06 895.738 238.36 895.738 238.72C895.738 239.24 895.538 239.7 895.138 240.1C894.778 240.5 894.298 240.7 893.698 240.7C893.138 240.7 892.638 240.5 892.198 240.1C891.798 239.7 891.598 239.12 891.598 238.36C891.598 237.36 892.118 235.78 893.158 233.62C893.878 232.18 894.638 231.1 895.438 230.38C896.278 229.62 897.258 229.24 898.378 229.24C898.778 229.24 899.378 229.3 900.178 229.42C901.018 229.54 901.618 229.62 901.978 229.66C903.818 229.98 905.058 230.14 905.698 230.14C906.578 230.14 907.318 229.88 907.918 229.36C907.998 229.32 908.118 229.22 908.278 229.06L909.598 230.26C906.958 233.5 904.758 236.96 902.998 240.64C901.238 244.28 900.358 247.52 900.358 250.36C900.358 252.08 900.658 253.46 901.258 254.5C901.898 255.5 902.798 256 903.958 256C905.438 256 906.958 255.14 908.518 253.42C910.078 251.7 911.378 249.6 912.418 247.12C913.458 244.6 913.978 242.28 913.978 240.16C913.978 239.28 913.878 238.5 913.678 237.82C913.518 237.1 913.258 236.22 912.898 235.18C912.378 233.86 912.118 232.86 912.118 232.18C912.118 231.26 912.378 230.5 912.898 229.9C913.458 229.26 914.198 228.94 915.118 228.94ZM933.435 257.32C935.075 257.32 936.635 256.66 938.115 255.34C939.595 253.98 941.135 251.86 942.735 248.98H944.355C940.315 258.26 935.195 262.9 928.995 262.9C925.995 262.9 923.575 261.96 921.735 260.08C919.935 258.16 919.035 255.46 919.035 251.98C919.035 248.34 919.935 244.72 921.735 241.12C923.575 237.48 925.955 234.52 928.875 232.24C931.795 229.92 934.795 228.76 937.875 228.76C940.195 228.76 942.035 229.36 943.395 230.56C944.795 231.72 945.495 233.28 945.495 235.24C945.495 237.56 944.675 239.64 943.035 241.48C941.435 243.32 939.355 244.82 936.795 245.98C934.235 247.14 931.555 247.9 928.755 248.26C928.595 249.22 928.515 250.22 928.515 251.26C928.515 253.34 928.955 254.88 929.835 255.88C930.755 256.84 931.955 257.32 933.435 257.32ZM937.755 231.64C936.035 231.64 934.355 233.1 932.715 236.02C931.115 238.9 929.935 242.16 929.175 245.8C932.055 244.92 934.495 243.4 936.495 241.24C938.535 239.08 939.555 236.76 939.555 234.28C939.555 233.36 939.415 232.7 939.135 232.3C938.895 231.86 938.435 231.64 937.755 231.64ZM952.39 262.96C951.39 262.96 950.55 262.62 949.87 261.94C949.19 261.26 948.85 260.42 948.85 259.42C948.85 258.46 949.19 257.64 949.87 256.96C950.55 256.24 951.39 255.88 952.39 255.88C953.35 255.88 954.17 256.24 954.85 256.96C955.57 257.64 955.93 258.46 955.93 259.42C955.93 260.42 955.57 261.26 954.85 261.94C954.17 262.62 953.35 262.96 952.39 262.96ZM976.256 219.46C975.336 219.46 974.596 219.16 974.036 218.56C973.476 217.92 973.196 217.14 973.196 216.22C973.196 215.14 973.556 214.24 974.276 213.52C975.036 212.8 976.036 212.44 977.276 212.44C978.596 212.44 979.696 212.94 980.576 213.94C981.456 214.9 981.896 216.18 981.896 217.78C981.896 219.62 981.276 221.28 980.036 222.76C978.836 224.24 976.956 225.36 974.396 226.12V224.56C975.996 224.08 977.256 223.38 978.176 222.46C979.136 221.54 979.616 220.6 979.616 219.64C979.616 218.88 979.376 218.5 978.896 218.5C978.736 218.5 978.416 218.66 977.936 218.98C977.456 219.3 976.896 219.46 976.256 219.46ZM964.736 219.46C963.816 219.46 963.076 219.16 962.516 218.56C961.956 217.92 961.676 217.14 961.676 216.22C961.676 215.14 962.036 214.24 962.756 213.52C963.516 212.8 964.516 212.44 965.756 212.44C967.076 212.44 968.176 212.94 969.056 213.94C969.936 214.9 970.376 216.18 970.376 217.78C970.376 219.62 969.756 221.28 968.516 222.76C967.316 224.24 965.436 225.36 962.876 226.12V224.56C964.476 224.08 965.736 223.38 966.656 222.46C967.616 221.54 968.096 220.6 968.096 219.64C968.096 218.88 967.856 218.5 967.376 218.5C967.216 218.5 966.896 218.66 966.416 218.98C965.936 219.3 965.376 219.46 964.736 219.46Z" fill="#5C421B"/>
</svg>
