<svg width="1425" height="368" viewBox="0 0 1425 368" fill="none" xmlns="http://www.w3.org/2000/svg">
<rect width="1424.53" height="367.168" fill="#D0FB62"/>
<path d="M350.92 257.88C340.96 257.88 332.5 255.66 325.54 251.22C318.58 246.66 313.36 240.42 309.88 232.5C306.52 224.58 304.84 215.52 304.84 205.32C304.84 190.2 308.38 175.08 315.46 159.96C322.66 144.84 332.5 132.42 344.98 122.7C357.46 112.98 371.26 108.12 386.38 108.12C392.86 108.12 398.38 109.08 402.94 111C407.5 112.92 411.46 115.8 414.82 119.64C416.26 121.08 417.22 121.8 417.7 121.8C418.54 121.8 419.38 120.84 420.22 118.92L424.18 110.1L429.04 110.28L413.2 162.12H408.34C408.94 156.48 409.24 151.8 409.24 148.08C409.24 128.64 402.94 118.92 390.34 118.92C380.98 118.92 372.52 123.54 364.96 132.78C357.4 141.9 351.46 153.24 347.14 166.8C342.94 180.24 340.84 192.84 340.84 204.6C340.84 216.36 343 225.12 347.32 230.88C351.64 236.52 357.4 239.34 364.6 239.34C373.72 239.34 381.94 235.38 389.26 227.46C396.58 219.54 402.7 209.64 407.62 197.76H413.56C408.4 210.6 403.06 221.34 397.54 229.98C392.14 238.62 385.6 245.46 377.92 250.5C370.36 255.42 361.36 257.88 350.92 257.88ZM592.354 115.86C585.994 115.86 581.134 117 577.774 119.28C574.534 121.56 572.074 125.34 570.394 130.62L538.354 235.38C537.394 238.5 536.914 240.9 536.914 242.58C536.914 245.22 538.054 247.14 540.334 248.34C542.614 249.42 546.574 249.96 552.214 249.96L550.594 255H482.554L483.994 249.96C489.874 249.96 494.434 248.88 497.674 246.72C500.914 244.44 503.374 240.66 505.054 235.38L520.354 184.8H474.634L459.154 235.38C458.194 238.62 457.714 241.14 457.714 242.94C457.714 245.46 458.674 247.26 460.594 248.34C462.514 249.42 465.874 249.96 470.674 249.96L469.414 255H401.374L402.814 249.96C409.654 249.96 414.754 248.88 418.114 246.72C421.594 244.44 424.174 240.66 425.854 235.38L457.894 130.62C458.854 127.74 459.334 125.4 459.334 123.6C459.334 120.84 458.194 118.86 455.914 117.66C453.634 116.46 449.674 115.86 444.034 115.86L445.474 111H513.514L512.254 115.86C506.254 115.86 501.634 117 498.394 119.28C495.274 121.56 492.874 125.34 491.194 130.62L477.694 174.72H523.414L536.914 130.62C537.994 126.9 538.534 124.32 538.534 122.88C538.534 120.36 537.514 118.56 535.474 117.48C533.554 116.4 530.194 115.86 525.394 115.86L526.654 111H593.614L592.354 115.86ZM677.51 234.48C677.39 238.68 677.69 241.86 678.41 244.02C679.25 246.18 680.75 247.74 682.91 248.7C685.07 249.54 688.25 249.96 692.45 249.96L690.83 255H621.71L623.33 249.96C630.65 249.96 635.69 248.82 638.45 246.54C641.33 244.14 642.95 240.12 643.31 234.48L644.57 213.96H599.39L583.91 237.72C581.39 241.44 580.13 244.08 580.13 245.64C580.13 247.2 581.27 248.34 583.55 249.06C585.95 249.66 589.97 249.96 595.61 249.96L593.99 255H547.37L548.81 249.96C553.97 249.96 558.23 249.18 561.59 247.62C564.95 245.94 568.25 242.64 571.49 237.72L656.81 108.12H682.01L677.51 234.48ZM647.09 140.52L605.15 205.14H645.11L648.89 140.52H647.09ZM746.796 257.7C736.236 257.7 727.476 255.3 720.516 250.5C713.556 245.7 708.396 239.28 705.036 231.24C701.796 223.2 700.176 214.26 700.176 204.42C700.176 188.58 703.896 173.22 711.336 158.34C718.896 143.46 729.036 131.4 741.756 122.16C754.596 112.8 768.396 108.12 783.156 108.12C793.716 108.12 802.476 110.52 809.436 115.32C816.396 120.12 821.496 126.54 824.736 134.58C828.096 142.5 829.776 151.44 829.776 161.4C829.776 177.24 825.996 192.6 818.436 207.48C810.996 222.36 800.856 234.48 788.016 243.84C775.296 253.08 761.556 257.7 746.796 257.7ZM747.696 248.16C755.376 248.16 763.056 242.16 770.736 230.16C778.416 218.04 784.716 203.52 789.636 186.6C794.676 169.68 797.196 154.74 797.196 141.78C797.196 133.86 795.996 127.86 793.596 123.78C791.196 119.58 787.416 117.48 782.256 117.48C774.576 117.48 766.896 123.54 759.216 135.66C751.536 147.66 745.176 162.18 740.136 179.22C735.216 196.14 732.756 211.08 732.756 224.04C732.756 231.96 733.956 237.96 736.356 242.04C738.756 246.12 742.536 248.16 747.696 248.16ZM828.694 249.96C835.534 249.96 840.634 248.88 843.994 246.72C847.474 244.44 850.054 240.66 851.734 235.38L884.674 127.92C884.914 126.96 885.034 126.24 885.034 125.76C885.034 123.12 883.414 121.8 880.174 121.8H874.414C867.454 121.8 861.754 123.96 857.314 128.28C852.874 132.48 848.734 139.38 844.894 148.98H838.594L851.734 111H962.434L953.074 148.98H946.954C948.274 143.1 948.934 138.48 948.934 135.12C948.934 130.32 947.794 126.9 945.514 124.86C943.354 122.82 939.814 121.8 934.894 121.8H926.074C921.994 121.8 919.294 123.78 917.974 127.74L885.034 235.38C884.194 237.9 883.774 240.18 883.774 242.22C883.774 244.98 884.974 246.96 887.374 248.16C889.894 249.36 894.214 249.96 900.334 249.96L898.894 255H827.254L828.694 249.96ZM982.952 130.62C983.912 127.74 984.392 125.4 984.392 123.6C984.392 120.84 983.252 118.86 980.972 117.66C978.692 116.46 974.732 115.86 969.092 115.86L970.532 111H1039.47L1038.21 115.86C1031.85 115.86 1026.99 117 1023.63 119.28C1020.39 121.56 1017.93 125.4 1016.25 130.8L984.392 235.2C983.432 238.32 982.952 240.72 982.952 242.4C982.952 245.16 984.092 247.14 986.372 248.34C988.652 249.42 992.612 249.96 998.252 249.96L996.632 255H926.432L927.872 249.96C934.712 249.96 939.812 248.88 943.172 246.72C946.652 244.44 949.232 240.66 950.912 235.38L982.952 130.62ZM1066.35 257.88C1056.39 257.88 1047.93 255.66 1040.97 251.22C1034.01 246.66 1028.79 240.42 1025.31 232.5C1021.95 224.58 1020.27 215.52 1020.27 205.32C1020.27 190.2 1023.81 175.08 1030.89 159.96C1038.09 144.84 1047.93 132.42 1060.41 122.7C1072.89 112.98 1086.69 108.12 1101.81 108.12C1108.29 108.12 1113.81 109.08 1118.37 111C1122.93 112.92 1126.89 115.8 1130.25 119.64C1131.69 121.08 1132.65 121.8 1133.13 121.8C1133.97 121.8 1134.81 120.84 1135.65 118.92L1139.61 110.1L1144.47 110.28L1128.63 162.12H1123.77C1124.37 156.48 1124.67 151.8 1124.67 148.08C1124.67 128.64 1118.37 118.92 1105.77 118.92C1096.41 118.92 1087.95 123.54 1080.39 132.78C1072.83 141.9 1066.89 153.24 1062.57 166.8C1058.37 180.24 1056.27 192.84 1056.27 204.6C1056.27 216.36 1058.43 225.12 1062.75 230.88C1067.07 236.52 1072.83 239.34 1080.03 239.34C1089.15 239.34 1097.37 235.38 1104.69 227.46C1112.01 219.54 1118.13 209.64 1123.05 197.76H1128.99C1123.83 210.6 1118.49 221.34 1112.97 229.98C1107.57 238.62 1101.03 245.46 1093.35 250.5C1085.79 255.42 1076.79 257.88 1066.35 257.88Z" fill="#0024F0"/>
<path d="M1278 304.98H1242.69L1243.38 302.82H1278.66L1278 304.98ZM1276.67 312L1276.88 311.28C1278.02 311.28 1278.83 311.13 1279.31 310.83C1279.79 310.51 1280.17 309.91 1280.45 309.03L1285.97 290.97C1286.15 290.33 1286.24 289.9 1286.24 289.68C1286.24 289.32 1286.06 289.07 1285.7 288.93C1285.36 288.79 1284.73 288.72 1283.81 288.72L1284.02 288H1292C1293.78 288 1295.37 288.35 1296.77 289.05C1298.17 289.73 1299.26 290.74 1300.04 292.08C1300.84 293.4 1301.24 294.96 1301.24 296.76C1301.24 299.52 1300.55 302.07 1299.17 304.41C1297.79 306.73 1295.9 308.58 1293.5 309.96C1291.1 311.32 1288.45 312 1285.55 312H1276.67ZM1285.64 310.77C1287.84 310.77 1289.87 310.05 1291.73 308.61C1293.61 307.17 1295.09 305.31 1296.17 303.03C1297.27 300.75 1297.82 298.43 1297.82 296.07C1297.82 293.89 1297.3 292.2 1296.26 291C1295.22 289.8 1293.84 289.2 1292.12 289.2C1290.56 289.2 1289.69 289.51 1289.51 290.13L1283.45 309.75C1283.23 310.43 1283.96 310.77 1285.64 310.77ZM1312.25 310.65C1312.77 310.65 1313.33 310.27 1313.93 309.51C1314.55 308.75 1315.14 307.77 1315.7 306.57H1316.39C1315.75 308.13 1314.95 309.47 1313.99 310.59C1313.05 311.71 1312.02 312.27 1310.9 312.27C1309.48 312.27 1308.77 311.63 1308.77 310.35C1308.77 310.11 1308.81 309.86 1308.89 309.6C1308.97 309.32 1309.11 308.94 1309.31 308.46L1309.58 307.74L1310.75 304.44H1310.48C1309.54 306.48 1308.46 308.31 1307.24 309.93C1306.02 311.53 1304.81 312.33 1303.61 312.33C1302.69 312.33 1302 311.98 1301.54 311.28C1301.1 310.56 1300.88 309.6 1300.88 308.4C1300.88 306.66 1301.34 304.79 1302.26 302.79C1303.2 300.77 1304.37 299.08 1305.77 297.72C1307.17 296.36 1308.54 295.68 1309.88 295.68C1310.84 295.68 1311.54 295.99 1311.98 296.61C1312.44 297.23 1312.64 298.05 1312.58 299.07H1312.67L1313.54 296.67C1314.1 296.67 1314.61 296.56 1315.07 296.34C1315.55 296.12 1315.93 295.84 1316.21 295.5L1316.69 295.77L1312.37 307.83C1312.31 307.99 1312.18 308.33 1311.98 308.85C1311.8 309.37 1311.71 309.74 1311.71 309.96C1311.71 310.2 1311.75 310.38 1311.83 310.5C1311.91 310.6 1312.05 310.65 1312.25 310.65ZM1304.84 310.14C1305.4 310.14 1306.08 309.72 1306.88 308.88C1307.7 308.02 1308.48 306.96 1309.22 305.7C1309.98 304.44 1310.55 303.26 1310.93 302.16C1311.31 301.06 1311.5 300.09 1311.5 299.25C1311.5 298.57 1311.39 298.06 1311.17 297.72C1310.97 297.38 1310.63 297.21 1310.15 297.21C1309.29 297.21 1308.36 297.81 1307.36 299.01C1306.38 300.21 1305.55 301.67 1304.87 303.39C1304.19 305.11 1303.85 306.66 1303.85 308.04C1303.85 308.74 1303.93 309.27 1304.09 309.63C1304.25 309.97 1304.5 310.14 1304.84 310.14ZM1321.49 300.48C1322.01 299.04 1322.27 298.16 1322.27 297.84C1322.27 297.5 1322.14 297.33 1321.88 297.33C1321.46 297.33 1320.95 297.66 1320.35 298.32C1319.75 298.96 1319.14 299.79 1318.52 300.81H1317.8C1318.54 299.37 1319.43 298.17 1320.47 297.21C1321.53 296.23 1322.58 295.74 1323.62 295.74C1324.14 295.74 1324.53 295.9 1324.79 296.22C1325.07 296.54 1325.21 296.93 1325.21 297.39C1325.21 297.73 1325.14 298.11 1325 298.53C1324.86 298.93 1324.61 299.59 1324.25 300.51L1322.48 305.31H1322.78C1324.38 301.93 1325.79 299.48 1327.01 297.96C1328.23 296.44 1329.44 295.68 1330.64 295.68C1331.32 295.68 1331.84 295.88 1332.2 296.28C1332.58 296.68 1332.77 297.21 1332.77 297.87C1332.77 298.65 1332.54 299.65 1332.08 300.87C1331.62 302.09 1330.96 303.65 1330.1 305.55L1329.11 307.83L1328.87 308.46C1328.57 309.28 1328.42 309.78 1328.42 309.96C1328.42 310.2 1328.46 310.38 1328.54 310.5C1328.62 310.6 1328.76 310.65 1328.96 310.65C1329.48 310.65 1330.05 310.27 1330.67 309.51C1331.29 308.73 1331.87 307.75 1332.41 306.57H1333.13C1332.47 308.15 1331.66 309.5 1330.7 310.62C1329.76 311.72 1328.73 312.27 1327.61 312.27C1326.87 312.27 1326.33 312.1 1325.99 311.76C1325.67 311.4 1325.51 310.93 1325.51 310.35C1325.51 310.11 1325.56 309.85 1325.66 309.57C1325.76 309.27 1325.88 308.95 1326.02 308.61L1326.38 307.71L1327.34 305.37C1328.12 303.45 1328.7 301.98 1329.08 300.96C1329.46 299.94 1329.65 299.21 1329.65 298.77C1329.65 298.43 1329.6 298.19 1329.5 298.05C1329.4 297.89 1329.24 297.81 1329.02 297.81C1328.56 297.81 1327.93 298.25 1327.13 299.13C1326.35 299.99 1325.38 301.48 1324.22 303.6C1323.08 305.72 1321.83 308.52 1320.47 312H1317.53L1321.49 300.48ZM1342.06 292.68C1341.48 292.68 1341.01 292.51 1340.65 292.17C1340.31 291.83 1340.14 291.38 1340.14 290.82C1340.14 290.26 1340.31 289.81 1340.65 289.47C1341.01 289.13 1341.48 288.96 1342.06 288.96C1342.64 288.96 1343.1 289.13 1343.44 289.47C1343.8 289.81 1343.98 290.26 1343.98 290.82C1343.98 291.38 1343.8 291.83 1343.44 292.17C1343.1 292.51 1342.64 292.68 1342.06 292.68ZM1338.22 300.48C1338.74 299.04 1339 298.16 1339 297.84C1339 297.5 1338.87 297.33 1338.61 297.33C1338.19 297.33 1337.68 297.66 1337.08 298.32C1336.48 298.96 1335.87 299.79 1335.25 300.81H1334.53C1335.27 299.37 1336.16 298.17 1337.2 297.21C1338.26 296.23 1339.31 295.74 1340.35 295.74C1340.87 295.74 1341.26 295.9 1341.52 296.22C1341.8 296.54 1341.94 296.93 1341.94 297.39C1341.94 297.73 1341.87 298.13 1341.73 298.59C1341.61 299.03 1341.39 299.68 1341.07 300.54L1338.46 307.83C1338.04 308.99 1337.83 309.7 1337.83 309.96C1337.83 310.2 1337.87 310.38 1337.95 310.5C1338.03 310.6 1338.17 310.65 1338.37 310.65C1338.89 310.65 1339.46 310.27 1340.08 309.51C1340.7 308.73 1341.28 307.75 1341.82 306.57H1342.51C1341.87 308.15 1341.07 309.5 1340.11 310.62C1339.17 311.72 1338.14 312.27 1337.02 312.27C1335.6 312.27 1334.89 311.63 1334.89 310.35C1334.89 310.11 1334.94 309.83 1335.04 309.51C1335.14 309.17 1335.26 308.81 1335.4 308.43L1335.64 307.74L1338.22 300.48ZM1354.35 310.32C1355.29 310.32 1356.34 309.13 1357.5 306.75H1358.19C1357.41 308.45 1356.59 309.8 1355.73 310.8C1354.87 311.78 1353.89 312.27 1352.79 312.27C1351.83 312.27 1351.13 311.83 1350.69 310.95C1350.27 310.05 1350.02 308.74 1349.94 307.02C1349.9 306.34 1349.88 305.81 1349.88 305.43C1349.88 304.95 1349.89 304.6 1349.91 304.38C1351.23 304.06 1352.33 303.57 1353.21 302.91C1354.09 302.23 1354.73 301.52 1355.13 300.78C1355.53 300.04 1355.73 299.4 1355.73 298.86C1355.73 298.2 1355.47 297.87 1354.95 297.87C1354.41 297.87 1353.65 298.31 1352.67 299.19C1351.71 300.05 1350.59 301.54 1349.31 303.66C1348.05 305.76 1346.79 308.54 1345.53 312H1342.62L1349.46 290.97C1349.62 290.45 1349.7 290.06 1349.7 289.8C1349.7 289.4 1349.54 289.12 1349.22 288.96C1348.92 288.78 1348.39 288.69 1347.63 288.69L1347.81 288C1349.37 288 1350.58 287.94 1351.44 287.82C1352.3 287.68 1352.87 287.45 1353.15 287.13L1353.54 287.34L1347.6 305.31H1347.81C1349.23 302.15 1350.71 299.77 1352.25 298.17C1353.81 296.55 1355.22 295.74 1356.48 295.74C1357.18 295.74 1357.71 295.95 1358.07 296.37C1358.45 296.77 1358.64 297.26 1358.64 297.84C1358.64 298.5 1358.4 299.26 1357.92 300.12C1357.46 300.98 1356.78 301.79 1355.88 302.55C1354.98 303.29 1353.92 303.84 1352.7 304.2C1352.7 304.7 1352.76 305.45 1352.88 306.45L1352.94 307.14C1353.06 308.26 1353.22 309.07 1353.42 309.57C1353.62 310.07 1353.93 310.32 1354.35 310.32ZM1370.26 310.65C1370.78 310.65 1371.34 310.27 1371.94 309.51C1372.56 308.75 1373.15 307.77 1373.71 306.57H1374.4C1373.76 308.13 1372.96 309.47 1372 310.59C1371.06 311.71 1370.03 312.27 1368.91 312.27C1367.49 312.27 1366.78 311.63 1366.78 310.35C1366.78 310.11 1366.82 309.86 1366.9 309.6C1366.98 309.32 1367.12 308.94 1367.32 308.46L1367.59 307.74L1368.76 304.44H1368.49C1367.55 306.48 1366.47 308.31 1365.25 309.93C1364.03 311.53 1362.82 312.33 1361.62 312.33C1360.7 312.33 1360.01 311.98 1359.55 311.28C1359.11 310.56 1358.89 309.6 1358.89 308.4C1358.89 306.66 1359.35 304.79 1360.27 302.79C1361.21 300.77 1362.38 299.08 1363.78 297.72C1365.18 296.36 1366.55 295.68 1367.89 295.68C1368.85 295.68 1369.55 295.99 1369.99 296.61C1370.45 297.23 1370.65 298.05 1370.59 299.07H1370.68L1371.55 296.67C1372.11 296.67 1372.62 296.56 1373.08 296.34C1373.56 296.12 1373.94 295.84 1374.22 295.5L1374.7 295.77L1370.38 307.83C1370.32 307.99 1370.19 308.33 1369.99 308.85C1369.81 309.37 1369.72 309.74 1369.72 309.96C1369.72 310.2 1369.76 310.38 1369.84 310.5C1369.92 310.6 1370.06 310.65 1370.26 310.65ZM1362.85 310.14C1363.41 310.14 1364.09 309.72 1364.89 308.88C1365.71 308.02 1366.49 306.96 1367.23 305.7C1367.99 304.44 1368.56 303.26 1368.94 302.16C1369.32 301.06 1369.51 300.09 1369.51 299.25C1369.51 298.57 1369.4 298.06 1369.18 297.72C1368.98 297.38 1368.64 297.21 1368.16 297.21C1367.3 297.21 1366.37 297.81 1365.37 299.01C1364.39 300.21 1363.56 301.67 1362.88 303.39C1362.2 305.11 1361.86 306.66 1361.86 308.04C1361.86 308.74 1361.94 309.27 1362.1 309.63C1362.26 309.97 1362.51 310.14 1362.85 310.14Z" fill="#0024F0"/>
<path d="M91.2422 89.4C95.8422 89.4 99.5422 91 102.342 94.2C105.142 97.2 106.542 101.1 106.542 105.9C106.542 111.1 104.642 115.5 100.842 119.1C97.2422 122.7 92.3422 124.5 86.1422 124.5C79.5422 124.5 74.0422 122.1 69.6422 117.3C65.2422 112.3 63.0422 105.8 63.0422 97.8C63.0422 88.8 66.1422 80.6 72.3422 73.2C78.5422 65.8 87.9422 60.2 100.542 56.4V64.2C92.3422 66.4 85.9422 69.8 81.3422 74.4C76.7422 79 74.4422 83.8 74.4422 88.8C74.4422 90.6 74.7422 92 75.3422 93C76.1422 94 77.0422 94.5 78.0422 94.5C78.8422 94.5 80.4422 93.7 82.8422 92.1C85.2422 90.3 88.0422 89.4 91.2422 89.4ZM148.842 89.4C153.442 89.4 157.142 91 159.942 94.2C162.742 97.2 164.142 101.1 164.142 105.9C164.142 111.1 162.242 115.5 158.442 119.1C154.842 122.7 149.942 124.5 143.742 124.5C137.142 124.5 131.642 122.1 127.242 117.3C122.842 112.3 120.642 105.8 120.642 97.8C120.642 88.8 123.742 80.6 129.942 73.2C136.142 65.8 145.542 60.2 158.142 56.4V64.2C149.942 66.4 143.542 69.8 138.942 74.4C134.342 79 132.042 83.8 132.042 88.8C132.042 90.6 132.342 92 132.942 93C133.742 94 134.642 94.5 135.642 94.5C136.642 94.5 138.242 93.7 140.442 92.1C142.842 90.3 145.642 89.4 148.842 89.4Z" fill="#0024F0"/>
</svg>
