<svg width="1425" height="354" viewBox="0 0 1425 354" fill="none" xmlns="http://www.w3.org/2000/svg">
<rect width="1425" height="353.942" fill="#FEDBFF"/>
<path d="M304.538 199.14C305.284 201.24 306.148 202.64 307.128 203.34C308.154 203.993 309.811 204.32 312.098 204.32V206H290.818V204.32C293.198 204.32 294.831 204.157 295.718 203.83C296.604 203.503 297.048 202.897 297.048 202.01C297.048 201.497 296.838 200.517 296.418 199.07L293.058 188.29H274.298L270.868 199.14C270.401 200.54 270.168 201.52 270.168 202.08C270.168 202.92 270.611 203.503 271.498 203.83C272.384 204.157 273.971 204.32 276.258 204.32V206H260.438V204.32C262.678 204.32 264.288 203.993 265.268 203.34C266.248 202.64 267.088 201.24 267.788 199.14L284.168 149.16H288.018L304.538 199.14ZM283.608 159.24L275.208 185.56H292.148L283.888 159.24H283.608ZM347.613 167.64C351.02 167.64 353.61 169.32 355.383 172.68C357.157 175.993 358.043 180.45 358.043 186.05C358.043 189.923 357.553 193.447 356.573 196.62C355.64 199.747 354.263 202.243 352.443 204.11C350.623 205.93 348.477 206.84 346.003 206.84C344.323 206.84 342.737 206.42 341.243 205.58C339.75 204.693 338.537 203.433 337.603 201.8H337.463V214.19C337.463 215.777 337.58 216.943 337.813 217.69C338.047 218.483 338.513 219.02 339.213 219.3C339.913 219.58 340.987 219.72 342.433 219.72V221.4H325.773V219.72C327.22 219.72 328.27 219.58 328.923 219.3C329.623 219.02 330.09 218.483 330.323 217.69C330.557 216.943 330.673 215.777 330.673 214.19V177.23C330.673 175.317 330.603 174.057 330.463 173.45C330.323 172.797 329.903 172.47 329.203 172.47C328.69 172.47 327.78 172.727 326.473 173.24L325.843 171.63L336.343 167.5L337.463 168.55V174.71H337.743C340.637 169.997 343.927 167.64 347.613 167.64ZM344.253 203.48C346.493 203.48 348.127 201.94 349.153 198.86C350.18 195.78 350.693 191.86 350.693 187.1C350.693 177.347 348.71 172.47 344.743 172.47C343.39 172.47 342.083 172.983 340.823 174.01C339.563 175.037 338.443 176.39 337.463 178.07V190.81C337.463 193.33 337.767 195.57 338.373 197.53C338.98 199.443 339.797 200.913 340.823 201.94C341.85 202.967 342.993 203.48 344.253 203.48ZM372.413 198.79C372.413 200.377 372.53 201.543 372.763 202.29C372.996 203.037 373.44 203.573 374.093 203.9C374.793 204.18 375.866 204.32 377.313 204.32V206H360.653V204.32C362.1 204.32 363.173 204.18 363.873 203.9C364.573 203.573 365.04 203.037 365.273 202.29C365.506 201.543 365.623 200.377 365.623 198.79V158.33C365.623 156.603 365.553 155.46 365.413 154.9C365.32 154.293 364.993 153.99 364.433 153.99C363.826 153.99 362.823 154.34 361.423 155.04L360.723 153.5L371.363 148.32L372.413 149.3V198.79ZM410.817 198.09C410.583 204.11 408.413 207.12 404.307 207.12C400.06 207.12 397.937 204.063 397.937 197.95V196.69C397.143 200.003 395.837 202.57 394.017 204.39C392.243 206.21 390.097 207.12 387.577 207.12C385.15 207.12 383.237 206.35 381.837 204.81C380.483 203.223 379.807 201.24 379.807 198.86C379.807 196.293 380.6 194.077 382.187 192.21C383.773 190.297 385.663 188.71 387.857 187.45C390.097 186.19 392.967 184.767 396.467 183.18L397.937 182.55V178.49C397.937 175.597 397.47 173.52 396.537 172.26C395.65 171 394.32 170.37 392.547 170.37C391.147 170.37 390.003 170.72 389.117 171.42C388.277 172.073 387.857 172.96 387.857 174.08C387.857 174.5 387.927 174.92 388.067 175.34C388.207 175.76 388.3 176.017 388.347 176.11C388.673 176.857 388.837 177.557 388.837 178.21C388.837 179.19 388.533 179.983 387.927 180.59C387.32 181.15 386.48 181.43 385.407 181.43C384.193 181.43 383.237 181.033 382.537 180.24C381.883 179.447 381.557 178.397 381.557 177.09C381.557 175.363 382.07 173.777 383.097 172.33C384.17 170.883 385.617 169.74 387.437 168.9C389.303 168.013 391.38 167.57 393.667 167.57C397.12 167.57 399.803 168.55 401.717 170.51C403.677 172.423 404.657 175.247 404.657 178.98V199.63C404.657 201.263 404.797 202.383 405.077 202.99C405.403 203.597 405.87 203.9 406.477 203.9C408.157 203.9 409.067 201.963 409.207 198.09H410.817ZM390.307 201.8C391.8 201.8 393.223 201.077 394.577 199.63C395.93 198.183 397.05 196.013 397.937 193.12V184.86C394.297 186.727 391.473 188.57 389.467 190.39C387.507 192.163 386.527 194.357 386.527 196.97C386.527 198.463 386.853 199.653 387.507 200.54C388.16 201.38 389.093 201.8 390.307 201.8ZM425.781 207.12C423.121 207.12 420.811 206.327 418.851 204.74C416.891 203.107 415.397 200.867 414.371 198.02C413.344 195.127 412.831 191.813 412.831 188.08C412.831 184.16 413.391 180.66 414.511 177.58C415.631 174.5 417.241 172.073 419.341 170.3C421.487 168.527 424.031 167.64 426.971 167.64C429.911 167.64 432.291 168.503 434.111 170.23C435.931 171.91 436.841 174.08 436.841 176.74C436.841 178.233 436.514 179.4 435.861 180.24C435.207 181.033 434.297 181.43 433.131 181.43C432.104 181.43 431.287 181.127 430.681 180.52C430.121 179.913 429.841 179.143 429.841 178.21C429.841 177.837 429.864 177.51 429.911 177.23C429.957 176.903 430.004 176.623 430.051 176.39C430.237 175.457 430.331 174.71 430.331 174.15C430.331 172.983 430.027 172.097 429.421 171.49C428.814 170.883 427.974 170.58 426.901 170.58C424.521 170.58 422.724 171.98 421.511 174.78C420.344 177.58 419.761 181.127 419.761 185.42C419.761 190.227 420.484 194.17 421.931 197.25C423.424 200.283 425.547 201.8 428.301 201.8C430.121 201.8 431.754 200.96 433.201 199.28C434.694 197.553 435.721 194.66 436.281 190.6H437.961C437.587 196.153 436.304 200.307 434.111 203.06C431.917 205.767 429.141 207.12 425.781 207.12ZM466.958 191.02C466.258 196.48 464.788 200.54 462.548 203.2C460.355 205.813 457.555 207.12 454.148 207.12C451.535 207.12 449.248 206.35 447.288 204.81C445.375 203.223 443.882 201.007 442.808 198.16C441.782 195.267 441.268 191.907 441.268 188.08C441.268 184.347 441.805 180.94 442.878 177.86C443.952 174.733 445.468 172.26 447.428 170.44C449.435 168.573 451.792 167.64 454.498 167.64C458.418 167.64 461.405 169.297 463.458 172.61C465.512 175.877 466.538 180.193 466.538 185.56H448.058V185.7C448.058 190.6 448.805 194.543 450.298 197.53C451.792 200.47 453.962 201.94 456.808 201.94C458.628 201.94 460.285 201.1 461.778 199.42C463.318 197.74 464.485 194.94 465.278 191.02H466.958ZM454.498 170.58C450.718 170.58 448.595 174.617 448.128 182.69H459.818C459.818 174.617 458.045 170.58 454.498 170.58ZM534.134 170.58C532.64 170.58 531.497 170.93 530.704 171.63C529.957 172.33 529.304 173.73 528.744 175.83L519.854 206.63H515.654L509.564 182.83L503.124 206.63H498.714L489.544 175.83C488.89 173.73 488.167 172.33 487.374 171.63C486.627 170.93 485.507 170.58 484.014 170.58V168.9H498.714V170.58C497.687 170.58 496.964 170.697 496.544 170.93C496.17 171.117 495.984 171.49 495.984 172.05C495.984 172.563 496.264 173.823 496.824 175.83L502.774 196.55H503.054L508.164 177.44L507.744 175.9C507.184 173.753 506.577 172.33 505.924 171.63C505.317 170.93 504.36 170.58 503.054 170.58V168.9H517.684V170.58C516.424 170.58 515.537 170.72 515.024 171C514.557 171.28 514.324 171.817 514.324 172.61C514.324 173.263 514.51 174.383 514.884 175.97L519.644 196.55H519.924L525.804 175.83C525.85 175.597 525.99 175.083 526.224 174.29C526.457 173.45 526.574 172.82 526.574 172.4C526.574 171.7 526.294 171.233 525.734 171C525.174 170.72 524.147 170.58 522.654 170.58V168.9H534.134V170.58ZM545.154 198.79C545.154 200.377 545.247 201.543 545.434 202.29C545.667 203.037 546.087 203.573 546.694 203.9C547.3 204.18 548.234 204.32 549.494 204.32V206H533.674V204.32C535.074 204.32 536.1 204.18 536.754 203.9C537.407 203.573 537.85 203.037 538.084 202.29C538.317 201.543 538.434 200.377 538.434 198.79L538.364 158.54C538.364 156.767 538.317 155.6 538.224 155.04C538.13 154.48 537.804 154.2 537.244 154.2C536.73 154.2 535.75 154.573 534.304 155.32L533.604 153.85L539.064 150.98L544.244 148.32L545.154 149.3V174.99H545.364C547.09 172.563 548.817 170.743 550.544 169.53C552.27 168.27 554.254 167.64 556.494 167.64C558.967 167.64 560.857 168.503 562.164 170.23C563.47 171.957 564.124 174.477 564.124 177.79V198.79C564.124 200.377 564.24 201.543 564.474 202.29C564.707 203.037 565.127 203.573 565.734 203.9C566.387 204.18 567.414 204.32 568.814 204.32V206H553.134V204.32C554.394 204.32 555.304 204.18 555.864 203.9C556.47 203.573 556.867 203.037 557.054 202.29C557.287 201.543 557.404 200.377 557.404 198.79V178.14C557.404 174.407 556.027 172.54 553.274 172.54C551.874 172.54 550.52 173.007 549.214 173.94C547.907 174.827 546.554 176.157 545.154 177.93V198.79ZM597.046 191.02C596.346 196.48 594.876 200.54 592.636 203.2C590.443 205.813 587.643 207.12 584.236 207.12C581.623 207.12 579.336 206.35 577.376 204.81C575.463 203.223 573.97 201.007 572.896 198.16C571.87 195.267 571.356 191.907 571.356 188.08C571.356 184.347 571.893 180.94 572.966 177.86C574.04 174.733 575.556 172.26 577.516 170.44C579.523 168.573 581.88 167.64 584.586 167.64C588.506 167.64 591.493 169.297 593.546 172.61C595.6 175.877 596.626 180.193 596.626 185.56H578.146V185.7C578.146 190.6 578.893 194.543 580.386 197.53C581.88 200.47 584.05 201.94 586.896 201.94C588.716 201.94 590.373 201.1 591.866 199.42C593.406 197.74 594.573 194.94 595.366 191.02H597.046ZM584.586 170.58C580.806 170.58 578.683 174.617 578.216 182.69H589.906C589.906 174.617 588.133 170.58 584.586 170.58ZM621.264 167.64C622.477 167.64 623.411 167.967 624.064 168.62C624.717 169.273 625.044 170.183 625.044 171.35C625.044 172.657 624.694 173.73 623.994 174.57C623.341 175.41 622.547 175.83 621.614 175.83C621.007 175.83 620.517 175.737 620.144 175.55C619.817 175.317 619.397 174.92 618.884 174.36C618.417 173.893 618.044 173.59 617.764 173.45C617.531 173.263 617.204 173.17 616.784 173.17C615.944 173.17 615.081 173.753 614.194 174.92C613.307 176.04 612.514 177.65 611.814 179.75V198.37C611.814 200.05 611.977 201.287 612.304 202.08C612.677 202.873 613.377 203.433 614.404 203.76C615.431 204.087 617.041 204.25 619.234 204.25V206H600.334V204.32C601.734 204.32 602.761 204.18 603.414 203.9C604.067 203.573 604.511 203.037 604.744 202.29C604.977 201.543 605.094 200.377 605.094 198.79V177.23C605.094 175.317 605.024 174.057 604.884 173.45C604.744 172.797 604.347 172.47 603.694 172.47C603.087 172.47 602.154 172.75 600.894 173.31L600.194 171.7L605.794 169.46L610.554 167.5L611.814 168.55V175.27H612.024C613.144 173.17 614.521 171.373 616.154 169.88C617.787 168.387 619.491 167.64 621.264 167.64ZM652.554 191.02C651.854 196.48 650.384 200.54 648.144 203.2C645.951 205.813 643.151 207.12 639.744 207.12C637.131 207.12 634.844 206.35 632.884 204.81C630.971 203.223 629.477 201.007 628.404 198.16C627.377 195.267 626.864 191.907 626.864 188.08C626.864 184.347 627.401 180.94 628.474 177.86C629.547 174.733 631.064 172.26 633.024 170.44C635.031 168.573 637.387 167.64 640.094 167.64C644.014 167.64 647.001 169.297 649.054 172.61C651.107 175.877 652.134 180.193 652.134 185.56H633.654V185.7C633.654 190.6 634.401 194.543 635.894 197.53C637.387 200.47 639.557 201.94 642.404 201.94C644.224 201.94 645.881 201.1 647.374 199.42C648.914 197.74 650.081 194.94 650.874 191.02H652.554ZM640.094 170.58C636.314 170.58 634.191 174.617 633.724 182.69H645.414C645.414 174.617 643.641 170.58 640.094 170.58ZM679.059 160.78C677.753 160.78 676.656 160.383 675.769 159.59C674.929 158.75 674.509 157.723 674.509 156.51C674.509 155.25 674.929 154.223 675.769 153.43C676.656 152.59 677.753 152.17 679.059 152.17C680.366 152.17 681.439 152.59 682.279 153.43C683.119 154.223 683.539 155.25 683.539 156.51C683.539 157.723 683.119 158.75 682.279 159.59C681.439 160.383 680.366 160.78 679.059 160.78ZM682.979 198.79C682.979 200.377 683.096 201.543 683.329 202.29C683.563 203.037 684.029 203.573 684.729 203.9C685.429 204.18 686.503 204.32 687.949 204.32V206H671.289V204.32C672.736 204.32 673.809 204.18 674.509 203.9C675.209 203.573 675.676 203.037 675.909 202.29C676.143 201.543 676.259 200.377 676.259 198.79V177.23C676.259 175.363 676.189 174.103 676.049 173.45C675.909 172.797 675.489 172.47 674.789 172.47C674.276 172.47 673.389 172.727 672.129 173.24L671.499 171.63L681.789 167.5L682.979 168.55V198.79ZM723.465 203.2L713.105 207.12L711.635 205.93V200.19H711.355C710.422 202.337 709.138 204.04 707.505 205.3C705.918 206.513 704.028 207.12 701.835 207.12C699.642 207.12 697.728 206.35 696.095 204.81C694.462 203.27 693.202 201.1 692.315 198.3C691.428 195.5 690.985 192.257 690.985 188.57C690.985 184.51 691.498 180.893 692.525 177.72C693.598 174.547 695.092 172.073 697.005 170.3C698.965 168.527 701.205 167.64 703.725 167.64C705.452 167.64 706.992 167.99 708.345 168.69C709.745 169.39 710.842 170.347 711.635 171.56V158.47C711.635 156.743 711.565 155.577 711.425 154.97C711.332 154.363 711.005 154.06 710.445 154.06C709.885 154.06 708.905 154.41 707.505 155.11L706.805 153.64L717.515 148.32L718.425 149.3V197.67C718.425 199.537 718.495 200.797 718.635 201.45C718.822 202.057 719.265 202.36 719.965 202.36C720.478 202.36 721.435 202.103 722.835 201.59L723.465 203.2ZM704.775 202.22C706.222 202.22 707.482 201.753 708.555 200.82C709.628 199.84 710.655 198.463 711.635 196.69V183.74C711.635 180.1 711.075 177.113 709.955 174.78C708.882 172.447 707.295 171.28 705.195 171.28C702.862 171.28 701.112 172.727 699.945 175.62C698.778 178.467 698.195 182.223 698.195 186.89C698.195 191.557 698.732 195.29 699.805 198.09C700.925 200.843 702.582 202.22 704.775 202.22ZM751.402 191.02C750.702 196.48 749.232 200.54 746.992 203.2C744.798 205.813 741.998 207.12 738.592 207.12C735.978 207.12 733.692 206.35 731.732 204.81C729.818 203.223 728.325 201.007 727.252 198.16C726.225 195.267 725.712 191.907 725.712 188.08C725.712 184.347 726.248 180.94 727.322 177.86C728.395 174.733 729.912 172.26 731.872 170.44C733.878 168.573 736.235 167.64 738.942 167.64C742.862 167.64 745.848 169.297 747.902 172.61C749.955 175.877 750.982 180.193 750.982 185.56H732.502V185.7C732.502 190.6 733.248 194.543 734.742 197.53C736.235 200.47 738.405 201.94 741.252 201.94C743.072 201.94 744.728 201.1 746.222 199.42C747.762 197.74 748.928 194.94 749.722 191.02H751.402ZM738.942 170.58C735.162 170.58 733.038 174.617 732.572 182.69H744.262C744.262 174.617 742.488 170.58 738.942 170.58ZM786.11 198.09C785.876 204.11 783.706 207.12 779.6 207.12C775.353 207.12 773.23 204.063 773.23 197.95V196.69C772.436 200.003 771.13 202.57 769.31 204.39C767.536 206.21 765.39 207.12 762.87 207.12C760.443 207.12 758.53 206.35 757.13 204.81C755.776 203.223 755.1 201.24 755.1 198.86C755.1 196.293 755.893 194.077 757.48 192.21C759.066 190.297 760.956 188.71 763.15 187.45C765.39 186.19 768.26 184.767 771.76 183.18L773.23 182.55V178.49C773.23 175.597 772.763 173.52 771.83 172.26C770.943 171 769.613 170.37 767.84 170.37C766.44 170.37 765.296 170.72 764.41 171.42C763.57 172.073 763.15 172.96 763.15 174.08C763.15 174.5 763.22 174.92 763.36 175.34C763.5 175.76 763.593 176.017 763.64 176.11C763.966 176.857 764.13 177.557 764.13 178.21C764.13 179.19 763.826 179.983 763.22 180.59C762.613 181.15 761.773 181.43 760.7 181.43C759.486 181.43 758.53 181.033 757.83 180.24C757.176 179.447 756.85 178.397 756.85 177.09C756.85 175.363 757.363 173.777 758.39 172.33C759.463 170.883 760.91 169.74 762.73 168.9C764.596 168.013 766.673 167.57 768.96 167.57C772.413 167.57 775.096 168.55 777.01 170.51C778.97 172.423 779.95 175.247 779.95 178.98V199.63C779.95 201.263 780.09 202.383 780.37 202.99C780.696 203.597 781.163 203.9 781.77 203.9C783.45 203.9 784.36 201.963 784.5 198.09H786.11ZM765.6 201.8C767.093 201.8 768.516 201.077 769.87 199.63C771.223 198.183 772.343 196.013 773.23 193.12V184.86C769.59 186.727 766.766 188.57 764.76 190.39C762.8 192.163 761.82 194.357 761.82 196.97C761.82 198.463 762.146 199.653 762.8 200.54C763.453 201.38 764.386 201.8 765.6 201.8ZM800.164 207.12C797.41 207.12 794.867 206.28 792.534 204.6C792.207 204.32 791.88 204.18 791.554 204.18C791.227 204.18 790.924 204.437 790.644 204.95L790.084 206.35H788.544L788.054 191.23H789.594C790.107 195.29 791.25 198.463 793.024 200.75C794.844 203.037 796.99 204.18 799.464 204.18C801.097 204.18 802.334 203.667 803.174 202.64C804.06 201.613 804.504 200.19 804.504 198.37C804.504 197.297 804.294 196.387 803.874 195.64C803.454 194.847 802.73 193.983 801.704 193.05C800.677 192.07 798.95 190.6 796.524 188.64C793.49 186.26 791.39 184.253 790.224 182.62C789.104 180.987 788.544 179.19 788.544 177.23C788.544 174.383 789.454 172.073 791.274 170.3C793.14 168.527 795.474 167.64 798.274 167.64C800.747 167.64 802.94 168.433 804.854 170.02C805.18 170.347 805.507 170.51 805.834 170.51C806.254 170.51 806.534 170.23 806.674 169.67L807.094 168.13H808.704L808.984 180.38H807.444C807.024 177.533 806.044 175.2 804.504 173.38C802.964 171.513 801.074 170.58 798.834 170.58C797.434 170.58 796.314 171.023 795.474 171.91C794.634 172.75 794.214 173.87 794.214 175.27C794.214 176.623 794.657 177.813 795.544 178.84C796.43 179.867 798.227 181.453 800.934 183.6C804.387 186.307 806.79 188.57 808.144 190.39C809.544 192.21 810.244 194.38 810.244 196.9C810.244 200.213 809.287 202.757 807.374 204.53C805.46 206.257 803.057 207.12 800.164 207.12ZM841.816 207.12C839.156 207.12 836.846 206.327 834.886 204.74C832.926 203.107 831.433 200.867 830.406 198.02C829.379 195.127 828.866 191.813 828.866 188.08C828.866 184.16 829.426 180.66 830.546 177.58C831.666 174.5 833.276 172.073 835.376 170.3C837.523 168.527 840.066 167.64 843.006 167.64C845.946 167.64 848.326 168.503 850.146 170.23C851.966 171.91 852.876 174.08 852.876 176.74C852.876 178.233 852.549 179.4 851.896 180.24C851.243 181.033 850.333 181.43 849.166 181.43C848.139 181.43 847.323 181.127 846.716 180.52C846.156 179.913 845.876 179.143 845.876 178.21C845.876 177.837 845.899 177.51 845.946 177.23C845.993 176.903 846.039 176.623 846.086 176.39C846.273 175.457 846.366 174.71 846.366 174.15C846.366 172.983 846.063 172.097 845.456 171.49C844.849 170.883 844.009 170.58 842.936 170.58C840.556 170.58 838.759 171.98 837.546 174.78C836.379 177.58 835.796 181.127 835.796 185.42C835.796 190.227 836.519 194.17 837.966 197.25C839.459 200.283 841.583 201.8 844.336 201.8C846.156 201.8 847.789 200.96 849.236 199.28C850.729 197.553 851.756 194.66 852.316 190.6H853.996C853.623 196.153 852.339 200.307 850.146 203.06C847.953 205.767 845.176 207.12 841.816 207.12ZM872.353 207.12C869.367 207.12 866.73 206.303 864.443 204.67C862.157 202.99 860.383 200.68 859.123 197.74C857.91 194.753 857.303 191.37 857.303 187.59C857.303 183.81 857.887 180.403 859.053 177.37C860.267 174.337 862.017 171.957 864.303 170.23C866.59 168.503 869.273 167.64 872.353 167.64C875.34 167.64 877.953 168.48 880.193 170.16C882.48 171.793 884.253 174.103 885.513 177.09C886.773 180.03 887.403 183.39 887.403 187.17C887.403 190.95 886.797 194.357 885.583 197.39C884.37 200.423 882.62 202.803 880.333 204.53C878.093 206.257 875.433 207.12 872.353 207.12ZM873.403 204.04C875.69 204.04 877.417 202.78 878.583 200.26C879.75 197.74 880.333 194.753 880.333 191.3C880.333 187.94 879.983 184.697 879.283 181.57C878.63 178.397 877.627 175.807 876.273 173.8C874.92 171.747 873.263 170.72 871.303 170.72C868.97 170.72 867.22 171.98 866.053 174.5C864.887 177.02 864.303 180.007 864.303 183.46C864.303 186.82 864.63 190.087 865.283 193.26C865.983 196.387 867.01 198.977 868.363 201.03C869.763 203.037 871.443 204.04 873.403 204.04ZM937.908 198.79C937.908 200.377 938.025 201.543 938.258 202.29C938.491 203.037 938.911 203.573 939.518 203.9C940.171 204.18 941.198 204.32 942.598 204.32V206H927.128V204.32C928.341 204.32 929.228 204.18 929.788 203.9C930.348 203.573 930.721 203.037 930.908 202.29C931.095 201.543 931.188 200.377 931.188 198.79V178.07C931.188 174.383 929.881 172.54 927.268 172.54C926.055 172.54 924.865 172.96 923.698 173.8C922.531 174.64 921.318 175.9 920.058 177.58V177.72V198.79C920.058 200.377 920.151 201.543 920.338 202.29C920.525 203.037 920.898 203.573 921.458 203.9C922.018 204.18 922.905 204.32 924.118 204.32V206H909.208V204.32C910.421 204.32 911.308 204.18 911.868 203.9C912.475 203.573 912.871 203.037 913.058 202.29C913.245 201.543 913.338 200.377 913.338 198.79V178.07C913.338 174.383 912.031 172.54 909.418 172.54C908.158 172.54 906.921 172.983 905.708 173.87C904.541 174.757 903.305 176.087 901.998 177.86V198.79C901.998 200.377 902.091 201.543 902.278 202.29C902.465 203.037 902.838 203.573 903.398 203.9C904.005 204.18 904.915 204.32 906.128 204.32V206H890.518V204.32C891.918 204.32 892.945 204.18 893.598 203.9C894.251 203.573 894.695 203.037 894.928 202.29C895.161 201.543 895.278 200.377 895.278 198.79V177.23C895.278 175.363 895.208 174.127 895.068 173.52C894.928 172.867 894.531 172.54 893.878 172.54C893.365 172.54 892.455 172.797 891.148 173.31L890.448 171.77L900.668 167.5L901.998 168.55V174.99H902.208C903.748 172.657 905.311 170.86 906.898 169.6C908.531 168.293 910.445 167.64 912.638 167.64C914.691 167.64 916.325 168.27 917.538 169.53C918.751 170.79 919.545 172.61 919.918 174.99H920.128C921.621 172.657 923.161 170.86 924.748 169.6C926.381 168.293 928.295 167.64 930.488 167.64C932.915 167.64 934.758 168.503 936.018 170.23C937.278 171.957 937.908 174.453 937.908 177.72V198.79ZM970.835 191.02C970.135 196.48 968.665 200.54 966.425 203.2C964.232 205.813 961.432 207.12 958.025 207.12C955.412 207.12 953.125 206.35 951.165 204.81C949.252 203.223 947.759 201.007 946.685 198.16C945.659 195.267 945.145 191.907 945.145 188.08C945.145 184.347 945.682 180.94 946.755 177.86C947.829 174.733 949.345 172.26 951.305 170.44C953.312 168.573 955.669 167.64 958.375 167.64C962.295 167.64 965.282 169.297 967.335 172.61C969.389 175.877 970.415 180.193 970.415 185.56H951.935V185.7C951.935 190.6 952.682 194.543 954.175 197.53C955.669 200.47 957.839 201.94 960.685 201.94C962.505 201.94 964.162 201.1 965.655 199.42C967.195 197.74 968.362 194.94 969.155 191.02H970.835ZM958.375 170.58C954.595 170.58 952.472 174.617 952.005 182.69H963.695C963.695 174.617 961.922 170.58 958.375 170.58ZM1010.71 190.32C1010.71 196.013 1010.03 200.237 1008.68 202.99C1007.33 205.743 1004.99 207.12 1001.68 207.12C998.834 207.12 996.734 206.14 995.381 204.18C994.027 202.173 993.351 198.79 993.351 194.03V171.77H988.451V169.18C991.017 169.133 993.071 168.2 994.611 166.38C996.151 164.56 997.107 161.993 997.481 158.68H1000V168.9H1008.4V171.77H1000.14V192.21C1000.14 195.663 1000.4 198.253 1000.91 199.98C1001.47 201.707 1002.52 202.57 1004.06 202.57C1005.65 202.57 1006.81 201.567 1007.56 199.56C1008.35 197.553 1008.75 194.473 1008.75 190.32H1010.71ZM1029.1 207.12C1026.11 207.12 1023.48 206.303 1021.19 204.67C1018.9 202.99 1017.13 200.68 1015.87 197.74C1014.66 194.753 1014.05 191.37 1014.05 187.59C1014.05 183.81 1014.63 180.403 1015.8 177.37C1017.01 174.337 1018.76 171.957 1021.05 170.23C1023.34 168.503 1026.02 167.64 1029.1 167.64C1032.09 167.64 1034.7 168.48 1036.94 170.16C1039.23 171.793 1041 174.103 1042.26 177.09C1043.52 180.03 1044.15 183.39 1044.15 187.17C1044.15 190.95 1043.54 194.357 1042.33 197.39C1041.12 200.423 1039.37 202.803 1037.08 204.53C1034.84 206.257 1032.18 207.12 1029.1 207.12ZM1030.15 204.04C1032.44 204.04 1034.16 202.78 1035.33 200.26C1036.5 197.74 1037.08 194.753 1037.08 191.3C1037.08 187.94 1036.73 184.697 1036.03 181.57C1035.38 178.397 1034.37 175.807 1033.02 173.8C1031.67 171.747 1030.01 170.72 1028.05 170.72C1025.72 170.72 1023.97 171.98 1022.8 174.5C1021.63 177.02 1021.05 180.007 1021.05 183.46C1021.05 186.82 1021.38 190.087 1022.03 193.26C1022.73 196.387 1023.76 198.977 1025.11 201.03C1026.51 203.037 1028.19 204.04 1030.15 204.04ZM1074.05 198.79C1074.05 200.377 1074.17 201.543 1074.4 202.29C1074.64 203.037 1075.08 203.573 1075.73 203.9C1076.43 204.18 1077.51 204.32 1078.95 204.32V206H1062.29V204.32C1063.74 204.32 1064.81 204.18 1065.51 203.9C1066.21 203.573 1066.68 203.037 1066.91 202.29C1067.15 201.543 1067.26 200.377 1067.26 198.79V158.33C1067.26 156.603 1067.19 155.46 1067.05 154.9C1066.96 154.293 1066.63 153.99 1066.07 153.99C1065.47 153.99 1064.46 154.34 1063.06 155.04L1062.36 153.5L1073 148.32L1074.05 149.3V198.79ZM1089.83 160.78C1088.52 160.78 1087.43 160.383 1086.54 159.59C1085.7 158.75 1085.28 157.723 1085.28 156.51C1085.28 155.25 1085.7 154.223 1086.54 153.43C1087.43 152.59 1088.52 152.17 1089.83 152.17C1091.14 152.17 1092.21 152.59 1093.05 153.43C1093.89 154.223 1094.31 155.25 1094.31 156.51C1094.31 157.723 1093.89 158.75 1093.05 159.59C1092.21 160.383 1091.14 160.78 1089.83 160.78ZM1093.75 198.79C1093.75 200.377 1093.87 201.543 1094.1 202.29C1094.33 203.037 1094.8 203.573 1095.5 203.9C1096.2 204.18 1097.27 204.32 1098.72 204.32V206H1082.06V204.32C1083.51 204.32 1084.58 204.18 1085.28 203.9C1085.98 203.573 1086.45 203.037 1086.68 202.29C1086.91 201.543 1087.03 200.377 1087.03 198.79V177.23C1087.03 175.363 1086.96 174.103 1086.82 173.45C1086.68 172.797 1086.26 172.47 1085.56 172.47C1085.05 172.47 1084.16 172.727 1082.9 173.24L1082.27 171.63L1092.56 167.5L1093.75 168.55V198.79ZM1119.67 148.11C1121.3 148.11 1122.75 148.367 1124.01 148.88C1125.32 149.393 1126.32 150.07 1127.02 150.91C1127.77 151.75 1128.14 152.637 1128.14 153.57C1128.14 154.503 1127.84 155.297 1127.23 155.95C1126.62 156.603 1125.76 156.93 1124.64 156.93C1123.85 156.93 1123.19 156.72 1122.68 156.3C1122.21 155.88 1121.65 155.18 1121 154.2C1120.25 153.08 1119.67 152.333 1119.25 151.96C1118.88 151.587 1118.39 151.4 1117.78 151.4C1116.29 151.4 1115.12 152.263 1114.28 153.99C1113.49 155.67 1113.09 158.493 1113.09 162.46V168.9H1120.93V171.77H1113.09V198.79C1113.09 200.377 1113.25 201.543 1113.58 202.29C1113.95 203.037 1114.63 203.573 1115.61 203.9C1116.59 204.18 1118.11 204.32 1120.16 204.32V206H1101.05V204.32C1102.59 204.32 1103.71 204.18 1104.41 203.9C1105.16 203.573 1105.65 203.037 1105.88 202.29C1106.16 201.543 1106.3 200.377 1106.3 198.79V171.77H1101.68V169.46L1106.3 169.11V163.72C1106.3 160.033 1106.95 157.023 1108.26 154.69C1109.57 152.357 1111.22 150.677 1113.23 149.65C1115.28 148.623 1117.43 148.11 1119.67 148.11ZM1148.3 191.02C1147.6 196.48 1146.13 200.54 1143.89 203.2C1141.69 205.813 1138.89 207.12 1135.49 207.12C1132.87 207.12 1130.59 206.35 1128.63 204.81C1126.71 203.223 1125.22 201.007 1124.15 198.16C1123.12 195.267 1122.61 191.907 1122.61 188.08C1122.61 184.347 1123.14 180.94 1124.22 177.86C1125.29 174.733 1126.81 172.26 1128.77 170.44C1130.77 168.573 1133.13 167.64 1135.84 167.64C1139.76 167.64 1142.74 169.297 1144.8 172.61C1146.85 175.877 1147.88 180.193 1147.88 185.56H1129.4V185.7C1129.4 190.6 1130.14 194.543 1131.64 197.53C1133.13 200.47 1135.3 201.94 1138.15 201.94C1139.97 201.94 1141.62 201.1 1143.12 199.42C1144.66 197.74 1145.82 194.94 1146.62 191.02H1148.3ZM1135.84 170.58C1132.06 170.58 1129.93 174.617 1129.47 182.69H1141.16C1141.16 174.617 1139.38 170.58 1135.84 170.58ZM1155.41 207.12C1154.24 207.12 1153.26 206.723 1152.47 205.93C1151.67 205.137 1151.28 204.157 1151.28 202.99C1151.28 201.87 1151.67 200.913 1152.47 200.12C1153.26 199.28 1154.24 198.86 1155.41 198.86C1156.53 198.86 1157.48 199.28 1158.28 200.12C1159.12 200.913 1159.54 201.87 1159.54 202.99C1159.54 204.157 1159.12 205.137 1158.28 205.93C1157.48 206.723 1156.53 207.12 1155.41 207.12Z" fill="#E500CA"/>
<path d="M91.2422 89.4C95.8422 89.4 99.5422 91 102.342 94.2C105.142 97.2 106.542 101.1 106.542 105.9C106.542 111.1 104.642 115.5 100.842 119.1C97.2422 122.7 92.3422 124.5 86.1422 124.5C79.5422 124.5 74.0422 122.1 69.6422 117.3C65.2422 112.3 63.0422 105.8 63.0422 97.8C63.0422 88.8 66.1422 80.6 72.3422 73.2C78.5422 65.8 87.9422 60.2 100.542 56.4V64.2C92.3422 66.4 85.9422 69.8 81.3422 74.4C76.7422 79 74.4422 83.8 74.4422 88.8C74.4422 90.6 74.7422 92 75.3422 93C76.1422 94 77.0422 94.5 78.0422 94.5C78.8422 94.5 80.4422 93.7 82.8422 92.1C85.2422 90.3 88.0422 89.4 91.2422 89.4ZM148.842 89.4C153.442 89.4 157.142 91 159.942 94.2C162.742 97.2 164.142 101.1 164.142 105.9C164.142 111.1 162.242 115.5 158.442 119.1C154.842 122.7 149.942 124.5 143.742 124.5C137.142 124.5 131.642 122.1 127.242 117.3C122.842 112.3 120.642 105.8 120.642 97.8C120.642 88.8 123.742 80.6 129.942 73.2C136.142 65.8 145.542 60.2 158.142 56.4V64.2C149.942 66.4 143.542 69.8 138.942 74.4C134.342 79 132.042 83.8 132.042 88.8C132.042 90.6 132.342 92 132.942 93C133.742 94 134.642 94.5 135.642 94.5C136.642 94.5 138.242 93.7 140.442 92.1C142.842 90.3 145.642 89.4 148.842 89.4Z" fill="#E500CA"/>
<path d="M1317.38 298.98H1282.06L1282.76 296.82H1318.04L1317.38 298.98ZM1325.34 284.97C1325.52 284.33 1325.61 283.9 1325.61 283.68C1325.61 283.32 1325.43 283.07 1325.07 282.93C1324.73 282.79 1324.1 282.72 1323.18 282.72L1323.39 282H1332.36L1332.15 282.72C1331.05 282.72 1330.26 282.88 1329.78 283.2C1329.3 283.5 1328.93 284.09 1328.67 284.97L1323.15 303.03C1322.97 303.67 1322.88 304.1 1322.88 304.32C1322.88 304.68 1323.05 304.93 1323.39 305.07C1323.75 305.21 1324.39 305.28 1325.31 305.28L1325.1 306H1316.04L1316.25 305.28C1317.39 305.28 1318.2 305.13 1318.68 304.83C1319.16 304.51 1319.54 303.91 1319.82 303.03L1325.34 284.97ZM1334.34 303.12C1334.68 304 1335.09 304.58 1335.57 304.86C1336.05 305.14 1336.8 305.28 1337.82 305.28L1337.58 306H1328.31L1328.46 305.28C1329.42 305.28 1330.09 305.2 1330.47 305.04C1330.87 304.86 1331.07 304.58 1331.07 304.2C1331.07 303.9 1330.98 303.53 1330.8 303.09L1326.75 292.89L1334.88 285.48C1335.86 284.56 1336.35 283.89 1336.35 283.47C1336.35 283.19 1336.21 283 1335.93 282.9C1335.67 282.78 1335.17 282.72 1334.43 282.72L1334.64 282H1342.77L1342.59 282.72C1341.69 282.72 1340.9 282.86 1340.22 283.14C1339.54 283.42 1338.76 283.94 1337.88 284.7L1329.9 291.75L1334.34 303.12ZM1349.63 304.65C1350.15 304.65 1350.71 304.27 1351.31 303.51C1351.93 302.75 1352.52 301.77 1353.08 300.57H1353.77C1353.13 302.13 1352.33 303.47 1351.37 304.59C1350.43 305.71 1349.4 306.27 1348.28 306.27C1346.86 306.27 1346.15 305.63 1346.15 304.35C1346.15 304.11 1346.19 303.86 1346.27 303.6C1346.35 303.32 1346.49 302.94 1346.69 302.46L1346.96 301.74L1348.13 298.44H1347.86C1346.92 300.48 1345.84 302.31 1344.62 303.93C1343.4 305.53 1342.19 306.33 1340.99 306.33C1340.07 306.33 1339.38 305.98 1338.92 305.28C1338.48 304.56 1338.26 303.6 1338.26 302.4C1338.26 300.66 1338.72 298.79 1339.64 296.79C1340.58 294.77 1341.75 293.08 1343.15 291.72C1344.55 290.36 1345.92 289.68 1347.26 289.68C1348.22 289.68 1348.92 289.99 1349.36 290.61C1349.82 291.23 1350.02 292.05 1349.96 293.07H1350.05L1350.92 290.67C1351.48 290.67 1351.99 290.56 1352.45 290.34C1352.93 290.12 1353.31 289.84 1353.59 289.5L1354.07 289.77L1349.75 301.83C1349.69 301.99 1349.56 302.33 1349.36 302.85C1349.18 303.37 1349.09 303.74 1349.09 303.96C1349.09 304.2 1349.13 304.38 1349.21 304.5C1349.29 304.6 1349.43 304.65 1349.63 304.65ZM1342.22 304.14C1342.78 304.14 1343.46 303.72 1344.26 302.88C1345.08 302.02 1345.86 300.96 1346.6 299.7C1347.36 298.44 1347.93 297.26 1348.31 296.16C1348.69 295.06 1348.88 294.09 1348.88 293.25C1348.88 292.57 1348.77 292.06 1348.55 291.72C1348.35 291.38 1348.01 291.21 1347.53 291.21C1346.67 291.21 1345.74 291.81 1344.74 293.01C1343.76 294.21 1342.93 295.67 1342.25 297.39C1341.57 299.11 1341.23 300.66 1341.23 302.04C1341.23 302.74 1341.31 303.27 1341.47 303.63C1341.63 303.97 1341.88 304.14 1342.22 304.14ZM1358.34 301.38C1358.3 301.5 1358.19 301.83 1358.01 302.37C1357.85 302.91 1357.77 303.35 1357.77 303.69C1357.77 303.95 1357.81 304.15 1357.89 304.29C1357.99 304.41 1358.16 304.47 1358.4 304.47C1359.04 304.47 1359.73 304.06 1360.47 303.24C1361.23 302.4 1361.93 301.33 1362.57 300.03H1363.29C1362.53 301.83 1361.58 303.32 1360.44 304.5C1359.3 305.68 1358.1 306.27 1356.84 306.27C1355.46 306.27 1354.77 305.61 1354.77 304.29C1354.77 303.63 1355 302.65 1355.46 301.35L1359.06 291.06H1356.81L1357.14 290.25C1358.46 290.17 1359.53 289.82 1360.35 289.2C1361.19 288.56 1361.96 287.58 1362.66 286.26H1363.65L1362.24 290.1H1365.18L1364.88 291.06H1361.94L1358.34 301.38ZM1369.3 304.5C1370.98 304.5 1372.63 302.87 1374.25 299.61H1374.91C1374.05 301.75 1373.02 303.42 1371.82 304.62C1370.64 305.82 1369.36 306.42 1367.98 306.42C1366.78 306.42 1365.82 306.02 1365.1 305.22C1364.4 304.4 1364.05 303.26 1364.05 301.8C1364.05 300.1 1364.48 298.3 1365.34 296.4C1366.2 294.48 1367.31 292.88 1368.67 291.6C1370.03 290.3 1371.41 289.65 1372.81 289.65C1373.69 289.65 1374.39 289.9 1374.91 290.4C1375.43 290.9 1375.69 291.56 1375.69 292.38C1375.69 293.46 1375.29 294.48 1374.49 295.44C1373.69 296.4 1372.64 297.21 1371.34 297.87C1370.06 298.53 1368.72 298.97 1367.32 299.19C1367.14 300.05 1367.05 300.86 1367.05 301.62C1367.05 302.56 1367.25 303.28 1367.65 303.78C1368.05 304.26 1368.6 304.5 1369.3 304.5ZM1372.63 290.79C1371.63 290.79 1370.66 291.54 1369.72 293.04C1368.78 294.54 1368.06 296.27 1367.56 298.23C1368.64 297.95 1369.64 297.51 1370.56 296.91C1371.5 296.31 1372.24 295.6 1372.78 294.78C1373.34 293.94 1373.62 293.07 1373.62 292.17C1373.62 291.71 1373.54 291.37 1373.38 291.15C1373.24 290.91 1372.99 290.79 1372.63 290.79Z" fill="#E500CA"/>
</svg>
