<svg width="1425" height="354" viewBox="0 0 1425 354" fill="none" xmlns="http://www.w3.org/2000/svg">
<rect width="1425" height="353.942" fill="#211D1D"/>
<path d="M331.505 170.14C332.252 172.24 333.115 173.64 334.095 174.34C335.122 174.993 336.779 175.32 339.065 175.32V177H317.785V175.32C320.165 175.32 321.799 175.157 322.685 174.83C323.572 174.503 324.015 173.897 324.015 173.01C324.015 172.497 323.805 171.517 323.385 170.07L320.025 159.29H301.265L297.835 170.14C297.369 171.54 297.135 172.52 297.135 173.08C297.135 173.92 297.579 174.503 298.465 174.83C299.352 175.157 300.939 175.32 303.225 175.32V177H287.405V175.32C289.645 175.32 291.255 174.993 292.235 174.34C293.215 173.64 294.055 172.24 294.755 170.14L311.135 120.16H314.985L331.505 170.14ZM310.575 130.24L302.175 156.56H319.115L310.855 130.24H310.575ZM374.581 138.64C377.988 138.64 380.578 140.32 382.351 143.68C384.124 146.993 385.011 151.45 385.011 157.05C385.011 160.923 384.521 164.447 383.541 167.62C382.608 170.747 381.231 173.243 379.411 175.11C377.591 176.93 375.444 177.84 372.971 177.84C371.291 177.84 369.704 177.42 368.211 176.58C366.718 175.693 365.504 174.433 364.571 172.8H364.431V185.19C364.431 186.777 364.548 187.943 364.781 188.69C365.014 189.483 365.481 190.02 366.181 190.3C366.881 190.58 367.954 190.72 369.401 190.72V192.4H352.741V190.72C354.188 190.72 355.238 190.58 355.891 190.3C356.591 190.02 357.058 189.483 357.291 188.69C357.524 187.943 357.641 186.777 357.641 185.19V148.23C357.641 146.317 357.571 145.057 357.431 144.45C357.291 143.797 356.871 143.47 356.171 143.47C355.658 143.47 354.748 143.727 353.441 144.24L352.811 142.63L363.311 138.5L364.431 139.55V145.71H364.711C367.604 140.997 370.894 138.64 374.581 138.64ZM371.221 174.48C373.461 174.48 375.094 172.94 376.121 169.86C377.148 166.78 377.661 162.86 377.661 158.1C377.661 148.347 375.678 143.47 371.711 143.47C370.358 143.47 369.051 143.983 367.791 145.01C366.531 146.037 365.411 147.39 364.431 149.07V161.81C364.431 164.33 364.734 166.57 365.341 168.53C365.948 170.443 366.764 171.913 367.791 172.94C368.818 173.967 369.961 174.48 371.221 174.48ZM399.381 169.79C399.381 171.377 399.497 172.543 399.731 173.29C399.964 174.037 400.407 174.573 401.061 174.9C401.761 175.18 402.834 175.32 404.281 175.32V177H387.621V175.32C389.067 175.32 390.141 175.18 390.841 174.9C391.541 174.573 392.007 174.037 392.241 173.29C392.474 172.543 392.591 171.377 392.591 169.79V129.33C392.591 127.603 392.521 126.46 392.381 125.9C392.287 125.293 391.961 124.99 391.401 124.99C390.794 124.99 389.791 125.34 388.391 126.04L387.691 124.5L398.331 119.32L399.381 120.3V169.79ZM437.784 169.09C437.551 175.11 435.381 178.12 431.274 178.12C427.028 178.12 424.904 175.063 424.904 168.95V167.69C424.111 171.003 422.804 173.57 420.984 175.39C419.211 177.21 417.064 178.12 414.544 178.12C412.118 178.12 410.204 177.35 408.804 175.81C407.451 174.223 406.774 172.24 406.774 169.86C406.774 167.293 407.568 165.077 409.154 163.21C410.741 161.297 412.631 159.71 414.824 158.45C417.064 157.19 419.934 155.767 423.434 154.18L424.904 153.55V149.49C424.904 146.597 424.438 144.52 423.504 143.26C422.618 142 421.288 141.37 419.514 141.37C418.114 141.37 416.971 141.72 416.084 142.42C415.244 143.073 414.824 143.96 414.824 145.08C414.824 145.5 414.894 145.92 415.034 146.34C415.174 146.76 415.268 147.017 415.314 147.11C415.641 147.857 415.804 148.557 415.804 149.21C415.804 150.19 415.501 150.983 414.894 151.59C414.288 152.15 413.448 152.43 412.374 152.43C411.161 152.43 410.204 152.033 409.504 151.24C408.851 150.447 408.524 149.397 408.524 148.09C408.524 146.363 409.038 144.777 410.064 143.33C411.138 141.883 412.584 140.74 414.404 139.9C416.271 139.013 418.348 138.57 420.634 138.57C424.088 138.57 426.771 139.55 428.684 141.51C430.644 143.423 431.624 146.247 431.624 149.98V170.63C431.624 172.263 431.764 173.383 432.044 173.99C432.371 174.597 432.838 174.9 433.444 174.9C435.124 174.9 436.034 172.963 436.174 169.09H437.784ZM417.274 172.8C418.768 172.8 420.191 172.077 421.544 170.63C422.898 169.183 424.018 167.013 424.904 164.12V155.86C421.264 157.727 418.441 159.57 416.434 161.39C414.474 163.163 413.494 165.357 413.494 167.97C413.494 169.463 413.821 170.653 414.474 171.54C415.128 172.38 416.061 172.8 417.274 172.8ZM452.749 178.12C450.089 178.12 447.779 177.327 445.819 175.74C443.859 174.107 442.365 171.867 441.339 169.02C440.312 166.127 439.799 162.813 439.799 159.08C439.799 155.16 440.359 151.66 441.479 148.58C442.599 145.5 444.209 143.073 446.309 141.3C448.455 139.527 450.999 138.64 453.939 138.64C456.879 138.64 459.259 139.503 461.079 141.23C462.899 142.91 463.809 145.08 463.809 147.74C463.809 149.233 463.482 150.4 462.829 151.24C462.175 152.033 461.265 152.43 460.099 152.43C459.072 152.43 458.255 152.127 457.649 151.52C457.089 150.913 456.809 150.143 456.809 149.21C456.809 148.837 456.832 148.51 456.879 148.23C456.925 147.903 456.972 147.623 457.019 147.39C457.205 146.457 457.299 145.71 457.299 145.15C457.299 143.983 456.995 143.097 456.389 142.49C455.782 141.883 454.942 141.58 453.869 141.58C451.489 141.58 449.692 142.98 448.479 145.78C447.312 148.58 446.729 152.127 446.729 156.42C446.729 161.227 447.452 165.17 448.899 168.25C450.392 171.283 452.515 172.8 455.269 172.8C457.089 172.8 458.722 171.96 460.169 170.28C461.662 168.553 462.689 165.66 463.249 161.6H464.929C464.555 167.153 463.272 171.307 461.079 174.06C458.885 176.767 456.109 178.12 452.749 178.12ZM493.926 162.02C493.226 167.48 491.756 171.54 489.516 174.2C487.323 176.813 484.523 178.12 481.116 178.12C478.503 178.12 476.216 177.35 474.256 175.81C472.343 174.223 470.849 172.007 469.776 169.16C468.749 166.267 468.236 162.907 468.236 159.08C468.236 155.347 468.773 151.94 469.846 148.86C470.919 145.733 472.436 143.26 474.396 141.44C476.403 139.573 478.759 138.64 481.466 138.64C485.386 138.64 488.373 140.297 490.426 143.61C492.479 146.877 493.506 151.193 493.506 156.56H475.026V156.7C475.026 161.6 475.773 165.543 477.266 168.53C478.759 171.47 480.929 172.94 483.776 172.94C485.596 172.94 487.253 172.1 488.746 170.42C490.286 168.74 491.453 165.94 492.246 162.02H493.926ZM481.466 141.58C477.686 141.58 475.563 145.617 475.096 153.69H486.786C486.786 145.617 485.013 141.58 481.466 141.58ZM561.101 141.58C559.608 141.58 558.465 141.93 557.671 142.63C556.925 143.33 556.271 144.73 555.711 146.83L546.821 177.63H542.621L536.531 153.83L530.091 177.63H525.681L516.511 146.83C515.858 144.73 515.135 143.33 514.341 142.63C513.595 141.93 512.475 141.58 510.981 141.58V139.9H525.681V141.58C524.655 141.58 523.931 141.697 523.511 141.93C523.138 142.117 522.951 142.49 522.951 143.05C522.951 143.563 523.231 144.823 523.791 146.83L529.741 167.55H530.021L535.131 148.44L534.711 146.9C534.151 144.753 533.545 143.33 532.891 142.63C532.285 141.93 531.328 141.58 530.021 141.58V139.9H544.651V141.58C543.391 141.58 542.505 141.72 541.991 142C541.525 142.28 541.291 142.817 541.291 143.61C541.291 144.263 541.478 145.383 541.851 146.97L546.611 167.55H546.891L552.771 146.83C552.818 146.597 552.958 146.083 553.191 145.29C553.425 144.45 553.541 143.82 553.541 143.4C553.541 142.7 553.261 142.233 552.701 142C552.141 141.72 551.115 141.58 549.621 141.58V139.9H561.101V141.58ZM572.122 169.79C572.122 171.377 572.215 172.543 572.402 173.29C572.635 174.037 573.055 174.573 573.662 174.9C574.268 175.18 575.202 175.32 576.462 175.32V177H560.642V175.32C562.042 175.32 563.068 175.18 563.722 174.9C564.375 174.573 564.818 174.037 565.052 173.29C565.285 172.543 565.402 171.377 565.402 169.79L565.332 129.54C565.332 127.767 565.285 126.6 565.192 126.04C565.098 125.48 564.772 125.2 564.212 125.2C563.698 125.2 562.718 125.573 561.272 126.32L560.572 124.85L566.032 121.98L571.212 119.32L572.122 120.3V145.99H572.332C574.058 143.563 575.785 141.743 577.512 140.53C579.238 139.27 581.222 138.64 583.462 138.64C585.935 138.64 587.825 139.503 589.132 141.23C590.438 142.957 591.092 145.477 591.092 148.79V169.79C591.092 171.377 591.208 172.543 591.442 173.29C591.675 174.037 592.095 174.573 592.702 174.9C593.355 175.18 594.382 175.32 595.782 175.32V177H580.102V175.32C581.362 175.32 582.272 175.18 582.832 174.9C583.438 174.573 583.835 174.037 584.022 173.29C584.255 172.543 584.372 171.377 584.372 169.79V149.14C584.372 145.407 582.995 143.54 580.242 143.54C578.842 143.54 577.488 144.007 576.182 144.94C574.875 145.827 573.522 147.157 572.122 148.93V169.79ZM624.014 162.02C623.314 167.48 621.844 171.54 619.604 174.2C617.411 176.813 614.611 178.12 611.204 178.12C608.591 178.12 606.304 177.35 604.344 175.81C602.431 174.223 600.937 172.007 599.864 169.16C598.837 166.267 598.324 162.907 598.324 159.08C598.324 155.347 598.861 151.94 599.934 148.86C601.007 145.733 602.524 143.26 604.484 141.44C606.491 139.573 608.847 138.64 611.554 138.64C615.474 138.64 618.461 140.297 620.514 143.61C622.567 146.877 623.594 151.193 623.594 156.56H605.114V156.7C605.114 161.6 605.861 165.543 607.354 168.53C608.847 171.47 611.017 172.94 613.864 172.94C615.684 172.94 617.341 172.1 618.834 170.42C620.374 168.74 621.541 165.94 622.334 162.02H624.014ZM611.554 141.58C607.774 141.58 605.651 145.617 605.184 153.69H616.874C616.874 145.617 615.101 141.58 611.554 141.58ZM648.232 138.64C649.445 138.64 650.378 138.967 651.032 139.62C651.685 140.273 652.012 141.183 652.012 142.35C652.012 143.657 651.662 144.73 650.962 145.57C650.308 146.41 649.515 146.83 648.582 146.83C647.975 146.83 647.485 146.737 647.112 146.55C646.785 146.317 646.365 145.92 645.852 145.36C645.385 144.893 645.012 144.59 644.732 144.45C644.498 144.263 644.172 144.17 643.752 144.17C642.912 144.17 642.048 144.753 641.162 145.92C640.275 147.04 639.482 148.65 638.782 150.75V169.37C638.782 171.05 638.945 172.287 639.272 173.08C639.645 173.873 640.345 174.433 641.372 174.76C642.398 175.087 644.008 175.25 646.202 175.25V177H627.302V175.32C628.702 175.32 629.728 175.18 630.382 174.9C631.035 174.573 631.478 174.037 631.712 173.29C631.945 172.543 632.062 171.377 632.062 169.79V148.23C632.062 146.317 631.992 145.057 631.852 144.45C631.712 143.797 631.315 143.47 630.662 143.47C630.055 143.47 629.122 143.75 627.862 144.31L627.162 142.7L632.762 140.46L637.522 138.5L638.782 139.55V146.27H638.992C640.112 144.17 641.488 142.373 643.122 140.88C644.755 139.387 646.458 138.64 648.232 138.64ZM679.522 162.02C678.822 167.48 677.352 171.54 675.112 174.2C672.918 176.813 670.118 178.12 666.712 178.12C664.098 178.12 661.812 177.35 659.852 175.81C657.938 174.223 656.445 172.007 655.372 169.16C654.345 166.267 653.832 162.907 653.832 159.08C653.832 155.347 654.368 151.94 655.442 148.86C656.515 145.733 658.032 143.26 659.992 141.44C661.998 139.573 664.355 138.64 667.062 138.64C670.982 138.64 673.968 140.297 676.022 143.61C678.075 146.877 679.102 151.193 679.102 156.56H660.622V156.7C660.622 161.6 661.368 165.543 662.862 168.53C664.355 171.47 666.525 172.94 669.372 172.94C671.192 172.94 672.848 172.1 674.342 170.42C675.882 168.74 677.048 165.94 677.842 162.02H679.522ZM667.062 141.58C663.282 141.58 661.158 145.617 660.692 153.69H672.382C672.382 145.617 670.608 141.58 667.062 141.58ZM705.117 128.21C705.117 126.67 704.931 125.527 704.557 124.78C704.231 124.033 703.554 123.497 702.527 123.17C701.501 122.843 699.891 122.68 697.697 122.68V121H720.517V122.68C718.324 122.68 716.691 122.843 715.617 123.17C714.591 123.497 713.891 124.033 713.517 124.78C713.191 125.527 713.027 126.67 713.027 128.21V169.79C713.027 171.33 713.191 172.473 713.517 173.22C713.891 173.967 714.591 174.503 715.617 174.83C716.691 175.157 718.324 175.32 720.517 175.32V177H697.697V175.32C699.891 175.32 701.501 175.157 702.527 174.83C703.554 174.503 704.231 173.967 704.557 173.22C704.931 172.473 705.117 171.33 705.117 169.79V128.21ZM760.297 171.4C763.984 171.4 766.667 171.983 768.347 173.15C770.027 174.317 770.867 176.207 770.867 178.82C770.867 181.387 769.981 183.79 768.207 186.03C766.481 188.317 764.077 190.137 760.997 191.49C757.964 192.843 754.534 193.52 750.707 193.52C746.694 193.52 743.357 192.797 740.697 191.35C738.037 189.903 736.707 187.803 736.707 185.05C736.707 181.503 739.157 178.633 744.057 176.44C741.304 175.367 739.927 173.547 739.927 170.98C739.927 169.487 740.394 168.133 741.327 166.92C742.261 165.707 743.591 164.563 745.317 163.49C743.591 162.323 742.261 160.783 741.327 158.87C740.394 156.957 739.927 154.787 739.927 152.36C739.927 149.747 740.464 147.413 741.537 145.36C742.611 143.26 744.127 141.627 746.087 140.46C748.094 139.293 750.404 138.71 753.017 138.71C755.631 138.71 757.941 139.317 759.947 140.53C761.301 139.783 762.677 139.223 764.077 138.85C765.477 138.43 766.761 138.22 767.927 138.22C769.654 138.22 770.517 138.92 770.517 140.32C770.517 141.02 770.284 141.603 769.817 142.07C769.397 142.49 768.791 142.7 767.997 142.7C767.251 142.7 766.527 142.607 765.827 142.42C765.127 142.233 764.707 142.117 764.567 142.07C763.214 141.65 762.164 141.487 761.417 141.58C762.817 142.793 763.891 144.31 764.637 146.13C765.431 147.903 765.827 149.91 765.827 152.15C765.827 156.163 764.637 159.43 762.257 161.95C759.924 164.423 756.821 165.66 752.947 165.66C750.801 165.66 748.864 165.263 747.137 164.47C745.597 165.683 744.827 166.897 744.827 168.11C744.827 168.81 744.967 169.393 745.247 169.86C745.574 170.327 746.274 170.7 747.347 170.98C748.421 171.26 750.031 171.4 752.177 171.4H760.297ZM752.107 141.37C750.287 141.37 748.934 142.187 748.047 143.82C747.207 145.453 746.787 147.483 746.787 149.91C746.787 153.317 747.371 156.35 748.537 159.01C749.704 161.623 751.454 162.93 753.787 162.93C755.514 162.93 756.821 162.183 757.707 160.69C758.594 159.197 759.037 157.213 759.037 154.74C759.037 151.287 758.431 148.207 757.217 145.5C756.051 142.747 754.347 141.37 752.107 141.37ZM752.387 189.32C755.234 189.32 757.754 188.9 759.947 188.06C762.187 187.267 763.914 186.217 765.127 184.91C766.341 183.65 766.947 182.343 766.947 180.99C766.947 179.683 766.434 178.797 765.407 178.33C764.427 177.863 762.654 177.63 760.087 177.63H751.407C749.354 177.63 747.674 177.467 746.367 177.14C743.661 179.287 742.307 181.363 742.307 183.37C742.307 185.003 743.124 186.403 744.757 187.57C746.437 188.737 748.981 189.32 752.387 189.32ZM803.507 169.09C803.274 175.11 801.104 178.12 796.997 178.12C792.75 178.12 790.627 175.063 790.627 168.95V167.69C789.834 171.003 788.527 173.57 786.707 175.39C784.934 177.21 782.787 178.12 780.267 178.12C777.84 178.12 775.927 177.35 774.527 175.81C773.174 174.223 772.497 172.24 772.497 169.86C772.497 167.293 773.29 165.077 774.877 163.21C776.464 161.297 778.354 159.71 780.547 158.45C782.787 157.19 785.657 155.767 789.157 154.18L790.627 153.55V149.49C790.627 146.597 790.16 144.52 789.227 143.26C788.34 142 787.01 141.37 785.237 141.37C783.837 141.37 782.694 141.72 781.807 142.42C780.967 143.073 780.547 143.96 780.547 145.08C780.547 145.5 780.617 145.92 780.757 146.34C780.897 146.76 780.99 147.017 781.037 147.11C781.364 147.857 781.527 148.557 781.527 149.21C781.527 150.19 781.224 150.983 780.617 151.59C780.01 152.15 779.17 152.43 778.097 152.43C776.884 152.43 775.927 152.033 775.227 151.24C774.574 150.447 774.247 149.397 774.247 148.09C774.247 146.363 774.76 144.777 775.787 143.33C776.86 141.883 778.307 140.74 780.127 139.9C781.994 139.013 784.07 138.57 786.357 138.57C789.81 138.57 792.494 139.55 794.407 141.51C796.367 143.423 797.347 146.247 797.347 149.98V170.63C797.347 172.263 797.487 173.383 797.767 173.99C798.094 174.597 798.56 174.9 799.167 174.9C800.847 174.9 801.757 172.963 801.897 169.09H803.507ZM782.997 172.8C784.49 172.8 785.914 172.077 787.267 170.63C788.62 169.183 789.74 167.013 790.627 164.12V155.86C786.987 157.727 784.164 159.57 782.157 161.39C780.197 163.163 779.217 165.357 779.217 167.97C779.217 169.463 779.544 170.653 780.197 171.54C780.85 172.38 781.784 172.8 782.997 172.8ZM812.668 131.78C811.361 131.78 810.264 131.383 809.378 130.59C808.538 129.75 808.118 128.723 808.118 127.51C808.118 126.25 808.538 125.223 809.378 124.43C810.264 123.59 811.361 123.17 812.668 123.17C813.974 123.17 815.048 123.59 815.888 124.43C816.728 125.223 817.148 126.25 817.148 127.51C817.148 128.723 816.728 129.75 815.888 130.59C815.048 131.383 813.974 131.78 812.668 131.78ZM816.588 169.79C816.588 171.377 816.704 172.543 816.938 173.29C817.171 174.037 817.638 174.573 818.338 174.9C819.038 175.18 820.111 175.32 821.558 175.32V177H804.898V175.32C806.344 175.32 807.418 175.18 808.118 174.9C808.818 174.573 809.284 174.037 809.518 173.29C809.751 172.543 809.868 171.377 809.868 169.79V148.23C809.868 146.363 809.798 145.103 809.658 144.45C809.518 143.797 809.098 143.47 808.398 143.47C807.884 143.47 806.998 143.727 805.738 144.24L805.108 142.63L815.398 138.5L816.588 139.55V169.79ZM824.587 175.32C825.987 175.32 827.014 175.18 827.667 174.9C828.32 174.573 828.764 174.037 828.997 173.29C829.23 172.543 829.347 171.377 829.347 169.79V148.23C829.347 146.317 829.277 145.057 829.137 144.45C828.997 143.797 828.6 143.47 827.947 143.47C827.34 143.47 826.407 143.75 825.147 144.31L824.447 142.7L830.047 140.46L834.807 138.5L836.137 139.55V145.99H836.347C838.12 143.563 839.847 141.743 841.527 140.53C843.207 139.27 845.167 138.64 847.407 138.64C849.88 138.64 851.77 139.527 853.077 141.3C854.43 143.027 855.107 145.523 855.107 148.79V169.79C855.107 171.377 855.224 172.543 855.457 173.29C855.69 174.037 856.11 174.573 856.717 174.9C857.37 175.18 858.374 175.32 859.727 175.32V177H844.047V175.32C845.307 175.32 846.217 175.18 846.777 174.9C847.384 174.573 847.78 174.037 847.967 173.29C848.2 172.543 848.317 171.377 848.317 169.79V149.21C848.317 145.43 846.94 143.54 844.187 143.54C842.787 143.54 841.434 144.007 840.127 144.94C838.867 145.827 837.537 147.157 836.137 148.93V169.79C836.137 171.377 836.23 172.543 836.417 173.29C836.65 174.037 837.047 174.573 837.607 174.9C838.214 175.18 839.147 175.32 840.407 175.32V177H824.587V175.32ZM887.95 162.02C887.25 167.48 885.78 171.54 883.54 174.2C881.346 176.813 878.546 178.12 875.14 178.12C872.526 178.12 870.24 177.35 868.28 175.81C866.366 174.223 864.873 172.007 863.8 169.16C862.773 166.267 862.26 162.907 862.26 159.08C862.26 155.347 862.796 151.94 863.87 148.86C864.943 145.733 866.46 143.26 868.42 141.44C870.426 139.573 872.783 138.64 875.49 138.64C879.41 138.64 882.396 140.297 884.45 143.61C886.503 146.877 887.53 151.193 887.53 156.56H869.05V156.7C869.05 161.6 869.796 165.543 871.29 168.53C872.783 171.47 874.953 172.94 877.8 172.94C879.62 172.94 881.276 172.1 882.77 170.42C884.31 168.74 885.476 165.94 886.27 162.02H887.95ZM875.49 141.58C871.71 141.58 869.586 145.617 869.12 153.69H880.81C880.81 145.617 879.036 141.58 875.49 141.58ZM925.228 174.2L914.868 178.12L913.398 176.93V171.19H913.118C912.184 173.337 910.901 175.04 909.268 176.3C907.681 177.513 905.791 178.12 903.598 178.12C901.404 178.12 899.491 177.35 897.858 175.81C896.224 174.27 894.964 172.1 894.078 169.3C893.191 166.5 892.748 163.257 892.748 159.57C892.748 155.51 893.261 151.893 894.288 148.72C895.361 145.547 896.854 143.073 898.768 141.3C900.728 139.527 902.968 138.64 905.488 138.64C907.214 138.64 908.754 138.99 910.108 139.69C911.508 140.39 912.604 141.347 913.398 142.56V129.47C913.398 127.743 913.328 126.577 913.188 125.97C913.094 125.363 912.768 125.06 912.208 125.06C911.648 125.06 910.668 125.41 909.268 126.11L908.568 124.64L919.278 119.32L920.188 120.3V168.67C920.188 170.537 920.258 171.797 920.398 172.45C920.584 173.057 921.028 173.36 921.728 173.36C922.241 173.36 923.198 173.103 924.598 172.59L925.228 174.2ZM906.538 173.22C907.984 173.22 909.244 172.753 910.318 171.82C911.391 170.84 912.418 169.463 913.398 167.69V154.74C913.398 151.1 912.838 148.113 911.718 145.78C910.644 143.447 909.058 142.28 906.958 142.28C904.624 142.28 902.874 143.727 901.708 146.62C900.541 149.467 899.958 153.223 899.958 157.89C899.958 162.557 900.494 166.29 901.568 169.09C902.688 171.843 904.344 173.22 906.538 173.22ZM973.585 169.09C973.352 175.11 971.182 178.12 967.075 178.12C962.829 178.12 960.705 175.063 960.705 168.95V167.69C959.912 171.003 958.605 173.57 956.785 175.39C955.012 177.21 952.865 178.12 950.345 178.12C947.919 178.12 946.005 177.35 944.605 175.81C943.252 174.223 942.575 172.24 942.575 169.86C942.575 167.293 943.369 165.077 944.955 163.21C946.542 161.297 948.432 159.71 950.625 158.45C952.865 157.19 955.735 155.767 959.235 154.18L960.705 153.55V149.49C960.705 146.597 960.239 144.52 959.305 143.26C958.419 142 957.089 141.37 955.315 141.37C953.915 141.37 952.772 141.72 951.885 142.42C951.045 143.073 950.625 143.96 950.625 145.08C950.625 145.5 950.695 145.92 950.835 146.34C950.975 146.76 951.069 147.017 951.115 147.11C951.442 147.857 951.605 148.557 951.605 149.21C951.605 150.19 951.302 150.983 950.695 151.59C950.089 152.15 949.249 152.43 948.175 152.43C946.962 152.43 946.005 152.033 945.305 151.24C944.652 150.447 944.325 149.397 944.325 148.09C944.325 146.363 944.839 144.777 945.865 143.33C946.939 141.883 948.385 140.74 950.205 139.9C952.072 139.013 954.149 138.57 956.435 138.57C959.889 138.57 962.572 139.55 964.485 141.51C966.445 143.423 967.425 146.247 967.425 149.98V170.63C967.425 172.263 967.565 173.383 967.845 173.99C968.172 174.597 968.639 174.9 969.245 174.9C970.925 174.9 971.835 172.963 971.975 169.09H973.585ZM953.075 172.8C954.569 172.8 955.992 172.077 957.345 170.63C958.699 169.183 959.819 167.013 960.705 164.12V155.86C957.065 157.727 954.242 159.57 952.235 161.39C950.275 163.163 949.295 165.357 949.295 167.97C949.295 169.463 949.622 170.653 950.275 171.54C950.929 172.38 951.862 172.8 953.075 172.8ZM1001.08 169.79C1001.08 171.377 1001.2 172.543 1001.43 173.29C1001.66 174.037 1002.11 174.573 1002.76 174.9C1003.46 175.18 1004.53 175.32 1005.98 175.32V177H989.32V175.32C990.767 175.32 991.84 175.18 992.54 174.9C993.24 174.573 993.707 174.037 993.94 173.29C994.173 172.543 994.29 171.377 994.29 169.79V129.33C994.29 127.603 994.22 126.46 994.08 125.9C993.987 125.293 993.66 124.99 993.1 124.99C992.493 124.99 991.49 125.34 990.09 126.04L989.39 124.5L1000.03 119.32L1001.08 120.3V169.79ZM1023.53 178.12C1020.54 178.12 1017.91 177.303 1015.62 175.67C1013.33 173.99 1011.56 171.68 1010.3 168.74C1009.09 165.753 1008.48 162.37 1008.48 158.59C1008.48 154.81 1009.06 151.403 1010.23 148.37C1011.44 145.337 1013.19 142.957 1015.48 141.23C1017.77 139.503 1020.45 138.64 1023.53 138.64C1026.52 138.64 1029.13 139.48 1031.37 141.16C1033.66 142.793 1035.43 145.103 1036.69 148.09C1037.95 151.03 1038.58 154.39 1038.58 158.17C1038.58 161.95 1037.97 165.357 1036.76 168.39C1035.55 171.423 1033.8 173.803 1031.51 175.53C1029.27 177.257 1026.61 178.12 1023.53 178.12ZM1024.58 175.04C1026.87 175.04 1028.59 173.78 1029.76 171.26C1030.93 168.74 1031.51 165.753 1031.51 162.3C1031.51 158.94 1031.16 155.697 1030.46 152.57C1029.81 149.397 1028.8 146.807 1027.45 144.8C1026.1 142.747 1024.44 141.72 1022.48 141.72C1020.15 141.72 1018.4 142.98 1017.23 145.5C1016.06 148.02 1015.48 151.007 1015.48 154.46C1015.48 157.82 1015.81 161.087 1016.46 164.26C1017.16 167.387 1018.19 169.977 1019.54 172.03C1020.94 174.037 1022.62 175.04 1024.58 175.04ZM1062.9 161.32C1062.9 167.013 1062.23 171.237 1060.87 173.99C1059.52 176.743 1057.19 178.12 1053.87 178.12C1051.03 178.12 1048.93 177.14 1047.57 175.18C1046.22 173.173 1045.54 169.79 1045.54 165.03V142.77H1040.64V140.18C1043.21 140.133 1045.26 139.2 1046.8 137.38C1048.34 135.56 1049.3 132.993 1049.67 129.68H1052.19V139.9H1060.59V142.77H1052.33V163.21C1052.33 166.663 1052.59 169.253 1053.1 170.98C1053.66 172.707 1054.71 173.57 1056.25 173.57C1057.84 173.57 1059.01 172.567 1059.75 170.56C1060.55 168.553 1060.94 165.473 1060.94 161.32H1062.9ZM1095.85 178.12C1092.87 178.12 1090.23 177.303 1087.94 175.67C1085.66 173.99 1083.88 171.68 1082.62 168.74C1081.41 165.753 1080.8 162.37 1080.8 158.59C1080.8 154.81 1081.39 151.403 1082.55 148.37C1083.77 145.337 1085.52 142.957 1087.8 141.23C1090.09 139.503 1092.77 138.64 1095.85 138.64C1098.84 138.64 1101.45 139.48 1103.69 141.16C1105.98 142.793 1107.75 145.103 1109.01 148.09C1110.27 151.03 1110.9 154.39 1110.9 158.17C1110.9 161.95 1110.3 165.357 1109.08 168.39C1107.87 171.423 1106.12 173.803 1103.83 175.53C1101.59 177.257 1098.93 178.12 1095.85 178.12ZM1096.9 175.04C1099.19 175.04 1100.92 173.78 1102.08 171.26C1103.25 168.74 1103.83 165.753 1103.83 162.3C1103.83 158.94 1103.48 155.697 1102.78 152.57C1102.13 149.397 1101.13 146.807 1099.77 144.8C1098.42 142.747 1096.76 141.72 1094.8 141.72C1092.47 141.72 1090.72 142.98 1089.55 145.5C1088.39 148.02 1087.8 151.007 1087.8 154.46C1087.8 157.82 1088.13 161.087 1088.78 164.26C1089.48 167.387 1090.51 169.977 1091.86 172.03C1093.26 174.037 1094.94 175.04 1096.9 175.04ZM1132.97 119.11C1134.6 119.11 1136.05 119.367 1137.31 119.88C1138.61 120.393 1139.62 121.07 1140.32 121.91C1141.06 122.75 1141.44 123.637 1141.44 124.57C1141.44 125.503 1141.13 126.297 1140.53 126.95C1139.92 127.603 1139.06 127.93 1137.94 127.93C1137.14 127.93 1136.49 127.72 1135.98 127.3C1135.51 126.88 1134.95 126.18 1134.3 125.2C1133.55 124.08 1132.97 123.333 1132.55 122.96C1132.17 122.587 1131.68 122.4 1131.08 122.4C1129.58 122.4 1128.42 123.263 1127.58 124.99C1126.78 126.67 1126.39 129.493 1126.39 133.46V139.9H1134.23V142.77H1126.39V169.79C1126.39 171.377 1126.55 172.543 1126.88 173.29C1127.25 174.037 1127.93 174.573 1128.91 174.9C1129.89 175.18 1131.4 175.32 1133.46 175.32V177H1114.35V175.32C1115.89 175.32 1117.01 175.18 1117.71 174.9C1118.45 174.573 1118.94 174.037 1119.18 173.29C1119.46 172.543 1119.6 171.377 1119.6 169.79V142.77H1114.98V140.46L1119.6 140.11V134.72C1119.6 131.033 1120.25 128.023 1121.56 125.69C1122.86 123.357 1124.52 121.677 1126.53 120.65C1128.58 119.623 1130.73 119.11 1132.97 119.11ZM412.908 240.79C412.908 242.377 413.025 243.543 413.258 244.29C413.491 245.037 413.911 245.573 414.518 245.9C415.171 246.18 416.198 246.32 417.598 246.32V248H402.128V246.32C403.341 246.32 404.228 246.18 404.788 245.9C405.348 245.573 405.721 245.037 405.908 244.29C406.095 243.543 406.188 242.377 406.188 240.79V220.07C406.188 216.383 404.881 214.54 402.268 214.54C401.055 214.54 399.865 214.96 398.698 215.8C397.531 216.64 396.318 217.9 395.058 219.58V219.72V240.79C395.058 242.377 395.151 243.543 395.338 244.29C395.525 245.037 395.898 245.573 396.458 245.9C397.018 246.18 397.905 246.32 399.118 246.32V248H384.208V246.32C385.421 246.32 386.308 246.18 386.868 245.9C387.475 245.573 387.871 245.037 388.058 244.29C388.245 243.543 388.338 242.377 388.338 240.79V220.07C388.338 216.383 387.031 214.54 384.418 214.54C383.158 214.54 381.921 214.983 380.708 215.87C379.541 216.757 378.305 218.087 376.998 219.86V240.79C376.998 242.377 377.091 243.543 377.278 244.29C377.465 245.037 377.838 245.573 378.398 245.9C379.005 246.18 379.915 246.32 381.128 246.32V248H365.518V246.32C366.918 246.32 367.945 246.18 368.598 245.9C369.251 245.573 369.695 245.037 369.928 244.29C370.161 243.543 370.278 242.377 370.278 240.79V219.23C370.278 217.363 370.208 216.127 370.068 215.52C369.928 214.867 369.531 214.54 368.878 214.54C368.365 214.54 367.455 214.797 366.148 215.31L365.448 213.77L375.668 209.5L376.998 210.55V216.99H377.208C378.748 214.657 380.311 212.86 381.898 211.6C383.531 210.293 385.445 209.64 387.638 209.64C389.691 209.64 391.325 210.27 392.538 211.53C393.751 212.79 394.545 214.61 394.918 216.99H395.128C396.621 214.657 398.161 212.86 399.748 211.6C401.381 210.293 403.295 209.64 405.488 209.64C407.915 209.64 409.758 210.503 411.018 212.23C412.278 213.957 412.908 216.453 412.908 219.72V240.79ZM442.059 247.93L441.919 241.98L441.709 241.91C438.675 246.717 435.105 249.12 430.999 249.12C428.619 249.12 426.752 248.233 425.399 246.46C424.045 244.64 423.369 242.167 423.369 239.04V219.3C423.369 217.527 423.252 216.313 423.019 215.66C422.832 215.007 422.365 214.68 421.619 214.68C421.059 214.68 420.149 214.867 418.889 215.24L418.399 213.7L429.179 210.2L430.159 211.11V238.34C430.159 240.393 430.485 241.933 431.139 242.96C431.792 243.94 432.772 244.43 434.079 244.43C435.385 244.43 436.715 243.94 438.069 242.96C439.422 241.98 440.705 240.673 441.919 239.04V219.3C441.919 217.48 441.825 216.267 441.639 215.66C441.452 215.007 440.962 214.68 440.169 214.68C439.609 214.68 438.699 214.867 437.439 215.24L436.949 213.7L447.799 210.2L448.709 211.11V239.67C448.709 241.49 448.802 242.727 448.989 243.38C449.175 244.033 449.619 244.36 450.319 244.36C451.019 244.36 451.975 244.127 453.189 243.66L453.819 245.27L443.459 249.12L442.059 247.93ZM467.638 240.79C467.638 242.377 467.754 243.543 467.988 244.29C468.221 245.037 468.664 245.573 469.318 245.9C470.018 246.18 471.091 246.32 472.538 246.32V248H455.878V246.32C457.324 246.32 458.398 246.18 459.098 245.9C459.798 245.573 460.264 245.037 460.498 244.29C460.731 243.543 460.848 242.377 460.848 240.79V200.33C460.848 198.603 460.778 197.46 460.638 196.9C460.544 196.293 460.218 195.99 459.658 195.99C459.051 195.99 458.048 196.34 456.648 197.04L455.948 195.5L466.588 190.32L467.638 191.3V240.79ZM496.238 232.32C496.238 238.013 495.561 242.237 494.208 244.99C492.855 247.743 490.521 249.12 487.208 249.12C484.361 249.12 482.261 248.14 480.908 246.18C479.555 244.173 478.878 240.79 478.878 236.03V213.77H473.978V211.18C476.545 211.133 478.598 210.2 480.138 208.38C481.678 206.56 482.635 203.993 483.008 200.68H485.528V210.9H493.928V213.77H485.668V234.21C485.668 237.663 485.925 240.253 486.438 241.98C486.998 243.707 488.048 244.57 489.588 244.57C491.175 244.57 492.341 243.567 493.088 241.56C493.881 239.553 494.278 236.473 494.278 232.32H496.238ZM506.315 202.78C505.009 202.78 503.912 202.383 503.025 201.59C502.185 200.75 501.765 199.723 501.765 198.51C501.765 197.25 502.185 196.223 503.025 195.43C503.912 194.59 505.009 194.17 506.315 194.17C507.622 194.17 508.695 194.59 509.535 195.43C510.375 196.223 510.795 197.25 510.795 198.51C510.795 199.723 510.375 200.75 509.535 201.59C508.695 202.383 507.622 202.78 506.315 202.78ZM510.235 240.79C510.235 242.377 510.352 243.543 510.585 244.29C510.819 245.037 511.285 245.573 511.985 245.9C512.685 246.18 513.759 246.32 515.205 246.32V248H498.545V246.32C499.992 246.32 501.065 246.18 501.765 245.9C502.465 245.573 502.932 245.037 503.165 244.29C503.399 243.543 503.515 242.377 503.515 240.79V219.23C503.515 217.363 503.445 216.103 503.305 215.45C503.165 214.797 502.745 214.47 502.045 214.47C501.532 214.47 500.645 214.727 499.385 215.24L498.755 213.63L509.045 209.5L510.235 210.55V240.79ZM565.554 240.79C565.554 242.377 565.671 243.543 565.904 244.29C566.138 245.037 566.558 245.573 567.164 245.9C567.818 246.18 568.844 246.32 570.244 246.32V248H554.774V246.32C555.988 246.32 556.874 246.18 557.434 245.9C557.994 245.573 558.368 245.037 558.554 244.29C558.741 243.543 558.834 242.377 558.834 240.79V220.07C558.834 216.383 557.528 214.54 554.914 214.54C553.701 214.54 552.511 214.96 551.344 215.8C550.178 216.64 548.964 217.9 547.704 219.58V219.72V240.79C547.704 242.377 547.798 243.543 547.984 244.29C548.171 245.037 548.544 245.573 549.104 245.9C549.664 246.18 550.551 246.32 551.764 246.32V248H536.854V246.32C538.068 246.32 538.954 246.18 539.514 245.9C540.121 245.573 540.518 245.037 540.704 244.29C540.891 243.543 540.984 242.377 540.984 240.79V220.07C540.984 216.383 539.678 214.54 537.064 214.54C535.804 214.54 534.568 214.983 533.354 215.87C532.188 216.757 530.951 218.087 529.644 219.86V240.79C529.644 242.377 529.738 243.543 529.924 244.29C530.111 245.037 530.484 245.573 531.044 245.9C531.651 246.18 532.561 246.32 533.774 246.32V248H518.164V246.32C519.564 246.32 520.591 246.18 521.244 245.9C521.898 245.573 522.341 245.037 522.574 244.29C522.808 243.543 522.924 242.377 522.924 240.79V219.23C522.924 217.363 522.854 216.127 522.714 215.52C522.574 214.867 522.178 214.54 521.524 214.54C521.011 214.54 520.101 214.797 518.794 215.31L518.094 213.77L528.314 209.5L529.644 210.55V216.99H529.854C531.394 214.657 532.958 212.86 534.544 211.6C536.178 210.293 538.091 209.64 540.284 209.64C542.338 209.64 543.971 210.27 545.184 211.53C546.398 212.79 547.191 214.61 547.564 216.99H547.774C549.268 214.657 550.808 212.86 552.394 211.6C554.028 210.293 555.941 209.64 558.134 209.64C560.561 209.64 562.404 210.503 563.664 212.23C564.924 213.957 565.554 216.453 565.554 219.72V240.79ZM598.482 233.02C597.782 238.48 596.312 242.54 594.072 245.2C591.878 247.813 589.078 249.12 585.672 249.12C583.058 249.12 580.772 248.35 578.812 246.81C576.898 245.223 575.405 243.007 574.332 240.16C573.305 237.267 572.792 233.907 572.792 230.08C572.792 226.347 573.328 222.94 574.402 219.86C575.475 216.733 576.992 214.26 578.952 212.44C580.958 210.573 583.315 209.64 586.022 209.64C589.942 209.64 592.928 211.297 594.982 214.61C597.035 217.877 598.062 222.193 598.062 227.56H579.582V227.7C579.582 232.6 580.328 236.543 581.822 239.53C583.315 242.47 585.485 243.94 588.332 243.94C590.152 243.94 591.808 243.1 593.302 241.42C594.842 239.74 596.008 236.94 596.802 233.02H598.482ZM586.022 212.58C582.242 212.58 580.118 216.617 579.652 224.69H591.342C591.342 216.617 589.568 212.58 586.022 212.58ZM635.76 245.2L625.4 249.12L623.93 247.93V242.19H623.65C622.717 244.337 621.433 246.04 619.8 247.3C618.213 248.513 616.323 249.12 614.13 249.12C611.937 249.12 610.023 248.35 608.39 246.81C606.757 245.27 605.497 243.1 604.61 240.3C603.723 237.5 603.28 234.257 603.28 230.57C603.28 226.51 603.793 222.893 604.82 219.72C605.893 216.547 607.387 214.073 609.3 212.3C611.26 210.527 613.5 209.64 616.02 209.64C617.747 209.64 619.287 209.99 620.64 210.69C622.04 211.39 623.137 212.347 623.93 213.56V200.47C623.93 198.743 623.86 197.577 623.72 196.97C623.627 196.363 623.3 196.06 622.74 196.06C622.18 196.06 621.2 196.41 619.8 197.11L619.1 195.64L629.81 190.32L630.72 191.3V239.67C630.72 241.537 630.79 242.797 630.93 243.45C631.117 244.057 631.56 244.36 632.26 244.36C632.773 244.36 633.73 244.103 635.13 243.59L635.76 245.2ZM617.07 244.22C618.517 244.22 619.777 243.753 620.85 242.82C621.923 241.84 622.95 240.463 623.93 238.69V225.74C623.93 222.1 623.37 219.113 622.25 216.78C621.177 214.447 619.59 213.28 617.49 213.28C615.157 213.28 613.407 214.727 612.24 217.62C611.073 220.467 610.49 224.223 610.49 228.89C610.49 233.557 611.027 237.29 612.1 240.09C613.22 242.843 614.877 244.22 617.07 244.22ZM646.247 202.78C644.94 202.78 643.844 202.383 642.957 201.59C642.117 200.75 641.697 199.723 641.697 198.51C641.697 197.25 642.117 196.223 642.957 195.43C643.844 194.59 644.94 194.17 646.247 194.17C647.554 194.17 648.627 194.59 649.467 195.43C650.307 196.223 650.727 197.25 650.727 198.51C650.727 199.723 650.307 200.75 649.467 201.59C648.627 202.383 647.554 202.78 646.247 202.78ZM650.167 240.79C650.167 242.377 650.284 243.543 650.517 244.29C650.75 245.037 651.217 245.573 651.917 245.9C652.617 246.18 653.69 246.32 655.137 246.32V248H638.477V246.32C639.924 246.32 640.997 246.18 641.697 245.9C642.397 245.573 642.864 245.037 643.097 244.29C643.33 243.543 643.447 242.377 643.447 240.79V219.23C643.447 217.363 643.377 216.103 643.237 215.45C643.097 214.797 642.677 214.47 641.977 214.47C641.464 214.47 640.577 214.727 639.317 215.24L638.687 213.63L648.977 209.5L650.167 210.55V240.79ZM689.176 240.09C688.943 246.11 686.773 249.12 682.666 249.12C678.419 249.12 676.296 246.063 676.296 239.95V238.69C675.503 242.003 674.196 244.57 672.376 246.39C670.603 248.21 668.456 249.12 665.936 249.12C663.509 249.12 661.596 248.35 660.196 246.81C658.843 245.223 658.166 243.24 658.166 240.86C658.166 238.293 658.959 236.077 660.546 234.21C662.133 232.297 664.023 230.71 666.216 229.45C668.456 228.19 671.326 226.767 674.826 225.18L676.296 224.55V220.49C676.296 217.597 675.829 215.52 674.896 214.26C674.009 213 672.679 212.37 670.906 212.37C669.506 212.37 668.363 212.72 667.476 213.42C666.636 214.073 666.216 214.96 666.216 216.08C666.216 216.5 666.286 216.92 666.426 217.34C666.566 217.76 666.659 218.017 666.706 218.11C667.033 218.857 667.196 219.557 667.196 220.21C667.196 221.19 666.893 221.983 666.286 222.59C665.679 223.15 664.839 223.43 663.766 223.43C662.553 223.43 661.596 223.033 660.896 222.24C660.243 221.447 659.916 220.397 659.916 219.09C659.916 217.363 660.429 215.777 661.456 214.33C662.529 212.883 663.976 211.74 665.796 210.9C667.663 210.013 669.739 209.57 672.026 209.57C675.479 209.57 678.163 210.55 680.076 212.51C682.036 214.423 683.016 217.247 683.016 220.98V241.63C683.016 243.263 683.156 244.383 683.436 244.99C683.763 245.597 684.229 245.9 684.836 245.9C686.516 245.9 687.426 243.963 687.566 240.09H689.176ZM668.666 243.8C670.159 243.8 671.583 243.077 672.936 241.63C674.289 240.183 675.409 238.013 676.296 235.12V226.86C672.656 228.727 669.833 230.57 667.826 232.39C665.866 234.163 664.886 236.357 664.886 238.97C664.886 240.463 665.213 241.653 665.866 242.54C666.519 243.38 667.453 243.8 668.666 243.8ZM726.401 209.64C727.614 209.64 728.547 209.967 729.201 210.62C729.854 211.273 730.181 212.183 730.181 213.35C730.181 214.657 729.831 215.73 729.131 216.57C728.477 217.41 727.684 217.83 726.751 217.83C726.144 217.83 725.654 217.737 725.281 217.55C724.954 217.317 724.534 216.92 724.021 216.36C723.554 215.893 723.181 215.59 722.901 215.45C722.667 215.263 722.341 215.17 721.921 215.17C721.081 215.17 720.217 215.753 719.331 216.92C718.444 218.04 717.651 219.65 716.951 221.75V240.37C716.951 242.05 717.114 243.287 717.441 244.08C717.814 244.873 718.514 245.433 719.541 245.76C720.567 246.087 722.177 246.25 724.371 246.25V248H705.471V246.32C706.871 246.32 707.897 246.18 708.551 245.9C709.204 245.573 709.647 245.037 709.881 244.29C710.114 243.543 710.231 242.377 710.231 240.79V219.23C710.231 217.317 710.161 216.057 710.021 215.45C709.881 214.797 709.484 214.47 708.831 214.47C708.224 214.47 707.291 214.75 706.031 215.31L705.331 213.7L710.931 211.46L715.691 209.5L716.951 210.55V217.27H717.161C718.281 215.17 719.657 213.373 721.291 211.88C722.924 210.387 724.627 209.64 726.401 209.64ZM757.691 233.02C756.991 238.48 755.521 242.54 753.281 245.2C751.087 247.813 748.287 249.12 744.881 249.12C742.267 249.12 739.981 248.35 738.021 246.81C736.107 245.223 734.614 243.007 733.541 240.16C732.514 237.267 732.001 233.907 732.001 230.08C732.001 226.347 732.537 222.94 733.611 219.86C734.684 216.733 736.201 214.26 738.161 212.44C740.167 210.573 742.524 209.64 745.231 209.64C749.151 209.64 752.137 211.297 754.191 214.61C756.244 217.877 757.271 222.193 757.271 227.56H738.791V227.7C738.791 232.6 739.537 236.543 741.031 239.53C742.524 242.47 744.694 243.94 747.541 243.94C749.361 243.94 751.017 243.1 752.511 241.42C754.051 239.74 755.217 236.94 756.011 233.02H757.691ZM745.231 212.58C741.451 212.58 739.327 216.617 738.861 224.69H750.551C750.551 216.617 748.777 212.58 745.231 212.58ZM771.973 240.79C771.973 242.377 772.09 243.543 772.323 244.29C772.557 245.037 773 245.573 773.653 245.9C774.353 246.18 775.427 246.32 776.873 246.32V248H760.213V246.32C761.66 246.32 762.733 246.18 763.433 245.9C764.133 245.573 764.6 245.037 764.833 244.29C765.067 243.543 765.183 242.377 765.183 240.79V200.33C765.183 198.603 765.113 197.46 764.973 196.9C764.88 196.293 764.553 195.99 763.993 195.99C763.387 195.99 762.383 196.34 760.983 197.04L760.283 195.5L770.923 190.32L771.973 191.3V240.79ZM810.377 240.09C810.144 246.11 807.974 249.12 803.867 249.12C799.621 249.12 797.497 246.063 797.497 239.95V238.69C796.704 242.003 795.397 244.57 793.577 246.39C791.804 248.21 789.657 249.12 787.137 249.12C784.711 249.12 782.797 248.35 781.397 246.81C780.044 245.223 779.367 243.24 779.367 240.86C779.367 238.293 780.161 236.077 781.747 234.21C783.334 232.297 785.224 230.71 787.417 229.45C789.657 228.19 792.527 226.767 796.027 225.18L797.497 224.55V220.49C797.497 217.597 797.031 215.52 796.097 214.26C795.211 213 793.881 212.37 792.107 212.37C790.707 212.37 789.564 212.72 788.677 213.42C787.837 214.073 787.417 214.96 787.417 216.08C787.417 216.5 787.487 216.92 787.627 217.34C787.767 217.76 787.861 218.017 787.907 218.11C788.234 218.857 788.397 219.557 788.397 220.21C788.397 221.19 788.094 221.983 787.487 222.59C786.881 223.15 786.041 223.43 784.967 223.43C783.754 223.43 782.797 223.033 782.097 222.24C781.444 221.447 781.117 220.397 781.117 219.09C781.117 217.363 781.631 215.777 782.657 214.33C783.731 212.883 785.177 211.74 786.997 210.9C788.864 210.013 790.941 209.57 793.227 209.57C796.681 209.57 799.364 210.55 801.277 212.51C803.237 214.423 804.217 217.247 804.217 220.98V241.63C804.217 243.263 804.357 244.383 804.637 244.99C804.964 245.597 805.431 245.9 806.037 245.9C807.717 245.9 808.627 243.963 808.767 240.09H810.377ZM789.867 243.8C791.361 243.8 792.784 243.077 794.137 241.63C795.491 240.183 796.611 238.013 797.497 235.12V226.86C793.857 228.727 791.034 230.57 789.027 232.39C787.067 234.163 786.087 236.357 786.087 238.97C786.087 240.463 786.414 241.653 787.067 242.54C787.721 243.38 788.654 243.8 789.867 243.8ZM832.019 232.32C832.019 238.013 831.343 242.237 829.989 244.99C828.636 247.743 826.303 249.12 822.989 249.12C820.143 249.12 818.043 248.14 816.689 246.18C815.336 244.173 814.659 240.79 814.659 236.03V213.77H809.759V211.18C812.326 211.133 814.379 210.2 815.919 208.38C817.459 206.56 818.416 203.993 818.789 200.68H821.309V210.9H829.709V213.77H821.449V234.21C821.449 237.663 821.706 240.253 822.219 241.98C822.779 243.707 823.829 244.57 825.369 244.57C826.956 244.57 828.123 243.567 828.869 241.56C829.663 239.553 830.059 236.473 830.059 232.32H832.019ZM861.05 233.02C860.35 238.48 858.88 242.54 856.64 245.2C854.447 247.813 851.647 249.12 848.24 249.12C845.627 249.12 843.34 248.35 841.38 246.81C839.467 245.223 837.973 243.007 836.9 240.16C835.873 237.267 835.36 233.907 835.36 230.08C835.36 226.347 835.897 222.94 836.97 219.86C838.043 216.733 839.56 214.26 841.52 212.44C843.527 210.573 845.883 209.64 848.59 209.64C852.51 209.64 855.497 211.297 857.55 214.61C859.603 217.877 860.63 222.193 860.63 227.56H842.15V227.7C842.15 232.6 842.897 236.543 844.39 239.53C845.883 242.47 848.053 243.94 850.9 243.94C852.72 243.94 854.377 243.1 855.87 241.42C857.41 239.74 858.577 236.94 859.37 233.02H861.05ZM848.59 212.58C844.81 212.58 842.687 216.617 842.22 224.69H853.91C853.91 216.617 852.137 212.58 848.59 212.58ZM898.328 245.2L887.968 249.12L886.498 247.93V242.19H886.218C885.285 244.337 884.002 246.04 882.368 247.3C880.782 248.513 878.892 249.12 876.698 249.12C874.505 249.12 872.592 248.35 870.958 246.81C869.325 245.27 868.065 243.1 867.178 240.3C866.292 237.5 865.848 234.257 865.848 230.57C865.848 226.51 866.362 222.893 867.388 219.72C868.462 216.547 869.955 214.073 871.868 212.3C873.828 210.527 876.068 209.64 878.588 209.64C880.315 209.64 881.855 209.99 883.208 210.69C884.608 211.39 885.705 212.347 886.498 213.56V200.47C886.498 198.743 886.428 197.577 886.288 196.97C886.195 196.363 885.868 196.06 885.308 196.06C884.748 196.06 883.768 196.41 882.368 197.11L881.668 195.64L892.378 190.32L893.288 191.3V239.67C893.288 241.537 893.358 242.797 893.498 243.45C893.685 244.057 894.128 244.36 894.828 244.36C895.342 244.36 896.298 244.103 897.698 243.59L898.328 245.2ZM879.638 244.22C881.085 244.22 882.345 243.753 883.418 242.82C884.492 241.84 885.518 240.463 886.498 238.69V225.74C886.498 222.1 885.938 219.113 884.818 216.78C883.745 214.447 882.158 213.28 880.058 213.28C877.725 213.28 875.975 214.727 874.808 217.62C873.642 220.467 873.058 224.223 873.058 228.89C873.058 233.557 873.595 237.29 874.668 240.09C875.788 242.843 877.445 244.22 879.638 244.22ZM927.996 249.12C925.242 249.12 922.699 248.28 920.366 246.6C920.039 246.32 919.712 246.18 919.386 246.18C919.059 246.18 918.756 246.437 918.476 246.95L917.916 248.35H916.376L915.886 233.23H917.426C917.939 237.29 919.082 240.463 920.856 242.75C922.676 245.037 924.822 246.18 927.296 246.18C928.929 246.18 930.166 245.667 931.006 244.64C931.892 243.613 932.336 242.19 932.336 240.37C932.336 239.297 932.126 238.387 931.706 237.64C931.286 236.847 930.562 235.983 929.536 235.05C928.509 234.07 926.782 232.6 924.356 230.64C921.322 228.26 919.222 226.253 918.056 224.62C916.936 222.987 916.376 221.19 916.376 219.23C916.376 216.383 917.286 214.073 919.106 212.3C920.972 210.527 923.306 209.64 926.106 209.64C928.579 209.64 930.772 210.433 932.686 212.02C933.012 212.347 933.339 212.51 933.666 212.51C934.086 212.51 934.366 212.23 934.506 211.67L934.926 210.13H936.536L936.816 222.38H935.276C934.856 219.533 933.876 217.2 932.336 215.38C930.796 213.513 928.906 212.58 926.666 212.58C925.266 212.58 924.146 213.023 923.306 213.91C922.466 214.75 922.046 215.87 922.046 217.27C922.046 218.623 922.489 219.813 923.376 220.84C924.262 221.867 926.059 223.453 928.766 225.6C932.219 228.307 934.622 230.57 935.976 232.39C937.376 234.21 938.076 236.38 938.076 238.9C938.076 242.213 937.119 244.757 935.206 246.53C933.292 248.257 930.889 249.12 927.996 249.12ZM952.784 240.79C952.784 242.377 952.877 243.543 953.064 244.29C953.297 245.037 953.694 245.573 954.254 245.9C954.861 246.18 955.817 246.32 957.124 246.32V248H941.024V246.32C942.471 246.32 943.544 246.18 944.244 245.9C944.944 245.573 945.411 245.037 945.644 244.29C945.877 243.543 945.994 242.377 945.994 240.79V200.33C945.994 198.603 945.924 197.46 945.784 196.9C945.691 196.293 945.364 195.99 944.804 195.99C944.197 195.99 943.194 196.34 941.794 197.04L941.094 195.5L951.734 190.32L952.784 191.3V240.79ZM970.424 241.7C971.497 243.567 972.524 244.803 973.504 245.41C974.531 246.017 975.837 246.32 977.424 246.32V248H960.694V246.32C962.047 246.32 962.981 246.25 963.494 246.11C964.054 245.97 964.334 245.69 964.334 245.27C964.334 244.897 964.101 244.313 963.634 243.52C963.214 242.68 962.887 242.073 962.654 241.7L954.254 226.86L962.164 217.06C963.191 215.847 963.704 214.89 963.704 214.19C963.704 213.63 963.354 213.233 962.654 213C962.001 212.72 960.974 212.58 959.574 212.58V210.9H975.464V212.58C973.644 212.58 972.104 212.837 970.844 213.35C969.631 213.817 968.347 214.843 966.994 216.43L960.484 224.27L970.424 241.7ZM986.95 202.78C985.643 202.78 984.547 202.383 983.66 201.59C982.82 200.75 982.4 199.723 982.4 198.51C982.4 197.25 982.82 196.223 983.66 195.43C984.547 194.59 985.643 194.17 986.95 194.17C988.257 194.17 989.33 194.59 990.17 195.43C991.01 196.223 991.43 197.25 991.43 198.51C991.43 199.723 991.01 200.75 990.17 201.59C989.33 202.383 988.257 202.78 986.95 202.78ZM990.87 240.79C990.87 242.377 990.987 243.543 991.22 244.29C991.453 245.037 991.92 245.573 992.62 245.9C993.32 246.18 994.393 246.32 995.84 246.32V248H979.18V246.32C980.627 246.32 981.7 246.18 982.4 245.9C983.1 245.573 983.567 245.037 983.8 244.29C984.033 243.543 984.15 242.377 984.15 240.79V219.23C984.15 217.363 984.08 216.103 983.94 215.45C983.8 214.797 983.38 214.47 982.68 214.47C982.167 214.47 981.28 214.727 980.02 215.24L979.39 213.63L989.68 209.5L990.87 210.55V240.79ZM1010.07 240.79C1010.07 242.377 1010.19 243.543 1010.42 244.29C1010.65 245.037 1011.1 245.573 1011.75 245.9C1012.45 246.18 1013.52 246.32 1014.97 246.32V248H998.309V246.32C999.756 246.32 1000.83 246.18 1001.53 245.9C1002.23 245.573 1002.7 245.037 1002.93 244.29C1003.16 243.543 1003.28 242.377 1003.28 240.79V200.33C1003.28 198.603 1003.21 197.46 1003.07 196.9C1002.98 196.293 1002.65 195.99 1002.09 195.99C1001.48 195.99 1000.48 196.34 999.079 197.04L998.379 195.5L1009.02 190.32L1010.07 191.3V240.79ZM1029.35 240.79C1029.35 242.377 1029.46 243.543 1029.7 244.29C1029.93 245.037 1030.37 245.573 1031.03 245.9C1031.73 246.18 1032.8 246.32 1034.25 246.32V248H1017.59V246.32C1019.03 246.32 1020.11 246.18 1020.81 245.9C1021.51 245.573 1021.97 245.037 1022.21 244.29C1022.44 243.543 1022.56 242.377 1022.56 240.79V200.33C1022.56 198.603 1022.49 197.46 1022.35 196.9C1022.25 196.293 1021.93 195.99 1021.37 195.99C1020.76 195.99 1019.76 196.34 1018.36 197.04L1017.66 195.5L1028.3 190.32L1029.35 191.3V240.79ZM1049.47 249.12C1046.72 249.12 1044.17 248.28 1041.84 246.6C1041.51 246.32 1041.19 246.18 1040.86 246.18C1040.53 246.18 1040.23 246.437 1039.95 246.95L1039.39 248.35H1037.85L1037.36 233.23H1038.9C1039.41 237.29 1040.56 240.463 1042.33 242.75C1044.15 245.037 1046.3 246.18 1048.77 246.18C1050.4 246.18 1051.64 245.667 1052.48 244.64C1053.37 243.613 1053.81 242.19 1053.81 240.37C1053.81 239.297 1053.6 238.387 1053.18 237.64C1052.76 236.847 1052.04 235.983 1051.01 235.05C1049.98 234.07 1048.26 232.6 1045.83 230.64C1042.8 228.26 1040.7 226.253 1039.53 224.62C1038.41 222.987 1037.85 221.19 1037.85 219.23C1037.85 216.383 1038.76 214.073 1040.58 212.3C1042.45 210.527 1044.78 209.64 1047.58 209.64C1050.05 209.64 1052.25 210.433 1054.16 212.02C1054.49 212.347 1054.81 212.51 1055.14 212.51C1055.56 212.51 1055.84 212.23 1055.98 211.67L1056.4 210.13H1058.01L1058.29 222.38H1056.75C1056.33 219.533 1055.35 217.2 1053.81 215.38C1052.27 213.513 1050.38 212.58 1048.14 212.58C1046.74 212.58 1045.62 213.023 1044.78 213.91C1043.94 214.75 1043.52 215.87 1043.52 217.27C1043.52 218.623 1043.96 219.813 1044.85 220.84C1045.74 221.867 1047.53 223.453 1050.24 225.6C1053.69 228.307 1056.1 230.57 1057.45 232.39C1058.85 234.21 1059.55 236.38 1059.55 238.9C1059.55 242.213 1058.59 244.757 1056.68 246.53C1054.77 248.257 1052.36 249.12 1049.47 249.12Z" fill="#F3F3F3"/>
<path d="M91.2422 89.4C95.8422 89.4 99.5422 91 102.342 94.2C105.142 97.2 106.542 101.1 106.542 105.9C106.542 111.1 104.642 115.5 100.842 119.1C97.2422 122.7 92.3422 124.5 86.1422 124.5C79.5422 124.5 74.0422 122.1 69.6422 117.3C65.2422 112.3 63.0422 105.8 63.0422 97.8C63.0422 88.8 66.1422 80.6 72.3422 73.2C78.5422 65.8 87.9422 60.2 100.542 56.4V64.2C92.3422 66.4 85.9422 69.8 81.3422 74.4C76.7422 79 74.4422 83.8 74.4422 88.8C74.4422 90.6 74.7422 92 75.3422 93C76.1422 94 77.0422 94.5 78.0422 94.5C78.8422 94.5 80.4422 93.7 82.8422 92.1C85.2422 90.3 88.0422 89.4 91.2422 89.4ZM148.842 89.4C153.442 89.4 157.142 91 159.942 94.2C162.742 97.2 164.142 101.1 164.142 105.9C164.142 111.1 162.242 115.5 158.442 119.1C154.842 122.7 149.942 124.5 143.742 124.5C137.142 124.5 131.642 122.1 127.242 117.3C122.842 112.3 120.642 105.8 120.642 97.8C120.642 88.8 123.742 80.6 129.942 73.2C136.142 65.8 145.542 60.2 158.142 56.4V64.2C149.942 66.4 143.542 69.8 138.942 74.4C134.342 79 132.042 83.8 132.042 88.8C132.042 90.6 132.342 92 132.942 93C133.742 94 134.642 94.5 135.642 94.5C136.642 94.5 138.242 93.7 140.442 92.1C142.842 90.3 145.642 89.4 148.842 89.4Z" fill="#F3F3F3"/>
<path d="M1311.4 298.98H1276.09L1276.78 296.82H1312.06L1311.4 298.98ZM1328.11 281.52L1327.18 302.91C1327.12 304.86 1327.54 305.28 1329.7 305.28L1329.43 306H1320.43L1320.67 305.28C1323.19 305.28 1323.67 304.74 1323.79 302.91L1324.03 298.59H1315.99L1312.84 303.42C1311.85 304.95 1311.61 305.28 1314.64 305.28L1314.4 306H1307.59L1307.8 305.28C1309.18 305.28 1310.17 305.04 1311.25 303.42L1325.74 281.52H1328.11ZM1324.54 285.51L1316.74 297.45H1324.12L1324.81 285.51H1324.54ZM1335.04 306.42C1332.67 306.42 1330.66 304.98 1330.66 303.33C1330.66 302.52 1331.23 301.98 1331.95 301.98C1332.55 301.98 1332.76 302.37 1333.06 303.21C1333.6 304.62 1334.29 305.34 1335.52 305.34C1336.9 305.34 1337.59 304.32 1337.59 302.91C1337.59 301.77 1337.05 300.9 1336.3 299.85L1335.49 298.59C1334.38 296.94 1333.72 295.86 1333.72 294.36C1333.72 291.54 1336.15 289.59 1339.03 289.59C1341.43 289.59 1342.6 290.97 1342.6 291.99C1342.6 292.8 1341.97 293.34 1341.31 293.34C1340.68 293.34 1340.44 292.86 1340.23 292.14C1339.93 291.3 1339.48 290.64 1338.31 290.64C1337.11 290.64 1336.21 291.45 1336.21 292.92C1336.21 293.97 1336.75 295.02 1337.56 296.19L1338.31 297.42C1339.45 299.19 1340.08 300.15 1340.08 301.59C1340.08 304.32 1337.92 306.42 1335.04 306.42ZM1343.86 306H1340.92L1347.76 284.97C1348.3 283.29 1348.03 282.69 1345.93 282.69L1346.11 282C1348.99 282 1350.97 281.73 1351.45 281.13L1351.81 281.34L1345.84 299.31H1346.14C1349.2 292.68 1351.6 289.68 1354 289.68C1355.41 289.68 1356.16 290.58 1356.16 291.87C1356.16 294.06 1353.97 298.38 1352.5 301.83C1352.23 302.52 1351.81 303.54 1351.81 303.96C1351.81 304.41 1351.93 304.65 1352.35 304.65C1353.46 304.65 1354.81 302.76 1355.8 300.57H1356.49C1355.41 303.24 1353.46 306.27 1351 306.27C1349.41 306.27 1348.87 305.43 1348.87 304.35C1348.87 303.66 1349.26 302.97 1349.77 301.71C1351.36 297.69 1353.04 293.97 1353.04 292.77C1353.04 292.11 1352.83 291.81 1352.41 291.81C1351.24 291.81 1348.21 294.75 1343.86 306ZM1362.71 304.5C1364.48 304.5 1366.16 302.64 1367.66 299.61H1368.32C1366.64 303.75 1364.24 306.42 1361.39 306.42C1359.02 306.42 1357.46 304.77 1357.46 301.8C1357.46 296.7 1361.81 289.65 1366.22 289.65C1367.99 289.65 1369.1 290.76 1369.1 292.38C1369.1 295.74 1364.87 298.56 1360.73 299.19C1360.55 300.06 1360.46 300.9 1360.46 301.62C1360.46 303.57 1361.36 304.5 1362.71 304.5ZM1366.04 290.79C1363.91 290.79 1361.87 294.69 1360.97 298.23C1364.18 297.42 1367.03 294.96 1367.03 292.17C1367.03 291.3 1366.79 290.79 1366.04 290.79ZM1373 306H1370.03L1373.84 294.51C1374.17 293.52 1374.56 292.26 1374.56 291.84C1374.56 291.45 1374.41 291.33 1374.17 291.33C1373.27 291.33 1371.95 292.92 1370.81 294.81H1370.09C1371.47 292.14 1373.72 289.74 1375.91 289.74C1376.99 289.74 1377.5 290.52 1377.5 291.39C1377.5 292.17 1377.05 293.22 1376.54 294.51L1374.77 299.31H1375.04C1377.62 292.59 1380.2 289.65 1382.69 289.65C1383.41 289.65 1383.8 290.01 1383.8 290.67C1383.8 291.6 1383.02 292.56 1382.21 292.56C1381.61 292.56 1381.31 292.23 1380.68 292.23C1379.3 292.23 1376.75 294.96 1373 306Z" fill="#F3F3F3"/>
</svg>
