<svg width="1425" height="368" viewBox="0 0 1425 368" fill="none" xmlns="http://www.w3.org/2000/svg">
<rect width="1424.53" height="367.168" fill="#211D1D"/>
<path d="M631.325 92.12H631.395L638.535 70H647.215V70.84C646.118 70.84 645.302 70.9217 644.765 71.085C644.252 71.2483 643.902 71.5167 643.715 71.89C643.552 72.2633 643.47 72.835 643.47 73.605V94.395C643.47 95.165 643.552 95.7367 643.715 96.11C643.902 96.4833 644.252 96.7517 644.765 96.915C645.302 97.0783 646.118 97.16 647.215 97.16V98H635.805V97.16C636.902 97.16 637.707 97.0783 638.22 96.915C638.733 96.7517 639.072 96.4833 639.235 96.11C639.422 95.7367 639.515 95.165 639.515 94.395V72.03H639.41L630.87 98.7H629.295L620.79 72.38H620.685V94.395C620.685 95.165 620.767 95.7367 620.93 96.11C621.117 96.4833 621.467 96.7517 621.98 96.915C622.517 97.0783 623.333 97.16 624.43 97.16V98H615.505V97.16C616.602 97.16 617.407 97.0783 617.92 96.915C618.433 96.7517 618.772 96.4833 618.935 96.11C619.122 95.7367 619.215 95.165 619.215 94.395V73.605C619.215 72.835 619.122 72.2633 618.935 71.89C618.772 71.5167 618.433 71.2483 617.92 71.085C617.407 70.9217 616.602 70.84 615.505 70.84V70H624.22L631.325 92.12ZM668.864 94.57C669.237 95.62 669.669 96.32 670.159 96.67C670.672 96.9967 671.501 97.16 672.644 97.16V98H662.004V97.16C663.194 97.16 664.011 97.0783 664.454 96.915C664.897 96.7517 665.119 96.4483 665.119 96.005C665.119 95.7483 665.014 95.2583 664.804 94.535L663.124 89.145H653.744L652.029 94.57C651.796 95.27 651.679 95.76 651.679 96.04C651.679 96.46 651.901 96.7517 652.344 96.915C652.787 97.0783 653.581 97.16 654.724 97.16V98H646.814V97.16C647.934 97.16 648.739 96.9967 649.229 96.67C649.719 96.32 650.139 95.62 650.489 94.57L658.679 69.58H660.604L668.864 94.57ZM658.399 74.62L654.199 87.78H662.669L658.539 74.62H658.399ZM697.408 70.84C696.311 70.84 695.495 70.9217 694.958 71.085C694.445 71.2483 694.095 71.5167 693.908 71.89C693.745 72.2633 693.663 72.835 693.663 73.605V98.35H691.703L677.423 75.495V94.395C677.423 95.165 677.516 95.7367 677.703 96.11C677.89 96.4833 678.251 96.7517 678.788 96.915C679.325 97.0783 680.165 97.16 681.308 97.16V98H672.243V97.16C673.34 97.16 674.145 97.0783 674.658 96.915C675.171 96.7517 675.51 96.4833 675.673 96.11C675.86 95.7367 675.953 95.165 675.953 94.395V73.15L675.918 73.08C675.358 72.17 674.81 71.575 674.273 71.295C673.76 70.9917 673.095 70.84 672.278 70.84V70H678.683L692.193 91.875V73.605C692.193 72.835 692.1 72.2633 691.913 71.89C691.75 71.5167 691.411 71.2483 690.898 71.085C690.385 70.9217 689.58 70.84 688.483 70.84V70H697.408V70.84ZM707.174 98.56C706.147 98.56 705.156 98.35 704.199 97.93C703.242 97.51 702.402 96.9383 701.679 96.215C701.422 95.9583 701.201 95.83 701.014 95.83C700.781 95.83 700.629 96.0517 700.559 96.495L700.244 98.105H699.369L699.439 87.64H700.349C700.442 89.3433 700.781 90.9183 701.364 92.365C701.947 93.8117 702.741 94.9667 703.744 95.83C704.747 96.67 705.867 97.09 707.104 97.09C708.504 97.09 709.566 96.6467 710.289 95.76C711.036 94.85 711.409 93.7883 711.409 92.575C711.409 91.5717 711.176 90.65 710.709 89.81C710.242 88.9467 709.636 88.1767 708.889 87.5C708.166 86.8 707.221 86.0067 706.054 85.12C704.537 83.9533 703.359 82.9967 702.519 82.25C701.679 81.48 700.979 80.5933 700.419 79.59C699.882 78.5633 699.614 77.4083 699.614 76.125C699.614 74.7717 699.917 73.5933 700.524 72.59C701.131 71.5633 701.959 70.7817 703.009 70.245C704.059 69.7083 705.249 69.44 706.579 69.44C707.559 69.44 708.422 69.5917 709.169 69.895C709.916 70.175 710.604 70.6183 711.234 71.225C711.491 71.435 711.701 71.54 711.864 71.54C712.167 71.54 712.354 71.3067 712.424 70.84L712.599 69.79H713.439L713.859 78.995H712.984C712.797 76.685 712.167 74.76 711.094 73.22C710.021 71.6567 708.597 70.875 706.824 70.875C705.587 70.875 704.607 71.2717 703.884 72.065C703.184 72.835 702.834 73.7917 702.834 74.935C702.834 75.7983 703.032 76.5917 703.429 77.315C703.849 78.0383 704.409 78.7267 705.109 79.38C705.832 80.0333 706.836 80.8383 708.119 81.795C709.589 82.8683 710.767 83.8367 711.654 84.7C712.541 85.54 713.252 86.4967 713.789 87.57C714.349 88.6433 714.629 89.8567 714.629 91.21C714.629 92.6567 714.302 93.94 713.649 95.06C713.019 96.1567 712.132 97.02 710.989 97.65C709.869 98.2567 708.597 98.56 707.174 98.56ZM719.566 73.605C719.566 72.835 719.473 72.2633 719.286 71.89C719.123 71.5167 718.785 71.2483 718.271 71.085C717.758 70.9217 716.953 70.84 715.856 70.84V70H727.266V70.84C726.17 70.84 725.353 70.9217 724.816 71.085C724.303 71.2483 723.953 71.5167 723.766 71.89C723.603 72.2633 723.521 72.835 723.521 73.605V94.395C723.521 95.165 723.603 95.7367 723.766 96.11C723.953 96.4833 724.303 96.7517 724.816 96.915C725.353 97.0783 726.17 97.16 727.266 97.16V98H715.856V97.16C716.953 97.16 717.758 97.0783 718.271 96.915C718.785 96.7517 719.123 96.4833 719.286 96.11C719.473 95.7367 719.566 95.165 719.566 94.395V73.605ZM744.391 92.12H744.461L751.601 70H760.281V70.84C759.185 70.84 758.368 70.9217 757.831 71.085C757.318 71.2483 756.968 71.5167 756.781 71.89C756.618 72.2633 756.536 72.835 756.536 73.605V94.395C756.536 95.165 756.618 95.7367 756.781 96.11C756.968 96.4833 757.318 96.7517 757.831 96.915C758.368 97.0783 759.185 97.16 760.281 97.16V98H748.871V97.16C749.968 97.16 750.773 97.0783 751.286 96.915C751.8 96.7517 752.138 96.4833 752.301 96.11C752.488 95.7367 752.581 95.165 752.581 94.395V72.03H752.476L743.936 98.7H742.361L733.856 72.38H733.751V94.395C733.751 95.165 733.833 95.7367 733.996 96.11C734.183 96.4833 734.533 96.7517 735.046 96.915C735.583 97.0783 736.4 97.16 737.496 97.16V98H728.571V97.16C729.668 97.16 730.473 97.0783 730.986 96.915C731.5 96.7517 731.838 96.4833 732.001 96.11C732.188 95.7367 732.281 95.165 732.281 94.395V73.605C732.281 72.835 732.188 72.2633 732.001 71.89C731.838 71.5167 731.5 71.2483 730.986 71.085C730.473 70.9217 729.668 70.84 728.571 70.84V70H737.286L744.391 92.12ZM781.93 94.57C782.304 95.62 782.735 96.32 783.225 96.67C783.739 96.9967 784.567 97.16 785.71 97.16V98H775.07V97.16C776.26 97.16 777.077 97.0783 777.52 96.915C777.964 96.7517 778.185 96.4483 778.185 96.005C778.185 95.7483 778.08 95.2583 777.87 94.535L776.19 89.145H766.81L765.095 94.57C764.862 95.27 764.745 95.76 764.745 96.04C764.745 96.46 764.967 96.7517 765.41 96.915C765.854 97.0783 766.647 97.16 767.79 97.16V98H759.88V97.16C761 97.16 761.805 96.9967 762.295 96.67C762.785 96.32 763.205 95.62 763.555 94.57L771.745 69.58H773.67L781.93 94.57ZM771.465 74.62L767.265 87.78H775.735L771.605 74.62H771.465ZM804.35 94.185C804.77 95.0017 805.131 95.6083 805.435 96.005C805.738 96.3783 806.123 96.67 806.59 96.88C807.056 97.0667 807.71 97.16 808.55 97.16V98H806.835C805.201 98 804.011 97.9183 803.265 97.755C802.518 97.5683 801.923 97.2183 801.48 96.705C801.036 96.1683 800.523 95.27 799.94 94.01L795.355 84.735H794.83C794.363 84.735 793.733 84.7117 792.94 84.665V94.395C792.94 95.165 793.021 95.7367 793.185 96.11C793.371 96.4833 793.721 96.7517 794.235 96.915C794.771 97.0783 795.588 97.16 796.685 97.16V98H785.31V97.16C786.406 97.16 787.211 97.0783 787.725 96.915C788.238 96.7517 788.576 96.4833 788.74 96.11C788.926 95.7367 789.02 95.165 789.02 94.395V73.605C789.02 72.835 788.926 72.2633 788.74 71.89C788.576 71.5167 788.238 71.2483 787.725 71.085C787.211 70.9217 786.406 70.84 785.31 70.84V70H796.09C799.146 70 801.421 70.6183 802.915 71.855C804.408 73.0917 805.155 74.8533 805.155 77.14C805.155 79.3567 804.49 81.06 803.16 82.25C801.83 83.4167 800.045 84.175 797.805 84.525C798.551 84.7583 799.181 85.1433 799.695 85.68C800.231 86.2167 800.791 87.115 801.375 88.375L804.35 94.185ZM792.94 83.3C793.57 83.37 794.235 83.405 794.935 83.405C796.825 83.405 798.33 82.9033 799.45 81.9C800.57 80.8967 801.13 79.345 801.13 77.245C801.13 75.355 800.663 73.92 799.73 72.94C798.796 71.9367 797.478 71.435 795.775 71.435C795.005 71.435 794.27 71.5517 793.57 71.785C793.15 71.9483 792.94 72.2633 792.94 72.73V83.3Z" fill="#ADADAD"/>
<path d="M259.193 136.49C260.898 136.49 261.998 137.81 261.998 139.515C261.998 141.385 260.623 142.925 258.258 142.925C255.893 142.925 254.023 141 254.023 138.03C254.023 134.95 256.003 131.925 260.898 130.44V131.87C257.818 132.695 256.113 134.62 256.113 136.38C256.113 137.04 256.388 137.425 256.773 137.425C257.378 137.425 257.708 136.49 259.193 136.49ZM269.753 136.49C271.458 136.49 272.558 137.81 272.558 139.515C272.558 141.385 271.183 142.925 268.818 142.925C266.453 142.925 264.583 141 264.583 138.03C264.583 134.95 266.563 131.925 271.458 130.44V131.87C268.378 132.695 266.673 134.62 266.673 136.38C266.673 137.04 266.948 137.425 267.333 137.425C267.993 137.425 268.268 136.49 269.753 136.49ZM289.812 174.88C286.457 174.88 283.377 173.34 281.177 171.195C280.297 170.315 279.637 170.37 279.417 171.635L278.922 174.165H277.547L277.657 157.72H279.087C279.472 165.695 283.652 172.57 289.702 172.57C294.432 172.57 296.467 168.885 296.467 165.475C296.467 160.415 292.562 157.17 288.052 153.76C282.552 149.58 277.932 146.115 277.932 139.625C277.932 133.08 282.662 129.12 288.877 129.12C292.067 129.12 294.267 130.11 296.192 131.925C297.127 132.75 297.897 132.53 298.062 131.32L298.337 129.67H299.657L300.317 144.135H298.942C298.392 137.37 295.092 131.375 289.262 131.375C285.192 131.375 282.992 134.345 282.992 137.755C282.992 142.045 286.182 144.685 291.297 148.535C297.017 152.77 301.527 156.565 301.527 163.33C301.527 170.26 296.577 174.88 289.812 174.88ZM309.286 168.335V135.665C309.286 132.31 308.571 131.32 303.456 131.32V130H321.386V131.32C316.216 131.32 315.501 132.31 315.501 135.665V168.335C315.501 171.69 316.216 172.68 321.386 172.68V174H303.456V172.68C308.571 172.68 309.286 171.69 309.286 168.335ZM342.421 129.34L355.401 168.61C356.556 171.965 357.766 172.68 361.341 172.68V174H344.621V172.68C349.956 172.68 350.011 171.8 349.021 168.555L346.381 160.085H331.641L328.946 168.61C327.901 171.8 327.956 172.68 333.181 172.68V174H320.751V172.68C324.216 172.68 325.426 171.965 326.526 168.61L339.396 129.34H342.421ZM338.956 137.26L332.356 157.94H345.666L339.176 137.26H338.956ZM367.58 132.475H364.005C359.99 132.475 358.67 133.685 358.12 141.275L356.525 141.165L357.24 131.65L357.405 130H387.71L387.82 131.65L388.535 141.165L386.995 141.275C386.39 133.685 385.125 132.475 381.055 132.475H377.48C376.325 132.475 375.665 133.135 375.665 134.345V168.335C375.665 171.69 376.38 172.68 381.495 172.68V174H363.565V172.68C368.735 172.68 369.45 171.69 369.45 168.335V134.345C369.45 133.135 368.79 132.475 367.58 132.475ZM439.905 151.78V168.335C439.905 171.855 440.4 172.68 443.59 172.68V174H431.435V172.68C434.185 172.68 434.625 171.855 434.625 168.335V152.055C434.625 149.085 433.525 147.71 431.545 147.71C429.565 147.71 427.805 149.085 425.88 151.67V151.78V168.335C425.88 171.855 426.32 172.68 429.07 172.68V174H417.355V172.68C420.16 172.68 420.6 171.855 420.6 168.335V152.055C420.6 149.085 419.5 147.71 417.52 147.71C415.485 147.71 413.67 149.14 411.69 151.89V168.335C411.69 171.855 412.13 172.68 414.935 172.68V174H402.67V172.68C405.915 172.68 406.41 171.855 406.41 168.335V151.395C406.41 147.71 406.41 146.995 403.165 148.315L402.615 147.105L410.645 143.75L411.69 144.575V149.635H411.855C413.945 146.5 416.31 143.86 420.05 143.86C423.295 143.86 425.22 145.895 425.77 149.635H425.935C427.97 146.5 430.335 143.86 434.075 143.86C437.925 143.86 439.905 146.72 439.905 151.78ZM464.457 162.23H465.777C464.622 171.085 460.882 174.88 455.712 174.88C449.497 174.88 445.592 168.995 445.592 159.92C445.592 151.23 449.442 143.86 455.987 143.86C462.422 143.86 465.447 149.91 465.447 157.94H450.927V158.05C450.927 165.53 453.237 170.81 457.802 170.81C460.277 170.81 463.137 168.885 464.457 162.23ZM455.987 146.17C452.687 146.17 451.312 150.185 450.982 155.685H460.167C460.167 150.405 459.232 146.17 455.987 146.17ZM491.782 167.785H493.047C492.882 171.965 491.562 174.88 487.932 174.88C484.797 174.88 482.927 172.79 482.927 167.675V166.685C481.662 171.855 478.747 174.88 474.787 174.88C470.882 174.88 468.682 171.965 468.682 168.39C468.682 161.46 476.657 158.38 482.927 155.575V152.385C482.927 147.655 481.387 146.005 478.692 146.005C476.547 146.005 475.007 147.105 475.007 148.92C475.007 150.185 475.777 150.9 475.777 152.165C475.777 153.65 474.842 154.695 473.082 154.695C471.102 154.695 470.057 153.32 470.057 151.285C470.057 147.215 474.017 143.805 479.572 143.805C484.907 143.805 488.207 146.83 488.207 152.77V168.995C488.207 171.69 488.757 172.35 489.637 172.35C490.792 172.35 491.672 171.25 491.782 167.785ZM476.932 170.7C479.132 170.7 481.497 168.665 482.927 163.88V157.39C478.472 159.7 473.962 162.34 473.962 166.905C473.962 169.215 475.007 170.7 476.932 170.7ZM494.195 174V172.68C497.385 172.68 497.935 171.855 497.935 168.335V151.395C497.935 147.71 497.935 146.94 494.635 148.315L494.085 147.05L498.485 145.29L502.225 143.75L503.27 144.575V149.635H503.435C505.91 146.225 508.385 143.86 512.125 143.86C516.03 143.86 518.175 146.665 518.175 151.835V168.335C518.175 171.855 518.67 172.68 521.805 172.68V174H509.485V172.68C512.4 172.68 512.84 171.855 512.84 168.335V152.165C512.84 149.14 511.685 147.71 509.595 147.71C507.34 147.71 505.36 149.25 503.27 151.945V168.335C503.27 171.855 503.71 172.68 506.625 172.68V174H494.195ZM534.06 174.88C531.255 174.88 529.22 173.725 528.065 172.9C527.35 172.35 526.91 172.515 526.58 173.175L526.14 174.275H524.93L524.545 162.395H525.755C526.58 168.94 529.715 172.57 533.51 172.57C536.095 172.57 537.47 170.81 537.47 168.005C537.47 165.53 536.315 164.485 531.2 160.36C526.525 156.675 524.93 154.53 524.93 151.395C524.93 146.83 528.23 143.86 532.575 143.86C535.05 143.86 536.755 144.905 537.745 145.73C538.46 146.39 539.01 146.115 539.175 145.455L539.505 144.245H540.77L540.99 153.87H539.78C539.12 149.58 536.7 146.17 533.015 146.17C530.815 146.17 529.385 147.655 529.385 149.855C529.385 152.165 530.815 153.375 534.665 156.4C539.615 160.305 541.98 162.67 541.98 166.85C541.98 172.295 538.295 174.88 534.06 174.88ZM483.311 186L483.476 187.65L484.521 197.11L482.981 197.275C482.156 189.74 480.891 188.475 476.986 188.475H469.121C467.416 188.475 466.536 189.41 466.536 191.06V206.185H473.356C476.601 206.185 477.536 205.36 477.536 199.695H478.801V214.6H477.536C477.536 208.99 476.601 208.165 473.356 208.165H466.536V224.39C466.536 226.975 466.976 227.525 469.121 227.525H476.931C481.056 227.525 482.651 225.93 484.851 217.515L486.391 217.955L483.696 228.405L483.256 230H454.491V228.68C459.606 228.68 460.321 227.69 460.321 224.335V191.665C460.321 188.31 459.606 187.32 454.491 187.32V186H483.311ZM500.475 222.41L505.37 206.295C506.415 202.885 506.47 202.17 502.84 202.17V200.85H512.355V202.17C509.825 202.17 508.78 202.885 507.735 206.295L500.255 230.44H497.285L489.805 206.295C488.76 202.885 487.77 202.17 485.46 202.17V200.85H498.22V202.17C494.535 202.17 494.535 202.885 495.525 206.295L500.145 222.41H500.475ZM530.682 218.23H532.002C530.847 227.085 527.107 230.88 521.937 230.88C515.722 230.88 511.817 224.995 511.817 215.92C511.817 207.23 515.667 199.86 522.212 199.86C528.647 199.86 531.672 205.91 531.672 213.94H517.152V214.05C517.152 221.53 519.462 226.81 524.027 226.81C526.502 226.81 529.362 224.885 530.682 218.23ZM522.212 202.17C518.912 202.17 517.537 206.185 517.207 211.685H526.392C526.392 206.405 525.457 202.17 522.212 202.17ZM551.03 199.86C552.955 199.86 554 200.96 554 202.775C554 204.92 552.735 206.295 551.305 206.295C550.315 206.295 549.875 205.91 549.16 205.14C548.445 204.425 548.17 204.205 547.51 204.205C546.245 204.205 544.76 206.02 543.605 209.375V224.005C543.605 227.745 544.43 228.625 549.435 228.625V230H534.585V228.68C537.775 228.68 538.325 227.855 538.325 224.335V207.395C538.325 203.71 538.325 202.94 535.025 204.315L534.475 203.05L538.875 201.29L542.615 199.75L543.605 200.575V205.855H543.77C545.31 202.94 548.005 199.86 551.03 199.86ZM560.245 242.87C557.66 242.87 555.68 241.33 555.68 239.075C555.68 237.26 556.89 236.27 558.43 236.27C559.805 236.27 560.52 237.095 561.125 237.92C561.785 238.91 562.28 239.185 563.105 239.185C564.535 239.185 565.69 237.04 566.68 233.245C566.845 232.255 566.68 230.11 566.24 228.02L559.42 206.295C558.32 202.885 557.33 202.17 554.91 202.17V200.85H567.78V202.17C564.15 202.17 564.15 202.885 565.14 206.295L569.76 222.465H570.035L574.6 206.295C575.535 202.885 575.535 202.17 571.96 202.17V200.85H581.035V202.17C578.835 202.17 577.845 202.885 576.855 206.295L569.925 229.67C567.67 237.205 565.415 242.705 560.245 242.87ZM604.438 230.88C598.003 230.88 594.263 224.72 594.263 215.92C594.263 206.79 598.278 199.86 605.373 199.86C609.993 199.86 613.128 202.885 613.128 207.01C613.128 209.32 612.083 210.695 610.213 210.695C608.508 210.695 607.628 209.54 607.628 208.165C607.628 207.23 608.013 206.13 608.013 204.975C608.013 203.105 606.968 202.17 605.318 202.17C601.358 202.17 599.708 207.615 599.708 213.83C599.708 220.98 601.908 226.7 606.418 226.7C608.893 226.7 611.698 224.83 612.688 217.9H614.008C613.403 227.03 609.388 230.88 604.438 230.88ZM628.432 230.88C621.282 230.88 616.607 224.555 616.607 215.535C616.607 206.68 620.952 199.86 628.432 199.86C635.527 199.86 640.257 206.185 640.257 215.205C640.257 224.06 635.857 230.88 628.432 230.88ZM629.257 228.46C633.162 228.46 634.702 223.29 634.702 218.45C634.702 210.97 632.447 202.28 627.607 202.28C623.702 202.28 622.107 207.45 622.107 212.29C622.107 219.77 624.417 228.46 629.257 228.46ZM661.458 230.88L660.358 229.945L660.248 225.27L660.083 225.215C658.213 228.185 655.573 230.88 651.668 230.88C647.873 230.88 645.673 227.8 645.673 222.96V207.45C645.673 203.875 645.508 203.215 642.153 204.26L641.768 203.05L650.238 200.3L651.008 201.015V222.41C651.008 225.655 651.998 227.195 654.088 227.195C656.288 227.195 658.488 225.325 660.248 222.96V207.45C660.248 203.875 660.138 203.215 656.728 204.26L656.343 203.05L664.868 200.3L665.583 201.015V223.455C665.583 227.14 665.693 227.855 669.103 226.59L669.598 227.855L661.458 230.88ZM688.101 199.86C690.026 199.86 691.071 200.96 691.071 202.775C691.071 204.92 689.806 206.295 688.376 206.295C687.386 206.295 686.946 205.91 686.231 205.14C685.516 204.425 685.241 204.205 684.581 204.205C683.316 204.205 681.831 206.02 680.676 209.375V224.005C680.676 227.745 681.501 228.625 686.506 228.625V230H671.656V228.68C674.846 228.68 675.396 227.855 675.396 224.335V207.395C675.396 203.71 675.396 202.94 672.096 204.315L671.546 203.05L675.946 201.29L679.686 199.75L680.676 200.575V205.855H680.841C682.381 202.94 685.076 199.86 688.101 199.86ZM703.035 230.88C700.23 230.88 698.195 229.725 697.04 228.9C696.325 228.35 695.885 228.515 695.555 229.175L695.115 230.275H693.905L693.52 218.395H694.73C695.555 224.94 698.69 228.57 702.485 228.57C705.07 228.57 706.445 226.81 706.445 224.005C706.445 221.53 705.29 220.485 700.175 216.36C695.5 212.675 693.905 210.53 693.905 207.395C693.905 202.83 697.205 199.86 701.55 199.86C704.025 199.86 705.73 200.905 706.72 201.73C707.435 202.39 707.985 202.115 708.15 201.455L708.48 200.245H709.745L709.965 209.87H708.755C708.095 205.58 705.675 202.17 701.99 202.17C699.79 202.17 698.36 203.655 698.36 205.855C698.36 208.165 699.79 209.375 703.64 212.4C708.59 216.305 710.955 218.67 710.955 222.85C710.955 228.295 707.27 230.88 703.035 230.88ZM733.011 218.23H734.331C733.176 227.085 729.436 230.88 724.266 230.88C718.051 230.88 714.146 224.995 714.146 215.92C714.146 207.23 717.996 199.86 724.541 199.86C730.976 199.86 734.001 205.91 734.001 213.94H719.481V214.05C719.481 221.53 721.791 226.81 726.356 226.81C728.831 226.81 731.691 224.885 733.011 218.23ZM724.541 202.17C721.241 202.17 719.866 206.185 719.536 211.685H728.721C728.721 206.405 727.786 202.17 724.541 202.17ZM755.157 194.47C753.067 194.47 751.582 193.04 751.582 191.115C751.582 189.135 753.067 187.705 755.157 187.705C757.192 187.705 758.677 189.135 758.677 191.115C758.677 193.04 757.192 194.47 755.157 194.47ZM758.237 200.575V224.335C758.237 227.855 758.787 228.68 762.142 228.68V230H749.052V228.68C752.407 228.68 752.957 227.855 752.957 224.335V207.395C752.957 203.71 752.902 202.94 749.712 204.26L749.217 202.995L757.302 199.75L758.237 200.575ZM774.202 230.88C771.397 230.88 769.362 229.725 768.207 228.9C767.492 228.35 767.052 228.515 766.722 229.175L766.282 230.275H765.072L764.687 218.395H765.897C766.722 224.94 769.857 228.57 773.652 228.57C776.237 228.57 777.612 226.81 777.612 224.005C777.612 221.53 776.457 220.485 771.342 216.36C766.667 212.675 765.072 210.53 765.072 207.395C765.072 202.83 768.372 199.86 772.717 199.86C775.192 199.86 776.897 200.905 777.887 201.73C778.602 202.39 779.152 202.115 779.317 201.455L779.647 200.245H780.912L781.132 209.87H779.922C779.262 205.58 776.842 202.17 773.157 202.17C770.957 202.17 769.527 203.655 769.527 205.855C769.527 208.165 770.957 209.375 774.807 212.4C779.757 216.305 782.122 218.67 782.122 222.85C782.122 228.295 778.437 230.88 774.202 230.88ZM819.634 223.785H820.899C820.734 227.965 819.414 230.88 815.784 230.88C812.649 230.88 810.779 228.79 810.779 223.675V222.685C809.514 227.855 806.599 230.88 802.639 230.88C798.734 230.88 796.534 227.965 796.534 224.39C796.534 217.46 804.509 214.38 810.779 211.575V208.385C810.779 203.655 809.239 202.005 806.544 202.005C804.399 202.005 802.859 203.105 802.859 204.92C802.859 206.185 803.629 206.9 803.629 208.165C803.629 209.65 802.694 210.695 800.934 210.695C798.954 210.695 797.909 209.32 797.909 207.285C797.909 203.215 801.869 199.805 807.424 199.805C812.759 199.805 816.059 202.83 816.059 208.77V224.995C816.059 227.69 816.609 228.35 817.489 228.35C818.644 228.35 819.524 227.25 819.634 223.785ZM804.784 226.7C806.984 226.7 809.349 224.665 810.779 219.88V213.39C806.324 215.7 801.814 218.34 801.814 222.905C801.814 225.215 802.859 226.7 804.784 226.7ZM871.707 200.85V202.17C869.397 202.17 868.407 202.885 867.472 206.295L860.487 230.495H857.187L852.402 211.795L847.342 230.495H843.877L836.672 206.295C835.627 202.885 834.637 202.17 832.327 202.17V200.85H843.877V202.17C841.237 202.17 841.402 202.885 842.392 206.295L847.067 222.575H847.287L851.302 207.56L850.972 206.35C850.092 202.885 849.267 202.17 847.287 202.17V200.85H858.782V202.17C855.812 202.17 855.812 202.94 856.582 206.405L860.322 222.575H860.542L865.162 206.295C866.152 202.885 866.207 202.17 862.687 202.17V200.85H871.707ZM894.131 223.785H895.396C895.231 227.965 893.911 230.88 890.281 230.88C887.146 230.88 885.276 228.79 885.276 223.675V222.685C884.011 227.855 881.096 230.88 877.136 230.88C873.231 230.88 871.031 227.965 871.031 224.39C871.031 217.46 879.006 214.38 885.276 211.575V208.385C885.276 203.655 883.736 202.005 881.041 202.005C878.896 202.005 877.356 203.105 877.356 204.92C877.356 206.185 878.126 206.9 878.126 208.165C878.126 209.65 877.191 210.695 875.431 210.695C873.451 210.695 872.406 209.32 872.406 207.285C872.406 203.215 876.366 199.805 881.921 199.805C887.256 199.805 890.556 202.83 890.556 208.77V224.995C890.556 227.69 891.106 228.35 891.986 228.35C893.141 228.35 894.021 227.25 894.131 223.785ZM879.281 226.7C881.481 226.7 883.846 224.665 885.276 219.88V213.39C880.821 215.7 876.311 218.34 876.311 222.905C876.311 225.215 877.356 226.7 879.281 226.7ZM897.496 242.87C894.911 242.87 892.931 241.33 892.931 239.075C892.931 237.26 894.141 236.27 895.681 236.27C897.056 236.27 897.771 237.095 898.376 237.92C899.036 238.91 899.531 239.185 900.356 239.185C901.786 239.185 902.941 237.04 903.931 233.245C904.096 232.255 903.931 230.11 903.491 228.02L896.671 206.295C895.571 202.885 894.581 202.17 892.161 202.17V200.85H905.031V202.17C901.401 202.17 901.401 202.885 902.391 206.295L907.011 222.465H907.286L911.851 206.295C912.786 202.885 912.786 202.17 909.211 202.17V200.85H918.286V202.17C916.086 202.17 915.096 202.885 914.106 206.295L907.176 229.67C904.921 237.205 902.666 242.705 897.496 242.87ZM946.309 217.68H947.849C947.849 226.26 946.144 230.88 940.754 230.88C936.464 230.88 934.209 228.295 934.209 220.595V203.105H930.359V201.07C934.374 200.96 936.904 197.99 937.454 192.82H939.434V200.85H946.034V203.105H939.544V219.165C939.544 224.06 940.039 227.305 942.624 227.305C945.099 227.305 946.309 224.225 946.309 217.68ZM962.299 230.88C955.149 230.88 950.474 224.555 950.474 215.535C950.474 206.68 954.819 199.86 962.299 199.86C969.394 199.86 974.124 206.185 974.124 215.205C974.124 224.06 969.724 230.88 962.299 230.88ZM963.124 228.46C967.029 228.46 968.569 223.29 968.569 218.45C968.569 210.97 966.314 202.28 961.474 202.28C957.569 202.28 955.974 207.45 955.974 212.29C955.974 219.77 958.284 228.46 963.124 228.46ZM997.619 185.45V224.335C997.619 227.855 998.114 228.68 1001.47 228.68V230H988.379V228.68C991.734 228.68 992.284 227.855 992.284 224.335V192.545C992.284 189.025 992.284 188.31 988.984 189.96L988.434 188.75L996.794 184.68L997.619 185.45ZM1022.3 218.23H1023.62C1022.46 227.085 1018.72 230.88 1013.55 230.88C1007.34 230.88 1003.43 224.995 1003.43 215.92C1003.43 207.23 1007.28 199.86 1013.83 199.86C1020.26 199.86 1023.29 205.91 1023.29 213.94H1008.77V214.05C1008.77 221.53 1011.08 226.81 1015.64 226.81C1018.12 226.81 1020.98 224.885 1022.3 218.23ZM1013.83 202.17C1010.53 202.17 1009.15 206.185 1008.82 211.685H1018.01C1018.01 206.405 1017.07 202.17 1013.83 202.17ZM1049.62 223.785H1050.89C1050.72 227.965 1049.4 230.88 1045.77 230.88C1042.64 230.88 1040.77 228.79 1040.77 223.675V222.685C1039.5 227.855 1036.59 230.88 1032.63 230.88C1028.72 230.88 1026.52 227.965 1026.52 224.39C1026.52 217.46 1034.5 214.38 1040.77 211.575V208.385C1040.77 203.655 1039.23 202.005 1036.53 202.005C1034.39 202.005 1032.85 203.105 1032.85 204.92C1032.85 206.185 1033.62 206.9 1033.62 208.165C1033.62 209.65 1032.68 210.695 1030.92 210.695C1028.94 210.695 1027.9 209.32 1027.9 207.285C1027.9 203.215 1031.86 199.805 1037.41 199.805C1042.75 199.805 1046.05 202.83 1046.05 208.77V224.995C1046.05 227.69 1046.6 228.35 1047.48 228.35C1048.63 228.35 1049.51 227.25 1049.62 223.785ZM1034.77 226.7C1036.97 226.7 1039.34 224.665 1040.77 219.88V213.39C1036.31 215.7 1031.8 218.34 1031.8 222.905C1031.8 225.215 1032.85 226.7 1034.77 226.7ZM1068.48 199.86C1070.41 199.86 1071.45 200.96 1071.45 202.775C1071.45 204.92 1070.19 206.295 1068.76 206.295C1067.77 206.295 1067.33 205.91 1066.61 205.14C1065.9 204.425 1065.62 204.205 1064.96 204.205C1063.7 204.205 1062.21 206.02 1061.06 209.375V224.005C1061.06 227.745 1061.88 228.625 1066.89 228.625V230H1052.04V228.68C1055.23 228.68 1055.78 227.855 1055.78 224.335V207.395C1055.78 203.71 1055.78 202.94 1052.48 204.315L1051.93 203.05L1056.33 201.29L1060.07 199.75L1061.06 200.575V205.855H1061.22C1062.76 202.94 1065.46 199.86 1068.48 199.86ZM1073.31 230V228.68C1076.5 228.68 1077.05 227.855 1077.05 224.335V207.395C1077.05 203.71 1077.05 202.94 1073.75 204.315L1073.2 203.05L1077.6 201.29L1081.34 199.75L1082.38 200.575V205.635H1082.55C1085.02 202.225 1087.5 199.86 1091.24 199.86C1095.14 199.86 1097.29 202.665 1097.29 207.835V224.335C1097.29 227.855 1097.78 228.68 1100.92 228.68V230H1088.6V228.68C1091.51 228.68 1091.95 227.855 1091.95 224.335V208.165C1091.95 205.14 1090.8 203.71 1088.71 203.71C1086.45 203.71 1084.47 205.25 1082.38 207.945V224.335C1082.38 227.855 1082.82 228.68 1085.74 228.68V230H1073.31ZM1138.03 223.785H1139.3C1139.13 227.965 1137.81 230.88 1134.18 230.88C1131.05 230.88 1129.18 228.79 1129.18 223.675V222.685C1127.91 227.855 1125 230.88 1121.04 230.88C1117.13 230.88 1114.93 227.965 1114.93 224.39C1114.93 217.46 1122.91 214.38 1129.18 211.575V208.385C1129.18 203.655 1127.64 202.005 1124.94 202.005C1122.8 202.005 1121.26 203.105 1121.26 204.92C1121.26 206.185 1122.03 206.9 1122.03 208.165C1122.03 209.65 1121.09 210.695 1119.33 210.695C1117.35 210.695 1116.31 209.32 1116.31 207.285C1116.31 203.215 1120.27 199.805 1125.82 199.805C1131.16 199.805 1134.46 202.83 1134.46 208.77V224.995C1134.46 227.69 1135.01 228.35 1135.89 228.35C1137.04 228.35 1137.92 227.25 1138.03 223.785ZM1123.18 226.7C1125.38 226.7 1127.75 224.665 1129.18 219.88V213.39C1124.72 215.7 1120.21 218.34 1120.21 222.905C1120.21 225.215 1121.26 226.7 1123.18 226.7ZM1140.44 230V228.68C1143.63 228.68 1144.18 227.855 1144.18 224.335V207.395C1144.18 203.71 1144.18 202.94 1140.88 204.315L1140.33 203.05L1144.73 201.29L1148.47 199.75L1149.52 200.575V205.635H1149.68C1152.16 202.225 1154.63 199.86 1158.37 199.86C1162.28 199.86 1164.42 202.665 1164.42 207.835V224.335C1164.42 227.855 1164.92 228.68 1168.05 228.68V230H1155.73V228.68C1158.65 228.68 1159.09 227.855 1159.09 224.335V208.165C1159.09 205.14 1157.93 203.71 1155.84 203.71C1153.59 203.71 1151.61 205.25 1149.52 207.945V224.335C1149.52 227.855 1149.96 228.68 1152.87 228.68V230H1140.44ZM1195.07 226.535L1195.56 227.8L1187.42 230.88L1186.27 229.945V225.435H1186.05C1184.62 228.68 1182.14 230.88 1178.57 230.88C1173.29 230.88 1170.04 224.995 1170.04 216.305C1170.04 206.68 1174 199.86 1180.05 199.86C1182.8 199.86 1185.06 201.015 1186.27 202.94V192.655C1186.27 189.08 1186.32 188.42 1183.02 190.015L1182.47 188.86L1190.89 184.68L1191.6 185.45V223.455C1191.6 227.14 1191.66 227.855 1195.07 226.535ZM1180.88 227.03C1183.3 227.03 1184.89 225.215 1186.27 222.685V212.51C1186.27 207.12 1184.62 202.72 1181.21 202.72C1177.36 202.72 1175.71 208.11 1175.71 214.985C1175.71 221.97 1177.25 227.03 1180.88 227.03ZM449.939 286.88C443.504 286.88 439.764 280.72 439.764 271.92C439.764 262.79 443.779 255.86 450.874 255.86C455.494 255.86 458.629 258.885 458.629 263.01C458.629 265.32 457.584 266.695 455.714 266.695C454.009 266.695 453.129 265.54 453.129 264.165C453.129 263.23 453.514 262.13 453.514 260.975C453.514 259.105 452.469 258.17 450.819 258.17C446.859 258.17 445.209 263.615 445.209 269.83C445.209 276.98 447.409 282.7 451.919 282.7C454.394 282.7 457.199 280.83 458.189 273.9H459.509C458.904 283.03 454.889 286.88 449.939 286.88ZM473.933 286.88C466.783 286.88 462.108 280.555 462.108 271.535C462.108 262.68 466.453 255.86 473.933 255.86C481.028 255.86 485.758 262.185 485.758 271.205C485.758 280.06 481.358 286.88 473.933 286.88ZM474.758 284.46C478.663 284.46 480.203 279.29 480.203 274.45C480.203 266.97 477.948 258.28 473.108 258.28C469.203 258.28 467.608 263.45 467.608 268.29C467.608 275.77 469.918 284.46 474.758 284.46ZM496.899 241.45V280.335C496.899 283.855 497.394 284.68 500.749 284.68V286H487.659V284.68C491.014 284.68 491.564 283.855 491.564 280.335V248.545C491.564 245.025 491.564 244.31 488.264 245.96L487.714 244.75L496.074 240.68L496.899 241.45ZM512.045 241.45V280.335C512.045 283.855 512.54 284.68 515.895 284.68V286H502.805V284.68C506.16 284.68 506.71 283.855 506.71 280.335V248.545C506.71 245.025 506.71 244.31 503.41 245.96L502.86 244.75L511.22 240.68L512.045 241.45ZM540.954 279.785H542.219C542.054 283.965 540.734 286.88 537.104 286.88C533.969 286.88 532.099 284.79 532.099 279.675V278.685C530.834 283.855 527.919 286.88 523.959 286.88C520.054 286.88 517.854 283.965 517.854 280.39C517.854 273.46 525.829 270.38 532.099 267.575V264.385C532.099 259.655 530.559 258.005 527.864 258.005C525.719 258.005 524.179 259.105 524.179 260.92C524.179 262.185 524.949 262.9 524.949 264.165C524.949 265.65 524.014 266.695 522.254 266.695C520.274 266.695 519.229 265.32 519.229 263.285C519.229 259.215 523.189 255.805 528.744 255.805C534.079 255.805 537.379 258.83 537.379 264.77V280.995C537.379 283.69 537.929 284.35 538.809 284.35C539.964 284.35 540.844 283.25 540.954 279.785ZM526.104 282.7C528.304 282.7 530.669 280.665 532.099 275.88V269.39C527.644 271.7 523.134 274.34 523.134 278.905C523.134 281.215 524.179 282.7 526.104 282.7ZM545.258 283.14V248.71C545.258 245.135 545.368 244.42 542.178 246.015L541.573 244.86L545.808 242.77L549.878 240.68L550.648 241.45V261.03H550.868C552.903 257.95 555.488 255.86 558.898 255.86C563.793 255.86 567.038 261.03 567.038 270.105C567.038 280.39 562.913 286.825 555.323 286.825C552.188 286.825 548.228 285.725 545.258 283.14ZM550.648 263.725V281.435C551.528 282.81 553.178 284.295 555.323 284.295C559.173 284.295 561.263 279.4 561.263 271.04C561.263 263.285 559.228 259.655 556.093 259.655C553.893 259.655 552.023 261.47 550.648 263.725ZM582.536 286.88C575.386 286.88 570.711 280.555 570.711 271.535C570.711 262.68 575.056 255.86 582.536 255.86C589.631 255.86 594.361 262.185 594.361 271.205C594.361 280.06 589.961 286.88 582.536 286.88ZM583.361 284.46C587.266 284.46 588.806 279.29 588.806 274.45C588.806 266.97 586.551 258.28 581.711 258.28C577.806 258.28 576.211 263.45 576.211 268.29C576.211 275.77 578.521 284.46 583.361 284.46ZM613.308 255.86C615.233 255.86 616.278 256.96 616.278 258.775C616.278 260.92 615.013 262.295 613.583 262.295C612.593 262.295 612.153 261.91 611.438 261.14C610.723 260.425 610.448 260.205 609.788 260.205C608.523 260.205 607.038 262.02 605.883 265.375V280.005C605.883 283.745 606.708 284.625 611.713 284.625V286H596.863V284.68C600.053 284.68 600.603 283.855 600.603 280.335V263.395C600.603 259.71 600.603 258.94 597.303 260.315L596.753 259.05L601.153 257.29L604.893 255.75L605.883 256.575V261.855H606.048C607.588 258.94 610.283 255.86 613.308 255.86ZM640.427 279.785H641.692C641.527 283.965 640.207 286.88 636.577 286.88C633.442 286.88 631.572 284.79 631.572 279.675V278.685C630.307 283.855 627.392 286.88 623.432 286.88C619.527 286.88 617.327 283.965 617.327 280.39C617.327 273.46 625.302 270.38 631.572 267.575V264.385C631.572 259.655 630.032 258.005 627.337 258.005C625.192 258.005 623.652 259.105 623.652 260.92C623.652 262.185 624.422 262.9 624.422 264.165C624.422 265.65 623.487 266.695 621.727 266.695C619.747 266.695 618.702 265.32 618.702 263.285C618.702 259.215 622.662 255.805 628.217 255.805C633.552 255.805 636.852 258.83 636.852 264.77V280.995C636.852 283.69 637.402 284.35 638.282 284.35C639.437 284.35 640.317 283.25 640.427 279.785ZM625.577 282.7C627.777 282.7 630.142 280.665 631.572 275.88V269.39C627.117 271.7 622.607 274.34 622.607 278.905C622.607 281.215 623.652 282.7 625.577 282.7ZM657.157 273.68H658.697C658.697 282.26 656.992 286.88 651.602 286.88C647.312 286.88 645.057 284.295 645.057 276.595V259.105H641.207V257.07C645.222 256.96 647.752 253.99 648.302 248.82H650.282V256.85H656.882V259.105H650.392V275.165C650.392 280.06 650.887 283.305 653.472 283.305C655.947 283.305 657.157 280.225 657.157 273.68ZM680.187 274.23H681.507C680.352 283.085 676.612 286.88 671.442 286.88C665.227 286.88 661.322 280.995 661.322 271.92C661.322 263.23 665.172 255.86 671.717 255.86C678.152 255.86 681.177 261.91 681.177 269.94H666.657V270.05C666.657 277.53 668.967 282.81 673.532 282.81C676.007 282.81 678.867 280.885 680.187 274.23ZM671.717 258.17C668.417 258.17 667.042 262.185 666.712 267.685H675.897C675.897 262.405 674.962 258.17 671.717 258.17ZM734.287 256.85V258.17C731.977 258.17 730.987 258.885 730.052 262.295L723.067 286.495H719.767L714.982 267.795L709.922 286.495H706.457L699.252 262.295C698.207 258.885 697.217 258.17 694.907 258.17V256.85H706.457V258.17C703.817 258.17 703.982 258.885 704.972 262.295L709.647 278.575H709.867L713.882 263.56L713.552 262.35C712.672 258.885 711.847 258.17 709.867 258.17V256.85H721.362V258.17C718.392 258.17 718.392 258.94 719.162 262.405L722.902 278.575H723.122L727.742 262.295C728.732 258.885 728.787 258.17 725.267 258.17V256.85H734.287ZM740.843 250.47C738.753 250.47 737.268 249.04 737.268 247.115C737.268 245.135 738.753 243.705 740.843 243.705C742.878 243.705 744.363 245.135 744.363 247.115C744.363 249.04 742.878 250.47 740.843 250.47ZM743.923 256.575V280.335C743.923 283.855 744.473 284.68 747.828 284.68V286H734.738V284.68C738.093 284.68 738.643 283.855 738.643 280.335V263.395C738.643 259.71 738.588 258.94 735.398 260.26L734.903 258.995L742.988 255.75L743.923 256.575ZM765.223 273.68H766.763C766.763 282.26 765.058 286.88 759.668 286.88C755.378 286.88 753.123 284.295 753.123 276.595V259.105H749.273V257.07C753.288 256.96 755.818 253.99 756.368 248.82H758.348V256.85H764.948V259.105H758.458V275.165C758.458 280.06 758.953 283.305 761.538 283.305C764.013 283.305 765.223 280.225 765.223 273.68ZM777.321 263.945V280.335C777.321 283.855 777.816 284.68 780.731 284.68V286H768.301V284.68C771.491 284.68 772.041 283.855 772.041 280.335L771.986 248.71C771.986 245.19 772.096 244.475 768.796 246.18L768.246 245.025L772.536 242.77L776.606 240.68L777.321 241.45V261.635H777.486C779.961 258.225 782.491 255.86 786.231 255.86C790.136 255.86 792.226 258.665 792.226 263.835V280.335C792.226 283.855 792.721 284.68 795.911 284.68V286H783.591V284.68C786.451 284.68 786.946 283.855 786.946 280.335V264.11C786.946 261.085 785.736 259.71 783.701 259.71C781.391 259.71 779.411 261.25 777.321 263.945ZM826.105 255.86C831.66 255.86 834.3 261.855 834.3 270.325C834.3 279.345 830.835 286.66 824.84 286.66C822.255 286.66 819.725 285.34 818.24 282.7H818.13V292.435C818.13 296.01 818.68 296.78 822.035 296.78V298.1H808.945V296.78C812.3 296.78 812.795 296.01 812.795 292.435V263.395C812.795 259.71 812.795 258.94 809.495 260.26L809 258.995L817.25 255.75L818.13 256.575V261.415H818.35C820.495 257.895 823.025 255.86 826.105 255.86ZM823.465 284.02C827.205 284.02 828.525 277.86 828.525 271.15C828.525 263.78 827.04 259.655 823.85 259.655C821.595 259.655 819.56 261.635 818.13 264.055V274.065C818.13 280.225 820.55 284.02 823.465 284.02ZM857.003 274.23H858.323C857.168 283.085 853.428 286.88 848.258 286.88C842.043 286.88 838.138 280.995 838.138 271.92C838.138 263.23 841.988 255.86 848.533 255.86C854.968 255.86 857.993 261.91 857.993 269.94H843.473V270.05C843.473 277.53 845.783 282.81 850.348 282.81C852.823 282.81 855.683 280.885 857.003 274.23ZM848.533 258.17C845.233 258.17 843.858 262.185 843.528 267.685H852.713C852.713 262.405 851.778 258.17 848.533 258.17ZM873.918 286.88C866.768 286.88 862.093 280.555 862.093 271.535C862.093 262.68 866.438 255.86 873.918 255.86C881.013 255.86 885.743 262.185 885.743 271.205C885.743 280.06 881.343 286.88 873.918 286.88ZM874.743 284.46C878.648 284.46 880.188 279.29 880.188 274.45C880.188 266.97 877.933 258.28 873.093 258.28C869.188 258.28 867.593 263.45 867.593 268.29C867.593 275.77 869.903 284.46 874.743 284.46ZM904.361 255.86C909.916 255.86 912.556 261.855 912.556 270.325C912.556 279.345 909.091 286.66 903.096 286.66C900.511 286.66 897.981 285.34 896.496 282.7H896.386V292.435C896.386 296.01 896.936 296.78 900.291 296.78V298.1H887.201V296.78C890.556 296.78 891.051 296.01 891.051 292.435V263.395C891.051 259.71 891.051 258.94 887.751 260.26L887.256 258.995L895.506 255.75L896.386 256.575V261.415H896.606C898.751 257.895 901.281 255.86 904.361 255.86ZM901.721 284.02C905.461 284.02 906.781 277.86 906.781 271.15C906.781 263.78 905.296 259.655 902.106 259.655C899.851 259.655 897.816 261.635 896.386 264.055V274.065C896.386 280.225 898.806 284.02 901.721 284.02ZM923.847 241.45V280.335C923.847 283.855 924.342 284.68 927.697 284.68V286H914.607V284.68C917.962 284.68 918.512 283.855 918.512 280.335V248.545C918.512 245.025 918.512 244.31 915.212 245.96L914.662 244.75L923.022 240.68L923.847 241.45ZM948.526 274.23H949.846C948.691 283.085 944.951 286.88 939.781 286.88C933.566 286.88 929.661 280.995 929.661 271.92C929.661 263.23 933.511 255.86 940.056 255.86C946.491 255.86 949.516 261.91 949.516 269.94H934.996V270.05C934.996 277.53 937.306 282.81 941.871 282.81C944.346 282.81 947.206 280.885 948.526 274.23ZM940.056 258.17C936.756 258.17 935.381 262.185 935.051 267.685H944.236C944.236 262.405 943.301 258.17 940.056 258.17ZM955.434 286.88C953.619 286.88 952.189 285.45 952.189 283.635C952.189 281.875 953.619 280.39 955.434 280.39C957.194 280.39 958.679 281.875 958.679 283.635C958.679 285.45 957.194 286.88 955.434 286.88ZM966.752 247.06C965.047 247.06 963.947 245.685 963.947 244.035C963.947 242.165 965.322 240.625 967.687 240.625C970.052 240.625 971.922 242.55 971.922 245.52C971.922 248.6 969.942 251.625 965.047 253.11V251.68C968.127 250.855 969.832 248.93 969.832 247.17C969.832 246.51 969.557 246.125 969.172 246.125C968.567 246.125 968.237 247.06 966.752 247.06ZM977.312 247.06C975.607 247.06 974.507 245.685 974.507 244.035C974.507 242.165 975.882 240.625 978.247 240.625C980.612 240.625 982.482 242.55 982.482 245.52C982.482 248.6 980.557 251.625 975.607 253.11V251.68C978.742 250.855 980.392 248.93 980.392 247.17C980.392 246.51 980.117 246.125 979.732 246.125C979.127 246.125 978.797 247.06 977.312 247.06Z" fill="#ADADAD"/>
<path d="M577.072 143.42C579.969 143.42 582.187 144.703 583.727 147.27C585.304 149.837 586.092 153.412 586.092 157.995C586.092 161.295 585.615 164.21 584.662 166.74C583.709 169.233 582.425 171.177 580.812 172.57C579.199 173.927 577.402 174.605 575.422 174.605C574.029 174.605 572.69 174.293 571.407 173.67C570.124 173.01 569.115 172.075 568.382 170.865H568.272V179.83C568.272 181.113 568.382 182.085 568.602 182.745C568.859 183.442 569.28 183.918 569.867 184.175C570.454 184.468 571.352 184.615 572.562 184.615V186.1H555.292V184.615C556.502 184.615 557.4 184.468 557.987 184.175C558.574 183.918 558.977 183.442 559.197 182.745C559.454 182.085 559.582 181.113 559.582 179.83V152.88C559.582 151.267 559.49 150.167 559.307 149.58C559.16 148.993 558.794 148.7 558.207 148.7C557.657 148.7 556.942 148.883 556.062 149.25L555.457 147.765L560.077 145.895L567.007 143.2L568.272 144.3V149.195H568.492C569.702 147.398 571.004 145.987 572.397 144.96C573.79 143.933 575.349 143.42 577.072 143.42ZM572.672 170.975C575.349 170.975 576.687 167.07 576.687 159.26C576.687 155.557 576.375 152.898 575.752 151.285C575.129 149.672 574.175 148.865 572.892 148.865C571.205 148.865 569.665 150.075 568.272 152.495V162.01C568.272 164.943 568.694 167.18 569.537 168.72C570.38 170.223 571.425 170.975 572.672 170.975ZM609.145 143.475C610.319 143.475 611.217 143.823 611.84 144.52C612.464 145.217 612.775 146.225 612.775 147.545C612.775 149.048 612.427 150.277 611.73 151.23C611.034 152.183 610.135 152.66 609.035 152.66C608.412 152.66 607.899 152.55 607.495 152.33C607.129 152.073 606.689 151.652 606.175 151.065C605.699 150.552 605.314 150.222 605.02 150.075C604.764 149.892 604.489 149.8 604.195 149.8C603.499 149.8 602.82 150.258 602.16 151.175C601.5 152.092 601.005 153.247 600.675 154.64V167.015C600.675 168.445 600.84 169.545 601.17 170.315C601.537 171.048 602.16 171.562 603.04 171.855C603.957 172.148 605.314 172.295 607.11 172.295V174H588.025V172.46C589.125 172.46 589.95 172.332 590.5 172.075C591.05 171.782 591.435 171.305 591.655 170.645C591.875 169.985 591.985 168.995 591.985 167.675V152.88C591.985 151.267 591.912 150.167 591.765 149.58C591.619 148.993 591.252 148.7 590.665 148.7C590.225 148.7 589.51 148.902 588.52 149.305L587.915 147.765L599.19 143.2L600.675 144.3V150.24H600.84C601.83 148.48 603.059 146.922 604.525 145.565C605.992 144.172 607.532 143.475 609.145 143.475ZM627.833 174.88C624.936 174.88 622.424 174.257 620.298 173.01C618.171 171.727 616.539 169.93 615.403 167.62C614.266 165.273 613.698 162.505 613.698 159.315C613.698 156.198 614.266 153.448 615.403 151.065C616.539 148.645 618.171 146.775 620.298 145.455C622.424 144.098 624.936 143.42 627.833 143.42C630.693 143.42 633.186 144.062 635.313 145.345C637.439 146.592 639.071 148.388 640.208 150.735C641.344 153.082 641.913 155.832 641.913 158.985C641.913 162.102 641.344 164.87 640.208 167.29C639.071 169.673 637.439 171.543 635.313 172.9C633.223 174.22 630.729 174.88 627.833 174.88ZM628.768 171.635C630.161 171.635 631.188 170.847 631.848 169.27C632.508 167.657 632.838 165.75 632.838 163.55C632.838 160.873 632.618 158.252 632.178 155.685C631.738 153.082 631.059 150.937 630.143 149.25C629.263 147.527 628.163 146.665 626.843 146.665C625.449 146.665 624.423 147.472 623.763 149.085C623.103 150.662 622.773 152.55 622.773 154.75C622.773 157.427 622.993 160.067 623.433 162.67C623.873 165.237 624.533 167.382 625.413 169.105C626.329 170.792 627.448 171.635 628.768 171.635ZM652.577 139.735C651.111 139.735 649.919 139.313 649.002 138.47C648.122 137.627 647.682 136.545 647.682 135.225C647.682 133.868 648.122 132.768 649.002 131.925C649.919 131.082 651.111 130.66 652.577 130.66C654.007 130.66 655.162 131.082 656.042 131.925C656.959 132.768 657.417 133.868 657.417 135.225C657.417 136.545 656.959 137.627 656.042 138.47C655.162 139.313 654.007 139.735 652.577 139.735ZM646.912 186.98C644.089 186.98 641.797 186.485 640.037 185.495C638.277 184.542 637.397 183.222 637.397 181.535C637.397 180.472 637.746 179.647 638.442 179.06C639.102 178.473 640.037 178.18 641.247 178.18C642.384 178.18 643.264 178.437 643.887 178.95C644.511 179.5 644.969 180.417 645.262 181.7C645.519 182.653 645.757 183.313 645.977 183.68C646.234 184.083 646.564 184.285 646.967 184.285C647.591 184.285 647.994 183.827 648.177 182.91C648.397 181.993 648.507 180.307 648.507 177.85V152.935C648.507 151.285 648.434 150.185 648.287 149.635C648.141 149.048 647.774 148.755 647.187 148.755C646.747 148.755 646.014 148.957 644.987 149.36L644.327 147.875L655.822 143.2L657.252 144.3V175.265C657.252 179.262 656.262 182.213 654.282 184.12C652.302 186.027 649.846 186.98 646.912 186.98ZM685.69 161.955C684.957 166.392 683.6 169.655 681.62 171.745C679.64 173.835 677.037 174.88 673.81 174.88C671.464 174.88 669.392 174.293 667.595 173.12C665.799 171.947 664.405 170.223 663.415 167.95C662.425 165.677 661.93 162.945 661.93 159.755C661.93 156.858 662.425 154.182 663.415 151.725C664.405 149.232 665.835 147.233 667.705 145.73C669.575 144.227 671.757 143.475 674.25 143.475C678.064 143.475 680.887 144.832 682.72 147.545C684.554 150.258 685.47 153.76 685.47 158.05H670.565C670.785 165.31 673.114 168.94 677.55 168.94C678.907 168.94 680.19 168.39 681.4 167.29C682.61 166.153 683.527 164.375 684.15 161.955H685.69ZM674.085 146.335C672.765 146.335 671.867 147.032 671.39 148.425C670.914 149.818 670.639 152.055 670.565 155.135H677.055C677.055 152.018 676.854 149.782 676.45 148.425C676.084 147.032 675.295 146.335 674.085 146.335ZM700.99 174.88C698.534 174.88 696.407 174.275 694.61 173.065C692.814 171.818 691.42 170.058 690.43 167.785C689.477 165.512 689 162.872 689 159.865C689 156.712 689.532 153.907 690.595 151.45C691.695 148.957 693.235 147.013 695.215 145.62C697.232 144.19 699.579 143.475 702.255 143.475C704.969 143.475 707.187 144.172 708.91 145.565C710.67 146.958 711.55 148.81 711.55 151.12C711.55 152.55 711.202 153.687 710.505 154.53C709.845 155.337 708.874 155.74 707.59 155.74C706.454 155.74 705.537 155.41 704.84 154.75C704.18 154.09 703.85 153.247 703.85 152.22C703.85 151.853 703.924 151.303 704.07 150.57C704.217 149.837 704.29 149.268 704.29 148.865C704.29 148.058 704.089 147.453 703.685 147.05C703.282 146.61 702.769 146.39 702.145 146.39C700.715 146.39 699.634 147.27 698.9 149.03C698.204 150.79 697.855 153.247 697.855 156.4C697.855 160.177 698.387 163.183 699.45 165.42C700.55 167.657 702.255 168.775 704.565 168.775C707.865 168.775 709.974 166.3 710.89 161.35H712.375C712.045 165.897 710.872 169.288 708.855 171.525C706.839 173.762 704.217 174.88 700.99 174.88ZM734.307 160.8C734.307 165.603 733.628 169.16 732.272 171.47C730.915 173.743 728.66 174.88 725.507 174.88C722.867 174.88 720.868 174.037 719.512 172.35C718.192 170.663 717.532 167.84 717.532 163.88V147.38H713.902V144.685C716.138 144.575 718.118 143.805 719.842 142.375C721.565 140.908 722.683 138.818 723.197 136.105H726.057V144.52H732.547V147.38H726.277V163.165C726.277 165.365 726.497 167.033 726.937 168.17C727.377 169.27 728.092 169.82 729.082 169.82C731.245 169.82 732.327 166.813 732.327 160.8H734.307ZM747.266 174.88C744.736 174.88 742.426 174.165 740.336 172.735C740.043 172.552 739.804 172.46 739.621 172.46C739.328 172.46 739.071 172.662 738.851 173.065L738.356 174.275H736.871L736.376 161.79H737.861C738.301 164.833 739.273 167.29 740.776 169.16C742.316 170.993 744.149 171.91 746.276 171.91C747.413 171.91 748.274 171.598 748.861 170.975C749.484 170.352 749.796 169.453 749.796 168.28C749.796 167.583 749.631 166.978 749.301 166.465C749.008 165.952 748.458 165.383 747.651 164.76C746.881 164.1 745.524 163.073 743.581 161.68C741.051 159.92 739.273 158.343 738.246 156.95C737.256 155.52 736.761 153.943 736.761 152.22C736.761 150.423 737.164 148.865 737.971 147.545C738.814 146.225 739.933 145.217 741.326 144.52C742.756 143.823 744.314 143.475 746.001 143.475C748.274 143.475 750.218 144.135 751.831 145.455C752.088 145.675 752.344 145.785 752.601 145.785C753.004 145.785 753.279 145.565 753.426 145.125L753.921 143.86H755.406L755.846 153.98H754.361C753.848 151.817 752.913 150.002 751.556 148.535C750.199 147.068 748.641 146.335 746.881 146.335C745.928 146.335 745.176 146.61 744.626 147.16C744.076 147.71 743.801 148.425 743.801 149.305C743.801 149.928 743.948 150.497 744.241 151.01C744.571 151.487 745.066 152.018 745.726 152.605C746.423 153.155 747.559 153.98 749.136 155.08C751.043 156.437 752.528 157.628 753.591 158.655C754.654 159.645 755.461 160.727 756.011 161.9C756.598 163.037 756.891 164.375 756.891 165.915C756.891 168.848 755.974 171.085 754.141 172.625C752.308 174.128 750.016 174.88 747.266 174.88ZM835.911 162.065H769.911V156.18H835.911V162.065ZM881.774 143.42C884.671 143.42 886.889 144.703 888.429 147.27C890.006 149.837 890.794 153.412 890.794 157.995C890.794 161.295 890.318 164.21 889.364 166.74C888.411 169.233 887.128 171.177 885.514 172.57C883.901 173.927 882.104 174.605 880.124 174.605C878.731 174.605 877.393 174.293 876.109 173.67C874.826 173.01 873.818 172.075 873.084 170.865H872.974V179.83C872.974 181.113 873.084 182.085 873.304 182.745C873.561 183.442 873.983 183.918 874.569 184.175C875.156 184.468 876.054 184.615 877.264 184.615V186.1H859.994V184.615C861.204 184.615 862.103 184.468 862.689 184.175C863.276 183.918 863.679 183.442 863.899 182.745C864.156 182.085 864.284 181.113 864.284 179.83V152.88C864.284 151.267 864.193 150.167 864.009 149.58C863.863 148.993 863.496 148.7 862.909 148.7C862.359 148.7 861.644 148.883 860.764 149.25L860.159 147.765L864.779 145.895L871.709 143.2L872.974 144.3V149.195H873.194C874.404 147.398 875.706 145.987 877.099 144.96C878.493 143.933 880.051 143.42 881.774 143.42ZM877.374 170.975C880.051 170.975 881.389 167.07 881.389 159.26C881.389 155.557 881.078 152.898 880.454 151.285C879.831 149.672 878.878 148.865 877.594 148.865C875.908 148.865 874.368 150.075 872.974 152.495V162.01C872.974 164.943 873.396 167.18 874.239 168.72C875.083 170.223 876.128 170.975 877.374 170.975ZM913.847 143.475C915.021 143.475 915.919 143.823 916.542 144.52C917.166 145.217 917.477 146.225 917.477 147.545C917.477 149.048 917.129 150.277 916.432 151.23C915.736 152.183 914.837 152.66 913.737 152.66C913.114 152.66 912.601 152.55 912.197 152.33C911.831 152.073 911.391 151.652 910.877 151.065C910.401 150.552 910.016 150.222 909.722 150.075C909.466 149.892 909.191 149.8 908.897 149.8C908.201 149.8 907.522 150.258 906.862 151.175C906.202 152.092 905.707 153.247 905.377 154.64V167.015C905.377 168.445 905.542 169.545 905.872 170.315C906.239 171.048 906.862 171.562 907.742 171.855C908.659 172.148 910.016 172.295 911.812 172.295V174H892.727V172.46C893.827 172.46 894.652 172.332 895.202 172.075C895.752 171.782 896.137 171.305 896.357 170.645C896.577 169.985 896.687 168.995 896.687 167.675V152.88C896.687 151.267 896.614 150.167 896.467 149.58C896.321 148.993 895.954 148.7 895.367 148.7C894.927 148.7 894.212 148.902 893.222 149.305L892.617 147.765L903.892 143.2L905.377 144.3V150.24H905.542C906.532 148.48 907.761 146.922 909.227 145.565C910.694 144.172 912.234 143.475 913.847 143.475ZM932.535 174.88C929.638 174.88 927.127 174.257 925 173.01C922.873 171.727 921.242 169.93 920.105 167.62C918.968 165.273 918.4 162.505 918.4 159.315C918.4 156.198 918.968 153.448 920.105 151.065C921.242 148.645 922.873 146.775 925 145.455C927.127 144.098 929.638 143.42 932.535 143.42C935.395 143.42 937.888 144.062 940.015 145.345C942.142 146.592 943.773 148.388 944.91 150.735C946.047 153.082 946.615 155.832 946.615 158.985C946.615 162.102 946.047 164.87 944.91 167.29C943.773 169.673 942.142 171.543 940.015 172.9C937.925 174.22 935.432 174.88 932.535 174.88ZM933.47 171.635C934.863 171.635 935.89 170.847 936.55 169.27C937.21 167.657 937.54 165.75 937.54 163.55C937.54 160.873 937.32 158.252 936.88 155.685C936.44 153.082 935.762 150.937 934.845 149.25C933.965 147.527 932.865 146.665 931.545 146.665C930.152 146.665 929.125 147.472 928.465 149.085C927.805 150.662 927.475 152.55 927.475 154.75C927.475 157.427 927.695 160.067 928.135 162.67C928.575 165.237 929.235 167.382 930.115 169.105C931.032 170.792 932.15 171.635 933.47 171.635ZM957.279 139.735C955.813 139.735 954.621 139.313 953.704 138.47C952.824 137.627 952.384 136.545 952.384 135.225C952.384 133.868 952.824 132.768 953.704 131.925C954.621 131.082 955.813 130.66 957.279 130.66C958.709 130.66 959.864 131.082 960.744 131.925C961.661 132.768 962.119 133.868 962.119 135.225C962.119 136.545 961.661 137.627 960.744 138.47C959.864 139.313 958.709 139.735 957.279 139.735ZM951.614 186.98C948.791 186.98 946.499 186.485 944.739 185.495C942.979 184.542 942.099 183.222 942.099 181.535C942.099 180.472 942.448 179.647 943.144 179.06C943.804 178.473 944.739 178.18 945.949 178.18C947.086 178.18 947.966 178.437 948.589 178.95C949.213 179.5 949.671 180.417 949.964 181.7C950.221 182.653 950.459 183.313 950.679 183.68C950.936 184.083 951.266 184.285 951.669 184.285C952.293 184.285 952.696 183.827 952.879 182.91C953.099 181.993 953.209 180.307 953.209 177.85V152.935C953.209 151.285 953.136 150.185 952.989 149.635C952.843 149.048 952.476 148.755 951.889 148.755C951.449 148.755 950.716 148.957 949.689 149.36L949.029 147.875L960.524 143.2L961.954 144.3V175.265C961.954 179.262 960.964 182.213 958.984 184.12C957.004 186.027 954.548 186.98 951.614 186.98ZM990.392 161.955C989.659 166.392 988.302 169.655 986.322 171.745C984.342 173.835 981.739 174.88 978.512 174.88C976.166 174.88 974.094 174.293 972.297 173.12C970.501 171.947 969.107 170.223 968.117 167.95C967.127 165.677 966.632 162.945 966.632 159.755C966.632 156.858 967.127 154.182 968.117 151.725C969.107 149.232 970.537 147.233 972.407 145.73C974.277 144.227 976.459 143.475 978.952 143.475C982.766 143.475 985.589 144.832 987.422 147.545C989.256 150.258 990.172 153.76 990.172 158.05H975.267C975.487 165.31 977.816 168.94 982.252 168.94C983.609 168.94 984.892 168.39 986.102 167.29C987.312 166.153 988.229 164.375 988.852 161.955H990.392ZM978.787 146.335C977.467 146.335 976.569 147.032 976.092 148.425C975.616 149.818 975.341 152.055 975.267 155.135H981.757C981.757 152.018 981.556 149.782 981.152 148.425C980.786 147.032 979.997 146.335 978.787 146.335ZM1005.69 174.88C1003.24 174.88 1001.11 174.275 999.313 173.065C997.516 171.818 996.123 170.058 995.133 167.785C994.179 165.512 993.703 162.872 993.703 159.865C993.703 156.712 994.234 153.907 995.298 151.45C996.398 148.957 997.938 147.013 999.918 145.62C1001.93 144.19 1004.28 143.475 1006.96 143.475C1009.67 143.475 1011.89 144.172 1013.61 145.565C1015.37 146.958 1016.25 148.81 1016.25 151.12C1016.25 152.55 1015.9 153.687 1015.21 154.53C1014.55 155.337 1013.58 155.74 1012.29 155.74C1011.16 155.74 1010.24 155.41 1009.54 154.75C1008.88 154.09 1008.55 153.247 1008.55 152.22C1008.55 151.853 1008.63 151.303 1008.77 150.57C1008.92 149.837 1008.99 149.268 1008.99 148.865C1008.99 148.058 1008.79 147.453 1008.39 147.05C1007.98 146.61 1007.47 146.39 1006.85 146.39C1005.42 146.39 1004.34 147.27 1003.6 149.03C1002.91 150.79 1002.56 153.247 1002.56 156.4C1002.56 160.177 1003.09 163.183 1004.15 165.42C1005.25 167.657 1006.96 168.775 1009.27 168.775C1012.57 168.775 1014.68 166.3 1015.59 161.35H1017.08C1016.75 165.897 1015.57 169.288 1013.56 171.525C1011.54 173.762 1008.92 174.88 1005.69 174.88ZM1039.01 160.8C1039.01 165.603 1038.33 169.16 1036.97 171.47C1035.62 173.743 1033.36 174.88 1030.21 174.88C1027.57 174.88 1025.57 174.037 1024.21 172.35C1022.89 170.663 1022.23 167.84 1022.23 163.88V147.38H1018.6V144.685C1020.84 144.575 1022.82 143.805 1024.54 142.375C1026.27 140.908 1027.39 138.818 1027.9 136.105H1030.76V144.52H1037.25V147.38H1030.98V163.165C1030.98 165.365 1031.2 167.033 1031.64 168.17C1032.08 169.27 1032.79 169.82 1033.78 169.82C1035.95 169.82 1037.03 166.813 1037.03 160.8H1039.01ZM1051.97 174.88C1049.44 174.88 1047.13 174.165 1045.04 172.735C1044.74 172.552 1044.51 172.46 1044.32 172.46C1044.03 172.46 1043.77 172.662 1043.55 173.065L1043.06 174.275H1041.57L1041.08 161.79H1042.56C1043 164.833 1043.97 167.29 1045.48 169.16C1047.02 170.993 1048.85 171.91 1050.98 171.91C1052.11 171.91 1052.98 171.598 1053.56 170.975C1054.19 170.352 1054.5 169.453 1054.5 168.28C1054.5 167.583 1054.33 166.978 1054 166.465C1053.71 165.952 1053.16 165.383 1052.35 164.76C1051.58 164.1 1050.23 163.073 1048.28 161.68C1045.75 159.92 1043.97 158.343 1042.95 156.95C1041.96 155.52 1041.46 153.943 1041.46 152.22C1041.46 150.423 1041.87 148.865 1042.67 147.545C1043.52 146.225 1044.63 145.217 1046.03 144.52C1047.46 143.823 1049.02 143.475 1050.7 143.475C1052.98 143.475 1054.92 144.135 1056.53 145.455C1056.79 145.675 1057.05 145.785 1057.3 145.785C1057.71 145.785 1057.98 145.565 1058.13 145.125L1058.62 143.86H1060.11L1060.55 153.98H1059.06C1058.55 151.817 1057.61 150.002 1056.26 148.535C1054.9 147.068 1053.34 146.335 1051.58 146.335C1050.63 146.335 1049.88 146.61 1049.33 147.16C1048.78 147.71 1048.5 148.425 1048.5 149.305C1048.5 149.928 1048.65 150.497 1048.94 151.01C1049.27 151.487 1049.77 152.018 1050.43 152.605C1051.12 153.155 1052.26 153.98 1053.84 155.08C1055.74 156.437 1057.23 157.628 1058.29 158.655C1059.36 159.645 1060.16 160.727 1060.71 161.9C1061.3 163.037 1061.59 164.375 1061.59 165.915C1061.59 168.848 1060.68 171.085 1058.84 172.625C1057.01 174.128 1054.72 174.88 1051.97 174.88ZM1104.7 167.235C1104.48 169.765 1103.82 171.672 1102.72 172.955C1101.65 174.202 1100 174.825 1097.77 174.825C1095.68 174.825 1094.06 174.22 1092.93 173.01C1091.83 171.763 1091.22 169.71 1091.11 166.85H1091.06C1090.69 169.233 1089.76 171.177 1088.25 172.68C1086.79 174.147 1084.9 174.88 1082.59 174.88C1080.5 174.88 1078.83 174.257 1077.58 173.01C1076.34 171.727 1075.71 170.113 1075.71 168.17C1075.71 166.19 1076.35 164.485 1077.64 163.055C1078.92 161.588 1080.46 160.397 1082.26 159.48C1084.05 158.527 1086.4 157.463 1089.3 156.29L1091.11 155.575V152.33C1091.11 150.057 1090.84 148.462 1090.29 147.545C1089.74 146.592 1088.86 146.115 1087.65 146.115C1086.73 146.115 1086 146.353 1085.45 146.83C1084.93 147.27 1084.68 147.857 1084.68 148.59C1084.68 148.957 1084.79 149.507 1085.01 150.24C1085.04 150.35 1085.12 150.607 1085.23 151.01C1085.34 151.377 1085.39 151.78 1085.39 152.22C1085.39 153.283 1085.04 154.145 1084.35 154.805C1083.69 155.428 1082.73 155.74 1081.49 155.74C1080.17 155.74 1079.14 155.373 1078.41 154.64C1077.71 153.907 1077.36 152.935 1077.36 151.725C1077.36 150.258 1077.84 148.902 1078.79 147.655C1079.78 146.372 1081.16 145.345 1082.92 144.575C1084.71 143.805 1086.75 143.42 1089.02 143.42C1092.51 143.42 1095.16 144.3 1097 146.06C1098.87 147.82 1099.8 150.258 1099.8 153.375V168.61C1099.8 169.673 1099.89 170.425 1100.08 170.865C1100.26 171.268 1100.55 171.47 1100.96 171.47C1102.28 171.47 1103.01 170.058 1103.16 167.235H1104.7ZM1086.55 168.665C1087.43 168.665 1088.29 168.28 1089.13 167.51C1089.98 166.703 1090.64 165.567 1091.11 164.1V157.665C1089.06 158.692 1087.39 159.883 1086.11 161.24C1084.82 162.56 1084.18 164.045 1084.18 165.695C1084.18 166.648 1084.4 167.382 1084.84 167.895C1085.28 168.408 1085.85 168.665 1086.55 168.665ZM1105.42 172.46C1106.52 172.46 1107.35 172.332 1107.9 172.075C1108.45 171.782 1108.83 171.305 1109.05 170.645C1109.27 169.985 1109.38 168.995 1109.38 167.675V152.88C1109.38 151.267 1109.31 150.167 1109.16 149.58C1109.02 148.993 1108.65 148.7 1108.06 148.7C1107.62 148.7 1106.91 148.902 1105.92 149.305L1105.31 147.765L1109.88 145.895L1116.64 143.2L1118.13 144.3V149.965H1118.29C1119.76 147.838 1121.26 146.207 1122.8 145.07C1124.38 143.933 1126.19 143.365 1128.25 143.365C1130.34 143.365 1131.99 144.098 1133.2 145.565C1134.41 147.032 1135.01 149.268 1135.01 152.275V167.675C1135.01 168.995 1135.1 169.985 1135.29 170.645C1135.51 171.305 1135.87 171.782 1136.39 172.075C1136.94 172.332 1137.74 172.46 1138.81 172.46V174H1123.13V172.46C1124.01 172.46 1124.67 172.332 1125.11 172.075C1125.59 171.782 1125.9 171.305 1126.05 170.645C1126.23 169.985 1126.32 168.995 1126.32 167.675V152.825C1126.32 151.542 1126.08 150.57 1125.61 149.91C1125.17 149.213 1124.51 148.865 1123.63 148.865C1121.76 148.865 1119.92 150.222 1118.13 152.935V167.675C1118.13 168.995 1118.2 169.985 1118.35 170.645C1118.53 171.305 1118.84 171.782 1119.28 172.075C1119.72 172.332 1120.38 172.46 1121.26 172.46V174H1105.42V172.46ZM1171.19 170.975L1166.46 172.68L1160.02 174.935L1158.26 173.56V168.885H1158.04C1157.2 170.755 1156.06 172.222 1154.63 173.285C1153.24 174.348 1151.61 174.88 1149.74 174.88C1147.91 174.88 1146.27 174.33 1144.84 173.23C1143.41 172.093 1142.3 170.425 1141.49 168.225C1140.68 166.025 1140.28 163.403 1140.28 160.36C1140.28 156.803 1140.79 153.76 1141.82 151.23C1142.85 148.663 1144.22 146.72 1145.94 145.4C1147.67 144.08 1149.57 143.42 1151.66 143.42C1153.06 143.42 1154.32 143.677 1155.46 144.19C1156.63 144.703 1157.55 145.4 1158.21 146.28V138.8C1158.21 137.333 1158.15 136.343 1158.04 135.83C1157.97 135.317 1157.71 135.06 1157.27 135.06C1156.83 135.06 1156.06 135.335 1154.96 135.885L1154.3 134.565L1166.02 128.46L1167.01 129.45V165.695C1167.01 167.345 1167.1 168.482 1167.28 169.105C1167.47 169.692 1167.89 169.985 1168.55 169.985C1169.06 169.985 1169.78 169.82 1170.69 169.49L1171.19 170.975ZM1153.86 169.435C1154.71 169.435 1155.48 169.142 1156.17 168.555C1156.87 167.968 1157.57 167.052 1158.26 165.805V155.685C1158.15 153.375 1157.73 151.432 1157 149.855C1156.3 148.242 1155.31 147.435 1154.03 147.435C1152.6 147.435 1151.48 148.388 1150.67 150.295C1149.9 152.202 1149.52 154.988 1149.52 158.655C1149.52 165.842 1150.97 169.435 1153.86 169.435ZM249.006 199.42C251.902 199.42 254.121 200.703 255.661 203.27C257.237 205.837 258.026 209.412 258.026 213.995C258.026 217.295 257.549 220.21 256.596 222.74C255.642 225.233 254.359 227.177 252.746 228.57C251.132 229.927 249.336 230.605 247.356 230.605C245.962 230.605 244.624 230.293 243.341 229.67C242.057 229.01 241.049 228.075 240.316 226.865H240.206V235.83C240.206 237.113 240.316 238.085 240.536 238.745C240.792 239.442 241.214 239.918 241.801 240.175C242.387 240.468 243.286 240.615 244.496 240.615V242.1H227.226V240.615C228.436 240.615 229.334 240.468 229.921 240.175C230.507 239.918 230.911 239.442 231.131 238.745C231.387 238.085 231.516 237.113 231.516 235.83V208.88C231.516 207.267 231.424 206.167 231.241 205.58C231.094 204.993 230.727 204.7 230.141 204.7C229.591 204.7 228.876 204.883 227.996 205.25L227.391 203.765L232.011 201.895L238.941 199.2L240.206 200.3V205.195H240.426C241.636 203.398 242.937 201.987 244.331 200.96C245.724 199.933 247.282 199.42 249.006 199.42ZM244.606 226.975C247.282 226.975 248.621 223.07 248.621 215.26C248.621 211.557 248.309 208.898 247.686 207.285C247.062 205.672 246.109 204.865 244.826 204.865C243.139 204.865 241.599 206.075 240.206 208.495V218.01C240.206 220.943 240.627 223.18 241.471 224.72C242.314 226.223 243.359 226.975 244.606 226.975ZM281.079 199.475C282.252 199.475 283.15 199.823 283.774 200.52C284.397 201.217 284.709 202.225 284.709 203.545C284.709 205.048 284.36 206.277 283.664 207.23C282.967 208.183 282.069 208.66 280.969 208.66C280.345 208.66 279.832 208.55 279.429 208.33C279.062 208.073 278.622 207.652 278.109 207.065C277.632 206.552 277.247 206.222 276.954 206.075C276.697 205.892 276.422 205.8 276.129 205.8C275.432 205.8 274.754 206.258 274.094 207.175C273.434 208.092 272.939 209.247 272.609 210.64V223.015C272.609 224.445 272.774 225.545 273.104 226.315C273.47 227.048 274.094 227.562 274.974 227.855C275.89 228.148 277.247 228.295 279.044 228.295V230H259.959V228.46C261.059 228.46 261.884 228.332 262.434 228.075C262.984 227.782 263.369 227.305 263.589 226.645C263.809 225.985 263.919 224.995 263.919 223.675V208.88C263.919 207.267 263.845 206.167 263.699 205.58C263.552 204.993 263.185 204.7 262.599 204.7C262.159 204.7 261.444 204.902 260.454 205.305L259.849 203.765L271.124 199.2L272.609 200.3V206.24H272.774C273.764 204.48 274.992 202.922 276.459 201.565C277.925 200.172 279.465 199.475 281.079 199.475ZM299.766 230.88C296.87 230.88 294.358 230.257 292.231 229.01C290.105 227.727 288.473 225.93 287.336 223.62C286.2 221.273 285.631 218.505 285.631 215.315C285.631 212.198 286.2 209.448 287.336 207.065C288.473 204.645 290.105 202.775 292.231 201.455C294.358 200.098 296.87 199.42 299.766 199.42C302.626 199.42 305.12 200.062 307.246 201.345C309.373 202.592 311.005 204.388 312.141 206.735C313.278 209.082 313.846 211.832 313.846 214.985C313.846 218.102 313.278 220.87 312.141 223.29C311.005 225.673 309.373 227.543 307.246 228.9C305.156 230.22 302.663 230.88 299.766 230.88ZM300.701 227.635C302.095 227.635 303.121 226.847 303.781 225.27C304.441 223.657 304.771 221.75 304.771 219.55C304.771 216.873 304.551 214.252 304.111 211.685C303.671 209.082 302.993 206.937 302.076 205.25C301.196 203.527 300.096 202.665 298.776 202.665C297.383 202.665 296.356 203.472 295.696 205.085C295.036 206.662 294.706 208.55 294.706 210.75C294.706 213.427 294.926 216.067 295.366 218.67C295.806 221.237 296.466 223.382 297.346 225.105C298.263 226.792 299.381 227.635 300.701 227.635ZM324.511 195.735C323.044 195.735 321.852 195.313 320.936 194.47C320.056 193.627 319.616 192.545 319.616 191.225C319.616 189.868 320.056 188.768 320.936 187.925C321.852 187.082 323.044 186.66 324.511 186.66C325.941 186.66 327.096 187.082 327.976 187.925C328.892 188.768 329.351 189.868 329.351 191.225C329.351 192.545 328.892 193.627 327.976 194.47C327.096 195.313 325.941 195.735 324.511 195.735ZM318.846 242.98C316.022 242.98 313.731 242.485 311.971 241.495C310.211 240.542 309.331 239.222 309.331 237.535C309.331 236.472 309.679 235.647 310.376 235.06C311.036 234.473 311.971 234.18 313.181 234.18C314.317 234.18 315.197 234.437 315.821 234.95C316.444 235.5 316.902 236.417 317.196 237.7C317.452 238.653 317.691 239.313 317.911 239.68C318.167 240.083 318.497 240.285 318.901 240.285C319.524 240.285 319.927 239.827 320.111 238.91C320.331 237.993 320.441 236.307 320.441 233.85V208.935C320.441 207.285 320.367 206.185 320.221 205.635C320.074 205.048 319.707 204.755 319.121 204.755C318.681 204.755 317.947 204.957 316.921 205.36L316.261 203.875L327.756 199.2L329.186 200.3V231.265C329.186 235.262 328.196 238.213 326.216 240.12C324.236 242.027 321.779 242.98 318.846 242.98ZM357.624 217.955C356.89 222.392 355.534 225.655 353.554 227.745C351.574 229.835 348.97 230.88 345.744 230.88C343.397 230.88 341.325 230.293 339.529 229.12C337.732 227.947 336.339 226.223 335.349 223.95C334.359 221.677 333.864 218.945 333.864 215.755C333.864 212.858 334.359 210.182 335.349 207.725C336.339 205.232 337.769 203.233 339.639 201.73C341.509 200.227 343.69 199.475 346.184 199.475C349.997 199.475 352.82 200.832 354.654 203.545C356.487 206.258 357.404 209.76 357.404 214.05H342.499C342.719 221.31 345.047 224.94 349.484 224.94C350.84 224.94 352.124 224.39 353.334 223.29C354.544 222.153 355.46 220.375 356.084 217.955H357.624ZM346.019 202.335C344.699 202.335 343.8 203.032 343.324 204.425C342.847 205.818 342.572 208.055 342.499 211.135H348.989C348.989 208.018 348.787 205.782 348.384 204.425C348.017 203.032 347.229 202.335 346.019 202.335ZM372.924 230.88C370.467 230.88 368.341 230.275 366.544 229.065C364.747 227.818 363.354 226.058 362.364 223.785C361.411 221.512 360.934 218.872 360.934 215.865C360.934 212.712 361.466 209.907 362.529 207.45C363.629 204.957 365.169 203.013 367.149 201.62C369.166 200.19 371.512 199.475 374.189 199.475C376.902 199.475 379.121 200.172 380.844 201.565C382.604 202.958 383.484 204.81 383.484 207.12C383.484 208.55 383.136 209.687 382.439 210.53C381.779 211.337 380.807 211.74 379.524 211.74C378.387 211.74 377.471 211.41 376.774 210.75C376.114 210.09 375.784 209.247 375.784 208.22C375.784 207.853 375.857 207.303 376.004 206.57C376.151 205.837 376.224 205.268 376.224 204.865C376.224 204.058 376.022 203.453 375.619 203.05C375.216 202.61 374.702 202.39 374.079 202.39C372.649 202.39 371.567 203.27 370.834 205.03C370.137 206.79 369.789 209.247 369.789 212.4C369.789 216.177 370.321 219.183 371.384 221.42C372.484 223.657 374.189 224.775 376.499 224.775C379.799 224.775 381.907 222.3 382.824 217.35H384.309C383.979 221.897 382.806 225.288 380.789 227.525C378.772 229.762 376.151 230.88 372.924 230.88ZM406.24 216.8C406.24 221.603 405.562 225.16 404.205 227.47C402.849 229.743 400.594 230.88 397.44 230.88C394.8 230.88 392.802 230.037 391.445 228.35C390.125 226.663 389.465 223.84 389.465 219.88V203.38H385.835V200.685C388.072 200.575 390.052 199.805 391.775 198.375C393.499 196.908 394.617 194.818 395.13 192.105H397.99V200.52H404.48V203.38H398.21V219.165C398.21 221.365 398.43 223.033 398.87 224.17C399.31 225.27 400.025 225.82 401.015 225.82C403.179 225.82 404.26 222.813 404.26 216.8H406.24ZM419.2 230.88C416.67 230.88 414.36 230.165 412.27 228.735C411.976 228.552 411.738 228.46 411.555 228.46C411.261 228.46 411.005 228.662 410.785 229.065L410.29 230.275H408.805L408.31 217.79H409.795C410.235 220.833 411.206 223.29 412.71 225.16C414.25 226.993 416.083 227.91 418.21 227.91C419.346 227.91 420.208 227.598 420.795 226.975C421.418 226.352 421.73 225.453 421.73 224.28C421.73 223.583 421.565 222.978 421.235 222.465C420.941 221.952 420.391 221.383 419.585 220.76C418.815 220.1 417.458 219.073 415.515 217.68C412.985 215.92 411.206 214.343 410.18 212.95C409.19 211.52 408.695 209.943 408.695 208.22C408.695 206.423 409.098 204.865 409.905 203.545C410.748 202.225 411.866 201.217 413.26 200.52C414.69 199.823 416.248 199.475 417.935 199.475C420.208 199.475 422.151 200.135 423.765 201.455C424.021 201.675 424.278 201.785 424.535 201.785C424.938 201.785 425.213 201.565 425.36 201.125L425.855 199.86H427.34L427.78 209.98H426.295C425.781 207.817 424.846 206.002 423.49 204.535C422.133 203.068 420.575 202.335 418.815 202.335C417.861 202.335 417.11 202.61 416.56 203.16C416.01 203.71 415.735 204.425 415.735 205.305C415.735 205.928 415.881 206.497 416.175 207.01C416.505 207.487 417 208.018 417.66 208.605C418.356 209.155 419.493 209.98 421.07 211.08C422.976 212.437 424.461 213.628 425.525 214.655C426.588 215.645 427.395 216.727 427.945 217.9C428.531 219.037 428.825 220.375 428.825 221.915C428.825 224.848 427.908 227.085 426.075 228.625C424.241 230.128 421.95 230.88 419.2 230.88ZM436.023 230.88C434.208 230.88 432.778 229.45 432.778 227.635C432.778 225.875 434.208 224.39 436.023 224.39C437.783 224.39 439.268 225.875 439.268 227.635C439.268 229.45 437.783 230.88 436.023 230.88Z" fill="#FFF8EC"/>
</svg>
