<svg width="1425" height="368" viewBox="0 0 1425 368" fill="none" xmlns="http://www.w3.org/2000/svg">
<rect width="1424.53" height="367.168" fill="#44B772"/>
<path d="M1203.41 290.05L1203.9 296.105L1202.96 296.175C1202.82 294.565 1202.62 293.363 1202.36 292.57C1202.11 291.777 1201.75 291.252 1201.28 290.995C1200.81 290.715 1200.14 290.575 1199.25 290.575H1193.16C1192.62 290.575 1192.21 290.715 1191.93 290.995C1191.65 291.275 1191.51 291.683 1191.51 292.22V302.51H1196.27C1197.04 302.51 1197.62 302.417 1197.99 302.23C1198.36 302.02 1198.63 301.635 1198.79 301.075C1198.96 300.492 1199.04 299.593 1199.04 298.38H1199.88V308.005H1199.04C1199.04 306.792 1198.96 305.905 1198.79 305.345C1198.63 304.762 1198.36 304.377 1197.99 304.19C1197.62 304.003 1197.04 303.91 1196.27 303.91H1191.51V313.395C1191.51 314.165 1191.61 314.737 1191.79 315.11C1191.98 315.483 1192.35 315.752 1192.91 315.915C1193.47 316.078 1194.35 316.16 1195.54 316.16V317H1183.85V316.16C1184.95 316.16 1185.75 316.078 1186.26 315.915C1186.78 315.752 1187.12 315.483 1187.28 315.11C1187.47 314.737 1187.56 314.165 1187.56 313.395V292.605C1187.56 291.835 1187.47 291.263 1187.28 290.89C1187.12 290.517 1186.78 290.248 1186.26 290.085C1185.75 289.922 1184.95 289.84 1183.85 289.84V289H1203.31L1203.41 290.05ZM1223.35 290.05L1224.01 296.07L1223.03 296.175C1222.85 294.565 1222.61 293.375 1222.33 292.605C1222.08 291.812 1221.71 291.275 1221.25 290.995C1220.78 290.715 1220.1 290.575 1219.22 290.575H1214.21C1213.68 290.575 1213.27 290.715 1212.99 290.995C1212.71 291.275 1212.57 291.683 1212.57 292.22V301.845H1216.91C1217.65 301.845 1218.2 301.752 1218.55 301.565C1218.93 301.355 1219.18 300.97 1219.32 300.41C1219.49 299.827 1219.57 298.928 1219.57 297.715H1220.37V307.2H1219.57C1219.57 306.01 1219.49 305.135 1219.32 304.575C1219.18 303.992 1218.93 303.607 1218.55 303.42C1218.2 303.21 1217.65 303.105 1216.91 303.105H1212.57V313.43C1212.57 314.247 1212.67 314.783 1212.88 315.04C1213.09 315.297 1213.54 315.425 1214.21 315.425H1219.18C1220.09 315.425 1220.83 315.262 1221.39 314.935C1221.95 314.608 1222.44 314.002 1222.86 313.115C1223.3 312.205 1223.76 310.852 1224.22 309.055L1225.2 309.335L1223.49 315.985L1223.21 317H1204.9V316.16C1206 316.16 1206.8 316.078 1207.32 315.915C1207.83 315.752 1208.17 315.483 1208.33 315.11C1208.52 314.737 1208.61 314.165 1208.61 313.395V292.605C1208.61 291.835 1208.52 291.263 1208.33 290.89C1208.17 290.517 1207.83 290.248 1207.32 290.085C1206.8 289.922 1206 289.84 1204.9 289.84V289H1223.24L1223.35 290.05ZM1245.65 313.185C1246.07 314.002 1246.43 314.608 1246.73 315.005C1247.04 315.378 1247.42 315.67 1247.89 315.88C1248.35 316.067 1249.01 316.16 1249.85 316.16V317H1248.13C1246.5 317 1245.31 316.918 1244.56 316.755C1243.82 316.568 1243.22 316.218 1242.78 315.705C1242.33 315.168 1241.82 314.27 1241.24 313.01L1236.65 303.735H1236.13C1235.66 303.735 1235.03 303.712 1234.24 303.665V313.395C1234.24 314.165 1234.32 314.737 1234.48 315.11C1234.67 315.483 1235.02 315.752 1235.53 315.915C1236.07 316.078 1236.89 316.16 1237.98 316.16V317H1226.61V316.16C1227.7 316.16 1228.51 316.078 1229.02 315.915C1229.54 315.752 1229.87 315.483 1230.04 315.11C1230.22 314.737 1230.32 314.165 1230.32 313.395V292.605C1230.32 291.835 1230.22 291.263 1230.04 290.89C1229.87 290.517 1229.54 290.248 1229.02 290.085C1228.51 289.922 1227.7 289.84 1226.61 289.84V289H1237.39C1240.44 289 1242.72 289.618 1244.21 290.855C1245.71 292.092 1246.45 293.853 1246.45 296.14C1246.45 298.357 1245.79 300.06 1244.46 301.25C1243.13 302.417 1241.34 303.175 1239.1 303.525C1239.85 303.758 1240.48 304.143 1240.99 304.68C1241.53 305.217 1242.09 306.115 1242.67 307.375L1245.65 313.185ZM1234.24 302.3C1234.87 302.37 1235.53 302.405 1236.23 302.405C1238.12 302.405 1239.63 301.903 1240.75 300.9C1241.87 299.897 1242.43 298.345 1242.43 296.245C1242.43 294.355 1241.96 292.92 1241.03 291.94C1240.09 290.937 1238.78 290.435 1237.07 290.435C1236.3 290.435 1235.57 290.552 1234.87 290.785C1234.45 290.948 1234.24 291.263 1234.24 291.73V302.3ZM1275.29 289.84C1274.19 289.84 1273.37 289.922 1272.84 290.085C1272.32 290.248 1271.97 290.517 1271.79 290.89C1271.62 291.263 1271.54 291.835 1271.54 292.605V317.35H1269.58L1255.3 294.495V313.395C1255.3 314.165 1255.4 314.737 1255.58 315.11C1255.77 315.483 1256.13 315.752 1256.67 315.915C1257.2 316.078 1258.04 316.16 1259.19 316.16V317H1250.12V316.16C1251.22 316.16 1252.02 316.078 1252.54 315.915C1253.05 315.752 1253.39 315.483 1253.55 315.11C1253.74 314.737 1253.83 314.165 1253.83 313.395V292.15L1253.8 292.08C1253.24 291.17 1252.69 290.575 1252.15 290.295C1251.64 289.992 1250.97 289.84 1250.16 289.84V289H1256.56L1270.07 310.875V292.605C1270.07 291.835 1269.98 291.263 1269.79 290.89C1269.63 290.517 1269.29 290.248 1268.78 290.085C1268.26 289.922 1267.46 289.84 1266.36 289.84V289H1275.29V289.84ZM1295.93 313.57C1296.3 314.62 1296.73 315.32 1297.22 315.67C1297.74 315.997 1298.57 316.16 1299.71 316.16V317H1289.07V316.16C1290.26 316.16 1291.08 316.078 1291.52 315.915C1291.96 315.752 1292.18 315.448 1292.18 315.005C1292.18 314.748 1292.08 314.258 1291.87 313.535L1290.19 308.145H1280.81L1279.09 313.57C1278.86 314.27 1278.74 314.76 1278.74 315.04C1278.74 315.46 1278.97 315.752 1279.41 315.915C1279.85 316.078 1280.65 316.16 1281.79 316.16V317H1273.88V316.16C1275 316.16 1275.8 315.997 1276.29 315.67C1276.78 315.32 1277.2 314.62 1277.55 313.57L1285.74 288.58H1287.67L1295.93 313.57ZM1285.46 293.62L1281.26 306.78H1289.73L1285.6 293.62H1285.46ZM1324.47 289.84C1323.38 289.84 1322.56 289.922 1322.02 290.085C1321.51 290.248 1321.16 290.517 1320.97 290.89C1320.81 291.263 1320.73 291.835 1320.73 292.605V317.35H1318.77L1304.49 294.495V313.395C1304.49 314.165 1304.58 314.737 1304.77 315.11C1304.95 315.483 1305.32 315.752 1305.85 315.915C1306.39 316.078 1307.23 316.16 1308.37 316.16V317H1299.31V316.16C1300.4 316.16 1301.21 316.078 1301.72 315.915C1302.24 315.752 1302.57 315.483 1302.74 315.11C1302.92 314.737 1303.02 314.165 1303.02 313.395V292.15L1302.98 292.08C1302.42 291.17 1301.87 290.575 1301.34 290.295C1300.82 289.992 1300.16 289.84 1299.34 289.84V289H1305.75L1319.26 310.875V292.605C1319.26 291.835 1319.16 291.263 1318.98 290.89C1318.81 290.517 1318.48 290.248 1317.96 290.085C1317.45 289.922 1316.64 289.84 1315.55 289.84V289H1324.47V289.84ZM1325.52 317V316.16C1326.62 316.16 1327.43 316.078 1327.94 315.915C1328.45 315.752 1328.79 315.483 1328.95 315.11C1329.14 314.737 1329.23 314.165 1329.23 313.395V292.605C1329.23 291.835 1329.14 291.263 1328.95 290.89C1328.79 290.517 1328.45 290.248 1327.94 290.085C1327.43 289.922 1326.62 289.84 1325.52 289.84V289H1335.6C1338.15 289 1340.47 289.513 1342.57 290.54C1344.69 291.567 1346.38 293.142 1347.64 295.265C1348.93 297.388 1349.57 300.013 1349.57 303.14C1349.57 306.15 1348.96 308.705 1347.75 310.805C1346.56 312.882 1344.94 314.433 1342.88 315.46C1340.83 316.487 1338.52 317 1335.95 317H1325.52ZM1335.53 315.565C1337.7 315.565 1339.52 315.04 1340.99 313.99C1342.49 312.94 1343.6 311.505 1344.32 309.685C1345.07 307.842 1345.44 305.742 1345.44 303.385C1345.44 300.772 1345 298.485 1344.11 296.525C1343.25 294.565 1342.07 293.06 1340.57 292.01C1339.08 290.96 1337.41 290.435 1335.57 290.435C1334.8 290.435 1334.23 290.505 1333.85 290.645C1333.41 290.738 1333.19 291.042 1333.19 291.555V314.06C1333.19 314.62 1333.38 315.017 1333.75 315.25C1334.12 315.46 1334.72 315.565 1335.53 315.565ZM1362.95 317.56C1360.8 317.56 1358.89 316.918 1357.21 315.635C1355.55 314.352 1354.27 312.602 1353.36 310.385C1352.45 308.168 1351.99 305.707 1351.99 303C1351.99 300.293 1352.45 297.832 1353.36 295.615C1354.27 293.398 1355.54 291.66 1357.17 290.4C1358.83 289.117 1360.72 288.475 1362.84 288.475C1364.99 288.475 1366.89 289.117 1368.55 290.4C1370.23 291.683 1371.52 293.433 1372.43 295.65C1373.34 297.867 1373.8 300.328 1373.8 303.035C1373.8 305.765 1373.34 308.238 1372.43 310.455C1371.54 312.648 1370.27 314.387 1368.62 315.67C1366.98 316.93 1365.09 317.56 1362.95 317.56ZM1363.68 316.055C1364.96 316.055 1366.06 315.588 1366.97 314.655C1367.9 313.722 1368.6 312.497 1369.07 310.98C1369.54 309.44 1369.77 307.772 1369.77 305.975C1369.77 303.408 1369.47 300.9 1368.86 298.45C1368.28 295.977 1367.4 293.947 1366.24 292.36C1365.07 290.773 1363.69 289.98 1362.11 289.98C1360.85 289.98 1359.75 290.447 1358.82 291.38C1357.91 292.313 1357.21 293.55 1356.72 295.09C1356.25 296.63 1356.02 298.275 1356.02 300.025C1356.02 302.615 1356.31 305.147 1356.89 307.62C1357.5 310.093 1358.37 312.123 1359.52 313.71C1360.68 315.273 1362.07 316.055 1363.68 316.055Z" fill="#F7F7EF"/>
<path d="M74.71 79.905C74.3367 81.1417 73.7533 82.1217 72.96 82.845C72.19 83.5683 71.21 83.93 70.02 83.93C69.25 83.93 68.5033 83.825 67.78 83.615C67.0567 83.4283 66.1233 83.1367 64.98 82.74C63.79 82.32 62.775 81.9933 61.935 81.76C61.095 81.55 60.22 81.445 59.31 81.445C57.84 81.445 56.2417 81.76 54.515 82.39L53.815 79.94C55.0283 79.7067 56.3583 79.38 57.805 78.96C59.275 78.54 60.64 78.0733 61.9 77.56C59.8 77.5133 57.9333 76.8483 56.3 75.565C54.69 74.2583 53.4417 72.5083 52.555 70.315C51.6683 68.1217 51.225 65.6833 51.225 63C51.225 60.2933 51.68 57.8317 52.59 55.615C53.5 53.3983 54.7717 51.66 56.405 50.4C58.0617 49.1167 59.9517 48.475 62.075 48.475C64.2217 48.475 66.1233 49.1167 67.78 50.4C69.46 51.6833 70.755 53.4333 71.665 55.65C72.575 57.8667 73.03 60.3283 73.03 63.035C73.03 65.345 72.7033 67.4683 72.05 69.405C71.3967 71.3417 70.475 72.975 69.285 74.305H69.32C68.5033 75.285 67.325 76.195 65.785 77.035C64.245 77.875 62.6583 78.575 61.025 79.135C59.415 79.695 58.05 80.0917 56.93 80.325L57 80.605C59.0767 80.255 60.8383 80.08 62.285 80.08C63.4517 80.08 64.9217 80.2433 66.695 80.57C66.8117 80.5933 67.2317 80.6633 67.955 80.78C68.6783 80.92 69.3667 80.99 70.02 80.99C71.0233 80.99 71.8283 80.8617 72.435 80.605C73.065 80.3483 73.59 79.9167 74.01 79.31L74.71 79.905ZM55.25 60.025C55.25 62.615 55.5417 65.1467 56.125 67.62C56.7317 70.0933 57.6067 72.1233 58.75 73.71C59.9167 75.2733 61.305 76.055 62.915 76.055C64.1983 76.055 65.295 75.5883 66.205 74.655C67.1383 73.7217 67.8383 72.4967 68.305 70.98C68.7717 69.44 69.005 67.7717 69.005 65.975C69.005 63.4083 68.7017 60.9 68.095 58.45C67.5117 55.9767 66.6367 53.9467 65.47 52.36C64.3033 50.7733 62.9267 49.98 61.34 49.98C60.08 49.98 58.9833 50.4467 58.05 51.38C57.14 52.3133 56.44 53.55 55.95 55.09C55.4833 56.63 55.25 58.275 55.25 60.025ZM86.7098 77.56C83.5131 77.56 81.1681 76.6733 79.6748 74.9C78.1815 73.1033 77.4348 70.6883 77.4348 67.655V52.605C77.4348 51.835 77.3415 51.2633 77.1548 50.89C76.9915 50.5167 76.6531 50.2483 76.1398 50.085C75.6265 49.9217 74.8215 49.84 73.7248 49.84V49H85.1348V49.84C84.0381 49.84 83.2215 49.9217 82.6848 50.085C82.1715 50.2483 81.8215 50.5167 81.6348 50.89C81.4715 51.2633 81.3898 51.835 81.3898 52.605V67.655C81.3898 70.4317 81.9031 72.4617 82.9298 73.745C83.9798 75.005 85.5548 75.635 87.6548 75.635C89.6615 75.635 91.2015 74.97 92.2748 73.64C93.3715 72.2867 93.9198 70.2567 93.9198 67.55V52.605C93.9198 51.835 93.8265 51.2633 93.6398 50.89C93.4765 50.5167 93.1265 50.2483 92.5898 50.085C92.0765 49.9217 91.2715 49.84 90.1748 49.84V49H99.2048V49.84C98.1081 49.84 97.2915 49.9217 96.7548 50.085C96.2415 50.2483 95.8915 50.5167 95.7048 50.89C95.5415 51.2633 95.4598 51.835 95.4598 52.605V67.55C95.4598 70.49 94.7948 72.8933 93.4648 74.76C92.1348 76.6267 89.8831 77.56 86.7098 77.56ZM110.544 77.56C108.398 77.56 106.484 76.9183 104.804 75.635C103.148 74.3517 101.864 72.6017 100.954 70.385C100.044 68.1683 99.5893 65.7067 99.5893 63C99.5893 60.2933 100.044 57.8317 100.954 55.615C101.864 53.3983 103.136 51.66 104.769 50.4C106.426 49.1167 108.316 48.475 110.439 48.475C112.586 48.475 114.488 49.1167 116.144 50.4C117.824 51.6833 119.119 53.4333 120.029 55.65C120.939 57.8667 121.394 60.3283 121.394 63.035C121.394 65.765 120.939 68.2383 120.029 70.455C119.143 72.6483 117.871 74.3867 116.214 75.67C114.581 76.93 112.691 77.56 110.544 77.56ZM111.279 76.055C112.563 76.055 113.659 75.5883 114.569 74.655C115.503 73.7217 116.203 72.4967 116.669 70.98C117.136 69.44 117.369 67.7717 117.369 65.975C117.369 63.4083 117.066 60.9 116.459 58.45C115.876 55.9767 115.001 53.9467 113.834 52.36C112.668 50.7733 111.291 49.98 109.704 49.98C108.444 49.98 107.348 50.4467 106.414 51.38C105.504 52.3133 104.804 53.55 104.314 55.09C103.848 56.63 103.614 58.275 103.614 60.025C103.614 62.615 103.906 65.1467 104.489 67.62C105.096 70.0933 105.971 72.1233 107.114 73.71C108.281 75.2733 109.669 76.055 111.279 76.055ZM127.409 50.575C126.499 50.575 125.799 50.715 125.309 50.995C124.842 51.2517 124.481 51.7767 124.224 52.57C123.967 53.3633 123.781 54.565 123.664 56.175L122.649 56.105L123.104 50.05L123.209 49H142.494L142.564 50.05L143.019 56.105L142.039 56.175C141.899 54.5417 141.701 53.34 141.444 52.57C141.187 51.7767 140.814 51.2517 140.324 50.995C139.857 50.715 139.169 50.575 138.259 50.575H135.984C135.611 50.575 135.319 50.68 135.109 50.89C134.922 51.1 134.829 51.3917 134.829 51.765V73.395C134.829 74.165 134.911 74.7367 135.074 75.11C135.261 75.4833 135.611 75.7517 136.124 75.915C136.637 76.0783 137.442 76.16 138.539 76.16V77H127.129V76.16C128.226 76.16 129.031 76.0783 129.544 75.915C130.081 75.7517 130.431 75.4833 130.594 75.11C130.781 74.7367 130.874 74.165 130.874 73.395V51.765C130.874 50.9717 130.477 50.575 129.684 50.575H127.409ZM162.899 50.05L163.564 56.07L162.584 56.175C162.397 54.565 162.164 53.375 161.884 52.605C161.627 51.8117 161.266 51.275 160.799 50.995C160.332 50.715 159.656 50.575 158.769 50.575H153.764C153.227 50.575 152.819 50.715 152.539 50.995C152.259 51.275 152.119 51.6833 152.119 52.22V61.845H156.459C157.206 61.845 157.754 61.7517 158.104 61.565C158.477 61.355 158.734 60.97 158.874 60.41C159.037 59.8267 159.119 58.9283 159.119 57.715H159.924V67.2H159.119C159.119 66.01 159.037 65.135 158.874 64.575C158.734 63.9917 158.477 63.6067 158.104 63.42C157.754 63.21 157.206 63.105 156.459 63.105H152.119V73.43C152.119 74.2467 152.224 74.7833 152.434 75.04C152.644 75.2967 153.087 75.425 153.764 75.425H158.734C159.644 75.425 160.379 75.2617 160.939 74.935C161.499 74.6083 161.989 74.0017 162.409 73.115C162.852 72.205 163.307 70.8517 163.774 69.055L164.754 69.335L163.039 75.985L162.759 77H144.454V76.16C145.551 76.16 146.356 76.0783 146.869 75.915C147.382 75.7517 147.721 75.4833 147.884 75.11C148.071 74.7367 148.164 74.165 148.164 73.395V52.605C148.164 51.835 148.071 51.2633 147.884 50.89C147.721 50.5167 147.382 50.2483 146.869 50.085C146.356 49.9217 145.551 49.84 144.454 49.84V49H162.794L162.899 50.05Z" fill="#F7F7EF"/>
<path d="M211.45 166.44C212.677 166.44 213.663 166.867 214.41 167.72C215.157 168.52 215.53 169.56 215.53 170.84C215.53 172.227 215.023 173.4 214.01 174.36C213.05 175.32 211.743 175.8 210.09 175.8C208.33 175.8 206.863 175.16 205.69 173.88C204.517 172.547 203.93 170.813 203.93 168.68C203.93 166.28 204.757 164.093 206.41 162.12C208.063 160.147 210.57 158.653 213.93 157.64V159.72C211.743 160.307 210.037 161.213 208.81 162.44C207.583 163.667 206.97 164.947 206.97 166.28C206.97 166.76 207.05 167.133 207.21 167.4C207.423 167.667 207.663 167.8 207.93 167.8C208.143 167.8 208.57 167.587 209.21 167.16C209.85 166.68 210.597 166.44 211.45 166.44ZM226.81 166.44C228.037 166.44 229.023 166.867 229.77 167.72C230.517 168.52 230.89 169.56 230.89 170.84C230.89 172.227 230.383 173.4 229.37 174.36C228.41 175.32 227.103 175.8 225.45 175.8C223.69 175.8 222.223 175.16 221.05 173.88C219.877 172.547 219.29 170.813 219.29 168.68C219.29 166.28 220.117 164.093 221.77 162.12C223.423 160.147 225.93 158.653 229.29 157.64V159.72C227.103 160.307 225.397 161.213 224.17 162.44C222.943 163.667 222.33 164.947 222.33 166.28C222.33 166.76 222.41 167.133 222.57 167.4C222.783 167.667 223.023 167.8 223.29 167.8C223.557 167.8 223.983 167.587 224.57 167.16C225.21 166.68 225.957 166.44 226.81 166.44ZM262.147 158.92C259.64 158.92 257.774 159.107 256.547 159.48C255.374 159.853 254.574 160.467 254.147 161.32C253.774 162.173 253.587 163.48 253.587 165.24V212.12C253.587 213.667 253.72 214.813 253.987 215.56C254.254 216.253 254.734 216.733 255.427 217C256.12 217.267 257.16 217.4 258.547 217.4H268.227C270.36 217.4 272.04 217.027 273.267 216.28C274.547 215.48 275.64 214.013 276.547 211.88C277.507 209.693 278.494 206.44 279.507 202.12L281.747 202.68L278.067 218.76L277.587 221H236.067V219.08C238.574 219.08 240.414 218.893 241.587 218.52C242.76 218.147 243.534 217.533 243.907 216.68C244.334 215.827 244.547 214.52 244.547 212.76V165.24C244.547 163.48 244.334 162.173 243.907 161.32C243.534 160.467 242.76 159.853 241.587 159.48C240.414 159.107 238.574 158.92 236.067 158.92V157H262.147V158.92ZM302.744 222.28C299.331 222.28 296.318 221.347 293.704 219.48C291.091 217.56 289.064 214.92 287.624 211.56C286.238 208.147 285.544 204.28 285.544 199.96C285.544 195.64 286.211 191.747 287.544 188.28C288.931 184.813 290.931 182.093 293.544 180.12C296.158 178.147 299.224 177.16 302.744 177.16C306.158 177.16 309.144 178.12 311.704 180.04C314.318 181.907 316.344 184.547 317.784 187.96C319.224 191.32 319.944 195.16 319.944 199.48C319.944 203.8 319.251 207.693 317.864 211.16C316.478 214.627 314.478 217.347 311.864 219.32C309.304 221.293 306.264 222.28 302.744 222.28ZM303.944 218.76C306.558 218.76 308.531 217.32 309.864 214.44C311.198 211.56 311.864 208.147 311.864 204.2C311.864 200.36 311.464 196.653 310.664 193.08C309.918 189.453 308.771 186.493 307.224 184.2C305.678 181.853 303.784 180.68 301.544 180.68C298.878 180.68 296.878 182.12 295.544 185C294.211 187.88 293.544 191.293 293.544 195.24C293.544 199.08 293.918 202.813 294.664 206.44C295.464 210.013 296.638 212.973 298.184 215.32C299.784 217.613 301.704 218.76 303.944 218.76ZM347.742 203.08C347.742 209.587 346.969 214.413 345.422 217.56C343.875 220.707 341.209 222.28 337.422 222.28C334.169 222.28 331.769 221.16 330.222 218.92C328.675 216.627 327.902 212.76 327.902 207.32V181.88H322.302V178.92C325.235 178.867 327.582 177.8 329.342 175.72C331.102 173.64 332.195 170.707 332.622 166.92H335.502V178.6H345.102V181.88H335.662V205.24C335.662 209.187 335.955 212.147 336.542 214.12C337.182 216.093 338.382 217.08 340.142 217.08C341.955 217.08 343.289 215.933 344.142 213.64C345.049 211.347 345.502 207.827 345.502 203.08H347.742ZM365.32 222.28C362.173 222.28 359.267 221.32 356.6 219.4C356.227 219.08 355.853 218.92 355.48 218.92C355.107 218.92 354.76 219.213 354.44 219.8L353.8 221.4H352.04L351.48 204.12H353.24C353.827 208.76 355.133 212.387 357.16 215C359.24 217.613 361.693 218.92 364.52 218.92C366.387 218.92 367.8 218.333 368.76 217.16C369.773 215.987 370.28 214.36 370.28 212.28C370.28 211.053 370.04 210.013 369.56 209.16C369.08 208.253 368.253 207.267 367.08 206.2C365.907 205.08 363.933 203.4 361.16 201.16C357.693 198.44 355.293 196.147 353.96 194.28C352.68 192.413 352.04 190.36 352.04 188.12C352.04 184.867 353.08 182.227 355.16 180.2C357.293 178.173 359.96 177.16 363.16 177.16C365.987 177.16 368.493 178.067 370.68 179.88C371.053 180.253 371.427 180.44 371.8 180.44C372.28 180.44 372.6 180.12 372.76 179.48L373.24 177.72H375.08L375.4 191.72H373.64C373.16 188.467 372.04 185.8 370.28 183.72C368.52 181.587 366.36 180.52 363.8 180.52C362.2 180.52 360.92 181.027 359.96 182.04C359 183 358.52 184.28 358.52 185.88C358.52 187.427 359.027 188.787 360.04 189.96C361.053 191.133 363.107 192.947 366.2 195.4C370.147 198.493 372.893 201.08 374.44 203.16C376.04 205.24 376.84 207.72 376.84 210.6C376.84 214.387 375.747 217.293 373.56 219.32C371.373 221.293 368.627 222.28 365.32 222.28ZM421.883 203.08C421.883 209.587 421.109 214.413 419.563 217.56C418.016 220.707 415.349 222.28 411.563 222.28C408.309 222.28 405.909 221.16 404.363 218.92C402.816 216.627 402.043 212.76 402.043 207.32V181.88H396.443V178.92C399.376 178.867 401.723 177.8 403.483 175.72C405.243 173.64 406.336 170.707 406.763 166.92H409.643V178.6H419.243V181.88H409.803V205.24C409.803 209.187 410.096 212.147 410.683 214.12C411.323 216.093 412.523 217.08 414.283 217.08C416.096 217.08 417.429 215.933 418.283 213.64C419.189 211.347 419.643 207.827 419.643 203.08H421.883ZM442.901 222.28C439.487 222.28 436.474 221.347 433.861 219.48C431.247 217.56 429.221 214.92 427.781 211.56C426.394 208.147 425.701 204.28 425.701 199.96C425.701 195.64 426.367 191.747 427.701 188.28C429.087 184.813 431.087 182.093 433.701 180.12C436.314 178.147 439.381 177.16 442.901 177.16C446.314 177.16 449.301 178.12 451.861 180.04C454.474 181.907 456.501 184.547 457.941 187.96C459.381 191.32 460.101 195.16 460.101 199.48C460.101 203.8 459.407 207.693 458.021 211.16C456.634 214.627 454.634 217.347 452.021 219.32C449.461 221.293 446.421 222.28 442.901 222.28ZM444.101 218.76C446.714 218.76 448.687 217.32 450.021 214.44C451.354 211.56 452.021 208.147 452.021 204.2C452.021 200.36 451.621 196.653 450.821 193.08C450.074 189.453 448.927 186.493 447.381 184.2C445.834 181.853 443.941 180.68 441.701 180.68C439.034 180.68 437.034 182.12 435.701 185C434.367 187.88 433.701 191.293 433.701 195.24C433.701 199.08 434.074 202.813 434.821 206.44C435.621 210.013 436.794 212.973 438.341 215.32C439.941 217.613 441.861 218.76 444.101 218.76ZM518.914 217.8L507.074 222.28L505.394 220.92V214.36H505.074C504.008 216.813 502.541 218.76 500.674 220.2C498.861 221.587 496.701 222.28 494.194 222.28C491.688 222.28 489.501 221.4 487.634 219.64C485.768 217.88 484.328 215.4 483.314 212.2C482.301 209 481.794 205.293 481.794 201.08C481.794 196.44 482.381 192.307 483.554 188.68C484.781 185.053 486.488 182.227 488.674 180.2C490.914 178.173 493.474 177.16 496.354 177.16C498.328 177.16 500.088 177.56 501.634 178.36C503.234 179.16 504.488 180.253 505.394 181.64V166.68C505.394 164.707 505.314 163.373 505.154 162.68C505.048 161.987 504.674 161.64 504.034 161.64C503.394 161.64 502.274 162.04 500.674 162.84L499.874 161.16L512.114 155.08L513.154 156.2V211.48C513.154 213.613 513.234 215.053 513.394 215.8C513.608 216.493 514.114 216.84 514.914 216.84C515.501 216.84 516.594 216.547 518.194 215.96L518.914 217.8ZM497.554 216.68C499.208 216.68 500.648 216.147 501.874 215.08C503.101 213.96 504.274 212.387 505.394 210.36V195.56C505.394 191.4 504.754 187.987 503.474 185.32C502.248 182.653 500.434 181.32 498.034 181.32C495.368 181.32 493.368 182.973 492.034 186.28C490.701 189.533 490.034 193.827 490.034 199.16C490.034 204.493 490.648 208.76 491.874 211.96C493.154 215.107 495.048 216.68 497.554 216.68ZM538.682 222.28C535.269 222.28 532.255 221.347 529.642 219.48C527.029 217.56 525.002 214.92 523.562 211.56C522.175 208.147 521.482 204.28 521.482 199.96C521.482 195.64 522.149 191.747 523.482 188.28C524.869 184.813 526.869 182.093 529.482 180.12C532.095 178.147 535.162 177.16 538.682 177.16C542.095 177.16 545.082 178.12 547.642 180.04C550.255 181.907 552.282 184.547 553.722 187.96C555.162 191.32 555.882 195.16 555.882 199.48C555.882 203.8 555.189 207.693 553.802 211.16C552.415 214.627 550.415 217.347 547.802 219.32C545.242 221.293 542.202 222.28 538.682 222.28ZM539.882 218.76C542.495 218.76 544.469 217.32 545.802 214.44C547.135 211.56 547.802 208.147 547.802 204.2C547.802 200.36 547.402 196.653 546.602 193.08C545.855 189.453 544.709 186.493 543.162 184.2C541.615 181.853 539.722 180.68 537.482 180.68C534.815 180.68 532.815 182.12 531.482 185C530.149 187.88 529.482 191.293 529.482 195.24C529.482 199.08 529.855 202.813 530.602 206.44C531.402 210.013 532.575 212.973 534.122 215.32C535.722 217.613 537.642 218.76 539.882 218.76ZM563.092 221.88C561.972 221.88 561.039 221.48 560.292 220.68C559.545 219.88 559.172 218.867 559.172 217.64C559.172 216.253 559.625 215.107 560.532 214.2C561.492 213.293 562.639 212.84 563.972 212.84C565.625 212.84 567.012 213.48 568.132 214.76C569.305 215.987 569.892 217.667 569.892 219.8C569.892 222.68 569.012 225.427 567.252 228.04C565.545 230.707 562.879 232.76 559.252 234.2V232.04C561.385 231.133 563.172 229.8 564.612 228.04C566.105 226.333 566.852 224.6 566.852 222.84C566.852 221.773 566.505 221.24 565.812 221.24C565.545 221.24 565.145 221.347 564.612 221.56C564.079 221.773 563.572 221.88 563.092 221.88ZM630.008 217.8L618.168 222.28L616.488 220.92V214.36H616.168C615.101 216.813 613.635 218.76 611.768 220.2C609.955 221.587 607.795 222.28 605.288 222.28C602.781 222.28 600.595 221.4 598.728 219.64C596.861 217.88 595.421 215.4 594.408 212.2C593.395 209 592.888 205.293 592.888 201.08C592.888 196.44 593.475 192.307 594.648 188.68C595.875 185.053 597.581 182.227 599.768 180.2C602.008 178.173 604.568 177.16 607.448 177.16C609.421 177.16 611.181 177.56 612.728 178.36C614.328 179.16 615.581 180.253 616.488 181.64V166.68C616.488 164.707 616.408 163.373 616.248 162.68C616.141 161.987 615.768 161.64 615.128 161.64C614.488 161.64 613.368 162.04 611.768 162.84L610.968 161.16L623.208 155.08L624.248 156.2V211.48C624.248 213.613 624.328 215.053 624.488 215.8C624.701 216.493 625.208 216.84 626.008 216.84C626.595 216.84 627.688 216.547 629.288 215.96L630.008 217.8ZM608.648 216.68C610.301 216.68 611.741 216.147 612.968 215.08C614.195 213.96 615.368 212.387 616.488 210.36V195.56C616.488 191.4 615.848 187.987 614.568 185.32C613.341 182.653 611.528 181.32 609.128 181.32C606.461 181.32 604.461 182.973 603.128 186.28C601.795 189.533 601.128 193.827 601.128 199.16C601.128 204.493 601.741 208.76 602.968 211.96C604.248 215.107 606.141 216.68 608.648 216.68ZM649.776 222.28C646.362 222.28 643.349 221.347 640.736 219.48C638.122 217.56 636.096 214.92 634.656 211.56C633.269 208.147 632.576 204.28 632.576 199.96C632.576 195.64 633.242 191.747 634.576 188.28C635.962 184.813 637.962 182.093 640.576 180.12C643.189 178.147 646.256 177.16 649.776 177.16C653.189 177.16 656.176 178.12 658.736 180.04C661.349 181.907 663.376 184.547 664.816 187.96C666.256 191.32 666.976 195.16 666.976 199.48C666.976 203.8 666.282 207.693 664.896 211.16C663.509 214.627 661.509 217.347 658.896 219.32C656.336 221.293 653.296 222.28 649.776 222.28ZM650.976 218.76C653.589 218.76 655.562 217.32 656.896 214.44C658.229 211.56 658.896 208.147 658.896 204.2C658.896 200.36 658.496 196.653 657.696 193.08C656.949 189.453 655.802 186.493 654.256 184.2C652.709 181.853 650.816 180.68 648.576 180.68C645.909 180.68 643.909 182.12 642.576 185C641.242 187.88 640.576 191.293 640.576 195.24C640.576 199.08 640.949 202.813 641.696 206.44C642.496 210.013 643.669 212.973 645.216 215.32C646.816 217.613 648.736 218.76 650.976 218.76ZM712.429 203.08C712.429 209.587 711.656 214.413 710.109 217.56C708.563 220.707 705.896 222.28 702.109 222.28C698.856 222.28 696.456 221.16 694.909 218.92C693.363 216.627 692.589 212.76 692.589 207.32V181.88H686.989V178.92C689.923 178.867 692.269 177.8 694.029 175.72C695.789 173.64 696.883 170.707 697.309 166.92H700.189V178.6H709.789V181.88H700.349V205.24C700.349 209.187 700.643 212.147 701.229 214.12C701.869 216.093 703.069 217.08 704.829 217.08C706.643 217.08 707.976 215.933 708.829 213.64C709.736 211.347 710.189 207.827 710.189 203.08H712.429ZM727.786 212.76C727.786 214.573 727.893 215.907 728.106 216.76C728.373 217.613 728.853 218.227 729.546 218.6C730.24 218.92 731.306 219.08 732.746 219.08V221H714.666V219.08C716.266 219.08 717.44 218.92 718.186 218.6C718.933 218.227 719.44 217.613 719.706 216.76C719.973 215.907 720.106 214.573 720.106 212.76L720.026 166.76C720.026 164.733 719.973 163.4 719.866 162.76C719.76 162.12 719.386 161.8 718.746 161.8C718.16 161.8 717.04 162.227 715.386 163.08L714.586 161.4L720.826 158.12L726.746 155.08L727.786 156.2V185.56H728.026C730 182.787 731.973 180.707 733.946 179.32C735.92 177.88 738.186 177.16 740.746 177.16C743.573 177.16 745.733 178.147 747.226 180.12C748.72 182.093 749.466 184.973 749.466 188.76V212.76C749.466 214.573 749.6 215.907 749.866 216.76C750.133 217.613 750.613 218.227 751.306 218.6C752.053 218.92 753.226 219.08 754.826 219.08V221H736.906V219.08C738.346 219.08 739.386 218.92 740.026 218.6C740.72 218.227 741.173 217.613 741.386 216.76C741.653 215.907 741.786 214.573 741.786 212.76V189.16C741.786 184.893 740.213 182.76 737.066 182.76C735.466 182.76 733.92 183.293 732.426 184.36C730.933 185.373 729.386 186.893 727.786 188.92V212.76ZM787.092 203.88C786.292 210.12 784.612 214.76 782.052 217.8C779.545 220.787 776.345 222.28 772.452 222.28C769.465 222.28 766.852 221.4 764.612 219.64C762.425 217.827 760.719 215.293 759.492 212.04C758.319 208.733 757.732 204.893 757.732 200.52C757.732 196.253 758.345 192.36 759.572 188.84C760.799 185.267 762.532 182.44 764.772 180.36C767.065 178.227 769.759 177.16 772.852 177.16C777.332 177.16 780.745 179.053 783.092 182.84C785.439 186.573 786.612 191.507 786.612 197.64H765.492V197.8C765.492 203.4 766.345 207.907 768.052 211.32C769.759 214.68 772.239 216.36 775.492 216.36C777.572 216.36 779.465 215.4 781.172 213.48C782.932 211.56 784.265 208.36 785.172 203.88H787.092ZM772.852 180.52C768.532 180.52 766.105 185.133 765.572 194.36H778.932C778.932 185.133 776.905 180.52 772.852 180.52ZM812.584 166.76C812.584 164.68 812.53 163.32 812.424 162.68C812.317 161.987 811.944 161.64 811.304 161.64C810.664 161.64 809.597 162.04 808.104 162.84L807.224 161.16L813.384 158.12L819.304 155.08L820.424 156.2V184.68H820.744C824.05 179.667 827.944 177.16 832.424 177.16C836.05 177.16 838.93 179 841.064 182.68C843.197 186.307 844.264 191.373 844.264 197.88C844.264 205.453 842.77 211.4 839.784 215.72C836.85 220.04 832.664 222.2 827.224 222.2C824.77 222.2 822.21 221.747 819.544 220.84C816.93 219.933 814.61 218.6 812.584 216.84V166.76ZM820.424 214.36C821.17 215.533 822.13 216.52 823.304 217.32C824.477 218.12 825.784 218.52 827.224 218.52C829.997 218.52 832.13 216.84 833.624 213.48C835.117 210.12 835.864 205.373 835.864 199.24C835.864 193.747 835.197 189.613 833.864 186.84C832.53 184.067 830.69 182.68 828.344 182.68C826.85 182.68 825.41 183.213 824.024 184.28C822.69 185.347 821.49 186.787 820.424 188.6V214.36ZM878.967 203.88C878.167 210.12 876.487 214.76 873.927 217.8C871.42 220.787 868.22 222.28 864.327 222.28C861.34 222.28 858.727 221.4 856.487 219.64C854.3 217.827 852.594 215.293 851.367 212.04C850.194 208.733 849.607 204.893 849.607 200.52C849.607 196.253 850.22 192.36 851.447 188.84C852.674 185.267 854.407 182.44 856.647 180.36C858.94 178.227 861.634 177.16 864.727 177.16C869.207 177.16 872.62 179.053 874.967 182.84C877.314 186.573 878.487 191.507 878.487 197.64H857.367V197.8C857.367 203.4 858.22 207.907 859.927 211.32C861.634 214.68 864.114 216.36 867.367 216.36C869.447 216.36 871.34 215.4 873.047 213.48C874.807 211.56 876.14 208.36 877.047 203.88H878.967ZM864.727 180.52C860.407 180.52 857.98 185.133 857.447 194.36H870.807C870.807 185.133 868.78 180.52 864.727 180.52ZM897.898 222.28C894.751 222.28 891.845 221.32 889.178 219.4C888.805 219.08 888.431 218.92 888.058 218.92C887.685 218.92 887.338 219.213 887.018 219.8L886.378 221.4H884.618L884.058 204.12H885.818C886.405 208.76 887.711 212.387 889.738 215C891.818 217.613 894.271 218.92 897.098 218.92C898.965 218.92 900.378 218.333 901.338 217.16C902.351 215.987 902.858 214.36 902.858 212.28C902.858 211.053 902.618 210.013 902.138 209.16C901.658 208.253 900.831 207.267 899.658 206.2C898.485 205.08 896.511 203.4 893.738 201.16C890.271 198.44 887.871 196.147 886.538 194.28C885.258 192.413 884.618 190.36 884.618 188.12C884.618 184.867 885.658 182.227 887.738 180.2C889.871 178.173 892.538 177.16 895.738 177.16C898.565 177.16 901.071 178.067 903.258 179.88C903.631 180.253 904.005 180.44 904.378 180.44C904.858 180.44 905.178 180.12 905.338 179.48L905.818 177.72H907.658L907.978 191.72H906.218C905.738 188.467 904.618 185.8 902.858 183.72C901.098 181.587 898.938 180.52 896.378 180.52C894.778 180.52 893.498 181.027 892.538 182.04C891.578 183 891.098 184.28 891.098 185.88C891.098 187.427 891.605 188.787 892.618 189.96C893.631 191.133 895.685 192.947 898.778 195.4C902.725 198.493 905.471 201.08 907.018 203.16C908.618 205.24 909.418 207.72 909.418 210.6C909.418 214.387 908.325 217.293 906.138 219.32C903.951 221.293 901.205 222.28 897.898 222.28ZM937.82 203.08C937.82 209.587 937.047 214.413 935.5 217.56C933.953 220.707 931.287 222.28 927.5 222.28C924.247 222.28 921.847 221.16 920.3 218.92C918.753 216.627 917.98 212.76 917.98 207.32V181.88H912.38V178.92C915.313 178.867 917.66 177.8 919.42 175.72C921.18 173.64 922.273 170.707 922.7 166.92H925.58V178.6H935.18V181.88H925.74V205.24C925.74 209.187 926.033 212.147 926.62 214.12C927.26 216.093 928.46 217.08 930.22 217.08C932.033 217.08 933.367 215.933 934.22 213.64C935.127 211.347 935.58 207.827 935.58 203.08H937.82ZM1013.24 180.52C1011.53 180.52 1010.23 180.92 1009.32 181.72C1008.47 182.52 1007.72 184.12 1007.08 186.52L996.919 221.72H992.119L985.159 194.52L977.799 221.72H972.759L962.279 186.52C961.532 184.12 960.705 182.52 959.799 181.72C958.945 180.92 957.665 180.52 955.959 180.52V178.6H972.759V180.52C971.585 180.52 970.759 180.653 970.279 180.92C969.852 181.133 969.639 181.56 969.639 182.2C969.639 182.787 969.959 184.227 970.599 186.52L977.399 210.2H977.719L983.559 188.36L983.079 186.6C982.439 184.147 981.745 182.52 980.999 181.72C980.305 180.92 979.212 180.52 977.719 180.52V178.6H994.439V180.52C992.999 180.52 991.985 180.68 991.399 181C990.865 181.32 990.599 181.933 990.599 182.84C990.599 183.587 990.812 184.867 991.239 186.68L996.679 210.2H996.999L1003.72 186.52C1003.77 186.253 1003.93 185.667 1004.2 184.76C1004.47 183.8 1004.6 183.08 1004.6 182.6C1004.6 181.8 1004.28 181.267 1003.64 181C1003 180.68 1001.83 180.52 1000.12 180.52V178.6H1013.24V180.52ZM1022.77 169.32C1021.28 169.32 1020.03 168.867 1019.01 167.96C1018.05 167 1017.57 165.827 1017.57 164.44C1017.57 163 1018.05 161.827 1019.01 160.92C1020.03 159.96 1021.28 159.48 1022.77 159.48C1024.27 159.48 1025.49 159.96 1026.45 160.92C1027.41 161.827 1027.89 163 1027.89 164.44C1027.89 165.827 1027.41 167 1026.45 167.96C1025.49 168.867 1024.27 169.32 1022.77 169.32ZM1027.25 212.76C1027.25 214.573 1027.39 215.907 1027.65 216.76C1027.92 217.613 1028.45 218.227 1029.25 218.6C1030.05 218.92 1031.28 219.08 1032.93 219.08V221H1013.89V219.08C1015.55 219.08 1016.77 218.92 1017.57 218.6C1018.37 218.227 1018.91 217.613 1019.17 216.76C1019.44 215.907 1019.57 214.573 1019.57 212.76V188.12C1019.57 185.987 1019.49 184.547 1019.33 183.8C1019.17 183.053 1018.69 182.68 1017.89 182.68C1017.31 182.68 1016.29 182.973 1014.85 183.56L1014.13 181.72L1025.89 177L1027.25 178.2V212.76ZM1060.48 203.08C1060.48 209.587 1059.7 214.413 1058.16 217.56C1056.61 220.707 1053.94 222.28 1050.16 222.28C1046.9 222.28 1044.5 221.16 1042.96 218.92C1041.41 216.627 1040.64 212.76 1040.64 207.32V181.88H1035.04V178.92C1037.97 178.867 1040.32 177.8 1042.08 175.72C1043.84 173.64 1044.93 170.707 1045.36 166.92H1048.24V178.6H1057.84V181.88H1048.4V205.24C1048.4 209.187 1048.69 212.147 1049.28 214.12C1049.92 216.093 1051.12 217.08 1052.88 217.08C1054.69 217.08 1056.02 215.933 1056.88 213.64C1057.78 211.347 1058.24 207.827 1058.24 203.08H1060.48ZM1075.83 212.76C1075.83 214.573 1075.94 215.907 1076.15 216.76C1076.42 217.613 1076.9 218.227 1077.59 218.6C1078.29 218.92 1079.35 219.08 1080.79 219.08V221H1062.71V219.08C1064.31 219.08 1065.49 218.92 1066.23 218.6C1066.98 218.227 1067.49 217.613 1067.75 216.76C1068.02 215.907 1068.15 214.573 1068.15 212.76L1068.07 166.76C1068.07 164.733 1068.02 163.4 1067.91 162.76C1067.81 162.12 1067.43 161.8 1066.79 161.8C1066.21 161.8 1065.09 162.227 1063.43 163.08L1062.63 161.4L1068.87 158.12L1074.79 155.08L1075.83 156.2V185.56H1076.07C1078.05 182.787 1080.02 180.707 1081.99 179.32C1083.97 177.88 1086.23 177.16 1088.79 177.16C1091.62 177.16 1093.78 178.147 1095.27 180.12C1096.77 182.093 1097.51 184.973 1097.51 188.76V212.76C1097.51 214.573 1097.65 215.907 1097.91 216.76C1098.18 217.613 1098.66 218.227 1099.35 218.6C1100.1 218.92 1101.27 219.08 1102.87 219.08V221H1084.95V219.08C1086.39 219.08 1087.43 218.92 1088.07 218.6C1088.77 218.227 1089.22 217.613 1089.43 216.76C1089.7 215.907 1089.83 214.573 1089.83 212.76V189.16C1089.83 184.893 1088.26 182.76 1085.11 182.76C1083.51 182.76 1081.97 183.293 1080.47 184.36C1078.98 185.373 1077.43 186.893 1075.83 188.92V212.76ZM1132.07 169.32C1130.58 169.32 1129.32 168.867 1128.31 167.96C1127.35 167 1126.87 165.827 1126.87 164.44C1126.87 163 1127.35 161.827 1128.31 160.92C1129.32 159.96 1130.58 159.48 1132.07 159.48C1133.56 159.48 1134.79 159.96 1135.75 160.92C1136.71 161.827 1137.19 163 1137.19 164.44C1137.19 165.827 1136.71 167 1135.75 167.96C1134.79 168.867 1133.56 169.32 1132.07 169.32ZM1136.55 212.76C1136.55 214.573 1136.68 215.907 1136.95 216.76C1137.22 217.613 1137.75 218.227 1138.55 218.6C1139.35 218.92 1140.58 219.08 1142.23 219.08V221H1123.19V219.08C1124.84 219.08 1126.07 218.92 1126.87 218.6C1127.67 218.227 1128.2 217.613 1128.47 216.76C1128.74 215.907 1128.87 214.573 1128.87 212.76V188.12C1128.87 185.987 1128.79 184.547 1128.63 183.8C1128.47 183.053 1127.99 182.68 1127.19 182.68C1126.6 182.68 1125.59 182.973 1124.15 183.56L1123.43 181.72L1135.19 177L1136.55 178.2V212.76ZM1169.77 203.08C1169.77 209.587 1169 214.413 1167.45 217.56C1165.91 220.707 1163.24 222.28 1159.45 222.28C1156.2 222.28 1153.8 221.16 1152.25 218.92C1150.71 216.627 1149.93 212.76 1149.93 207.32V181.88H1144.33V178.92C1147.27 178.867 1149.61 177.8 1151.37 175.72C1153.13 173.64 1154.23 170.707 1154.65 166.92H1157.53V178.6H1167.13V181.88H1157.69V205.24C1157.69 209.187 1157.99 212.147 1158.57 214.12C1159.21 216.093 1160.41 217.08 1162.17 217.08C1163.99 217.08 1165.32 215.933 1166.17 213.64C1167.08 211.347 1167.53 207.827 1167.53 203.08H1169.77ZM1179.75 222.28C1178.42 222.28 1177.3 221.827 1176.39 220.92C1175.48 220.013 1175.03 218.893 1175.03 217.56C1175.03 216.28 1175.48 215.187 1176.39 214.28C1177.3 213.32 1178.42 212.84 1179.75 212.84C1181.03 212.84 1182.12 213.32 1183.03 214.28C1183.99 215.187 1184.47 216.28 1184.47 217.56C1184.47 218.893 1183.99 220.013 1183.03 220.92C1182.12 221.827 1181.03 222.28 1179.75 222.28ZM1211.57 164.28C1210.35 164.28 1209.36 163.88 1208.61 163.08C1207.87 162.227 1207.49 161.187 1207.49 159.96C1207.49 158.52 1207.97 157.32 1208.93 156.36C1209.95 155.4 1211.28 154.92 1212.93 154.92C1214.69 154.92 1216.16 155.587 1217.33 156.92C1218.51 158.2 1219.09 159.907 1219.09 162.04C1219.09 164.493 1218.27 166.707 1216.61 168.68C1215.01 170.653 1212.51 172.147 1209.09 173.16V171.08C1211.23 170.44 1212.91 169.507 1214.13 168.28C1215.41 167.053 1216.05 165.8 1216.05 164.52C1216.05 163.507 1215.73 163 1215.09 163C1214.88 163 1214.45 163.213 1213.81 163.64C1213.17 164.067 1212.43 164.28 1211.57 164.28ZM1196.21 164.28C1194.99 164.28 1194 163.88 1193.25 163.08C1192.51 162.227 1192.13 161.187 1192.13 159.96C1192.13 158.52 1192.61 157.32 1193.57 156.36C1194.59 155.4 1195.92 154.92 1197.57 154.92C1199.33 154.92 1200.8 155.587 1201.97 156.92C1203.15 158.2 1203.73 159.907 1203.73 162.04C1203.73 164.493 1202.91 166.707 1201.25 168.68C1199.65 170.653 1197.15 172.147 1193.73 173.16V171.08C1195.87 170.44 1197.55 169.507 1198.77 168.28C1200.05 167.053 1200.69 165.8 1200.69 164.52C1200.69 163.507 1200.37 163 1199.73 163C1199.52 163 1199.09 163.213 1198.45 163.64C1197.81 164.067 1197.07 164.28 1196.21 164.28Z" fill="#F7F7EF"/>
</svg>
