<svg width="1425" height="368" viewBox="0 0 1425 368" fill="none" xmlns="http://www.w3.org/2000/svg">
<rect width="1424.53" height="367.168" fill="#F1DBE7"/>
<path d="M1211.9 311.12H1211.97L1219.11 289H1227.79V289.84C1226.7 289.84 1225.88 289.922 1225.34 290.085C1224.83 290.248 1224.48 290.517 1224.29 290.89C1224.13 291.263 1224.05 291.835 1224.05 292.605V313.395C1224.05 314.165 1224.13 314.737 1224.29 315.11C1224.48 315.483 1224.83 315.752 1225.34 315.915C1225.88 316.078 1226.7 316.16 1227.79 316.16V317H1216.38V316.16C1217.48 316.16 1218.29 316.078 1218.8 315.915C1219.31 315.752 1219.65 315.483 1219.81 315.11C1220 314.737 1220.09 314.165 1220.09 313.395V291.03H1219.99L1211.45 317.7H1209.87L1201.37 291.38H1201.26V313.395C1201.26 314.165 1201.35 314.737 1201.51 315.11C1201.7 315.483 1202.05 315.752 1202.56 315.915C1203.1 316.078 1203.91 316.16 1205.01 316.16V317H1196.08V316.16C1197.18 316.16 1197.99 316.078 1198.5 315.915C1199.01 315.752 1199.35 315.483 1199.51 315.11C1199.7 314.737 1199.79 314.165 1199.79 313.395V292.605C1199.79 291.835 1199.7 291.263 1199.51 290.89C1199.35 290.517 1199.01 290.248 1198.5 290.085C1197.99 289.922 1197.18 289.84 1196.08 289.84V289H1204.8L1211.9 311.12ZM1232.81 292.605C1232.81 291.835 1232.72 291.263 1232.53 290.89C1232.37 290.517 1232.03 290.248 1231.52 290.085C1231 289.922 1230.2 289.84 1229.1 289.84V289H1240.51V289.84C1239.42 289.84 1238.6 289.922 1238.06 290.085C1237.55 290.248 1237.2 290.517 1237.01 290.89C1236.85 291.263 1236.77 291.835 1236.77 292.605V313.395C1236.77 314.165 1236.85 314.737 1237.01 315.11C1237.2 315.483 1237.55 315.752 1238.06 315.915C1238.6 316.078 1239.42 316.16 1240.51 316.16V317H1229.1V316.16C1230.2 316.16 1231 316.078 1231.52 315.915C1232.03 315.752 1232.37 315.483 1232.53 315.11C1232.72 314.737 1232.81 314.165 1232.81 313.395V292.605ZM1241.42 303.245C1241.42 300.445 1241.89 297.925 1242.82 295.685C1243.78 293.422 1245.12 291.648 1246.85 290.365C1248.57 289.082 1250.54 288.44 1252.76 288.44C1255.07 288.44 1256.98 289.163 1258.5 290.61C1258.69 290.797 1258.87 290.89 1259.06 290.89C1259.32 290.89 1259.47 290.692 1259.52 290.295L1259.69 288.755H1260.5L1261.02 298.66H1260.22C1259.19 292.873 1256.91 289.98 1253.39 289.98C1251.8 289.98 1250.43 290.54 1249.26 291.66C1248.09 292.757 1247.21 294.273 1246.6 296.21C1245.99 298.147 1245.69 300.34 1245.69 302.79C1245.69 305.24 1245.99 307.433 1246.6 309.37C1247.23 311.283 1248.12 312.788 1249.26 313.885C1250.43 314.958 1251.8 315.495 1253.39 315.495C1255.44 315.495 1257.11 314.597 1258.4 312.8C1259.7 310.98 1260.55 308.588 1260.95 305.625H1261.97C1261.62 309.405 1260.62 312.345 1258.99 314.445C1257.38 316.522 1255.13 317.56 1252.24 317.56C1250 317.56 1248.06 316.93 1246.43 315.67C1244.79 314.41 1243.54 312.695 1242.68 310.525C1241.84 308.355 1241.42 305.928 1241.42 303.245ZM1289.12 289.84C1288.02 289.84 1287.21 289.922 1286.67 290.085C1286.16 290.248 1285.81 290.517 1285.62 290.89C1285.46 291.263 1285.38 291.835 1285.38 292.605V313.395C1285.38 314.165 1285.46 314.737 1285.62 315.11C1285.81 315.483 1286.16 315.752 1286.67 315.915C1287.21 316.078 1288.02 316.16 1289.12 316.16V317H1277.92V316.16C1278.95 316.16 1279.71 316.078 1280.2 315.915C1280.71 315.752 1281.05 315.483 1281.21 315.11C1281.37 314.737 1281.46 314.165 1281.46 313.395V302.965H1270.61V313.395C1270.61 314.165 1270.69 314.737 1270.85 315.11C1271.01 315.483 1271.34 315.752 1271.83 315.915C1272.32 316.078 1273.08 316.16 1274.11 316.16V317H1262.94V316.16C1264.04 316.16 1264.84 316.078 1265.36 315.915C1265.87 315.752 1266.21 315.483 1266.37 315.11C1266.56 314.737 1266.65 314.165 1266.65 313.395V292.605C1266.65 291.835 1266.56 291.263 1266.37 290.89C1266.21 290.517 1265.87 290.248 1265.36 290.085C1264.84 289.922 1264.04 289.84 1262.94 289.84V289H1274.11V289.84C1273.08 289.84 1272.32 289.922 1271.83 290.085C1271.34 290.248 1271.01 290.517 1270.85 290.89C1270.69 291.263 1270.61 291.835 1270.61 292.605V301.46H1281.46V292.605C1281.46 291.835 1281.37 291.263 1281.21 290.89C1281.05 290.517 1280.71 290.248 1280.2 290.085C1279.71 289.922 1278.95 289.84 1277.92 289.84V289H1289.12V289.84ZM1308.87 290.05L1309.53 296.07L1308.55 296.175C1308.36 294.565 1308.13 293.375 1307.85 292.605C1307.59 291.812 1307.23 291.275 1306.77 290.995C1306.3 290.715 1305.62 290.575 1304.74 290.575H1299.73C1299.19 290.575 1298.79 290.715 1298.51 290.995C1298.23 291.275 1298.09 291.683 1298.09 292.22V301.845H1302.43C1303.17 301.845 1303.72 301.752 1304.07 301.565C1304.44 301.355 1304.7 300.97 1304.84 300.41C1305 299.827 1305.09 298.928 1305.09 297.715H1305.89V307.2H1305.09C1305.09 306.01 1305 305.135 1304.84 304.575C1304.7 303.992 1304.44 303.607 1304.07 303.42C1303.72 303.21 1303.17 303.105 1302.43 303.105H1298.09V313.43C1298.09 314.247 1298.19 314.783 1298.4 315.04C1298.61 315.297 1299.05 315.425 1299.73 315.425H1304.7C1305.61 315.425 1306.35 315.262 1306.91 314.935C1307.47 314.608 1307.96 314.002 1308.38 313.115C1308.82 312.205 1309.27 310.852 1309.74 309.055L1310.72 309.335L1309.01 315.985L1308.73 317H1290.42V316.16C1291.52 316.16 1292.32 316.078 1292.84 315.915C1293.35 315.752 1293.69 315.483 1293.85 315.11C1294.04 314.737 1294.13 314.165 1294.13 313.395V292.605C1294.13 291.835 1294.04 291.263 1293.85 290.89C1293.69 290.517 1293.35 290.248 1292.84 290.085C1292.32 289.922 1291.52 289.84 1290.42 289.84V289H1308.76L1308.87 290.05ZM1323.53 289.84C1322.44 289.84 1321.62 289.922 1321.08 290.085C1320.57 290.248 1320.22 290.517 1320.03 290.89C1319.87 291.263 1319.79 291.835 1319.79 292.605V313.115C1319.79 313.792 1319.85 314.293 1319.96 314.62C1320.08 314.923 1320.29 315.133 1320.59 315.25C1320.9 315.367 1321.35 315.425 1321.96 315.425H1326.19C1327.13 315.425 1327.86 315.262 1328.4 314.935C1328.96 314.585 1329.44 313.943 1329.83 313.01C1330.25 312.053 1330.69 310.63 1331.13 308.74L1332.11 308.985L1330.5 316.02L1330.29 317H1312.12V316.16C1313.22 316.16 1314.03 316.078 1314.54 315.915C1315.05 315.752 1315.39 315.483 1315.55 315.11C1315.74 314.737 1315.83 314.165 1315.83 313.395V292.605C1315.83 291.835 1315.74 291.263 1315.55 290.89C1315.39 290.517 1315.05 290.248 1314.54 290.085C1314.03 289.922 1313.22 289.84 1312.12 289.84V289H1323.53V289.84ZM1344.45 289.84C1343.36 289.84 1342.54 289.922 1342 290.085C1341.49 290.248 1341.14 290.517 1340.95 290.89C1340.79 291.263 1340.71 291.835 1340.71 292.605V313.115C1340.71 313.792 1340.77 314.293 1340.88 314.62C1341 314.923 1341.21 315.133 1341.51 315.25C1341.82 315.367 1342.27 315.425 1342.88 315.425H1347.11C1348.05 315.425 1348.78 315.262 1349.32 314.935C1349.88 314.585 1350.36 313.943 1350.75 313.01C1351.17 312.053 1351.6 310.63 1352.05 308.74L1353.03 308.985L1351.42 316.02L1351.21 317H1333.04V316.16C1334.14 316.16 1334.94 316.078 1335.46 315.915C1335.97 315.752 1336.31 315.483 1336.47 315.11C1336.66 314.737 1336.75 314.165 1336.75 313.395V292.605C1336.75 291.835 1336.66 291.263 1336.47 290.89C1336.31 290.517 1335.97 290.248 1335.46 290.085C1334.94 289.922 1334.14 289.84 1333.04 289.84V289H1344.45V289.84ZM1372.41 290.05L1373.07 296.07L1372.09 296.175C1371.9 294.565 1371.67 293.375 1371.39 292.605C1371.13 291.812 1370.77 291.275 1370.31 290.995C1369.84 290.715 1369.16 290.575 1368.28 290.575H1363.27C1362.73 290.575 1362.33 290.715 1362.05 290.995C1361.77 291.275 1361.63 291.683 1361.63 292.22V301.845H1365.97C1366.71 301.845 1367.26 301.752 1367.61 301.565C1367.98 301.355 1368.24 300.97 1368.38 300.41C1368.54 299.827 1368.63 298.928 1368.63 297.715H1369.43V307.2H1368.63C1368.63 306.01 1368.54 305.135 1368.38 304.575C1368.24 303.992 1367.98 303.607 1367.61 303.42C1367.26 303.21 1366.71 303.105 1365.97 303.105H1361.63V313.43C1361.63 314.247 1361.73 314.783 1361.94 315.04C1362.15 315.297 1362.59 315.425 1363.27 315.425H1368.24C1369.15 315.425 1369.89 315.262 1370.45 314.935C1371.01 314.608 1371.5 314.002 1371.92 313.115C1372.36 312.205 1372.81 310.852 1373.28 309.055L1374.26 309.335L1372.55 315.985L1372.27 317H1353.96V316.16C1355.06 316.16 1355.86 316.078 1356.38 315.915C1356.89 315.752 1357.23 315.483 1357.39 315.11C1357.58 314.737 1357.67 314.165 1357.67 313.395V292.605C1357.67 291.835 1357.58 291.263 1357.39 290.89C1357.23 290.517 1356.89 290.248 1356.38 290.085C1355.86 289.922 1355.06 289.84 1353.96 289.84V289H1372.3L1372.41 290.05Z" fill="#EE5128"/>
<path d="M74.71 79.905C74.3367 81.1417 73.7533 82.1217 72.96 82.845C72.19 83.5683 71.21 83.93 70.02 83.93C69.25 83.93 68.5033 83.825 67.78 83.615C67.0567 83.4283 66.1233 83.1367 64.98 82.74C63.79 82.32 62.775 81.9933 61.935 81.76C61.095 81.55 60.22 81.445 59.31 81.445C57.84 81.445 56.2417 81.76 54.515 82.39L53.815 79.94C55.0283 79.7067 56.3583 79.38 57.805 78.96C59.275 78.54 60.64 78.0733 61.9 77.56C59.8 77.5133 57.9333 76.8483 56.3 75.565C54.69 74.2583 53.4417 72.5083 52.555 70.315C51.6683 68.1217 51.225 65.6833 51.225 63C51.225 60.2933 51.68 57.8317 52.59 55.615C53.5 53.3983 54.7717 51.66 56.405 50.4C58.0617 49.1167 59.9517 48.475 62.075 48.475C64.2217 48.475 66.1233 49.1167 67.78 50.4C69.46 51.6833 70.755 53.4333 71.665 55.65C72.575 57.8667 73.03 60.3283 73.03 63.035C73.03 65.345 72.7033 67.4683 72.05 69.405C71.3967 71.3417 70.475 72.975 69.285 74.305H69.32C68.5033 75.285 67.325 76.195 65.785 77.035C64.245 77.875 62.6583 78.575 61.025 79.135C59.415 79.695 58.05 80.0917 56.93 80.325L57 80.605C59.0767 80.255 60.8383 80.08 62.285 80.08C63.4517 80.08 64.9217 80.2433 66.695 80.57C66.8117 80.5933 67.2317 80.6633 67.955 80.78C68.6783 80.92 69.3667 80.99 70.02 80.99C71.0233 80.99 71.8283 80.8617 72.435 80.605C73.065 80.3483 73.59 79.9167 74.01 79.31L74.71 79.905ZM55.25 60.025C55.25 62.615 55.5417 65.1467 56.125 67.62C56.7317 70.0933 57.6067 72.1233 58.75 73.71C59.9167 75.2733 61.305 76.055 62.915 76.055C64.1983 76.055 65.295 75.5883 66.205 74.655C67.1383 73.7217 67.8383 72.4967 68.305 70.98C68.7717 69.44 69.005 67.7717 69.005 65.975C69.005 63.4083 68.7017 60.9 68.095 58.45C67.5117 55.9767 66.6367 53.9467 65.47 52.36C64.3033 50.7733 62.9267 49.98 61.34 49.98C60.08 49.98 58.9833 50.4467 58.05 51.38C57.14 52.3133 56.44 53.55 55.95 55.09C55.4833 56.63 55.25 58.275 55.25 60.025ZM86.7098 77.56C83.5131 77.56 81.1681 76.6733 79.6748 74.9C78.1815 73.1033 77.4348 70.6883 77.4348 67.655V52.605C77.4348 51.835 77.3415 51.2633 77.1548 50.89C76.9915 50.5167 76.6531 50.2483 76.1398 50.085C75.6265 49.9217 74.8215 49.84 73.7248 49.84V49H85.1348V49.84C84.0381 49.84 83.2215 49.9217 82.6848 50.085C82.1715 50.2483 81.8215 50.5167 81.6348 50.89C81.4715 51.2633 81.3898 51.835 81.3898 52.605V67.655C81.3898 70.4317 81.9031 72.4617 82.9298 73.745C83.9798 75.005 85.5548 75.635 87.6548 75.635C89.6615 75.635 91.2015 74.97 92.2748 73.64C93.3715 72.2867 93.9198 70.2567 93.9198 67.55V52.605C93.9198 51.835 93.8265 51.2633 93.6398 50.89C93.4765 50.5167 93.1265 50.2483 92.5898 50.085C92.0765 49.9217 91.2715 49.84 90.1748 49.84V49H99.2048V49.84C98.1081 49.84 97.2915 49.9217 96.7548 50.085C96.2415 50.2483 95.8915 50.5167 95.7048 50.89C95.5415 51.2633 95.4598 51.835 95.4598 52.605V67.55C95.4598 70.49 94.7948 72.8933 93.4648 74.76C92.1348 76.6267 89.8831 77.56 86.7098 77.56ZM110.544 77.56C108.398 77.56 106.484 76.9183 104.804 75.635C103.148 74.3517 101.864 72.6017 100.954 70.385C100.044 68.1683 99.5893 65.7067 99.5893 63C99.5893 60.2933 100.044 57.8317 100.954 55.615C101.864 53.3983 103.136 51.66 104.769 50.4C106.426 49.1167 108.316 48.475 110.439 48.475C112.586 48.475 114.488 49.1167 116.144 50.4C117.824 51.6833 119.119 53.4333 120.029 55.65C120.939 57.8667 121.394 60.3283 121.394 63.035C121.394 65.765 120.939 68.2383 120.029 70.455C119.143 72.6483 117.871 74.3867 116.214 75.67C114.581 76.93 112.691 77.56 110.544 77.56ZM111.279 76.055C112.563 76.055 113.659 75.5883 114.569 74.655C115.503 73.7217 116.203 72.4967 116.669 70.98C117.136 69.44 117.369 67.7717 117.369 65.975C117.369 63.4083 117.066 60.9 116.459 58.45C115.876 55.9767 115.001 53.9467 113.834 52.36C112.668 50.7733 111.291 49.98 109.704 49.98C108.444 49.98 107.348 50.4467 106.414 51.38C105.504 52.3133 104.804 53.55 104.314 55.09C103.848 56.63 103.614 58.275 103.614 60.025C103.614 62.615 103.906 65.1467 104.489 67.62C105.096 70.0933 105.971 72.1233 107.114 73.71C108.281 75.2733 109.669 76.055 111.279 76.055ZM127.409 50.575C126.499 50.575 125.799 50.715 125.309 50.995C124.842 51.2517 124.481 51.7767 124.224 52.57C123.967 53.3633 123.781 54.565 123.664 56.175L122.649 56.105L123.104 50.05L123.209 49H142.494L142.564 50.05L143.019 56.105L142.039 56.175C141.899 54.5417 141.701 53.34 141.444 52.57C141.187 51.7767 140.814 51.2517 140.324 50.995C139.857 50.715 139.169 50.575 138.259 50.575H135.984C135.611 50.575 135.319 50.68 135.109 50.89C134.922 51.1 134.829 51.3917 134.829 51.765V73.395C134.829 74.165 134.911 74.7367 135.074 75.11C135.261 75.4833 135.611 75.7517 136.124 75.915C136.637 76.0783 137.442 76.16 138.539 76.16V77H127.129V76.16C128.226 76.16 129.031 76.0783 129.544 75.915C130.081 75.7517 130.431 75.4833 130.594 75.11C130.781 74.7367 130.874 74.165 130.874 73.395V51.765C130.874 50.9717 130.477 50.575 129.684 50.575H127.409ZM162.899 50.05L163.564 56.07L162.584 56.175C162.397 54.565 162.164 53.375 161.884 52.605C161.627 51.8117 161.266 51.275 160.799 50.995C160.332 50.715 159.656 50.575 158.769 50.575H153.764C153.227 50.575 152.819 50.715 152.539 50.995C152.259 51.275 152.119 51.6833 152.119 52.22V61.845H156.459C157.206 61.845 157.754 61.7517 158.104 61.565C158.477 61.355 158.734 60.97 158.874 60.41C159.037 59.8267 159.119 58.9283 159.119 57.715H159.924V67.2H159.119C159.119 66.01 159.037 65.135 158.874 64.575C158.734 63.9917 158.477 63.6067 158.104 63.42C157.754 63.21 157.206 63.105 156.459 63.105H152.119V73.43C152.119 74.2467 152.224 74.7833 152.434 75.04C152.644 75.2967 153.087 75.425 153.764 75.425H158.734C159.644 75.425 160.379 75.2617 160.939 74.935C161.499 74.6083 161.989 74.0017 162.409 73.115C162.852 72.205 163.307 70.8517 163.774 69.055L164.754 69.335L163.039 75.985L162.759 77H144.454V76.16C145.551 76.16 146.356 76.0783 146.869 75.915C147.382 75.7517 147.721 75.4833 147.884 75.11C148.071 74.7367 148.164 74.165 148.164 73.395V52.605C148.164 51.835 148.071 51.2633 147.884 50.89C147.721 50.5167 147.382 50.2483 146.869 50.085C146.356 49.9217 145.551 49.84 144.454 49.84V49H162.794L162.899 50.05Z" fill="#EE5128"/>
<path d="M318.111 99.67C319.108 99.67 319.91 100.017 320.516 100.71C321.123 101.36 321.426 102.205 321.426 103.245C321.426 104.372 321.015 105.325 320.191 106.105C319.411 106.885 318.35 107.275 317.006 107.275C315.576 107.275 314.385 106.755 313.431 105.715C312.478 104.632 312.001 103.223 312.001 101.49C312.001 99.54 312.673 97.7633 314.016 96.16C315.36 94.5567 317.396 93.3433 320.126 92.52V94.21C318.35 94.6867 316.963 95.4233 315.966 96.42C314.97 97.4167 314.471 98.4567 314.471 99.54C314.471 99.93 314.536 100.233 314.666 100.45C314.84 100.667 315.035 100.775 315.251 100.775C315.425 100.775 315.771 100.602 316.291 100.255C316.811 99.865 317.418 99.67 318.111 99.67ZM330.591 99.67C331.588 99.67 332.39 100.017 332.996 100.71C333.603 101.36 333.906 102.205 333.906 103.245C333.906 104.372 333.495 105.325 332.671 106.105C331.891 106.885 330.83 107.275 329.486 107.275C328.056 107.275 326.865 106.755 325.911 105.715C324.958 104.632 324.481 103.223 324.481 101.49C324.481 99.54 325.153 97.7633 326.496 96.16C327.84 94.5567 329.876 93.3433 332.606 92.52V94.21C330.83 94.6867 329.443 95.4233 328.446 96.42C327.45 97.4167 326.951 98.4567 326.951 99.54C326.951 99.93 327.016 100.233 327.146 100.45C327.32 100.667 327.515 100.775 327.731 100.775C327.948 100.775 328.295 100.602 328.771 100.255C329.291 99.865 329.898 99.67 330.591 99.67ZM354.297 145.04C352.391 145.04 350.549 144.65 348.772 143.87C346.996 143.09 345.436 142.028 344.092 140.685C343.616 140.208 343.204 139.97 342.857 139.97C342.424 139.97 342.142 140.382 342.012 141.205L341.427 144.195H339.802L339.932 124.76H341.622C341.796 127.923 342.424 130.848 343.507 133.535C344.591 136.222 346.064 138.367 347.927 139.97C349.791 141.53 351.871 142.31 354.167 142.31C356.767 142.31 358.739 141.487 360.082 139.84C361.469 138.15 362.162 136.178 362.162 133.925C362.162 132.062 361.729 130.35 360.862 128.79C359.996 127.187 358.869 125.757 357.482 124.5C356.139 123.2 354.384 121.727 352.217 120.08C349.401 117.913 347.212 116.137 345.652 114.75C344.092 113.32 342.792 111.673 341.752 109.81C340.756 107.903 340.257 105.758 340.257 103.375C340.257 100.862 340.821 98.6733 341.947 96.81C343.074 94.9033 344.612 93.4517 346.562 92.455C348.512 91.4583 350.722 90.96 353.192 90.96C355.012 90.96 356.616 91.2417 358.002 91.805C359.389 92.325 360.667 93.1483 361.837 94.275C362.314 94.665 362.704 94.86 363.007 94.86C363.571 94.86 363.917 94.4267 364.047 93.56L364.372 91.61H365.932L366.712 108.705H365.087C364.741 104.415 363.571 100.84 361.577 97.98C359.584 95.0767 356.941 93.625 353.647 93.625C351.351 93.625 349.531 94.3617 348.187 95.835C346.887 97.265 346.237 99.0417 346.237 101.165C346.237 102.768 346.606 104.242 347.342 105.585C348.122 106.928 349.162 108.207 350.462 109.42C351.806 110.633 353.669 112.128 356.052 113.905C358.782 115.898 360.971 117.697 362.617 119.3C364.264 120.86 365.586 122.637 366.582 124.63C367.622 126.623 368.142 128.877 368.142 131.39C368.142 134.077 367.536 136.46 366.322 138.54C365.152 140.577 363.506 142.18 361.382 143.35C359.302 144.477 356.941 145.04 354.297 145.04ZM377.312 98.695C377.312 97.265 377.139 96.2033 376.792 95.51C376.489 94.8167 375.86 94.3183 374.907 94.015C373.954 93.7117 372.459 93.56 370.422 93.56V92H391.612V93.56C389.575 93.56 388.059 93.7117 387.062 94.015C386.109 94.3183 385.459 94.8167 385.112 95.51C384.809 96.2033 384.657 97.265 384.657 98.695V137.305C384.657 138.735 384.809 139.797 385.112 140.49C385.459 141.183 386.109 141.682 387.062 141.985C388.059 142.288 389.575 142.44 391.612 142.44V144H370.422V142.44C372.459 142.44 373.954 142.288 374.907 141.985C375.86 141.682 376.489 141.183 376.792 140.49C377.139 139.797 377.312 138.735 377.312 137.305V98.695ZM431.812 137.63C432.506 139.58 433.307 140.88 434.217 141.53C435.171 142.137 436.709 142.44 438.832 142.44V144H419.072V142.44C421.282 142.44 422.799 142.288 423.622 141.985C424.446 141.682 424.857 141.118 424.857 140.295C424.857 139.818 424.662 138.908 424.272 137.565L421.152 127.555H403.732L400.547 137.63C400.114 138.93 399.897 139.84 399.897 140.36C399.897 141.14 400.309 141.682 401.132 141.985C401.956 142.288 403.429 142.44 405.552 142.44V144H390.862V142.44C392.942 142.44 394.437 142.137 395.347 141.53C396.257 140.88 397.037 139.58 397.687 137.63L412.897 91.22H416.472L431.812 137.63ZM412.377 100.58L404.577 125.02H420.307L412.637 100.58H412.377ZM441.98 94.925C440.29 94.925 438.99 95.185 438.08 95.705C437.213 96.1817 436.542 97.1567 436.065 98.63C435.588 100.103 435.242 102.335 435.025 105.325L433.14 105.195L433.985 93.95L434.18 92H469.995L470.125 93.95L470.97 105.195L469.15 105.325C468.89 102.292 468.522 100.06 468.045 98.63C467.568 97.1567 466.875 96.1817 465.965 95.705C465.098 95.185 463.82 94.925 462.13 94.925H457.905C457.212 94.925 456.67 95.12 456.28 95.51C455.933 95.9 455.76 96.4417 455.76 97.135V137.305C455.76 138.735 455.912 139.797 456.215 140.49C456.562 141.183 457.212 141.682 458.165 141.985C459.118 142.288 460.613 142.44 462.65 142.44V144H441.46V142.44C443.497 142.44 444.992 142.288 445.945 141.985C446.942 141.682 447.592 141.183 447.895 140.49C448.242 139.797 448.415 138.735 448.415 137.305V97.135C448.415 95.6617 447.678 94.925 446.205 94.925H441.98ZM494.89 102.01C493.677 102.01 492.659 101.642 491.835 100.905C491.055 100.125 490.665 99.1717 490.665 98.045C490.665 96.875 491.055 95.9217 491.835 95.185C492.659 94.405 493.677 94.015 494.89 94.015C496.104 94.015 497.1 94.405 497.88 95.185C498.66 95.9217 499.05 96.875 499.05 98.045C499.05 99.1717 498.66 100.125 497.88 100.905C497.1 101.642 496.104 102.01 494.89 102.01ZM498.53 137.305C498.53 138.778 498.639 139.862 498.855 140.555C499.072 141.248 499.505 141.747 500.155 142.05C500.805 142.31 501.802 142.44 503.145 142.44V144H487.675V142.44C489.019 142.44 490.015 142.31 490.665 142.05C491.315 141.747 491.749 141.248 491.965 140.555C492.182 139.862 492.29 138.778 492.29 137.305V117.285C492.29 115.552 492.225 114.382 492.095 113.775C491.965 113.168 491.575 112.865 490.925 112.865C490.449 112.865 489.625 113.103 488.455 113.58L487.87 112.085L497.425 108.25L498.53 109.225V137.305ZM517.398 145.04C514.842 145.04 512.48 144.26 510.313 142.7C510.01 142.44 509.707 142.31 509.403 142.31C509.1 142.31 508.818 142.548 508.558 143.025L508.038 144.325H506.608L506.153 130.285H507.583C508.06 134.055 509.122 137.002 510.768 139.125C512.458 141.248 514.452 142.31 516.748 142.31C518.265 142.31 519.413 141.833 520.193 140.88C521.017 139.927 521.428 138.605 521.428 136.915C521.428 135.918 521.233 135.073 520.843 134.38C520.453 133.643 519.782 132.842 518.828 131.975C517.875 131.065 516.272 129.7 514.018 127.88C511.202 125.67 509.252 123.807 508.168 122.29C507.128 120.773 506.608 119.105 506.608 117.285C506.608 114.642 507.453 112.497 509.143 110.85C510.877 109.203 513.043 108.38 515.643 108.38C517.94 108.38 519.977 109.117 521.753 110.59C522.057 110.893 522.36 111.045 522.663 111.045C523.053 111.045 523.313 110.785 523.443 110.265L523.833 108.835H525.328L525.588 120.21H524.158C523.768 117.567 522.858 115.4 521.428 113.71C519.998 111.977 518.243 111.11 516.163 111.11C514.863 111.11 513.823 111.522 513.043 112.345C512.263 113.125 511.873 114.165 511.873 115.465C511.873 116.722 512.285 117.827 513.108 118.78C513.932 119.733 515.6 121.207 518.113 123.2C521.32 125.713 523.552 127.815 524.808 129.505C526.108 131.195 526.758 133.21 526.758 135.55C526.758 138.627 525.87 140.988 524.093 142.635C522.317 144.238 520.085 145.04 517.398 145.04ZM554.19 137.305C554.19 138.778 554.299 139.862 554.515 140.555C554.732 141.248 555.144 141.747 555.75 142.05C556.4 142.31 557.397 142.44 558.74 142.44V144H543.27V142.44C544.614 142.44 545.61 142.31 546.26 142.05C546.91 141.747 547.344 141.248 547.56 140.555C547.777 139.862 547.885 138.778 547.885 137.305V99.735C547.885 98.1317 547.82 97.07 547.69 96.55C547.604 95.9867 547.3 95.705 546.78 95.705C546.217 95.705 545.285 96.03 543.985 96.68L543.335 95.25L553.215 90.44L554.19 91.35V137.305ZM568.841 102.01C567.627 102.01 566.609 101.642 565.786 100.905C565.006 100.125 564.616 99.1717 564.616 98.045C564.616 96.875 565.006 95.9217 565.786 95.185C566.609 94.405 567.627 94.015 568.841 94.015C570.054 94.015 571.051 94.405 571.831 95.185C572.611 95.9217 573.001 96.875 573.001 98.045C573.001 99.1717 572.611 100.125 571.831 100.905C571.051 101.642 570.054 102.01 568.841 102.01ZM572.481 137.305C572.481 138.778 572.589 139.862 572.806 140.555C573.022 141.248 573.456 141.747 574.106 142.05C574.756 142.31 575.752 142.44 577.096 142.44V144H561.626V142.44C562.969 142.44 563.966 142.31 564.616 142.05C565.266 141.747 565.699 141.248 565.916 140.555C566.132 139.862 566.241 138.778 566.241 137.305V117.285C566.241 115.552 566.176 114.382 566.046 113.775C565.916 113.168 565.526 112.865 564.876 112.865C564.399 112.865 563.576 113.103 562.406 113.58L561.821 112.085L571.376 108.25L572.481 109.225V137.305ZM590.308 137.305C590.308 138.778 590.395 139.862 590.568 140.555C590.785 141.248 591.153 141.747 591.673 142.05C592.237 142.31 593.125 142.44 594.338 142.44V144H579.388V142.44C580.732 142.44 581.728 142.31 582.378 142.05C583.028 141.747 583.462 141.248 583.678 140.555C583.895 139.862 584.003 138.778 584.003 137.305V99.735C584.003 98.1317 583.938 97.07 583.808 96.55C583.722 95.9867 583.418 95.705 582.898 95.705C582.335 95.705 581.403 96.03 580.103 96.68L579.453 95.25L589.333 90.44L590.308 91.35V137.305ZM606.688 138.15C607.685 139.883 608.638 141.032 609.548 141.595C610.502 142.158 611.715 142.44 613.188 142.44V144H597.653V142.44C598.91 142.44 599.777 142.375 600.253 142.245C600.773 142.115 601.033 141.855 601.033 141.465C601.033 141.118 600.817 140.577 600.383 139.84C599.993 139.06 599.69 138.497 599.473 138.15L591.673 124.37L599.018 115.27C599.972 114.143 600.448 113.255 600.448 112.605C600.448 112.085 600.123 111.717 599.473 111.5C598.867 111.24 597.913 111.11 596.613 111.11V109.55H611.368V111.11C609.678 111.11 608.248 111.348 607.078 111.825C605.952 112.258 604.76 113.212 603.503 114.685L597.458 121.965L606.688 138.15ZM636.396 130.09C635.746 135.16 634.381 138.93 632.301 141.4C630.265 143.827 627.665 145.04 624.501 145.04C622.075 145.04 619.951 144.325 618.131 142.895C616.355 141.422 614.968 139.363 613.971 136.72C613.018 134.033 612.541 130.913 612.541 127.36C612.541 123.893 613.04 120.73 614.036 117.87C615.033 114.967 616.441 112.67 618.261 110.98C620.125 109.247 622.313 108.38 624.826 108.38C628.466 108.38 631.24 109.918 633.146 112.995C635.053 116.028 636.006 120.037 636.006 125.02H618.846V125.15C618.846 129.7 619.54 133.362 620.926 136.135C622.313 138.865 624.328 140.23 626.971 140.23C628.661 140.23 630.2 139.45 631.586 137.89C633.016 136.33 634.1 133.73 634.836 130.09H636.396ZM624.826 111.11C621.316 111.11 619.345 114.858 618.911 122.355H629.766C629.766 114.858 628.12 111.11 624.826 111.11ZM682.654 136.655C682.437 142.245 680.422 145.04 676.609 145.04C672.665 145.04 670.694 142.202 670.694 136.525V135.355C669.957 138.432 668.744 140.815 667.054 142.505C665.407 144.195 663.414 145.04 661.074 145.04C658.82 145.04 657.044 144.325 655.744 142.895C654.487 141.422 653.859 139.58 653.859 137.37C653.859 134.987 654.595 132.928 656.069 131.195C657.542 129.418 659.297 127.945 661.334 126.775C663.414 125.605 666.079 124.283 669.329 122.81L670.694 122.225V118.455C670.694 115.768 670.26 113.84 669.394 112.67C668.57 111.5 667.335 110.915 665.689 110.915C664.389 110.915 663.327 111.24 662.504 111.89C661.724 112.497 661.334 113.32 661.334 114.36C661.334 114.75 661.399 115.14 661.529 115.53C661.659 115.92 661.745 116.158 661.789 116.245C662.092 116.938 662.244 117.588 662.244 118.195C662.244 119.105 661.962 119.842 661.399 120.405C660.835 120.925 660.055 121.185 659.059 121.185C657.932 121.185 657.044 120.817 656.394 120.08C655.787 119.343 655.484 118.368 655.484 117.155C655.484 115.552 655.96 114.078 656.914 112.735C657.91 111.392 659.254 110.33 660.944 109.55C662.677 108.727 664.605 108.315 666.729 108.315C669.935 108.315 672.427 109.225 674.204 111.045C676.024 112.822 676.934 115.443 676.934 118.91V138.085C676.934 139.602 677.064 140.642 677.324 141.205C677.627 141.768 678.06 142.05 678.624 142.05C680.184 142.05 681.029 140.252 681.159 136.655H682.654ZM663.609 140.1C664.995 140.1 666.317 139.428 667.574 138.085C668.83 136.742 669.87 134.727 670.694 132.04V124.37C667.314 126.103 664.692 127.815 662.829 129.505C661.009 131.152 660.099 133.188 660.099 135.615C660.099 137.002 660.402 138.107 661.009 138.93C661.615 139.71 662.482 140.1 663.609 140.1ZM741.724 137.305C741.724 138.778 741.833 139.862 742.049 140.555C742.266 141.248 742.656 141.747 743.219 142.05C743.826 142.31 744.779 142.44 746.079 142.44V144H731.714V142.44C732.841 142.44 733.664 142.31 734.184 142.05C734.704 141.747 735.051 141.248 735.224 140.555C735.398 139.862 735.484 138.778 735.484 137.305V118.065C735.484 114.642 734.271 112.93 731.844 112.93C730.718 112.93 729.613 113.32 728.529 114.1C727.446 114.88 726.319 116.05 725.149 117.61V117.74V137.305C725.149 138.778 725.236 139.862 725.409 140.555C725.583 141.248 725.929 141.747 726.449 142.05C726.969 142.31 727.793 142.44 728.919 142.44V144H715.074V142.44C716.201 142.44 717.024 142.31 717.544 142.05C718.108 141.747 718.476 141.248 718.649 140.555C718.823 139.862 718.909 138.778 718.909 137.305V118.065C718.909 114.642 717.696 112.93 715.269 112.93C714.099 112.93 712.951 113.342 711.824 114.165C710.741 114.988 709.593 116.223 708.379 117.87V137.305C708.379 138.778 708.466 139.862 708.639 140.555C708.813 141.248 709.159 141.747 709.679 142.05C710.243 142.31 711.088 142.44 712.214 142.44V144H697.719V142.44C699.019 142.44 699.973 142.31 700.579 142.05C701.186 141.747 701.598 141.248 701.814 140.555C702.031 139.862 702.139 138.778 702.139 137.305V117.285C702.139 115.552 702.074 114.403 701.944 113.84C701.814 113.233 701.446 112.93 700.839 112.93C700.363 112.93 699.518 113.168 698.304 113.645L697.654 112.215L707.144 108.25L708.379 109.225V115.205H708.574C710.004 113.038 711.456 111.37 712.929 110.2C714.446 108.987 716.223 108.38 718.259 108.38C720.166 108.38 721.683 108.965 722.809 110.135C723.936 111.305 724.673 112.995 725.019 115.205H725.214C726.601 113.038 728.031 111.37 729.504 110.2C731.021 108.987 732.798 108.38 734.834 108.38C737.088 108.38 738.799 109.182 739.969 110.785C741.139 112.388 741.724 114.707 741.724 117.74V137.305ZM772.3 130.09C771.65 135.16 770.285 138.93 768.205 141.4C766.168 143.827 763.568 145.04 760.405 145.04C757.978 145.04 755.855 144.325 754.035 142.895C752.258 141.422 750.871 139.363 749.875 136.72C748.921 134.033 748.445 130.913 748.445 127.36C748.445 123.893 748.943 120.73 749.94 117.87C750.936 114.967 752.345 112.67 754.165 110.98C756.028 109.247 758.216 108.38 760.73 108.38C764.37 108.38 767.143 109.918 769.05 112.995C770.956 116.028 771.91 120.037 771.91 125.02H754.75V125.15C754.75 129.7 755.443 133.362 756.83 136.135C758.216 138.865 760.231 140.23 762.875 140.23C764.565 140.23 766.103 139.45 767.49 137.89C768.92 136.33 770.003 133.73 770.74 130.09H772.3ZM760.73 111.11C757.22 111.11 755.248 114.858 754.815 122.355H765.67C765.67 114.858 764.023 111.11 760.73 111.11ZM787.681 145.04C785.125 145.04 782.763 144.26 780.596 142.7C780.293 142.44 779.99 142.31 779.686 142.31C779.383 142.31 779.101 142.548 778.841 143.025L778.321 144.325H776.891L776.436 130.285H777.866C778.343 134.055 779.405 137.002 781.051 139.125C782.741 141.248 784.735 142.31 787.031 142.31C788.548 142.31 789.696 141.833 790.476 140.88C791.3 139.927 791.711 138.605 791.711 136.915C791.711 135.918 791.516 135.073 791.126 134.38C790.736 133.643 790.065 132.842 789.111 131.975C788.158 131.065 786.555 129.7 784.301 127.88C781.485 125.67 779.535 123.807 778.451 122.29C777.411 120.773 776.891 119.105 776.891 117.285C776.891 114.642 777.736 112.497 779.426 110.85C781.16 109.203 783.326 108.38 785.926 108.38C788.223 108.38 790.26 109.117 792.036 110.59C792.34 110.893 792.643 111.045 792.946 111.045C793.336 111.045 793.596 110.785 793.726 110.265L794.116 108.835H795.611L795.871 120.21H794.441C794.051 117.567 793.141 115.4 791.711 113.71C790.281 111.977 788.526 111.11 786.446 111.11C785.146 111.11 784.106 111.522 783.326 112.345C782.546 113.125 782.156 114.165 782.156 115.465C782.156 116.722 782.568 117.827 783.391 118.78C784.215 119.733 785.883 121.207 788.396 123.2C791.603 125.713 793.835 127.815 795.091 129.505C796.391 131.195 797.041 133.21 797.041 135.55C797.041 138.627 796.153 140.988 794.376 142.635C792.6 144.238 790.368 145.04 787.681 145.04ZM811.993 145.04C809.436 145.04 807.075 144.26 804.908 142.7C804.605 142.44 804.301 142.31 803.998 142.31C803.695 142.31 803.413 142.548 803.153 143.025L802.633 144.325H801.203L800.748 130.285H802.178C802.655 134.055 803.716 137.002 805.363 139.125C807.053 141.248 809.046 142.31 811.343 142.31C812.86 142.31 814.008 141.833 814.788 140.88C815.611 139.927 816.023 138.605 816.023 136.915C816.023 135.918 815.828 135.073 815.438 134.38C815.048 133.643 814.376 132.842 813.423 131.975C812.47 131.065 810.866 129.7 808.613 127.88C805.796 125.67 803.846 123.807 802.763 122.29C801.723 120.773 801.203 119.105 801.203 117.285C801.203 114.642 802.048 112.497 803.738 110.85C805.471 109.203 807.638 108.38 810.238 108.38C812.535 108.38 814.571 109.117 816.348 110.59C816.651 110.893 816.955 111.045 817.258 111.045C817.648 111.045 817.908 110.785 818.038 110.265L818.428 108.835H819.923L820.183 120.21H818.753C818.363 117.567 817.453 115.4 816.023 113.71C814.593 111.977 812.838 111.11 810.758 111.11C809.458 111.11 808.418 111.522 807.638 112.345C806.858 113.125 806.468 114.165 806.468 115.465C806.468 116.722 806.88 117.827 807.703 118.78C808.526 119.733 810.195 121.207 812.708 123.2C815.915 125.713 818.146 127.815 819.403 129.505C820.703 131.195 821.353 133.21 821.353 135.55C821.353 138.627 820.465 140.988 818.688 142.635C816.911 144.238 814.68 145.04 811.993 145.04ZM848.979 130.09C848.329 135.16 846.964 138.93 844.884 141.4C842.848 143.827 840.248 145.04 837.084 145.04C834.658 145.04 832.534 144.325 830.714 142.895C828.938 141.422 827.551 139.363 826.554 136.72C825.601 134.033 825.124 130.913 825.124 127.36C825.124 123.893 825.623 120.73 826.619 117.87C827.616 114.967 829.024 112.67 830.844 110.98C832.708 109.247 834.896 108.38 837.409 108.38C841.049 108.38 843.823 109.918 845.729 112.995C847.636 116.028 848.589 120.037 848.589 125.02H831.429V125.15C831.429 129.7 832.123 133.362 833.509 136.135C834.896 138.865 836.911 140.23 839.554 140.23C841.244 140.23 842.783 139.45 844.169 137.89C845.599 136.33 846.683 133.73 847.419 130.09H848.979ZM837.409 111.11C833.899 111.11 831.928 114.858 831.494 122.355H842.349C842.349 114.858 840.703 111.11 837.409 111.11ZM883.595 141.4L873.975 145.04L872.61 143.935V138.605H872.35C871.483 140.598 870.292 142.18 868.775 143.35C867.302 144.477 865.547 145.04 863.51 145.04C861.473 145.04 859.697 144.325 858.18 142.895C856.663 141.465 855.493 139.45 854.67 136.85C853.847 134.25 853.435 131.238 853.435 127.815C853.435 124.045 853.912 120.687 854.865 117.74C855.862 114.793 857.248 112.497 859.025 110.85C860.845 109.203 862.925 108.38 865.265 108.38C866.868 108.38 868.298 108.705 869.555 109.355C870.855 110.005 871.873 110.893 872.61 112.02V99.865C872.61 98.2617 872.545 97.1783 872.415 96.615C872.328 96.0517 872.025 95.77 871.505 95.77C870.985 95.77 870.075 96.095 868.775 96.745L868.125 95.38L878.07 90.44L878.915 91.35V136.265C878.915 137.998 878.98 139.168 879.11 139.775C879.283 140.338 879.695 140.62 880.345 140.62C880.822 140.62 881.71 140.382 883.01 139.905L883.595 141.4ZM866.24 140.49C867.583 140.49 868.753 140.057 869.75 139.19C870.747 138.28 871.7 137.002 872.61 135.355V123.33C872.61 119.95 872.09 117.177 871.05 115.01C870.053 112.843 868.58 111.76 866.63 111.76C864.463 111.76 862.838 113.103 861.755 115.79C860.672 118.433 860.13 121.922 860.13 126.255C860.13 130.588 860.628 134.055 861.625 136.655C862.665 139.212 864.203 140.49 866.24 140.49ZM920.438 143.935L920.308 138.41L920.113 138.345C917.297 142.808 913.982 145.04 910.168 145.04C907.958 145.04 906.225 144.217 904.968 142.57C903.712 140.88 903.083 138.583 903.083 135.68V117.35C903.083 115.703 902.975 114.577 902.758 113.97C902.585 113.363 902.152 113.06 901.458 113.06C900.938 113.06 900.093 113.233 898.923 113.58L898.468 112.15L908.478 108.9L909.388 109.745V135.03C909.388 136.937 909.692 138.367 910.298 139.32C910.905 140.23 911.815 140.685 913.028 140.685C914.242 140.685 915.477 140.23 916.733 139.32C917.99 138.41 919.182 137.197 920.308 135.68V117.35C920.308 115.66 920.222 114.533 920.048 113.97C919.875 113.363 919.42 113.06 918.683 113.06C918.163 113.06 917.318 113.233 916.148 113.58L915.693 112.15L925.768 108.9L926.613 109.745V136.265C926.613 137.955 926.7 139.103 926.873 139.71C927.047 140.317 927.458 140.62 928.108 140.62C928.758 140.62 929.647 140.403 930.773 139.97L931.358 141.465L921.738 145.04L920.438 143.935ZM952.9 108.38C956.064 108.38 958.469 109.94 960.115 113.06C961.762 116.137 962.585 120.275 962.585 125.475C962.585 129.072 962.13 132.343 961.22 135.29C960.354 138.193 959.075 140.512 957.385 142.245C955.695 143.935 953.702 144.78 951.405 144.78C949.845 144.78 948.372 144.39 946.985 143.61C945.599 142.787 944.472 141.617 943.605 140.1H943.475V151.605C943.475 153.078 943.584 154.162 943.8 154.855C944.017 155.592 944.45 156.09 945.1 156.35C945.75 156.61 946.747 156.74 948.09 156.74V158.3H932.62V156.74C933.964 156.74 934.939 156.61 935.545 156.35C936.195 156.09 936.629 155.592 936.845 154.855C937.062 154.162 937.17 153.078 937.17 151.605V117.285C937.17 115.508 937.105 114.338 936.975 113.775C936.845 113.168 936.455 112.865 935.805 112.865C935.329 112.865 934.484 113.103 933.27 113.58L932.685 112.085L942.435 108.25L943.475 109.225V114.945H943.735C946.422 110.568 949.477 108.38 952.9 108.38ZM949.78 141.66C951.86 141.66 953.377 140.23 954.33 137.37C955.284 134.51 955.76 130.87 955.76 126.45C955.76 117.393 953.919 112.865 950.235 112.865C948.979 112.865 947.765 113.342 946.595 114.295C945.425 115.248 944.385 116.505 943.475 118.065V129.895C943.475 132.235 943.757 134.315 944.32 136.135C944.884 137.912 945.642 139.277 946.595 140.23C947.549 141.183 948.61 141.66 949.78 141.66ZM999.238 108.38C1002.4 108.38 1004.81 109.94 1006.45 113.06C1008.1 116.137 1008.92 120.275 1008.92 125.475C1008.92 129.072 1008.47 132.343 1007.56 135.29C1006.69 138.193 1005.41 140.512 1003.72 142.245C1002.03 143.935 1000.04 144.78 997.743 144.78C996.183 144.78 994.71 144.39 993.323 143.61C991.936 142.787 990.81 141.617 989.943 140.1H989.813V151.605C989.813 153.078 989.921 154.162 990.138 154.855C990.355 155.592 990.788 156.09 991.438 156.35C992.088 156.61 993.085 156.74 994.428 156.74V158.3H978.958V156.74C980.301 156.74 981.276 156.61 981.883 156.35C982.533 156.09 982.966 155.592 983.183 154.855C983.4 154.162 983.508 153.078 983.508 151.605V117.285C983.508 115.508 983.443 114.338 983.313 113.775C983.183 113.168 982.793 112.865 982.143 112.865C981.666 112.865 980.821 113.103 979.608 113.58L979.023 112.085L988.773 108.25L989.813 109.225V114.945H990.073C992.76 110.568 995.815 108.38 999.238 108.38ZM996.118 141.66C998.198 141.66 999.715 140.23 1000.67 137.37C1001.62 134.51 1002.1 130.87 1002.1 126.45C1002.1 117.393 1000.26 112.865 996.573 112.865C995.316 112.865 994.103 113.342 992.933 114.295C991.763 115.248 990.723 116.505 989.813 118.065V129.895C989.813 132.235 990.095 134.315 990.658 136.135C991.221 137.912 991.98 139.277 992.933 140.23C993.886 141.183 994.948 141.66 996.118 141.66ZM1041.23 136.655C1041.02 142.245 1039 145.04 1035.19 145.04C1031.24 145.04 1029.27 142.202 1029.27 136.525V135.355C1028.54 138.432 1027.32 140.815 1025.63 142.505C1023.99 144.195 1021.99 145.04 1019.65 145.04C1017.4 145.04 1015.62 144.325 1014.32 142.895C1013.07 141.422 1012.44 139.58 1012.44 137.37C1012.44 134.987 1013.17 132.928 1014.65 131.195C1016.12 129.418 1017.88 127.945 1019.91 126.775C1021.99 125.605 1024.66 124.283 1027.91 122.81L1029.27 122.225V118.455C1029.27 115.768 1028.84 113.84 1027.97 112.67C1027.15 111.5 1025.91 110.915 1024.27 110.915C1022.97 110.915 1021.91 111.24 1021.08 111.89C1020.3 112.497 1019.91 113.32 1019.91 114.36C1019.91 114.75 1019.98 115.14 1020.11 115.53C1020.24 115.92 1020.32 116.158 1020.37 116.245C1020.67 116.938 1020.82 117.588 1020.82 118.195C1020.82 119.105 1020.54 119.842 1019.98 120.405C1019.41 120.925 1018.63 121.185 1017.64 121.185C1016.51 121.185 1015.62 120.817 1014.97 120.08C1014.37 119.343 1014.06 118.368 1014.06 117.155C1014.06 115.552 1014.54 114.078 1015.49 112.735C1016.49 111.392 1017.83 110.33 1019.52 109.55C1021.26 108.727 1023.18 108.315 1025.31 108.315C1028.51 108.315 1031.01 109.225 1032.78 111.045C1034.6 112.822 1035.51 115.443 1035.51 118.91V138.085C1035.51 139.602 1035.64 140.642 1035.9 141.205C1036.21 141.768 1036.64 142.05 1037.2 142.05C1038.76 142.05 1039.61 140.252 1039.74 136.655H1041.23ZM1022.19 140.1C1023.57 140.1 1024.9 139.428 1026.15 138.085C1027.41 136.742 1028.45 134.727 1029.27 132.04V124.37C1025.89 126.103 1023.27 127.815 1021.41 129.505C1019.59 131.152 1018.68 133.188 1018.68 135.615C1018.68 137.002 1018.98 138.107 1019.59 138.93C1020.19 139.71 1021.06 140.1 1022.19 140.1ZM1049.74 102.01C1048.53 102.01 1047.51 101.642 1046.68 100.905C1045.9 100.125 1045.51 99.1717 1045.51 98.045C1045.51 96.875 1045.9 95.9217 1046.68 95.185C1047.51 94.405 1048.53 94.015 1049.74 94.015C1050.95 94.015 1051.95 94.405 1052.73 95.185C1053.51 95.9217 1053.9 96.875 1053.9 98.045C1053.9 99.1717 1053.51 100.125 1052.73 100.905C1051.95 101.642 1050.95 102.01 1049.74 102.01ZM1053.38 137.305C1053.38 138.778 1053.49 139.862 1053.7 140.555C1053.92 141.248 1054.35 141.747 1055 142.05C1055.65 142.31 1056.65 142.44 1057.99 142.44V144H1042.52V142.44C1043.87 142.44 1044.86 142.31 1045.51 142.05C1046.16 141.747 1046.6 141.248 1046.81 140.555C1047.03 139.862 1047.14 138.778 1047.14 137.305V117.285C1047.14 115.552 1047.07 114.382 1046.94 113.775C1046.81 113.168 1046.42 112.865 1045.77 112.865C1045.3 112.865 1044.47 113.103 1043.3 113.58L1042.72 112.085L1052.27 108.25L1053.38 109.225V137.305ZM1060.81 142.44C1062.11 142.44 1063.06 142.31 1063.67 142.05C1064.27 141.747 1064.69 141.248 1064.9 140.555C1065.12 139.862 1065.23 138.778 1065.23 137.305V117.285C1065.23 115.508 1065.16 114.338 1065.03 113.775C1064.9 113.168 1064.53 112.865 1063.93 112.865C1063.36 112.865 1062.5 113.125 1061.33 113.645L1060.68 112.15L1065.88 110.07L1070.3 108.25L1071.53 109.225V115.205H1071.73C1073.37 112.952 1074.98 111.262 1076.54 110.135C1078.1 108.965 1079.92 108.38 1082 108.38C1084.29 108.38 1086.05 109.203 1087.26 110.85C1088.52 112.453 1089.15 114.772 1089.15 117.805V137.305C1089.15 138.778 1089.26 139.862 1089.47 140.555C1089.69 141.248 1090.08 141.747 1090.64 142.05C1091.25 142.31 1092.18 142.44 1093.44 142.44V144H1078.88V142.44C1080.05 142.44 1080.89 142.31 1081.41 142.05C1081.98 141.747 1082.34 141.248 1082.52 140.555C1082.73 139.862 1082.84 138.778 1082.84 137.305V118.195C1082.84 114.685 1081.56 112.93 1079.01 112.93C1077.71 112.93 1076.45 113.363 1075.24 114.23C1074.07 115.053 1072.83 116.288 1071.53 117.935V137.305C1071.53 138.778 1071.62 139.862 1071.79 140.555C1072.01 141.248 1072.38 141.747 1072.9 142.05C1073.46 142.31 1074.33 142.44 1075.5 142.44V144H1060.81V142.44ZM1114.97 129.44C1114.97 134.727 1114.34 138.648 1113.08 141.205C1111.82 143.762 1109.66 145.04 1106.58 145.04C1103.94 145.04 1101.99 144.13 1100.73 142.31C1099.47 140.447 1098.85 137.305 1098.85 132.885V112.215H1094.3V109.81C1096.68 109.767 1098.59 108.9 1100.02 107.21C1101.45 105.52 1102.33 103.137 1102.68 100.06H1105.02V109.55H1112.82V112.215H1105.15V131.195C1105.15 134.402 1105.39 136.807 1105.87 138.41C1106.39 140.013 1107.36 140.815 1108.79 140.815C1110.26 140.815 1111.35 139.883 1112.04 138.02C1112.78 136.157 1113.15 133.297 1113.15 129.44H1114.97ZM293.887 174.38C297.05 174.38 299.455 175.94 301.102 179.06C302.748 182.137 303.572 186.275 303.572 191.475C303.572 195.072 303.117 198.343 302.207 201.29C301.34 204.193 300.062 206.512 298.372 208.245C296.682 209.935 294.688 210.78 292.392 210.78C290.832 210.78 289.358 210.39 287.972 209.61C286.585 208.787 285.458 207.617 284.592 206.1H284.462V217.605C284.462 219.078 284.57 220.162 284.787 220.855C285.003 221.592 285.437 222.09 286.087 222.35C286.737 222.61 287.733 222.74 289.077 222.74V224.3H273.607V222.74C274.95 222.74 275.925 222.61 276.532 222.35C277.182 222.09 277.615 221.592 277.832 220.855C278.048 220.162 278.157 219.078 278.157 217.605V183.285C278.157 181.508 278.092 180.338 277.962 179.775C277.832 179.168 277.442 178.865 276.792 178.865C276.315 178.865 275.47 179.103 274.257 179.58L273.672 178.085L283.422 174.25L284.462 175.225V180.945H284.722C287.408 176.568 290.463 174.38 293.887 174.38ZM290.767 207.66C292.847 207.66 294.363 206.23 295.317 203.37C296.27 200.51 296.747 196.87 296.747 192.45C296.747 183.393 294.905 178.865 291.222 178.865C289.965 178.865 288.752 179.342 287.582 180.295C286.412 181.248 285.372 182.505 284.462 184.065V195.895C284.462 198.235 284.743 200.315 285.307 202.135C285.87 203.912 286.628 205.277 287.582 206.23C288.535 207.183 289.597 207.66 290.767 207.66ZM335.881 202.655C335.664 208.245 333.649 211.04 329.836 211.04C325.893 211.04 323.921 208.202 323.921 202.525V201.355C323.184 204.432 321.971 206.815 320.281 208.505C318.634 210.195 316.641 211.04 314.301 211.04C312.048 211.04 310.271 210.325 308.971 208.895C307.714 207.422 307.086 205.58 307.086 203.37C307.086 200.987 307.823 198.928 309.296 197.195C310.769 195.418 312.524 193.945 314.561 192.775C316.641 191.605 319.306 190.283 322.556 188.81L323.921 188.225V184.455C323.921 181.768 323.488 179.84 322.621 178.67C321.798 177.5 320.563 176.915 318.916 176.915C317.616 176.915 316.554 177.24 315.731 177.89C314.951 178.497 314.561 179.32 314.561 180.36C314.561 180.75 314.626 181.14 314.756 181.53C314.886 181.92 314.973 182.158 315.016 182.245C315.319 182.938 315.471 183.588 315.471 184.195C315.471 185.105 315.189 185.842 314.626 186.405C314.063 186.925 313.283 187.185 312.286 187.185C311.159 187.185 310.271 186.817 309.621 186.08C309.014 185.343 308.711 184.368 308.711 183.155C308.711 181.552 309.188 180.078 310.141 178.735C311.138 177.392 312.481 176.33 314.171 175.55C315.904 174.727 317.833 174.315 319.956 174.315C323.163 174.315 325.654 175.225 327.431 177.045C329.251 178.822 330.161 181.443 330.161 184.91V204.085C330.161 205.602 330.291 206.642 330.551 207.205C330.854 207.768 331.288 208.05 331.851 208.05C333.411 208.05 334.256 206.252 334.386 202.655H335.881ZM316.836 206.1C318.223 206.1 319.544 205.428 320.801 204.085C322.058 202.742 323.098 200.727 323.921 198.04V190.37C320.541 192.103 317.919 193.815 316.056 195.505C314.236 197.152 313.326 199.188 313.326 201.615C313.326 203.002 313.629 204.107 314.236 204.93C314.843 205.71 315.709 206.1 316.836 206.1ZM347.891 203.305C347.891 204.778 348 205.862 348.216 206.555C348.433 207.248 348.845 207.747 349.451 208.05C350.101 208.31 351.098 208.44 352.441 208.44V210H336.971V208.44C338.315 208.44 339.311 208.31 339.961 208.05C340.611 207.747 341.045 207.248 341.261 206.555C341.478 205.862 341.586 204.778 341.586 203.305V165.735C341.586 164.132 341.521 163.07 341.391 162.55C341.305 161.987 341.001 161.705 340.481 161.705C339.918 161.705 338.986 162.03 337.686 162.68L337.036 161.25L346.916 156.44L347.891 157.35V203.305ZM378.618 196.09C377.968 201.16 376.603 204.93 374.523 207.4C372.486 209.827 369.886 211.04 366.723 211.04C364.296 211.04 362.173 210.325 360.353 208.895C358.576 207.422 357.19 205.363 356.193 202.72C355.24 200.033 354.763 196.913 354.763 193.36C354.763 189.893 355.261 186.73 356.258 183.87C357.255 180.967 358.663 178.67 360.483 176.98C362.346 175.247 364.535 174.38 367.048 174.38C370.688 174.38 373.461 175.918 375.368 178.995C377.275 182.028 378.228 186.037 378.228 191.02H361.068V191.15C361.068 195.7 361.761 199.362 363.148 202.135C364.535 204.865 366.55 206.23 369.193 206.23C370.883 206.23 372.421 205.45 373.808 203.89C375.238 202.33 376.321 199.73 377.058 196.09H378.618ZM367.048 177.11C363.538 177.11 361.566 180.858 361.133 188.355H371.988C371.988 180.858 370.341 177.11 367.048 177.11ZM401.3 195.44C401.3 200.727 400.671 204.648 399.415 207.205C398.158 209.762 395.991 211.04 392.915 211.04C390.271 211.04 388.321 210.13 387.065 208.31C385.808 206.447 385.18 203.305 385.18 198.885V178.215H380.63V175.81C383.013 175.767 384.92 174.9 386.35 173.21C387.78 171.52 388.668 169.137 389.015 166.06H391.355V175.55H399.155V178.215H391.485V197.195C391.485 200.402 391.723 202.807 392.2 204.41C392.72 206.013 393.695 206.815 395.125 206.815C396.598 206.815 397.681 205.883 398.375 204.02C399.111 202.157 399.48 199.297 399.48 195.44H401.3ZM423.707 195.44C423.707 200.727 423.078 204.648 421.822 207.205C420.565 209.762 418.398 211.04 415.322 211.04C412.678 211.04 410.728 210.13 409.472 208.31C408.215 206.447 407.587 203.305 407.587 198.885V178.215H403.037V175.81C405.42 175.767 407.327 174.9 408.757 173.21C410.187 171.52 411.075 169.137 411.422 166.06H413.762V175.55H421.562V178.215H413.892V197.195C413.892 200.402 414.13 202.807 414.607 204.41C415.127 206.013 416.102 206.815 417.532 206.815C419.005 206.815 420.088 205.883 420.782 204.02C421.518 202.157 421.887 199.297 421.887 195.44H423.707ZM450.664 196.09C450.014 201.16 448.649 204.93 446.569 207.4C444.532 209.827 441.932 211.04 438.769 211.04C436.342 211.04 434.219 210.325 432.399 208.895C430.622 207.422 429.236 205.363 428.239 202.72C427.286 200.033 426.809 196.913 426.809 193.36C426.809 189.893 427.307 186.73 428.304 183.87C429.301 180.967 430.709 178.67 432.529 176.98C434.392 175.247 436.581 174.38 439.094 174.38C442.734 174.38 445.507 175.918 447.414 178.995C449.321 182.028 450.274 186.037 450.274 191.02H433.114V191.15C433.114 195.7 433.807 199.362 435.194 202.135C436.581 204.865 438.596 206.23 441.239 206.23C442.929 206.23 444.467 205.45 445.854 203.89C447.284 202.33 448.367 199.73 449.104 196.09H450.664ZM439.094 177.11C435.584 177.11 433.612 180.858 433.179 188.355H444.034C444.034 180.858 442.387 177.11 439.094 177.11ZM460.001 182.18C458.917 182.18 458.007 181.812 457.271 181.075C456.534 180.338 456.166 179.428 456.166 178.345C456.166 177.305 456.534 176.417 457.271 175.68C458.007 174.9 458.917 174.51 460.001 174.51C461.041 174.51 461.929 174.9 462.666 175.68C463.446 176.417 463.836 177.305 463.836 178.345C463.836 179.428 463.446 180.338 462.666 181.075C461.929 181.812 461.041 182.18 460.001 182.18ZM459.091 210.715C458.181 210.715 457.422 210.39 456.816 209.74C456.209 209.09 455.906 208.267 455.906 207.27C455.906 206.143 456.274 205.212 457.011 204.475C457.791 203.738 458.722 203.37 459.806 203.37C461.149 203.37 462.276 203.89 463.186 204.93C464.139 205.927 464.616 207.292 464.616 209.025C464.616 211.365 463.901 213.597 462.471 215.72C461.084 217.887 458.917 219.555 455.971 220.725V218.97C457.704 218.233 459.156 217.15 460.326 215.72C461.539 214.333 462.146 212.925 462.146 211.495C462.146 210.628 461.864 210.195 461.301 210.195C461.084 210.195 460.759 210.282 460.326 210.455C459.892 210.628 459.481 210.715 459.091 210.715ZM495.455 211.04C492.985 211.04 490.84 210.303 489.02 208.83C487.2 207.313 485.813 205.233 484.86 202.59C483.907 199.903 483.43 196.827 483.43 193.36C483.43 189.72 483.95 186.47 484.99 183.61C486.03 180.75 487.525 178.497 489.475 176.85C491.468 175.203 493.83 174.38 496.56 174.38C499.29 174.38 501.5 175.182 503.19 176.785C504.88 178.345 505.725 180.36 505.725 182.83C505.725 184.217 505.422 185.3 504.815 186.08C504.208 186.817 503.363 187.185 502.28 187.185C501.327 187.185 500.568 186.903 500.005 186.34C499.485 185.777 499.225 185.062 499.225 184.195C499.225 183.848 499.247 183.545 499.29 183.285C499.333 182.982 499.377 182.722 499.42 182.505C499.593 181.638 499.68 180.945 499.68 180.425C499.68 179.342 499.398 178.518 498.835 177.955C498.272 177.392 497.492 177.11 496.495 177.11C494.285 177.11 492.617 178.41 491.49 181.01C490.407 183.61 489.865 186.903 489.865 190.89C489.865 195.353 490.537 199.015 491.88 201.875C493.267 204.692 495.238 206.1 497.795 206.1C499.485 206.1 501.002 205.32 502.345 203.76C503.732 202.157 504.685 199.47 505.205 195.7H506.765C506.418 200.857 505.227 204.713 503.19 207.27C501.153 209.783 498.575 211.04 495.455 211.04ZM529.075 174.38C530.201 174.38 531.068 174.683 531.675 175.29C532.281 175.897 532.585 176.742 532.585 177.825C532.585 179.038 532.26 180.035 531.61 180.815C531.003 181.595 530.266 181.985 529.4 181.985C528.836 181.985 528.381 181.898 528.035 181.725C527.731 181.508 527.341 181.14 526.865 180.62C526.431 180.187 526.085 179.905 525.825 179.775C525.608 179.602 525.305 179.515 524.915 179.515C524.135 179.515 523.333 180.057 522.51 181.14C521.686 182.18 520.95 183.675 520.3 185.625V202.915C520.3 204.475 520.451 205.623 520.755 206.36C521.101 207.097 521.751 207.617 522.705 207.92C523.658 208.223 525.153 208.375 527.19 208.375V210H509.64V208.44C510.94 208.44 511.893 208.31 512.5 208.05C513.106 207.747 513.518 207.248 513.735 206.555C513.951 205.862 514.06 204.778 514.06 203.305V183.285C514.06 181.508 513.995 180.338 513.865 179.775C513.735 179.168 513.366 178.865 512.76 178.865C512.196 178.865 511.33 179.125 510.16 179.645L509.51 178.15L514.71 176.07L519.13 174.25L520.3 175.225V181.465H520.495C521.535 179.515 522.813 177.847 524.33 176.46C525.846 175.073 527.428 174.38 529.075 174.38ZM558.13 196.09C557.48 201.16 556.115 204.93 554.035 207.4C551.998 209.827 549.398 211.04 546.235 211.04C543.808 211.04 541.685 210.325 539.865 208.895C538.088 207.422 536.701 205.363 535.705 202.72C534.751 200.033 534.275 196.913 534.275 193.36C534.275 189.893 534.773 186.73 535.77 183.87C536.766 180.967 538.175 178.67 539.995 176.98C541.858 175.247 544.046 174.38 546.56 174.38C550.2 174.38 552.973 175.918 554.88 178.995C556.786 182.028 557.74 186.037 557.74 191.02H540.58V191.15C540.58 195.7 541.273 199.362 542.66 202.135C544.046 204.865 546.061 206.23 548.705 206.23C550.395 206.23 551.933 205.45 553.32 203.89C554.75 202.33 555.833 199.73 556.57 196.09H558.13ZM546.56 177.11C543.05 177.11 541.078 180.858 540.645 188.355H551.5C551.5 180.858 549.853 177.11 546.56 177.11ZM590.359 202.655C590.142 208.245 588.127 211.04 584.314 211.04C580.37 211.04 578.399 208.202 578.399 202.525V201.355C577.662 204.432 576.449 206.815 574.759 208.505C573.112 210.195 571.119 211.04 568.779 211.04C566.525 211.04 564.749 210.325 563.449 208.895C562.192 207.422 561.564 205.58 561.564 203.37C561.564 200.987 562.3 198.928 563.774 197.195C565.247 195.418 567.002 193.945 569.039 192.775C571.119 191.605 573.784 190.283 577.034 188.81L578.399 188.225V184.455C578.399 181.768 577.965 179.84 577.099 178.67C576.275 177.5 575.04 176.915 573.394 176.915C572.094 176.915 571.032 177.24 570.209 177.89C569.429 178.497 569.039 179.32 569.039 180.36C569.039 180.75 569.104 181.14 569.234 181.53C569.364 181.92 569.45 182.158 569.494 182.245C569.797 182.938 569.949 183.588 569.949 184.195C569.949 185.105 569.667 185.842 569.104 186.405C568.54 186.925 567.76 187.185 566.764 187.185C565.637 187.185 564.749 186.817 564.099 186.08C563.492 185.343 563.189 184.368 563.189 183.155C563.189 181.552 563.665 180.078 564.619 178.735C565.615 177.392 566.959 176.33 568.649 175.55C570.382 174.727 572.31 174.315 574.434 174.315C577.64 174.315 580.132 175.225 581.909 177.045C583.729 178.822 584.639 181.443 584.639 184.91V204.085C584.639 205.602 584.769 206.642 585.029 207.205C585.332 207.768 585.765 208.05 586.329 208.05C587.889 208.05 588.734 206.252 588.864 202.655H590.359ZM571.314 206.1C572.7 206.1 574.022 205.428 575.279 204.085C576.535 202.742 577.575 200.727 578.399 198.04V190.37C575.019 192.103 572.397 193.815 570.534 195.505C568.714 197.152 567.804 199.188 567.804 201.615C567.804 203.002 568.107 204.107 568.714 204.93C569.32 205.71 570.187 206.1 571.314 206.1ZM610.455 195.44C610.455 200.727 609.826 204.648 608.57 207.205C607.313 209.762 605.146 211.04 602.07 211.04C599.426 211.04 597.476 210.13 596.22 208.31C594.963 206.447 594.335 203.305 594.335 198.885V178.215H589.785V175.81C592.168 175.767 594.075 174.9 595.505 173.21C596.935 171.52 597.823 169.137 598.17 166.06H600.51V175.55H608.31V178.215H600.64V197.195C600.64 200.402 600.878 202.807 601.355 204.41C601.875 206.013 602.85 206.815 604.28 206.815C605.753 206.815 606.836 205.883 607.53 204.02C608.266 202.157 608.635 199.297 608.635 195.44H610.455ZM619.812 168.01C618.599 168.01 617.581 167.642 616.757 166.905C615.977 166.125 615.587 165.172 615.587 164.045C615.587 162.875 615.977 161.922 616.757 161.185C617.581 160.405 618.599 160.015 619.812 160.015C621.026 160.015 622.022 160.405 622.802 161.185C623.582 161.922 623.972 162.875 623.972 164.045C623.972 165.172 623.582 166.125 622.802 166.905C622.022 167.642 621.026 168.01 619.812 168.01ZM623.452 203.305C623.452 204.778 623.561 205.862 623.777 206.555C623.994 207.248 624.427 207.747 625.077 208.05C625.727 208.31 626.724 208.44 628.067 208.44V210H612.597V208.44C613.941 208.44 614.937 208.31 615.587 208.05C616.237 207.747 616.671 207.248 616.887 206.555C617.104 205.862 617.212 204.778 617.212 203.305V183.285C617.212 181.552 617.147 180.382 617.017 179.775C616.887 179.168 616.497 178.865 615.847 178.865C615.371 178.865 614.547 179.103 613.377 179.58L612.792 178.085L622.347 174.25L623.452 175.225V203.305ZM650.435 181.985C650.912 180.468 651.15 179.407 651.15 178.8C651.15 178.15 650.89 177.717 650.37 177.5C649.85 177.24 648.875 177.11 647.445 177.11V175.55H658.69V177.11C657.173 177.11 656.025 177.435 655.245 178.085C654.508 178.735 653.837 180.035 653.23 181.985L644.39 210.52H640.88L632.04 181.985C631.433 180.035 630.762 178.735 630.025 178.085C629.332 177.435 628.292 177.11 626.905 177.11V175.55H641.985V177.11C640.555 177.11 639.558 177.24 638.995 177.5C638.432 177.717 638.15 178.172 638.15 178.865C638.15 179.428 638.367 180.468 638.8 181.985L644.26 201.03H644.65L650.435 181.985ZM681.909 196.09C681.259 201.16 679.894 204.93 677.814 207.4C675.777 209.827 673.177 211.04 670.014 211.04C667.587 211.04 665.464 210.325 663.644 208.895C661.867 207.422 660.481 205.363 659.484 202.72C658.531 200.033 658.054 196.913 658.054 193.36C658.054 189.893 658.552 186.73 659.549 183.87C660.546 180.967 661.954 178.67 663.774 176.98C665.637 175.247 667.826 174.38 670.339 174.38C673.979 174.38 676.752 175.918 678.659 178.995C680.566 182.028 681.519 186.037 681.519 191.02H664.359V191.15C664.359 195.7 665.052 199.362 666.439 202.135C667.826 204.865 669.841 206.23 672.484 206.23C674.174 206.23 675.712 205.45 677.099 203.89C678.529 202.33 679.612 199.73 680.349 196.09H681.909ZM670.339 177.11C666.829 177.11 664.857 180.858 664.424 188.355H675.279C675.279 180.858 673.632 177.11 670.339 177.11ZM687.863 210.715C686.953 210.715 686.195 210.39 685.588 209.74C684.982 209.09 684.678 208.267 684.678 207.27C684.678 206.143 685.047 205.212 685.783 204.475C686.563 203.738 687.495 203.37 688.578 203.37C689.922 203.37 691.048 203.89 691.958 204.93C692.912 205.927 693.388 207.292 693.388 209.025C693.388 211.365 692.673 213.597 691.243 215.72C689.857 217.887 687.69 219.555 684.743 220.725V218.97C686.477 218.233 687.928 217.15 689.098 215.72C690.312 214.333 690.918 212.925 690.918 211.495C690.918 210.628 690.637 210.195 690.073 210.195C689.857 210.195 689.532 210.282 689.098 210.455C688.665 210.628 688.253 210.715 687.863 210.715ZM715.063 165.93C715.063 164.24 715.019 163.135 714.933 162.615C714.846 162.052 714.543 161.77 714.023 161.77C713.503 161.77 712.636 162.095 711.423 162.745L710.708 161.38L715.713 158.91L720.523 156.44L721.433 157.35V180.49H721.693C724.379 176.417 727.543 174.38 731.183 174.38C734.129 174.38 736.469 175.875 738.203 178.865C739.936 181.812 740.803 185.928 740.803 191.215C740.803 197.368 739.589 202.2 737.163 205.71C734.779 209.22 731.378 210.975 726.958 210.975C724.964 210.975 722.884 210.607 720.718 209.87C718.594 209.133 716.709 208.05 715.063 206.62V165.93ZM721.433 204.605C722.039 205.558 722.819 206.36 723.773 207.01C724.726 207.66 725.788 207.985 726.958 207.985C729.211 207.985 730.944 206.62 732.158 203.89C733.371 201.16 733.978 197.303 733.978 192.32C733.978 187.857 733.436 184.498 732.353 182.245C731.269 179.992 729.774 178.865 727.868 178.865C726.654 178.865 725.484 179.298 724.358 180.165C723.274 181.032 722.299 182.202 721.433 183.675V204.605ZM764.54 209.935L764.41 204.41L764.215 204.345C761.398 208.808 758.083 211.04 754.27 211.04C752.06 211.04 750.327 210.217 749.07 208.57C747.813 206.88 747.185 204.583 747.185 201.68V183.35C747.185 181.703 747.077 180.577 746.86 179.97C746.687 179.363 746.253 179.06 745.56 179.06C745.04 179.06 744.195 179.233 743.025 179.58L742.57 178.15L752.58 174.9L753.49 175.745V201.03C753.49 202.937 753.793 204.367 754.4 205.32C755.007 206.23 755.917 206.685 757.13 206.685C758.343 206.685 759.578 206.23 760.835 205.32C762.092 204.41 763.283 203.197 764.41 201.68V183.35C764.41 181.66 764.323 180.533 764.15 179.97C763.977 179.363 763.522 179.06 762.785 179.06C762.265 179.06 761.42 179.233 760.25 179.58L759.795 178.15L769.87 174.9L770.715 175.745V202.265C770.715 203.955 770.802 205.103 770.975 205.71C771.148 206.317 771.56 206.62 772.21 206.62C772.86 206.62 773.748 206.403 774.875 205.97L775.46 207.465L765.84 211.04L764.54 209.935ZM796.822 195.44C796.822 200.727 796.194 204.648 794.937 207.205C793.68 209.762 791.514 211.04 788.437 211.04C785.794 211.04 783.844 210.13 782.587 208.31C781.33 206.447 780.702 203.305 780.702 198.885V178.215H776.152V175.81C778.535 175.767 780.442 174.9 781.872 173.21C783.302 171.52 784.19 169.137 784.537 166.06H786.877V175.55H794.677V178.215H787.007V197.195C787.007 200.402 787.245 202.807 787.722 204.41C788.242 206.013 789.217 206.815 790.647 206.815C792.12 206.815 793.204 205.883 793.897 204.02C794.634 202.157 795.002 199.297 795.002 195.44H796.822ZM824.625 211.04C822.068 211.04 819.706 210.26 817.54 208.7C817.236 208.44 816.933 208.31 816.63 208.31C816.326 208.31 816.045 208.548 815.785 209.025L815.265 210.325H813.835L813.38 196.285H814.81C815.286 200.055 816.348 203.002 817.995 205.125C819.685 207.248 821.678 208.31 823.975 208.31C825.491 208.31 826.64 207.833 827.42 206.88C828.243 205.927 828.655 204.605 828.655 202.915C828.655 201.918 828.46 201.073 828.07 200.38C827.68 199.643 827.008 198.842 826.055 197.975C825.101 197.065 823.498 195.7 821.245 193.88C818.428 191.67 816.478 189.807 815.395 188.29C814.355 186.773 813.835 185.105 813.835 183.285C813.835 180.642 814.68 178.497 816.37 176.85C818.103 175.203 820.27 174.38 822.87 174.38C825.166 174.38 827.203 175.117 828.98 176.59C829.283 176.893 829.586 177.045 829.89 177.045C830.28 177.045 830.54 176.785 830.67 176.265L831.06 174.835H832.555L832.815 186.21H831.385C830.995 183.567 830.085 181.4 828.655 179.71C827.225 177.977 825.47 177.11 823.39 177.11C822.09 177.11 821.05 177.522 820.27 178.345C819.49 179.125 819.1 180.165 819.1 181.465C819.1 182.722 819.511 183.827 820.335 184.78C821.158 185.733 822.826 187.207 825.34 189.2C828.546 191.713 830.778 193.815 832.035 195.505C833.335 197.195 833.985 199.21 833.985 201.55C833.985 204.627 833.096 206.988 831.32 208.635C829.543 210.238 827.311 211.04 824.625 211.04ZM851.731 211.04C848.958 211.04 846.51 210.282 844.386 208.765C842.263 207.205 840.616 205.06 839.446 202.33C838.32 199.557 837.756 196.415 837.756 192.905C837.756 189.395 838.298 186.232 839.381 183.415C840.508 180.598 842.133 178.388 844.256 176.785C846.38 175.182 848.871 174.38 851.731 174.38C854.505 174.38 856.931 175.16 859.011 176.72C861.135 178.237 862.781 180.382 863.951 183.155C865.121 185.885 865.706 189.005 865.706 192.515C865.706 196.025 865.143 199.188 864.016 202.005C862.89 204.822 861.265 207.032 859.141 208.635C857.061 210.238 854.591 211.04 851.731 211.04ZM852.706 208.18C854.83 208.18 856.433 207.01 857.516 204.67C858.6 202.33 859.141 199.557 859.141 196.35C859.141 193.23 858.816 190.218 858.166 187.315C857.56 184.368 856.628 181.963 855.371 180.1C854.115 178.193 852.576 177.24 850.756 177.24C848.59 177.24 846.965 178.41 845.881 180.75C844.798 183.09 844.256 185.863 844.256 189.07C844.256 192.19 844.56 195.223 845.166 198.17C845.816 201.073 846.77 203.478 848.026 205.385C849.326 207.248 850.886 208.18 852.706 208.18ZM912.603 203.305C912.603 204.778 912.712 205.862 912.928 206.555C913.145 207.248 913.535 207.747 914.098 208.05C914.705 208.31 915.658 208.44 916.958 208.44V210H902.593V208.44C903.72 208.44 904.543 208.31 905.063 208.05C905.583 207.747 905.93 207.248 906.103 206.555C906.277 205.862 906.363 204.778 906.363 203.305V184.065C906.363 180.642 905.15 178.93 902.723 178.93C901.597 178.93 900.492 179.32 899.408 180.1C898.325 180.88 897.198 182.05 896.028 183.61V183.74V203.305C896.028 204.778 896.115 205.862 896.288 206.555C896.462 207.248 896.808 207.747 897.328 208.05C897.848 208.31 898.672 208.44 899.798 208.44V210H885.953V208.44C887.08 208.44 887.903 208.31 888.423 208.05C888.987 207.747 889.355 207.248 889.528 206.555C889.702 205.862 889.788 204.778 889.788 203.305V184.065C889.788 180.642 888.575 178.93 886.148 178.93C884.978 178.93 883.83 179.342 882.703 180.165C881.62 180.988 880.472 182.223 879.258 183.87V203.305C879.258 204.778 879.345 205.862 879.518 206.555C879.692 207.248 880.038 207.747 880.558 208.05C881.122 208.31 881.967 208.44 883.093 208.44V210H868.598V208.44C869.898 208.44 870.852 208.31 871.458 208.05C872.065 207.747 872.477 207.248 872.693 206.555C872.91 205.862 873.018 204.778 873.018 203.305V183.285C873.018 181.552 872.953 180.403 872.823 179.84C872.693 179.233 872.325 178.93 871.718 178.93C871.242 178.93 870.397 179.168 869.183 179.645L868.533 178.215L878.023 174.25L879.258 175.225V181.205H879.453C880.883 179.038 882.335 177.37 883.808 176.2C885.325 174.987 887.102 174.38 889.138 174.38C891.045 174.38 892.562 174.965 893.688 176.135C894.815 177.305 895.552 178.995 895.898 181.205H896.093C897.48 179.038 898.91 177.37 900.383 176.2C901.9 174.987 903.677 174.38 905.713 174.38C907.967 174.38 909.678 175.182 910.848 176.785C912.018 178.388 912.603 180.707 912.603 183.74V203.305ZM943.179 196.09C942.529 201.16 941.164 204.93 939.084 207.4C937.047 209.827 934.447 211.04 931.284 211.04C928.857 211.04 926.734 210.325 924.914 208.895C923.137 207.422 921.75 205.363 920.754 202.72C919.8 200.033 919.324 196.913 919.324 193.36C919.324 189.893 919.822 186.73 920.819 183.87C921.815 180.967 923.224 178.67 925.044 176.98C926.907 175.247 929.095 174.38 931.609 174.38C935.249 174.38 938.022 175.918 939.929 178.995C941.835 182.028 942.789 186.037 942.789 191.02H925.629V191.15C925.629 195.7 926.322 199.362 927.709 202.135C929.095 204.865 931.11 206.23 933.754 206.23C935.444 206.23 936.982 205.45 938.369 203.89C939.799 202.33 940.882 199.73 941.619 196.09H943.179ZM931.609 177.11C928.099 177.11 926.127 180.858 925.694 188.355H936.549C936.549 180.858 934.902 177.11 931.609 177.11ZM972.081 211.04C969.524 211.04 967.162 210.26 964.996 208.7C964.692 208.44 964.389 208.31 964.086 208.31C963.782 208.31 963.501 208.548 963.241 209.025L962.721 210.325H961.291L960.836 196.285H962.266C962.742 200.055 963.804 203.002 965.451 205.125C967.141 207.248 969.134 208.31 971.431 208.31C972.947 208.31 974.096 207.833 974.876 206.88C975.699 205.927 976.111 204.605 976.111 202.915C976.111 201.918 975.916 201.073 975.526 200.38C975.136 199.643 974.464 198.842 973.511 197.975C972.557 197.065 970.954 195.7 968.701 193.88C965.884 191.67 963.934 189.807 962.851 188.29C961.811 186.773 961.291 185.105 961.291 183.285C961.291 180.642 962.136 178.497 963.826 176.85C965.559 175.203 967.726 174.38 970.326 174.38C972.622 174.38 974.659 175.117 976.436 176.59C976.739 176.893 977.042 177.045 977.346 177.045C977.736 177.045 977.996 176.785 978.126 176.265L978.516 174.835H980.011L980.271 186.21H978.841C978.451 183.567 977.541 181.4 976.111 179.71C974.681 177.977 972.926 177.11 970.846 177.11C969.546 177.11 968.506 177.522 967.726 178.345C966.946 179.125 966.556 180.165 966.556 181.465C966.556 182.722 966.967 183.827 967.791 184.78C968.614 185.733 970.282 187.207 972.796 189.2C976.002 191.713 978.234 193.815 979.491 195.505C980.791 197.195 981.441 199.21 981.441 201.55C981.441 204.627 980.552 206.988 978.776 208.635C976.999 210.238 974.767 211.04 972.081 211.04ZM1004.52 195.44C1004.52 200.727 1003.89 204.648 1002.63 207.205C1001.38 209.762 999.209 211.04 996.132 211.04C993.489 211.04 991.539 210.13 990.282 208.31C989.026 206.447 988.397 203.305 988.397 198.885V178.215H983.847V175.81C986.231 175.767 988.137 174.9 989.567 173.21C990.997 171.52 991.886 169.137 992.232 166.06H994.572V175.55H1002.37V178.215H994.702V197.195C994.702 200.402 994.941 202.807 995.417 204.41C995.937 206.013 996.912 206.815 998.342 206.815C999.816 206.815 1000.9 205.883 1001.59 204.02C1002.33 202.157 1002.7 199.297 1002.7 195.44H1004.52ZM1026.16 174.38C1027.29 174.38 1028.15 174.683 1028.76 175.29C1029.37 175.897 1029.67 176.742 1029.67 177.825C1029.67 179.038 1029.34 180.035 1028.69 180.815C1028.09 181.595 1027.35 181.985 1026.48 181.985C1025.92 181.985 1025.47 181.898 1025.12 181.725C1024.82 181.508 1024.43 181.14 1023.95 180.62C1023.52 180.187 1023.17 179.905 1022.91 179.775C1022.69 179.602 1022.39 179.515 1022 179.515C1021.22 179.515 1020.42 180.057 1019.59 181.14C1018.77 182.18 1018.03 183.675 1017.38 185.625V202.915C1017.38 204.475 1017.54 205.623 1017.84 206.36C1018.19 207.097 1018.84 207.617 1019.79 207.92C1020.74 208.223 1022.24 208.375 1024.27 208.375V210H1006.72V208.44C1008.02 208.44 1008.98 208.31 1009.58 208.05C1010.19 207.747 1010.6 207.248 1010.82 206.555C1011.04 205.862 1011.14 204.778 1011.14 203.305V183.285C1011.14 181.508 1011.08 180.338 1010.95 179.775C1010.82 179.168 1010.45 178.865 1009.84 178.865C1009.28 178.865 1008.41 179.125 1007.24 179.645L1006.59 178.15L1011.79 176.07L1016.21 174.25L1017.38 175.225V181.465H1017.58C1018.62 179.515 1019.9 177.847 1021.41 176.46C1022.93 175.073 1024.51 174.38 1026.16 174.38ZM1059.7 202.655C1059.49 208.245 1057.47 211.04 1053.66 211.04C1049.72 211.04 1047.74 208.202 1047.74 202.525V201.355C1047.01 204.432 1045.79 206.815 1044.1 208.505C1042.46 210.195 1040.46 211.04 1038.12 211.04C1035.87 211.04 1034.09 210.325 1032.79 208.895C1031.54 207.422 1030.91 205.58 1030.91 203.37C1030.91 200.987 1031.65 198.928 1033.12 197.195C1034.59 195.418 1036.35 193.945 1038.38 192.775C1040.46 191.605 1043.13 190.283 1046.38 188.81L1047.74 188.225V184.455C1047.74 181.768 1047.31 179.84 1046.44 178.67C1045.62 177.5 1044.39 176.915 1042.74 176.915C1041.44 176.915 1040.38 177.24 1039.55 177.89C1038.77 178.497 1038.38 179.32 1038.38 180.36C1038.38 180.75 1038.45 181.14 1038.58 181.53C1038.71 181.92 1038.8 182.158 1038.84 182.245C1039.14 182.938 1039.29 183.588 1039.29 184.195C1039.29 185.105 1039.01 185.842 1038.45 186.405C1037.89 186.925 1037.11 187.185 1036.11 187.185C1034.98 187.185 1034.09 186.817 1033.44 186.08C1032.84 185.343 1032.53 184.368 1032.53 183.155C1032.53 181.552 1033.01 180.078 1033.96 178.735C1034.96 177.392 1036.3 176.33 1037.99 175.55C1039.73 174.727 1041.66 174.315 1043.78 174.315C1046.99 174.315 1049.48 175.225 1051.25 177.045C1053.07 178.822 1053.98 181.443 1053.98 184.91V204.085C1053.98 205.602 1054.11 206.642 1054.37 207.205C1054.68 207.768 1055.11 208.05 1055.67 208.05C1057.23 208.05 1058.08 206.252 1058.21 202.655H1059.7ZM1040.66 206.1C1042.05 206.1 1043.37 205.428 1044.62 204.085C1045.88 202.742 1046.92 200.727 1047.74 198.04V190.37C1044.36 192.103 1041.74 193.815 1039.88 195.505C1038.06 197.152 1037.15 199.188 1037.15 201.615C1037.15 203.002 1037.45 204.107 1038.06 204.93C1038.67 205.71 1039.53 206.1 1040.66 206.1ZM1061.06 208.44C1062.36 208.44 1063.31 208.31 1063.92 208.05C1064.53 207.747 1064.94 207.248 1065.16 206.555C1065.37 205.862 1065.48 204.778 1065.48 203.305V183.285C1065.48 181.508 1065.42 180.338 1065.29 179.775C1065.16 179.168 1064.79 178.865 1064.18 178.865C1063.62 178.865 1062.75 179.125 1061.58 179.645L1060.93 178.15L1066.13 176.07L1070.55 174.25L1071.79 175.225V181.205H1071.98C1073.63 178.952 1075.23 177.262 1076.79 176.135C1078.35 174.965 1080.17 174.38 1082.25 174.38C1084.55 174.38 1086.3 175.203 1087.52 176.85C1088.77 178.453 1089.4 180.772 1089.4 183.805V203.305C1089.4 204.778 1089.51 205.862 1089.73 206.555C1089.94 207.248 1090.33 207.747 1090.9 208.05C1091.5 208.31 1092.43 208.44 1093.69 208.44V210H1079.13V208.44C1080.3 208.44 1081.15 208.31 1081.67 208.05C1082.23 207.747 1082.6 207.248 1082.77 206.555C1082.99 205.862 1083.1 204.778 1083.1 203.305V184.195C1083.1 180.685 1081.82 178.93 1079.26 178.93C1077.96 178.93 1076.7 179.363 1075.49 180.23C1074.32 181.053 1073.09 182.288 1071.79 183.935V203.305C1071.79 204.778 1071.87 205.862 1072.05 206.555C1072.26 207.248 1072.63 207.747 1073.15 208.05C1073.71 208.31 1074.58 208.44 1075.75 208.44V210H1061.06V208.44ZM1115.88 204.8C1119.3 204.8 1121.79 205.342 1123.35 206.425C1124.91 207.508 1125.69 209.263 1125.69 211.69C1125.69 214.073 1124.87 216.305 1123.22 218.385C1121.62 220.508 1119.39 222.198 1116.53 223.455C1113.71 224.712 1110.52 225.34 1106.97 225.34C1103.24 225.34 1100.15 224.668 1097.68 223.325C1095.21 221.982 1093.97 220.032 1093.97 217.475C1093.97 214.182 1096.25 211.517 1100.8 209.48C1098.24 208.483 1096.96 206.793 1096.96 204.41C1096.96 203.023 1097.39 201.767 1098.26 200.64C1099.13 199.513 1100.36 198.452 1101.97 197.455C1100.36 196.372 1099.13 194.942 1098.26 193.165C1097.39 191.388 1096.96 189.373 1096.96 187.12C1096.96 184.693 1097.46 182.527 1098.46 180.62C1099.45 178.67 1100.86 177.153 1102.68 176.07C1104.54 174.987 1106.69 174.445 1109.12 174.445C1111.54 174.445 1113.69 175.008 1115.55 176.135C1116.81 175.442 1118.09 174.922 1119.39 174.575C1120.69 174.185 1121.88 173.99 1122.96 173.99C1124.56 173.99 1125.37 174.64 1125.37 175.94C1125.37 176.59 1125.15 177.132 1124.72 177.565C1124.33 177.955 1123.76 178.15 1123.03 178.15C1122.33 178.15 1121.66 178.063 1121.01 177.89C1120.36 177.717 1119.97 177.608 1119.84 177.565C1118.58 177.175 1117.61 177.023 1116.92 177.11C1118.22 178.237 1119.21 179.645 1119.91 181.335C1120.64 182.982 1121.01 184.845 1121.01 186.925C1121.01 190.652 1119.91 193.685 1117.7 196.025C1115.53 198.322 1112.65 199.47 1109.05 199.47C1107.06 199.47 1105.26 199.102 1103.66 198.365C1102.23 199.492 1101.51 200.618 1101.51 201.745C1101.51 202.395 1101.64 202.937 1101.9 203.37C1102.2 203.803 1102.85 204.15 1103.85 204.41C1104.85 204.67 1106.34 204.8 1108.34 204.8H1115.88ZM1108.27 176.915C1106.58 176.915 1105.32 177.673 1104.5 179.19C1103.72 180.707 1103.33 182.592 1103.33 184.845C1103.33 188.008 1103.87 190.825 1104.96 193.295C1106.04 195.722 1107.66 196.935 1109.83 196.935C1111.43 196.935 1112.65 196.242 1113.47 194.855C1114.29 193.468 1114.71 191.627 1114.71 189.33C1114.71 186.123 1114.14 183.263 1113.02 180.75C1111.93 178.193 1110.35 176.915 1108.27 176.915ZM1108.53 221.44C1111.17 221.44 1113.51 221.05 1115.55 220.27C1117.63 219.533 1119.23 218.558 1120.36 217.345C1121.49 216.175 1122.05 214.962 1122.05 213.705C1122.05 212.492 1121.57 211.668 1120.62 211.235C1119.71 210.802 1118.06 210.585 1115.68 210.585H1107.62C1105.71 210.585 1104.15 210.433 1102.94 210.13C1100.43 212.123 1099.17 214.052 1099.17 215.915C1099.17 217.432 1099.93 218.732 1101.45 219.815C1103.01 220.898 1105.37 221.44 1108.53 221.44ZM1149.92 196.09C1149.27 201.16 1147.91 204.93 1145.83 207.4C1143.79 209.827 1141.19 211.04 1138.03 211.04C1135.6 211.04 1133.48 210.325 1131.66 208.895C1129.88 207.422 1128.49 205.363 1127.5 202.72C1126.54 200.033 1126.07 196.913 1126.07 193.36C1126.07 189.893 1126.57 186.73 1127.56 183.87C1128.56 180.967 1129.97 178.67 1131.79 176.98C1133.65 175.247 1135.84 174.38 1138.35 174.38C1141.99 174.38 1144.77 175.918 1146.67 178.995C1148.58 182.028 1149.53 186.037 1149.53 191.02H1132.37V191.15C1132.37 195.7 1133.07 199.362 1134.45 202.135C1135.84 204.865 1137.85 206.23 1140.5 206.23C1142.19 206.23 1143.73 205.45 1145.11 203.89C1146.54 202.33 1147.63 199.73 1148.36 196.09H1149.92ZM1138.35 177.11C1134.84 177.11 1132.87 180.858 1132.44 188.355H1143.29C1143.29 180.858 1141.65 177.11 1138.35 177.11ZM418.014 277.04C415.544 277.04 413.399 276.303 411.579 274.83C409.759 273.313 408.372 271.233 407.419 268.59C406.465 265.903 405.989 262.827 405.989 259.36C405.989 255.72 406.509 252.47 407.549 249.61C408.589 246.75 410.084 244.497 412.034 242.85C414.027 241.203 416.389 240.38 419.119 240.38C421.849 240.38 424.059 241.182 425.749 242.785C427.439 244.345 428.284 246.36 428.284 248.83C428.284 250.217 427.98 251.3 427.374 252.08C426.767 252.817 425.922 253.185 424.839 253.185C423.885 253.185 423.127 252.903 422.564 252.34C422.044 251.777 421.784 251.062 421.784 250.195C421.784 249.848 421.805 249.545 421.849 249.285C421.892 248.982 421.935 248.722 421.979 248.505C422.152 247.638 422.239 246.945 422.239 246.425C422.239 245.342 421.957 244.518 421.394 243.955C420.83 243.392 420.05 243.11 419.054 243.11C416.844 243.11 415.175 244.41 414.049 247.01C412.965 249.61 412.424 252.903 412.424 256.89C412.424 261.353 413.095 265.015 414.439 267.875C415.825 270.692 417.797 272.1 420.354 272.1C422.044 272.1 423.56 271.32 424.904 269.76C426.29 268.157 427.244 265.47 427.764 261.7H429.324C428.977 266.857 427.785 270.713 425.749 273.27C423.712 275.783 421.134 277.04 418.014 277.04ZM446.37 277.04C443.597 277.04 441.148 276.282 439.025 274.765C436.902 273.205 435.255 271.06 434.085 268.33C432.958 265.557 432.395 262.415 432.395 258.905C432.395 255.395 432.937 252.232 434.02 249.415C435.147 246.598 436.772 244.388 438.895 242.785C441.018 241.182 443.51 240.38 446.37 240.38C449.143 240.38 451.57 241.16 453.65 242.72C455.773 244.237 457.42 246.382 458.59 249.155C459.76 251.885 460.345 255.005 460.345 258.515C460.345 262.025 459.782 265.188 458.655 268.005C457.528 270.822 455.903 273.032 453.78 274.635C451.7 276.238 449.23 277.04 446.37 277.04ZM447.345 274.18C449.468 274.18 451.072 273.01 452.155 270.67C453.238 268.33 453.78 265.557 453.78 262.35C453.78 259.23 453.455 256.218 452.805 253.315C452.198 250.368 451.267 247.963 450.01 246.1C448.753 244.193 447.215 243.24 445.395 243.24C443.228 243.24 441.603 244.41 440.52 246.75C439.437 249.09 438.895 251.863 438.895 255.07C438.895 258.19 439.198 261.223 439.805 264.17C440.455 267.073 441.408 269.478 442.665 271.385C443.965 273.248 445.525 274.18 447.345 274.18ZM473.512 269.305C473.512 270.778 473.62 271.862 473.837 272.555C474.053 273.248 474.465 273.747 475.072 274.05C475.722 274.31 476.718 274.44 478.062 274.44V276H462.592V274.44C463.935 274.44 464.932 274.31 465.582 274.05C466.232 273.747 466.665 273.248 466.882 272.555C467.098 271.862 467.207 270.778 467.207 269.305V231.735C467.207 230.132 467.142 229.07 467.012 228.55C466.925 227.987 466.622 227.705 466.102 227.705C465.538 227.705 464.607 228.03 463.307 228.68L462.657 227.25L472.537 222.44L473.512 223.35V269.305ZM494.358 277.04C491.585 277.04 489.137 276.282 487.013 274.765C484.89 273.205 483.243 271.06 482.073 268.33C480.947 265.557 480.383 262.415 480.383 258.905C480.383 255.395 480.925 252.232 482.008 249.415C483.135 246.598 484.76 244.388 486.883 242.785C489.007 241.182 491.498 240.38 494.358 240.38C497.132 240.38 499.558 241.16 501.638 242.72C503.762 244.237 505.408 246.382 506.578 249.155C507.748 251.885 508.333 255.005 508.333 258.515C508.333 262.025 507.77 265.188 506.643 268.005C505.517 270.822 503.892 273.032 501.768 274.635C499.688 276.238 497.218 277.04 494.358 277.04ZM495.333 274.18C497.457 274.18 499.06 273.01 500.143 270.67C501.227 268.33 501.768 265.557 501.768 262.35C501.768 259.23 501.443 256.218 500.793 253.315C500.187 250.368 499.255 247.963 497.998 246.1C496.742 244.193 495.203 243.24 493.383 243.24C491.217 243.24 489.592 244.41 488.508 246.75C487.425 249.09 486.883 251.863 486.883 255.07C486.883 258.19 487.187 261.223 487.793 264.17C488.443 267.073 489.397 269.478 490.653 271.385C491.953 273.248 493.513 274.18 495.333 274.18ZM532.089 275.935L531.959 270.41L531.764 270.345C528.947 274.808 525.632 277.04 521.819 277.04C519.609 277.04 517.875 276.217 516.619 274.57C515.362 272.88 514.734 270.583 514.734 267.68V249.35C514.734 247.703 514.625 246.577 514.409 245.97C514.235 245.363 513.802 245.06 513.109 245.06C512.589 245.06 511.744 245.233 510.574 245.58L510.119 244.15L520.129 240.9L521.039 241.745V267.03C521.039 268.937 521.342 270.367 521.949 271.32C522.555 272.23 523.465 272.685 524.679 272.685C525.892 272.685 527.127 272.23 528.384 271.32C529.64 270.41 530.832 269.197 531.959 267.68V249.35C531.959 247.66 531.872 246.533 531.699 245.97C531.525 245.363 531.07 245.06 530.334 245.06C529.814 245.06 528.969 245.233 527.799 245.58L527.344 244.15L537.419 240.9L538.264 241.745V268.265C538.264 269.955 538.35 271.103 538.524 271.71C538.697 272.317 539.109 272.62 539.759 272.62C540.409 272.62 541.297 272.403 542.424 271.97L543.009 273.465L533.389 277.04L532.089 275.935ZM564.876 240.38C566.002 240.38 566.869 240.683 567.476 241.29C568.082 241.897 568.386 242.742 568.386 243.825C568.386 245.038 568.061 246.035 567.411 246.815C566.804 247.595 566.067 247.985 565.201 247.985C564.637 247.985 564.182 247.898 563.836 247.725C563.532 247.508 563.142 247.14 562.666 246.62C562.232 246.187 561.886 245.905 561.626 245.775C561.409 245.602 561.106 245.515 560.716 245.515C559.936 245.515 559.134 246.057 558.311 247.14C557.487 248.18 556.751 249.675 556.101 251.625V268.915C556.101 270.475 556.252 271.623 556.556 272.36C556.902 273.097 557.552 273.617 558.506 273.92C559.459 274.223 560.954 274.375 562.991 274.375V276H545.441V274.44C546.741 274.44 547.694 274.31 548.301 274.05C548.907 273.747 549.319 273.248 549.536 272.555C549.752 271.862 549.861 270.778 549.861 269.305V249.285C549.861 247.508 549.796 246.338 549.666 245.775C549.536 245.168 549.167 244.865 548.561 244.865C547.997 244.865 547.131 245.125 545.961 245.645L545.311 244.15L550.511 242.07L554.931 240.25L556.101 241.225V247.465H556.296C557.336 245.515 558.614 243.847 560.131 242.46C561.647 241.073 563.229 240.38 564.876 240.38ZM582.525 277.04C579.968 277.04 577.607 276.26 575.44 274.7C575.137 274.44 574.833 274.31 574.53 274.31C574.227 274.31 573.945 274.548 573.685 275.025L573.165 276.325H571.735L571.28 262.285H572.71C573.187 266.055 574.248 269.002 575.895 271.125C577.585 273.248 579.578 274.31 581.875 274.31C583.392 274.31 584.54 273.833 585.32 272.88C586.143 271.927 586.555 270.605 586.555 268.915C586.555 267.918 586.36 267.073 585.97 266.38C585.58 265.643 584.908 264.842 583.955 263.975C583.002 263.065 581.398 261.7 579.145 259.88C576.328 257.67 574.378 255.807 573.295 254.29C572.255 252.773 571.735 251.105 571.735 249.285C571.735 246.642 572.58 244.497 574.27 242.85C576.003 241.203 578.17 240.38 580.77 240.38C583.067 240.38 585.103 241.117 586.88 242.59C587.183 242.893 587.487 243.045 587.79 243.045C588.18 243.045 588.44 242.785 588.57 242.265L588.96 240.835H590.455L590.715 252.21H589.285C588.895 249.567 587.985 247.4 586.555 245.71C585.125 243.977 583.37 243.11 581.29 243.11C579.99 243.11 578.95 243.522 578.17 244.345C577.39 245.125 577 246.165 577 247.465C577 248.722 577.412 249.827 578.235 250.78C579.058 251.733 580.727 253.207 583.24 255.2C586.447 257.713 588.678 259.815 589.935 261.505C591.235 263.195 591.885 265.21 591.885 267.55C591.885 270.627 590.997 272.988 589.22 274.635C587.443 276.238 585.212 277.04 582.525 277.04ZM619.187 269.305C619.187 270.778 619.274 271.862 619.447 272.555C619.664 273.248 620.054 273.747 620.617 274.05C621.181 274.31 622.047 274.44 623.217 274.44V276H608.527V274.44C609.827 274.44 610.781 274.31 611.387 274.05C611.994 273.747 612.406 273.248 612.622 272.555C612.839 271.862 612.947 270.778 612.947 269.305L612.882 231.93C612.882 230.283 612.839 229.2 612.752 228.68C612.666 228.16 612.362 227.9 611.842 227.9C611.366 227.9 610.456 228.247 609.112 228.94L608.462 227.575L613.532 224.91L618.342 222.44L619.187 223.35V247.205H619.382C620.986 244.952 622.589 243.262 624.192 242.135C625.796 240.965 627.637 240.38 629.717 240.38C632.014 240.38 633.769 241.182 634.982 242.785C636.196 244.388 636.802 246.728 636.802 249.805V269.305C636.802 270.778 636.911 271.862 637.127 272.555C637.344 273.248 637.734 273.747 638.297 274.05C638.904 274.31 639.857 274.44 641.157 274.44V276H626.597V274.44C627.767 274.44 628.612 274.31 629.132 274.05C629.696 273.747 630.064 273.248 630.237 272.555C630.454 271.862 630.562 270.778 630.562 269.305V250.13C630.562 246.663 629.284 244.93 626.727 244.93C625.427 244.93 624.171 245.363 622.957 246.23C621.744 247.053 620.487 248.288 619.187 249.935V269.305ZM667.373 262.09C666.723 267.16 665.358 270.93 663.278 273.4C661.241 275.827 658.641 277.04 655.478 277.04C653.051 277.04 650.928 276.325 649.108 274.895C647.331 273.422 645.945 271.363 644.948 268.72C643.995 266.033 643.518 262.913 643.518 259.36C643.518 255.893 644.016 252.73 645.013 249.87C646.01 246.967 647.418 244.67 649.238 242.98C651.101 241.247 653.29 240.38 655.803 240.38C659.443 240.38 662.216 241.918 664.123 244.995C666.03 248.028 666.983 252.037 666.983 257.02H649.823V257.15C649.823 261.7 650.516 265.362 651.903 268.135C653.29 270.865 655.305 272.23 657.948 272.23C659.638 272.23 661.176 271.45 662.563 269.89C663.993 268.33 665.076 265.73 665.813 262.09H667.373ZM655.803 243.11C652.293 243.11 650.321 246.858 649.888 254.355H660.743C660.743 246.858 659.096 243.11 655.803 243.11ZM689.861 240.38C690.988 240.38 691.854 240.683 692.461 241.29C693.068 241.897 693.371 242.742 693.371 243.825C693.371 245.038 693.046 246.035 692.396 246.815C691.789 247.595 691.053 247.985 690.186 247.985C689.623 247.985 689.168 247.898 688.821 247.725C688.518 247.508 688.128 247.14 687.651 246.62C687.218 246.187 686.871 245.905 686.611 245.775C686.394 245.602 686.091 245.515 685.701 245.515C684.921 245.515 684.119 246.057 683.296 247.14C682.473 248.18 681.736 249.675 681.086 251.625V268.915C681.086 270.475 681.238 271.623 681.541 272.36C681.888 273.097 682.538 273.617 683.491 273.92C684.444 274.223 685.939 274.375 687.976 274.375V276H670.426V274.44C671.726 274.44 672.679 274.31 673.286 274.05C673.893 273.747 674.304 273.248 674.521 272.555C674.738 271.862 674.846 270.778 674.846 269.305V249.285C674.846 247.508 674.781 246.338 674.651 245.775C674.521 245.168 674.153 244.865 673.546 244.865C672.983 244.865 672.116 245.125 670.946 245.645L670.296 244.15L675.496 242.07L679.916 240.25L681.086 241.225V247.465H681.281C682.321 245.515 683.599 243.847 685.116 242.46C686.633 241.073 688.214 240.38 689.861 240.38ZM718.916 262.09C718.266 267.16 716.901 270.93 714.821 273.4C712.784 275.827 710.184 277.04 707.021 277.04C704.594 277.04 702.471 276.325 700.651 274.895C698.874 273.422 697.488 271.363 696.491 268.72C695.538 266.033 695.061 262.913 695.061 259.36C695.061 255.893 695.559 252.73 696.556 249.87C697.553 246.967 698.961 244.67 700.781 242.98C702.644 241.247 704.833 240.38 707.346 240.38C710.986 240.38 713.759 241.918 715.666 244.995C717.573 248.028 718.526 252.037 718.526 257.02H701.366V257.15C701.366 261.7 702.059 265.362 703.446 268.135C704.833 270.865 706.848 272.23 709.491 272.23C711.181 272.23 712.719 271.45 714.106 269.89C715.536 268.33 716.619 265.73 717.356 262.09H718.916ZM707.346 243.11C703.836 243.11 701.864 246.858 701.431 254.355H712.286C712.286 246.858 710.639 243.11 707.346 243.11ZM765.173 268.655C764.956 274.245 762.941 277.04 759.128 277.04C755.185 277.04 753.213 274.202 753.213 268.525V267.355C752.476 270.432 751.263 272.815 749.573 274.505C747.926 276.195 745.933 277.04 743.593 277.04C741.34 277.04 739.563 276.325 738.263 274.895C737.006 273.422 736.378 271.58 736.378 269.37C736.378 266.987 737.115 264.928 738.588 263.195C740.061 261.418 741.816 259.945 743.853 258.775C745.933 257.605 748.598 256.283 751.848 254.81L753.213 254.225V250.455C753.213 247.768 752.78 245.84 751.913 244.67C751.09 243.5 749.855 242.915 748.208 242.915C746.908 242.915 745.846 243.24 745.023 243.89C744.243 244.497 743.853 245.32 743.853 246.36C743.853 246.75 743.918 247.14 744.048 247.53C744.178 247.92 744.265 248.158 744.308 248.245C744.611 248.938 744.763 249.588 744.763 250.195C744.763 251.105 744.481 251.842 743.918 252.405C743.355 252.925 742.575 253.185 741.578 253.185C740.451 253.185 739.563 252.817 738.913 252.08C738.306 251.343 738.003 250.368 738.003 249.155C738.003 247.552 738.48 246.078 739.433 244.735C740.43 243.392 741.773 242.33 743.463 241.55C745.196 240.727 747.125 240.315 749.248 240.315C752.455 240.315 754.946 241.225 756.723 243.045C758.543 244.822 759.453 247.443 759.453 250.91V270.085C759.453 271.602 759.583 272.642 759.843 273.205C760.146 273.768 760.58 274.05 761.143 274.05C762.703 274.05 763.548 272.252 763.678 268.655H765.173ZM746.128 272.1C747.515 272.1 748.836 271.428 750.093 270.085C751.35 268.742 752.39 266.727 753.213 264.04V256.37C749.833 258.103 747.211 259.815 745.348 261.505C743.528 263.152 742.618 265.188 742.618 267.615C742.618 269.002 742.921 270.107 743.528 270.93C744.135 271.71 745.001 272.1 746.128 272.1ZM766.529 274.44C767.829 274.44 768.783 274.31 769.389 274.05C769.996 273.747 770.408 273.248 770.624 272.555C770.841 271.862 770.949 270.778 770.949 269.305V249.285C770.949 247.508 770.884 246.338 770.754 245.775C770.624 245.168 770.256 244.865 769.649 244.865C769.086 244.865 768.219 245.125 767.049 245.645L766.399 244.15L771.599 242.07L776.019 240.25L777.254 241.225V247.205H777.449C779.096 244.952 780.699 243.262 782.259 242.135C783.819 240.965 785.639 240.38 787.719 240.38C790.016 240.38 791.771 241.203 792.984 242.85C794.241 244.453 794.869 246.772 794.869 249.805V269.305C794.869 270.778 794.978 271.862 795.194 272.555C795.411 273.248 795.801 273.747 796.364 274.05C796.971 274.31 797.903 274.44 799.159 274.44V276H784.599V274.44C785.769 274.44 786.614 274.31 787.134 274.05C787.698 273.747 788.066 273.248 788.239 272.555C788.456 271.862 788.564 270.778 788.564 269.305V250.195C788.564 246.685 787.286 244.93 784.729 244.93C783.429 244.93 782.173 245.363 780.959 246.23C779.789 247.053 778.554 248.288 777.254 249.935V269.305C777.254 270.778 777.341 271.862 777.514 272.555C777.731 273.248 778.099 273.747 778.619 274.05C779.183 274.31 780.049 274.44 781.219 274.44V276H766.529V274.44ZM831.671 273.4L822.051 277.04L820.686 275.935V270.605H820.426C819.559 272.598 818.368 274.18 816.851 275.35C815.378 276.477 813.623 277.04 811.586 277.04C809.549 277.04 807.773 276.325 806.256 274.895C804.739 273.465 803.569 271.45 802.746 268.85C801.923 266.25 801.511 263.238 801.511 259.815C801.511 256.045 801.988 252.687 802.941 249.74C803.938 246.793 805.324 244.497 807.101 242.85C808.921 241.203 811.001 240.38 813.341 240.38C814.944 240.38 816.374 240.705 817.631 241.355C818.931 242.005 819.949 242.893 820.686 244.02V231.865C820.686 230.262 820.621 229.178 820.491 228.615C820.404 228.052 820.101 227.77 819.581 227.77C819.061 227.77 818.151 228.095 816.851 228.745L816.201 227.38L826.146 222.44L826.991 223.35V268.265C826.991 269.998 827.056 271.168 827.186 271.775C827.359 272.338 827.771 272.62 828.421 272.62C828.898 272.62 829.786 272.382 831.086 271.905L831.671 273.4ZM814.316 272.49C815.659 272.49 816.829 272.057 817.826 271.19C818.823 270.28 819.776 269.002 820.686 267.355V255.33C820.686 251.95 820.166 249.177 819.126 247.01C818.129 244.843 816.656 243.76 814.706 243.76C812.539 243.76 810.914 245.103 809.831 247.79C808.748 250.433 808.206 253.922 808.206 258.255C808.206 262.588 808.704 266.055 809.701 268.655C810.741 271.212 812.279 272.49 814.316 272.49ZM867.344 261.44C867.344 266.727 866.716 270.648 865.459 273.205C864.203 275.762 862.036 277.04 858.959 277.04C856.316 277.04 854.366 276.13 853.109 274.31C851.853 272.447 851.224 269.305 851.224 264.885V244.215H846.674V241.81C849.058 241.767 850.964 240.9 852.394 239.21C853.824 237.52 854.713 235.137 855.059 232.06H857.399V241.55H865.199V244.215H857.529V263.195C857.529 266.402 857.768 268.807 858.244 270.41C858.764 272.013 859.739 272.815 861.169 272.815C862.643 272.815 863.726 271.883 864.419 270.02C865.156 268.157 865.524 265.297 865.524 261.44H867.344ZM879.822 269.305C879.822 270.778 879.909 271.862 880.082 272.555C880.299 273.248 880.689 273.747 881.252 274.05C881.815 274.31 882.682 274.44 883.852 274.44V276H869.162V274.44C870.462 274.44 871.415 274.31 872.022 274.05C872.629 273.747 873.04 273.248 873.257 272.555C873.474 271.862 873.582 270.778 873.582 269.305L873.517 231.93C873.517 230.283 873.474 229.2 873.387 228.68C873.3 228.16 872.997 227.9 872.477 227.9C872 227.9 871.09 228.247 869.747 228.94L869.097 227.575L874.167 224.91L878.977 222.44L879.822 223.35V247.205H880.017C881.62 244.952 883.224 243.262 884.827 242.135C886.43 240.965 888.272 240.38 890.352 240.38C892.649 240.38 894.404 241.182 895.617 242.785C896.83 244.388 897.437 246.728 897.437 249.805V269.305C897.437 270.778 897.545 271.862 897.762 272.555C897.979 273.248 898.369 273.747 898.932 274.05C899.539 274.31 900.492 274.44 901.792 274.44V276H887.232V274.44C888.402 274.44 889.247 274.31 889.767 274.05C890.33 273.747 890.699 273.248 890.872 272.555C891.089 271.862 891.197 270.778 891.197 269.305V250.13C891.197 246.663 889.919 244.93 887.362 244.93C886.062 244.93 884.805 245.363 883.592 246.23C882.379 247.053 881.122 248.288 879.822 249.935V269.305ZM928.008 262.09C927.358 267.16 925.993 270.93 923.913 273.4C921.876 275.827 919.276 277.04 916.113 277.04C913.686 277.04 911.563 276.325 909.743 274.895C907.966 273.422 906.579 271.363 905.583 268.72C904.629 266.033 904.153 262.913 904.153 259.36C904.153 255.893 904.651 252.73 905.648 249.87C906.644 246.967 908.053 244.67 909.873 242.98C911.736 241.247 913.924 240.38 916.438 240.38C920.078 240.38 922.851 241.918 924.758 244.995C926.664 248.028 927.618 252.037 927.618 257.02H910.458V257.15C910.458 261.7 911.151 265.362 912.538 268.135C913.924 270.865 915.939 272.23 918.583 272.23C920.273 272.23 921.811 271.45 923.198 269.89C924.628 268.33 925.711 265.73 926.448 262.09H928.008ZM916.438 243.11C912.928 243.11 910.956 246.858 910.523 254.355H921.378C921.378 246.858 919.731 243.11 916.438 243.11ZM950.496 240.38C951.622 240.38 952.489 240.683 953.096 241.29C953.702 241.897 954.006 242.742 954.006 243.825C954.006 245.038 953.681 246.035 953.031 246.815C952.424 247.595 951.687 247.985 950.821 247.985C950.257 247.985 949.802 247.898 949.456 247.725C949.152 247.508 948.762 247.14 948.286 246.62C947.852 246.187 947.506 245.905 947.246 245.775C947.029 245.602 946.726 245.515 946.336 245.515C945.556 245.515 944.754 246.057 943.931 247.14C943.107 248.18 942.371 249.675 941.721 251.625V268.915C941.721 270.475 941.872 271.623 942.176 272.36C942.522 273.097 943.172 273.617 944.126 273.92C945.079 274.223 946.574 274.375 948.611 274.375V276H931.061V274.44C932.361 274.44 933.314 274.31 933.921 274.05C934.527 273.747 934.939 273.248 935.156 272.555C935.372 271.862 935.481 270.778 935.481 269.305V249.285C935.481 247.508 935.416 246.338 935.286 245.775C935.156 245.168 934.787 244.865 934.181 244.865C933.617 244.865 932.751 245.125 931.581 245.645L930.931 244.15L936.131 242.07L940.551 240.25L941.721 241.225V247.465H941.916C942.956 245.515 944.234 243.847 945.751 242.46C947.267 241.073 948.849 240.38 950.496 240.38ZM979.551 262.09C978.901 267.16 977.536 270.93 975.456 273.4C973.419 275.827 970.819 277.04 967.656 277.04C965.229 277.04 963.106 276.325 961.286 274.895C959.509 273.422 958.122 271.363 957.126 268.72C956.172 266.033 955.696 262.913 955.696 259.36C955.696 255.893 956.194 252.73 957.191 249.87C958.187 246.967 959.596 244.67 961.416 242.98C963.279 241.247 965.467 240.38 967.981 240.38C971.621 240.38 974.394 241.918 976.301 244.995C978.207 248.028 979.161 252.037 979.161 257.02H962.001V257.15C962.001 261.7 962.694 265.362 964.081 268.135C965.467 270.865 967.482 272.23 970.126 272.23C971.816 272.23 973.354 271.45 974.741 269.89C976.171 268.33 977.254 265.73 977.991 262.09H979.551ZM967.981 243.11C964.471 243.11 962.499 246.858 962.066 254.355H972.921C972.921 246.858 971.274 243.11 967.981 243.11ZM986.155 277.04C985.071 277.04 984.161 276.672 983.425 275.935C982.688 275.198 982.32 274.288 982.32 273.205C982.32 272.165 982.688 271.277 983.425 270.54C984.161 269.76 985.071 269.37 986.155 269.37C987.195 269.37 988.083 269.76 988.82 270.54C989.6 271.277 989.99 272.165 989.99 273.205C989.99 274.288 989.6 275.198 988.82 275.935C988.083 276.672 987.195 277.04 986.155 277.04ZM1012.01 229.915C1011.01 229.915 1010.21 229.59 1009.61 228.94C1009 228.247 1008.7 227.402 1008.7 226.405C1008.7 225.235 1009.09 224.26 1009.87 223.48C1010.69 222.7 1011.77 222.31 1013.12 222.31C1014.55 222.31 1015.74 222.852 1016.69 223.935C1017.64 224.975 1018.12 226.362 1018.12 228.095C1018.12 230.088 1017.45 231.887 1016.11 233.49C1014.81 235.093 1012.77 236.307 1010 237.13V235.44C1011.73 234.92 1013.09 234.162 1014.09 233.165C1015.13 232.168 1015.65 231.15 1015.65 230.11C1015.65 229.287 1015.39 228.875 1014.87 228.875C1014.7 228.875 1014.35 229.048 1013.83 229.395C1013.31 229.742 1012.7 229.915 1012.01 229.915ZM999.53 229.915C998.533 229.915 997.732 229.59 997.125 228.94C996.518 228.247 996.215 227.402 996.215 226.405C996.215 225.235 996.605 224.26 997.385 223.48C998.208 222.7 999.292 222.31 1000.64 222.31C1002.07 222.31 1003.26 222.852 1004.21 223.935C1005.16 224.975 1005.64 226.362 1005.64 228.095C1005.64 230.088 1004.97 231.887 1003.63 233.49C1002.33 235.093 1000.29 236.307 997.515 237.13V235.44C999.248 234.92 1000.61 234.162 1001.61 233.165C1002.65 232.168 1003.17 231.15 1003.17 230.11C1003.17 229.287 1002.91 228.875 1002.39 228.875C1002.22 228.875 1001.87 229.048 1001.35 229.395C1000.83 229.742 1000.22 229.915 999.53 229.915Z" fill="#EE5128"/>
</svg>
