<svg width="1425" height="354" viewBox="0 0 1425 354" fill="none" xmlns="http://www.w3.org/2000/svg">
<rect width="1425" height="353.942" fill="#F3F3F3"/>
<path d="M105.2 135.75C103.567 135.75 102 135.467 100.5 134.9C99.0333 134.333 97.7667 133.583 96.7 132.65C96.3667 132.383 96.0833 132.25 95.85 132.25C95.45 132.25 95.1833 132.533 95.05 133.1L94.6 135.25H93.1L93.3 119.6H94.85C94.9833 121.7 95.4833 123.8 96.35 125.9C97.25 128 98.4333 129.733 99.9 131.1C101.4 132.467 103.083 133.15 104.95 133.15C106.617 133.15 107.883 132.65 108.75 131.65C109.65 130.617 110.1 129.383 110.1 127.95C110.1 126.15 109.533 124.533 108.4 123.1C107.3 121.633 105.633 120.05 103.4 118.35C100.867 116.45 98.9833 114.967 97.75 113.9C96.5167 112.8 95.5 111.533 94.7 110.1C93.9333 108.633 93.55 106.9 93.55 104.9C93.55 102.667 94.05 100.75 95.05 99.15C96.05 97.5167 97.4 96.2833 99.1 95.45C100.833 94.6167 102.733 94.2 104.8 94.2C107.7 94.2 110.117 95.05 112.05 96.75C112.417 97.05 112.733 97.2 113 97.2C113.5 97.2 113.8 96.85 113.9 96.15L114.2 94.7H115.55L116.1 108.05H114.65C114.517 106.217 114.05 104.433 113.25 102.7C112.483 100.967 111.433 99.55 110.1 98.45C108.8 97.35 107.317 96.8 105.65 96.8C104.15 96.8 102.983 97.2667 102.15 98.2C101.317 99.1 100.9 100.217 100.9 101.55C100.9 102.583 101.133 103.517 101.6 104.35C102.067 105.15 102.8 105.983 103.8 106.85C104.8 107.717 106.267 108.867 108.2 110.3C110.4 111.933 112.15 113.4 113.45 114.7C114.75 116 115.75 117.4 116.45 118.9C117.15 120.4 117.5 122.117 117.5 124.05C117.5 126.483 116.933 128.583 115.8 130.35C114.7 132.117 113.217 133.467 111.35 134.4C109.483 135.3 107.433 135.75 105.2 135.75ZM124.304 100.7C124.304 99.6333 124.138 98.8 123.804 98.2C123.504 97.5667 122.954 97.1 122.154 96.8C121.388 96.5 120.254 96.35 118.754 96.35V95H139.254V96.35C137.121 96.35 135.671 96.6833 134.904 97.35C134.138 97.9833 133.754 99.1 133.754 100.7V129.25C133.754 130.85 134.138 131.983 134.904 132.65C135.671 133.283 137.121 133.6 139.254 133.6V135H118.754V133.6C120.254 133.6 121.388 133.45 122.154 133.15C122.954 132.85 123.504 132.4 123.804 131.8C124.138 131.167 124.304 130.317 124.304 129.25V100.7ZM172.839 129.6C173.405 131.2 174.105 132.267 174.939 132.8C175.772 133.333 177.039 133.6 178.739 133.6V135H159.089V133.6C160.822 133.6 162.022 133.45 162.689 133.15C163.355 132.817 163.689 132.283 163.689 131.55C163.689 131.083 163.555 130.417 163.289 129.55L161.389 123.5H148.839L146.839 129.55C146.505 130.483 146.339 131.183 146.339 131.65C146.339 132.35 146.655 132.85 147.289 133.15C147.955 133.45 149.105 133.6 150.739 133.6V135H138.189V133.6C139.855 133.6 141.105 133.333 141.939 132.8C142.772 132.233 143.455 131.167 143.989 129.6L156.039 94.55H160.489L172.839 129.6ZM155.189 104.4L149.639 121.05H160.639L155.389 104.4H155.189ZM181.823 98C180.523 98 179.49 98.2333 178.723 98.7C177.956 99.1667 177.356 99.9833 176.923 101.15C176.49 102.317 176.206 103.983 176.073 106.15L174.423 106.05L174.973 97.25L175.123 95H206.073L206.223 97.25L206.773 106.05L205.123 106.15C204.99 103.983 204.706 102.317 204.273 101.15C203.84 99.9833 203.24 99.1667 202.473 98.7C201.706 98.2333 200.673 98 199.373 98H197.223C195.956 98 195.323 98.6167 195.323 99.85V129.25C195.323 130.317 195.473 131.167 195.773 131.8C196.106 132.4 196.656 132.85 197.423 133.15C198.223 133.45 199.373 133.6 200.873 133.6V135H180.373V133.6C182.506 133.6 183.956 133.283 184.723 132.65C185.49 131.983 185.873 130.85 185.873 129.25V99.85C185.873 98.6167 185.256 98 184.023 98H181.823Z" fill="#282F2D"/>
<path d="M1326 305.02C1325.28 305.02 1324.68 304.82 1324.2 304.42C1323.74 304.04 1323.51 303.55 1323.51 302.95C1323.51 302.47 1323.65 302.09 1323.93 301.81C1324.21 301.55 1324.57 301.42 1325.01 301.42C1325.35 301.42 1325.63 301.5 1325.85 301.66C1326.07 301.82 1326.28 302.04 1326.48 302.32C1326.66 302.58 1326.83 302.76 1326.99 302.86C1327.15 302.96 1327.34 303.01 1327.56 303.01C1328.3 303.01 1328.95 301.93 1329.51 299.77C1329.53 299.67 1329.54 299.49 1329.54 299.23C1329.54 298.53 1329.45 297.76 1329.27 296.92L1325.55 285.07C1325.25 284.15 1324.93 283.55 1324.59 283.27C1324.27 282.97 1323.77 282.82 1323.09 282.82V282.1H1330.11V282.82C1329.45 282.82 1328.99 282.88 1328.73 283C1328.49 283.1 1328.37 283.31 1328.37 283.63C1328.37 283.89 1328.47 284.37 1328.67 285.07L1331.19 293.89H1331.34L1333.83 285.07C1334.03 284.37 1334.13 283.89 1334.13 283.63C1334.13 283.31 1334 283.1 1333.74 283C1333.5 282.88 1333.05 282.82 1332.39 282.82V282.1H1337.34V282.82C1336.72 282.82 1336.25 282.97 1335.93 283.27C1335.61 283.57 1335.32 284.17 1335.06 285.07L1331.28 297.82C1330.8 299.4 1330.34 300.69 1329.9 301.69C1329.46 302.69 1328.92 303.49 1328.28 304.09C1327.66 304.69 1326.9 305 1326 305.02ZM1340.97 278.62C1340.41 278.62 1339.94 278.45 1339.56 278.11C1339.2 277.75 1339.02 277.31 1339.02 276.79C1339.02 276.25 1339.2 275.81 1339.56 275.47C1339.94 275.11 1340.41 274.93 1340.97 274.93C1341.53 274.93 1341.99 275.11 1342.35 275.47C1342.71 275.81 1342.89 276.25 1342.89 276.79C1342.89 277.31 1342.71 277.75 1342.35 278.11C1341.99 278.45 1341.53 278.62 1340.97 278.62ZM1342.65 294.91C1342.65 295.59 1342.7 296.09 1342.8 296.41C1342.9 296.73 1343.1 296.96 1343.4 297.1C1343.7 297.22 1344.16 297.28 1344.78 297.28V298H1337.64V297.28C1338.26 297.28 1338.72 297.22 1339.02 297.1C1339.32 296.96 1339.52 296.73 1339.62 296.41C1339.72 296.09 1339.77 295.59 1339.77 294.91V285.67C1339.77 284.87 1339.74 284.33 1339.68 284.05C1339.62 283.77 1339.44 283.63 1339.14 283.63C1338.92 283.63 1338.54 283.74 1338 283.96L1337.73 283.27L1342.14 281.5L1342.65 281.95V294.91ZM1353.75 273.19C1354.45 273.19 1355.07 273.3 1355.61 273.52C1356.17 273.74 1356.6 274.03 1356.9 274.39C1357.22 274.75 1357.38 275.13 1357.38 275.53C1357.38 275.93 1357.25 276.27 1356.99 276.55C1356.73 276.83 1356.36 276.97 1355.88 276.97C1355.54 276.97 1355.26 276.88 1355.04 276.7C1354.84 276.52 1354.6 276.22 1354.32 275.8C1354 275.32 1353.75 275 1353.57 274.84C1353.41 274.68 1353.2 274.6 1352.94 274.6C1352.3 274.6 1351.8 274.97 1351.44 275.71C1351.1 276.43 1350.93 277.64 1350.93 279.34V282.1H1354.29V283.33H1350.93V294.91C1350.93 295.59 1351 296.09 1351.14 296.41C1351.3 296.73 1351.59 296.96 1352.01 297.1C1352.43 297.22 1353.08 297.28 1353.96 297.28V298H1345.77V297.28C1346.43 297.28 1346.91 297.22 1347.21 297.1C1347.53 296.96 1347.74 296.73 1347.84 296.41C1347.96 296.09 1348.02 295.59 1348.02 294.91V283.33H1346.04V282.34L1348.02 282.19V279.88C1348.02 278.3 1348.3 277.01 1348.86 276.01C1349.42 275.01 1350.13 274.29 1350.99 273.85C1351.87 273.41 1352.79 273.19 1353.75 273.19ZM1366.02 291.58C1365.72 293.92 1365.09 295.66 1364.13 296.8C1363.19 297.92 1361.99 298.48 1360.53 298.48C1359.41 298.48 1358.43 298.15 1357.59 297.49C1356.77 296.81 1356.13 295.86 1355.67 294.64C1355.23 293.4 1355.01 291.96 1355.01 290.32C1355.01 288.72 1355.24 287.26 1355.7 285.94C1356.16 284.6 1356.81 283.54 1357.65 282.76C1358.51 281.96 1359.52 281.56 1360.68 281.56C1362.36 281.56 1363.64 282.27 1364.52 283.69C1365.4 285.09 1365.84 286.94 1365.84 289.24H1357.92V289.3C1357.92 291.4 1358.24 293.09 1358.88 294.37C1359.52 295.63 1360.45 296.26 1361.67 296.26C1362.45 296.26 1363.16 295.9 1363.8 295.18C1364.46 294.46 1364.96 293.26 1365.3 291.58H1366.02ZM1360.68 282.82C1359.06 282.82 1358.15 284.55 1357.95 288.01H1362.96C1362.96 284.55 1362.2 282.82 1360.68 282.82ZM1370.73 278.62C1370.17 278.62 1369.7 278.45 1369.32 278.11C1368.96 277.75 1368.78 277.31 1368.78 276.79C1368.78 276.25 1368.96 275.81 1369.32 275.47C1369.7 275.11 1370.17 274.93 1370.73 274.93C1371.29 274.93 1371.75 275.11 1372.11 275.47C1372.47 275.81 1372.65 276.25 1372.65 276.79C1372.65 277.31 1372.47 277.75 1372.11 278.11C1371.75 278.45 1371.29 278.62 1370.73 278.62ZM1372.41 294.91C1372.41 295.59 1372.46 296.09 1372.56 296.41C1372.66 296.73 1372.86 296.96 1373.16 297.1C1373.46 297.22 1373.92 297.28 1374.54 297.28V298H1367.4V297.28C1368.02 297.28 1368.48 297.22 1368.78 297.1C1369.08 296.96 1369.28 296.73 1369.38 296.41C1369.48 296.09 1369.53 295.59 1369.53 294.91V285.67C1369.53 284.87 1369.5 284.33 1369.44 284.05C1369.38 283.77 1369.2 283.63 1368.9 283.63C1368.68 283.63 1368.3 283.74 1367.76 283.96L1367.49 283.27L1371.9 281.5L1372.41 281.95V294.91Z" fill="#C2BEBE"/>
<path d="M103.46 209.91V210.75C97.475 206.83 92.75 200.215 92.75 191.15C92.75 181.945 97.09 175.015 102.865 171.55V172.39C98.63 176.345 96.775 183.555 96.775 191.15C96.775 198.255 98.945 205.605 103.46 209.91ZM105.481 202V201.16C107.511 201.16 107.861 200.635 107.861 198.395V187.615C107.861 185.27 107.861 184.78 105.761 185.655L105.411 184.85L108.211 183.73L110.591 182.75L111.256 183.275V186.495H111.361C112.936 184.325 114.511 182.82 116.891 182.82C119.376 182.82 120.741 184.605 120.741 187.895V198.395C120.741 200.635 121.056 201.16 123.051 201.16V202H115.211V201.16C117.066 201.16 117.346 200.635 117.346 198.395V188.105C117.346 186.18 116.611 185.27 115.281 185.27C113.846 185.27 112.586 186.25 111.256 187.965V198.395C111.256 200.635 111.536 201.16 113.391 201.16V202H105.481ZM127.525 202.56C126.37 202.56 125.46 201.65 125.46 200.495C125.46 199.375 126.37 198.43 127.525 198.43C128.645 198.43 129.59 199.375 129.59 200.495C129.59 201.65 128.645 202.56 127.525 202.56ZM132.382 210.75V209.91C136.897 205.605 139.067 198.255 139.067 191.15C139.067 183.555 137.212 176.345 132.977 172.39V171.55C138.752 175.015 143.092 181.945 143.092 191.15C143.092 200.215 138.367 206.83 132.382 210.75ZM165.133 173.58L173.393 198.57C174.128 200.705 174.898 201.16 177.173 201.16V202H166.533V201.16C169.928 201.16 169.963 200.6 169.333 198.535L167.653 193.145H158.273L156.558 198.57C155.893 200.6 155.928 201.16 159.253 201.16V202H151.343V201.16C153.548 201.16 154.318 200.705 155.018 198.57L163.208 173.58H165.133ZM162.928 178.62L158.728 191.78H167.198L163.068 178.62H162.928ZM194.931 182.82C198.466 182.82 200.146 186.635 200.146 192.025C200.146 197.765 197.941 202.42 194.126 202.42C192.481 202.42 190.871 201.58 189.926 199.9H189.856V206.095C189.856 208.37 190.206 208.86 192.341 208.86V209.7H184.011V208.86C186.146 208.86 186.461 208.37 186.461 206.095V187.615C186.461 185.27 186.461 184.78 184.361 185.62L184.046 184.815L189.296 182.75L189.856 183.275V186.355H189.996C191.361 184.115 192.971 182.82 194.931 182.82ZM193.251 200.74C195.631 200.74 196.471 196.82 196.471 192.55C196.471 187.86 195.526 185.235 193.496 185.235C192.061 185.235 190.766 186.495 189.856 188.035V194.405C189.856 198.325 191.396 200.74 193.251 200.74ZM212.299 182.82C213.524 182.82 214.189 183.52 214.189 184.675C214.189 186.04 213.384 186.915 212.474 186.915C211.844 186.915 211.564 186.67 211.109 186.18C210.654 185.725 210.479 185.585 210.059 185.585C209.254 185.585 208.309 186.74 207.574 188.875V198.185C207.574 200.565 208.099 201.125 211.284 201.125V202H201.834V201.16C203.864 201.16 204.214 200.635 204.214 198.395V187.615C204.214 185.27 204.214 184.78 202.114 185.655L201.764 184.85L204.564 183.73L206.944 182.75L207.574 183.275V186.635H207.679C208.659 184.78 210.374 182.82 212.299 182.82ZM222.624 202.56C218.074 202.56 215.099 198.535 215.099 192.795C215.099 187.16 217.864 182.82 222.624 182.82C227.139 182.82 230.149 186.845 230.149 192.585C230.149 198.22 227.349 202.56 222.624 202.56ZM223.149 201.02C225.634 201.02 226.614 197.73 226.614 194.65C226.614 189.89 225.179 184.36 222.099 184.36C219.614 184.36 218.599 187.65 218.599 190.73C218.599 195.49 220.069 201.02 223.149 201.02ZM238.773 199.2H242.833C246.473 199.2 248.118 200.25 248.118 202.91C248.118 206.795 243.918 210.26 238.038 210.26C234.293 210.26 231.038 208.895 231.038 206.025C231.038 204.03 232.508 202.7 234.713 201.72C233.278 201.16 232.648 200.18 232.648 198.99C232.648 197.38 233.768 196.225 235.343 195.245C233.628 194.09 232.648 192.095 232.648 189.68C232.648 185.76 235.168 182.855 239.193 182.855C240.523 182.855 241.678 183.17 242.658 183.765C244.058 182.96 245.563 182.61 246.648 182.61C247.663 182.61 247.943 183.1 247.943 183.66C247.943 184.325 247.523 184.85 246.683 184.85C245.353 184.85 244.408 184.15 243.393 184.29C244.793 185.48 245.598 187.3 245.598 189.575C245.598 193.565 243.078 196.33 239.158 196.33C238.073 196.33 237.093 196.12 236.253 195.735C235.553 196.295 235.098 196.855 235.098 197.555C235.098 198.465 235.378 199.2 238.773 199.2ZM238.738 184.185C236.813 184.185 236.078 186.25 236.078 188.455C236.078 191.395 237.023 194.965 239.578 194.965C241.398 194.965 242.203 193.215 242.203 190.87C242.203 187.825 241.153 184.185 238.738 184.185ZM238.878 208.16C243.323 208.16 246.158 205.955 246.158 203.995C246.158 202.63 245.213 202.315 242.728 202.315H238.388C237.408 202.315 236.568 202.245 235.868 202.07C234.678 203.015 233.838 204.065 233.838 205.185C233.838 206.655 235.203 208.16 238.878 208.16ZM259.261 182.82C260.486 182.82 261.151 183.52 261.151 184.675C261.151 186.04 260.346 186.915 259.436 186.915C258.806 186.915 258.526 186.67 258.071 186.18C257.616 185.725 257.441 185.585 257.021 185.585C256.216 185.585 255.271 186.74 254.536 188.875V198.185C254.536 200.565 255.061 201.125 258.246 201.125V202H248.796V201.16C250.826 201.16 251.176 200.635 251.176 198.395V187.615C251.176 185.27 251.176 184.78 249.076 185.655L248.726 184.85L251.526 183.73L253.906 182.75L254.536 183.275V186.635H254.641C255.621 184.78 257.336 182.82 259.261 182.82ZM276.519 198.045H277.324C277.219 200.705 276.379 202.56 274.069 202.56C272.074 202.56 270.884 201.23 270.884 197.975V197.345C270.079 200.635 268.224 202.56 265.704 202.56C263.219 202.56 261.819 200.705 261.819 198.43C261.819 194.02 266.894 192.06 270.884 190.275V188.245C270.884 185.235 269.904 184.185 268.189 184.185C266.824 184.185 265.844 184.885 265.844 186.04C265.844 186.845 266.334 187.3 266.334 188.105C266.334 189.05 265.739 189.715 264.619 189.715C263.359 189.715 262.694 188.84 262.694 187.545C262.694 184.955 265.214 182.785 268.749 182.785C272.144 182.785 274.244 184.71 274.244 188.49V198.815C274.244 200.53 274.594 200.95 275.154 200.95C275.889 200.95 276.449 200.25 276.519 198.045ZM267.069 199.9C268.469 199.9 269.974 198.605 270.884 195.56V191.43C268.049 192.9 265.179 194.58 265.179 197.485C265.179 198.955 265.844 199.9 267.069 199.9ZM301.714 187.86V198.395C301.714 200.635 302.029 201.16 304.059 201.16V202H296.324V201.16C298.074 201.16 298.354 200.635 298.354 198.395V188.035C298.354 186.145 297.654 185.27 296.394 185.27C295.134 185.27 294.014 186.145 292.789 187.79V187.86V198.395C292.789 200.635 293.069 201.16 294.819 201.16V202H287.364V201.16C289.149 201.16 289.429 200.635 289.429 198.395V188.035C289.429 186.145 288.729 185.27 287.469 185.27C286.174 185.27 285.019 186.18 283.759 187.93V198.395C283.759 200.635 284.039 201.16 285.824 201.16V202H278.019V201.16C280.084 201.16 280.399 200.635 280.399 198.395V187.615C280.399 185.27 280.399 184.815 278.334 185.655L277.984 184.885L283.094 182.75L283.759 183.275V186.495H283.864C285.194 184.5 286.699 182.82 289.079 182.82C291.144 182.82 292.369 184.115 292.719 186.495H292.824C294.119 184.5 295.624 182.82 298.004 182.82C300.454 182.82 301.714 184.64 301.714 187.86ZM321.946 173.055C324.501 173.055 326.181 174.42 326.181 175.785C326.181 176.66 325.586 177.465 324.431 177.465C323.591 177.465 323.171 176.94 322.611 176.1C321.946 175.085 321.666 174.7 321.001 174.7C319.601 174.7 318.656 176.065 318.656 180.23V183.45H322.576V184.885H318.656V198.395C318.656 200.635 319.146 201.16 322.191 201.16V202H312.636V201.16C314.911 201.16 315.261 200.635 315.261 198.395V184.885H312.951V183.73L315.261 183.555V180.86C315.261 174.98 318.866 173.055 321.946 173.055ZM330.939 202.56C326.389 202.56 323.414 198.535 323.414 192.795C323.414 187.16 326.179 182.82 330.939 182.82C335.454 182.82 338.464 186.845 338.464 192.585C338.464 198.22 335.664 202.56 330.939 202.56ZM331.464 201.02C333.949 201.02 334.929 197.73 334.929 194.65C334.929 189.89 333.494 184.36 330.414 184.36C327.929 184.36 326.914 187.65 326.914 190.73C326.914 195.49 328.384 201.02 331.464 201.02ZM350.521 182.82C351.746 182.82 352.411 183.52 352.411 184.675C352.411 186.04 351.606 186.915 350.696 186.915C350.066 186.915 349.786 186.67 349.331 186.18C348.876 185.725 348.701 185.585 348.281 185.585C347.476 185.585 346.531 186.74 345.796 188.875V198.185C345.796 200.565 346.321 201.125 349.506 201.125V202H340.056V201.16C342.086 201.16 342.436 200.635 342.436 198.395V187.615C342.436 185.27 342.436 184.78 340.336 185.655L339.986 184.85L342.786 183.73L345.166 182.75L345.796 183.275V186.635H345.901C346.881 184.78 348.596 182.82 350.521 182.82ZM384.805 187.86V198.395C384.805 200.635 385.12 201.16 387.15 201.16V202H379.415V201.16C381.165 201.16 381.445 200.635 381.445 198.395V188.035C381.445 186.145 380.745 185.27 379.485 185.27C378.225 185.27 377.105 186.145 375.88 187.79V187.86V198.395C375.88 200.635 376.16 201.16 377.91 201.16V202H370.455V201.16C372.24 201.16 372.52 200.635 372.52 198.395V188.035C372.52 186.145 371.82 185.27 370.56 185.27C369.265 185.27 368.11 186.18 366.85 187.93V198.395C366.85 200.635 367.13 201.16 368.915 201.16V202H361.11V201.16C363.175 201.16 363.49 200.635 363.49 198.395V187.615C363.49 185.27 363.49 184.815 361.425 185.655L361.075 184.885L366.185 182.75L366.85 183.275V186.495H366.955C368.285 184.5 369.79 182.82 372.17 182.82C374.235 182.82 375.46 184.115 375.81 186.495H375.915C377.21 184.5 378.715 182.82 381.095 182.82C383.545 182.82 384.805 184.64 384.805 187.86ZM400.429 194.51H401.269C400.534 200.145 398.154 202.56 394.864 202.56C390.909 202.56 388.424 198.815 388.424 193.04C388.424 187.51 390.874 182.82 395.039 182.82C399.134 182.82 401.059 186.67 401.059 191.78H391.819V191.85C391.819 196.61 393.289 199.97 396.194 199.97C397.769 199.97 399.589 198.745 400.429 194.51ZM395.039 184.29C392.939 184.29 392.064 186.845 391.854 190.345H397.699C397.699 186.985 397.104 184.29 395.039 184.29ZM420.226 194.16H421.206C421.206 199.62 420.121 202.56 416.691 202.56C413.961 202.56 412.526 200.915 412.526 196.015V184.885H410.076V183.59C412.631 183.52 414.241 181.63 414.591 178.34H415.851V183.45H420.051V184.885H415.921V195.105C415.921 198.22 416.236 200.285 417.881 200.285C419.456 200.285 420.226 198.325 420.226 194.16ZM430.402 202.56C425.852 202.56 422.877 198.535 422.877 192.795C422.877 187.16 425.642 182.82 430.402 182.82C434.917 182.82 437.927 186.845 437.927 192.585C437.927 198.22 435.127 202.56 430.402 202.56ZM430.927 201.02C433.412 201.02 434.392 197.73 434.392 194.65C434.392 189.89 432.957 184.36 429.877 184.36C427.392 184.36 426.377 187.65 426.377 190.73C426.377 195.49 427.847 201.02 430.927 201.02ZM459.423 194.51H460.263C459.528 200.145 457.148 202.56 453.858 202.56C449.903 202.56 447.418 198.815 447.418 193.04C447.418 187.51 449.868 182.82 454.033 182.82C458.128 182.82 460.053 186.67 460.053 191.78H450.813V191.85C450.813 196.61 452.283 199.97 455.188 199.97C456.763 199.97 458.583 198.745 459.423 194.51ZM454.033 184.29C451.933 184.29 451.058 186.845 450.848 190.345H456.693C456.693 186.985 456.098 184.29 454.033 184.29ZM469.911 192.13L473.271 198.78C474.286 200.81 475.126 201.16 476.596 201.16V202H468.581V201.16C470.821 201.16 470.611 200.81 469.561 198.78L467.321 194.37L465.186 198.745C464.206 200.775 463.996 201.16 466.306 201.16V202H460.111V201.16C461.756 201.16 462.596 200.81 463.611 198.78L466.586 192.865L463.471 186.67C462.456 184.64 461.616 184.29 460.286 184.29V183.45H467.986V184.29C465.851 184.29 466.096 184.64 467.146 186.67L469.176 190.66L471.241 186.67C472.291 184.64 472.571 184.29 470.366 184.29V183.45H476.141V184.29C474.741 184.29 473.866 184.64 472.816 186.635L469.911 192.13ZM487.749 182.82C491.284 182.82 492.964 186.635 492.964 192.025C492.964 197.765 490.759 202.42 486.944 202.42C485.299 202.42 483.689 201.58 482.744 199.9H482.674V206.095C482.674 208.37 483.024 208.86 485.159 208.86V209.7H476.829V208.86C478.964 208.86 479.279 208.37 479.279 206.095V187.615C479.279 185.27 479.279 184.78 477.179 185.62L476.864 184.815L482.114 182.75L482.674 183.275V186.355H482.814C484.179 184.115 485.789 182.82 487.749 182.82ZM486.069 200.74C488.449 200.74 489.289 196.82 489.289 192.55C489.289 187.86 488.344 185.235 486.314 185.235C484.879 185.235 483.584 186.495 482.674 188.035V194.405C482.674 198.325 484.214 200.74 486.069 200.74ZM500.148 173.65V198.395C500.148 200.635 500.463 201.16 502.598 201.16V202H494.268V201.16C496.403 201.16 496.753 200.635 496.753 198.395V178.165C496.753 175.925 496.753 175.47 494.653 176.52L494.303 175.75L499.623 173.16L500.148 173.65ZM511.374 202.56C506.824 202.56 503.849 198.535 503.849 192.795C503.849 187.16 506.614 182.82 511.374 182.82C515.889 182.82 518.899 186.845 518.899 192.585C518.899 198.22 516.099 202.56 511.374 202.56ZM511.899 201.02C514.384 201.02 515.364 197.73 515.364 194.65C515.364 189.89 513.929 184.36 510.849 184.36C508.364 184.36 507.349 187.65 507.349 190.73C507.349 195.49 508.819 201.02 511.899 201.02ZM530.956 182.82C532.181 182.82 532.846 183.52 532.846 184.675C532.846 186.04 532.041 186.915 531.131 186.915C530.501 186.915 530.221 186.67 529.766 186.18C529.311 185.725 529.136 185.585 528.716 185.585C527.911 185.585 526.966 186.74 526.231 188.875V198.185C526.231 200.565 526.756 201.125 529.941 201.125V202H520.491V201.16C522.521 201.16 522.871 200.635 522.871 198.395V187.615C522.871 185.27 522.871 184.78 520.771 185.655L520.421 184.85L523.221 183.73L525.601 182.75L526.231 183.275V186.635H526.336C527.316 184.78 529.031 182.82 530.956 182.82ZM545.761 194.51H546.601C545.866 200.145 543.486 202.56 540.196 202.56C536.241 202.56 533.756 198.815 533.756 193.04C533.756 187.51 536.206 182.82 540.371 182.82C544.466 182.82 546.391 186.67 546.391 191.78H537.151V191.85C537.151 196.61 538.621 199.97 541.526 199.97C543.101 199.97 544.921 198.745 545.761 194.51ZM540.371 184.29C538.271 184.29 537.396 186.845 537.186 190.345H543.031C543.031 186.985 542.436 184.29 540.371 184.29ZM559.853 179.39C558.523 179.39 557.578 178.48 557.578 177.255C557.578 175.995 558.523 175.085 559.853 175.085C561.148 175.085 562.093 175.995 562.093 177.255C562.093 178.48 561.148 179.39 559.853 179.39ZM561.813 183.275V198.395C561.813 200.635 562.163 201.16 564.298 201.16V202H555.968V201.16C558.103 201.16 558.453 200.635 558.453 198.395V187.615C558.453 185.27 558.418 184.78 556.388 185.62L556.073 184.815L561.218 182.75L561.813 183.275ZM565.813 202V201.16C567.843 201.16 568.193 200.635 568.193 198.395V187.615C568.193 185.27 568.193 184.78 566.093 185.655L565.743 184.85L568.543 183.73L570.923 182.75L571.588 183.275V186.495H571.693C573.268 184.325 574.843 182.82 577.223 182.82C579.708 182.82 581.073 184.605 581.073 187.895V198.395C581.073 200.635 581.388 201.16 583.383 201.16V202H575.543V201.16C577.398 201.16 577.678 200.635 577.678 198.395V188.105C577.678 186.18 576.943 185.27 575.613 185.27C574.178 185.27 572.918 186.25 571.588 187.965V198.395C571.588 200.635 571.868 201.16 573.723 201.16V202H565.813ZM601.857 194.16H602.837C602.837 199.62 601.752 202.56 598.322 202.56C595.592 202.56 594.157 200.915 594.157 196.015V184.885H591.707V183.59C594.262 183.52 595.872 181.63 596.222 178.34H597.482V183.45H601.682V184.885H597.552V195.105C597.552 198.22 597.867 200.285 599.512 200.285C601.087 200.285 601.857 198.325 601.857 194.16ZM609.556 187.965V198.395C609.556 200.635 609.871 201.16 611.726 201.16V202H603.816V201.16C605.846 201.16 606.196 200.635 606.196 198.395L606.161 178.27C606.161 176.03 606.231 175.575 604.131 176.66L603.781 175.925L606.511 174.49L609.101 173.16L609.556 173.65V186.495H609.661C611.236 184.325 612.846 182.82 615.226 182.82C617.711 182.82 619.041 184.605 619.041 187.895V198.395C619.041 200.635 619.356 201.16 621.386 201.16V202H613.546V201.16C615.366 201.16 615.681 200.635 615.681 198.395V188.07C615.681 186.145 614.911 185.27 613.616 185.27C612.146 185.27 610.886 186.25 609.556 187.965ZM634.662 194.51H635.502C634.767 200.145 632.387 202.56 629.097 202.56C625.142 202.56 622.657 198.815 622.657 193.04C622.657 187.51 625.107 182.82 629.272 182.82C633.367 182.82 635.292 186.67 635.292 191.78H626.052V191.85C626.052 196.61 627.522 199.97 630.427 199.97C632.002 199.97 633.822 198.745 634.662 194.51ZM629.272 184.29C627.172 184.29 626.297 186.845 626.087 190.345H631.932C631.932 186.985 631.337 184.29 629.272 184.29ZM651.52 202.56C647.425 202.56 645.045 198.64 645.045 193.04C645.045 187.23 647.6 182.82 652.115 182.82C655.055 182.82 657.05 184.745 657.05 187.37C657.05 188.84 656.385 189.715 655.195 189.715C654.11 189.715 653.55 188.98 653.55 188.105C653.55 187.51 653.795 186.81 653.795 186.075C653.795 184.885 653.13 184.29 652.08 184.29C649.56 184.29 648.51 187.755 648.51 191.71C648.51 196.26 649.91 199.9 652.78 199.9C654.355 199.9 656.14 198.71 656.77 194.3H657.61C657.225 200.11 654.67 202.56 651.52 202.56ZM669.623 182.82C670.848 182.82 671.513 183.52 671.513 184.675C671.513 186.04 670.708 186.915 669.798 186.915C669.168 186.915 668.888 186.67 668.433 186.18C667.978 185.725 667.803 185.585 667.383 185.585C666.578 185.585 665.633 186.74 664.898 188.875V198.185C664.898 200.565 665.423 201.125 668.608 201.125V202H659.158V201.16C661.188 201.16 661.538 200.635 661.538 198.395V187.615C661.538 185.27 661.538 184.78 659.438 185.655L659.088 184.85L661.888 183.73L664.268 182.75L664.898 183.275V186.635H665.003C665.983 184.78 667.698 182.82 669.623 182.82ZM684.428 194.51H685.268C684.533 200.145 682.153 202.56 678.863 202.56C674.908 202.56 672.423 198.815 672.423 193.04C672.423 187.51 674.873 182.82 679.038 182.82C683.133 182.82 685.058 186.67 685.058 191.78H675.818V191.85C675.818 196.61 677.288 199.97 680.193 199.97C681.768 199.97 683.588 198.745 684.428 194.51ZM679.038 184.29C676.938 184.29 676.063 186.845 675.853 190.345H681.698C681.698 186.985 681.103 184.29 679.038 184.29ZM701.817 198.045H702.622C702.517 200.705 701.677 202.56 699.367 202.56C697.372 202.56 696.182 201.23 696.182 197.975V197.345C695.377 200.635 693.522 202.56 691.002 202.56C688.517 202.56 687.117 200.705 687.117 198.43C687.117 194.02 692.192 192.06 696.182 190.275V188.245C696.182 185.235 695.202 184.185 693.487 184.185C692.122 184.185 691.142 184.885 691.142 186.04C691.142 186.845 691.632 187.3 691.632 188.105C691.632 189.05 691.037 189.715 689.917 189.715C688.657 189.715 687.992 188.84 687.992 187.545C687.992 184.955 690.512 182.785 694.047 182.785C697.442 182.785 699.542 184.71 699.542 188.49V198.815C699.542 200.53 699.892 200.95 700.452 200.95C701.187 200.95 701.747 200.25 701.817 198.045ZM692.367 199.9C693.767 199.9 695.272 198.605 696.182 195.56V191.43C693.347 192.9 690.477 194.58 690.477 197.485C690.477 198.955 691.142 199.9 692.367 199.9ZM712.463 194.16H713.443C713.443 199.62 712.358 202.56 708.928 202.56C706.198 202.56 704.763 200.915 704.763 196.015V184.885H702.313V183.59C704.868 183.52 706.478 181.63 706.828 178.34H708.088V183.45H712.288V184.885H708.158V195.105C708.158 198.22 708.473 200.285 710.118 200.285C711.693 200.285 712.463 198.325 712.463 194.16ZM718.481 179.39C717.151 179.39 716.206 178.48 716.206 177.255C716.206 175.995 717.151 175.085 718.481 175.085C719.776 175.085 720.721 175.995 720.721 177.255C720.721 178.48 719.776 179.39 718.481 179.39ZM720.441 183.275V198.395C720.441 200.635 720.791 201.16 722.926 201.16V202H714.596V201.16C716.731 201.16 717.081 200.635 717.081 198.395V187.615C717.081 185.27 717.046 184.78 715.016 185.62L714.701 184.815L719.846 182.75L720.441 183.275ZM731.855 197.17L734.97 186.915C735.635 184.745 735.67 184.29 733.36 184.29V183.45H739.415V184.29C737.805 184.29 737.14 184.745 736.475 186.915L731.715 202.28H729.825L725.065 186.915C724.4 184.745 723.77 184.29 722.3 184.29V183.45H730.42V184.29C728.075 184.29 728.075 184.745 728.705 186.915L731.645 197.17H731.855ZM751.078 194.51H751.918C751.183 200.145 748.803 202.56 745.513 202.56C741.558 202.56 739.073 198.815 739.073 193.04C739.073 187.51 741.523 182.82 745.688 182.82C749.783 182.82 751.708 186.67 751.708 191.78H742.468V191.85C742.468 196.61 743.938 199.97 746.843 199.97C748.418 199.97 750.238 198.745 751.078 194.51ZM745.688 184.29C743.588 184.29 742.713 186.845 742.503 190.345H748.348C748.348 186.985 747.753 184.29 745.688 184.29ZM777.281 183.31V198.395C777.281 200.635 777.596 201.16 779.731 201.16V202H771.401V201.16C773.536 201.16 773.886 200.635 773.886 198.395V187.58C773.886 186.215 773.886 184.885 771.926 184.885H766.991V198.395C766.991 200.635 767.481 201.16 770.421 201.16V202H760.971V201.16C763.246 201.16 763.596 200.635 763.596 198.395V184.885H761.286V183.73L763.596 183.555V181.14C763.596 174.98 767.481 173.02 770.981 173.02C773.816 173.02 776.266 174.49 776.266 176.485C776.266 177.5 775.566 178.2 774.446 178.2C773.466 178.2 773.081 177.57 772.346 176.485C771.751 175.575 771.191 174.875 770.071 174.875C768.391 174.875 766.991 175.995 766.991 180.23V183.45H772.661C774.131 183.45 775.531 183.275 776.826 182.82L777.281 183.31ZM793.256 194.51H794.096C793.361 200.145 790.981 202.56 787.691 202.56C783.736 202.56 781.251 198.815 781.251 193.04C781.251 187.51 783.701 182.82 787.866 182.82C791.961 182.82 793.886 186.67 793.886 191.78H784.646V191.85C784.646 196.61 786.116 199.97 789.021 199.97C790.596 199.97 792.416 198.745 793.256 194.51ZM787.866 184.29C785.766 184.29 784.891 186.845 784.681 190.345H790.526C790.526 186.985 789.931 184.29 787.866 184.29ZM801.237 173.65V198.395C801.237 200.635 801.552 201.16 803.687 201.16V202H795.357V201.16C797.492 201.16 797.842 200.635 797.842 198.395V178.165C797.842 175.925 797.842 175.47 795.742 176.52L795.392 175.75L800.712 173.16L801.237 173.65ZM820.862 199.795L821.177 200.6L815.997 202.56L815.262 201.965V199.095H815.122C814.212 201.16 812.637 202.56 810.362 202.56C807.002 202.56 804.937 198.815 804.937 193.285C804.937 187.16 807.457 182.82 811.307 182.82C813.057 182.82 814.492 183.555 815.262 184.78V178.235C815.262 175.96 815.297 175.54 813.197 176.555L812.847 175.82L818.202 173.16L818.657 173.65V197.835C818.657 200.18 818.692 200.635 820.862 199.795ZM811.832 200.11C813.372 200.11 814.387 198.955 815.262 197.345V190.87C815.262 187.44 814.212 184.64 812.042 184.64C809.592 184.64 808.542 188.07 808.542 192.445C808.542 196.89 809.522 200.11 811.832 200.11ZM854.036 183.45V184.29C852.566 184.29 851.936 184.745 851.341 186.915L846.896 202.315H844.796L841.751 190.415L838.531 202.315H836.326L831.741 186.915C831.076 184.745 830.446 184.29 828.976 184.29V183.45H836.326V184.29C834.646 184.29 834.751 184.745 835.381 186.915L838.356 197.275H838.496L841.051 187.72L840.841 186.95C840.281 184.745 839.756 184.29 838.496 184.29V183.45H845.811V184.29C843.921 184.29 843.921 184.78 844.411 186.985L846.791 197.275H846.931L849.871 186.915C850.501 184.745 850.536 184.29 848.296 184.29V183.45H854.036ZM858.208 179.39C856.878 179.39 855.933 178.48 855.933 177.255C855.933 175.995 856.878 175.085 858.208 175.085C859.503 175.085 860.448 175.995 860.448 177.255C860.448 178.48 859.503 179.39 858.208 179.39ZM860.168 183.275V198.395C860.168 200.635 860.518 201.16 862.653 201.16V202H854.323V201.16C856.458 201.16 856.808 200.635 856.808 198.395V187.615C856.808 185.27 856.773 184.78 854.743 185.62L854.428 184.815L859.573 182.75L860.168 183.275ZM873.723 194.16H874.703C874.703 199.62 873.618 202.56 870.188 202.56C867.458 202.56 866.023 200.915 866.023 196.015V184.885H863.573V183.59C866.128 183.52 867.738 181.63 868.088 178.34H869.348V183.45H873.548V184.885H869.418V195.105C869.418 198.22 869.733 200.285 871.378 200.285C872.953 200.285 873.723 198.325 873.723 194.16ZM881.421 187.965V198.395C881.421 200.635 881.736 201.16 883.591 201.16V202H875.681V201.16C877.711 201.16 878.061 200.635 878.061 198.395L878.026 178.27C878.026 176.03 878.096 175.575 875.996 176.66L875.646 175.925L878.376 174.49L880.966 173.16L881.421 173.65V186.495H881.526C883.101 184.325 884.711 182.82 887.091 182.82C889.576 182.82 890.906 184.605 890.906 187.895V198.395C890.906 200.635 891.221 201.16 893.251 201.16V202H885.411V201.16C887.231 201.16 887.546 200.635 887.546 198.395V188.07C887.546 186.145 886.776 185.27 885.481 185.27C884.011 185.27 882.751 186.25 881.421 187.965ZM906.025 179.39C904.695 179.39 903.75 178.48 903.75 177.255C903.75 175.995 904.695 175.085 906.025 175.085C907.32 175.085 908.265 175.995 908.265 177.255C908.265 178.48 907.32 179.39 906.025 179.39ZM907.985 183.275V198.395C907.985 200.635 908.335 201.16 910.47 201.16V202H902.14V201.16C904.275 201.16 904.625 200.635 904.625 198.395V187.615C904.625 185.27 904.59 184.78 902.56 185.62L902.245 184.815L907.39 182.75L907.985 183.275ZM921.54 194.16H922.52C922.52 199.62 921.435 202.56 918.005 202.56C915.275 202.56 913.84 200.915 913.84 196.015V184.885H911.39V183.59C913.945 183.52 915.555 181.63 915.905 178.34H917.165V183.45H921.365V184.885H917.235V195.105C917.235 198.22 917.55 200.285 919.195 200.285C920.77 200.285 921.54 198.325 921.54 194.16ZM930.21 202.56C928.425 202.56 927.13 201.825 926.395 201.3C925.94 200.95 925.66 201.055 925.45 201.475L925.17 202.175H924.4L924.155 194.615H924.925C925.45 198.78 927.445 201.09 929.86 201.09C931.505 201.09 932.38 199.97 932.38 198.185C932.38 196.61 931.645 195.945 928.39 193.32C925.415 190.975 924.4 189.61 924.4 187.615C924.4 184.71 926.5 182.82 929.265 182.82C930.84 182.82 931.925 183.485 932.555 184.01C933.01 184.43 933.36 184.255 933.465 183.835L933.675 183.065H934.48L934.62 189.19H933.85C933.43 186.46 931.89 184.29 929.545 184.29C928.145 184.29 927.235 185.235 927.235 186.635C927.235 188.105 928.145 188.875 930.595 190.8C933.745 193.285 935.25 194.79 935.25 197.45C935.25 200.915 932.905 202.56 930.21 202.56ZM100.625 242.17L103.74 231.915C104.405 229.745 104.44 229.29 102.13 229.29V228.45H108.185V229.29C106.575 229.29 105.91 229.745 105.245 231.915L100.485 247.28H98.595L93.835 231.915C93.17 229.745 92.54 229.29 91.07 229.29V228.45H99.19V229.29C96.845 229.29 96.845 229.745 97.475 231.915L100.415 242.17H100.625ZM122.471 243.045H123.276C123.171 245.705 122.331 247.56 120.021 247.56C118.026 247.56 116.836 246.23 116.836 242.975V242.345C116.031 245.635 114.176 247.56 111.656 247.56C109.171 247.56 107.771 245.705 107.771 243.43C107.771 239.02 112.846 237.06 116.836 235.275V233.245C116.836 230.235 115.856 229.185 114.141 229.185C112.776 229.185 111.796 229.885 111.796 231.04C111.796 231.845 112.286 232.3 112.286 233.105C112.286 234.05 111.691 234.715 110.571 234.715C109.311 234.715 108.646 233.84 108.646 232.545C108.646 229.955 111.166 227.785 114.701 227.785C118.096 227.785 120.196 229.71 120.196 233.49V243.815C120.196 245.53 120.546 245.95 121.106 245.95C121.841 245.95 122.401 245.25 122.471 243.045ZM113.021 244.9C114.421 244.9 115.926 243.605 116.836 240.56V236.43C114.001 237.9 111.131 239.58 111.131 242.485C111.131 243.955 111.796 244.9 113.021 244.9ZM134.471 227.82C135.696 227.82 136.361 228.52 136.361 229.675C136.361 231.04 135.556 231.915 134.646 231.915C134.016 231.915 133.736 231.67 133.281 231.18C132.826 230.725 132.651 230.585 132.231 230.585C131.426 230.585 130.481 231.74 129.746 233.875V243.185C129.746 245.565 130.271 246.125 133.456 246.125V247H124.006V246.16C126.036 246.16 126.386 245.635 126.386 243.395V232.615C126.386 230.27 126.386 229.78 124.286 230.655L123.936 229.85L126.736 228.73L129.116 227.75L129.746 228.275V231.635H129.851C130.831 229.78 132.546 227.82 134.471 227.82ZM141.392 224.39C140.062 224.39 139.117 223.48 139.117 222.255C139.117 220.995 140.062 220.085 141.392 220.085C142.687 220.085 143.632 220.995 143.632 222.255C143.632 223.48 142.687 224.39 141.392 224.39ZM143.352 228.275V243.395C143.352 245.635 143.702 246.16 145.837 246.16V247H137.507V246.16C139.642 246.16 139.992 245.635 139.992 243.395V232.615C139.992 230.27 139.957 229.78 137.927 230.62L137.612 229.815L142.757 227.75L143.352 228.275ZM159.359 239.51H160.199C159.464 245.145 157.084 247.56 153.794 247.56C149.839 247.56 147.354 243.815 147.354 238.04C147.354 232.51 149.804 227.82 153.969 227.82C158.064 227.82 159.989 231.67 159.989 236.78H150.749V236.85C150.749 241.61 152.219 244.97 155.124 244.97C156.699 244.97 158.519 243.745 159.359 239.51ZM153.969 229.29C151.869 229.29 150.994 231.845 150.784 235.345H156.629C156.629 231.985 156.034 229.29 153.969 229.29ZM171.432 239.16H172.412C172.412 244.62 171.327 247.56 167.897 247.56C165.167 247.56 163.732 245.915 163.732 241.015V229.885H161.282V228.59C163.837 228.52 165.447 226.63 165.797 223.34H167.057V228.45H171.257V229.885H167.127V240.105C167.127 243.22 167.442 245.285 169.087 245.285C170.662 245.285 171.432 243.325 171.432 239.16ZM175.779 255.19C174.134 255.19 172.874 254.21 172.874 252.775C172.874 251.62 173.644 250.99 174.624 250.99C175.499 250.99 175.954 251.515 176.339 252.04C176.759 252.67 177.074 252.845 177.599 252.845C178.509 252.845 179.244 251.48 179.874 249.065C179.979 248.435 179.874 247.07 179.594 245.74L175.254 231.915C174.554 229.745 173.924 229.29 172.384 229.29V228.45H180.574V229.29C178.264 229.29 178.264 229.745 178.894 231.915L181.834 242.205H182.009L184.914 231.915C185.509 229.745 185.509 229.29 183.234 229.29V228.45H189.009V229.29C187.609 229.29 186.979 229.745 186.349 231.915L181.939 246.79C180.504 251.585 179.069 255.085 175.779 255.19ZM204.953 247.56C200.403 247.56 197.428 243.535 197.428 237.795C197.428 232.16 200.193 227.82 204.953 227.82C209.468 227.82 212.478 231.845 212.478 237.585C212.478 243.22 209.678 247.56 204.953 247.56ZM205.478 246.02C207.963 246.02 208.943 242.73 208.943 239.65C208.943 234.89 207.508 229.36 204.428 229.36C201.943 229.36 200.928 232.65 200.928 235.73C200.928 240.49 202.398 246.02 205.478 246.02ZM223.508 218.055C226.063 218.055 227.743 219.42 227.743 220.785C227.743 221.66 227.148 222.465 225.993 222.465C225.153 222.465 224.733 221.94 224.173 221.1C223.508 220.085 223.228 219.7 222.563 219.7C221.163 219.7 220.218 221.065 220.218 225.23V228.45H224.138V229.885H220.218V243.395C220.218 245.635 220.708 246.16 223.753 246.16V247H214.198V246.16C216.473 246.16 216.823 245.635 216.823 243.395V229.885H214.513V228.73L216.823 228.555V225.86C216.823 219.98 220.428 218.055 223.508 218.055ZM239.928 247.56C235.833 247.56 233.453 243.64 233.453 238.04C233.453 232.23 236.008 227.82 240.523 227.82C243.463 227.82 245.458 229.745 245.458 232.37C245.458 233.84 244.793 234.715 243.603 234.715C242.518 234.715 241.958 233.98 241.958 233.105C241.958 232.51 242.203 231.81 242.203 231.075C242.203 229.885 241.538 229.29 240.488 229.29C237.968 229.29 236.918 232.755 236.918 236.71C236.918 241.26 238.318 244.9 241.188 244.9C242.763 244.9 244.548 243.71 245.178 239.3H246.018C245.633 245.11 243.078 247.56 239.928 247.56ZM255.197 247.56C250.647 247.56 247.672 243.535 247.672 237.795C247.672 232.16 250.437 227.82 255.197 227.82C259.712 227.82 262.722 231.845 262.722 237.585C262.722 243.22 259.922 247.56 255.197 247.56ZM255.722 246.02C258.207 246.02 259.187 242.73 259.187 239.65C259.187 234.89 257.752 229.36 254.672 229.36C252.187 229.36 251.172 232.65 251.172 235.73C251.172 240.49 252.642 246.02 255.722 246.02ZM276.213 247.56L275.513 246.965L275.443 243.99L275.338 243.955C274.148 245.845 272.468 247.56 269.983 247.56C267.568 247.56 266.168 245.6 266.168 242.52V232.65C266.168 230.375 266.063 229.955 263.928 230.62L263.683 229.85L269.073 228.1L269.563 228.555V242.17C269.563 244.235 270.193 245.215 271.523 245.215C272.923 245.215 274.323 244.025 275.443 242.52V232.65C275.443 230.375 275.373 229.955 273.203 230.62L272.958 229.85L278.383 228.1L278.838 228.555V242.835C278.838 245.18 278.908 245.635 281.078 244.83L281.393 245.635L276.213 247.56ZM293.168 227.82C294.393 227.82 295.058 228.52 295.058 229.675C295.058 231.04 294.253 231.915 293.343 231.915C292.713 231.915 292.433 231.67 291.978 231.18C291.523 230.725 291.348 230.585 290.928 230.585C290.123 230.585 289.178 231.74 288.443 233.875V243.185C288.443 245.565 288.968 246.125 292.153 246.125V247H282.703V246.16C284.733 246.16 285.083 245.635 285.083 243.395V232.615C285.083 230.27 285.083 229.78 282.983 230.655L282.633 229.85L285.433 228.73L287.813 227.75L288.443 228.275V231.635H288.548C289.528 229.78 291.243 227.82 293.168 227.82ZM302.671 247.56C300.886 247.56 299.591 246.825 298.856 246.3C298.401 245.95 298.121 246.055 297.911 246.475L297.631 247.175H296.861L296.616 239.615H297.386C297.911 243.78 299.906 246.09 302.321 246.09C303.966 246.09 304.841 244.97 304.841 243.185C304.841 241.61 304.106 240.945 300.851 238.32C297.876 235.975 296.861 234.61 296.861 232.615C296.861 229.71 298.961 227.82 301.726 227.82C303.301 227.82 304.386 228.485 305.016 229.01C305.471 229.43 305.821 229.255 305.926 228.835L306.136 228.065H306.941L307.081 234.19H306.311C305.891 231.46 304.351 229.29 302.006 229.29C300.606 229.29 299.696 230.235 299.696 231.635C299.696 233.105 300.606 233.875 303.056 235.8C306.206 238.285 307.711 239.79 307.711 242.45C307.711 245.915 305.366 247.56 302.671 247.56ZM321.747 239.51H322.587C321.852 245.145 319.472 247.56 316.182 247.56C312.227 247.56 309.742 243.815 309.742 238.04C309.742 232.51 312.192 227.82 316.357 227.82C320.452 227.82 322.377 231.67 322.377 236.78H313.137V236.85C313.137 241.61 314.607 244.97 317.512 244.97C319.087 244.97 320.907 243.745 321.747 239.51ZM316.357 229.29C314.257 229.29 313.382 231.845 313.172 235.345H319.017C319.017 231.985 318.422 229.29 316.357 229.29ZM330.869 247.56C329.084 247.56 327.789 246.825 327.054 246.3C326.599 245.95 326.319 246.055 326.109 246.475L325.829 247.175H325.059L324.814 239.615H325.584C326.109 243.78 328.104 246.09 330.519 246.09C332.164 246.09 333.039 244.97 333.039 243.185C333.039 241.61 332.304 240.945 329.049 238.32C326.074 235.975 325.059 234.61 325.059 232.615C325.059 229.71 327.159 227.82 329.924 227.82C331.499 227.82 332.584 228.485 333.214 229.01C333.669 229.43 334.019 229.255 334.124 228.835L334.334 228.065H335.139L335.279 234.19H334.509C334.089 231.46 332.549 229.29 330.204 229.29C328.804 229.29 327.894 230.235 327.894 231.635C327.894 233.105 328.804 233.875 331.254 235.8C334.404 238.285 335.909 239.79 335.909 242.45C335.909 245.915 333.564 247.56 330.869 247.56ZM359.781 243.045H360.586C360.481 245.705 359.641 247.56 357.331 247.56C355.336 247.56 354.146 246.23 354.146 242.975V242.345C353.341 245.635 351.486 247.56 348.966 247.56C346.481 247.56 345.081 245.705 345.081 243.43C345.081 239.02 350.156 237.06 354.146 235.275V233.245C354.146 230.235 353.166 229.185 351.451 229.185C350.086 229.185 349.106 229.885 349.106 231.04C349.106 231.845 349.596 232.3 349.596 233.105C349.596 234.05 349.001 234.715 347.881 234.715C346.621 234.715 345.956 233.84 345.956 232.545C345.956 229.955 348.476 227.785 352.011 227.785C355.406 227.785 357.506 229.71 357.506 233.49V243.815C357.506 245.53 357.856 245.95 358.416 245.95C359.151 245.95 359.711 245.25 359.781 243.045ZM350.331 244.9C351.731 244.9 353.236 243.605 354.146 240.56V236.43C351.311 237.9 348.441 239.58 348.441 242.485C348.441 243.955 349.106 244.9 350.331 244.9ZM361.316 247V246.16C363.346 246.16 363.696 245.635 363.696 243.395V232.615C363.696 230.27 363.696 229.78 361.596 230.655L361.246 229.85L364.046 228.73L366.426 227.75L367.091 228.275V231.495H367.196C368.771 229.325 370.346 227.82 372.726 227.82C375.211 227.82 376.576 229.605 376.576 232.895V243.395C376.576 245.635 376.891 246.16 378.886 246.16V247H371.046V246.16C372.901 246.16 373.181 245.635 373.181 243.395V233.105C373.181 231.18 372.446 230.27 371.116 230.27C369.681 230.27 368.421 231.25 367.091 232.965V243.395C367.091 245.635 367.371 246.16 369.226 246.16V247H361.316ZM396.077 244.795L396.392 245.6L391.212 247.56L390.477 246.965V244.095H390.337C389.427 246.16 387.852 247.56 385.577 247.56C382.217 247.56 380.152 243.815 380.152 238.285C380.152 232.16 382.672 227.82 386.522 227.82C388.272 227.82 389.707 228.555 390.477 229.78V223.235C390.477 220.96 390.512 220.54 388.412 221.555L388.062 220.82L393.417 218.16L393.872 218.65V242.835C393.872 245.18 393.907 245.635 396.077 244.795ZM387.047 245.11C388.587 245.11 389.602 243.955 390.477 242.345V235.87C390.477 232.44 389.427 229.64 387.257 229.64C384.807 229.64 383.757 233.07 383.757 237.445C383.757 241.89 384.737 245.11 387.047 245.11ZM411.681 247.56C407.586 247.56 405.206 243.64 405.206 238.04C405.206 232.23 407.761 227.82 412.276 227.82C415.216 227.82 417.211 229.745 417.211 232.37C417.211 233.84 416.546 234.715 415.356 234.715C414.271 234.715 413.711 233.98 413.711 233.105C413.711 232.51 413.956 231.81 413.956 231.075C413.956 229.885 413.291 229.29 412.241 229.29C409.721 229.29 408.671 232.755 408.671 236.71C408.671 241.26 410.071 244.9 412.941 244.9C414.516 244.9 416.301 243.71 416.931 239.3H417.771C417.386 245.11 414.831 247.56 411.681 247.56ZM426.95 247.56C422.4 247.56 419.425 243.535 419.425 237.795C419.425 232.16 422.19 227.82 426.95 227.82C431.465 227.82 434.475 231.845 434.475 237.585C434.475 243.22 431.675 247.56 426.95 247.56ZM427.475 246.02C429.96 246.02 430.94 242.73 430.94 239.65C430.94 234.89 429.505 229.36 426.425 229.36C423.94 229.36 422.925 232.65 422.925 235.73C422.925 240.49 424.395 246.02 427.475 246.02ZM436.067 247V246.16C438.097 246.16 438.447 245.635 438.447 243.395V232.615C438.447 230.27 438.447 229.78 436.347 230.655L435.997 229.85L438.797 228.73L441.177 227.75L441.842 228.275V231.495H441.947C443.522 229.325 445.097 227.82 447.477 227.82C449.962 227.82 451.327 229.605 451.327 232.895V243.395C451.327 245.635 451.642 246.16 453.637 246.16V247H445.797V246.16C447.652 246.16 447.932 245.635 447.932 243.395V233.105C447.932 231.18 447.197 230.27 445.867 230.27C444.432 230.27 443.172 231.25 441.842 232.965V243.395C441.842 245.635 442.122 246.16 443.977 246.16V247H436.067ZM461.378 247.56C457.283 247.56 454.903 243.64 454.903 238.04C454.903 232.23 457.458 227.82 461.973 227.82C464.913 227.82 466.908 229.745 466.908 232.37C466.908 233.84 466.243 234.715 465.053 234.715C463.968 234.715 463.408 233.98 463.408 233.105C463.408 232.51 463.653 231.81 463.653 231.075C463.653 229.885 462.988 229.29 461.938 229.29C459.418 229.29 458.368 232.755 458.368 236.71C458.368 241.26 459.768 244.9 462.638 244.9C464.213 244.9 465.998 243.71 466.628 239.3H467.468C467.083 245.11 464.528 247.56 461.378 247.56ZM481.127 239.51H481.967C481.232 245.145 478.852 247.56 475.562 247.56C471.607 247.56 469.122 243.815 469.122 238.04C469.122 232.51 471.572 227.82 475.737 227.82C479.832 227.82 481.757 231.67 481.757 236.78H472.517V236.85C472.517 241.61 473.987 244.97 476.892 244.97C478.467 244.97 480.287 243.745 481.127 239.51ZM475.737 229.29C473.637 229.29 472.762 231.845 472.552 235.345H478.397C478.397 231.985 477.802 229.29 475.737 229.29ZM483.611 247V246.16C485.641 246.16 485.991 245.635 485.991 243.395V232.615C485.991 230.27 485.991 229.78 483.891 230.655L483.541 229.85L486.341 228.73L488.721 227.75L489.386 228.275V231.495H489.491C491.066 229.325 492.641 227.82 495.021 227.82C497.506 227.82 498.871 229.605 498.871 232.895V243.395C498.871 245.635 499.186 246.16 501.181 246.16V247H493.341V246.16C495.196 246.16 495.476 245.635 495.476 243.395V233.105C495.476 231.18 494.741 230.27 493.411 230.27C491.976 230.27 490.716 231.25 489.386 232.965V243.395C489.386 245.635 489.666 246.16 491.521 246.16V247H483.611ZM511.794 239.16H512.774C512.774 244.62 511.689 247.56 508.259 247.56C505.529 247.56 504.094 245.915 504.094 241.015V229.885H501.644V228.59C504.199 228.52 505.809 226.63 506.159 223.34H507.419V228.45H511.619V229.885H507.489V240.105C507.489 243.22 507.804 245.285 509.449 245.285C511.024 245.285 511.794 243.325 511.794 239.16ZM524.427 227.82C525.652 227.82 526.317 228.52 526.317 229.675C526.317 231.04 525.512 231.915 524.602 231.915C523.972 231.915 523.692 231.67 523.237 231.18C522.782 230.725 522.607 230.585 522.187 230.585C521.382 230.585 520.437 231.74 519.702 233.875V243.185C519.702 245.565 520.227 246.125 523.412 246.125V247H513.962V246.16C515.992 246.16 516.342 245.635 516.342 243.395V232.615C516.342 230.27 516.342 229.78 514.242 230.655L513.892 229.85L516.692 228.73L519.072 227.75L519.702 228.275V231.635H519.807C520.787 229.78 522.502 227.82 524.427 227.82ZM541.685 243.045H542.49C542.385 245.705 541.545 247.56 539.235 247.56C537.24 247.56 536.05 246.23 536.05 242.975V242.345C535.245 245.635 533.39 247.56 530.87 247.56C528.385 247.56 526.985 245.705 526.985 243.43C526.985 239.02 532.06 237.06 536.05 235.275V233.245C536.05 230.235 535.07 229.185 533.355 229.185C531.99 229.185 531.01 229.885 531.01 231.04C531.01 231.845 531.5 232.3 531.5 233.105C531.5 234.05 530.905 234.715 529.785 234.715C528.525 234.715 527.86 233.84 527.86 232.545C527.86 229.955 530.38 227.785 533.915 227.785C537.31 227.785 539.41 229.71 539.41 233.49V243.815C539.41 245.53 539.76 245.95 540.32 245.95C541.055 245.95 541.615 245.25 541.685 243.045ZM532.235 244.9C533.635 244.9 535.14 243.605 536.05 240.56V236.43C533.215 237.9 530.345 239.58 530.345 242.485C530.345 243.955 531.01 244.9 532.235 244.9ZM552.331 239.16H553.311C553.311 244.62 552.226 247.56 548.796 247.56C546.066 247.56 544.631 245.915 544.631 241.015V229.885H542.181V228.59C544.736 228.52 546.346 226.63 546.696 223.34H547.956V228.45H552.156V229.885H548.026V240.105C548.026 243.22 548.341 245.285 549.986 245.285C551.561 245.285 552.331 243.325 552.331 239.16ZM558.35 224.39C557.02 224.39 556.075 223.48 556.075 222.255C556.075 220.995 557.02 220.085 558.35 220.085C559.645 220.085 560.59 220.995 560.59 222.255C560.59 223.48 559.645 224.39 558.35 224.39ZM560.31 228.275V243.395C560.31 245.635 560.66 246.16 562.795 246.16V247H554.465V246.16C556.6 246.16 556.95 245.635 556.95 243.395V232.615C556.95 230.27 556.915 229.78 554.885 230.62L554.57 229.815L559.715 227.75L560.31 228.275ZM571.837 247.56C567.287 247.56 564.312 243.535 564.312 237.795C564.312 232.16 567.077 227.82 571.837 227.82C576.352 227.82 579.362 231.845 579.362 237.585C579.362 243.22 576.562 247.56 571.837 247.56ZM572.362 246.02C574.847 246.02 575.827 242.73 575.827 239.65C575.827 234.89 574.392 229.36 571.312 229.36C568.827 229.36 567.812 232.65 567.812 235.73C567.812 240.49 569.282 246.02 572.362 246.02ZM580.955 247V246.16C582.985 246.16 583.335 245.635 583.335 243.395V232.615C583.335 230.27 583.335 229.78 581.235 230.655L580.885 229.85L583.685 228.73L586.065 227.75L586.73 228.275V231.495H586.835C588.41 229.325 589.985 227.82 592.365 227.82C594.85 227.82 596.215 229.605 596.215 232.895V243.395C596.215 245.635 596.53 246.16 598.525 246.16V247H590.685V246.16C592.54 246.16 592.82 245.635 592.82 243.395V233.105C592.82 231.18 592.085 230.27 590.755 230.27C589.32 230.27 588.06 231.25 586.73 232.965V243.395C586.73 245.635 587.01 246.16 588.865 246.16V247H580.955ZM606.324 247.56C604.539 247.56 603.244 246.825 602.509 246.3C602.054 245.95 601.774 246.055 601.564 246.475L601.284 247.175H600.514L600.269 239.615H601.039C601.564 243.78 603.559 246.09 605.974 246.09C607.619 246.09 608.494 244.97 608.494 243.185C608.494 241.61 607.759 240.945 604.504 238.32C601.529 235.975 600.514 234.61 600.514 232.615C600.514 229.71 602.614 227.82 605.379 227.82C606.954 227.82 608.039 228.485 608.669 229.01C609.124 229.43 609.474 229.255 609.579 228.835L609.789 228.065H610.594L610.734 234.19H609.964C609.544 231.46 608.004 229.29 605.659 229.29C604.259 229.29 603.349 230.235 603.349 231.635C603.349 233.105 604.259 233.875 606.709 235.8C609.859 238.285 611.364 239.79 611.364 242.45C611.364 245.915 609.019 247.56 606.324 247.56ZM616.089 247.56C614.934 247.56 614.024 246.65 614.024 245.495C614.024 244.375 614.934 243.43 616.089 243.43C617.209 243.43 618.154 244.375 618.154 245.495C618.154 246.65 617.209 247.56 616.089 247.56Z" fill="#282F2D"/>
</svg>
