<svg width="1425" height="368" viewBox="0 0 1425 368" fill="none" xmlns="http://www.w3.org/2000/svg">
<rect width="1424.53" height="367.168" fill="#F3F3F3"/>
<path d="M662.769 140.735V122.605C662.769 120.47 662.279 119.84 659.024 119.84V119H670.434V119.84C667.179 119.84 666.689 120.47 666.689 122.605V139.65C666.689 145.39 664.134 147.56 660.389 147.56C656.504 147.56 654.579 145.145 654.579 142.765C654.579 141.295 655.489 140.525 656.574 140.525C657.799 140.525 658.534 141.225 658.534 142.275C658.534 142.765 658.429 143.22 658.429 143.85C658.429 145.18 659.024 146.16 660.319 146.16C662.174 146.16 662.769 144.375 662.769 140.735ZM681.252 118.58L689.512 143.57C690.247 145.705 691.017 146.16 693.292 146.16V147H682.652V146.16C686.047 146.16 686.082 145.6 685.452 143.535L683.772 138.145H674.392L672.677 143.57C672.012 145.6 672.047 146.16 675.372 146.16V147H667.462V146.16C669.667 146.16 670.437 145.705 671.137 143.57L679.327 118.58H681.252ZM679.047 123.62L674.847 136.78H683.317L679.187 123.62H679.047ZM702.331 134.575V143.395C702.331 145.53 702.786 146.16 706.076 146.16V147H694.666V146.16C697.921 146.16 698.376 145.53 698.376 143.395V134.68L692.146 122.22C691.131 120.19 690.221 119.84 688.331 119.84V119H699.076V119.84C695.366 119.84 695.471 120.33 696.416 122.255L701.491 132.65H701.596L706.356 122.29C707.266 120.33 707.406 119.84 704.151 119.84V119H711.781V119.84C709.786 119.84 708.911 120.225 707.966 122.29L702.331 134.575ZM746.217 125.965V128.31H740.932L738.342 137.235H743.767V139.58H737.677L735.332 147.7H732.952L735.297 139.58H728.017L725.672 147.7H723.257L725.602 139.58H720.842V137.235H726.267L728.857 128.31H723.292V125.965H729.522L731.727 118.3H734.142L731.937 125.965H739.217L741.422 118.3H743.802L741.597 125.965H746.217ZM728.682 137.235H735.962L738.552 128.31H731.272L728.682 137.235ZM752.384 143.885H760.924C763.199 143.885 763.899 143.15 764.879 140.28L765.684 140.56L764.389 144.375L763.479 147H748.534V146.16C755.079 139.055 760.364 132.93 760.364 126.56C760.364 123.62 759.104 121.485 756.199 121.485C752.839 121.485 750.984 124.495 750.809 129.185H749.934C749.934 122.71 753.049 118.44 757.984 118.44C762.149 118.44 764.144 121.24 764.144 124.81C764.144 131.495 757.634 138.565 752.384 143.78V143.885Z" fill="#282F2D"/>
<path d="M501.221 187.26C502.294 187.26 503.158 187.633 503.811 188.38C504.464 189.08 504.791 189.99 504.791 191.11C504.791 192.323 504.348 193.35 503.461 194.19C502.621 195.03 501.478 195.45 500.031 195.45C498.491 195.45 497.208 194.89 496.181 193.77C495.154 192.603 494.641 191.087 494.641 189.22C494.641 187.12 495.364 185.207 496.811 183.48C498.258 181.753 500.451 180.447 503.391 179.56V181.38C501.478 181.893 499.984 182.687 498.911 183.76C497.838 184.833 497.301 185.953 497.301 187.12C497.301 187.54 497.371 187.867 497.511 188.1C497.698 188.333 497.908 188.45 498.141 188.45C498.328 188.45 498.701 188.263 499.261 187.89C499.821 187.47 500.474 187.26 501.221 187.26ZM514.661 187.26C515.734 187.26 516.598 187.633 517.251 188.38C517.904 189.08 518.231 189.99 518.231 191.11C518.231 192.323 517.788 193.35 516.901 194.19C516.061 195.03 514.918 195.45 513.471 195.45C511.931 195.45 510.648 194.89 509.621 193.77C508.594 192.603 508.081 191.087 508.081 189.22C508.081 187.12 508.804 185.207 510.251 183.48C511.698 181.753 513.891 180.447 516.831 179.56V181.38C514.918 181.893 513.424 182.687 512.351 183.76C511.278 184.833 510.741 185.953 510.741 187.12C510.741 187.54 510.811 187.867 510.951 188.1C511.138 188.333 511.348 188.45 511.581 188.45C511.814 188.45 512.188 188.263 512.701 187.89C513.261 187.47 513.914 187.26 514.661 187.26ZM540.191 236.12C538.137 236.12 536.154 235.7 534.241 234.86C532.327 234.02 530.647 232.877 529.201 231.43C528.687 230.917 528.244 230.66 527.871 230.66C527.404 230.66 527.101 231.103 526.961 231.99L526.331 235.21H524.581L524.721 214.28H526.541C526.727 217.687 527.404 220.837 528.571 223.73C529.737 226.623 531.324 228.933 533.331 230.66C535.337 232.34 537.577 233.18 540.051 233.18C542.851 233.18 544.974 232.293 546.421 230.52C547.914 228.7 548.661 226.577 548.661 224.15C548.661 222.143 548.194 220.3 547.261 218.62C546.327 216.893 545.114 215.353 543.621 214C542.174 212.6 540.284 211.013 537.951 209.24C534.917 206.907 532.561 204.993 530.881 203.5C529.201 201.96 527.801 200.187 526.681 198.18C525.607 196.127 525.071 193.817 525.071 191.25C525.071 188.543 525.677 186.187 526.891 184.18C528.104 182.127 529.761 180.563 531.861 179.49C533.961 178.417 536.341 177.88 539.001 177.88C540.961 177.88 542.687 178.183 544.181 178.79C545.674 179.35 547.051 180.237 548.311 181.45C548.824 181.87 549.244 182.08 549.571 182.08C550.177 182.08 550.551 181.613 550.691 180.68L551.041 178.58H552.721L553.561 196.99H551.811C551.437 192.37 550.177 188.52 548.031 185.44C545.884 182.313 543.037 180.75 539.491 180.75C537.017 180.75 535.057 181.543 533.611 183.13C532.211 184.67 531.511 186.583 531.511 188.87C531.511 190.597 531.907 192.183 532.701 193.63C533.541 195.077 534.661 196.453 536.061 197.76C537.507 199.067 539.514 200.677 542.081 202.59C545.021 204.737 547.377 206.673 549.151 208.4C550.924 210.08 552.347 211.993 553.421 214.14C554.541 216.287 555.101 218.713 555.101 221.42C555.101 224.313 554.447 226.88 553.141 229.12C551.881 231.313 550.107 233.04 547.821 234.3C545.581 235.513 543.037 236.12 540.191 236.12ZM564.976 186.21C564.976 184.67 564.789 183.527 564.416 182.78C564.089 182.033 563.412 181.497 562.386 181.17C561.359 180.843 559.749 180.68 557.556 180.68V179H580.376V180.68C578.182 180.68 576.549 180.843 575.476 181.17C574.449 181.497 573.749 182.033 573.376 182.78C573.049 183.527 572.886 184.67 572.886 186.21V227.79C572.886 229.33 573.049 230.473 573.376 231.22C573.749 231.967 574.449 232.503 575.476 232.83C576.549 233.157 578.182 233.32 580.376 233.32V235H557.556V233.32C559.749 233.32 561.359 233.157 562.386 232.83C563.412 232.503 564.089 231.967 564.416 231.22C564.789 230.473 564.976 229.33 564.976 227.79V186.21ZM623.668 228.14C624.415 230.24 625.278 231.64 626.258 232.34C627.285 232.993 628.942 233.32 631.228 233.32V235H609.948V233.32C612.328 233.32 613.962 233.157 614.848 232.83C615.735 232.503 616.178 231.897 616.178 231.01C616.178 230.497 615.968 229.517 615.548 228.07L612.188 217.29H593.428L589.998 228.14C589.532 229.54 589.298 230.52 589.298 231.08C589.298 231.92 589.742 232.503 590.628 232.83C591.515 233.157 593.102 233.32 595.388 233.32V235H579.568V233.32C581.808 233.32 583.418 232.993 584.398 232.34C585.378 231.64 586.218 230.24 586.918 228.14L603.298 178.16H607.148L623.668 228.14ZM602.738 188.24L594.338 214.56H611.278L603.018 188.24H602.738ZM634.618 182.15C632.798 182.15 631.398 182.43 630.418 182.99C629.485 183.503 628.761 184.553 628.248 186.14C627.735 187.727 627.361 190.13 627.128 193.35L625.098 193.21L626.008 181.1L626.218 179H664.788L664.928 181.1L665.838 193.21L663.878 193.35C663.598 190.083 663.201 187.68 662.688 186.14C662.175 184.553 661.428 183.503 660.448 182.99C659.515 182.43 658.138 182.15 656.318 182.15H651.768C651.021 182.15 650.438 182.36 650.018 182.78C649.645 183.2 649.458 183.783 649.458 184.53V227.79C649.458 229.33 649.621 230.473 649.948 231.22C650.321 231.967 651.021 232.503 652.048 232.83C653.075 233.157 654.685 233.32 656.878 233.32V235H634.058V233.32C636.251 233.32 637.861 233.157 638.888 232.83C639.961 232.503 640.661 231.967 640.988 231.22C641.361 230.473 641.548 229.33 641.548 227.79V184.53C641.548 182.943 640.755 182.15 639.168 182.15H634.618ZM691.598 189.78C690.292 189.78 689.195 189.383 688.308 188.59C687.468 187.75 687.048 186.723 687.048 185.51C687.048 184.25 687.468 183.223 688.308 182.43C689.195 181.59 690.292 181.17 691.598 181.17C692.905 181.17 693.978 181.59 694.818 182.43C695.658 183.223 696.078 184.25 696.078 185.51C696.078 186.723 695.658 187.75 694.818 188.59C693.978 189.383 692.905 189.78 691.598 189.78ZM695.518 227.79C695.518 229.377 695.635 230.543 695.868 231.29C696.102 232.037 696.568 232.573 697.268 232.9C697.968 233.18 699.042 233.32 700.488 233.32V235H683.828V233.32C685.275 233.32 686.348 233.18 687.048 232.9C687.748 232.573 688.215 232.037 688.448 231.29C688.682 230.543 688.798 229.377 688.798 227.79V206.23C688.798 204.363 688.728 203.103 688.588 202.45C688.448 201.797 688.028 201.47 687.328 201.47C686.815 201.47 685.928 201.727 684.668 202.24L684.038 200.63L694.328 196.5L695.518 197.55V227.79ZM715.838 236.12C713.084 236.12 710.541 235.28 708.208 233.6C707.881 233.32 707.554 233.18 707.228 233.18C706.901 233.18 706.598 233.437 706.318 233.95L705.758 235.35H704.218L703.728 220.23H705.268C705.781 224.29 706.924 227.463 708.698 229.75C710.518 232.037 712.664 233.18 715.138 233.18C716.771 233.18 718.008 232.667 718.848 231.64C719.734 230.613 720.178 229.19 720.178 227.37C720.178 226.297 719.968 225.387 719.548 224.64C719.128 223.847 718.404 222.983 717.378 222.05C716.351 221.07 714.624 219.6 712.198 217.64C709.164 215.26 707.064 213.253 705.898 211.62C704.778 209.987 704.218 208.19 704.218 206.23C704.218 203.383 705.128 201.073 706.948 199.3C708.814 197.527 711.148 196.64 713.948 196.64C716.421 196.64 718.614 197.433 720.528 199.02C720.854 199.347 721.181 199.51 721.508 199.51C721.928 199.51 722.208 199.23 722.348 198.67L722.768 197.13H724.378L724.658 209.38H723.118C722.698 206.533 721.718 204.2 720.178 202.38C718.638 200.513 716.748 199.58 714.508 199.58C713.108 199.58 711.988 200.023 711.148 200.91C710.308 201.75 709.888 202.87 709.888 204.27C709.888 205.623 710.331 206.813 711.218 207.84C712.104 208.867 713.901 210.453 716.608 212.6C720.061 215.307 722.464 217.57 723.818 219.39C725.218 221.21 725.918 223.38 725.918 225.9C725.918 229.213 724.961 231.757 723.048 233.53C721.134 235.257 718.731 236.12 715.838 236.12ZM761.06 236.12C759.006 236.12 757.023 235.7 755.11 234.86C753.196 234.02 751.516 232.877 750.07 231.43C749.556 230.917 749.113 230.66 748.74 230.66C748.273 230.66 747.97 231.103 747.83 231.99L747.2 235.21H745.45L745.59 214.28H747.41C747.596 217.687 748.273 220.837 749.44 223.73C750.606 226.623 752.193 228.933 754.2 230.66C756.206 232.34 758.446 233.18 760.92 233.18C763.72 233.18 765.843 232.293 767.29 230.52C768.783 228.7 769.53 226.577 769.53 224.15C769.53 222.143 769.063 220.3 768.13 218.62C767.196 216.893 765.983 215.353 764.49 214C763.043 212.6 761.153 211.013 758.82 209.24C755.786 206.907 753.43 204.993 751.75 203.5C750.07 201.96 748.67 200.187 747.55 198.18C746.476 196.127 745.94 193.817 745.94 191.25C745.94 188.543 746.546 186.187 747.76 184.18C748.973 182.127 750.63 180.563 752.73 179.49C754.83 178.417 757.21 177.88 759.87 177.88C761.83 177.88 763.556 178.183 765.05 178.79C766.543 179.35 767.92 180.237 769.18 181.45C769.693 181.87 770.113 182.08 770.44 182.08C771.046 182.08 771.42 181.613 771.56 180.68L771.91 178.58H773.59L774.43 196.99H772.68C772.306 192.37 771.046 188.52 768.9 185.44C766.753 182.313 763.906 180.75 760.36 180.75C757.886 180.75 755.926 181.543 754.48 183.13C753.08 184.67 752.38 186.583 752.38 188.87C752.38 190.597 752.776 192.183 753.57 193.63C754.41 195.077 755.53 196.453 756.93 197.76C758.376 199.067 760.383 200.677 762.95 202.59C765.89 204.737 768.246 206.673 770.02 208.4C771.793 210.08 773.216 211.993 774.29 214.14C775.41 216.287 775.97 218.713 775.97 221.42C775.97 224.313 775.316 226.88 774.01 229.12C772.75 231.313 770.976 233.04 768.69 234.3C766.45 235.513 763.906 236.12 761.06 236.12ZM785.845 186.21C785.845 184.67 785.658 183.527 785.285 182.78C784.958 182.033 784.281 181.497 783.255 181.17C782.228 180.843 780.618 180.68 778.425 180.68V179H801.245V180.68C799.051 180.68 797.418 180.843 796.345 181.17C795.318 181.497 794.618 182.033 794.245 182.78C793.918 183.527 793.755 184.67 793.755 186.21V227.79C793.755 229.33 793.918 230.473 794.245 231.22C794.618 231.967 795.318 232.503 796.345 232.83C797.418 233.157 799.051 233.32 801.245 233.32V235H778.425V233.32C780.618 233.32 782.228 233.157 783.255 232.83C784.281 232.503 784.958 231.967 785.285 231.22C785.658 230.473 785.845 229.33 785.845 227.79V186.21ZM844.538 228.14C845.284 230.24 846.148 231.64 847.128 232.34C848.154 232.993 849.811 233.32 852.098 233.32V235H830.818V233.32C833.198 233.32 834.831 233.157 835.718 232.83C836.604 232.503 837.048 231.897 837.048 231.01C837.048 230.497 836.838 229.517 836.418 228.07L833.058 217.29H814.298L810.868 228.14C810.401 229.54 810.168 230.52 810.168 231.08C810.168 231.92 810.611 232.503 811.498 232.83C812.384 233.157 813.971 233.32 816.258 233.32V235H800.438V233.32C802.678 233.32 804.288 232.993 805.268 232.34C806.248 231.64 807.088 230.24 807.788 228.14L824.168 178.16H828.018L844.538 228.14ZM823.608 188.24L815.208 214.56H832.148L823.888 188.24H823.608ZM855.487 182.15C853.667 182.15 852.267 182.43 851.287 182.99C850.354 183.503 849.63 184.553 849.117 186.14C848.604 187.727 848.23 190.13 847.997 193.35L845.967 193.21L846.877 181.1L847.087 179H885.657L885.797 181.1L886.707 193.21L884.747 193.35C884.467 190.083 884.07 187.68 883.557 186.14C883.044 184.553 882.297 183.503 881.317 182.99C880.384 182.43 879.007 182.15 877.187 182.15H872.637C871.89 182.15 871.307 182.36 870.887 182.78C870.514 183.2 870.327 183.783 870.327 184.53V227.79C870.327 229.33 870.49 230.473 870.817 231.22C871.19 231.967 871.89 232.503 872.917 232.83C873.944 233.157 875.554 233.32 877.747 233.32V235H854.927V233.32C857.12 233.32 858.73 233.157 859.757 232.83C860.83 232.503 861.53 231.967 861.857 231.22C862.23 230.473 862.417 229.33 862.417 227.79V184.53C862.417 182.943 861.624 182.15 860.037 182.15H855.487ZM890.955 236.12C889.789 236.12 888.809 235.723 888.015 234.93C887.222 234.137 886.825 233.157 886.825 231.99C886.825 230.87 887.222 229.913 888.015 229.12C888.809 228.28 889.789 227.86 890.955 227.86C892.075 227.86 893.032 228.28 893.825 229.12C894.665 229.913 895.085 230.87 895.085 231.99C895.085 233.157 894.665 234.137 893.825 234.93C893.032 235.723 892.075 236.12 890.955 236.12ZM918.799 185.37C917.726 185.37 916.863 185.02 916.209 184.32C915.556 183.573 915.229 182.663 915.229 181.59C915.229 180.33 915.649 179.28 916.489 178.44C917.376 177.6 918.543 177.18 919.989 177.18C921.529 177.18 922.813 177.763 923.839 178.93C924.866 180.05 925.379 181.543 925.379 183.41C925.379 185.557 924.656 187.493 923.209 189.22C921.809 190.947 919.616 192.253 916.629 193.14V191.32C918.496 190.76 919.966 189.943 921.039 188.87C922.159 187.797 922.719 186.7 922.719 185.58C922.719 184.693 922.439 184.25 921.879 184.25C921.693 184.25 921.319 184.437 920.759 184.81C920.199 185.183 919.546 185.37 918.799 185.37ZM905.359 185.37C904.286 185.37 903.423 185.02 902.769 184.32C902.116 183.573 901.789 182.663 901.789 181.59C901.789 180.33 902.209 179.28 903.049 178.44C903.936 177.6 905.103 177.18 906.549 177.18C908.089 177.18 909.373 177.763 910.399 178.93C911.426 180.05 911.939 181.543 911.939 183.41C911.939 185.557 911.216 187.493 909.769 189.22C908.369 190.947 906.176 192.253 903.189 193.14V191.32C905.056 190.76 906.526 189.943 907.599 188.87C908.719 187.797 909.279 186.7 909.279 185.58C909.279 184.693 908.999 184.25 908.439 184.25C908.253 184.25 907.879 184.437 907.319 184.81C906.759 185.183 906.106 185.37 905.359 185.37Z" fill="#282F2D"/>
</svg>
