<svg width="1425" height="328" viewBox="0 0 1425 328" fill="none" xmlns="http://www.w3.org/2000/svg">
<rect width="1425" height="327.781" fill="#F1E34E"/>
<path d="M415.282 137.55L416.472 152.255L414.177 152.425C413.837 148.515 413.355 145.597 412.732 143.67C412.109 141.743 411.23 140.468 410.097 139.845C408.964 139.165 407.32 138.825 405.167 138.825H390.377C389.074 138.825 388.082 139.165 387.402 139.845C386.722 140.525 386.382 141.517 386.382 142.82V167.81H397.942C399.812 167.81 401.2 167.583 402.107 167.13C403.014 166.62 403.665 165.685 404.062 164.325C404.459 162.908 404.657 160.727 404.657 157.78H406.697V181.155H404.657C404.657 178.208 404.459 176.055 404.062 174.695C403.665 173.278 403.014 172.343 402.107 171.89C401.2 171.437 399.812 171.21 397.942 171.21H386.382V194.245C386.382 196.115 386.609 197.503 387.062 198.41C387.515 199.317 388.422 199.968 389.782 200.365C391.142 200.762 393.267 200.96 396.157 200.96V203H367.767V200.96C370.43 200.96 372.385 200.762 373.632 200.365C374.879 199.968 375.7 199.317 376.097 198.41C376.55 197.503 376.777 196.115 376.777 194.245V143.755C376.777 141.885 376.55 140.497 376.097 139.59C375.7 138.683 374.879 138.032 373.632 137.635C372.385 137.238 370.43 137.04 367.767 137.04V135H415.027L415.282 137.55ZM424.864 148.09C423.278 148.09 421.946 147.608 420.869 146.645C419.849 145.625 419.339 144.378 419.339 142.905C419.339 141.375 419.849 140.128 420.869 139.165C421.946 138.145 423.278 137.635 424.864 137.635C426.451 137.635 427.754 138.145 428.774 139.165C429.794 140.128 430.304 141.375 430.304 142.905C430.304 144.378 429.794 145.625 428.774 146.645C427.754 147.608 426.451 148.09 424.864 148.09ZM429.624 194.245C429.624 196.172 429.766 197.588 430.049 198.495C430.333 199.402 430.899 200.053 431.749 200.45C432.599 200.79 433.903 200.96 435.659 200.96V203H415.429V200.96C417.186 200.96 418.489 200.79 419.339 200.45C420.189 200.053 420.756 199.402 421.039 198.495C421.323 197.588 421.464 196.172 421.464 194.245V168.065C421.464 165.798 421.379 164.268 421.209 163.475C421.039 162.682 420.529 162.285 419.679 162.285C419.056 162.285 417.979 162.597 416.449 163.22L415.684 161.265L428.179 156.25L429.624 157.525V194.245ZM466.028 196.2C470.504 196.2 473.763 196.908 475.803 198.325C477.843 199.742 478.863 202.037 478.863 205.21C478.863 208.327 477.786 211.245 475.633 213.965C473.536 216.742 470.618 218.952 466.878 220.595C463.194 222.238 459.029 223.06 454.383 223.06C449.509 223.06 445.458 222.182 442.228 220.425C438.998 218.668 437.383 216.118 437.383 212.775C437.383 208.468 440.358 204.983 446.308 202.32C442.964 201.017 441.293 198.807 441.293 195.69C441.293 193.877 441.859 192.233 442.993 190.76C444.126 189.287 445.741 187.898 447.838 186.595C445.741 185.178 444.126 183.308 442.993 180.985C441.859 178.662 441.293 176.027 441.293 173.08C441.293 169.907 441.944 167.073 443.248 164.58C444.551 162.03 446.393 160.047 448.773 158.63C451.209 157.213 454.014 156.505 457.188 156.505C460.361 156.505 463.166 157.242 465.603 158.715C467.246 157.808 468.918 157.128 470.618 156.675C472.318 156.165 473.876 155.91 475.293 155.91C477.389 155.91 478.438 156.76 478.438 158.46C478.438 159.31 478.154 160.018 477.588 160.585C477.078 161.095 476.341 161.35 475.378 161.35C474.471 161.35 473.593 161.237 472.743 161.01C471.893 160.783 471.383 160.642 471.213 160.585C469.569 160.075 468.294 159.877 467.388 159.99C469.088 161.463 470.391 163.305 471.298 165.515C472.261 167.668 472.743 170.105 472.743 172.825C472.743 177.698 471.298 181.665 468.408 184.725C465.574 187.728 461.806 189.23 457.103 189.23C454.496 189.23 452.144 188.748 450.048 187.785C448.178 189.258 447.243 190.732 447.243 192.205C447.243 193.055 447.413 193.763 447.753 194.33C448.149 194.897 448.999 195.35 450.303 195.69C451.606 196.03 453.561 196.2 456.168 196.2H466.028ZM456.083 159.735C453.873 159.735 452.229 160.727 451.153 162.71C450.133 164.693 449.623 167.158 449.623 170.105C449.623 174.242 450.331 177.925 451.748 181.155C453.164 184.328 455.289 185.915 458.123 185.915C460.219 185.915 461.806 185.008 462.883 183.195C463.959 181.382 464.498 178.973 464.498 175.97C464.498 171.777 463.761 168.037 462.288 164.75C460.871 161.407 458.803 159.735 456.083 159.735ZM456.423 217.96C459.879 217.96 462.939 217.45 465.603 216.43C468.323 215.467 470.419 214.192 471.893 212.605C473.366 211.075 474.103 209.488 474.103 207.845C474.103 206.258 473.479 205.182 472.233 204.615C471.043 204.048 468.889 203.765 465.773 203.765H455.233C452.739 203.765 450.699 203.567 449.113 203.17C445.826 205.777 444.183 208.298 444.183 210.735C444.183 212.718 445.174 214.418 447.158 215.835C449.198 217.252 452.286 217.96 456.423 217.96ZM537.969 194.245C537.969 196.172 538.111 197.588 538.394 198.495C538.678 199.402 539.188 200.053 539.924 200.45C540.718 200.79 541.964 200.96 543.664 200.96V203H524.879V200.96C526.353 200.96 527.429 200.79 528.109 200.45C528.789 200.053 529.243 199.402 529.469 198.495C529.696 197.588 529.809 196.172 529.809 194.245V169.085C529.809 164.608 528.223 162.37 525.049 162.37C523.576 162.37 522.131 162.88 520.714 163.9C519.298 164.92 517.824 166.45 516.294 168.49V168.66V194.245C516.294 196.172 516.408 197.588 516.634 198.495C516.861 199.402 517.314 200.053 517.994 200.45C518.674 200.79 519.751 200.96 521.224 200.96V203H503.119V200.96C504.593 200.96 505.669 200.79 506.349 200.45C507.086 200.053 507.568 199.402 507.794 198.495C508.021 197.588 508.134 196.172 508.134 194.245V169.085C508.134 164.608 506.548 162.37 503.374 162.37C501.844 162.37 500.343 162.908 498.869 163.985C497.453 165.062 495.951 166.677 494.364 168.83V194.245C494.364 196.172 494.478 197.588 494.704 198.495C494.931 199.402 495.384 200.053 496.064 200.45C496.801 200.79 497.906 200.96 499.379 200.96V203H480.424V200.96C482.124 200.96 483.371 200.79 484.164 200.45C484.958 200.053 485.496 199.402 485.779 198.495C486.063 197.588 486.204 196.172 486.204 194.245V168.065C486.204 165.798 486.119 164.297 485.949 163.56C485.779 162.767 485.298 162.37 484.504 162.37C483.881 162.37 482.776 162.682 481.189 163.305L480.339 161.435L492.749 156.25L494.364 157.525V165.345H494.619C496.489 162.512 498.388 160.33 500.314 158.8C502.298 157.213 504.621 156.42 507.284 156.42C509.778 156.42 511.761 157.185 513.234 158.715C514.708 160.245 515.671 162.455 516.124 165.345H516.379C518.193 162.512 520.063 160.33 521.989 158.8C523.973 157.213 526.296 156.42 528.959 156.42C531.906 156.42 534.144 157.468 535.674 159.565C537.204 161.662 537.969 164.693 537.969 168.66V194.245ZM584.82 193.395C584.536 200.705 581.901 204.36 576.915 204.36C571.758 204.36 569.18 200.648 569.18 193.225V191.695C568.216 195.718 566.63 198.835 564.42 201.045C562.266 203.255 559.66 204.36 556.6 204.36C553.653 204.36 551.33 203.425 549.63 201.555C547.986 199.628 547.165 197.22 547.165 194.33C547.165 191.213 548.128 188.522 550.055 186.255C551.981 183.932 554.276 182.005 556.94 180.475C559.66 178.945 563.145 177.217 567.395 175.29L569.18 174.525V169.595C569.18 166.082 568.613 163.56 567.48 162.03C566.403 160.5 564.788 159.735 562.635 159.735C560.935 159.735 559.546 160.16 558.47 161.01C557.45 161.803 556.94 162.88 556.94 164.24C556.94 164.75 557.025 165.26 557.195 165.77C557.365 166.28 557.478 166.592 557.535 166.705C557.931 167.612 558.13 168.462 558.13 169.255C558.13 170.445 557.761 171.408 557.025 172.145C556.288 172.825 555.268 173.165 553.965 173.165C552.491 173.165 551.33 172.683 550.48 171.72C549.686 170.757 549.29 169.482 549.29 167.895C549.29 165.798 549.913 163.872 551.16 162.115C552.463 160.358 554.22 158.97 556.43 157.95C558.696 156.873 561.218 156.335 563.995 156.335C568.188 156.335 571.446 157.525 573.77 159.905C576.15 162.228 577.34 165.657 577.34 170.19V195.265C577.34 197.248 577.51 198.608 577.85 199.345C578.246 200.082 578.813 200.45 579.55 200.45C581.59 200.45 582.695 198.098 582.865 193.395H584.82ZM559.915 197.9C561.728 197.9 563.456 197.022 565.1 195.265C566.743 193.508 568.103 190.873 569.18 187.36V177.33C564.76 179.597 561.331 181.835 558.895 184.045C556.515 186.198 555.325 188.862 555.325 192.035C555.325 193.848 555.721 195.293 556.515 196.37C557.308 197.39 558.441 197.9 559.915 197.9ZM642.261 193.395C641.978 200.705 639.343 204.36 634.356 204.36C629.199 204.36 626.621 200.648 626.621 193.225V191.695C625.658 195.718 624.071 198.835 621.861 201.045C619.708 203.255 617.101 204.36 614.041 204.36C611.094 204.36 608.771 203.425 607.071 201.555C605.428 199.628 604.606 197.22 604.606 194.33C604.606 191.213 605.569 188.522 607.496 186.255C609.423 183.932 611.718 182.005 614.381 180.475C617.101 178.945 620.586 177.217 624.836 175.29L626.621 174.525V169.595C626.621 166.082 626.054 163.56 624.921 162.03C623.844 160.5 622.229 159.735 620.076 159.735C618.376 159.735 616.988 160.16 615.911 161.01C614.891 161.803 614.381 162.88 614.381 164.24C614.381 164.75 614.466 165.26 614.636 165.77C614.806 166.28 614.919 166.592 614.976 166.705C615.373 167.612 615.571 168.462 615.571 169.255C615.571 170.445 615.203 171.408 614.466 172.145C613.729 172.825 612.709 173.165 611.406 173.165C609.933 173.165 608.771 172.683 607.921 171.72C607.128 170.757 606.731 169.482 606.731 167.895C606.731 165.798 607.354 163.872 608.601 162.115C609.904 160.358 611.661 158.97 613.871 157.95C616.138 156.873 618.659 156.335 621.436 156.335C625.629 156.335 628.888 157.525 631.211 159.905C633.591 162.228 634.781 165.657 634.781 170.19V195.265C634.781 197.248 634.951 198.608 635.291 199.345C635.688 200.082 636.254 200.45 636.991 200.45C639.031 200.45 640.136 198.098 640.306 193.395H642.261ZM617.356 197.9C619.169 197.9 620.898 197.022 622.541 195.265C624.184 193.508 625.544 190.873 626.621 187.36V177.33C622.201 179.597 618.773 181.835 616.336 184.045C613.956 186.198 612.766 188.862 612.766 192.035C612.766 193.848 613.163 195.293 613.956 196.37C614.749 197.39 615.883 197.9 617.356 197.9ZM644.035 200.96C645.735 200.96 646.981 200.79 647.775 200.45C648.568 200.053 649.106 199.402 649.39 198.495C649.673 197.588 649.815 196.172 649.815 194.245V168.065C649.815 165.742 649.73 164.212 649.56 163.475C649.39 162.682 648.908 162.285 648.115 162.285C647.378 162.285 646.245 162.625 644.715 163.305L643.865 161.35L650.665 158.63L656.445 156.25L658.06 157.525V165.345H658.315C660.468 162.398 662.565 160.188 664.605 158.715C666.645 157.185 669.025 156.42 671.745 156.42C674.748 156.42 677.043 157.497 678.63 159.65C680.273 161.747 681.095 164.778 681.095 168.745V194.245C681.095 196.172 681.236 197.588 681.52 198.495C681.803 199.402 682.313 200.053 683.05 200.45C683.843 200.79 685.061 200.96 686.705 200.96V203H667.665V200.96C669.195 200.96 670.3 200.79 670.98 200.45C671.716 200.053 672.198 199.402 672.425 198.495C672.708 197.588 672.85 196.172 672.85 194.245V169.255C672.85 164.665 671.178 162.37 667.835 162.37C666.135 162.37 664.491 162.937 662.905 164.07C661.375 165.147 659.76 166.762 658.06 168.915V194.245C658.06 196.172 658.173 197.588 658.4 198.495C658.683 199.402 659.165 200.053 659.845 200.45C660.581 200.79 661.715 200.96 663.245 200.96V203H644.035V200.96ZM729.22 199.6L716.64 204.36L714.855 202.915V195.945H714.515C713.382 198.552 711.823 200.62 709.84 202.15C707.913 203.623 705.618 204.36 702.955 204.36C700.292 204.36 697.968 203.425 695.985 201.555C694.002 199.685 692.472 197.05 691.395 193.65C690.318 190.25 689.78 186.312 689.78 181.835C689.78 176.905 690.403 172.513 691.65 168.66C692.953 164.807 694.767 161.803 697.09 159.65C699.47 157.497 702.19 156.42 705.25 156.42C707.347 156.42 709.217 156.845 710.86 157.695C712.56 158.545 713.892 159.707 714.855 161.18V145.285C714.855 143.188 714.77 141.772 714.6 141.035C714.487 140.298 714.09 139.93 713.41 139.93C712.73 139.93 711.54 140.355 709.84 141.205L708.99 139.42L721.995 132.96L723.1 134.15V192.885C723.1 195.152 723.185 196.682 723.355 197.475C723.582 198.212 724.12 198.58 724.97 198.58C725.593 198.58 726.755 198.268 728.455 197.645L729.22 199.6ZM706.525 198.41C708.282 198.41 709.812 197.843 711.115 196.71C712.418 195.52 713.665 193.848 714.855 191.695V175.97C714.855 171.55 714.175 167.923 712.815 165.09C711.512 162.257 709.585 160.84 707.035 160.84C704.202 160.84 702.077 162.597 700.66 166.11C699.243 169.567 698.535 174.128 698.535 179.795C698.535 185.462 699.187 189.995 700.49 193.395C701.85 196.738 703.862 198.41 706.525 198.41ZM781.055 189.825H781.48L796.27 143.33C796.836 141.63 797.12 140.44 797.12 139.76C797.12 138.74 796.581 138.032 795.505 137.635C794.485 137.238 792.615 137.04 789.895 137.04V135H808.51V137.04C806.016 137.04 804.203 137.465 803.07 138.315C801.936 139.108 800.945 140.78 800.095 143.33L780.545 204.36H776.295L755.895 143.33C755.045 140.78 754.053 139.108 752.92 138.315C751.843 137.465 750.058 137.04 747.565 137.04V135H772.385V137.04C769.665 137.04 767.795 137.238 766.775 137.635C765.755 138.032 765.245 138.74 765.245 139.76C765.245 140.327 765.5 141.517 766.01 143.33L781.055 189.825ZM828.873 204.36C826.38 204.36 823.972 203.85 821.648 202.83C819.325 201.81 817.285 200.422 815.528 198.665C814.905 198.042 814.367 197.73 813.913 197.73C813.347 197.73 812.978 198.268 812.808 199.345L812.043 203.255H809.918L810.088 177.84H812.298C812.525 181.977 813.347 185.802 814.763 189.315C816.18 192.828 818.107 195.633 820.543 197.73C822.98 199.77 825.7 200.79 828.703 200.79C832.103 200.79 834.682 199.713 836.438 197.56C838.252 195.35 839.158 192.772 839.158 189.825C839.158 187.388 838.592 185.15 837.458 183.11C836.325 181.013 834.852 179.143 833.038 177.5C831.282 175.8 828.987 173.873 826.153 171.72C822.47 168.887 819.608 166.563 817.568 164.75C815.528 162.88 813.828 160.727 812.468 158.29C811.165 155.797 810.513 152.992 810.513 149.875C810.513 146.588 811.25 143.727 812.723 141.29C814.197 138.797 816.208 136.898 818.758 135.595C821.308 134.292 824.198 133.64 827.428 133.64C829.808 133.64 831.905 134.008 833.718 134.745C835.532 135.425 837.203 136.502 838.733 137.975C839.357 138.485 839.867 138.74 840.263 138.74C841 138.74 841.453 138.173 841.623 137.04L842.048 134.49H844.088L845.108 156.845H842.983C842.53 151.235 841 146.56 838.393 142.82C835.787 139.023 832.33 137.125 828.023 137.125C825.02 137.125 822.64 138.088 820.883 140.015C819.183 141.885 818.333 144.208 818.333 146.985C818.333 149.082 818.815 151.008 819.778 152.765C820.798 154.522 822.158 156.193 823.858 157.78C825.615 159.367 828.052 161.322 831.168 163.645C834.738 166.252 837.6 168.603 839.753 170.7C841.907 172.74 843.635 175.063 844.938 177.67C846.298 180.277 846.978 183.223 846.978 186.51C846.978 190.023 846.185 193.14 844.598 195.86C843.068 198.523 840.915 200.62 838.138 202.15C835.418 203.623 832.33 204.36 828.873 204.36ZM870.577 169.595C870.577 162.795 871.71 156.675 873.977 151.235C876.3 145.738 879.559 141.432 883.752 138.315C887.945 135.198 892.734 133.64 898.117 133.64C903.727 133.64 908.374 135.397 912.057 138.91C912.51 139.363 912.964 139.59 913.417 139.59C914.04 139.59 914.409 139.108 914.522 138.145L914.947 134.405H916.902L918.177 158.46H916.222C913.729 144.407 908.204 137.38 899.647 137.38C895.794 137.38 892.45 138.74 889.617 141.46C886.784 144.123 884.63 147.807 883.157 152.51C881.684 157.213 880.947 162.54 880.947 168.49C880.947 174.44 881.684 179.767 883.157 184.47C884.687 189.117 886.84 192.772 889.617 195.435C892.45 198.042 895.794 199.345 899.647 199.345C904.634 199.345 908.685 197.163 911.802 192.8C914.975 188.38 917.044 182.572 918.007 175.375H920.472C919.622 184.555 917.214 191.695 913.247 196.795C909.337 201.838 903.869 204.36 896.842 204.36C891.402 204.36 886.699 202.83 882.732 199.77C878.765 196.71 875.734 192.545 873.637 187.275C871.597 182.005 870.577 176.112 870.577 169.595ZM944.627 204.36C941.001 204.36 937.799 203.368 935.022 201.385C932.246 199.345 930.092 196.54 928.562 192.97C927.089 189.343 926.352 185.235 926.352 180.645C926.352 176.055 927.061 171.918 928.477 168.235C929.951 164.552 932.076 161.662 934.852 159.565C937.629 157.468 940.887 156.42 944.627 156.42C948.254 156.42 951.427 157.44 954.147 159.48C956.924 161.463 959.077 164.268 960.607 167.895C962.137 171.465 962.902 175.545 962.902 180.135C962.902 184.725 962.166 188.862 960.692 192.545C959.219 196.228 957.094 199.118 954.317 201.215C951.597 203.312 948.367 204.36 944.627 204.36ZM945.902 200.62C948.679 200.62 950.776 199.09 952.192 196.03C953.609 192.97 954.317 189.343 954.317 185.15C954.317 181.07 953.892 177.132 953.042 173.335C952.249 169.482 951.031 166.337 949.387 163.9C947.744 161.407 945.732 160.16 943.352 160.16C940.519 160.16 938.394 161.69 936.977 164.75C935.561 167.81 934.852 171.437 934.852 175.63C934.852 179.71 935.249 183.677 936.042 187.53C936.892 191.327 938.139 194.472 939.782 196.965C941.482 199.402 943.522 200.62 945.902 200.62ZM1008.04 199.6L995.463 204.36L993.678 202.915V195.945H993.338C992.205 198.552 990.647 200.62 988.663 202.15C986.737 203.623 984.442 204.36 981.778 204.36C979.115 204.36 976.792 203.425 974.808 201.555C972.825 199.685 971.295 197.05 970.218 193.65C969.142 190.25 968.603 186.312 968.603 181.835C968.603 176.905 969.227 172.513 970.473 168.66C971.777 164.807 973.59 161.803 975.913 159.65C978.293 157.497 981.013 156.42 984.073 156.42C986.17 156.42 988.04 156.845 989.683 157.695C991.383 158.545 992.715 159.707 993.678 161.18V145.285C993.678 143.188 993.593 141.772 993.423 141.035C993.31 140.298 992.913 139.93 992.233 139.93C991.553 139.93 990.363 140.355 988.663 141.205L987.813 139.42L1000.82 132.96L1001.92 134.15V192.885C1001.92 195.152 1002.01 196.682 1002.18 197.475C1002.4 198.212 1002.94 198.58 1003.79 198.58C1004.42 198.58 1005.58 198.268 1007.28 197.645L1008.04 199.6ZM985.348 198.41C987.105 198.41 988.635 197.843 989.938 196.71C991.242 195.52 992.488 193.848 993.678 191.695V175.97C993.678 171.55 992.998 167.923 991.638 165.09C990.335 162.257 988.408 160.84 985.858 160.84C983.025 160.84 980.9 162.597 979.483 166.11C978.067 169.567 977.358 174.128 977.358 179.795C977.358 185.462 978.01 189.995 979.313 193.395C980.673 196.738 982.685 198.41 985.348 198.41ZM1041.97 184.81C1041.12 191.44 1039.33 196.37 1036.61 199.6C1033.95 202.773 1030.55 204.36 1026.41 204.36C1023.24 204.36 1020.46 203.425 1018.08 201.555C1015.76 199.628 1013.94 196.937 1012.64 193.48C1011.39 189.967 1010.77 185.887 1010.77 181.24C1010.77 176.707 1011.42 172.57 1012.73 168.83C1014.03 165.033 1015.87 162.03 1018.25 159.82C1020.69 157.553 1023.55 156.42 1026.84 156.42C1031.6 156.42 1035.22 158.432 1037.72 162.455C1040.21 166.422 1041.46 171.663 1041.46 178.18H1019.02V178.35C1019.02 184.3 1019.92 189.088 1021.74 192.715C1023.55 196.285 1026.18 198.07 1029.64 198.07C1031.85 198.07 1033.86 197.05 1035.68 195.01C1037.55 192.97 1038.96 189.57 1039.93 184.81H1041.97ZM1026.84 159.99C1022.25 159.99 1019.67 164.892 1019.1 174.695H1033.3C1033.3 164.892 1031.14 159.99 1026.84 159.99ZM1050.6 204.36C1049.19 204.36 1048 203.878 1047.03 202.915C1046.07 201.952 1045.59 200.762 1045.59 199.345C1045.59 197.985 1046.07 196.823 1047.03 195.86C1048 194.84 1049.19 194.33 1050.6 194.33C1051.96 194.33 1053.12 194.84 1054.09 195.86C1055.11 196.823 1055.62 197.985 1055.62 199.345C1055.62 200.762 1055.11 201.952 1054.09 202.915C1053.12 203.878 1051.96 204.36 1050.6 204.36Z" fill="#5C421B"/>
<path d="M1309.93 270.635H1277.32L1277.96 268.641H1310.54L1309.93 270.635ZM1316.89 271.079L1320.91 257.7C1321.41 256.065 1321.3 255.622 1318.47 255.622L1318.7 254.957H1327.37L1327.17 255.622C1325.15 255.622 1324.46 256.065 1323.96 257.7L1320.14 270.358C1318.53 275.76 1316.26 277.56 1313.32 277.56C1310.61 277.56 1309.44 276.009 1309.44 274.403C1309.44 272.907 1310.39 271.688 1311.6 271.688C1312.32 271.688 1312.82 272.076 1312.82 272.741C1312.82 273.682 1311.8 274.264 1311.8 275.317C1311.8 275.954 1312.16 276.48 1313.18 276.48C1314.93 276.48 1315.81 274.624 1316.89 271.079ZM1325.81 277.505C1324.51 277.505 1323.82 276.674 1323.82 275.538C1323.82 273.461 1325.78 269.5 1327.17 266.453C1327.5 265.539 1327.94 264.431 1327.94 264.015C1327.94 263.655 1327.8 263.544 1327.58 263.544C1326.75 263.544 1325.53 265.012 1324.48 266.757H1323.82C1325.09 264.32 1327.17 262.076 1329.19 262.076C1330.19 262.076 1330.66 262.796 1330.66 263.627C1330.66 264.32 1330.24 265.289 1329.72 266.536C1328.25 270.137 1326.72 273.433 1326.64 274.68C1326.61 275.289 1326.83 275.566 1327.19 275.566C1328.19 275.566 1329.83 274.126 1331.96 270.054C1333.09 267.949 1334.76 264.514 1334.84 262.436H1338.05L1334.26 273.405C1334.04 274.043 1333.68 274.984 1333.68 275.4C1333.68 275.815 1333.81 276.009 1334.17 276.009C1335.2 276.009 1336.45 274.264 1337.36 272.242H1338.03C1337 274.735 1335.2 277.533 1332.96 277.533C1331.49 277.533 1330.99 276.757 1330.99 275.732C1330.99 275.123 1331.32 274.458 1331.74 273.35L1333.48 268.696H1333.23C1330.24 274.68 1328.05 277.505 1325.81 277.505ZM1347.74 254.154L1348.07 254.348L1341.95 273.239C1341.73 273.876 1341.43 274.846 1341.43 275.234C1341.43 275.649 1341.54 275.871 1341.92 275.871C1342.95 275.871 1344.17 274.126 1345.11 272.104H1345.75C1344.75 274.569 1342.92 277.366 1340.68 277.366C1339.21 277.366 1338.71 276.591 1338.71 275.594C1338.71 274.957 1338.93 274.264 1339.32 273.156L1344.31 257.7C1344.83 256.148 1344.58 255.594 1342.64 255.594L1342.81 254.957C1346.02 254.957 1347.13 254.708 1347.74 254.154ZM1353.95 259.279C1352.9 259.279 1352.18 258.586 1352.18 257.561C1352.18 256.509 1352.9 255.844 1353.95 255.844C1355 255.844 1355.72 256.509 1355.72 257.561C1355.72 258.586 1355 259.279 1353.95 259.279ZM1348.02 273.184L1350.4 266.48C1350.74 265.566 1351.12 264.431 1351.12 264.043C1351.12 263.683 1350.99 263.572 1350.76 263.572C1349.93 263.572 1348.71 265.04 1347.66 266.785H1347C1348.27 264.32 1350.35 262.104 1352.37 262.104C1353.37 262.104 1353.84 262.824 1353.84 263.627C1353.84 264.348 1353.48 265.317 1353.04 266.536L1350.63 273.267C1350.4 273.876 1350.04 274.846 1350.04 275.234C1350.04 275.649 1350.16 275.871 1350.54 275.871C1351.57 275.871 1352.81 274.126 1353.73 272.104H1354.37C1353.37 274.569 1351.57 277.366 1349.3 277.366C1347.83 277.366 1347.33 276.591 1347.33 275.594C1347.33 274.957 1347.63 274.292 1348.02 273.184ZM1365.62 275.871C1366.65 275.871 1367.87 274.126 1368.81 272.104H1369.45C1368.45 274.569 1366.62 277.366 1364.38 277.366C1362.91 277.366 1362.41 276.591 1362.41 275.594C1362.41 274.957 1362.74 274.292 1363.16 273.184L1364.24 270.137H1363.99C1362.66 273.018 1360.11 277.422 1357.65 277.422C1355.9 277.422 1355.13 275.926 1355.13 273.793C1355.13 268.863 1359.59 262.049 1363.44 262.049C1365.29 262.049 1366.04 263.406 1365.93 265.179H1366.01L1366.82 262.963C1367.92 262.963 1368.81 262.464 1369.28 261.882L1369.72 262.132L1365.74 273.267C1365.51 273.904 1365.13 274.846 1365.13 275.234C1365.13 275.649 1365.24 275.871 1365.62 275.871ZM1358.78 275.4C1360.42 275.4 1363.35 271.079 1364.41 268.032C1364.71 267.145 1364.93 266.259 1364.93 265.345C1364.93 264.154 1364.6 263.461 1363.69 263.461C1361.22 263.461 1357.87 269.527 1357.87 273.461C1357.87 274.707 1358.12 275.4 1358.78 275.4Z" fill="#5C421B"/>
<path d="M199.847 90.5729C203.387 90.5729 206.234 91.804 208.388 94.2662C210.542 96.5745 211.62 99.5753 211.62 103.269C211.62 107.27 210.158 110.655 207.234 113.425C204.464 116.195 200.694 117.58 195.923 117.58C190.845 117.58 186.613 115.734 183.227 112.04C179.842 108.193 178.149 103.192 178.149 97.0362C178.149 90.1112 180.534 83.8018 185.305 78.108C190.075 72.4141 197.308 68.1053 207.003 65.1814V71.183C200.694 72.8758 195.769 75.4919 192.23 79.0313C188.69 82.5707 186.921 86.264 186.921 90.1112C186.921 91.4962 187.151 92.5734 187.613 93.3429C188.229 94.1123 188.921 94.497 189.691 94.497C190.306 94.497 191.537 93.8815 193.384 92.6504C195.231 91.2654 197.385 90.5729 199.847 90.5729ZM244.167 90.5729C247.706 90.5729 250.553 91.804 252.708 94.2662C254.862 96.5745 255.939 99.5753 255.939 103.269C255.939 107.27 254.477 110.655 251.553 113.425C248.784 116.195 245.013 117.58 240.243 117.58C235.164 117.58 230.933 115.734 227.547 112.04C224.161 108.193 222.469 103.192 222.469 97.0362C222.469 90.1112 224.854 83.8018 229.624 78.108C234.395 72.4141 241.628 68.1053 251.323 65.1814V71.183C245.013 72.8758 240.089 75.4919 236.549 79.0313C233.01 82.5707 231.24 86.264 231.24 90.1112C231.24 91.4962 231.471 92.5734 231.933 93.3429C232.548 94.1123 233.241 94.497 234.01 94.497C234.78 94.497 236.011 93.8815 237.704 92.6504C239.55 91.2654 241.705 90.5729 244.167 90.5729Z" fill="#5C421B"/>
</svg>
