<svg width="1425" height="328" viewBox="0 0 1425 328" fill="none" xmlns="http://www.w3.org/2000/svg">
<rect width="1425" height="327.781" fill="#FFFBEC"/>
<path d="M264.859 196V194.153C272.015 194.153 273.015 192.768 273.015 188.075V142.37C273.015 137.677 272.015 136.292 264.859 136.292V134.445H287.48C300.946 134.445 309.102 139.908 309.102 151.834C309.102 163.991 300.715 169.993 289.789 170.07C286.403 170.147 283.864 169.531 281.633 168.685V188.075C281.633 192.768 282.71 194.153 290.173 194.153V196H264.859ZM288.327 166.607C296.406 166.607 300.484 160.452 300.484 151.834C300.484 142.293 295.252 137.6 287.865 137.6C285.942 137.6 284.403 137.907 283.018 138.446C282.094 138.831 281.633 139.523 281.633 140.523V165.299C283.402 165.992 285.557 166.607 288.327 166.607ZM335.821 153.835C338.514 153.835 339.976 155.374 339.976 157.913C339.976 160.914 338.206 162.837 336.206 162.837C334.821 162.837 334.205 162.299 333.205 161.221C332.205 160.221 331.82 159.913 330.897 159.913C329.127 159.913 327.049 162.452 325.434 167.146V187.613C325.434 192.845 326.588 194.076 333.59 194.076V196H312.815V194.153C317.278 194.153 318.047 192.999 318.047 188.075V164.376C318.047 159.221 318.047 158.144 313.43 160.067L312.661 158.298L318.816 155.835L324.049 153.681L325.434 154.835V162.222H325.664C327.819 158.144 331.589 153.835 335.821 153.835ZM358.519 197.231C348.517 197.231 341.976 188.383 341.976 175.764C341.976 163.376 348.055 153.835 358.519 153.835C368.445 153.835 375.062 162.683 375.062 175.302C375.062 187.69 368.907 197.231 358.519 197.231ZM359.674 193.846C365.137 193.846 367.291 186.613 367.291 179.842C367.291 169.377 364.136 157.22 357.365 157.22C351.902 157.22 349.671 164.453 349.671 171.224C349.671 181.688 352.903 193.846 359.674 193.846ZM399.312 132.367C404.929 132.367 408.622 135.368 408.622 138.369C408.622 140.293 407.314 142.062 404.775 142.062C402.929 142.062 402.005 140.908 400.774 139.062C399.312 136.83 398.697 135.984 397.235 135.984C394.157 135.984 392.08 138.985 392.08 148.141V155.22H400.697V158.374H392.08V188.075C392.08 192.999 393.157 194.153 399.851 194.153V196H378.845V194.153C383.847 194.153 384.616 192.999 384.616 188.075V158.374H379.538V155.835L384.616 155.451V149.526C384.616 136.599 392.541 132.367 399.312 132.367ZM428.931 179.534H430.778C429.162 191.922 423.93 197.231 416.697 197.231C408.003 197.231 402.54 188.998 402.54 176.302C402.54 164.145 407.926 153.835 417.082 153.835C426.085 153.835 430.316 162.299 430.316 173.532H410.003V173.686C410.003 184.151 413.235 191.537 419.621 191.537C423.084 191.537 427.085 188.844 428.931 179.534ZM417.082 157.066C412.465 157.066 410.542 162.683 410.08 170.378H422.93C422.93 162.991 421.622 157.066 417.082 157.066ZM448.986 197.231C445.062 197.231 442.215 195.615 440.599 194.461C439.599 193.692 438.983 193.923 438.522 194.846L437.906 196.385H436.213L435.675 179.765H437.368C438.522 188.921 442.908 193.999 448.217 193.999C451.833 193.999 453.757 191.537 453.757 187.613C453.757 184.151 452.141 182.689 444.985 176.918C438.445 171.763 436.213 168.762 436.213 164.376C436.213 157.99 440.83 153.835 446.909 153.835C450.371 153.835 452.756 155.297 454.141 156.451C455.142 157.374 455.911 156.989 456.142 156.066L456.604 154.373H458.373L458.681 167.839H456.988C456.065 161.837 452.679 157.066 447.524 157.066C444.446 157.066 442.446 159.144 442.446 162.222C442.446 165.453 444.446 167.146 449.833 171.378C456.757 176.841 460.066 180.15 460.066 185.997C460.066 193.615 454.911 197.231 448.986 197.231ZM477.765 197.231C473.841 197.231 470.994 195.615 469.378 194.461C468.378 193.692 467.762 193.923 467.301 194.846L466.685 196.385H464.992L464.454 179.765H466.146C467.301 188.921 471.686 193.999 476.995 193.999C480.612 193.999 482.535 191.537 482.535 187.613C482.535 184.151 480.92 182.689 473.764 176.918C467.224 171.763 464.992 168.762 464.992 164.376C464.992 157.99 469.609 153.835 475.687 153.835C479.15 153.835 481.535 155.297 482.92 156.451C483.92 157.374 484.69 156.989 484.921 156.066L485.382 154.373H487.152L487.46 167.839H485.767C484.844 161.837 481.458 157.066 476.303 157.066C473.225 157.066 471.225 159.144 471.225 162.222C471.225 165.453 473.225 167.146 478.611 171.378C485.536 176.841 488.845 180.15 488.845 185.997C488.845 193.615 483.69 197.231 477.765 197.231ZM501.165 146.294C498.241 146.294 496.164 144.294 496.164 141.601C496.164 138.831 498.241 136.83 501.165 136.83C504.012 136.83 506.089 138.831 506.089 141.601C506.089 144.294 504.012 146.294 501.165 146.294ZM505.474 154.835V188.075C505.474 192.999 506.243 194.153 510.937 194.153V196H492.624V194.153C497.318 194.153 498.087 192.999 498.087 188.075V164.376C498.087 159.221 498.01 158.144 493.547 159.99L492.855 158.221L504.166 153.681L505.474 154.835ZM530.817 197.231C520.814 197.231 514.274 188.383 514.274 175.764C514.274 163.376 520.352 153.835 530.817 153.835C540.742 153.835 547.359 162.683 547.359 175.302C547.359 187.69 541.204 197.231 530.817 197.231ZM531.971 193.846C537.434 193.846 539.588 186.613 539.588 179.842C539.588 169.377 536.433 157.22 529.662 157.22C524.199 157.22 521.968 164.453 521.968 171.224C521.968 181.688 525.2 193.846 531.971 193.846ZM550.86 196V194.153C555.323 194.153 556.092 192.999 556.092 188.075V164.376C556.092 159.221 556.092 158.144 551.475 160.067L550.706 158.298L556.861 155.835L562.094 153.681L563.556 154.835V161.914H563.786C567.249 157.143 570.711 153.835 575.943 153.835C581.406 153.835 584.407 157.759 584.407 164.992V188.075C584.407 192.999 585.1 194.153 589.486 194.153V196H572.25V194.153C576.328 194.153 576.944 192.999 576.944 188.075V165.453C576.944 161.221 575.328 159.221 572.404 159.221C569.249 159.221 566.479 161.375 563.556 165.146V188.075C563.556 192.999 564.171 194.153 568.249 194.153V196H550.86ZM624.954 187.305H626.724C626.493 193.153 624.647 197.231 619.568 197.231C615.182 197.231 612.566 194.307 612.566 187.151V185.766C610.797 192.999 606.719 197.231 601.179 197.231C595.716 197.231 592.638 193.153 592.638 188.152C592.638 178.457 603.795 174.148 612.566 170.224V165.761C612.566 159.144 610.412 156.836 606.642 156.836C603.641 156.836 601.486 158.374 601.486 160.914C601.486 162.683 602.564 163.684 602.564 165.453C602.564 167.531 601.256 168.993 598.793 168.993C596.023 168.993 594.561 167.069 594.561 164.222C594.561 158.528 600.101 153.758 607.873 153.758C615.336 153.758 619.953 157.99 619.953 166.3V188.998C619.953 192.768 620.722 193.692 621.953 193.692C623.569 193.692 624.8 192.153 624.954 187.305ZM604.179 191.383C607.257 191.383 610.566 188.536 612.566 181.842V172.763C606.334 175.995 600.024 179.688 600.024 186.074C600.024 189.306 601.486 191.383 604.179 191.383ZM640.941 133.675V188.075C640.941 192.999 641.634 194.153 646.327 194.153V196H628.015V194.153C632.708 194.153 633.478 192.999 633.478 188.075V143.601C633.478 138.677 633.478 137.677 628.861 139.985L628.092 138.292L639.787 132.598L640.941 133.675ZM692.293 133.522L710.452 188.46C712.068 193.153 713.761 194.153 718.762 194.153V196H695.371V194.153C702.835 194.153 702.912 192.922 701.527 188.383L697.833 176.533H677.212L673.442 188.46C671.98 192.922 672.057 194.153 679.367 194.153V196H661.978V194.153C666.825 194.153 668.518 193.153 670.057 188.46L688.061 133.522H692.293ZM687.446 144.602L678.213 173.532H696.833L687.754 144.602H687.446ZM742.181 153.835C744.874 153.835 746.336 155.374 746.336 157.913C746.336 160.914 744.566 162.837 742.565 162.837C741.18 162.837 740.565 162.299 739.565 161.221C738.564 160.221 738.18 159.913 737.256 159.913C735.487 159.913 733.409 162.452 731.793 167.146V187.613C731.793 192.845 732.947 194.076 739.949 194.076V196H719.174V194.153C723.637 194.153 724.407 192.999 724.407 188.075V164.376C724.407 159.221 724.407 158.144 719.79 160.067L719.021 158.298L725.176 155.835L730.408 153.681L731.793 154.835V162.222H732.024C734.178 158.144 737.949 153.835 742.181 153.835ZM770.537 178.765H772.691C772.691 190.768 770.306 197.231 762.766 197.231C756.764 197.231 753.609 193.615 753.609 182.843V158.374H748.223V155.528C753.84 155.374 757.379 151.219 758.149 143.986H760.919V155.22H770.152V158.374H761.073V180.842C761.073 187.69 761.765 192.23 765.382 192.23C768.844 192.23 770.537 187.921 770.537 178.765ZM789.598 197.231C785.674 197.231 782.827 195.615 781.211 194.461C780.211 193.692 779.595 193.923 779.134 194.846L778.518 196.385H776.825L776.287 179.765H777.979C779.134 188.921 783.519 193.999 788.828 193.999C792.445 193.999 794.368 191.537 794.368 187.613C794.368 184.151 792.753 182.689 785.597 176.918C779.057 171.763 776.825 168.762 776.825 164.376C776.825 157.99 781.442 153.835 787.52 153.835C790.983 153.835 793.368 155.297 794.753 156.451C795.753 157.374 796.523 156.989 796.754 156.066L797.215 154.373H798.985L799.293 167.839H797.6C796.677 161.837 793.291 157.066 788.136 157.066C785.058 157.066 783.058 159.144 783.058 162.222C783.058 165.453 785.058 167.146 790.444 171.378C797.369 176.841 800.678 180.15 800.678 185.997C800.678 193.615 795.523 197.231 789.598 197.231ZM853.156 187.305H854.926C854.695 193.153 852.848 197.231 847.77 197.231C843.384 197.231 840.768 194.307 840.768 187.151V185.766C838.998 192.999 834.92 197.231 829.38 197.231C823.917 197.231 820.84 193.153 820.84 188.152C820.84 178.457 831.996 174.148 840.768 170.224V165.761C840.768 159.144 838.614 156.836 834.843 156.836C831.843 156.836 829.688 158.374 829.688 160.914C829.688 162.683 830.765 163.684 830.765 165.453C830.765 167.531 829.457 168.993 826.995 168.993C824.225 168.993 822.763 167.069 822.763 164.222C822.763 158.528 828.303 153.758 836.074 153.758C843.538 153.758 848.155 157.99 848.155 166.3V188.998C848.155 192.768 848.924 193.692 850.155 193.692C851.771 193.692 853.002 192.153 853.156 187.305ZM832.381 191.383C835.459 191.383 838.767 188.536 840.768 181.842V172.763C834.536 175.995 828.226 179.688 828.226 186.074C828.226 189.306 829.688 191.383 832.381 191.383ZM856.531 196V194.153C860.994 194.153 861.763 192.999 861.763 188.075V164.376C861.763 159.221 861.763 158.144 857.147 160.067L856.377 158.298L862.533 155.835L867.765 153.681L869.227 154.835V161.914H869.458C872.92 157.143 876.383 153.835 881.615 153.835C887.078 153.835 890.079 157.759 890.079 164.992V188.075C890.079 192.999 890.771 194.153 895.157 194.153V196H877.922V194.153C882 194.153 882.615 192.999 882.615 188.075V165.453C882.615 161.221 880.999 159.221 878.076 159.221C874.921 159.221 872.151 161.375 869.227 165.146V188.075C869.227 192.999 869.843 194.153 873.921 194.153V196H856.531ZM932.95 191.153L933.643 192.922L922.255 197.231L920.639 195.923V189.614H920.332C918.331 194.153 914.868 197.231 909.867 197.231C902.481 197.231 897.941 188.998 897.941 176.841C897.941 163.376 903.481 153.835 911.945 153.835C915.792 153.835 918.947 155.451 920.639 158.144V143.755C920.639 138.754 920.716 137.83 916.1 140.062L915.33 138.446L927.103 132.598L928.103 133.675V186.844C928.103 191.999 928.18 192.999 932.95 191.153ZM913.099 191.845C916.484 191.845 918.716 189.306 920.639 185.766V171.532C920.639 163.991 918.331 157.836 913.56 157.836C908.174 157.836 905.866 165.376 905.866 174.994C905.866 184.766 908.02 191.845 913.099 191.845ZM953.25 165.761C953.25 147.218 963.252 133.214 978.179 133.214C983.104 133.214 987.259 134.599 990.798 137.984C991.952 139.062 992.876 138.754 993.03 137.292L993.414 133.906H995.184L996.338 155.681H994.569C992.414 143.524 987.721 136.599 979.564 136.599C968.792 136.599 962.637 148.68 962.637 164.761C962.637 180.919 968.946 192.691 979.564 192.691C988.952 192.691 994.569 183.381 996.184 170.993H998.416C996.954 187.075 990.106 197.231 977.025 197.231C961.79 197.231 953.25 183.304 953.25 165.761ZM1025.84 153.835C1028.53 153.835 1029.99 155.374 1029.99 157.913C1029.99 160.914 1028.22 162.837 1026.22 162.837C1024.84 162.837 1024.22 162.299 1023.22 161.221C1022.22 160.221 1021.83 159.913 1020.91 159.913C1019.14 159.913 1017.06 162.452 1015.45 167.146V187.613C1015.45 192.845 1016.6 194.076 1023.6 194.076V196H1002.83V194.153C1007.29 194.153 1008.06 192.999 1008.06 188.075V164.376C1008.06 159.221 1008.06 158.144 1003.45 160.067L1002.68 158.298L1008.83 155.835L1014.06 153.681L1015.45 154.835V162.222H1015.68C1017.83 158.144 1021.6 153.835 1025.84 153.835ZM1063.77 187.305H1065.54C1065.31 193.153 1063.47 197.231 1058.39 197.231C1054 197.231 1051.39 194.307 1051.39 187.151V185.766C1049.62 192.999 1045.54 197.231 1040 197.231C1034.54 197.231 1031.46 193.153 1031.46 188.152C1031.46 178.457 1042.62 174.148 1051.39 170.224V165.761C1051.39 159.144 1049.23 156.836 1045.46 156.836C1042.46 156.836 1040.31 158.374 1040.31 160.914C1040.31 162.683 1041.38 163.684 1041.38 165.453C1041.38 167.531 1040.08 168.993 1037.61 168.993C1034.84 168.993 1033.38 167.069 1033.38 164.222C1033.38 158.528 1038.92 153.758 1046.69 153.758C1054.16 153.758 1058.77 157.99 1058.77 166.3V188.998C1058.77 192.768 1059.54 193.692 1060.77 193.692C1062.39 193.692 1063.62 192.153 1063.77 187.305ZM1043 191.383C1046.08 191.383 1049.39 188.536 1051.39 181.842V172.763C1045.15 175.995 1038.84 179.688 1038.84 186.074C1038.84 189.306 1040.31 191.383 1043 191.383ZM1087.15 132.367C1092.77 132.367 1096.46 135.368 1096.46 138.369C1096.46 140.293 1095.15 142.062 1092.61 142.062C1090.76 142.062 1089.84 140.908 1088.61 139.062C1087.15 136.83 1086.53 135.984 1085.07 135.984C1081.99 135.984 1079.92 138.985 1079.92 148.141V155.22H1088.53V158.374H1079.92V188.075C1079.92 192.999 1080.99 194.153 1087.69 194.153V196H1066.68V194.153C1071.68 194.153 1072.45 192.999 1072.45 188.075V158.374H1067.37V155.835L1072.45 155.451V149.526C1072.45 136.599 1080.38 132.367 1087.15 132.367ZM1113.7 178.765H1115.86C1115.86 190.768 1113.47 197.231 1105.93 197.231C1099.93 197.231 1096.78 193.615 1096.78 182.843V158.374H1091.39V155.528C1097.01 155.374 1100.55 151.219 1101.32 143.986H1104.09V155.22H1113.32V158.374H1104.24V180.842C1104.24 187.69 1104.93 192.23 1108.55 192.23C1112.01 192.23 1113.7 187.921 1113.7 178.765ZM1132.76 197.231C1128.84 197.231 1125.99 195.615 1124.38 194.461C1123.38 193.692 1122.76 193.923 1122.3 194.846L1121.68 196.385H1119.99L1119.45 179.765H1121.15C1122.3 188.921 1126.69 193.999 1132 193.999C1135.61 193.999 1137.53 191.537 1137.53 187.613C1137.53 184.151 1135.92 182.689 1128.76 176.918C1122.22 171.763 1119.99 168.762 1119.99 164.376C1119.99 157.99 1124.61 153.835 1130.69 153.835C1134.15 153.835 1136.53 155.297 1137.92 156.451C1138.92 157.374 1139.69 156.989 1139.92 156.066L1140.38 154.373H1142.15L1142.46 167.839H1140.77C1139.84 161.837 1136.46 157.066 1131.3 157.066C1128.22 157.066 1126.22 159.144 1126.22 162.222C1126.22 165.453 1128.22 167.146 1133.61 171.378C1140.54 176.841 1143.84 180.15 1143.84 185.997C1143.84 193.615 1138.69 197.231 1132.76 197.231ZM1154.23 197.231C1151.69 197.231 1149.69 195.231 1149.69 192.691C1149.69 190.229 1151.69 188.152 1154.23 188.152C1156.7 188.152 1158.77 190.229 1158.77 192.691C1158.77 195.231 1156.7 197.231 1154.23 197.231Z" fill="#125B27"/>
<path d="M1329.89 270.635H1297.29L1297.92 268.641H1330.5L1329.89 270.635ZM1348.74 254.957L1333.15 275.871H1339.02C1339.72 275.871 1340.31 275.741 1340.79 275.483C1341.27 275.224 1341.73 274.772 1342.18 274.126C1342.64 273.461 1343.15 272.501 1343.7 271.245H1344.56L1342.26 277.117H1329.27V276.452L1344.48 256.204H1339.35C1338.61 256.204 1338 256.315 1337.52 256.536C1337.06 256.758 1336.65 257.155 1336.3 257.727C1335.95 258.3 1335.59 259.131 1335.22 260.22H1334.36L1336 254.957H1348.74ZM1350.06 277.505C1348.83 277.505 1347.83 277.08 1347.07 276.231C1346.33 275.363 1345.96 274.199 1345.96 272.741C1345.96 271.023 1346.35 269.334 1347.13 267.672C1347.9 266.01 1348.92 264.652 1350.17 263.6C1351.43 262.547 1352.72 262.021 1354.05 262.021C1355.29 262.021 1356.29 262.464 1357.04 263.35C1357.8 264.218 1358.18 265.382 1358.18 266.841C1358.18 268.558 1357.79 270.248 1357.02 271.91C1356.24 273.553 1355.23 274.901 1353.97 275.954C1352.71 276.988 1351.41 277.505 1350.06 277.505ZM1350.29 276.314C1351.06 276.314 1351.86 275.769 1352.67 274.68C1353.5 273.572 1354.19 272.205 1354.75 270.58C1355.3 268.955 1355.58 267.413 1355.58 265.954C1355.58 265.086 1355.43 264.412 1355.13 263.932C1354.86 263.433 1354.43 263.184 1353.86 263.184C1353.1 263.184 1352.31 263.747 1351.48 264.874C1350.65 265.982 1349.95 267.358 1349.4 269.001C1348.86 270.626 1348.6 272.159 1348.6 273.599C1348.6 275.409 1349.16 276.314 1350.29 276.314ZM1363.93 275.732C1365.48 275.732 1367 274.227 1368.5 271.217H1369.11C1368.31 273.193 1367.36 274.735 1366.25 275.843C1365.16 276.951 1363.98 277.505 1362.71 277.505C1361.6 277.505 1360.71 277.136 1360.05 276.397C1359.4 275.64 1359.08 274.587 1359.08 273.239C1359.08 271.67 1359.48 270.008 1360.27 268.253C1361.06 266.48 1362.09 265.003 1363.35 263.821C1364.6 262.621 1365.88 262.021 1367.17 262.021C1367.98 262.021 1368.63 262.252 1369.11 262.713C1369.59 263.175 1369.83 263.784 1369.83 264.541C1369.83 265.539 1369.46 266.48 1368.72 267.367C1367.98 268.253 1367.01 269.001 1365.81 269.611C1364.63 270.22 1363.39 270.626 1362.1 270.829C1361.93 271.623 1361.85 272.371 1361.85 273.073C1361.85 273.941 1362.03 274.606 1362.4 275.067C1362.77 275.511 1363.28 275.732 1363.93 275.732ZM1367 263.073C1366.08 263.073 1365.18 263.766 1364.31 265.151C1363.45 266.536 1362.78 268.133 1362.32 269.943C1363.32 269.684 1364.24 269.278 1365.09 268.724C1365.96 268.17 1366.64 267.515 1367.14 266.757C1367.66 265.982 1367.92 265.179 1367.92 264.348C1367.92 263.923 1367.84 263.609 1367.69 263.406C1367.56 263.184 1367.33 263.073 1367 263.073Z" fill="#125B27"/>
<path d="M199.847 90.5729C203.387 90.5729 206.234 91.804 208.388 94.2662C210.542 96.5745 211.62 99.5753 211.62 103.269C211.62 107.27 210.158 110.655 207.234 113.425C204.464 116.195 200.694 117.58 195.923 117.58C190.845 117.58 186.613 115.734 183.227 112.04C179.842 108.193 178.149 103.192 178.149 97.0362C178.149 90.1112 180.534 83.8018 185.305 78.108C190.075 72.4141 197.308 68.1053 207.003 65.1814V71.183C200.694 72.8758 195.769 75.4919 192.23 79.0313C188.69 82.5707 186.921 86.264 186.921 90.1112C186.921 91.4962 187.151 92.5734 187.613 93.3429C188.229 94.1123 188.921 94.497 189.691 94.497C190.306 94.497 191.537 93.8815 193.384 92.6504C195.231 91.2654 197.385 90.5729 199.847 90.5729ZM244.167 90.5729C247.706 90.5729 250.553 91.804 252.708 94.2662C254.862 96.5745 255.939 99.5753 255.939 103.269C255.939 107.27 254.477 110.655 251.553 113.425C248.784 116.195 245.013 117.58 240.243 117.58C235.164 117.58 230.933 115.734 227.547 112.04C224.161 108.193 222.469 103.192 222.469 97.0362C222.469 90.1112 224.854 83.8018 229.624 78.108C234.395 72.4141 241.628 68.1053 251.323 65.1814V71.183C245.013 72.8758 240.089 75.4919 236.549 79.0313C233.01 82.5707 231.24 86.264 231.24 90.1112C231.24 91.4962 231.471 92.5734 231.933 93.3429C232.548 94.1123 233.241 94.497 234.01 94.497C234.78 94.497 236.011 93.8815 237.704 92.6504C239.55 91.2654 241.705 90.5729 244.167 90.5729Z" fill="#125B27"/>
</svg>
