<svg width="1425" height="368" viewBox="0 0 1425 368" fill="none" xmlns="http://www.w3.org/2000/svg">
<rect width="1424.53" height="367.168" fill="#FFF8EC"/>
<path d="M644.684 103C644.509 103 644.421 102.912 644.421 102.737L644.526 90.54L644.439 78.7625C644.439 78.5875 644.526 78.5 644.701 78.5H648.061C648.19 78.5 648.289 78.5583 648.359 78.675L661.204 98.625L661.116 90.4175L661.081 78.7625C661.081 78.5875 661.163 78.5 661.326 78.5H663.951C664.115 78.5 664.196 78.5875 664.196 78.7625L664.109 90.54L664.179 102.737C664.179 102.912 664.097 103 663.934 103H660.399C660.259 103 660.154 102.942 660.084 102.825L647.414 83.12L647.519 91.2575L647.554 102.737C647.554 102.912 647.466 103 647.291 103H644.684ZM686.833 102.702C686.845 102.737 686.851 102.778 686.851 102.825C686.851 102.942 686.775 103 686.623 103H683.753C683.601 103 683.508 102.93 683.473 102.79L680.988 95.5975H670.996L668.546 102.79C668.511 102.93 668.417 103 668.266 103H665.466C665.372 103 665.308 102.977 665.273 102.93C665.238 102.872 665.232 102.796 665.256 102.702L673.883 78.71C673.918 78.57 674.011 78.5 674.163 78.5H678.013C678.153 78.5 678.252 78.57 678.311 78.71L686.833 102.702ZM680.131 92.9725L675.948 80.81L671.818 92.9725H680.131ZM690.079 103C689.915 103 689.834 102.912 689.834 102.737L689.974 90.8725L689.869 80.985H683.009C682.845 80.985 682.764 80.9033 682.764 80.74V78.7625C682.764 78.5875 682.845 78.5 683.009 78.5H700.071C700.153 78.5 700.217 78.5233 700.264 78.57C700.31 78.6167 700.334 78.6808 700.334 78.7625V80.74C700.334 80.9033 700.246 80.985 700.071 80.985H693.211L693.106 90.8725L693.246 102.737C693.246 102.912 693.165 103 693.001 103H690.079ZM717.834 102.702C717.846 102.737 717.852 102.778 717.852 102.825C717.852 102.942 717.776 103 717.624 103H714.754C714.602 103 714.509 102.93 714.474 102.79L711.989 95.5975H701.997L699.547 102.79C699.512 102.93 699.418 103 699.267 103H696.467C696.373 103 696.309 102.977 696.274 102.93C696.239 102.872 696.233 102.796 696.257 102.702L704.884 78.71C704.919 78.57 705.012 78.5 705.164 78.5H709.014C709.154 78.5 709.253 78.57 709.312 78.71L717.834 102.702ZM711.132 92.9725L706.949 80.81L702.819 92.9725H711.132ZM727.563 103.42C725.474 103.42 723.684 103.093 722.19 102.44C720.697 101.775 719.536 100.801 718.708 99.5175C717.891 98.2342 717.448 96.6708 717.378 94.8275C717.378 94.6525 717.459 94.565 717.623 94.565H720.528C720.679 94.565 720.767 94.6467 720.79 94.81C720.942 96.8167 721.543 98.3333 722.593 99.36C723.654 100.387 725.34 100.9 727.65 100.9C729.564 100.9 731.069 100.521 732.165 99.7625C733.274 99.0042 733.828 97.8258 733.828 96.2275C733.828 95.2358 733.513 94.4542 732.883 93.8825C732.264 93.2992 731.489 92.8733 730.555 92.605C729.634 92.325 728.374 92.0333 726.775 91.73C724.85 91.3683 723.299 90.995 722.12 90.61C720.954 90.2133 719.956 89.5775 719.128 88.7025C718.299 87.8158 717.885 86.5908 717.885 85.0275C717.885 83.5692 718.253 82.3208 718.988 81.2825C719.723 80.2325 720.761 79.4392 722.103 78.9025C723.456 78.3542 725.049 78.08 726.88 78.08C729.727 78.08 731.973 78.6983 733.618 79.935C735.274 81.1717 736.225 83.0325 736.47 85.5175V85.5525C736.47 85.7042 736.389 85.78 736.225 85.78H733.32C733.157 85.78 733.075 85.6983 733.075 85.535C732.947 83.89 732.358 82.6592 731.308 81.8425C730.269 81.0258 728.764 80.6175 726.793 80.6175C724.996 80.6175 723.59 80.9617 722.575 81.65C721.572 82.3383 721.07 83.3708 721.07 84.7475C721.07 85.6458 721.368 86.3633 721.963 86.9C722.558 87.425 723.299 87.8158 724.185 88.0725C725.072 88.3292 726.297 88.6033 727.86 88.895C729.832 89.2567 731.424 89.6417 732.638 90.05C733.863 90.4467 734.901 91.1058 735.753 92.0275C736.616 92.9492 737.048 94.2267 737.048 95.86C737.048 97.4933 736.651 98.8758 735.858 100.007C735.064 101.139 733.956 101.991 732.533 102.562C731.109 103.134 729.453 103.42 727.563 103.42ZM758.2 90.89L758.305 102.737C758.305 102.912 758.223 103 758.06 103H755.225C755.05 103 754.962 102.912 754.962 102.737L755.05 91.4675V91.0825H742.012V91.4675L742.117 102.737C742.117 102.912 742.03 103 741.855 103H739.02C738.845 103 738.757 102.912 738.757 102.737L738.88 90.89L738.757 78.7625C738.757 78.5875 738.845 78.5 739.02 78.5H741.855C742.03 78.5 742.117 78.5875 742.117 78.7625L742.03 88.615H755.032L754.962 78.7625C754.962 78.5875 755.05 78.5 755.225 78.5H758.06C758.223 78.5 758.305 78.5875 758.305 78.7625L758.2 90.89ZM780.964 102.702C780.976 102.737 780.981 102.778 780.981 102.825C780.981 102.942 780.906 103 780.754 103H777.884C777.732 103 777.639 102.93 777.604 102.79L775.119 95.5975H765.126L762.676 102.79C762.641 102.93 762.548 103 762.396 103H759.596C759.503 103 759.439 102.977 759.404 102.93C759.369 102.872 759.363 102.796 759.386 102.702L768.014 78.71C768.049 78.57 768.142 78.5 768.294 78.5H772.144C772.284 78.5 772.383 78.57 772.441 78.71L780.964 102.702ZM774.261 92.9725L770.079 80.81L765.949 92.9725H774.261Z" fill="#211D1D"/>
<path d="M130.508 141.5C130.637 141.5 130.728 141.546 130.783 141.637C130.857 141.711 130.875 141.812 130.838 141.94L129.463 146.89V151.95C129.463 152.207 129.335 152.335 129.078 152.335H124.816C124.541 152.335 124.403 152.207 124.403 151.95V147.192C124.403 147.027 124.458 146.862 124.568 146.697L127.896 141.775C128.006 141.592 128.162 141.5 128.363 141.5H130.508ZM137.686 141.5C137.814 141.5 137.906 141.546 137.961 141.637C138.034 141.711 138.052 141.812 138.016 141.94L136.641 146.89V151.95C136.641 152.207 136.512 152.335 136.256 152.335H131.993C131.718 152.335 131.581 152.207 131.581 151.95V147.192C131.581 147.027 131.636 146.862 131.746 146.697L135.073 141.775C135.183 141.592 135.339 141.5 135.541 141.5H137.686ZM150.917 180C150.66 180 150.532 179.862 150.532 179.587L150.752 160.942L150.587 145.405H139.807C139.55 145.405 139.422 145.277 139.422 145.02V141.912C139.422 141.637 139.55 141.5 139.807 141.5H166.619C166.747 141.5 166.848 141.537 166.922 141.61C166.995 141.683 167.032 141.784 167.032 141.912V145.02C167.032 145.277 166.894 145.405 166.619 145.405H155.839L155.674 160.942L155.894 179.587C155.894 179.862 155.766 180 155.509 180H150.917ZM174.742 180.633C171.919 180.633 169.499 180.028 167.482 178.817C165.466 177.607 163.926 175.893 162.862 173.675C161.817 171.457 161.295 168.862 161.295 165.892C161.295 162.922 161.817 160.319 162.862 158.082C163.926 155.846 165.466 154.113 167.482 152.885C169.499 151.657 171.919 151.042 174.742 151.042C177.566 151.042 179.986 151.647 182.002 152.857C184.019 154.067 185.55 155.791 186.595 158.027C187.64 160.246 188.162 162.84 188.162 165.81C188.162 168.798 187.64 171.411 186.595 173.647C185.55 175.866 184.019 177.589 182.002 178.817C179.986 180.028 177.566 180.633 174.742 180.633ZM174.742 177.14C177.492 177.14 179.555 176.177 180.93 174.252C182.305 172.327 182.992 169.541 182.992 165.892C182.992 162.262 182.296 159.467 180.902 157.505C179.509 155.525 177.447 154.535 174.715 154.535C171.965 154.553 169.893 155.543 168.5 157.505C167.107 159.467 166.41 162.272 166.41 165.92C166.41 169.55 167.116 172.327 168.527 174.252C169.939 176.177 172.011 177.14 174.742 177.14ZM238.94 168.835L239.05 179.587C239.05 179.862 238.913 180 238.638 180H234.293C234.036 180 233.908 179.862 233.908 179.587L234.018 168.835V162.482C234.018 159.842 233.541 157.908 232.588 156.68C231.653 155.452 230.324 154.837 228.6 154.837C227.024 154.837 225.63 155.543 224.42 156.955C223.21 158.348 222.33 160.292 221.78 162.785C221.835 163.243 221.863 163.747 221.863 164.297V168.835L221.973 179.587C221.973 179.862 221.835 180 221.56 180H217.215C216.959 180 216.83 179.862 216.83 179.587L216.94 168.835V162.482C216.94 157.386 215.134 154.837 211.523 154.837C209.873 154.837 208.424 155.589 207.178 157.092C205.949 158.596 205.06 160.686 204.51 163.362V168.835L204.62 179.587C204.62 179.862 204.492 180 204.235 180H199.835C199.56 180 199.423 179.862 199.423 179.587L199.56 168.835L199.478 152.087C199.478 151.812 199.615 151.675 199.89 151.675H204.015C204.272 151.675 204.4 151.812 204.4 152.087L204.29 156.625C205.262 154.938 206.463 153.582 207.893 152.555C209.341 151.528 211.046 151.015 213.008 151.015C215.079 151.015 216.803 151.51 218.178 152.5C219.571 153.49 220.57 155.002 221.175 157.037C223.339 153.022 226.309 151.015 230.085 151.015C232.927 151.015 235.109 151.95 236.63 153.82C238.17 155.672 238.94 158.495 238.94 162.29V168.835ZM246.384 166.442C246.549 173.574 249.391 177.14 254.909 177.14C256.981 177.14 258.64 176.581 259.887 175.462C261.152 174.326 261.995 172.676 262.417 170.512C262.472 170.274 262.609 170.155 262.829 170.155H266.899C267.028 170.155 267.128 170.182 267.202 170.237C267.293 170.292 267.33 170.375 267.312 170.485C267.018 172.483 266.349 174.252 265.304 175.792C264.259 177.314 262.848 178.506 261.069 179.367C259.291 180.211 257.219 180.633 254.854 180.633C251.958 180.633 249.492 180.018 247.457 178.79C245.44 177.562 243.909 175.838 242.864 173.62C241.819 171.402 241.297 168.835 241.297 165.92C241.297 162.987 241.828 160.402 242.892 158.165C243.973 155.91 245.513 154.159 247.512 152.912C249.51 151.666 251.866 151.042 254.579 151.042C257.311 151.042 259.648 151.638 261.592 152.83C263.553 154.022 265.057 155.745 266.102 158C267.165 160.255 267.715 162.941 267.752 166.057C267.752 166.314 267.614 166.442 267.339 166.442H246.384ZM254.607 154.507C252.297 154.507 250.454 155.25 249.079 156.735C247.704 158.22 246.852 160.328 246.522 163.06H262.334C262.279 161.465 261.949 160.026 261.344 158.742C260.739 157.441 259.868 156.414 258.732 155.662C257.595 154.892 256.22 154.507 254.607 154.507ZM268.059 185.28C267.784 185.28 267.674 185.133 267.729 184.84L269.104 179.89V174.857C269.104 174.582 269.233 174.445 269.489 174.445H273.752C273.88 174.445 273.981 174.482 274.054 174.555C274.128 174.628 274.164 174.729 274.164 174.857V179.587C274.164 179.752 274.109 179.917 273.999 180.083L270.672 185.033C270.562 185.198 270.406 185.28 270.204 185.28H268.059ZM300.484 180.66C297.202 180.66 294.388 180.147 292.041 179.12C289.695 178.075 287.871 176.544 286.569 174.527C285.286 172.511 284.589 170.054 284.479 167.157C284.479 166.882 284.607 166.745 284.864 166.745H289.429C289.667 166.745 289.805 166.873 289.841 167.13C290.08 170.283 291.024 172.667 292.674 174.28C294.342 175.893 296.991 176.7 300.621 176.7C303.628 176.7 305.993 176.104 307.716 174.912C309.458 173.721 310.329 171.869 310.329 169.357C310.329 167.799 309.834 166.571 308.844 165.672C307.872 164.756 306.653 164.087 305.186 163.665C303.738 163.225 301.758 162.767 299.246 162.29C296.221 161.722 293.783 161.135 291.931 160.53C290.098 159.907 288.531 158.907 287.229 157.532C285.927 156.139 285.276 154.214 285.276 151.757C285.276 149.466 285.854 147.504 287.009 145.872C288.164 144.222 289.796 142.976 291.904 142.132C294.031 141.271 296.533 140.84 299.411 140.84C303.885 140.84 307.414 141.812 309.999 143.755C312.602 145.698 314.096 148.622 314.481 152.527V152.582C314.481 152.821 314.353 152.94 314.096 152.94H309.531C309.275 152.94 309.146 152.812 309.146 152.555C308.945 149.97 308.019 148.036 306.369 146.752C304.737 145.469 302.372 144.827 299.274 144.827C296.451 144.827 294.241 145.368 292.646 146.45C291.07 147.532 290.281 149.154 290.281 151.317C290.281 152.729 290.749 153.857 291.684 154.7C292.619 155.525 293.783 156.139 295.176 156.542C296.57 156.946 298.495 157.377 300.951 157.835C304.05 158.403 306.552 159.008 308.459 159.65C310.384 160.273 312.016 161.309 313.354 162.757C314.711 164.206 315.389 166.213 315.389 168.78C315.389 171.347 314.766 173.519 313.519 175.297C312.272 177.076 310.531 178.414 308.294 179.312C306.057 180.211 303.454 180.66 300.484 180.66ZM318.763 180C318.506 180 318.378 179.862 318.378 179.587L318.543 160.365L318.378 141.912C318.378 141.637 318.506 141.5 318.763 141.5H323.19C323.447 141.5 323.575 141.637 323.575 141.912L323.41 160.365L323.575 179.587C323.575 179.862 323.447 180 323.19 180H318.763ZM359.478 179.532C359.497 179.587 359.506 179.652 359.506 179.725C359.506 179.908 359.387 180 359.148 180H354.638C354.4 180 354.253 179.89 354.198 179.67L350.293 168.367H334.591L330.741 179.67C330.686 179.89 330.539 180 330.301 180H325.901C325.754 180 325.653 179.963 325.598 179.89C325.543 179.798 325.534 179.679 325.571 179.532L339.128 141.83C339.183 141.61 339.33 141.5 339.568 141.5H345.618C345.838 141.5 345.994 141.61 346.086 141.83L359.478 179.532ZM348.946 164.242L342.373 145.13L335.883 164.242H348.946ZM364.579 180C364.322 180 364.194 179.862 364.194 179.587L364.414 160.942L364.249 145.405H353.469C353.212 145.405 353.084 145.277 353.084 145.02V141.912C353.084 141.637 353.212 141.5 353.469 141.5H380.281C380.41 141.5 380.51 141.537 380.584 141.61C380.657 141.683 380.694 141.784 380.694 141.912V145.02C380.694 145.277 380.556 145.405 380.281 145.405H369.501L369.336 160.942L369.556 179.587C369.556 179.862 369.428 180 369.171 180H364.579ZM391.642 180C391.386 180 391.257 179.862 391.257 179.587L391.367 165.37L391.257 152.087C391.257 151.812 391.386 151.675 391.642 151.675H395.987C396.244 151.675 396.372 151.812 396.372 152.087L396.29 165.37L396.372 179.587C396.372 179.862 396.244 180 395.987 180H391.642ZM391.697 148.512C391.422 148.512 391.285 148.384 391.285 148.127V143.617C391.285 143.489 391.321 143.388 391.395 143.315C391.468 143.242 391.569 143.205 391.697 143.205H395.987C396.116 143.205 396.216 143.242 396.29 143.315C396.363 143.388 396.4 143.489 396.4 143.617V148.127C396.4 148.384 396.262 148.512 395.987 148.512H391.697ZM411.721 180.605C407.834 180.605 404.781 179.762 402.563 178.075C400.363 176.37 399.217 173.867 399.126 170.567C399.126 170.311 399.254 170.182 399.511 170.182H403.608C403.865 170.182 403.993 170.311 403.993 170.567C404.066 172.859 404.763 174.555 406.083 175.655C407.421 176.755 409.365 177.305 411.913 177.305C414.04 177.305 415.726 176.865 416.973 175.985C418.238 175.105 418.871 173.867 418.871 172.272C418.871 171.191 418.513 170.347 417.798 169.742C417.083 169.119 416.194 168.661 415.131 168.367C414.067 168.074 412.601 167.762 410.731 167.432C408.384 167.029 406.477 166.607 405.011 166.167C403.562 165.709 402.325 164.939 401.298 163.857C400.271 162.776 399.758 161.263 399.758 159.32C399.758 157.56 400.216 156.066 401.133 154.837C402.068 153.591 403.37 152.656 405.038 152.032C406.725 151.391 408.696 151.07 410.951 151.07C414.397 151.07 417.184 151.803 419.311 153.27C421.437 154.737 422.583 156.9 422.748 159.76V159.815C422.748 160.053 422.62 160.172 422.363 160.172H418.458C418.22 160.172 418.073 160.044 418.018 159.787C417.89 157.972 417.193 156.607 415.928 155.69C414.681 154.773 413.004 154.315 410.896 154.315C408.916 154.315 407.366 154.709 406.248 155.497C405.13 156.286 404.571 157.459 404.571 159.017C404.571 160.007 404.91 160.787 405.588 161.355C406.266 161.905 407.11 162.317 408.118 162.592C409.145 162.849 410.556 163.124 412.353 163.417C414.773 163.802 416.726 164.233 418.211 164.71C419.714 165.168 420.997 165.966 422.061 167.102C423.142 168.239 423.683 169.843 423.683 171.915C423.683 173.712 423.161 175.27 422.116 176.59C421.089 177.892 419.668 178.891 417.853 179.587C416.056 180.266 414.012 180.605 411.721 180.605ZM445.064 180.468C442.791 180.468 440.948 179.817 439.536 178.515C438.125 177.213 437.419 175.123 437.419 172.245L437.446 158.522V155.36H434.201C434.073 155.36 433.972 155.323 433.899 155.25C433.826 155.177 433.789 155.076 433.789 154.947V152.087C433.789 151.812 433.926 151.675 434.201 151.675H437.446L437.391 144.992C437.391 144.717 437.529 144.58 437.804 144.58H442.066C442.341 144.58 442.479 144.717 442.479 144.992L442.424 151.675H449.024C449.281 151.675 449.409 151.812 449.409 152.087V154.947C449.409 155.222 449.281 155.36 449.024 155.36H442.396V158.467L442.424 172.135C442.424 173.822 442.699 175.004 443.249 175.682C443.817 176.361 444.725 176.7 445.971 176.7C447.035 176.7 448.025 176.59 448.941 176.37C448.978 176.352 449.024 176.342 449.079 176.342C449.281 176.342 449.381 176.462 449.381 176.7V179.367C449.381 179.606 449.29 179.752 449.106 179.807C447.53 180.248 446.182 180.468 445.064 180.468ZM465.703 151.015C468.783 151.015 471.157 151.996 472.826 153.957C474.494 155.901 475.328 158.862 475.328 162.84L475.301 168.505L475.411 179.587C475.411 179.862 475.282 180 475.026 180H470.681C470.406 180 470.268 179.862 470.268 179.587L470.378 168.56V162.482C470.378 159.861 469.846 157.927 468.783 156.68C467.72 155.415 466.281 154.782 464.466 154.782C462.706 154.782 461.129 155.424 459.736 156.707C458.342 157.972 457.261 159.742 456.491 162.015L456.628 179.587C456.628 179.862 456.5 180 456.243 180H452.008C451.733 180 451.596 179.862 451.596 179.587L451.761 160.447L451.596 141.885C451.596 141.628 451.733 141.5 452.008 141.5H456.243C456.5 141.5 456.628 141.628 456.628 141.885L456.518 156.405C457.471 154.792 458.718 153.49 460.258 152.5C461.816 151.51 463.631 151.015 465.703 151.015ZM482.766 166.442C482.931 173.574 485.773 177.14 491.291 177.14C493.363 177.14 495.022 176.581 496.269 175.462C497.534 174.326 498.377 172.676 498.799 170.512C498.854 170.274 498.991 170.155 499.211 170.155H503.281C503.409 170.155 503.51 170.182 503.584 170.237C503.675 170.292 503.712 170.375 503.694 170.485C503.4 172.483 502.731 174.252 501.686 175.792C500.641 177.314 499.229 178.506 497.451 179.367C495.673 180.211 493.601 180.633 491.236 180.633C488.339 180.633 485.874 180.018 483.839 178.79C481.822 177.562 480.291 175.838 479.246 173.62C478.201 171.402 477.679 168.835 477.679 165.92C477.679 162.987 478.21 160.402 479.274 158.165C480.355 155.91 481.895 154.159 483.894 152.912C485.892 151.666 488.248 151.042 490.961 151.042C493.693 151.042 496.03 151.638 497.974 152.83C499.935 154.022 501.439 155.745 502.484 158C503.547 160.255 504.097 162.941 504.134 166.057C504.134 166.314 503.996 166.442 503.721 166.442H482.766ZM490.989 154.507C488.679 154.507 486.836 155.25 485.461 156.735C484.086 158.22 483.234 160.328 482.904 163.06H498.716C498.661 161.465 498.331 160.026 497.726 158.742C497.121 157.441 496.25 156.414 495.114 155.662C493.977 154.892 492.602 154.507 490.989 154.507ZM527.323 180.633C524.518 180.633 522.117 180.037 520.118 178.845C518.138 177.635 516.626 175.921 515.581 173.702C514.554 171.484 514.041 168.89 514.041 165.92C514.041 162.932 514.554 160.319 515.581 158.082C516.626 155.846 518.157 154.113 520.173 152.885C522.19 151.657 524.61 151.042 527.433 151.042C529.725 151.042 531.732 151.455 533.456 152.28C535.179 153.105 536.536 154.278 537.526 155.8C538.534 157.303 539.139 159.054 539.341 161.052V161.162C539.341 161.364 539.222 161.465 538.983 161.465H535.106C534.867 161.465 534.721 161.337 534.666 161.08C534.317 158.972 533.511 157.358 532.246 156.24C530.999 155.122 529.395 154.562 527.433 154.562C524.683 154.581 522.621 155.571 521.246 157.532C519.889 159.476 519.211 162.262 519.211 165.892C519.211 169.577 519.889 172.373 521.246 174.28C522.621 176.187 524.692 177.14 527.461 177.14C529.624 177.14 531.366 176.489 532.686 175.187C534.006 173.886 534.767 172.08 534.968 169.77C535.005 169.513 535.142 169.385 535.381 169.385H539.341C539.469 169.385 539.57 169.422 539.643 169.495C539.717 169.55 539.744 169.632 539.726 169.742C539.542 171.869 538.928 173.757 537.883 175.407C536.838 177.039 535.408 178.322 533.593 179.257C531.797 180.174 529.707 180.633 527.323 180.633ZM556.099 151.015C559.179 151.015 561.553 151.996 563.221 153.957C564.889 155.901 565.724 158.862 565.724 162.84L565.696 168.505L565.806 179.587C565.806 179.862 565.678 180 565.421 180H561.076C560.801 180 560.664 179.862 560.664 179.587L560.774 168.56V162.482C560.774 159.861 560.242 157.927 559.179 156.68C558.115 155.415 556.676 154.782 554.861 154.782C553.101 154.782 551.524 155.424 550.131 156.707C548.738 157.972 547.656 159.742 546.886 162.015L547.024 179.587C547.024 179.862 546.895 180 546.639 180H542.404C542.129 180 541.991 179.862 541.991 179.587L542.156 160.447L541.991 141.885C541.991 141.628 542.129 141.5 542.404 141.5H546.639C546.895 141.5 547.024 141.628 547.024 141.885L546.914 156.405C547.867 154.792 549.114 153.49 550.654 152.5C552.212 151.51 554.027 151.015 556.099 151.015ZM593.649 165.535L593.787 179.587C593.787 179.862 593.649 180 593.374 180H589.139C588.882 180 588.754 179.862 588.754 179.587L588.864 175.187C587.911 176.874 586.664 178.185 585.124 179.12C583.602 180.055 581.824 180.523 579.789 180.523C577.314 180.523 575.197 179.89 573.437 178.625C571.677 177.342 570.338 175.6 569.422 173.4C568.523 171.182 568.074 168.679 568.074 165.892C568.074 163.142 568.542 160.649 569.477 158.412C570.412 156.157 571.768 154.379 573.547 153.077C575.343 151.776 577.452 151.125 579.872 151.125C581.888 151.125 583.648 151.565 585.152 152.445C586.673 153.325 587.902 154.608 588.837 156.295L588.727 152.087C588.727 151.812 588.855 151.675 589.112 151.675H593.374C593.649 151.675 593.787 151.812 593.787 152.087L593.649 165.535ZM581.027 177.03C583.52 177.03 585.463 176.095 586.857 174.225C588.268 172.337 588.974 169.559 588.974 165.892C588.974 162.299 588.277 159.522 586.884 157.56C585.509 155.598 583.575 154.617 581.082 154.617C578.478 154.617 576.507 155.607 575.169 157.587C573.849 159.549 573.189 162.198 573.189 165.535C573.189 169.055 573.849 171.851 575.169 173.922C576.507 175.994 578.46 177.03 581.027 177.03ZM620.993 167.9L621.103 179.587C621.103 179.862 620.966 180 620.691 180H616.373C616.117 180 615.988 179.862 615.988 179.587L616.071 167.9V162.482C616.071 159.916 615.539 158 614.476 156.735C613.413 155.47 611.955 154.837 610.103 154.837C608.215 154.837 606.574 155.58 605.181 157.065C603.806 158.55 602.853 160.649 602.321 163.362V167.9L602.403 179.587C602.403 179.862 602.266 180 601.991 180H597.618C597.362 180 597.233 179.862 597.233 179.587L597.371 167.13L597.288 152.087C597.288 151.812 597.417 151.675 597.673 151.675H601.798C602.055 151.675 602.183 151.812 602.183 152.087L602.073 156.625C603.045 155.012 604.328 153.673 605.923 152.61C607.537 151.547 609.388 151.015 611.478 151.015C614.467 151.015 616.795 151.977 618.463 153.902C620.15 155.827 620.993 158.623 620.993 162.29V167.9ZM636.625 180.633C633.82 180.633 631.418 180.037 629.42 178.845C627.44 177.635 625.928 175.921 624.883 173.702C623.856 171.484 623.343 168.89 623.343 165.92C623.343 162.932 623.856 160.319 624.883 158.082C625.928 155.846 627.458 154.113 629.475 152.885C631.492 151.657 633.912 151.042 636.735 151.042C639.027 151.042 641.034 151.455 642.758 152.28C644.481 153.105 645.838 154.278 646.828 155.8C647.836 157.303 648.441 159.054 648.643 161.052V161.162C648.643 161.364 648.523 161.465 648.285 161.465H644.408C644.169 161.465 644.023 161.337 643.968 161.08C643.619 158.972 642.813 157.358 641.548 156.24C640.301 155.122 638.697 154.562 636.735 154.562C633.985 154.581 631.923 155.571 630.548 157.532C629.191 159.476 628.513 162.262 628.513 165.892C628.513 169.577 629.191 172.373 630.548 174.28C631.923 176.187 633.994 177.14 636.763 177.14C638.926 177.14 640.668 176.489 641.988 175.187C643.308 173.886 644.068 172.08 644.27 169.77C644.307 169.513 644.444 169.385 644.683 169.385H648.643C648.771 169.385 648.872 169.422 648.945 169.495C649.018 169.55 649.046 169.632 649.028 169.742C648.844 171.869 648.23 173.757 647.185 175.407C646.14 177.039 644.71 178.322 642.895 179.257C641.098 180.174 639.008 180.633 636.625 180.633ZM655.5 166.442C655.665 173.574 658.507 177.14 664.025 177.14C666.097 177.14 667.756 176.581 669.003 175.462C670.268 174.326 671.111 172.676 671.533 170.512C671.588 170.274 671.725 170.155 671.945 170.155H676.015C676.144 170.155 676.245 170.182 676.318 170.237C676.41 170.292 676.446 170.375 676.428 170.485C676.135 172.483 675.465 174.252 674.42 175.792C673.375 177.314 671.964 178.506 670.185 179.367C668.407 180.211 666.335 180.633 663.97 180.633C661.074 180.633 658.608 180.018 656.573 178.79C654.556 177.562 653.025 175.838 651.98 173.62C650.935 171.402 650.413 168.835 650.413 165.92C650.413 162.987 650.945 160.402 652.008 158.165C653.09 155.91 654.63 154.159 656.628 152.912C658.626 151.666 660.982 151.042 663.695 151.042C666.427 151.042 668.765 151.638 670.708 152.83C672.67 154.022 674.173 155.745 675.218 158C676.281 160.255 676.831 162.941 676.868 166.057C676.868 166.314 676.73 166.442 676.455 166.442H655.5ZM663.723 154.507C661.413 154.507 659.57 155.25 658.195 156.735C656.82 158.22 655.968 160.328 655.638 163.06H671.45C671.395 161.465 671.065 160.026 670.46 158.742C669.855 157.441 668.985 156.414 667.848 155.662C666.711 154.892 665.336 154.507 663.723 154.507ZM697.881 180.468C695.608 180.468 693.765 179.817 692.354 178.515C690.942 177.213 690.236 175.123 690.236 172.245L690.264 158.522V155.36H687.019C686.89 155.36 686.79 155.323 686.716 155.25C686.643 155.177 686.606 155.076 686.606 154.947V152.087C686.606 151.812 686.744 151.675 687.019 151.675H690.264L690.209 144.992C690.209 144.717 690.346 144.58 690.621 144.58H694.884C695.159 144.58 695.296 144.717 695.296 144.992L695.241 151.675H701.841C702.098 151.675 702.226 151.812 702.226 152.087V154.947C702.226 155.222 702.098 155.36 701.841 155.36H695.214V158.467L695.241 172.135C695.241 173.822 695.516 175.004 696.066 175.682C696.635 176.361 697.542 176.7 698.789 176.7C699.852 176.7 700.842 176.59 701.759 176.37C701.795 176.352 701.841 176.342 701.896 176.342C702.098 176.342 702.199 176.462 702.199 176.7V179.367C702.199 179.606 702.107 179.752 701.924 179.807C700.347 180.248 699 180.468 697.881 180.468ZM715.45 180.633C712.627 180.633 710.207 180.028 708.19 178.817C706.174 177.607 704.634 175.893 703.57 173.675C702.525 171.457 702.003 168.862 702.003 165.892C702.003 162.922 702.525 160.319 703.57 158.082C704.634 155.846 706.174 154.113 708.19 152.885C710.207 151.657 712.627 151.042 715.45 151.042C718.274 151.042 720.694 151.647 722.71 152.857C724.727 154.067 726.258 155.791 727.303 158.027C728.348 160.246 728.87 162.84 728.87 165.81C728.87 168.798 728.348 171.411 727.303 173.647C726.258 175.866 724.727 177.589 722.71 178.817C720.694 180.028 718.274 180.633 715.45 180.633ZM715.45 177.14C718.2 177.14 720.263 176.177 721.638 174.252C723.013 172.327 723.7 169.541 723.7 165.892C723.7 162.262 723.004 159.467 721.61 157.505C720.217 155.525 718.155 154.535 715.423 154.535C712.673 154.553 710.601 155.543 709.208 157.505C707.815 159.467 707.118 162.272 707.118 165.92C707.118 169.55 707.824 172.327 709.235 174.252C710.647 176.177 712.719 177.14 715.45 177.14ZM743.909 166.442C744.074 173.574 746.915 177.14 752.434 177.14C754.505 177.14 756.164 176.581 757.411 175.462C758.676 174.326 759.519 172.676 759.941 170.512C759.996 170.274 760.134 170.155 760.354 170.155H764.424C764.552 170.155 764.653 170.182 764.726 170.237C764.818 170.292 764.854 170.375 764.836 170.485C764.543 172.483 763.874 174.252 762.829 175.792C761.784 177.314 760.372 178.506 758.594 179.367C756.815 180.211 754.744 180.633 752.379 180.633C749.482 180.633 747.016 180.018 744.981 178.79C742.964 177.562 741.434 175.838 740.389 173.62C739.344 171.402 738.821 168.835 738.821 165.92C738.821 162.987 739.353 160.402 740.416 158.165C741.498 155.91 743.038 154.159 745.036 152.912C747.034 151.666 749.39 151.042 752.104 151.042C754.835 151.042 757.173 151.638 759.116 152.83C761.078 154.022 762.581 155.745 763.626 158C764.689 160.255 765.239 162.941 765.276 166.057C765.276 166.314 765.139 166.442 764.864 166.442H743.909ZM752.131 154.507C749.821 154.507 747.979 155.25 746.604 156.735C745.229 158.22 744.376 160.328 744.046 163.06H759.859C759.804 161.465 759.474 160.026 758.869 158.742C758.264 157.441 757.393 156.414 756.256 155.662C755.119 154.892 753.744 154.507 752.131 154.507ZM763.654 180C763.416 180 763.297 179.908 763.297 179.725C763.297 179.652 763.324 179.578 763.379 179.505L772.564 164.985L764.122 152.17C764.067 152.078 764.039 151.996 764.039 151.922C764.039 151.757 764.158 151.675 764.397 151.675H769.209C769.411 151.675 769.567 151.767 769.677 151.95L776.112 162.29L782.327 151.95C782.437 151.767 782.592 151.675 782.794 151.675H787.029C787.249 151.675 787.359 151.757 787.359 151.922C787.359 151.996 787.332 152.078 787.277 152.17L779.054 165.205L788.212 179.505C788.267 179.578 788.294 179.661 788.294 179.752C788.294 179.917 788.184 180 787.964 180H783.124C782.886 180 782.73 179.908 782.657 179.725L775.562 168.257L768.467 179.725C768.393 179.908 768.237 180 767.999 180H763.654ZM804.052 151.098C806.545 151.098 808.672 151.739 810.432 153.022C812.192 154.287 813.521 156.029 814.419 158.247C815.336 160.466 815.794 162.968 815.794 165.755C815.794 168.505 815.318 171.007 814.364 173.262C813.429 175.499 812.064 177.277 810.267 178.597C808.489 179.899 806.389 180.55 803.969 180.55C801.989 180.55 800.248 180.128 798.744 179.285C797.259 178.423 796.059 177.167 795.142 175.517L795.224 188.938C795.224 189.213 795.096 189.35 794.839 189.35H790.494C790.219 189.35 790.082 189.213 790.082 188.938L790.219 167.57L790.082 152.087C790.082 151.812 790.219 151.675 790.494 151.675H794.757C795.014 151.675 795.142 151.812 795.142 152.087L795.032 156.487C795.985 154.782 797.223 153.462 798.744 152.527C800.284 151.574 802.054 151.098 804.052 151.098ZM802.677 177.03C805.317 177.03 807.306 176.049 808.644 174.087C810.001 172.107 810.679 169.449 810.679 166.113C810.679 162.592 810.01 159.806 808.672 157.752C807.352 155.681 805.39 154.645 802.787 154.645C800.312 154.645 798.378 155.598 796.984 157.505C795.591 159.393 794.894 162.152 794.894 165.782C794.894 169.357 795.573 172.126 796.929 174.087C798.286 176.049 800.202 177.03 802.677 177.03ZM819.021 180C818.746 180 818.609 179.862 818.609 179.587L818.774 160.502L818.609 141.912C818.609 141.637 818.746 141.5 819.021 141.5H823.256C823.513 141.5 823.641 141.637 823.641 141.912L823.476 160.447L823.641 179.587C823.641 179.862 823.513 180 823.256 180H819.021ZM839.899 180.633C837.075 180.633 834.655 180.028 832.639 178.817C830.622 177.607 829.082 175.893 828.019 173.675C826.974 171.457 826.451 168.862 826.451 165.892C826.451 162.922 826.974 160.319 828.019 158.082C829.082 155.846 830.622 154.113 832.639 152.885C834.655 151.657 837.075 151.042 839.899 151.042C842.722 151.042 845.142 151.647 847.159 152.857C849.175 154.067 850.706 155.791 851.751 158.027C852.796 160.246 853.319 162.84 853.319 165.81C853.319 168.798 852.796 171.411 851.751 173.647C850.706 175.866 849.175 177.589 847.159 178.817C845.142 180.028 842.722 180.633 839.899 180.633ZM839.899 177.14C842.649 177.14 844.711 176.177 846.086 174.252C847.461 172.327 848.149 169.541 848.149 165.892C848.149 162.262 847.452 159.467 846.059 157.505C844.665 155.525 842.603 154.535 839.871 154.535C837.121 154.553 835.049 155.543 833.656 157.505C832.263 159.467 831.566 162.272 831.566 165.92C831.566 169.55 832.272 172.327 833.684 174.252C835.095 176.177 837.167 177.14 839.899 177.14ZM856.29 180C856.015 180 855.878 179.862 855.878 179.587L856.043 165.535L855.878 152.087C855.878 151.812 856.015 151.675 856.29 151.675H860.525C860.782 151.675 860.91 151.812 860.91 152.087L860.745 156.927C861.735 155.167 863.083 153.811 864.788 152.857C866.493 151.886 868.354 151.4 870.37 151.4C871.049 151.4 871.635 151.464 872.13 151.593C872.369 151.647 872.488 151.794 872.488 152.032V155.085C872.488 155.213 872.442 155.314 872.35 155.387C872.277 155.442 872.176 155.461 872.048 155.442C871.663 155.351 871.122 155.305 870.425 155.305C868.757 155.305 867.226 155.644 865.833 156.322C864.458 157.001 863.33 158.037 862.45 159.43C861.57 160.823 861.048 162.528 860.883 164.545L860.938 179.587C860.938 179.862 860.81 180 860.553 180H856.29ZM876.413 166.442C876.578 173.574 879.42 177.14 884.938 177.14C887.01 177.14 888.669 176.581 889.916 175.462C891.181 174.326 892.024 172.676 892.446 170.512C892.501 170.274 892.638 170.155 892.858 170.155H896.928C897.057 170.155 897.158 170.182 897.231 170.237C897.323 170.292 897.359 170.375 897.341 170.485C897.048 172.483 896.378 174.252 895.333 175.792C894.288 177.314 892.877 178.506 891.098 179.367C889.32 180.211 887.248 180.633 884.883 180.633C881.987 180.633 879.521 180.018 877.486 178.79C875.469 177.562 873.938 175.838 872.893 173.62C871.848 171.402 871.326 168.835 871.326 165.92C871.326 162.987 871.858 160.402 872.921 158.165C874.003 155.91 875.543 154.159 877.541 152.912C879.539 151.666 881.895 151.042 884.608 151.042C887.34 151.042 889.678 151.638 891.621 152.83C893.583 154.022 895.086 155.745 896.131 158C897.194 160.255 897.744 162.941 897.781 166.057C897.781 166.314 897.643 166.442 897.368 166.442H876.413ZM884.636 154.507C882.326 154.507 880.483 155.25 879.108 156.735C877.733 158.22 876.881 160.328 876.551 163.06H892.363C892.308 161.465 891.978 160.026 891.373 158.742C890.768 157.441 889.898 156.414 888.761 155.662C887.624 154.892 886.249 154.507 884.636 154.507ZM933.263 165.535L933.401 179.587C933.401 179.862 933.263 180 932.988 180H928.753C928.497 180 928.368 179.862 928.368 179.587L928.478 175.187C927.525 176.874 926.278 178.185 924.738 179.12C923.217 180.055 921.438 180.523 919.403 180.523C916.928 180.523 914.811 179.89 913.051 178.625C911.291 177.342 909.952 175.6 909.036 173.4C908.137 171.182 907.688 168.679 907.688 165.892C907.688 163.142 908.156 160.649 909.091 158.412C910.026 156.157 911.382 154.379 913.161 153.077C914.957 151.776 917.066 151.125 919.486 151.125C921.502 151.125 923.262 151.565 924.766 152.445C926.287 153.325 927.516 154.608 928.451 156.295L928.341 152.087C928.341 151.812 928.469 151.675 928.726 151.675H932.988C933.263 151.675 933.401 151.812 933.401 152.087L933.263 165.535ZM920.641 177.03C923.134 177.03 925.077 176.095 926.471 174.225C927.882 172.337 928.588 169.559 928.588 165.892C928.588 162.299 927.892 159.522 926.498 157.56C925.123 155.598 923.189 154.617 920.696 154.617C918.092 154.617 916.122 155.607 914.783 157.587C913.463 159.549 912.803 162.198 912.803 165.535C912.803 169.055 913.463 171.851 914.783 173.922C916.122 175.994 918.074 177.03 920.641 177.03ZM943.461 152.142C943.443 152.106 943.434 152.051 943.434 151.977C943.434 151.776 943.553 151.675 943.791 151.675H948.439C948.641 151.675 948.787 151.785 948.879 152.005L956.909 175.655L965.131 152.005C965.186 151.785 965.333 151.675 965.571 151.675H969.614C969.761 151.675 969.861 151.721 969.916 151.812C969.971 151.886 969.971 151.996 969.916 152.142L959.879 179.725C959.806 179.945 959.65 180.055 959.411 180.055H954.076C953.875 180.055 953.728 179.945 953.636 179.725L943.461 152.142ZM994.655 165.535L994.792 179.587C994.792 179.862 994.655 180 994.38 180H990.145C989.888 180 989.76 179.862 989.76 179.587L989.87 175.187C988.917 176.874 987.67 178.185 986.13 179.12C984.608 180.055 982.83 180.523 980.795 180.523C978.32 180.523 976.202 179.89 974.442 178.625C972.682 177.342 971.344 175.6 970.427 173.4C969.529 171.182 969.08 168.679 969.08 165.892C969.08 163.142 969.547 160.649 970.482 158.412C971.417 156.157 972.774 154.379 974.552 153.077C976.349 151.776 978.457 151.125 980.877 151.125C982.894 151.125 984.654 151.565 986.157 152.445C987.679 153.325 988.907 154.608 989.842 156.295L989.732 152.087C989.732 151.812 989.861 151.675 990.117 151.675H994.38C994.655 151.675 994.792 151.812 994.792 152.087L994.655 165.535ZM982.032 177.03C984.526 177.03 986.469 176.095 987.862 174.225C989.274 172.337 989.98 169.559 989.98 165.892C989.98 162.299 989.283 159.522 987.89 157.56C986.515 155.598 984.581 154.617 982.087 154.617C979.484 154.617 977.513 155.607 976.175 157.587C974.855 159.549 974.195 162.198 974.195 165.535C974.195 169.055 974.855 171.851 976.175 173.922C977.513 175.994 979.466 177.03 982.032 177.03ZM998.624 180C998.349 180 998.212 179.862 998.212 179.587L998.377 165.535L998.212 152.087C998.212 151.812 998.349 151.675 998.624 151.675H1002.86C1003.12 151.675 1003.24 151.812 1003.24 152.087L1003.08 156.927C1004.07 155.167 1005.42 153.811 1007.12 152.857C1008.83 151.886 1010.69 151.4 1012.7 151.4C1013.38 151.4 1013.97 151.464 1014.46 151.593C1014.7 151.647 1014.82 151.794 1014.82 152.032V155.085C1014.82 155.213 1014.78 155.314 1014.68 155.387C1014.61 155.442 1014.51 155.461 1014.38 155.442C1014 155.351 1013.46 155.305 1012.76 155.305C1011.09 155.305 1009.56 155.644 1008.17 156.322C1006.79 157.001 1005.66 158.037 1004.78 159.43C1003.9 160.823 1003.38 162.528 1003.22 164.545L1003.27 179.587C1003.27 179.862 1003.14 180 1002.89 180H998.624ZM1017.37 180C1017.12 180 1016.99 179.862 1016.99 179.587L1017.1 165.37L1016.99 152.087C1016.99 151.812 1017.12 151.675 1017.37 151.675H1021.72C1021.98 151.675 1022.1 151.812 1022.1 152.087L1022.02 165.37L1022.1 179.587C1022.1 179.862 1021.98 180 1021.72 180H1017.37ZM1017.43 148.512C1017.15 148.512 1017.02 148.384 1017.02 148.127V143.617C1017.02 143.489 1017.05 143.388 1017.13 143.315C1017.2 143.242 1017.3 143.205 1017.43 143.205H1021.72C1021.85 143.205 1021.95 143.242 1022.02 143.315C1022.1 143.388 1022.13 143.489 1022.13 143.617V148.127C1022.13 148.384 1021.99 148.512 1021.72 148.512H1017.43ZM1029.97 166.442C1030.14 173.574 1032.98 177.14 1038.5 177.14C1040.57 177.14 1042.23 176.581 1043.48 175.462C1044.74 174.326 1045.58 172.676 1046.01 170.512C1046.06 170.274 1046.2 170.155 1046.42 170.155H1050.49C1050.62 170.155 1050.72 170.182 1050.79 170.237C1050.88 170.292 1050.92 170.375 1050.9 170.485C1050.61 172.483 1049.94 174.252 1048.89 175.792C1047.85 177.314 1046.44 178.506 1044.66 179.367C1042.88 180.211 1040.81 180.633 1038.44 180.633C1035.55 180.633 1033.08 180.018 1031.05 178.79C1029.03 177.562 1027.5 175.838 1026.45 173.62C1025.41 171.402 1024.89 168.835 1024.89 165.92C1024.89 162.987 1025.42 160.402 1026.48 158.165C1027.56 155.91 1029.1 154.159 1031.1 152.912C1033.1 151.666 1035.45 151.042 1038.17 151.042C1040.9 151.042 1043.24 151.638 1045.18 152.83C1047.14 154.022 1048.65 155.745 1049.69 158C1050.75 160.255 1051.3 162.941 1051.34 166.057C1051.34 166.314 1051.2 166.442 1050.93 166.442H1029.97ZM1038.2 154.507C1035.89 154.507 1034.04 155.25 1032.67 156.735C1031.29 158.22 1030.44 160.328 1030.11 163.06H1045.92C1045.87 161.465 1045.54 160.026 1044.93 158.742C1044.33 157.441 1043.46 156.414 1042.32 155.662C1041.18 154.892 1039.81 154.507 1038.2 154.507ZM1063.01 180.468C1060.73 180.468 1058.89 179.817 1057.48 178.515C1056.07 177.213 1055.36 175.123 1055.36 172.245L1055.39 158.522V155.36H1052.15C1052.02 155.36 1051.92 155.323 1051.84 155.25C1051.77 155.177 1051.73 155.076 1051.73 154.947V152.087C1051.73 151.812 1051.87 151.675 1052.15 151.675H1055.39L1055.34 144.992C1055.34 144.717 1055.47 144.58 1055.75 144.58H1060.01C1060.29 144.58 1060.42 144.717 1060.42 144.992L1060.37 151.675H1066.97C1067.22 151.675 1067.35 151.812 1067.35 152.087V154.947C1067.35 155.222 1067.22 155.36 1066.97 155.36H1060.34V158.467L1060.37 172.135C1060.37 173.822 1060.64 175.004 1061.19 175.682C1061.76 176.361 1062.67 176.7 1063.92 176.7C1064.98 176.7 1065.97 176.59 1066.89 176.37C1066.92 176.352 1066.97 176.342 1067.02 176.342C1067.22 176.342 1067.33 176.462 1067.33 176.7V179.367C1067.33 179.606 1067.23 179.752 1067.05 179.807C1065.47 180.248 1064.13 180.468 1063.01 180.468ZM1088.67 152.005C1088.72 151.785 1088.87 151.675 1089.11 151.675H1093.48C1093.62 151.675 1093.73 151.721 1093.78 151.812C1093.84 151.886 1093.84 151.996 1093.81 152.142L1080.97 189.02C1080.91 189.24 1080.76 189.35 1080.53 189.35H1076.57C1076.42 189.35 1076.32 189.304 1076.26 189.213C1076.21 189.139 1076.2 189.029 1076.24 188.883L1079.34 180.083L1068.18 152.142C1068.16 152.106 1068.15 152.051 1068.15 151.977C1068.15 151.776 1068.27 151.675 1068.51 151.675H1073.32C1073.56 151.675 1073.71 151.785 1073.79 152.005L1081.82 173.537L1088.67 152.005ZM1116.03 180.633C1113.2 180.633 1110.78 180.028 1108.77 178.817C1106.75 177.607 1105.21 175.893 1104.15 173.675C1103.1 171.457 1102.58 168.862 1102.58 165.892C1102.58 162.922 1103.1 160.319 1104.15 158.082C1105.21 155.846 1106.75 154.113 1108.77 152.885C1110.78 151.657 1113.2 151.042 1116.03 151.042C1118.85 151.042 1121.27 151.647 1123.29 152.857C1125.3 154.067 1126.83 155.791 1127.88 158.027C1128.92 160.246 1129.45 162.84 1129.45 165.81C1129.45 168.798 1128.92 171.411 1127.88 173.647C1126.83 175.866 1125.3 177.589 1123.29 178.817C1121.27 180.028 1118.85 180.633 1116.03 180.633ZM1116.03 177.14C1118.78 177.14 1120.84 176.177 1122.21 174.252C1123.59 172.327 1124.28 169.541 1124.28 165.892C1124.28 162.262 1123.58 159.467 1122.19 157.505C1120.79 155.525 1118.73 154.535 1116 154.535C1113.25 154.553 1111.18 155.543 1109.78 157.505C1108.39 159.467 1107.69 162.272 1107.69 165.92C1107.69 169.55 1108.4 172.327 1109.81 174.252C1111.22 176.177 1113.29 177.14 1116.03 177.14ZM1133.99 180C1133.72 180 1133.58 179.862 1133.58 179.587L1133.75 167.212V155.332H1129.68C1129.42 155.332 1129.29 155.204 1129.29 154.947V152.087C1129.29 151.812 1129.42 151.675 1129.68 151.675H1133.75V149.117C1133.75 147.174 1134.1 145.579 1134.79 144.332C1135.51 143.086 1136.42 142.187 1137.54 141.637C1138.68 141.069 1139.9 140.776 1141.2 140.757C1142.54 140.757 1143.81 140.904 1145.02 141.197C1145.26 141.252 1145.38 141.399 1145.38 141.637V144.387C1145.38 144.534 1145.33 144.635 1145.24 144.69C1145.17 144.745 1145.07 144.754 1144.94 144.717C1144.19 144.534 1143.31 144.442 1142.3 144.442C1139.88 144.442 1138.67 146.129 1138.67 149.502V151.675H1144.94C1145.07 151.675 1145.17 151.712 1145.24 151.785C1145.32 151.858 1145.35 151.959 1145.35 152.087V154.947C1145.35 155.204 1145.21 155.332 1144.94 155.332H1138.67V167.212L1138.81 179.587C1138.81 179.862 1138.68 180 1138.42 180H1133.99ZM1180.79 158.467L1180.9 179.587C1180.9 179.862 1180.76 180 1180.49 180H1176.23C1175.97 180 1175.84 179.862 1175.84 179.587L1175.95 175.215C1175.02 176.92 1173.78 178.24 1172.24 179.175C1170.72 180.092 1168.94 180.55 1166.9 180.55C1164.43 180.55 1162.31 179.918 1160.55 178.652C1158.79 177.369 1157.45 175.618 1156.54 173.4C1155.64 171.182 1155.19 168.679 1155.19 165.892C1155.19 163.142 1155.66 160.649 1156.59 158.412C1157.54 156.157 1158.91 154.379 1160.69 153.077C1162.47 151.757 1164.57 151.098 1166.99 151.098C1168.98 151.098 1170.73 151.519 1172.24 152.363C1173.74 153.206 1174.95 154.452 1175.87 156.102L1175.81 141.912C1175.81 141.637 1175.94 141.5 1176.2 141.5H1180.49C1180.76 141.5 1180.9 141.637 1180.9 141.912L1180.79 158.467ZM1168.14 177.085C1170.63 177.085 1172.58 176.141 1173.97 174.252C1175.38 172.364 1176.09 169.577 1176.09 165.892C1176.09 163.491 1175.78 161.447 1175.15 159.76C1174.53 158.055 1173.62 156.762 1172.43 155.882C1171.26 154.984 1169.85 154.535 1168.2 154.535C1165.59 154.535 1163.62 155.534 1162.28 157.532C1160.96 159.512 1160.3 162.189 1160.3 165.562C1160.3 169.082 1160.96 171.887 1162.28 173.977C1163.6 176.049 1165.56 177.085 1168.14 177.085ZM1188.53 166.442C1188.69 173.574 1191.53 177.14 1197.05 177.14C1199.12 177.14 1200.78 176.581 1202.03 175.462C1203.3 174.326 1204.14 172.676 1204.56 170.512C1204.62 170.274 1204.75 170.155 1204.97 170.155H1209.04C1209.17 170.155 1209.27 170.182 1209.35 170.237C1209.44 170.292 1209.47 170.375 1209.46 170.485C1209.16 172.483 1208.49 174.252 1207.45 175.792C1206.4 177.314 1204.99 178.506 1203.21 179.367C1201.43 180.211 1199.36 180.633 1197 180.633C1194.1 180.633 1191.64 180.018 1189.6 178.79C1187.58 177.562 1186.05 175.838 1185.01 173.62C1183.96 171.402 1183.44 168.835 1183.44 165.92C1183.44 162.987 1183.97 160.402 1185.04 158.165C1186.12 155.91 1187.66 154.159 1189.66 152.912C1191.65 151.666 1194.01 151.042 1196.72 151.042C1199.45 151.042 1201.79 151.638 1203.74 152.83C1205.7 154.022 1207.2 155.745 1208.25 158C1209.31 160.255 1209.86 162.941 1209.9 166.057C1209.9 166.314 1209.76 166.442 1209.48 166.442H1188.53ZM1196.75 154.507C1194.44 154.507 1192.6 155.25 1191.22 156.735C1189.85 158.22 1189 160.328 1188.67 163.06H1204.48C1204.42 161.465 1204.09 160.026 1203.49 158.742C1202.88 157.441 1202.01 156.414 1200.88 155.662C1199.74 154.892 1198.36 154.507 1196.75 154.507ZM1223.83 180.605C1219.94 180.605 1216.89 179.762 1214.67 178.075C1212.47 176.37 1211.33 173.867 1211.24 170.567C1211.24 170.311 1211.36 170.182 1211.62 170.182H1215.72C1215.97 170.182 1216.1 170.311 1216.1 170.567C1216.18 172.859 1216.87 174.555 1218.19 175.655C1219.53 176.755 1221.47 177.305 1224.02 177.305C1226.15 177.305 1227.84 176.865 1229.08 175.985C1230.35 175.105 1230.98 173.867 1230.98 172.272C1230.98 171.191 1230.62 170.347 1229.91 169.742C1229.19 169.119 1228.3 168.661 1227.24 168.367C1226.18 168.074 1224.71 167.762 1222.84 167.432C1220.49 167.029 1218.59 166.607 1217.12 166.167C1215.67 165.709 1214.43 164.939 1213.41 163.857C1212.38 162.776 1211.87 161.263 1211.87 159.32C1211.87 157.56 1212.33 156.066 1213.24 154.837C1214.18 153.591 1215.48 152.656 1217.15 152.032C1218.83 151.391 1220.81 151.07 1223.06 151.07C1226.51 151.07 1229.29 151.803 1231.42 153.27C1233.55 154.737 1234.69 156.9 1234.86 159.76V159.815C1234.86 160.053 1234.73 160.172 1234.47 160.172H1230.57C1230.33 160.172 1230.18 160.044 1230.13 159.787C1230 157.972 1229.3 156.607 1228.04 155.69C1226.79 154.773 1225.11 154.315 1223.01 154.315C1221.03 154.315 1219.48 154.709 1218.36 155.497C1217.24 156.286 1216.68 157.459 1216.68 159.017C1216.68 160.007 1217.02 160.787 1217.7 161.355C1218.38 161.905 1219.22 162.317 1220.23 162.592C1221.25 162.849 1222.67 163.124 1224.46 163.417C1226.88 163.802 1228.84 164.233 1230.32 164.71C1231.82 165.168 1233.11 165.966 1234.17 167.102C1235.25 168.239 1235.79 169.843 1235.79 171.915C1235.79 173.712 1235.27 175.27 1234.23 176.59C1233.2 177.892 1231.78 178.891 1229.96 179.587C1228.17 180.266 1226.12 180.605 1223.83 180.605ZM1238.88 180C1238.62 180 1238.49 179.862 1238.49 179.587L1238.6 165.37L1238.49 152.087C1238.49 151.812 1238.62 151.675 1238.88 151.675H1243.22C1243.48 151.675 1243.61 151.812 1243.61 152.087L1243.53 165.37L1243.61 179.587C1243.61 179.862 1243.48 180 1243.22 180H1238.88ZM1238.93 148.512C1238.66 148.512 1238.52 148.384 1238.52 148.127V143.617C1238.52 143.489 1238.56 143.388 1238.63 143.315C1238.7 143.242 1238.81 143.205 1238.93 143.205H1243.22C1243.35 143.205 1243.45 143.242 1243.53 143.315C1243.6 143.388 1243.64 143.489 1243.64 143.617V148.127C1243.64 148.384 1243.5 148.512 1243.22 148.512H1238.93ZM1258.46 179.862C1255.9 179.862 1253.7 179.257 1251.89 178.047C1250.07 176.837 1248.7 175.178 1247.76 173.07C1246.85 170.943 1246.39 168.514 1246.39 165.782C1246.39 163.069 1246.86 160.603 1247.79 158.385C1248.75 156.167 1250.12 154.416 1251.92 153.132C1253.71 151.849 1255.84 151.207 1258.3 151.207C1260.3 151.207 1262.04 151.647 1263.52 152.527C1265.03 153.389 1266.24 154.663 1267.15 156.35L1267.04 152.087C1267.04 151.812 1267.17 151.675 1267.43 151.675H1271.66C1271.92 151.675 1272.05 151.812 1272.05 152.087L1271.94 165.947L1271.99 177.965C1272.01 182.072 1270.92 185.234 1268.72 187.453C1266.54 189.671 1263.42 190.78 1259.37 190.78C1257.13 190.798 1255.13 190.487 1253.35 189.845C1251.59 189.222 1250.16 188.241 1249.06 186.903C1247.98 185.583 1247.35 183.933 1247.19 181.953V181.898C1247.19 181.659 1247.32 181.54 1247.57 181.54H1251.75C1251.99 181.54 1252.14 181.668 1252.19 181.925C1252.41 183.722 1253.16 185.069 1254.45 185.968C1255.75 186.866 1257.44 187.315 1259.51 187.315C1261.93 187.315 1263.82 186.536 1265.2 184.978C1266.57 183.438 1267.26 181.082 1267.26 177.91V174.747C1266.36 176.397 1265.16 177.662 1263.66 178.542C1262.17 179.422 1260.44 179.862 1258.46 179.862ZM1259.48 176.452C1261.92 176.452 1263.82 175.563 1265.2 173.785C1266.57 172.007 1267.26 169.348 1267.26 165.81C1267.26 162.253 1266.57 159.503 1265.17 157.56C1263.8 155.598 1261.86 154.617 1259.37 154.617C1256.82 154.617 1254.87 155.607 1253.51 157.587C1252.17 159.549 1251.5 162.226 1251.5 165.617C1251.5 169.101 1252.17 171.777 1253.51 173.647C1254.87 175.517 1256.86 176.452 1259.48 176.452ZM1299.26 167.9L1299.37 179.587C1299.37 179.862 1299.23 180 1298.95 180H1294.64C1294.38 180 1294.25 179.862 1294.25 179.587L1294.33 167.9V162.482C1294.33 159.916 1293.8 158 1292.74 156.735C1291.67 155.47 1290.22 154.837 1288.37 154.837C1286.48 154.837 1284.84 155.58 1283.44 157.065C1282.07 158.55 1281.11 160.649 1280.58 163.362V167.9L1280.67 179.587C1280.67 179.862 1280.53 180 1280.25 180H1275.88C1275.62 180 1275.5 179.862 1275.5 179.587L1275.63 167.13L1275.55 152.087C1275.55 151.812 1275.68 151.675 1275.94 151.675H1280.06C1280.32 151.675 1280.45 151.812 1280.45 152.087L1280.34 156.625C1281.31 155.012 1282.59 153.673 1284.19 152.61C1285.8 151.547 1287.65 151.015 1289.74 151.015C1292.73 151.015 1295.06 151.977 1296.73 153.902C1298.41 155.827 1299.26 158.623 1299.26 162.29V167.9ZM161.336 236.468C159.063 236.468 157.22 235.817 155.808 234.515C154.397 233.213 153.691 231.123 153.691 228.245L153.718 214.522V211.36H150.473C150.345 211.36 150.244 211.323 150.171 211.25C150.098 211.177 150.061 211.076 150.061 210.947V208.087C150.061 207.812 150.198 207.675 150.473 207.675H153.718L153.663 200.992C153.663 200.717 153.801 200.58 154.076 200.58H158.338C158.613 200.58 158.751 200.717 158.751 200.992L158.696 207.675H165.296C165.553 207.675 165.681 207.812 165.681 208.087V210.947C165.681 211.222 165.553 211.36 165.296 211.36H158.668V214.467L158.696 228.135C158.696 229.822 158.971 231.004 159.521 231.682C160.089 232.361 160.997 232.7 162.243 232.7C163.307 232.7 164.297 232.59 165.213 232.37C165.25 232.352 165.296 232.342 165.351 232.342C165.553 232.342 165.653 232.462 165.653 232.7V235.367C165.653 235.606 165.562 235.752 165.378 235.807C163.802 236.248 162.454 236.468 161.336 236.468ZM170.517 222.442C170.682 229.574 173.524 233.14 179.042 233.14C181.114 233.14 182.773 232.581 184.02 231.462C185.285 230.326 186.128 228.676 186.55 226.512C186.605 226.274 186.742 226.155 186.962 226.155H191.032C191.161 226.155 191.262 226.182 191.335 226.237C191.427 226.292 191.463 226.375 191.445 226.485C191.152 228.483 190.482 230.252 189.437 231.792C188.392 233.314 186.981 234.506 185.202 235.367C183.424 236.211 181.352 236.633 178.987 236.633C176.091 236.633 173.625 236.018 171.59 234.79C169.573 233.562 168.042 231.838 166.997 229.62C165.952 227.402 165.43 224.835 165.43 221.92C165.43 218.987 165.962 216.402 167.025 214.165C168.107 211.91 169.647 210.159 171.645 208.912C173.643 207.666 175.999 207.042 178.712 207.042C181.444 207.042 183.782 207.638 185.725 208.83C187.687 210.022 189.19 211.745 190.235 214C191.298 216.255 191.848 218.941 191.885 222.057C191.885 222.314 191.747 222.442 191.472 222.442H170.517ZM178.74 210.507C176.43 210.507 174.587 211.25 173.212 212.735C171.837 214.22 170.985 216.328 170.655 219.06H186.467C186.412 217.465 186.082 216.026 185.477 214.742C184.872 213.441 184.002 212.414 182.865 211.662C181.728 210.892 180.353 210.507 178.74 210.507ZM206.803 236.633C203.998 236.633 201.597 236.037 199.598 234.845C197.618 233.635 196.106 231.921 195.061 229.702C194.034 227.484 193.521 224.89 193.521 221.92C193.521 218.932 194.034 216.319 195.061 214.082C196.106 211.846 197.637 210.113 199.653 208.885C201.67 207.657 204.09 207.042 206.913 207.042C209.205 207.042 211.212 207.455 212.936 208.28C214.659 209.105 216.016 210.278 217.006 211.8C218.014 213.303 218.619 215.054 218.821 217.052V217.162C218.821 217.364 218.702 217.465 218.463 217.465H214.586C214.347 217.465 214.201 217.337 214.146 217.08C213.797 214.972 212.991 213.358 211.726 212.24C210.479 211.122 208.875 210.562 206.913 210.562C204.163 210.581 202.101 211.571 200.726 213.532C199.369 215.476 198.691 218.262 198.691 221.892C198.691 225.577 199.369 228.373 200.726 230.28C202.101 232.187 204.172 233.14 206.941 233.14C209.104 233.14 210.846 232.489 212.166 231.187C213.486 229.886 214.247 228.08 214.448 225.77C214.485 225.513 214.622 225.385 214.861 225.385H218.821C218.949 225.385 219.05 225.422 219.123 225.495C219.197 225.55 219.224 225.632 219.206 225.742C219.022 227.869 218.408 229.757 217.363 231.407C216.318 233.039 214.888 234.322 213.073 235.257C211.277 236.174 209.187 236.633 206.803 236.633ZM235.579 207.015C238.659 207.015 241.033 207.996 242.701 209.957C244.369 211.901 245.204 214.862 245.204 218.84L245.176 224.505L245.286 235.587C245.286 235.862 245.158 236 244.901 236H240.556C240.281 236 240.144 235.862 240.144 235.587L240.254 224.56V218.482C240.254 215.861 239.722 213.927 238.659 212.68C237.595 211.415 236.156 210.782 234.341 210.782C232.581 210.782 231.004 211.424 229.611 212.707C228.218 213.972 227.136 215.742 226.366 218.015L226.504 235.587C226.504 235.862 226.375 236 226.119 236H221.884C221.609 236 221.471 235.862 221.471 235.587L221.636 216.447L221.471 197.885C221.471 197.628 221.609 197.5 221.884 197.5H226.119C226.375 197.5 226.504 197.628 226.504 197.885L226.394 212.405C227.347 210.792 228.594 209.49 230.134 208.5C231.692 207.51 233.507 207.015 235.579 207.015ZM272.222 223.9L272.332 235.587C272.332 235.862 272.194 236 271.919 236H267.602C267.345 236 267.217 235.862 267.217 235.587L267.299 223.9V218.482C267.299 215.916 266.767 214 265.704 212.735C264.641 211.47 263.183 210.837 261.332 210.837C259.443 210.837 257.802 211.58 256.409 213.065C255.034 214.55 254.081 216.649 253.549 219.362V223.9L253.632 235.587C253.632 235.862 253.494 236 253.219 236H248.847C248.59 236 248.462 235.862 248.462 235.587L248.599 223.13L248.517 208.087C248.517 207.812 248.645 207.675 248.902 207.675H253.027C253.283 207.675 253.412 207.812 253.412 208.087L253.302 212.625C254.273 211.012 255.557 209.673 257.152 208.61C258.765 207.547 260.617 207.015 262.707 207.015C265.695 207.015 268.023 207.977 269.692 209.902C271.378 211.827 272.222 214.623 272.222 218.29V223.9ZM276.083 236C275.826 236 275.698 235.862 275.698 235.587L275.808 221.37L275.698 208.087C275.698 207.812 275.826 207.675 276.083 207.675H280.428C280.685 207.675 280.813 207.812 280.813 208.087L280.731 221.37L280.813 235.587C280.813 235.862 280.685 236 280.428 236H276.083ZM276.138 204.512C275.863 204.512 275.726 204.384 275.726 204.127V199.617C275.726 199.489 275.762 199.388 275.836 199.315C275.909 199.242 276.01 199.205 276.138 199.205H280.428C280.556 199.205 280.657 199.242 280.731 199.315C280.804 199.388 280.841 199.489 280.841 199.617V204.127C280.841 204.384 280.703 204.512 280.428 204.512H276.138ZM295.392 207.125C297.427 207.125 299.196 207.565 300.699 208.445C302.221 209.325 303.44 210.617 304.357 212.322L304.247 208.087C304.247 207.812 304.375 207.675 304.632 207.675H308.894C309.169 207.675 309.307 207.812 309.307 208.087L309.169 224.752L309.307 244.938C309.307 245.213 309.169 245.35 308.894 245.35H304.604C304.347 245.35 304.219 245.213 304.219 244.938L304.274 231.38C303.321 233.012 302.083 234.277 300.562 235.175C299.058 236.073 297.307 236.523 295.309 236.523C292.834 236.523 290.717 235.89 288.957 234.625C287.197 233.342 285.858 231.6 284.942 229.4C284.043 227.182 283.594 224.679 283.594 221.892C283.594 219.142 284.062 216.649 284.997 214.412C285.932 212.157 287.288 210.379 289.067 209.077C290.863 207.776 292.972 207.125 295.392 207.125ZM296.602 233.03C299.077 233.03 301.011 232.086 302.404 230.197C303.797 228.309 304.494 225.559 304.494 221.947C304.494 219.564 304.182 217.529 303.559 215.842C302.954 214.137 302.065 212.836 300.892 211.937C299.737 211.039 298.343 210.59 296.712 210.59C294.108 210.59 292.119 211.571 290.744 213.532C289.387 215.494 288.709 218.18 288.709 221.59C288.709 225.092 289.369 227.878 290.689 229.95C292.027 232.003 293.998 233.03 296.602 233.03ZM322.076 236.66C319.106 236.66 316.778 235.698 315.091 233.772C313.404 231.847 312.561 229.052 312.561 225.385V219.775L312.478 208.087C312.478 207.812 312.607 207.675 312.863 207.675H317.181C317.456 207.675 317.593 207.812 317.593 208.087L317.483 219.775V225.192C317.483 227.759 318.015 229.675 319.078 230.94C320.16 232.205 321.618 232.837 323.451 232.837C325.339 232.837 326.971 232.095 328.346 230.61C329.739 229.125 330.711 227.026 331.261 224.312V219.775L331.178 208.087C331.178 207.812 331.307 207.675 331.563 207.675H335.936C336.211 207.675 336.348 207.812 336.348 208.087L336.211 220.545L336.293 235.587C336.293 235.862 336.156 236 335.881 236H331.783C331.508 236 331.371 235.862 331.371 235.587L331.508 231.05C330.537 232.663 329.244 234.002 327.631 235.065C326.036 236.128 324.184 236.66 322.076 236.66ZM343.95 222.442C344.115 229.574 346.957 233.14 352.475 233.14C354.547 233.14 356.206 232.581 357.453 231.462C358.718 230.326 359.561 228.676 359.983 226.512C360.038 226.274 360.175 226.155 360.395 226.155H364.465C364.593 226.155 364.694 226.182 364.768 226.237C364.859 226.292 364.896 226.375 364.878 226.485C364.584 228.483 363.915 230.252 362.87 231.792C361.825 233.314 360.413 234.506 358.635 235.367C356.857 236.211 354.785 236.633 352.42 236.633C349.523 236.633 347.058 236.018 345.023 234.79C343.006 233.562 341.475 231.838 340.43 229.62C339.385 227.402 338.863 224.835 338.863 221.92C338.863 218.987 339.394 216.402 340.458 214.165C341.539 211.91 343.079 210.159 345.078 208.912C347.076 207.666 349.432 207.042 352.145 207.042C354.877 207.042 357.214 207.638 359.158 208.83C361.119 210.022 362.623 211.745 363.668 214C364.731 216.255 365.281 218.941 365.318 222.057C365.318 222.314 365.18 222.442 364.905 222.442H343.95ZM352.173 210.507C349.863 210.507 348.02 211.25 346.645 212.735C345.27 214.22 344.418 216.328 344.088 219.06H359.9C359.845 217.465 359.515 216.026 358.91 214.742C358.305 213.441 357.434 212.414 356.298 211.662C355.161 210.892 353.786 210.507 352.173 210.507ZM379.252 236.605C375.366 236.605 372.313 235.762 370.095 234.075C367.895 232.37 366.749 229.867 366.657 226.567C366.657 226.311 366.786 226.182 367.042 226.182H371.14C371.397 226.182 371.525 226.311 371.525 226.567C371.598 228.859 372.295 230.555 373.615 231.655C374.953 232.755 376.897 233.305 379.445 233.305C381.572 233.305 383.258 232.865 384.505 231.985C385.77 231.105 386.402 229.867 386.402 228.272C386.402 227.191 386.045 226.347 385.33 225.742C384.615 225.119 383.726 224.661 382.662 224.367C381.599 224.074 380.132 223.762 378.262 223.432C375.916 223.029 374.009 222.607 372.542 222.167C371.094 221.709 369.857 220.939 368.83 219.857C367.803 218.776 367.29 217.263 367.29 215.32C367.29 213.56 367.748 212.066 368.665 210.837C369.6 209.591 370.902 208.656 372.57 208.032C374.257 207.391 376.227 207.07 378.482 207.07C381.929 207.07 384.716 207.803 386.842 209.27C388.969 210.737 390.115 212.9 390.28 215.76V215.815C390.28 216.053 390.152 216.172 389.895 216.172H385.99C385.752 216.172 385.605 216.044 385.55 215.787C385.422 213.972 384.725 212.607 383.46 211.69C382.213 210.773 380.536 210.315 378.427 210.315C376.447 210.315 374.898 210.709 373.78 211.497C372.662 212.286 372.102 213.459 372.102 215.017C372.102 216.007 372.442 216.787 373.12 217.355C373.798 217.905 374.642 218.317 375.65 218.592C376.677 218.849 378.088 219.124 379.885 219.417C382.305 219.802 384.257 220.233 385.742 220.71C387.246 221.168 388.529 221.966 389.592 223.102C390.674 224.239 391.215 225.843 391.215 227.915C391.215 229.712 390.692 231.27 389.647 232.59C388.621 233.892 387.2 234.891 385.385 235.587C383.588 236.266 381.544 236.605 379.252 236.605ZM427.065 221.535L427.202 235.587C427.202 235.862 427.065 236 426.79 236H422.555C422.298 236 422.17 235.862 422.17 235.587L422.28 231.187C421.326 232.874 420.08 234.185 418.54 235.12C417.018 236.055 415.24 236.523 413.205 236.523C410.73 236.523 408.612 235.89 406.852 234.625C405.092 233.342 403.754 231.6 402.837 229.4C401.939 227.182 401.49 224.679 401.49 221.892C401.49 219.142 401.957 216.649 402.892 214.412C403.827 212.157 405.184 210.379 406.962 209.077C408.759 207.776 410.867 207.125 413.287 207.125C415.304 207.125 417.064 207.565 418.567 208.445C420.089 209.325 421.317 210.608 422.252 212.295L422.142 208.087C422.142 207.812 422.27 207.675 422.527 207.675H426.79C427.065 207.675 427.202 207.812 427.202 208.087L427.065 221.535ZM414.442 233.03C416.935 233.03 418.879 232.095 420.272 230.225C421.684 228.337 422.39 225.559 422.39 221.892C422.39 218.299 421.693 215.522 420.3 213.56C418.925 211.598 416.99 210.617 414.497 210.617C411.894 210.617 409.923 211.607 408.585 213.587C407.265 215.549 406.605 218.198 406.605 221.535C406.605 225.055 407.265 227.851 408.585 229.922C409.923 231.994 411.875 233.03 414.442 233.03ZM454.409 223.9L454.519 235.587C454.519 235.862 454.382 236 454.107 236H449.789C449.532 236 449.404 235.862 449.404 235.587L449.487 223.9V218.482C449.487 215.916 448.955 214 447.892 212.735C446.828 211.47 445.371 210.837 443.519 210.837C441.631 210.837 439.99 211.58 438.597 213.065C437.222 214.55 436.268 216.649 435.737 219.362V223.9L435.819 235.587C435.819 235.862 435.682 236 435.407 236H431.034C430.777 236 430.649 235.862 430.649 235.587L430.787 223.13L430.704 208.087C430.704 207.812 430.832 207.675 431.089 207.675H435.214C435.471 207.675 435.599 207.812 435.599 208.087L435.489 212.625C436.461 211.012 437.744 209.673 439.339 208.61C440.952 207.547 442.804 207.015 444.894 207.015C447.882 207.015 450.211 207.977 451.879 209.902C453.566 211.827 454.409 214.623 454.409 218.29V223.9ZM482.361 214.467L482.471 235.587C482.471 235.862 482.333 236 482.058 236H477.796C477.539 236 477.411 235.862 477.411 235.587L477.521 231.215C476.586 232.92 475.348 234.24 473.808 235.175C472.286 236.092 470.508 236.55 468.473 236.55C465.998 236.55 463.881 235.918 462.121 234.652C460.361 233.369 459.022 231.618 458.106 229.4C457.207 227.182 456.758 224.679 456.758 221.892C456.758 219.142 457.226 216.649 458.161 214.412C459.114 212.157 460.48 210.379 462.258 209.077C464.036 207.757 466.136 207.098 468.556 207.098C470.554 207.098 472.305 207.519 473.808 208.363C475.311 209.206 476.521 210.452 477.438 212.102L477.383 197.912C477.383 197.637 477.511 197.5 477.768 197.5H482.058C482.333 197.5 482.471 197.637 482.471 197.912L482.361 214.467ZM469.711 233.085C472.204 233.085 474.147 232.141 475.541 230.252C476.952 228.364 477.658 225.577 477.658 221.892C477.658 219.491 477.346 217.447 476.723 215.76C476.1 214.055 475.192 212.762 474.001 211.882C472.827 210.984 471.416 210.535 469.766 210.535C467.162 210.535 465.191 211.534 463.853 213.532C462.533 215.512 461.873 218.189 461.873 221.562C461.873 225.082 462.533 227.887 463.853 229.977C465.173 232.049 467.126 233.085 469.711 233.085ZM508.991 207.125C511.484 207.125 513.611 207.767 515.371 209.05C517.131 210.315 518.46 212.057 519.358 214.275C520.275 216.475 520.733 218.968 520.733 221.755C520.733 224.505 520.257 227.007 519.303 229.262C518.368 231.499 517.003 233.277 515.206 234.597C513.428 235.899 511.328 236.55 508.908 236.55C506.873 236.55 505.104 236.11 503.601 235.23C502.098 234.35 500.888 233.057 499.971 231.352L500.081 235.56C500.081 235.835 499.953 235.972 499.696 235.972H495.433C495.158 235.972 495.021 235.835 495.021 235.56L495.158 214.715L495.021 197.912C495.021 197.637 495.158 197.5 495.433 197.5H499.723C499.98 197.5 500.108 197.637 500.108 197.912L500.053 212.24C501.007 210.608 502.235 209.352 503.738 208.472C505.26 207.574 507.011 207.125 508.991 207.125ZM507.726 233.002C510.311 233.002 512.263 232.012 513.583 230.032C514.922 228.052 515.591 225.394 515.591 222.057C515.591 218.574 514.931 215.806 513.611 213.752C512.291 211.681 510.348 210.645 507.781 210.645C505.288 210.645 503.335 211.58 501.923 213.45C500.53 215.32 499.833 218.07 499.833 221.7C499.833 225.312 500.521 228.098 501.896 230.06C503.271 232.022 505.214 233.002 507.726 233.002ZM527.48 222.442C527.645 229.574 530.487 233.14 536.005 233.14C538.077 233.14 539.736 232.581 540.983 231.462C542.248 230.326 543.091 228.676 543.513 226.512C543.568 226.274 543.705 226.155 543.925 226.155H547.995C548.124 226.155 548.225 226.182 548.298 226.237C548.39 226.292 548.426 226.375 548.408 226.485C548.115 228.483 547.445 230.252 546.4 231.792C545.355 233.314 543.944 234.506 542.165 235.367C540.387 236.211 538.315 236.633 535.95 236.633C533.054 236.633 530.588 236.018 528.553 234.79C526.536 233.562 525.005 231.838 523.96 229.62C522.915 227.402 522.393 224.835 522.393 221.92C522.393 218.987 522.925 216.402 523.988 214.165C525.07 211.91 526.61 210.159 528.608 208.912C530.606 207.666 532.962 207.042 535.675 207.042C538.407 207.042 540.745 207.638 542.688 208.83C544.65 210.022 546.153 211.745 547.198 214C548.261 216.255 548.811 218.941 548.848 222.057C548.848 222.314 548.71 222.442 548.435 222.442H527.48ZM535.703 210.507C533.393 210.507 531.55 211.25 530.175 212.735C528.8 214.22 527.948 216.328 527.618 219.06H543.43C543.375 217.465 543.045 216.026 542.44 214.742C541.835 213.441 540.965 212.414 539.828 211.662C538.691 210.892 537.316 210.507 535.703 210.507ZM563.766 236.633C560.961 236.633 558.56 236.037 556.561 234.845C554.581 233.635 553.069 231.921 552.024 229.702C550.997 227.484 550.484 224.89 550.484 221.92C550.484 218.932 550.997 216.319 552.024 214.082C553.069 211.846 554.6 210.113 556.616 208.885C558.633 207.657 561.053 207.042 563.876 207.042C566.168 207.042 568.175 207.455 569.899 208.28C571.622 209.105 572.979 210.278 573.969 211.8C574.977 213.303 575.582 215.054 575.784 217.052V217.162C575.784 217.364 575.665 217.465 575.426 217.465H571.549C571.31 217.465 571.164 217.337 571.109 217.08C570.76 214.972 569.954 213.358 568.689 212.24C567.442 211.122 565.838 210.562 563.876 210.562C561.126 210.581 559.064 211.571 557.689 213.532C556.332 215.476 555.654 218.262 555.654 221.892C555.654 225.577 556.332 228.373 557.689 230.28C559.064 232.187 561.135 233.14 563.904 233.14C566.067 233.14 567.809 232.489 569.129 231.187C570.449 229.886 571.21 228.08 571.411 225.77C571.448 225.513 571.585 225.385 571.824 225.385H575.784C575.912 225.385 576.013 225.422 576.086 225.495C576.16 225.55 576.187 225.632 576.169 225.742C575.985 227.869 575.371 229.757 574.326 231.407C573.281 233.039 571.851 234.322 570.036 235.257C568.24 236.174 566.15 236.633 563.766 236.633ZM591.029 236.633C588.206 236.633 585.786 236.028 583.769 234.817C581.752 233.607 580.212 231.893 579.149 229.675C578.104 227.457 577.582 224.862 577.582 221.892C577.582 218.922 578.104 216.319 579.149 214.082C580.212 211.846 581.752 210.113 583.769 208.885C585.786 207.657 588.206 207.042 591.029 207.042C593.852 207.042 596.272 207.647 598.289 208.857C600.306 210.067 601.837 211.791 602.882 214.027C603.927 216.246 604.449 218.84 604.449 221.81C604.449 224.798 603.927 227.411 602.882 229.647C601.837 231.866 600.306 233.589 598.289 234.817C596.272 236.028 593.852 236.633 591.029 236.633ZM591.029 233.14C593.779 233.14 595.842 232.177 597.217 230.252C598.592 228.327 599.279 225.541 599.279 221.892C599.279 218.262 598.582 215.467 597.189 213.505C595.796 211.525 593.733 210.535 591.002 210.535C588.252 210.553 586.18 211.543 584.787 213.505C583.393 215.467 582.697 218.272 582.697 221.92C582.697 225.55 583.402 228.327 584.814 230.252C586.226 232.177 588.297 233.14 591.029 233.14ZM646.526 224.835L646.636 235.587C646.636 235.862 646.498 236 646.223 236H641.878C641.622 236 641.493 235.862 641.493 235.587L641.603 224.835V218.482C641.603 215.842 641.127 213.908 640.173 212.68C639.238 211.452 637.909 210.837 636.186 210.837C634.609 210.837 633.216 211.543 632.006 212.955C630.796 214.348 629.916 216.292 629.366 218.785C629.421 219.243 629.448 219.747 629.448 220.297V224.835L629.558 235.587C629.558 235.862 629.421 236 629.146 236H624.801C624.544 236 624.416 235.862 624.416 235.587L624.526 224.835V218.482C624.526 213.386 622.72 210.837 619.108 210.837C617.458 210.837 616.01 211.589 614.763 213.092C613.535 214.596 612.646 216.686 612.096 219.362V224.835L612.206 235.587C612.206 235.862 612.077 236 611.821 236H607.421C607.146 236 607.008 235.862 607.008 235.587L607.146 224.835L607.063 208.087C607.063 207.812 607.201 207.675 607.476 207.675H611.601C611.857 207.675 611.986 207.812 611.986 208.087L611.876 212.625C612.847 210.938 614.048 209.582 615.478 208.555C616.927 207.528 618.632 207.015 620.593 207.015C622.665 207.015 624.388 207.51 625.763 208.5C627.157 209.49 628.156 211.002 628.761 213.037C630.924 209.022 633.894 207.015 637.671 207.015C640.512 207.015 642.694 207.95 644.216 209.82C645.756 211.672 646.526 214.495 646.526 218.29V224.835ZM653.97 222.442C654.135 229.574 656.976 233.14 662.495 233.14C664.566 233.14 666.225 232.581 667.472 231.462C668.737 230.326 669.58 228.676 670.002 226.512C670.057 226.274 670.195 226.155 670.415 226.155H674.485C674.613 226.155 674.714 226.182 674.787 226.237C674.879 226.292 674.915 226.375 674.897 226.485C674.604 228.483 673.935 230.252 672.89 231.792C671.845 233.314 670.433 234.506 668.655 235.367C666.876 236.211 664.805 236.633 662.44 236.633C659.543 236.633 657.077 236.018 655.042 234.79C653.025 233.562 651.495 231.838 650.45 229.62C649.405 227.402 648.882 224.835 648.882 221.92C648.882 218.987 649.414 216.402 650.477 214.165C651.559 211.91 653.099 210.159 655.097 208.912C657.095 207.666 659.451 207.042 662.165 207.042C664.896 207.042 667.234 207.638 669.177 208.83C671.139 210.022 672.642 211.745 673.687 214C674.75 216.255 675.3 218.941 675.337 222.057C675.337 222.314 675.2 222.442 674.925 222.442H653.97ZM662.192 210.507C659.882 210.507 658.04 211.25 656.665 212.735C655.29 214.22 654.437 216.328 654.107 219.06H669.92C669.865 217.465 669.535 216.026 668.93 214.742C668.325 213.441 667.454 212.414 666.317 211.662C665.18 210.892 663.805 210.507 662.192 210.507ZM710.819 221.535L710.957 235.587C710.957 235.862 710.819 236 710.544 236H706.309C706.053 236 705.924 235.862 705.924 235.587L706.034 231.187C705.081 232.874 703.834 234.185 702.294 235.12C700.773 236.055 698.994 236.523 696.959 236.523C694.484 236.523 692.367 235.89 690.607 234.625C688.847 233.342 687.509 231.6 686.592 229.4C685.694 227.182 685.244 224.679 685.244 221.892C685.244 219.142 685.712 216.649 686.647 214.412C687.582 212.157 688.939 210.379 690.717 209.077C692.514 207.776 694.622 207.125 697.042 207.125C699.059 207.125 700.819 207.565 702.322 208.445C703.844 209.325 705.072 210.608 706.007 212.295L705.897 208.087C705.897 207.812 706.025 207.675 706.282 207.675H710.544C710.819 207.675 710.957 207.812 710.957 208.087L710.819 221.535ZM698.197 233.03C700.69 233.03 702.634 232.095 704.027 230.225C705.439 228.337 706.144 225.559 706.144 221.892C706.144 218.299 705.448 215.522 704.054 213.56C702.679 211.598 700.745 210.617 698.252 210.617C695.649 210.617 693.678 211.607 692.339 213.587C691.019 215.549 690.359 218.198 690.359 221.535C690.359 225.055 691.019 227.851 692.339 229.922C693.678 231.994 695.63 233.03 698.197 233.03ZM759.312 205.64C760.852 205.64 762.502 206.905 762.502 210.315C762.502 217.905 754.527 236.825 746.277 236.825C742.867 236.825 740.612 234.625 740.612 230.61C740.612 229.62 740.942 228.08 741.547 225.825H741.052C738.522 232.095 734.397 236.825 729.887 236.825C726.532 236.825 723.562 233.965 723.562 229.29C723.562 223.24 728.182 217.025 733.297 211.635C731.757 211.47 728.842 210.37 727.467 210.37C726.752 210.37 726.422 210.755 726.422 211.36C726.422 212.68 728.017 213.23 728.017 214.66C728.017 215.595 727.302 216.475 726.202 216.475C725.212 216.475 724.332 215.705 724.332 214.44C724.332 213.45 724.937 211.47 725.652 209.985C726.972 207.345 728.622 205.97 730.437 205.97C731.867 205.97 735.442 206.795 736.927 206.795C737.752 206.795 738.357 206.52 738.797 206.245L739.292 205.805L740.447 206.905C735.992 212.68 732.197 220.16 732.197 226.155C732.197 228.96 732.857 230.5 734.452 230.5C738.742 230.5 743.252 217.85 743.417 208.885H752.602C751.337 215.485 748.587 220.545 748.587 226.045C748.587 228.795 749.192 230.5 750.842 230.5C754.362 230.5 758.102 221.645 758.102 216.09C758.102 212.405 756.562 210.7 756.562 208.665C756.562 206.96 757.607 205.64 759.312 205.64ZM776.11 231.71C779.135 231.71 781.72 229.29 784.635 224.065H786.12C782.545 232.315 777.87 236.825 772.04 236.825C766.76 236.825 762.91 233.415 762.91 226.815C762.91 216.64 771.435 205.53 780.18 205.53C784.415 205.53 787.165 207.895 787.165 211.47C787.165 218.235 779.135 222.415 771.82 223.405C771.655 224.395 771.6 225.33 771.6 226.155C771.6 230.115 773.525 231.71 776.11 231.71ZM780.07 208.17C776.715 208.17 773.47 215.045 772.205 221.15C777.32 219.61 781.72 215.265 781.72 210.59C781.72 208.995 781.335 208.17 780.07 208.17ZM808.136 190.35L808.796 190.955L797.521 225.66C796.861 227.53 795.816 230.445 795.816 231.38C795.816 232.205 796.091 232.48 796.641 232.48C798.346 232.48 800.766 229.4 802.471 225.66H804.011C801.811 230.885 798.126 236.715 792.516 236.715C788.446 236.715 787.126 234.68 787.126 232.26C787.126 230.555 787.731 229.015 789.051 225.275L797.576 198.875C798.841 194.97 798.456 193.485 794.936 193.485L795.376 192C803.351 192 806.761 191.23 808.136 190.35ZM825.646 190.35L826.306 190.955L815.031 225.66C814.371 227.53 813.326 230.445 813.326 231.38C813.326 232.205 813.601 232.48 814.151 232.48C815.856 232.48 818.276 229.4 819.981 225.66H821.521C819.321 230.885 815.636 236.715 810.026 236.715C805.956 236.715 804.636 234.68 804.636 232.26C804.636 230.555 805.241 229.015 806.561 225.275L815.086 198.875C816.351 194.97 815.966 193.485 812.446 193.485L812.886 192C820.861 192 824.271 191.23 825.646 190.35ZM844.962 224.065H823.952L825.712 218.18H846.777L844.962 224.065ZM857.163 236H848.418L854.688 217.135C855.568 214.715 856.613 211.745 856.613 210.755C856.613 210.15 856.338 209.93 855.953 209.93C854.633 209.93 852.873 211.91 850.343 215.65H848.858C851.828 209.985 856.448 205.695 861.343 205.695C864.093 205.695 865.358 207.565 865.358 209.655C865.358 211.47 864.148 214 862.773 217.19L860.188 224.065H860.793C865.578 213.175 869.813 205.585 875.258 205.585C876.908 205.585 877.788 206.465 877.788 208.06C877.788 210.59 875.643 213.12 873.663 213.12C872.288 213.12 871.573 212.515 870.473 212.515C868.548 212.515 864.313 215.925 857.163 236ZM884.719 236.825C878.669 236.825 873.994 232.59 873.994 225.77C873.994 215.32 881.859 205.53 891.264 205.53C897.314 205.53 902.044 209.82 902.044 216.64C902.044 227.09 894.124 236.825 884.719 236.825ZM884.444 233.8C888.679 233.8 893.849 220.71 893.849 212.57C893.849 209.93 893.079 208.61 891.594 208.61C887.304 208.61 882.134 221.755 882.134 229.84C882.134 232.425 882.904 233.8 884.444 233.8ZM909.784 236.825C906.429 236.825 904.669 234.735 904.669 232.095C904.669 228.355 907.694 221.755 909.949 216.97C910.939 214.605 912.204 211.745 912.204 210.755C912.204 210.15 911.929 209.93 911.544 209.93C910.224 209.93 908.464 211.91 905.934 215.65H904.449C907.419 209.93 912.039 205.695 916.934 205.695C919.684 205.695 920.949 207.565 920.949 209.655C920.949 211.47 919.739 213.945 918.254 217.465C915.834 223.515 913.854 228.19 913.799 229.62C913.744 230.5 914.129 230.885 914.734 230.885C915.944 230.885 918.804 228.96 923.204 219.775C924.964 216.255 927.659 210.425 927.769 206.52H937.724L931.014 225.77C930.299 227.695 929.199 230.555 929.199 231.545C929.199 232.315 929.419 232.59 930.024 232.59C931.729 232.59 934.094 229.565 935.854 225.77H937.339C935.194 230.995 931.454 236.88 925.844 236.88C921.829 236.88 920.509 234.79 920.509 232.37C920.509 230.665 921.444 229.29 922.874 225.55L925.569 218.455H924.964C919.739 229.62 915.449 236.825 909.784 236.825ZM947.39 236H938.645L945.19 217.08C946.07 214.715 947.17 211.745 947.17 210.755C947.17 210.15 946.895 209.93 946.51 209.93C945.19 209.93 943.43 211.91 940.9 215.65H939.415C942.385 209.985 947.005 205.695 951.9 205.695C954.65 205.695 955.915 207.565 955.915 209.655C955.915 211.47 954.705 214 953.33 217.19L950.745 224.065H951.35C956.74 212.845 960.81 205.695 966.42 205.695C969.83 205.695 971.535 207.785 971.535 210.59C971.535 213.945 968.345 220.765 966.09 225.77C965.32 227.64 964.055 230.445 964.055 231.38C964.055 232.205 964.33 232.48 964.88 232.48C966.585 232.48 969.005 229.4 970.71 225.66H972.25C970.05 230.885 966.365 236.715 960.755 236.715C956.685 236.715 955.365 234.68 955.365 232.26C955.365 230.555 956.355 229.18 957.95 225.165C960.425 219.005 962.405 214.275 962.405 212.9C962.405 212.075 962.075 211.635 961.415 211.635C959.93 211.635 955.585 215.265 947.39 236ZM999.353 232.48C1001.06 232.48 1003.48 229.4 1005.18 225.66H1006.72C1004.52 230.885 1000.84 236.715 995.228 236.715C991.158 236.715 989.838 234.68 989.838 232.26C989.838 230.555 990.608 229.07 991.928 225.33L992.643 223.24H991.763C989.233 228.74 985.108 236.825 979.553 236.825C975.868 236.825 973.503 233.305 973.503 228.3C973.503 217.96 982.468 205.695 990.608 205.695C994.953 205.695 996.328 208.775 996.218 212.24H996.438L1001 198.875C1002.38 194.97 1000.89 193.485 997.373 193.485L997.813 192C1005.46 192 1009.31 191.45 1011.12 190.35L1011.78 190.955L1000.34 225.66C999.628 227.585 998.528 230.445 998.528 231.38C998.528 232.205 998.803 232.48 999.353 232.48ZM983.843 230.775C986.538 230.775 991.323 223.79 993.193 217.85C993.798 215.87 994.018 214.44 994.018 213.23C994.018 210.755 993.303 209.545 991.818 209.545C988.023 209.545 982.193 220.545 982.193 227.31C982.193 229.565 982.688 230.775 983.843 230.775ZM1021.25 231.71C1024.27 231.71 1026.86 229.29 1029.77 224.065H1031.26C1027.68 232.315 1023.01 236.825 1017.18 236.825C1011.9 236.825 1008.05 233.415 1008.05 226.815C1008.05 216.64 1016.57 205.53 1025.32 205.53C1029.55 205.53 1032.3 207.895 1032.3 211.47C1032.3 218.235 1024.27 222.415 1016.96 223.405C1016.79 224.395 1016.74 225.33 1016.74 226.155C1016.74 230.115 1018.66 231.71 1021.25 231.71ZM1025.21 208.17C1021.85 208.17 1018.61 215.045 1017.34 221.15C1022.46 219.61 1026.86 215.265 1026.86 210.59C1026.86 208.995 1026.47 208.17 1025.21 208.17ZM1058.97 232.48C1060.68 232.48 1063.1 229.4 1064.8 225.66H1066.34C1064.14 230.885 1060.46 236.715 1054.85 236.715C1050.78 236.715 1049.46 234.68 1049.46 232.26C1049.46 230.555 1050.23 229.07 1051.55 225.33L1052.26 223.24H1051.38C1048.85 228.74 1044.73 236.825 1039.17 236.825C1035.49 236.825 1033.12 233.305 1033.12 228.3C1033.12 217.96 1042.09 205.695 1050.23 205.695C1054.57 205.695 1055.95 208.775 1055.84 212.24H1056.06L1060.62 198.875C1062 194.97 1060.51 193.485 1056.99 193.485L1057.43 192C1065.08 192 1068.93 191.45 1070.74 190.35L1071.4 190.955L1059.96 225.66C1059.25 227.585 1058.15 230.445 1058.15 231.38C1058.15 232.205 1058.42 232.48 1058.97 232.48ZM1043.46 230.775C1046.16 230.775 1050.94 223.79 1052.81 217.85C1053.42 215.87 1053.64 214.44 1053.64 213.23C1053.64 210.755 1052.92 209.545 1051.44 209.545C1047.64 209.545 1041.81 220.545 1041.81 227.31C1041.81 229.565 1042.31 230.775 1043.46 230.775ZM1089.65 236.633C1086.84 236.633 1084.44 236.037 1082.44 234.845C1080.46 233.635 1078.95 231.921 1077.91 229.702C1076.88 227.484 1076.37 224.89 1076.37 221.92C1076.37 218.932 1076.88 216.319 1077.91 214.082C1078.95 211.846 1080.48 210.113 1082.5 208.885C1084.52 207.657 1086.94 207.042 1089.76 207.042C1092.05 207.042 1094.06 207.455 1095.78 208.28C1097.51 209.105 1098.86 210.278 1099.85 211.8C1100.86 213.303 1101.47 215.054 1101.67 217.052V217.162C1101.67 217.364 1101.55 217.465 1101.31 217.465H1097.43C1097.19 217.465 1097.05 217.337 1096.99 217.08C1096.64 214.972 1095.84 213.358 1094.57 212.24C1093.33 211.122 1091.72 210.562 1089.76 210.562C1087.01 210.581 1084.95 211.571 1083.57 213.532C1082.22 215.476 1081.54 218.262 1081.54 221.892C1081.54 225.577 1082.22 228.373 1083.57 230.28C1084.95 232.187 1087.02 233.14 1089.79 233.14C1091.95 233.14 1093.69 232.489 1095.01 231.187C1096.33 229.886 1097.09 228.08 1097.29 225.77C1097.33 225.513 1097.47 225.385 1097.71 225.385H1101.67C1101.8 225.385 1101.9 225.422 1101.97 225.495C1102.04 225.55 1102.07 225.632 1102.05 225.742C1101.87 227.869 1101.25 229.757 1100.21 231.407C1099.16 233.039 1097.73 234.322 1095.92 235.257C1094.12 236.174 1092.03 236.633 1089.65 236.633ZM1104.73 236C1104.46 236 1104.32 235.862 1104.32 235.587L1104.48 221.535L1104.32 208.087C1104.32 207.812 1104.46 207.675 1104.73 207.675H1108.97C1109.22 207.675 1109.35 207.812 1109.35 208.087L1109.19 212.927C1110.18 211.167 1111.52 209.811 1113.23 208.857C1114.93 207.886 1116.79 207.4 1118.81 207.4C1119.49 207.4 1120.08 207.464 1120.57 207.593C1120.81 207.647 1120.93 207.794 1120.93 208.032V211.085C1120.93 211.213 1120.88 211.314 1120.79 211.387C1120.72 211.442 1120.62 211.461 1120.49 211.442C1120.1 211.351 1119.56 211.305 1118.87 211.305C1117.2 211.305 1115.67 211.644 1114.27 212.322C1112.9 213.001 1111.77 214.037 1110.89 215.43C1110.01 216.823 1109.49 218.528 1109.32 220.545L1109.38 235.587C1109.38 235.862 1109.25 236 1108.99 236H1104.73ZM1124.85 222.442C1125.02 229.574 1127.86 233.14 1133.38 233.14C1135.45 233.14 1137.11 232.581 1138.36 231.462C1139.62 230.326 1140.46 228.676 1140.89 226.512C1140.94 226.274 1141.08 226.155 1141.3 226.155H1145.37C1145.5 226.155 1145.6 226.182 1145.67 226.237C1145.76 226.292 1145.8 226.375 1145.78 226.485C1145.49 228.483 1144.82 230.252 1143.77 231.792C1142.73 233.314 1141.32 234.506 1139.54 235.367C1137.76 236.211 1135.69 236.633 1133.32 236.633C1130.43 236.633 1127.96 236.018 1125.93 234.79C1123.91 233.562 1122.38 231.838 1121.33 229.62C1120.29 227.402 1119.77 224.835 1119.77 221.92C1119.77 218.987 1120.3 216.402 1121.36 214.165C1122.44 211.91 1123.98 210.159 1125.98 208.912C1127.98 207.666 1130.34 207.042 1133.05 207.042C1135.78 207.042 1138.12 207.638 1140.06 208.83C1142.02 210.022 1143.53 211.745 1144.57 214C1145.63 216.255 1146.18 218.941 1146.22 222.057C1146.22 222.314 1146.08 222.442 1145.81 222.442H1124.85ZM1133.08 210.507C1130.77 210.507 1128.92 211.25 1127.55 212.735C1126.17 214.22 1125.32 216.328 1124.99 219.06H1140.8C1140.75 217.465 1140.42 216.026 1139.81 214.742C1139.21 213.441 1138.34 212.414 1137.2 211.662C1136.06 210.892 1134.69 210.507 1133.08 210.507ZM1173.43 221.535L1173.57 235.587C1173.57 235.862 1173.43 236 1173.16 236H1168.92C1168.67 236 1168.54 235.862 1168.54 235.587L1168.65 231.187C1167.69 232.874 1166.45 234.185 1164.91 235.12C1163.39 236.055 1161.61 236.523 1159.57 236.523C1157.1 236.523 1154.98 235.89 1153.22 234.625C1151.46 233.342 1150.12 231.6 1149.2 229.4C1148.31 227.182 1147.86 224.679 1147.86 221.892C1147.86 219.142 1148.32 216.649 1149.26 214.412C1150.19 212.157 1151.55 210.379 1153.33 209.077C1155.13 207.776 1157.23 207.125 1159.65 207.125C1161.67 207.125 1163.43 207.565 1164.93 208.445C1166.46 209.325 1167.68 210.608 1168.62 212.295L1168.51 208.087C1168.51 207.812 1168.64 207.675 1168.89 207.675H1173.16C1173.43 207.675 1173.57 207.812 1173.57 208.087L1173.43 221.535ZM1160.81 233.03C1163.3 233.03 1165.25 232.095 1166.64 230.225C1168.05 228.337 1168.76 225.559 1168.76 221.892C1168.76 218.299 1168.06 215.522 1166.67 213.56C1165.29 211.598 1163.36 210.617 1160.86 210.617C1158.26 210.617 1156.29 211.607 1154.95 213.587C1153.63 215.549 1152.97 218.198 1152.97 221.535C1152.97 225.055 1153.63 227.851 1154.95 229.922C1156.29 231.994 1158.24 233.03 1160.81 233.03ZM1187.05 236.468C1184.78 236.468 1182.94 235.817 1181.53 234.515C1180.11 233.213 1179.41 231.123 1179.41 228.245L1179.44 214.522V211.36H1176.19C1176.06 211.36 1175.96 211.323 1175.89 211.25C1175.82 211.177 1175.78 211.076 1175.78 210.947V208.087C1175.78 207.812 1175.92 207.675 1176.19 207.675H1179.44L1179.38 200.992C1179.38 200.717 1179.52 200.58 1179.79 200.58H1184.06C1184.33 200.58 1184.47 200.717 1184.47 200.992L1184.41 207.675H1191.01C1191.27 207.675 1191.4 207.812 1191.4 208.087V210.947C1191.4 211.222 1191.27 211.36 1191.01 211.36H1184.39V214.467L1184.41 228.135C1184.41 229.822 1184.69 231.004 1185.24 231.682C1185.81 232.361 1186.71 232.7 1187.96 232.7C1189.02 232.7 1190.01 232.59 1190.93 232.37C1190.97 232.352 1191.01 232.342 1191.07 232.342C1191.27 232.342 1191.37 232.462 1191.37 232.7V235.367C1191.37 235.606 1191.28 235.752 1191.1 235.807C1189.52 236.248 1188.17 236.468 1187.05 236.468ZM1194.22 236C1193.96 236 1193.83 235.862 1193.83 235.587L1193.94 221.37L1193.83 208.087C1193.83 207.812 1193.96 207.675 1194.22 207.675H1198.56C1198.82 207.675 1198.95 207.812 1198.95 208.087L1198.87 221.37L1198.95 235.587C1198.95 235.862 1198.82 236 1198.56 236H1194.22ZM1194.27 204.512C1194 204.512 1193.86 204.384 1193.86 204.127V199.617C1193.86 199.489 1193.9 199.388 1193.97 199.315C1194.04 199.242 1194.14 199.205 1194.27 199.205H1198.56C1198.69 199.205 1198.79 199.242 1198.87 199.315C1198.94 199.388 1198.98 199.489 1198.98 199.617V204.127C1198.98 204.384 1198.84 204.512 1198.56 204.512H1194.27ZM1200.66 208.142C1200.64 208.106 1200.63 208.051 1200.63 207.977C1200.63 207.776 1200.75 207.675 1200.99 207.675H1205.63C1205.84 207.675 1205.98 207.785 1206.07 208.005L1214.1 231.655L1222.33 208.005C1222.38 207.785 1222.53 207.675 1222.77 207.675H1226.81C1226.96 207.675 1227.06 207.721 1227.11 207.812C1227.17 207.886 1227.17 207.996 1227.11 208.142L1217.07 235.725C1217 235.945 1216.84 236.055 1216.61 236.055H1211.27C1211.07 236.055 1210.92 235.945 1210.83 235.725L1200.66 208.142ZM1231.36 222.442C1231.53 229.574 1234.37 233.14 1239.89 233.14C1241.96 233.14 1243.62 232.581 1244.86 231.462C1246.13 230.326 1246.97 228.676 1247.39 226.512C1247.45 226.274 1247.59 226.155 1247.81 226.155H1251.88C1252.01 226.155 1252.11 226.182 1252.18 226.237C1252.27 226.292 1252.31 226.375 1252.29 226.485C1252 228.483 1251.33 230.252 1250.28 231.792C1249.24 233.314 1247.83 234.506 1246.05 235.367C1244.27 236.211 1242.2 236.633 1239.83 236.633C1236.94 236.633 1234.47 236.018 1232.43 234.79C1230.42 233.562 1228.89 231.838 1227.84 229.62C1226.8 227.402 1226.27 224.835 1226.27 221.92C1226.27 218.987 1226.81 216.402 1227.87 214.165C1228.95 211.91 1230.49 210.159 1232.49 208.912C1234.49 207.666 1236.84 207.042 1239.56 207.042C1242.29 207.042 1244.63 207.638 1246.57 208.83C1248.53 210.022 1250.03 211.745 1251.08 214C1252.14 216.255 1252.69 218.941 1252.73 222.057C1252.73 222.314 1252.59 222.442 1252.32 222.442H1231.36ZM1239.58 210.507C1237.27 210.507 1235.43 211.25 1234.06 212.735C1232.68 214.22 1231.83 216.328 1231.5 219.06H1247.31C1247.26 217.465 1246.93 216.026 1246.32 214.742C1245.72 213.441 1244.85 212.414 1243.71 211.662C1242.57 210.892 1241.2 210.507 1239.58 210.507ZM1254.19 236C1253.94 236 1253.81 235.862 1253.81 235.587V230.857C1253.81 230.582 1253.94 230.445 1254.19 230.445H1258.98C1259.11 230.445 1259.21 230.482 1259.28 230.555C1259.35 230.628 1259.39 230.729 1259.39 230.857V235.587C1259.39 235.862 1259.25 236 1258.98 236H1254.19ZM1259.98 208.335C1259.83 208.335 1259.73 208.298 1259.68 208.225C1259.62 208.133 1259.61 208.023 1259.65 207.895L1261 202.945V197.912C1261 197.784 1261.03 197.683 1261.11 197.61C1261.18 197.537 1261.28 197.5 1261.41 197.5H1265.67C1265.93 197.5 1266.06 197.637 1266.06 197.912V202.642C1266.06 202.807 1266 202.972 1265.89 203.137L1262.59 208.06C1262.46 208.243 1262.31 208.335 1262.13 208.335H1259.98ZM1267.16 208.335C1267.01 208.335 1266.91 208.298 1266.86 208.225C1266.8 208.133 1266.79 208.023 1266.83 207.895L1268.18 202.945V197.912C1268.18 197.784 1268.21 197.683 1268.29 197.61C1268.36 197.537 1268.46 197.5 1268.59 197.5H1272.85C1273.11 197.5 1273.24 197.637 1273.24 197.912V202.642C1273.24 202.807 1273.18 202.972 1273.07 203.137L1269.77 208.06C1269.64 208.243 1269.49 208.335 1269.3 208.335H1267.16Z" fill="#211D1D"/>
<path d="M684.331 297.41C684.494 297.41 684.576 297.497 684.576 297.672V299.737C684.576 299.912 684.494 300 684.331 300H676.018C674.968 300.292 673.819 300.438 672.571 300.438C670.237 300.438 668.19 299.918 666.428 298.88C664.667 297.83 663.302 296.348 662.333 294.435C661.365 292.522 660.881 290.299 660.881 287.767C660.881 285.189 661.359 282.943 662.316 281.03C663.284 279.117 664.649 277.647 666.411 276.62C668.184 275.582 670.243 275.062 672.588 275.062C674.933 275.062 676.987 275.576 678.748 276.602C680.522 277.629 681.892 279.099 682.861 281.012C683.829 282.926 684.313 285.183 684.313 287.785C684.313 289.932 683.952 291.839 683.228 293.507C682.517 295.164 681.502 296.506 680.183 297.532L681.706 297.41H684.331ZM664.258 287.785C664.258 289.862 664.591 291.658 665.256 293.175C665.932 294.692 666.895 295.858 668.143 296.675C669.392 297.48 670.873 297.882 672.588 297.882C674.315 297.882 675.802 297.48 677.051 296.675C678.299 295.87 679.256 294.709 679.921 293.192C680.597 291.676 680.936 289.873 680.936 287.785C680.936 285.697 680.603 283.888 679.938 282.36C679.273 280.832 678.311 279.659 677.051 278.842C675.791 278.026 674.297 277.617 672.571 277.617C670.844 277.617 669.357 278.026 668.108 278.842C666.86 279.647 665.903 280.814 665.238 282.342C664.585 283.871 664.258 285.685 664.258 287.785ZM695.374 300.438C692.388 300.438 690.124 299.597 688.584 297.917C687.044 296.237 686.28 293.84 686.292 290.725V282.99L686.222 275.762C686.222 275.587 686.303 275.5 686.467 275.5H689.372C689.535 275.5 689.617 275.587 689.617 275.762L689.547 282.92L689.564 290.707C689.564 292.936 690.031 294.68 690.964 295.94C691.909 297.188 693.379 297.812 695.374 297.812C697.439 297.812 698.956 297.188 699.924 295.94C700.893 294.68 701.377 292.936 701.377 290.707V282.972L701.307 275.762C701.307 275.587 701.388 275.5 701.552 275.5H704.194C704.358 275.5 704.439 275.587 704.439 275.762L704.369 282.99V290.725C704.369 293.852 703.617 296.255 702.112 297.935C700.607 299.603 698.361 300.438 695.374 300.438ZM717.928 300.438C715.595 300.438 713.541 299.918 711.768 298.88C710.006 297.83 708.641 296.348 707.673 294.435C706.705 292.522 706.22 290.299 706.22 287.767C706.22 285.189 706.705 282.943 707.673 281.03C708.641 279.117 710.006 277.647 711.768 276.62C713.541 275.582 715.6 275.062 717.945 275.062C720.29 275.062 722.344 275.576 724.105 276.602C725.867 277.629 727.232 279.099 728.2 281.012C729.169 282.926 729.653 285.183 729.653 287.785C729.653 290.317 729.163 292.539 728.183 294.452C727.215 296.366 725.844 297.842 724.07 298.88C722.309 299.918 720.261 300.438 717.928 300.438ZM717.945 297.882C719.66 297.882 721.142 297.48 722.39 296.675C723.65 295.87 724.613 294.709 725.278 293.192C725.943 291.676 726.275 289.873 726.275 287.785C726.275 285.697 725.943 283.888 725.278 282.36C724.613 280.832 723.65 279.659 722.39 278.842C721.142 278.026 719.655 277.617 717.928 277.617C716.201 277.617 714.708 278.026 713.448 278.842C712.2 279.647 711.243 280.814 710.578 282.342C709.925 283.859 709.598 285.673 709.598 287.785C709.598 289.862 709.93 291.658 710.595 293.175C711.272 294.692 712.235 295.858 713.483 296.675C714.743 297.48 716.23 297.882 717.945 297.882ZM735.794 300C735.631 300 735.549 299.912 735.549 299.737L735.689 287.872L735.584 277.985H728.724C728.561 277.985 728.479 277.903 728.479 277.74V275.762C728.479 275.587 728.561 275.5 728.724 275.5H745.787C745.868 275.5 745.932 275.523 745.979 275.57C746.026 275.617 746.049 275.681 746.049 275.762V277.74C746.049 277.903 745.962 277.985 745.787 277.985H738.927L738.822 287.872L738.962 299.737C738.962 299.912 738.88 300 738.717 300H735.794ZM747.718 300C747.543 300 747.456 299.912 747.456 299.737L747.578 287.312L747.456 275.762C747.456 275.587 747.543 275.5 747.718 275.5H762.628C762.71 275.5 762.774 275.523 762.821 275.57C762.868 275.617 762.891 275.681 762.891 275.762V277.722C762.891 277.804 762.868 277.868 762.821 277.915C762.774 277.962 762.71 277.985 762.628 277.985H750.798L750.693 285.685H761.788C761.963 285.685 762.051 285.767 762.051 285.93V287.907C762.051 288.071 761.963 288.152 761.788 288.152H750.693L750.798 297.515H762.908C762.99 297.515 763.054 297.538 763.101 297.585C763.148 297.632 763.171 297.696 763.171 297.777V299.737C763.171 299.819 763.148 299.883 763.101 299.93C763.054 299.977 762.99 300 762.908 300H747.718Z" fill="#D5CCBD"/>
</svg>
