<svg width="1425" height="368" viewBox="0 0 1425 368" fill="none" xmlns="http://www.w3.org/2000/svg">
<rect width="1424.53" height="367.168" fill="#FFC4DF"/>
<path d="M1240.28 314.57C1240.65 315.62 1241.09 316.32 1241.58 316.67C1242.09 316.997 1242.92 317.16 1244.06 317.16V318H1233.42V317.16C1234.61 317.16 1235.43 317.078 1235.87 316.915C1236.31 316.752 1236.54 316.448 1236.54 316.005C1236.54 315.748 1236.43 315.258 1236.22 314.535L1234.54 309.145H1225.16L1223.45 314.57C1223.21 315.27 1223.1 315.76 1223.1 316.04C1223.1 316.46 1223.32 316.752 1223.76 316.915C1224.2 317.078 1225 317.16 1226.14 317.16V318H1218.23V317.16C1219.35 317.16 1220.16 316.997 1220.65 316.67C1221.14 316.32 1221.56 315.62 1221.91 314.57L1230.1 289.58H1232.02L1240.28 314.57ZM1229.82 294.62L1225.62 307.78H1234.09L1229.96 294.62H1229.82ZM1259.48 312.12H1259.55L1266.69 290H1275.37V290.84C1274.27 290.84 1273.46 290.922 1272.92 291.085C1272.41 291.248 1272.06 291.517 1271.87 291.89C1271.71 292.263 1271.62 292.835 1271.62 293.605V314.395C1271.62 315.165 1271.71 315.737 1271.87 316.11C1272.06 316.483 1272.41 316.752 1272.92 316.915C1273.46 317.078 1274.27 317.16 1275.37 317.16V318H1263.96V317.16C1265.06 317.16 1265.86 317.078 1266.37 316.915C1266.89 316.752 1267.23 316.483 1267.39 316.11C1267.58 315.737 1267.67 315.165 1267.67 314.395V292.03H1267.56L1259.02 318.7H1257.45L1248.94 292.38H1248.84V314.395C1248.84 315.165 1248.92 315.737 1249.08 316.11C1249.27 316.483 1249.62 316.752 1250.13 316.915C1250.67 317.078 1251.49 317.16 1252.58 317.16V318H1243.66V317.16C1244.76 317.16 1245.56 317.078 1246.07 316.915C1246.59 316.752 1246.93 316.483 1247.09 316.11C1247.28 315.737 1247.37 315.165 1247.37 314.395V293.605C1247.37 292.835 1247.28 292.263 1247.09 291.89C1246.93 291.517 1246.59 291.248 1246.07 291.085C1245.56 290.922 1244.76 290.84 1243.66 290.84V290H1252.37L1259.48 312.12ZM1297.02 314.57C1297.39 315.62 1297.82 316.32 1298.31 316.67C1298.83 316.997 1299.65 317.16 1300.8 317.16V318H1290.16V317.16C1291.35 317.16 1292.16 317.078 1292.61 316.915C1293.05 316.752 1293.27 316.448 1293.27 316.005C1293.27 315.748 1293.17 315.258 1292.96 314.535L1291.28 309.145H1281.9L1280.18 314.57C1279.95 315.27 1279.83 315.76 1279.83 316.04C1279.83 316.46 1280.05 316.752 1280.5 316.915C1280.94 317.078 1281.73 317.16 1282.88 317.16V318H1274.97V317.16C1276.09 317.16 1276.89 316.997 1277.38 316.67C1277.87 316.32 1278.29 315.62 1278.64 314.57L1286.83 289.58H1288.76L1297.02 314.57ZM1286.55 294.62L1282.35 307.78H1290.82L1286.69 294.62H1286.55ZM1325.56 290.84C1324.47 290.84 1323.65 290.922 1323.11 291.085C1322.6 291.248 1322.25 291.517 1322.06 291.89C1321.9 292.263 1321.82 292.835 1321.82 293.605V318.35H1319.86L1305.58 295.495V314.395C1305.58 315.165 1305.67 315.737 1305.86 316.11C1306.04 316.483 1306.41 316.752 1306.94 316.915C1307.48 317.078 1308.32 317.16 1309.46 317.16V318H1300.4V317.16C1301.49 317.16 1302.3 317.078 1302.81 316.915C1303.33 316.752 1303.66 316.483 1303.83 316.11C1304.01 315.737 1304.11 315.165 1304.11 314.395V293.15L1304.07 293.08C1303.51 292.17 1302.96 291.575 1302.43 291.295C1301.91 290.992 1301.25 290.84 1300.43 290.84V290H1306.84L1320.35 311.875V293.605C1320.35 292.835 1320.25 292.263 1320.07 291.89C1319.9 291.517 1319.57 291.248 1319.05 291.085C1318.54 290.922 1317.73 290.84 1316.64 290.84V290H1325.56V290.84ZM1326.61 318V317.16C1327.71 317.16 1328.51 317.078 1329.03 316.915C1329.54 316.752 1329.88 316.483 1330.04 316.11C1330.23 315.737 1330.32 315.165 1330.32 314.395V293.605C1330.32 292.835 1330.23 292.263 1330.04 291.89C1329.88 291.517 1329.54 291.248 1329.03 291.085C1328.51 290.922 1327.71 290.84 1326.61 290.84V290H1336.69C1339.24 290 1341.56 290.513 1343.66 291.54C1345.78 292.567 1347.47 294.142 1348.73 296.265C1350.02 298.388 1350.66 301.013 1350.66 304.14C1350.66 307.15 1350.05 309.705 1348.84 311.805C1347.65 313.882 1346.03 315.433 1343.97 316.46C1341.92 317.487 1339.61 318 1337.04 318H1326.61ZM1336.62 316.565C1338.79 316.565 1340.61 316.04 1342.08 314.99C1343.58 313.94 1344.68 312.505 1345.41 310.685C1346.15 308.842 1346.53 306.742 1346.53 304.385C1346.53 301.772 1346.08 299.485 1345.2 297.525C1344.33 295.565 1343.16 294.06 1341.66 293.01C1340.17 291.96 1338.5 291.435 1336.66 291.435C1335.89 291.435 1335.32 291.505 1334.94 291.645C1334.5 291.738 1334.28 292.042 1334.28 292.555V315.06C1334.28 315.62 1334.46 316.017 1334.84 316.25C1335.21 316.46 1335.81 316.565 1336.62 316.565ZM1371.67 314.57C1372.04 315.62 1372.47 316.32 1372.96 316.67C1373.48 316.997 1374.3 317.16 1375.45 317.16V318H1364.81V317.16C1366 317.16 1366.81 317.078 1367.26 316.915C1367.7 316.752 1367.92 316.448 1367.92 316.005C1367.92 315.748 1367.82 315.258 1367.61 314.535L1365.93 309.145H1356.55L1354.83 314.57C1354.6 315.27 1354.48 315.76 1354.48 316.04C1354.48 316.46 1354.7 316.752 1355.15 316.915C1355.59 317.078 1356.38 317.16 1357.53 317.16V318H1349.62V317.16C1350.74 317.16 1351.54 316.997 1352.03 316.67C1352.52 316.32 1352.94 315.62 1353.29 314.57L1361.48 289.58H1363.41L1371.67 314.57ZM1361.2 294.62L1357 307.78H1365.47L1361.34 294.62H1361.2Z" fill="#E50600"/>
<path d="M74.71 79.905C74.3367 81.1417 73.7533 82.1217 72.96 82.845C72.19 83.5683 71.21 83.93 70.02 83.93C69.25 83.93 68.5033 83.825 67.78 83.615C67.0567 83.4283 66.1233 83.1367 64.98 82.74C63.79 82.32 62.775 81.9933 61.935 81.76C61.095 81.55 60.22 81.445 59.31 81.445C57.84 81.445 56.2417 81.76 54.515 82.39L53.815 79.94C55.0283 79.7067 56.3583 79.38 57.805 78.96C59.275 78.54 60.64 78.0733 61.9 77.56C59.8 77.5133 57.9333 76.8483 56.3 75.565C54.69 74.2583 53.4417 72.5083 52.555 70.315C51.6683 68.1217 51.225 65.6833 51.225 63C51.225 60.2933 51.68 57.8317 52.59 55.615C53.5 53.3983 54.7717 51.66 56.405 50.4C58.0617 49.1167 59.9517 48.475 62.075 48.475C64.2217 48.475 66.1233 49.1167 67.78 50.4C69.46 51.6833 70.755 53.4333 71.665 55.65C72.575 57.8667 73.03 60.3283 73.03 63.035C73.03 65.345 72.7033 67.4683 72.05 69.405C71.3967 71.3417 70.475 72.975 69.285 74.305H69.32C68.5033 75.285 67.325 76.195 65.785 77.035C64.245 77.875 62.6583 78.575 61.025 79.135C59.415 79.695 58.05 80.0917 56.93 80.325L57 80.605C59.0767 80.255 60.8383 80.08 62.285 80.08C63.4517 80.08 64.9217 80.2433 66.695 80.57C66.8117 80.5933 67.2317 80.6633 67.955 80.78C68.6783 80.92 69.3667 80.99 70.02 80.99C71.0233 80.99 71.8283 80.8617 72.435 80.605C73.065 80.3483 73.59 79.9167 74.01 79.31L74.71 79.905ZM55.25 60.025C55.25 62.615 55.5417 65.1467 56.125 67.62C56.7317 70.0933 57.6067 72.1233 58.75 73.71C59.9167 75.2733 61.305 76.055 62.915 76.055C64.1983 76.055 65.295 75.5883 66.205 74.655C67.1383 73.7217 67.8383 72.4967 68.305 70.98C68.7717 69.44 69.005 67.7717 69.005 65.975C69.005 63.4083 68.7017 60.9 68.095 58.45C67.5117 55.9767 66.6367 53.9467 65.47 52.36C64.3033 50.7733 62.9267 49.98 61.34 49.98C60.08 49.98 58.9833 50.4467 58.05 51.38C57.14 52.3133 56.44 53.55 55.95 55.09C55.4833 56.63 55.25 58.275 55.25 60.025ZM86.7098 77.56C83.5131 77.56 81.1681 76.6733 79.6748 74.9C78.1815 73.1033 77.4348 70.6883 77.4348 67.655V52.605C77.4348 51.835 77.3415 51.2633 77.1548 50.89C76.9915 50.5167 76.6531 50.2483 76.1398 50.085C75.6265 49.9217 74.8215 49.84 73.7248 49.84V49H85.1348V49.84C84.0381 49.84 83.2215 49.9217 82.6848 50.085C82.1715 50.2483 81.8215 50.5167 81.6348 50.89C81.4715 51.2633 81.3898 51.835 81.3898 52.605V67.655C81.3898 70.4317 81.9031 72.4617 82.9298 73.745C83.9798 75.005 85.5548 75.635 87.6548 75.635C89.6615 75.635 91.2015 74.97 92.2748 73.64C93.3715 72.2867 93.9198 70.2567 93.9198 67.55V52.605C93.9198 51.835 93.8265 51.2633 93.6398 50.89C93.4765 50.5167 93.1265 50.2483 92.5898 50.085C92.0765 49.9217 91.2715 49.84 90.1748 49.84V49H99.2048V49.84C98.1081 49.84 97.2915 49.9217 96.7548 50.085C96.2415 50.2483 95.8915 50.5167 95.7048 50.89C95.5415 51.2633 95.4598 51.835 95.4598 52.605V67.55C95.4598 70.49 94.7948 72.8933 93.4648 74.76C92.1348 76.6267 89.8831 77.56 86.7098 77.56ZM110.544 77.56C108.398 77.56 106.484 76.9183 104.804 75.635C103.148 74.3517 101.864 72.6017 100.954 70.385C100.044 68.1683 99.5893 65.7067 99.5893 63C99.5893 60.2933 100.044 57.8317 100.954 55.615C101.864 53.3983 103.136 51.66 104.769 50.4C106.426 49.1167 108.316 48.475 110.439 48.475C112.586 48.475 114.488 49.1167 116.144 50.4C117.824 51.6833 119.119 53.4333 120.029 55.65C120.939 57.8667 121.394 60.3283 121.394 63.035C121.394 65.765 120.939 68.2383 120.029 70.455C119.143 72.6483 117.871 74.3867 116.214 75.67C114.581 76.93 112.691 77.56 110.544 77.56ZM111.279 76.055C112.563 76.055 113.659 75.5883 114.569 74.655C115.503 73.7217 116.203 72.4967 116.669 70.98C117.136 69.44 117.369 67.7717 117.369 65.975C117.369 63.4083 117.066 60.9 116.459 58.45C115.876 55.9767 115.001 53.9467 113.834 52.36C112.668 50.7733 111.291 49.98 109.704 49.98C108.444 49.98 107.348 50.4467 106.414 51.38C105.504 52.3133 104.804 53.55 104.314 55.09C103.848 56.63 103.614 58.275 103.614 60.025C103.614 62.615 103.906 65.1467 104.489 67.62C105.096 70.0933 105.971 72.1233 107.114 73.71C108.281 75.2733 109.669 76.055 111.279 76.055ZM127.409 50.575C126.499 50.575 125.799 50.715 125.309 50.995C124.842 51.2517 124.481 51.7767 124.224 52.57C123.967 53.3633 123.781 54.565 123.664 56.175L122.649 56.105L123.104 50.05L123.209 49H142.494L142.564 50.05L143.019 56.105L142.039 56.175C141.899 54.5417 141.701 53.34 141.444 52.57C141.187 51.7767 140.814 51.2517 140.324 50.995C139.857 50.715 139.169 50.575 138.259 50.575H135.984C135.611 50.575 135.319 50.68 135.109 50.89C134.922 51.1 134.829 51.3917 134.829 51.765V73.395C134.829 74.165 134.911 74.7367 135.074 75.11C135.261 75.4833 135.611 75.7517 136.124 75.915C136.637 76.0783 137.442 76.16 138.539 76.16V77H127.129V76.16C128.226 76.16 129.031 76.0783 129.544 75.915C130.081 75.7517 130.431 75.4833 130.594 75.11C130.781 74.7367 130.874 74.165 130.874 73.395V51.765C130.874 50.9717 130.477 50.575 129.684 50.575H127.409ZM162.899 50.05L163.564 56.07L162.584 56.175C162.397 54.565 162.164 53.375 161.884 52.605C161.627 51.8117 161.266 51.275 160.799 50.995C160.332 50.715 159.656 50.575 158.769 50.575H153.764C153.227 50.575 152.819 50.715 152.539 50.995C152.259 51.275 152.119 51.6833 152.119 52.22V61.845H156.459C157.206 61.845 157.754 61.7517 158.104 61.565C158.477 61.355 158.734 60.97 158.874 60.41C159.037 59.8267 159.119 58.9283 159.119 57.715H159.924V67.2H159.119C159.119 66.01 159.037 65.135 158.874 64.575C158.734 63.9917 158.477 63.6067 158.104 63.42C157.754 63.21 157.206 63.105 156.459 63.105H152.119V73.43C152.119 74.2467 152.224 74.7833 152.434 75.04C152.644 75.2967 153.087 75.425 153.764 75.425H158.734C159.644 75.425 160.379 75.2617 160.939 74.935C161.499 74.6083 161.989 74.0017 162.409 73.115C162.852 72.205 163.307 70.8517 163.774 69.055L164.754 69.335L163.039 75.985L162.759 77H144.454V76.16C145.551 76.16 146.356 76.0783 146.869 75.915C147.382 75.7517 147.721 75.4833 147.884 75.11C148.071 74.7367 148.164 74.165 148.164 73.395V52.605C148.164 51.835 148.071 51.2633 147.884 50.89C147.721 50.5167 147.382 50.2483 146.869 50.085C146.356 49.9217 145.551 49.84 144.454 49.84V49H162.794L162.899 50.05Z" fill="#E50600"/>
<path d="M400.25 136.26C401.324 136.26 402.187 136.633 402.84 137.38C403.494 138.08 403.82 138.99 403.82 140.11C403.82 141.323 403.377 142.35 402.49 143.19C401.65 144.03 400.507 144.45 399.06 144.45C397.52 144.45 396.237 143.89 395.21 142.77C394.184 141.603 393.67 140.087 393.67 138.22C393.67 136.12 394.394 134.207 395.84 132.48C397.287 130.753 399.48 129.447 402.42 128.56V130.38C400.507 130.893 399.014 131.687 397.94 132.76C396.867 133.833 396.33 134.953 396.33 136.12C396.33 136.54 396.4 136.867 396.54 137.1C396.727 137.333 396.937 137.45 397.17 137.45C397.357 137.45 397.73 137.263 398.29 136.89C398.85 136.47 399.504 136.26 400.25 136.26ZM413.69 136.26C414.764 136.26 415.627 136.633 416.28 137.38C416.934 138.08 417.26 138.99 417.26 140.11C417.26 141.323 416.817 142.35 415.93 143.19C415.09 144.03 413.947 144.45 412.5 144.45C410.96 144.45 409.677 143.89 408.65 142.77C407.624 141.603 407.11 140.087 407.11 138.22C407.11 136.12 407.834 134.207 409.28 132.48C410.727 130.753 412.92 129.447 415.86 128.56V130.38C413.947 130.893 412.454 131.687 411.38 132.76C410.307 133.833 409.77 134.953 409.77 136.12C409.77 136.54 409.84 136.867 409.98 137.1C410.167 137.333 410.377 137.45 410.61 137.45C410.844 137.45 411.217 137.263 411.73 136.89C412.29 136.47 412.944 136.26 413.69 136.26ZM488.43 129.68C487.03 129.68 485.933 129.82 485.14 130.1C484.347 130.38 483.693 130.893 483.18 131.64C482.713 132.387 482.27 133.507 481.85 135L468.34 185.12H464.56L455.53 147.53L445.59 185.12H441.88L427.95 134.93C427.53 133.437 427.063 132.34 426.55 131.64C426.037 130.893 425.383 130.38 424.59 130.1C423.797 129.82 422.677 129.68 421.23 129.68V128H440.9V129.68C438.847 129.68 437.447 129.867 436.7 130.24C435.953 130.567 435.58 131.173 435.58 132.06C435.58 132.62 435.743 133.6 436.07 135L445.94 172.73H446.22L454.13 141.86L452.52 135C452.007 132.807 451.353 131.383 450.56 130.73C449.813 130.03 448.553 129.68 446.78 129.68V128H466.24V129.68C463.907 129.68 462.32 129.89 461.48 130.31C460.64 130.683 460.22 131.383 460.22 132.41C460.22 132.783 460.36 133.67 460.64 135.07L468.83 172.73H469.04L478.84 135C479.167 133.693 479.33 132.76 479.33 132.2C479.33 131.267 478.91 130.613 478.07 130.24C477.23 129.867 475.69 129.68 473.45 129.68V128H488.43V129.68ZM501.019 176.79C501.019 178.377 501.112 179.543 501.299 180.29C501.532 181.037 501.952 181.573 502.559 181.9C503.166 182.18 504.099 182.32 505.359 182.32V184H489.539V182.32C490.939 182.32 491.966 182.18 492.619 181.9C493.272 181.573 493.716 181.037 493.949 180.29C494.182 179.543 494.299 178.377 494.299 176.79L494.229 136.54C494.229 134.767 494.182 133.6 494.089 133.04C493.996 132.48 493.669 132.2 493.109 132.2C492.596 132.2 491.616 132.573 490.169 133.32L489.469 131.85L494.929 128.98L500.109 126.32L501.019 127.3V152.99H501.229C502.956 150.563 504.682 148.743 506.409 147.53C508.136 146.27 510.119 145.64 512.359 145.64C514.832 145.64 516.722 146.503 518.029 148.23C519.336 149.957 519.989 152.477 519.989 155.79V176.79C519.989 178.377 520.106 179.543 520.339 180.29C520.572 181.037 520.992 181.573 521.599 181.9C522.252 182.18 523.279 182.32 524.679 182.32V184H508.999V182.32C510.259 182.32 511.169 182.18 511.729 181.9C512.336 181.573 512.732 181.037 512.919 180.29C513.152 179.543 513.269 178.377 513.269 176.79V156.14C513.269 152.407 511.892 150.54 509.139 150.54C507.739 150.54 506.386 151.007 505.079 151.94C503.772 152.827 502.419 154.157 501.019 155.93V176.79ZM552.911 169.02C552.211 174.48 550.741 178.54 548.501 181.2C546.308 183.813 543.508 185.12 540.101 185.12C537.488 185.12 535.201 184.35 533.241 182.81C531.328 181.223 529.835 179.007 528.761 176.16C527.735 173.267 527.221 169.907 527.221 166.08C527.221 162.347 527.758 158.94 528.831 155.86C529.905 152.733 531.421 150.26 533.381 148.44C535.388 146.573 537.745 145.64 540.451 145.64C544.371 145.64 547.358 147.297 549.411 150.61C551.465 153.877 552.491 158.193 552.491 163.56H534.011V163.7C534.011 168.6 534.758 172.543 536.251 175.53C537.745 178.47 539.915 179.94 542.761 179.94C544.581 179.94 546.238 179.1 547.731 177.42C549.271 175.74 550.438 172.94 551.231 169.02H552.911ZM540.451 148.58C536.671 148.58 534.548 152.617 534.081 160.69H545.771C545.771 152.617 543.998 148.58 540.451 148.58ZM577.129 145.64C578.343 145.64 579.276 145.967 579.929 146.62C580.583 147.273 580.909 148.183 580.909 149.35C580.909 150.657 580.559 151.73 579.859 152.57C579.206 153.41 578.413 153.83 577.479 153.83C576.873 153.83 576.383 153.737 576.009 153.55C575.683 153.317 575.263 152.92 574.749 152.36C574.283 151.893 573.909 151.59 573.629 151.45C573.396 151.263 573.069 151.17 572.649 151.17C571.809 151.17 570.946 151.753 570.059 152.92C569.173 154.04 568.379 155.65 567.679 157.75V176.37C567.679 178.05 567.843 179.287 568.169 180.08C568.543 180.873 569.243 181.433 570.269 181.76C571.296 182.087 572.906 182.25 575.099 182.25V184H556.199V182.32C557.599 182.32 558.626 182.18 559.279 181.9C559.933 181.573 560.376 181.037 560.609 180.29C560.843 179.543 560.959 178.377 560.959 176.79V155.23C560.959 153.317 560.889 152.057 560.749 151.45C560.609 150.797 560.213 150.47 559.559 150.47C558.953 150.47 558.019 150.75 556.759 151.31L556.059 149.7L561.659 147.46L566.419 145.5L567.679 146.55V153.27H567.889C569.009 151.17 570.386 149.373 572.019 147.88C573.653 146.387 575.356 145.64 577.129 145.64ZM608.419 169.02C607.719 174.48 606.249 178.54 604.009 181.2C601.816 183.813 599.016 185.12 595.609 185.12C592.996 185.12 590.709 184.35 588.749 182.81C586.836 181.223 585.343 179.007 584.269 176.16C583.243 173.267 582.729 169.907 582.729 166.08C582.729 162.347 583.266 158.94 584.339 155.86C585.413 152.733 586.929 150.26 588.889 148.44C590.896 146.573 593.253 145.64 595.959 145.64C599.879 145.64 602.866 147.297 604.919 150.61C606.973 153.877 607.999 158.193 607.999 163.56H589.519V163.7C589.519 168.6 590.266 172.543 591.759 175.53C593.253 178.47 595.423 179.94 598.269 179.94C600.089 179.94 601.746 179.1 603.239 177.42C604.779 175.74 605.946 172.94 606.739 169.02H608.419ZM595.959 148.58C592.179 148.58 590.056 152.617 589.589 160.69H601.279C601.279 152.617 599.506 148.58 595.959 148.58ZM634.015 135.21C634.015 133.67 633.828 132.527 633.455 131.78C633.128 131.033 632.451 130.497 631.425 130.17C630.398 129.843 628.788 129.68 626.595 129.68V128H649.415V129.68C647.221 129.68 645.588 129.843 644.515 130.17C643.488 130.497 642.788 131.033 642.415 131.78C642.088 132.527 641.925 133.67 641.925 135.21V176.79C641.925 178.33 642.088 179.473 642.415 180.22C642.788 180.967 643.488 181.503 644.515 181.83C645.588 182.157 647.221 182.32 649.415 182.32V184H626.595V182.32C628.788 182.32 630.398 182.157 631.425 181.83C632.451 181.503 633.128 180.967 633.455 180.22C633.828 179.473 634.015 178.33 634.015 176.79V135.21ZM678.415 176.79C678.415 178.377 678.532 179.543 678.765 180.29C678.998 181.037 679.442 181.573 680.095 181.9C680.795 182.18 681.868 182.32 683.315 182.32V184H666.655V182.32C668.102 182.32 669.175 182.18 669.875 181.9C670.575 181.573 671.042 181.037 671.275 180.29C671.508 179.543 671.625 178.377 671.625 176.79V136.33C671.625 134.603 671.555 133.46 671.415 132.9C671.322 132.293 670.995 131.99 670.435 131.99C669.828 131.99 668.825 132.34 667.425 133.04L666.725 131.5L677.365 126.32L678.415 127.3V176.79ZM711.505 169.02C710.805 174.48 709.335 178.54 707.095 181.2C704.902 183.813 702.102 185.12 698.695 185.12C696.082 185.12 693.795 184.35 691.835 182.81C689.922 181.223 688.429 179.007 687.355 176.16C686.329 173.267 685.815 169.907 685.815 166.08C685.815 162.347 686.352 158.94 687.425 155.86C688.499 152.733 690.015 150.26 691.975 148.44C693.982 146.573 696.339 145.64 699.045 145.64C702.965 145.64 705.952 147.297 708.005 150.61C710.059 153.877 711.085 158.193 711.085 163.56H692.605V163.7C692.605 168.6 693.352 172.543 694.845 175.53C696.339 178.47 698.509 179.94 701.355 179.94C703.175 179.94 704.832 179.1 706.325 177.42C707.865 175.74 709.032 172.94 709.825 169.02H711.505ZM699.045 148.58C695.265 148.58 693.142 152.617 692.675 160.69H704.365C704.365 152.617 702.592 148.58 699.045 148.58ZM746.213 176.09C745.98 182.11 743.81 185.12 739.703 185.12C735.456 185.12 733.333 182.063 733.333 175.95V174.69C732.54 178.003 731.233 180.57 729.413 182.39C727.64 184.21 725.493 185.12 722.973 185.12C720.546 185.12 718.633 184.35 717.233 182.81C715.88 181.223 715.203 179.24 715.203 176.86C715.203 174.293 715.996 172.077 717.583 170.21C719.17 168.297 721.06 166.71 723.253 165.45C725.493 164.19 728.363 162.767 731.863 161.18L733.333 160.55V156.49C733.333 153.597 732.866 151.52 731.933 150.26C731.046 149 729.716 148.37 727.943 148.37C726.543 148.37 725.4 148.72 724.513 149.42C723.673 150.073 723.253 150.96 723.253 152.08C723.253 152.5 723.323 152.92 723.463 153.34C723.603 153.76 723.696 154.017 723.743 154.11C724.07 154.857 724.233 155.557 724.233 156.21C724.233 157.19 723.93 157.983 723.323 158.59C722.716 159.15 721.876 159.43 720.803 159.43C719.59 159.43 718.633 159.033 717.933 158.24C717.28 157.447 716.953 156.397 716.953 155.09C716.953 153.363 717.466 151.777 718.493 150.33C719.566 148.883 721.013 147.74 722.833 146.9C724.7 146.013 726.776 145.57 729.063 145.57C732.516 145.57 735.2 146.55 737.113 148.51C739.073 150.423 740.053 153.247 740.053 156.98V177.63C740.053 179.263 740.193 180.383 740.473 180.99C740.8 181.597 741.266 181.9 741.873 181.9C743.553 181.9 744.463 179.963 744.603 176.09H746.213ZM725.703 179.8C727.196 179.8 728.62 179.077 729.973 177.63C731.326 176.183 732.446 174.013 733.333 171.12V162.86C729.693 164.727 726.87 166.57 724.863 168.39C722.903 170.163 721.923 172.357 721.923 174.97C721.923 176.463 722.25 177.653 722.903 178.54C723.556 179.38 724.49 179.8 725.703 179.8ZM768.604 145.64C769.817 145.64 770.751 145.967 771.404 146.62C772.057 147.273 772.384 148.183 772.384 149.35C772.384 150.657 772.034 151.73 771.334 152.57C770.681 153.41 769.887 153.83 768.954 153.83C768.347 153.83 767.857 153.737 767.484 153.55C767.157 153.317 766.737 152.92 766.224 152.36C765.757 151.893 765.384 151.59 765.104 151.45C764.871 151.263 764.544 151.17 764.124 151.17C763.284 151.17 762.421 151.753 761.534 152.92C760.647 154.04 759.854 155.65 759.154 157.75V176.37C759.154 178.05 759.317 179.287 759.644 180.08C760.017 180.873 760.717 181.433 761.744 181.76C762.771 182.087 764.381 182.25 766.574 182.25V184H747.674V182.32C749.074 182.32 750.101 182.18 750.754 181.9C751.407 181.573 751.851 181.037 752.084 180.29C752.317 179.543 752.434 178.377 752.434 176.79V155.23C752.434 153.317 752.364 152.057 752.224 151.45C752.084 150.797 751.687 150.47 751.034 150.47C750.427 150.47 749.494 150.75 748.234 151.31L747.534 149.7L753.134 147.46L757.894 145.5L759.154 146.55V153.27H759.364C760.484 151.17 761.861 149.373 763.494 147.88C765.127 146.387 766.831 145.64 768.604 145.64ZM774.744 182.32C776.144 182.32 777.171 182.18 777.824 181.9C778.478 181.573 778.921 181.037 779.154 180.29C779.388 179.543 779.504 178.377 779.504 176.79V155.23C779.504 153.317 779.434 152.057 779.294 151.45C779.154 150.797 778.758 150.47 778.104 150.47C777.498 150.47 776.564 150.75 775.304 151.31L774.604 149.7L780.204 147.46L784.964 145.5L786.294 146.55V152.99H786.504C788.278 150.563 790.004 148.743 791.684 147.53C793.364 146.27 795.324 145.64 797.564 145.64C800.038 145.64 801.928 146.527 803.234 148.3C804.588 150.027 805.264 152.523 805.264 155.79V176.79C805.264 178.377 805.381 179.543 805.614 180.29C805.848 181.037 806.268 181.573 806.874 181.9C807.528 182.18 808.531 182.32 809.884 182.32V184H794.204V182.32C795.464 182.32 796.374 182.18 796.934 181.9C797.541 181.573 797.938 181.037 798.124 180.29C798.358 179.543 798.474 178.377 798.474 176.79V156.21C798.474 152.43 797.098 150.54 794.344 150.54C792.944 150.54 791.591 151.007 790.284 151.94C789.024 152.827 787.694 154.157 786.294 155.93V176.79C786.294 178.377 786.388 179.543 786.574 180.29C786.808 181.037 787.204 181.573 787.764 181.9C788.371 182.18 789.304 182.32 790.564 182.32V184H774.744V182.32ZM838.783 176.79C838.783 178.377 838.876 179.543 839.063 180.29C839.296 181.037 839.716 181.573 840.323 181.9C840.929 182.18 841.863 182.32 843.123 182.32V184H827.303V182.32C828.703 182.32 829.729 182.18 830.383 181.9C831.036 181.573 831.479 181.037 831.713 180.29C831.946 179.543 832.063 178.377 832.063 176.79L831.993 136.54C831.993 134.767 831.946 133.6 831.853 133.04C831.759 132.48 831.433 132.2 830.873 132.2C830.359 132.2 829.379 132.573 827.933 133.32L827.233 131.85L832.693 128.98L837.873 126.32L838.783 127.3V152.99H838.993C840.719 150.563 842.446 148.743 844.173 147.53C845.899 146.27 847.883 145.64 850.123 145.64C852.596 145.64 854.486 146.503 855.793 148.23C857.099 149.957 857.753 152.477 857.753 155.79V176.79C857.753 178.377 857.869 179.543 858.103 180.29C858.336 181.037 858.756 181.573 859.363 181.9C860.016 182.18 861.043 182.32 862.443 182.32V184H846.763V182.32C848.023 182.32 848.933 182.18 849.493 181.9C850.099 181.573 850.496 181.037 850.683 180.29C850.916 179.543 851.033 178.377 851.033 176.79V156.14C851.033 152.407 849.656 150.54 846.903 150.54C845.503 150.54 844.149 151.007 842.843 151.94C841.536 152.827 840.183 154.157 838.783 155.93V176.79ZM880.035 185.12C877.048 185.12 874.412 184.303 872.125 182.67C869.838 180.99 868.065 178.68 866.805 175.74C865.592 172.753 864.985 169.37 864.985 165.59C864.985 161.81 865.568 158.403 866.735 155.37C867.948 152.337 869.698 149.957 871.985 148.23C874.272 146.503 876.955 145.64 880.035 145.64C883.022 145.64 885.635 146.48 887.875 148.16C890.162 149.793 891.935 152.103 893.195 155.09C894.455 158.03 895.085 161.39 895.085 165.17C895.085 168.95 894.478 172.357 893.265 175.39C892.052 178.423 890.302 180.803 888.015 182.53C885.775 184.257 883.115 185.12 880.035 185.12ZM881.085 182.04C883.372 182.04 885.098 180.78 886.265 178.26C887.432 175.74 888.015 172.753 888.015 169.3C888.015 165.94 887.665 162.697 886.965 159.57C886.312 156.397 885.308 153.807 883.955 151.8C882.602 149.747 880.945 148.72 878.985 148.72C876.652 148.72 874.902 149.98 873.735 152.5C872.568 155.02 871.985 158.007 871.985 161.46C871.985 164.82 872.312 168.087 872.965 171.26C873.665 174.387 874.692 176.977 876.045 179.03C877.445 181.037 879.125 182.04 881.085 182.04ZM944.862 148.58C943.369 148.58 942.226 148.93 941.432 149.63C940.686 150.33 940.032 151.73 939.472 153.83L930.582 184.63H926.382L920.292 160.83L913.852 184.63H909.442L900.272 153.83C899.619 151.73 898.896 150.33 898.102 149.63C897.356 148.93 896.236 148.58 894.742 148.58V146.9H909.442V148.58C908.416 148.58 907.692 148.697 907.272 148.93C906.899 149.117 906.712 149.49 906.712 150.05C906.712 150.563 906.992 151.823 907.552 153.83L913.502 174.55H913.782L918.892 155.44L918.472 153.9C917.912 151.753 917.306 150.33 916.652 149.63C916.046 148.93 915.089 148.58 913.782 148.58V146.9H928.412V148.58C927.152 148.58 926.266 148.72 925.752 149C925.286 149.28 925.052 149.817 925.052 150.61C925.052 151.263 925.239 152.383 925.612 153.97L930.372 174.55H930.652L936.532 153.83C936.579 153.597 936.719 153.083 936.952 152.29C937.186 151.45 937.302 150.82 937.302 150.4C937.302 149.7 937.022 149.233 936.462 149C935.902 148.72 934.876 148.58 933.382 148.58V146.9H944.862V148.58ZM982.367 168.32C982.367 174.013 981.69 178.237 980.337 180.99C978.984 183.743 976.65 185.12 973.337 185.12C970.49 185.12 968.39 184.14 967.037 182.18C965.684 180.173 965.007 176.79 965.007 172.03V149.77H960.107V147.18C962.674 147.133 964.727 146.2 966.267 144.38C967.807 142.56 968.764 139.993 969.137 136.68H971.657V146.9H980.057V149.77H971.797V170.21C971.797 173.663 972.054 176.253 972.567 177.98C973.127 179.707 974.177 180.57 975.717 180.57C977.304 180.57 978.47 179.567 979.217 177.56C980.01 175.553 980.407 172.473 980.407 168.32H982.367ZM1000.76 185.12C997.771 185.12 995.134 184.303 992.848 182.67C990.561 180.99 988.788 178.68 987.528 175.74C986.314 172.753 985.708 169.37 985.708 165.59C985.708 161.81 986.291 158.403 987.458 155.37C988.671 152.337 990.421 149.957 992.708 148.23C994.994 146.503 997.678 145.64 1000.76 145.64C1003.74 145.64 1006.36 146.48 1008.6 148.16C1010.88 149.793 1012.66 152.103 1013.92 155.09C1015.18 158.03 1015.81 161.39 1015.81 165.17C1015.81 168.95 1015.2 172.357 1013.99 175.39C1012.77 178.423 1011.02 180.803 1008.74 182.53C1006.5 184.257 1003.84 185.12 1000.76 185.12ZM1001.81 182.04C1004.09 182.04 1005.82 180.78 1006.99 178.26C1008.15 175.74 1008.74 172.753 1008.74 169.3C1008.74 165.94 1008.39 162.697 1007.69 159.57C1007.03 156.397 1006.03 153.807 1004.68 151.8C1003.32 149.747 1001.67 148.72 999.708 148.72C997.374 148.72 995.624 149.98 994.458 152.5C993.291 155.02 992.708 158.007 992.708 161.46C992.708 164.82 993.034 168.087 993.688 171.26C994.388 174.387 995.414 176.977 996.768 179.03C998.168 181.037 999.848 182.04 1001.81 182.04ZM318.071 256.05C314.711 256.05 312.005 254.907 309.951 252.62C307.945 250.333 306.941 247.137 306.941 243.03C306.941 238.923 307.945 234.77 309.951 230.57C311.958 226.37 314.618 222.917 317.931 220.21C321.291 217.503 324.861 216.15 328.641 216.15C331.068 216.15 333.051 216.897 334.591 218.39C336.131 219.837 336.901 221.773 336.901 224.2C336.901 226.44 336.318 228.423 335.151 230.15C334.031 231.83 332.608 232.67 330.881 232.67C329.808 232.67 328.945 232.343 328.291 231.69C327.685 231.037 327.381 230.22 327.381 229.24C327.381 228.54 327.521 227.98 327.801 227.56C328.081 227.093 328.548 226.51 329.201 225.81C329.855 225.203 330.345 224.643 330.671 224.13C330.998 223.57 331.161 222.893 331.161 222.1C331.161 221.307 330.951 220.7 330.531 220.28C330.158 219.813 329.621 219.58 328.921 219.58C327.241 219.58 325.561 220.677 323.881 222.87C322.248 225.063 320.895 227.84 319.821 231.2C318.795 234.56 318.281 237.803 318.281 240.93C318.281 246.623 319.891 249.47 323.111 249.47C324.885 249.47 326.611 248.653 328.291 247.02C330.018 245.387 331.628 243.1 333.121 240.16H335.011C333.005 245.34 330.578 249.283 327.731 251.99C324.885 254.697 321.665 256.05 318.071 256.05ZM345.955 230.99C347.588 226.51 348.405 223.803 348.405 222.87C348.405 222.17 348.125 221.82 347.565 221.82C346.771 221.82 345.791 222.427 344.625 223.64C343.505 224.807 342.105 226.627 340.425 229.1H338.535C340.495 225.32 342.875 222.263 345.675 219.93C348.521 217.597 351.438 216.43 354.425 216.43C356.105 216.43 357.365 216.92 358.205 217.9C359.091 218.833 359.535 220.023 359.535 221.47C359.535 222.357 359.325 223.407 358.905 224.62C358.485 225.787 357.808 227.467 356.875 229.66L356.245 231.06L352.955 239.81H353.725C357.178 231.97 360.305 226.09 363.105 222.17C365.905 218.25 368.915 216.29 372.135 216.29C373.161 216.29 373.955 216.57 374.515 217.13C375.075 217.643 375.355 218.413 375.355 219.44C375.355 220.467 375.098 221.493 374.585 222.52C374.071 223.5 373.395 224.317 372.555 224.97C371.761 225.577 370.945 225.88 370.105 225.88C369.451 225.88 368.705 225.74 367.865 225.46C367.165 225.227 366.558 225.11 366.045 225.11C364.411 225.11 362.195 227.257 359.395 231.55C356.595 235.843 353.165 243.66 349.105 255H337.975L345.955 230.99ZM386.835 249.54C388.749 249.54 390.569 248.77 392.295 247.23C394.022 245.643 395.819 243.17 397.685 239.81H399.575C394.862 250.637 388.889 256.05 381.655 256.05C378.155 256.05 375.332 254.953 373.185 252.76C371.085 250.52 370.035 247.37 370.035 243.31C370.035 239.063 371.085 234.84 373.185 230.64C375.332 226.393 378.109 222.94 381.515 220.28C384.922 217.573 388.422 216.22 392.015 216.22C394.722 216.22 396.869 216.92 398.455 218.32C400.089 219.673 400.905 221.493 400.905 223.78C400.905 226.487 399.949 228.913 398.035 231.06C396.169 233.207 393.742 234.957 390.755 236.31C387.769 237.663 384.642 238.55 381.375 238.97C381.189 240.09 381.095 241.257 381.095 242.47C381.095 244.897 381.609 246.693 382.635 247.86C383.709 248.98 385.109 249.54 386.835 249.54ZM391.875 219.58C389.869 219.58 387.909 221.283 385.995 224.69C384.129 228.05 382.752 231.853 381.865 236.1C385.225 235.073 388.072 233.3 390.405 230.78C392.785 228.26 393.975 225.553 393.975 222.66C393.975 221.587 393.812 220.817 393.485 220.35C393.205 219.837 392.669 219.58 391.875 219.58ZM434.499 250.52C435.573 250.52 436.786 249.703 438.139 248.07C439.539 246.39 440.799 244.313 441.919 241.84H443.879C442.199 245.853 440.146 249.213 437.719 251.92C435.293 254.58 432.469 255.91 429.249 255.91C426.823 255.91 425.073 255.397 423.999 254.37C422.926 253.297 422.389 251.92 422.389 250.24C422.389 249.54 422.506 248.84 422.739 248.14C422.973 247.393 423.369 246.297 423.929 244.85L425.189 241.49L426.169 238.76H425.539C423.206 243.66 420.756 247.767 418.189 251.08C415.669 254.347 412.846 255.98 409.719 255.98C407.293 255.98 405.379 255 403.979 253.04C402.626 251.033 401.949 248.42 401.949 245.2C401.949 240.907 403.046 236.52 405.239 232.04C407.433 227.513 410.209 223.78 413.569 220.84C416.976 217.9 420.359 216.43 423.719 216.43C426.286 216.43 428.129 217.2 429.249 218.74C430.416 220.28 430.976 222.287 430.929 224.76H431.209L433.099 219.44C435.246 219.44 437.159 219.09 438.839 218.39C440.566 217.69 441.943 216.827 442.969 215.8L444.509 216.71L435.829 241.84C435.783 242.027 435.713 242.237 435.619 242.47C435.526 242.657 435.433 242.89 435.339 243.17C434.919 244.337 434.499 245.527 434.079 246.74C433.659 247.907 433.449 248.7 433.449 249.12C433.449 250.053 433.799 250.52 434.499 250.52ZM415.109 248.28C416.229 248.28 417.559 247.463 419.099 245.83C420.686 244.15 422.203 242.027 423.649 239.46C425.096 236.893 426.216 234.373 427.009 231.9C427.709 229.613 428.059 227.653 428.059 226.02C428.059 222.893 427.126 221.33 425.259 221.33C423.719 221.33 421.969 222.613 420.009 225.18C418.096 227.747 416.439 230.827 415.039 234.42C413.686 237.967 413.009 241.14 413.009 243.94C413.009 246.833 413.709 248.28 415.109 248.28ZM458.811 240.09C458.017 242.237 457.457 243.87 457.131 244.99C456.804 246.11 456.641 247.067 456.641 247.86C456.641 248.467 456.734 248.933 456.921 249.26C457.154 249.54 457.551 249.68 458.111 249.68C459.511 249.68 460.981 248.863 462.521 247.23C464.061 245.597 465.554 243.38 467.001 240.58H468.891C466.837 245.293 464.364 249.027 461.471 251.78C458.577 254.533 455.357 255.91 451.811 255.91C449.617 255.91 447.961 255.397 446.841 254.37C445.767 253.297 445.231 251.803 445.231 249.89C445.231 248.723 445.441 247.37 445.861 245.83C446.327 244.243 447.004 242.19 447.891 239.67L454.821 220.28H449.991L451.181 217.62C457.621 217.06 462.824 213.817 466.791 207.89H470.221L466.651 217.48H473.371L472.461 220.28H465.741L458.811 240.09ZM487.255 249.54C489.169 249.54 490.989 248.77 492.715 247.23C494.442 245.643 496.239 243.17 498.105 239.81H499.995C495.282 250.637 489.309 256.05 482.075 256.05C478.575 256.05 475.752 254.953 473.605 252.76C471.505 250.52 470.455 247.37 470.455 243.31C470.455 239.063 471.505 234.84 473.605 230.64C475.752 226.393 478.529 222.94 481.935 220.28C485.342 217.573 488.842 216.22 492.435 216.22C495.142 216.22 497.289 216.92 498.875 218.32C500.509 219.673 501.325 221.493 501.325 223.78C501.325 226.487 500.369 228.913 498.455 231.06C496.589 233.207 494.162 234.957 491.175 236.31C488.189 237.663 485.062 238.55 481.795 238.97C481.609 240.09 481.515 241.257 481.515 242.47C481.515 244.897 482.029 246.693 483.055 247.86C484.129 248.98 485.529 249.54 487.255 249.54ZM492.295 219.58C490.289 219.58 488.329 221.283 486.415 224.69C484.549 228.05 483.172 231.853 482.285 236.1C485.645 235.073 488.492 233.3 490.825 230.78C493.205 228.26 494.395 225.553 494.395 222.66C494.395 221.587 494.232 220.817 493.905 220.35C493.625 219.837 493.089 219.58 492.295 219.58ZM498.939 262.56C501.459 261.72 503.466 260.647 504.959 259.34C506.499 258.033 507.409 256.563 507.689 254.93C506.709 255.397 505.683 255.63 504.609 255.63C503.349 255.63 502.346 255.21 501.599 254.37C500.853 253.53 500.479 252.503 500.479 251.29C500.479 249.61 501.039 248.163 502.159 246.95C503.326 245.737 504.913 245.13 506.919 245.13C508.599 245.13 509.953 245.667 510.979 246.74C512.006 247.813 512.519 249.377 512.519 251.43C512.519 254.043 511.353 256.54 509.019 258.92C506.733 261.347 503.606 263.19 499.639 264.45L498.939 262.56ZM544.195 230.92C545.875 226.393 546.715 223.71 546.715 222.87C546.715 222.17 546.435 221.82 545.875 221.82C545.082 221.82 544.102 222.427 542.935 223.64C541.815 224.807 540.415 226.627 538.735 229.1H536.845C538.805 225.32 541.185 222.263 543.985 219.93C546.832 217.597 549.749 216.43 552.735 216.43C554.415 216.43 555.675 216.92 556.515 217.9C557.402 218.833 557.845 220.023 557.845 221.47C557.845 222.357 557.659 223.337 557.285 224.41C556.912 225.437 556.259 227.047 555.325 229.24L554.555 231.06L551.195 239.81H552.035C554.462 234.443 556.609 230.127 558.475 226.86C560.389 223.593 562.349 221.05 564.355 219.23C566.409 217.363 568.579 216.43 570.865 216.43C572.405 216.43 573.642 217.013 574.575 218.18C575.555 219.3 576.045 220.56 576.045 221.96C576.045 223.547 575.719 225.273 575.065 227.14C574.459 229.007 573.409 231.713 571.915 235.26C571.635 235.913 571.332 236.613 571.005 237.36C570.725 238.107 570.399 238.923 570.025 239.81H570.795C574.389 231.923 577.655 226.067 580.595 222.24C583.582 218.367 586.755 216.43 590.115 216.43C592.169 216.43 593.755 217.013 594.875 218.18C596.042 219.3 596.625 220.793 596.625 222.66C596.625 224.527 595.995 227.023 594.735 230.15C593.522 233.277 591.819 237.22 589.625 241.98L588.855 243.94C588.435 244.967 588.039 245.993 587.665 247.02C587.292 248 587.105 248.7 587.105 249.12C587.105 249.633 587.175 250.007 587.315 250.24C587.502 250.427 587.782 250.52 588.155 250.52C589.182 250.52 590.372 249.703 591.725 248.07C593.125 246.39 594.409 244.313 595.575 241.84H597.465C595.832 245.807 593.802 249.143 591.375 251.85C588.949 254.557 586.102 255.91 582.835 255.91C580.455 255.91 578.729 255.397 577.655 254.37C576.582 253.297 576.045 251.92 576.045 250.24C576.045 249.587 576.139 248.957 576.325 248.35C576.559 247.743 576.955 246.787 577.515 245.48L579.265 241.21L580.315 238.55C581.902 234.677 583.069 231.737 583.815 229.73C584.562 227.677 584.935 226.3 584.935 225.6C584.935 224.527 584.515 223.99 583.675 223.99C582.695 223.99 581.249 225.11 579.335 227.35C577.469 229.59 575.275 233.393 572.755 238.76C570.515 243.427 568.252 248.84 565.965 255H554.905L559.875 242.33C561.695 237.71 563.095 234.023 564.075 231.27C565.102 228.517 565.615 226.627 565.615 225.6C565.615 224.527 565.219 223.99 564.425 223.99C563.632 223.99 562.465 224.853 560.925 226.58C559.432 228.26 557.495 231.41 555.115 236.03C552.735 240.603 550.029 246.927 546.995 255H535.935L544.195 230.92ZM631.716 250.52C632.789 250.52 634.003 249.703 635.356 248.07C636.756 246.39 638.016 244.313 639.136 241.84H641.096C639.416 245.853 637.363 249.213 634.936 251.92C632.509 254.58 629.686 255.91 626.466 255.91C624.039 255.91 622.289 255.397 621.216 254.37C620.143 253.297 619.606 251.92 619.606 250.24C619.606 249.54 619.723 248.84 619.956 248.14C620.189 247.393 620.586 246.297 621.146 244.85L622.406 241.49L623.386 238.76H622.756C620.423 243.66 617.973 247.767 615.406 251.08C612.886 254.347 610.063 255.98 606.936 255.98C604.509 255.98 602.596 255 601.196 253.04C599.843 251.033 599.166 248.42 599.166 245.2C599.166 240.907 600.263 236.52 602.456 232.04C604.649 227.513 607.426 223.78 610.786 220.84C614.193 217.9 617.576 216.43 620.936 216.43C623.503 216.43 625.346 217.2 626.466 218.74C627.633 220.28 628.193 222.287 628.146 224.76H628.426L630.316 219.44C632.463 219.44 634.376 219.09 636.056 218.39C637.783 217.69 639.159 216.827 640.186 215.8L641.726 216.71L633.046 241.84C632.999 242.027 632.929 242.237 632.836 242.47C632.743 242.657 632.649 242.89 632.556 243.17C632.136 244.337 631.716 245.527 631.296 246.74C630.876 247.907 630.666 248.7 630.666 249.12C630.666 250.053 631.016 250.52 631.716 250.52ZM612.326 248.28C613.446 248.28 614.776 247.463 616.316 245.83C617.903 244.15 619.419 242.027 620.866 239.46C622.313 236.893 623.433 234.373 624.226 231.9C624.926 229.613 625.276 227.653 625.276 226.02C625.276 222.893 624.343 221.33 622.476 221.33C620.936 221.33 619.186 222.613 617.226 225.18C615.313 227.747 613.656 230.827 612.256 234.42C610.903 237.967 610.226 241.14 610.226 243.94C610.226 246.833 610.926 248.28 612.326 248.28ZM675.697 249.33C676.677 249.33 677.727 248.677 678.847 247.37C679.967 246.063 681.041 244.29 682.067 242.05H684.027C682.114 246.343 679.991 249.727 677.657 252.2C675.371 254.673 672.594 255.91 669.327 255.91C666.434 255.91 664.404 254.767 663.237 252.48C662.071 250.147 661.394 246.717 661.207 242.19L661.137 239.81L661.207 237.22C664.381 236.567 666.901 235.563 668.767 234.21C670.634 232.81 671.917 231.387 672.617 229.94C673.364 228.493 673.737 227.233 673.737 226.16C673.737 224.76 673.177 224.06 672.057 224.06C670.937 224.06 669.327 224.9 667.227 226.58C665.174 228.213 662.724 231.34 659.877 235.96C657.031 240.533 654.184 246.88 651.337 255H640.207L655.677 207.75C656.237 206.117 656.517 204.81 656.517 203.83C656.517 202.803 656.167 202.057 655.467 201.59C654.814 201.123 653.741 200.89 652.247 200.89L652.807 199C656.867 199 660.414 198.813 663.447 198.44C666.527 198.067 668.417 197.553 669.117 196.9L669.957 197.67L655.607 239.81H656.237C658.244 235.097 660.507 230.99 663.027 227.49C665.594 223.943 668.184 221.237 670.797 219.37C673.457 217.457 675.977 216.5 678.357 216.5C680.364 216.5 681.881 217.06 682.907 218.18C683.934 219.3 684.447 220.607 684.447 222.1C684.447 223.593 683.981 225.273 683.047 227.14C682.161 229.007 680.761 230.78 678.847 232.46C676.934 234.093 674.577 235.377 671.777 236.31H671.707C671.801 237.71 672.127 240.253 672.687 243.94C672.921 245.807 673.271 247.183 673.737 248.07C674.204 248.91 674.857 249.33 675.697 249.33ZM702.246 249.54C704.159 249.54 705.979 248.77 707.706 247.23C709.432 245.643 711.229 243.17 713.096 239.81H714.986C710.272 250.637 704.299 256.05 697.066 256.05C693.566 256.05 690.742 254.953 688.596 252.76C686.496 250.52 685.446 247.37 685.446 243.31C685.446 239.063 686.496 234.84 688.596 230.64C690.742 226.393 693.519 222.94 696.926 220.28C700.332 217.573 703.832 216.22 707.426 216.22C710.132 216.22 712.279 216.92 713.866 218.32C715.499 219.673 716.316 221.493 716.316 223.78C716.316 226.487 715.359 228.913 713.446 231.06C711.579 233.207 709.152 234.957 706.166 236.31C703.179 237.663 700.052 238.55 696.786 238.97C696.599 240.09 696.506 241.257 696.506 242.47C696.506 244.897 697.019 246.693 698.046 247.86C699.119 248.98 700.519 249.54 702.246 249.54ZM707.286 219.58C705.279 219.58 703.319 221.283 701.406 224.69C699.539 228.05 698.162 231.853 697.276 236.1C700.636 235.073 703.482 233.3 705.816 230.78C708.196 228.26 709.386 225.553 709.386 222.66C709.386 221.587 709.222 220.817 708.896 220.35C708.616 219.837 708.079 219.58 707.286 219.58ZM713.929 262.56C716.449 261.72 718.456 260.647 719.949 259.34C721.489 258.033 722.399 256.563 722.679 254.93C721.699 255.397 720.673 255.63 719.599 255.63C718.339 255.63 717.336 255.21 716.589 254.37C715.843 253.53 715.469 252.503 715.469 251.29C715.469 249.61 716.029 248.163 717.149 246.95C718.316 245.737 719.903 245.13 721.909 245.13C723.589 245.13 724.943 245.667 725.969 246.74C726.996 247.813 727.509 249.377 727.509 251.43C727.509 254.043 726.343 256.54 724.009 258.92C721.723 261.347 718.596 263.19 714.629 264.45L713.929 262.56ZM783.406 250.52C784.479 250.52 785.692 249.703 787.046 248.07C788.446 246.39 789.706 244.313 790.826 241.84H792.786C791.106 245.853 789.052 249.213 786.626 251.92C784.199 254.58 781.376 255.91 778.156 255.91C775.729 255.91 773.979 255.397 772.906 254.37C771.832 253.297 771.296 251.92 771.296 250.24C771.296 249.54 771.412 248.84 771.646 248.14C771.879 247.393 772.276 246.297 772.836 244.85L774.096 241.49L775.076 238.76H774.446C772.112 243.66 769.662 247.767 767.096 251.08C764.576 254.347 761.752 255.98 758.626 255.98C756.199 255.98 754.286 255 752.886 253.04C751.532 251.033 750.856 248.42 750.856 245.2C750.856 240.907 751.952 236.52 754.146 232.04C756.339 227.513 759.116 223.78 762.476 220.84C765.882 217.9 769.266 216.43 772.626 216.43C775.192 216.43 777.036 217.2 778.156 218.74C779.322 220.28 779.882 222.287 779.836 224.76H780.116L782.006 219.44C784.152 219.44 786.066 219.09 787.746 218.39C789.472 217.69 790.849 216.827 791.876 215.8L793.416 216.71L784.736 241.84C784.689 242.027 784.619 242.237 784.526 242.47C784.432 242.657 784.339 242.89 784.246 243.17C783.826 244.337 783.406 245.527 782.986 246.74C782.566 247.907 782.356 248.7 782.356 249.12C782.356 250.053 782.706 250.52 783.406 250.52ZM764.016 248.28C765.136 248.28 766.466 247.463 768.006 245.83C769.592 244.15 771.109 242.027 772.556 239.46C774.002 236.893 775.122 234.373 775.916 231.9C776.616 229.613 776.966 227.653 776.966 226.02C776.966 222.893 776.032 221.33 774.166 221.33C772.626 221.33 770.876 222.613 768.916 225.18C767.002 227.747 765.346 230.827 763.946 234.42C762.592 237.967 761.916 241.14 761.916 243.94C761.916 246.833 762.616 248.28 764.016 248.28ZM802.731 230.92C804.411 226.393 805.251 223.71 805.251 222.87C805.251 222.17 804.971 221.82 804.411 221.82C803.617 221.82 802.637 222.427 801.471 223.64C800.351 224.807 798.951 226.627 797.271 229.1H795.381C797.341 225.32 799.721 222.263 802.521 219.93C805.367 217.597 808.284 216.43 811.271 216.43C812.951 216.43 814.211 216.92 815.051 217.9C815.937 218.833 816.381 220.023 816.381 221.47C816.381 222.357 816.171 223.407 815.751 224.62C815.331 225.787 814.654 227.467 813.721 229.66L813.091 231.06L809.801 239.81H810.571C813.184 234.397 815.447 230.057 817.361 226.79C819.274 223.523 821.234 220.98 823.241 219.16C825.294 217.34 827.464 216.43 829.751 216.43C831.851 216.43 833.461 217.013 834.581 218.18C835.701 219.3 836.261 220.793 836.261 222.66C836.261 224.433 835.701 226.767 834.581 229.66C833.507 232.507 831.944 236.193 829.891 240.72L829.331 241.98L828.771 243.31C828.677 243.59 828.304 244.5 827.651 246.04C827.044 247.533 826.741 248.56 826.741 249.12C826.741 250.053 827.091 250.52 827.791 250.52C828.864 250.52 830.077 249.703 831.431 248.07C832.831 246.39 834.091 244.313 835.211 241.84H837.171C835.491 245.853 833.437 249.213 831.011 251.92C828.584 254.58 825.761 255.91 822.541 255.91C820.114 255.91 818.364 255.397 817.291 254.37C816.217 253.297 815.681 251.92 815.681 250.24C815.681 249.587 815.797 248.933 816.031 248.28C816.264 247.58 816.661 246.6 817.221 245.34L818.971 241.21L820.021 238.55C821.607 234.677 822.774 231.737 823.521 229.73C824.267 227.677 824.641 226.3 824.641 225.6C824.641 224.527 824.221 223.99 823.381 223.99C822.587 223.99 821.421 224.83 819.881 226.51C818.387 228.19 816.404 231.34 813.931 235.96C811.504 240.58 808.704 246.927 805.531 255H794.401L802.731 230.92ZM871.666 250.52C872.739 250.52 873.952 249.703 875.306 248.07C876.706 246.39 877.966 244.313 879.086 241.84H881.046C879.366 245.853 877.312 249.213 874.886 251.92C872.459 254.58 869.636 255.91 866.416 255.91C863.989 255.91 862.239 255.397 861.166 254.37C860.092 253.297 859.556 251.92 859.556 250.24C859.556 249.493 859.649 248.747 859.836 248C860.069 247.253 860.489 246.11 861.096 244.57C861.049 244.71 861.422 243.66 862.216 241.42L863.126 238.76H862.006C859.719 243.66 857.339 247.767 854.866 251.08C852.392 254.393 849.592 256.05 846.466 256.05C844.132 256.05 842.266 255.047 840.866 253.04C839.466 251.033 838.766 248.42 838.766 245.2C838.766 240.907 839.862 236.52 842.056 232.04C844.249 227.513 847.026 223.78 850.386 220.84C853.792 217.9 857.176 216.43 860.536 216.43C863.102 216.43 864.946 217.223 866.066 218.81C867.232 220.35 867.769 222.333 867.676 224.76H867.956L873.766 207.75C874.186 206.49 874.396 205.44 874.396 204.6C874.396 203.293 873.952 202.36 873.066 201.8C872.179 201.193 870.872 200.89 869.146 200.89L869.706 199C874.466 199 878.176 198.837 880.836 198.51C883.542 198.137 885.479 197.6 886.646 196.9L887.486 197.67L872.926 241.84C872.412 243.193 871.899 244.617 871.386 246.11C870.872 247.603 870.616 248.607 870.616 249.12C870.616 250.053 870.966 250.52 871.666 250.52ZM851.926 248.35C853.046 248.35 854.376 247.51 855.916 245.83C857.502 244.15 859.019 242.027 860.466 239.46C861.912 236.893 863.032 234.373 863.826 231.9C864.526 229.613 864.876 227.653 864.876 226.02C864.876 222.893 863.942 221.33 862.076 221.33C860.536 221.33 858.786 222.613 856.826 225.18C854.912 227.747 853.256 230.827 851.856 234.42C850.502 237.967 849.826 241.14 849.826 243.94C849.826 246.88 850.526 248.35 851.926 248.35ZM913.316 256.05C909.956 256.05 906.55 255.607 903.096 254.72C899.69 253.787 897.426 252.83 896.306 251.85L910.726 207.75C911.286 206.117 911.566 204.81 911.566 203.83C911.566 202.803 911.216 202.057 910.516 201.59C909.863 201.123 908.79 200.89 907.296 200.89L907.856 199C912.57 199 916.163 198.837 918.636 198.51C921.156 198.137 923 197.6 924.166 196.9L925.006 197.67L912.266 234.77L912.756 234.7C914.483 230.127 916.793 225.95 919.686 222.17C922.58 218.343 925.776 216.43 929.276 216.43C931.563 216.43 933.29 217.41 934.456 219.37C935.623 221.283 936.206 223.873 936.206 227.14C936.206 231.853 935.18 236.45 933.126 240.93C931.12 245.363 928.343 249.003 924.796 251.85C921.296 254.65 917.47 256.05 913.316 256.05ZM913.666 251.15C915.58 251.15 917.423 249.913 919.196 247.44C921.016 244.92 922.486 241.887 923.606 238.34C924.726 234.747 925.286 231.527 925.286 228.68C925.286 225.647 924.493 224.13 922.906 224.13C921.273 224.13 919.476 225.647 917.516 228.68C915.603 231.667 913.713 235.633 911.846 240.58L908.836 248.77C910.19 250.357 911.8 251.15 913.666 251.15ZM945.52 256.05C943.467 256.05 941.857 255.49 940.69 254.37C939.57 253.25 939.01 251.803 939.01 250.03C939.01 247.93 939.617 245.27 940.83 242.05C942.09 238.783 943.723 235.027 945.73 230.78C945.87 230.407 946.22 229.543 946.78 228.19C947.387 226.837 947.83 225.717 948.11 224.83C948.437 223.897 948.6 223.243 948.6 222.87C948.6 222.17 948.32 221.82 947.76 221.82C946.967 221.82 945.987 222.427 944.82 223.64C943.7 224.807 942.3 226.627 940.62 229.1H938.73C940.69 225.32 943.07 222.263 945.87 219.93C948.67 217.597 951.587 216.43 954.62 216.43C956.3 216.43 957.56 216.92 958.4 217.9C959.287 218.833 959.73 220.023 959.73 221.47C959.73 222.357 959.52 223.337 959.1 224.41C958.727 225.483 958.073 227.14 957.14 229.38L956.3 231.41L954.9 234.84C953.78 237.64 952.8 240.183 951.96 242.47C951.12 244.71 950.677 246.18 950.63 246.88V247.09C950.63 248.023 951.027 248.49 951.82 248.49C952.847 248.49 954.27 247.44 956.09 245.34C957.957 243.193 960.127 239.53 962.6 234.35C966.38 226.79 968.317 221.167 968.41 217.48H981.08L972.54 241.98C972.027 243.333 971.513 244.757 971 246.25C970.487 247.743 970.23 248.77 970.23 249.33C970.23 249.797 970.3 250.147 970.44 250.38C970.627 250.567 970.907 250.66 971.28 250.66C972.353 250.66 973.567 249.843 974.92 248.21C976.273 246.577 977.533 244.5 978.7 241.98H980.59C978.957 245.993 976.927 249.353 974.5 252.06C972.073 254.767 969.227 256.12 965.96 256.12C963.58 256.12 961.853 255.607 960.78 254.58C959.707 253.507 959.17 252.107 959.17 250.38C959.17 249.727 959.263 249.097 959.45 248.49C959.683 247.837 960.08 246.833 960.64 245.48C960.78 245.107 960.99 244.617 961.27 244.01C961.55 243.403 961.853 242.633 962.18 241.7L965.61 232.67H964.84C961.107 240.65 957.793 246.553 954.9 250.38C952.007 254.16 948.88 256.05 945.52 256.05ZM1002.76 211.46C1000.94 211.46 999.472 210.947 998.352 209.92C997.232 208.847 996.672 207.447 996.672 205.72C996.672 203.993 997.232 202.593 998.352 201.52C999.472 200.447 1000.94 199.91 1002.76 199.91C1004.54 199.91 1005.98 200.447 1007.1 201.52C1008.22 202.593 1008.78 203.993 1008.78 205.72C1008.78 207.447 1008.22 208.847 1007.1 209.92C1005.98 210.947 1004.54 211.46 1002.76 211.46ZM990.512 230.92C990.652 230.593 991.119 229.357 991.912 227.21C992.705 225.063 993.102 223.617 993.102 222.87C993.102 222.17 992.822 221.82 992.262 221.82C991.469 221.82 990.489 222.427 989.322 223.64C988.202 224.807 986.802 226.627 985.122 229.1H983.232C985.192 225.32 987.572 222.263 990.372 219.93C993.219 217.597 996.135 216.43 999.122 216.43C1000.8 216.43 1002.06 216.92 1002.9 217.9C1003.79 218.833 1004.23 220.023 1004.23 221.47C1004.23 222.543 1003.98 223.827 1003.46 225.32C1003 226.767 1002.27 228.727 1001.29 231.2L997.372 241.91L996.812 243.38C995.552 246.367 994.922 248.28 994.922 249.12C994.922 250.053 995.272 250.52 995.972 250.52C997.045 250.52 998.259 249.703 999.612 248.07C1001.01 246.39 1002.27 244.313 1003.39 241.84H1005.35C1003.72 245.807 1001.69 249.143 999.262 251.85C996.835 254.557 993.989 255.91 990.722 255.91C988.342 255.91 986.615 255.397 985.542 254.37C984.469 253.297 983.932 251.92 983.932 250.24C983.932 249.493 984.025 248.747 984.212 248C984.445 247.253 984.865 246.11 985.472 244.57C985.425 244.71 985.799 243.66 986.592 241.42L990.512 230.92ZM1019.48 241.84C1018.03 245.947 1017.31 248.373 1017.31 249.12C1017.31 250.053 1017.66 250.52 1018.36 250.52C1019.43 250.52 1020.64 249.703 1022 248.07C1023.4 246.39 1024.66 244.313 1025.78 241.84H1027.74C1026.06 245.853 1024 249.213 1021.58 251.92C1019.15 254.58 1016.33 255.91 1013.11 255.91C1010.68 255.91 1008.93 255.397 1007.86 254.37C1006.78 253.297 1006.25 251.92 1006.25 250.24C1006.25 249.26 1006.39 248.28 1006.67 247.3C1006.99 246.273 1007.67 244.29 1008.7 241.35L1019.55 207.75C1020.11 206.07 1020.39 204.74 1020.39 203.76C1020.39 202.733 1020.06 202.01 1019.41 201.59C1018.75 201.123 1017.68 200.89 1016.19 200.89L1016.75 199C1025.38 199 1030.79 198.3 1032.99 196.9L1033.83 197.67L1019.48 241.84ZM1061.91 250.52C1062.98 250.52 1064.2 249.703 1065.55 248.07C1066.95 246.39 1068.21 244.313 1069.33 241.84H1071.29C1069.61 245.853 1067.56 249.213 1065.13 251.92C1062.7 254.58 1059.88 255.91 1056.66 255.91C1054.23 255.91 1052.48 255.397 1051.41 254.37C1050.34 253.297 1049.8 251.92 1049.8 250.24C1049.8 249.493 1049.89 248.747 1050.08 248C1050.31 247.253 1050.73 246.11 1051.34 244.57C1051.29 244.71 1051.67 243.66 1052.46 241.42L1053.37 238.76H1052.25C1049.96 243.66 1047.58 247.767 1045.11 251.08C1042.64 254.393 1039.84 256.05 1036.71 256.05C1034.38 256.05 1032.51 255.047 1031.11 253.04C1029.71 251.033 1029.01 248.42 1029.01 245.2C1029.01 240.907 1030.11 236.52 1032.3 232.04C1034.49 227.513 1037.27 223.78 1040.63 220.84C1044.04 217.9 1047.42 216.43 1050.78 216.43C1053.35 216.43 1055.19 217.223 1056.31 218.81C1057.48 220.35 1058.01 222.333 1057.92 224.76H1058.2L1064.01 207.75C1064.43 206.49 1064.64 205.44 1064.64 204.6C1064.64 203.293 1064.2 202.36 1063.31 201.8C1062.42 201.193 1061.12 200.89 1059.39 200.89L1059.95 199C1064.71 199 1068.42 198.837 1071.08 198.51C1073.79 198.137 1075.72 197.6 1076.89 196.9L1077.73 197.67L1063.17 241.84C1062.66 243.193 1062.14 244.617 1061.63 246.11C1061.12 247.603 1060.86 248.607 1060.86 249.12C1060.86 250.053 1061.21 250.52 1061.91 250.52ZM1042.17 248.35C1043.29 248.35 1044.62 247.51 1046.16 245.83C1047.75 244.15 1049.26 242.027 1050.71 239.46C1052.16 236.893 1053.28 234.373 1054.07 231.9C1054.77 229.613 1055.12 227.653 1055.12 226.02C1055.12 222.893 1054.19 221.33 1052.32 221.33C1050.78 221.33 1049.03 222.613 1047.07 225.18C1045.16 227.747 1043.5 230.827 1042.1 234.42C1040.75 237.967 1040.07 241.14 1040.07 243.94C1040.07 246.88 1040.77 248.35 1042.17 248.35ZM1079.55 256.12C1078.39 256.12 1077.41 255.723 1076.61 254.93C1075.82 254.137 1075.42 253.157 1075.42 251.99C1075.42 250.87 1075.82 249.913 1076.61 249.12C1077.41 248.28 1078.39 247.86 1079.55 247.86C1080.67 247.86 1081.63 248.28 1082.42 249.12C1083.26 249.913 1083.68 250.87 1083.68 251.99C1083.68 253.157 1083.26 254.137 1082.42 254.93C1081.63 255.723 1080.67 256.12 1079.55 256.12ZM1107.4 205.37C1106.33 205.37 1105.46 205.02 1104.81 204.32C1104.16 203.573 1103.83 202.663 1103.83 201.59C1103.83 200.33 1104.25 199.28 1105.09 198.44C1105.98 197.6 1107.14 197.18 1108.59 197.18C1110.13 197.18 1111.41 197.763 1112.44 198.93C1113.47 200.05 1113.98 201.543 1113.98 203.41C1113.98 205.557 1113.26 207.493 1111.81 209.22C1110.41 210.947 1108.22 212.253 1105.23 213.14V211.32C1107.1 210.76 1108.57 209.943 1109.64 208.87C1110.76 207.797 1111.32 206.7 1111.32 205.58C1111.32 204.693 1111.04 204.25 1110.48 204.25C1110.29 204.25 1109.92 204.437 1109.36 204.81C1108.8 205.183 1108.15 205.37 1107.4 205.37ZM1093.96 205.37C1092.89 205.37 1092.02 205.02 1091.37 204.32C1090.72 203.573 1090.39 202.663 1090.39 201.59C1090.39 200.33 1090.81 199.28 1091.65 198.44C1092.54 197.6 1093.7 197.18 1095.15 197.18C1096.69 197.18 1097.97 197.763 1099 198.93C1100.03 200.05 1100.54 201.543 1100.54 203.41C1100.54 205.557 1099.82 207.493 1098.37 209.22C1096.97 210.947 1094.78 212.253 1091.79 213.14V211.32C1093.66 210.76 1095.13 209.943 1096.2 208.87C1097.32 207.797 1097.88 206.7 1097.88 205.58C1097.88 204.693 1097.6 204.25 1097.04 204.25C1096.85 204.25 1096.48 204.437 1095.92 204.81C1095.36 205.183 1094.71 205.37 1093.96 205.37Z" fill="#E50600"/>
</svg>
