<svg width="1425" height="304" viewBox="0 0 1425 304" fill="none" xmlns="http://www.w3.org/2000/svg">
<rect width="1425" height="304" fill="#F3F3F3"/>
<path d="M105.2 133.75C103.567 133.75 102 133.467 100.5 132.9C99.0333 132.333 97.7667 131.583 96.7 130.65C96.3667 130.383 96.0833 130.25 95.85 130.25C95.45 130.25 95.1833 130.533 95.05 131.1L94.6 133.25H93.1L93.3 117.6H94.85C94.9833 119.7 95.4833 121.8 96.35 123.9C97.25 126 98.4333 127.733 99.9 129.1C101.4 130.467 103.083 131.15 104.95 131.15C106.617 131.15 107.883 130.65 108.75 129.65C109.65 128.617 110.1 127.383 110.1 125.95C110.1 124.15 109.533 122.533 108.4 121.1C107.3 119.633 105.633 118.05 103.4 116.35C100.867 114.45 98.9833 112.967 97.75 111.9C96.5167 110.8 95.5 109.533 94.7 108.1C93.9333 106.633 93.55 104.9 93.55 102.9C93.55 100.667 94.05 98.75 95.05 97.15C96.05 95.5167 97.4 94.2833 99.1 93.45C100.833 92.6167 102.733 92.2 104.8 92.2C107.7 92.2 110.117 93.05 112.05 94.75C112.417 95.05 112.733 95.2 113 95.2C113.5 95.2 113.8 94.85 113.9 94.15L114.2 92.7H115.55L116.1 106.05H114.65C114.517 104.217 114.05 102.433 113.25 100.7C112.483 98.9667 111.433 97.55 110.1 96.45C108.8 95.35 107.317 94.8 105.65 94.8C104.15 94.8 102.983 95.2667 102.15 96.2C101.317 97.1 100.9 98.2167 100.9 99.55C100.9 100.583 101.133 101.517 101.6 102.35C102.067 103.15 102.8 103.983 103.8 104.85C104.8 105.717 106.267 106.867 108.2 108.3C110.4 109.933 112.15 111.4 113.45 112.7C114.75 114 115.75 115.4 116.45 116.9C117.15 118.4 117.5 120.117 117.5 122.05C117.5 124.483 116.933 126.583 115.8 128.35C114.7 130.117 113.217 131.467 111.35 132.4C109.483 133.3 107.433 133.75 105.2 133.75ZM124.304 98.7C124.304 97.6333 124.138 96.8 123.804 96.2C123.504 95.5667 122.954 95.1 122.154 94.8C121.388 94.5 120.254 94.35 118.754 94.35V93H139.254V94.35C137.121 94.35 135.671 94.6833 134.904 95.35C134.138 95.9833 133.754 97.1 133.754 98.7V127.25C133.754 128.85 134.138 129.983 134.904 130.65C135.671 131.283 137.121 131.6 139.254 131.6V133H118.754V131.6C120.254 131.6 121.388 131.45 122.154 131.15C122.954 130.85 123.504 130.4 123.804 129.8C124.138 129.167 124.304 128.317 124.304 127.25V98.7ZM172.839 127.6C173.405 129.2 174.105 130.267 174.939 130.8C175.772 131.333 177.039 131.6 178.739 131.6V133H159.089V131.6C160.822 131.6 162.022 131.45 162.689 131.15C163.355 130.817 163.689 130.283 163.689 129.55C163.689 129.083 163.555 128.417 163.289 127.55L161.389 121.5H148.839L146.839 127.55C146.505 128.483 146.339 129.183 146.339 129.65C146.339 130.35 146.655 130.85 147.289 131.15C147.955 131.45 149.105 131.6 150.739 131.6V133H138.189V131.6C139.855 131.6 141.105 131.333 141.939 130.8C142.772 130.233 143.455 129.167 143.989 127.6L156.039 92.55H160.489L172.839 127.6ZM155.189 102.4L149.639 119.05H160.639L155.389 102.4H155.189ZM181.823 96C180.523 96 179.49 96.2333 178.723 96.7C177.956 97.1667 177.356 97.9833 176.923 99.15C176.49 100.317 176.206 101.983 176.073 104.15L174.423 104.05L174.973 95.25L175.123 93H206.073L206.223 95.25L206.773 104.05L205.123 104.15C204.99 101.983 204.706 100.317 204.273 99.15C203.84 97.9833 203.24 97.1667 202.473 96.7C201.706 96.2333 200.673 96 199.373 96H197.223C195.956 96 195.323 96.6167 195.323 97.85V127.25C195.323 128.317 195.473 129.167 195.773 129.8C196.106 130.4 196.656 130.85 197.423 131.15C198.223 131.45 199.373 131.6 200.873 131.6V133H180.373V131.6C182.506 131.6 183.956 131.283 184.723 130.65C185.49 129.983 185.873 128.85 185.873 127.25V97.85C185.873 96.6167 185.256 96 184.023 96H181.823Z" fill="#282F2D"/>
<path d="M1312.77 230L1312.86 230.9L1313.43 236.06L1312.59 236.15C1312.14 232.04 1311.45 231.35 1309.32 231.35H1305.03C1304.1 231.35 1303.62 231.86 1303.62 232.76V241.01H1307.34C1309.11 241.01 1309.62 240.56 1309.62 237.47H1310.31V245.6H1309.62C1309.62 242.54 1309.11 242.09 1307.34 242.09H1303.62V250.94C1303.62 252.35 1303.86 252.65 1305.03 252.65H1309.29C1311.54 252.65 1312.41 251.78 1313.61 247.19L1314.45 247.43L1312.98 253.13L1312.74 254H1297.05V253.28C1299.84 253.28 1300.23 252.74 1300.23 250.91V233.09C1300.23 231.26 1299.84 230.72 1297.05 230.72V230H1312.77ZM1320.73 229.7V250.91C1320.73 252.83 1321 253.28 1322.83 253.28V254H1315.69V253.28C1317.52 253.28 1317.82 252.83 1317.82 250.91V233.57C1317.82 231.65 1317.82 231.26 1316.02 232.16L1315.72 231.5L1320.28 229.28L1320.73 229.7ZM1328.99 229.7V250.91C1328.99 252.83 1329.26 253.28 1331.09 253.28V254H1323.95V253.28C1325.78 253.28 1326.08 252.83 1326.08 250.91V233.57C1326.08 231.65 1326.08 231.26 1324.28 232.16L1323.98 231.5L1328.54 229.28L1328.99 229.7ZM1335.75 234.62C1334.61 234.62 1333.8 233.84 1333.8 232.79C1333.8 231.71 1334.61 230.93 1335.75 230.93C1336.86 230.93 1337.67 231.71 1337.67 232.79C1337.67 233.84 1336.86 234.62 1335.75 234.62ZM1337.43 237.95V250.91C1337.43 252.83 1337.73 253.28 1339.56 253.28V254H1332.42V253.28C1334.25 253.28 1334.55 252.83 1334.55 250.91V241.67C1334.55 239.66 1334.52 239.24 1332.78 239.96L1332.51 239.27L1336.92 237.5L1337.43 237.95ZM1347.31 254.48C1343.41 254.48 1340.86 251.03 1340.86 246.11C1340.86 241.28 1343.23 237.56 1347.31 237.56C1351.18 237.56 1353.76 241.01 1353.76 245.93C1353.76 250.76 1351.36 254.48 1347.31 254.48ZM1347.76 253.16C1349.89 253.16 1350.73 250.34 1350.73 247.7C1350.73 243.62 1349.5 238.88 1346.86 238.88C1344.73 238.88 1343.86 241.7 1343.86 244.34C1343.86 248.42 1345.12 253.16 1347.76 253.16ZM1363.35 247.28H1364.19C1364.19 251.96 1363.26 254.48 1360.32 254.48C1357.98 254.48 1356.75 253.07 1356.75 248.87V239.33H1354.65V238.22C1356.84 238.16 1358.22 236.54 1358.52 233.72H1359.6V238.1H1363.2V239.33H1359.66V248.09C1359.66 250.76 1359.93 252.53 1361.34 252.53C1362.69 252.53 1363.35 250.85 1363.35 247.28ZM1373.69 247.28H1374.53C1374.53 251.96 1373.6 254.48 1370.66 254.48C1368.32 254.48 1367.09 253.07 1367.09 248.87V239.33H1364.99V238.22C1367.18 238.16 1368.56 236.54 1368.86 233.72H1369.94V238.1H1373.54V239.33H1370V248.09C1370 250.76 1370.27 252.53 1371.68 252.53C1373.03 252.53 1373.69 250.85 1373.69 247.28Z" fill="#C2BEBE"/>
<path d="M103.46 207.91V208.75C97.475 204.83 92.75 198.215 92.75 189.15C92.75 179.945 97.09 173.015 102.865 169.55V170.39C98.63 174.345 96.775 181.555 96.775 189.15C96.775 196.255 98.945 203.605 103.46 207.91ZM105.481 200V199.16C107.511 199.16 107.861 198.635 107.861 196.395V185.615C107.861 183.27 107.861 182.78 105.761 183.655L105.411 182.85L108.211 181.73L110.591 180.75L111.256 181.275V184.495H111.361C112.936 182.325 114.511 180.82 116.891 180.82C119.376 180.82 120.741 182.605 120.741 185.895V196.395C120.741 198.635 121.056 199.16 123.051 199.16V200H115.211V199.16C117.066 199.16 117.346 198.635 117.346 196.395V186.105C117.346 184.18 116.611 183.27 115.281 183.27C113.846 183.27 112.586 184.25 111.256 185.965V196.395C111.256 198.635 111.536 199.16 113.391 199.16V200H105.481ZM127.525 200.56C126.37 200.56 125.46 199.65 125.46 198.495C125.46 197.375 126.37 196.43 127.525 196.43C128.645 196.43 129.59 197.375 129.59 198.495C129.59 199.65 128.645 200.56 127.525 200.56ZM132.382 208.75V207.91C136.897 203.605 139.067 196.255 139.067 189.15C139.067 181.555 137.212 174.345 132.977 170.39V169.55C138.752 173.015 143.092 179.945 143.092 189.15C143.092 198.215 138.367 204.83 132.382 208.75ZM159.883 173.575H157.608C155.053 173.575 154.213 174.345 153.863 179.175L152.848 179.105L153.303 173.05L153.408 172H172.693L172.763 173.05L173.218 179.105L172.238 179.175C171.853 174.345 171.048 173.575 168.458 173.575H166.183C165.448 173.575 165.028 173.995 165.028 174.765V196.395C165.028 198.53 165.483 199.16 168.738 199.16V200H157.328V199.16C160.618 199.16 161.073 198.53 161.073 196.395V174.765C161.073 173.995 160.653 173.575 159.883 173.575ZM180.498 185.965V196.395C180.498 198.635 180.813 199.16 182.668 199.16V200H174.758V199.16C176.788 199.16 177.138 198.635 177.138 196.395L177.103 176.27C177.103 174.03 177.173 173.575 175.073 174.66L174.723 173.925L177.453 172.49L180.043 171.16L180.498 171.65V184.495H180.603C182.178 182.325 183.788 180.82 186.168 180.82C188.653 180.82 189.983 182.605 189.983 185.895V196.395C189.983 198.635 190.298 199.16 192.328 199.16V200H184.488V199.16C186.308 199.16 186.623 198.635 186.623 196.395V186.07C186.623 184.145 185.853 183.27 184.558 183.27C183.088 183.27 181.828 184.25 180.498 185.965ZM205.604 192.51H206.444C205.709 198.145 203.329 200.56 200.039 200.56C196.084 200.56 193.599 196.815 193.599 191.04C193.599 185.51 196.049 180.82 200.214 180.82C204.309 180.82 206.234 184.67 206.234 189.78H196.994V189.85C196.994 194.61 198.464 197.97 201.369 197.97C202.944 197.97 204.764 196.745 205.604 192.51ZM200.214 182.29C198.114 182.29 197.239 184.845 197.029 188.345H202.874C202.874 184.985 202.279 182.29 200.214 182.29ZM222.462 200.56C218.367 200.56 215.987 196.64 215.987 191.04C215.987 185.23 218.542 180.82 223.057 180.82C225.997 180.82 227.992 182.745 227.992 185.37C227.992 186.84 227.327 187.715 226.137 187.715C225.052 187.715 224.492 186.98 224.492 186.105C224.492 185.51 224.737 184.81 224.737 184.075C224.737 182.885 224.072 182.29 223.022 182.29C220.502 182.29 219.452 185.755 219.452 189.71C219.452 194.26 220.852 197.9 223.722 197.9C225.297 197.9 227.082 196.71 227.712 192.3H228.552C228.167 198.11 225.612 200.56 222.462 200.56ZM240.565 180.82C241.79 180.82 242.455 181.52 242.455 182.675C242.455 184.04 241.65 184.915 240.74 184.915C240.11 184.915 239.83 184.67 239.375 184.18C238.92 183.725 238.745 183.585 238.325 183.585C237.52 183.585 236.575 184.74 235.84 186.875V196.185C235.84 198.565 236.365 199.125 239.55 199.125V200H230.1V199.16C232.13 199.16 232.48 198.635 232.48 196.395V185.615C232.48 183.27 232.48 182.78 230.38 183.655L230.03 182.85L232.83 181.73L235.21 180.75L235.84 181.275V184.635H235.945C236.925 182.78 238.64 180.82 240.565 180.82ZM250.89 200.56C246.34 200.56 243.365 196.535 243.365 190.795C243.365 185.16 246.13 180.82 250.89 180.82C255.405 180.82 258.415 184.845 258.415 190.585C258.415 196.22 255.615 200.56 250.89 200.56ZM251.415 199.02C253.9 199.02 254.88 195.73 254.88 192.65C254.88 187.89 253.445 182.36 250.365 182.36C247.88 182.36 246.865 185.65 246.865 188.73C246.865 193.49 248.335 199.02 251.415 199.02ZM266.646 200.56C264.861 200.56 263.566 199.825 262.831 199.3C262.376 198.95 262.096 199.055 261.886 199.475L261.606 200.175H260.836L260.591 192.615H261.361C261.886 196.78 263.881 199.09 266.296 199.09C267.941 199.09 268.816 197.97 268.816 196.185C268.816 194.61 268.081 193.945 264.826 191.32C261.851 188.975 260.836 187.61 260.836 185.615C260.836 182.71 262.936 180.82 265.701 180.82C267.276 180.82 268.361 181.485 268.991 182.01C269.446 182.43 269.796 182.255 269.901 181.835L270.111 181.065H270.916L271.056 187.19H270.286C269.866 184.46 268.326 182.29 265.981 182.29C264.581 182.29 263.671 183.235 263.671 184.635C263.671 186.105 264.581 186.875 267.031 188.8C270.181 191.285 271.686 192.79 271.686 195.45C271.686 198.915 269.341 200.56 266.646 200.56ZM279.737 200.56C277.952 200.56 276.657 199.825 275.922 199.3C275.467 198.95 275.187 199.055 274.977 199.475L274.697 200.175H273.927L273.682 192.615H274.452C274.977 196.78 276.972 199.09 279.387 199.09C281.032 199.09 281.907 197.97 281.907 196.185C281.907 194.61 281.172 193.945 277.917 191.32C274.942 188.975 273.927 187.61 273.927 185.615C273.927 182.71 276.027 180.82 278.792 180.82C280.367 180.82 281.452 181.485 282.082 182.01C282.537 182.43 282.887 182.255 282.992 181.835L283.202 181.065H284.007L284.147 187.19H283.377C282.957 184.46 281.417 182.29 279.072 182.29C277.672 182.29 276.762 183.235 276.762 184.635C276.762 186.105 277.672 186.875 280.122 188.8C283.272 191.285 284.777 192.79 284.777 195.45C284.777 198.915 282.432 200.56 279.737 200.56ZM290.381 177.39C289.051 177.39 288.106 176.48 288.106 175.255C288.106 173.995 289.051 173.085 290.381 173.085C291.676 173.085 292.621 173.995 292.621 175.255C292.621 176.48 291.676 177.39 290.381 177.39ZM292.341 181.275V196.395C292.341 198.635 292.691 199.16 294.826 199.16V200H286.496V199.16C288.631 199.16 288.981 198.635 288.981 196.395V185.615C288.981 183.27 288.946 182.78 286.916 183.62L286.601 182.815L291.746 180.75L292.341 181.275ZM296.34 200V199.16C298.37 199.16 298.72 198.635 298.72 196.395V185.615C298.72 183.27 298.72 182.78 296.62 183.655L296.27 182.85L299.07 181.73L301.45 180.75L302.115 181.275V184.495H302.22C303.795 182.325 305.37 180.82 307.75 180.82C310.235 180.82 311.6 182.605 311.6 185.895V196.395C311.6 198.635 311.915 199.16 313.91 199.16V200H306.07V199.16C307.925 199.16 308.205 198.635 308.205 196.395V186.105C308.205 184.18 307.47 183.27 306.14 183.27C304.705 183.27 303.445 184.25 302.115 185.965V196.395C302.115 198.635 302.395 199.16 304.25 199.16V200H296.34ZM321.796 197.2H325.856C329.496 197.2 331.141 198.25 331.141 200.91C331.141 204.795 326.941 208.26 321.061 208.26C317.316 208.26 314.061 206.895 314.061 204.025C314.061 202.03 315.531 200.7 317.736 199.72C316.301 199.16 315.671 198.18 315.671 196.99C315.671 195.38 316.791 194.225 318.366 193.245C316.651 192.09 315.671 190.095 315.671 187.68C315.671 183.76 318.191 180.855 322.216 180.855C323.546 180.855 324.701 181.17 325.681 181.765C327.081 180.96 328.586 180.61 329.671 180.61C330.686 180.61 330.966 181.1 330.966 181.66C330.966 182.325 330.546 182.85 329.706 182.85C328.376 182.85 327.431 182.15 326.416 182.29C327.816 183.48 328.621 185.3 328.621 187.575C328.621 191.565 326.101 194.33 322.181 194.33C321.096 194.33 320.116 194.12 319.276 193.735C318.576 194.295 318.121 194.855 318.121 195.555C318.121 196.465 318.401 197.2 321.796 197.2ZM321.761 182.185C319.836 182.185 319.101 184.25 319.101 186.455C319.101 189.395 320.046 192.965 322.601 192.965C324.421 192.965 325.226 191.215 325.226 188.87C325.226 185.825 324.176 182.185 321.761 182.185ZM321.901 206.16C326.346 206.16 329.181 203.955 329.181 201.995C329.181 200.63 328.236 200.315 325.751 200.315H321.411C320.431 200.315 319.591 200.245 318.891 200.07C317.701 201.015 316.861 202.065 316.861 203.185C316.861 204.655 318.226 206.16 321.901 206.16ZM349.526 180.82C353.061 180.82 354.741 184.635 354.741 190.025C354.741 195.765 352.536 200.42 348.721 200.42C347.076 200.42 345.466 199.58 344.521 197.9H344.451V204.095C344.451 206.37 344.801 206.86 346.936 206.86V207.7H338.606V206.86C340.741 206.86 341.056 206.37 341.056 204.095V185.615C341.056 183.27 341.056 182.78 338.956 183.62L338.641 182.815L343.891 180.75L344.451 181.275V184.355H344.591C345.956 182.115 347.566 180.82 349.526 180.82ZM347.846 198.74C350.226 198.74 351.066 194.82 351.066 190.55C351.066 185.86 350.121 183.235 348.091 183.235C346.656 183.235 345.361 184.495 344.451 186.035V192.405C344.451 196.325 345.991 198.74 347.846 198.74ZM364.708 200.56C360.158 200.56 357.183 196.535 357.183 190.795C357.183 185.16 359.948 180.82 364.708 180.82C369.223 180.82 372.233 184.845 372.233 190.585C372.233 196.22 369.433 200.56 364.708 200.56ZM365.233 199.02C367.718 199.02 368.698 195.73 368.698 192.65C368.698 187.89 367.263 182.36 364.183 182.36C361.698 182.36 360.683 185.65 360.683 188.73C360.683 193.49 362.153 199.02 365.233 199.02ZM377.676 177.39C376.346 177.39 375.401 176.48 375.401 175.255C375.401 173.995 376.346 173.085 377.676 173.085C378.971 173.085 379.916 173.995 379.916 175.255C379.916 176.48 378.971 177.39 377.676 177.39ZM379.636 181.275V196.395C379.636 198.635 379.986 199.16 382.121 199.16V200H373.791V199.16C375.926 199.16 376.276 198.635 376.276 196.395V185.615C376.276 183.27 376.241 182.78 374.211 183.62L373.896 182.815L379.041 180.75L379.636 181.275ZM383.635 200V199.16C385.665 199.16 386.015 198.635 386.015 196.395V185.615C386.015 183.27 386.015 182.78 383.915 183.655L383.565 182.85L386.365 181.73L388.745 180.75L389.41 181.275V184.495H389.515C391.09 182.325 392.665 180.82 395.045 180.82C397.53 180.82 398.895 182.605 398.895 185.895V196.395C398.895 198.635 399.21 199.16 401.205 199.16V200H393.365V199.16C395.22 199.16 395.5 198.635 395.5 196.395V186.105C395.5 184.18 394.765 183.27 393.435 183.27C392 183.27 390.74 184.25 389.41 185.965V196.395C389.41 198.635 389.69 199.16 391.545 199.16V200H383.635ZM411.818 192.16H412.798C412.798 197.62 411.713 200.56 408.283 200.56C405.553 200.56 404.118 198.915 404.118 194.015V182.885H401.668V181.59C404.223 181.52 405.833 179.63 406.183 176.34H407.443V181.45H411.643V182.885H407.513V193.105C407.513 196.22 407.828 198.285 409.473 198.285C411.048 198.285 411.818 196.325 411.818 192.16ZM429.274 200.56C424.724 200.56 421.749 196.535 421.749 190.795C421.749 185.16 424.514 180.82 429.274 180.82C433.789 180.82 436.799 184.845 436.799 190.585C436.799 196.22 433.999 200.56 429.274 200.56ZM429.799 199.02C432.284 199.02 433.264 195.73 433.264 192.65C433.264 187.89 431.829 182.36 428.749 182.36C426.264 182.36 425.249 185.65 425.249 188.73C425.249 193.49 426.719 199.02 429.799 199.02ZM447.83 171.055C450.385 171.055 452.065 172.42 452.065 173.785C452.065 174.66 451.47 175.465 450.315 175.465C449.475 175.465 449.055 174.94 448.495 174.1C447.83 173.085 447.55 172.7 446.885 172.7C445.485 172.7 444.54 174.065 444.54 178.23V181.45H448.46V182.885H444.54V196.395C444.54 198.635 445.03 199.16 448.075 199.16V200H438.52V199.16C440.795 199.16 441.145 198.635 441.145 196.395V182.885H438.835V181.73L441.145 181.555V178.86C441.145 172.98 444.75 171.055 447.83 171.055ZM464.249 200.56C460.154 200.56 457.774 196.64 457.774 191.04C457.774 185.23 460.329 180.82 464.844 180.82C467.784 180.82 469.779 182.745 469.779 185.37C469.779 186.84 469.114 187.715 467.924 187.715C466.839 187.715 466.279 186.98 466.279 186.105C466.279 185.51 466.524 184.81 466.524 184.075C466.524 182.885 465.859 182.29 464.809 182.29C462.289 182.29 461.239 185.755 461.239 189.71C461.239 194.26 462.639 197.9 465.509 197.9C467.084 197.9 468.869 196.71 469.499 192.3H470.339C469.954 198.11 467.399 200.56 464.249 200.56ZM482.352 180.82C483.577 180.82 484.242 181.52 484.242 182.675C484.242 184.04 483.437 184.915 482.527 184.915C481.897 184.915 481.617 184.67 481.162 184.18C480.707 183.725 480.532 183.585 480.112 183.585C479.307 183.585 478.362 184.74 477.627 186.875V196.185C477.627 198.565 478.152 199.125 481.337 199.125V200H471.887V199.16C473.917 199.16 474.267 198.635 474.267 196.395V185.615C474.267 183.27 474.267 182.78 472.167 183.655L471.817 182.85L474.617 181.73L476.997 180.75L477.627 181.275V184.635H477.732C478.712 182.78 480.427 180.82 482.352 180.82ZM497.157 192.51H497.997C497.262 198.145 494.882 200.56 491.592 200.56C487.637 200.56 485.152 196.815 485.152 191.04C485.152 185.51 487.602 180.82 491.767 180.82C495.862 180.82 497.787 184.67 497.787 189.78H488.547V189.85C488.547 194.61 490.017 197.97 492.922 197.97C494.497 197.97 496.317 196.745 497.157 192.51ZM491.767 182.29C489.667 182.29 488.792 184.845 488.582 188.345H494.427C494.427 184.985 493.832 182.29 491.767 182.29ZM514.546 196.045H515.351C515.246 198.705 514.406 200.56 512.096 200.56C510.101 200.56 508.911 199.23 508.911 195.975V195.345C508.106 198.635 506.251 200.56 503.731 200.56C501.246 200.56 499.846 198.705 499.846 196.43C499.846 192.02 504.921 190.06 508.911 188.275V186.245C508.911 183.235 507.931 182.185 506.216 182.185C504.851 182.185 503.871 182.885 503.871 184.04C503.871 184.845 504.361 185.3 504.361 186.105C504.361 187.05 503.766 187.715 502.646 187.715C501.386 187.715 500.721 186.84 500.721 185.545C500.721 182.955 503.241 180.785 506.776 180.785C510.171 180.785 512.271 182.71 512.271 186.49V196.815C512.271 198.53 512.621 198.95 513.181 198.95C513.916 198.95 514.476 198.25 514.546 196.045ZM505.096 197.9C506.496 197.9 508.001 196.605 508.911 193.56V189.43C506.076 190.9 503.206 192.58 503.206 195.485C503.206 196.955 503.871 197.9 505.096 197.9ZM525.192 192.16H526.172C526.172 197.62 525.087 200.56 521.657 200.56C518.927 200.56 517.492 198.915 517.492 194.015V182.885H515.042V181.59C517.597 181.52 519.207 179.63 519.557 176.34H520.817V181.45H525.017V182.885H520.887V193.105C520.887 196.22 521.202 198.285 522.847 198.285C524.422 198.285 525.192 196.325 525.192 192.16ZM531.211 177.39C529.881 177.39 528.936 176.48 528.936 175.255C528.936 173.995 529.881 173.085 531.211 173.085C532.506 173.085 533.451 173.995 533.451 175.255C533.451 176.48 532.506 177.39 531.211 177.39ZM533.171 181.275V196.395C533.171 198.635 533.521 199.16 535.656 199.16V200H527.326V199.16C529.461 199.16 529.811 198.635 529.811 196.395V185.615C529.811 183.27 529.776 182.78 527.746 183.62L527.431 182.815L532.576 180.75L533.171 181.275ZM544.585 195.17L547.7 184.915C548.365 182.745 548.4 182.29 546.09 182.29V181.45H552.145V182.29C550.535 182.29 549.87 182.745 549.205 184.915L544.445 200.28H542.555L537.795 184.915C537.13 182.745 536.5 182.29 535.03 182.29V181.45H543.15V182.29C540.805 182.29 540.805 182.745 541.435 184.915L544.375 195.17H544.585ZM563.808 192.51H564.648C563.913 198.145 561.533 200.56 558.243 200.56C554.288 200.56 551.803 196.815 551.803 191.04C551.803 185.51 554.253 180.82 558.418 180.82C562.513 180.82 564.438 184.67 564.438 189.78H555.198V189.85C555.198 194.61 556.668 197.97 559.573 197.97C561.148 197.97 562.968 196.745 563.808 192.51ZM558.418 182.29C556.318 182.29 555.443 184.845 555.233 188.345H561.078C561.078 184.985 560.483 182.29 558.418 182.29ZM588.75 196.045H589.555C589.45 198.705 588.61 200.56 586.3 200.56C584.305 200.56 583.115 199.23 583.115 195.975V195.345C582.31 198.635 580.455 200.56 577.935 200.56C575.45 200.56 574.05 198.705 574.05 196.43C574.05 192.02 579.125 190.06 583.115 188.275V186.245C583.115 183.235 582.135 182.185 580.42 182.185C579.055 182.185 578.075 182.885 578.075 184.04C578.075 184.845 578.565 185.3 578.565 186.105C578.565 187.05 577.97 187.715 576.85 187.715C575.59 187.715 574.925 186.84 574.925 185.545C574.925 182.955 577.445 180.785 580.98 180.785C584.375 180.785 586.475 182.71 586.475 186.49V196.815C586.475 198.53 586.825 198.95 587.385 198.95C588.12 198.95 588.68 198.25 588.75 196.045ZM579.3 197.9C580.7 197.9 582.205 196.605 583.115 193.56V189.43C580.28 190.9 577.41 192.58 577.41 195.485C577.41 196.955 578.075 197.9 579.3 197.9ZM590.286 200V199.16C592.316 199.16 592.666 198.635 592.666 196.395V185.615C592.666 183.27 592.666 182.78 590.566 183.655L590.216 182.85L593.016 181.73L595.396 180.75L596.061 181.275V184.495H596.166C597.741 182.325 599.316 180.82 601.696 180.82C604.181 180.82 605.546 182.605 605.546 185.895V196.395C605.546 198.635 605.861 199.16 607.856 199.16V200H600.016V199.16C601.871 199.16 602.151 198.635 602.151 196.395V186.105C602.151 184.18 601.416 183.27 600.086 183.27C598.651 183.27 597.391 184.25 596.061 185.965V196.395C596.061 198.635 596.341 199.16 598.196 199.16V200H590.286ZM625.047 197.795L625.362 198.6L620.182 200.56L619.447 199.965V197.095H619.307C618.397 199.16 616.822 200.56 614.547 200.56C611.187 200.56 609.122 196.815 609.122 191.285C609.122 185.16 611.642 180.82 615.492 180.82C617.242 180.82 618.677 181.555 619.447 182.78V176.235C619.447 173.96 619.482 173.54 617.382 174.555L617.032 173.82L622.387 171.16L622.842 171.65V195.835C622.842 198.18 622.877 198.635 625.047 197.795ZM616.017 198.11C617.557 198.11 618.572 196.955 619.447 195.345V188.87C619.447 185.44 618.397 182.64 616.227 182.64C613.777 182.64 612.727 186.07 612.727 190.445C612.727 194.89 613.707 198.11 616.017 198.11ZM643.591 192.16H644.571C644.571 197.62 643.486 200.56 640.056 200.56C637.326 200.56 635.891 198.915 635.891 194.015V182.885H633.441V181.59C635.996 181.52 637.606 179.63 637.956 176.34H639.216V181.45H643.416V182.885H639.286V193.105C639.286 196.22 639.601 198.285 641.246 198.285C642.821 198.285 643.591 196.325 643.591 192.16ZM658.246 192.51H659.086C658.351 198.145 655.971 200.56 652.681 200.56C648.726 200.56 646.241 196.815 646.241 191.04C646.241 185.51 648.691 180.82 652.856 180.82C656.951 180.82 658.876 184.67 658.876 189.78H649.636V189.85C649.636 194.61 651.106 197.97 654.011 197.97C655.586 197.97 657.406 196.745 658.246 192.51ZM652.856 182.29C650.756 182.29 649.881 184.845 649.671 188.345H655.516C655.516 184.985 654.921 182.29 652.856 182.29ZM667.96 200.56C663.865 200.56 661.485 196.64 661.485 191.04C661.485 185.23 664.04 180.82 668.555 180.82C671.495 180.82 673.49 182.745 673.49 185.37C673.49 186.84 672.825 187.715 671.635 187.715C670.55 187.715 669.99 186.98 669.99 186.105C669.99 185.51 670.235 184.81 670.235 184.075C670.235 182.885 669.57 182.29 668.52 182.29C666 182.29 664.95 185.755 664.95 189.71C664.95 194.26 666.35 197.9 669.22 197.9C670.795 197.9 672.58 196.71 673.21 192.3H674.05C673.665 198.11 671.11 200.56 667.96 200.56ZM680.65 185.965V196.395C680.65 198.635 680.965 199.16 682.82 199.16V200H674.91V199.16C676.94 199.16 677.29 198.635 677.29 196.395L677.255 176.27C677.255 174.03 677.325 173.575 675.225 174.66L674.875 173.925L677.605 172.49L680.195 171.16L680.65 171.65V184.495H680.755C682.33 182.325 683.94 180.82 686.32 180.82C688.805 180.82 690.135 182.605 690.135 185.895V196.395C690.135 198.635 690.45 199.16 692.48 199.16V200H684.64V199.16C686.46 199.16 686.775 198.635 686.775 196.395V186.07C686.775 184.145 686.005 183.27 684.71 183.27C683.24 183.27 681.98 184.25 680.65 185.965ZM694.124 200V199.16C696.154 199.16 696.504 198.635 696.504 196.395V185.615C696.504 183.27 696.504 182.78 694.404 183.655L694.054 182.85L696.854 181.73L699.234 180.75L699.899 181.275V184.495H700.004C701.579 182.325 703.154 180.82 705.534 180.82C708.019 180.82 709.384 182.605 709.384 185.895V196.395C709.384 198.635 709.699 199.16 711.694 199.16V200H703.854V199.16C705.709 199.16 705.989 198.635 705.989 196.395V186.105C705.989 184.18 705.254 183.27 703.924 183.27C702.489 183.27 701.229 184.25 699.899 185.965V196.395C699.899 198.635 700.179 199.16 702.034 199.16V200H694.124ZM717.183 177.39C715.853 177.39 714.908 176.48 714.908 175.255C714.908 173.995 715.853 173.085 717.183 173.085C718.478 173.085 719.423 173.995 719.423 175.255C719.423 176.48 718.478 177.39 717.183 177.39ZM719.143 181.275V196.395C719.143 198.635 719.493 199.16 721.628 199.16V200H713.298V199.16C715.433 199.16 715.783 198.635 715.783 196.395V185.615C715.783 183.27 715.748 182.78 713.718 183.62L713.403 182.815L718.548 180.75L719.143 181.275ZM729.62 200.56C725.525 200.56 723.145 196.64 723.145 191.04C723.145 185.23 725.7 180.82 730.215 180.82C733.155 180.82 735.15 182.745 735.15 185.37C735.15 186.84 734.485 187.715 733.295 187.715C732.21 187.715 731.65 186.98 731.65 186.105C731.65 185.51 731.895 184.81 731.895 184.075C731.895 182.885 731.23 182.29 730.18 182.29C727.66 182.29 726.61 185.755 726.61 189.71C726.61 194.26 728.01 197.9 730.88 197.9C732.455 197.9 734.24 196.71 734.87 192.3H735.71C735.325 198.11 732.77 200.56 729.62 200.56ZM751.753 196.045H752.558C752.453 198.705 751.613 200.56 749.303 200.56C747.308 200.56 746.118 199.23 746.118 195.975V195.345C745.313 198.635 743.458 200.56 740.938 200.56C738.453 200.56 737.053 198.705 737.053 196.43C737.053 192.02 742.128 190.06 746.118 188.275V186.245C746.118 183.235 745.138 182.185 743.423 182.185C742.058 182.185 741.078 182.885 741.078 184.04C741.078 184.845 741.568 185.3 741.568 186.105C741.568 187.05 740.973 187.715 739.853 187.715C738.593 187.715 737.928 186.84 737.928 185.545C737.928 182.955 740.448 180.785 743.983 180.785C747.378 180.785 749.478 182.71 749.478 186.49V196.815C749.478 198.53 749.828 198.95 750.388 198.95C751.123 198.95 751.683 198.25 751.753 196.045ZM742.303 197.9C743.703 197.9 745.208 196.605 746.118 193.56V189.43C743.283 190.9 740.413 192.58 740.413 195.485C740.413 196.955 741.078 197.9 742.303 197.9ZM759.025 171.65V196.395C759.025 198.635 759.34 199.16 761.475 199.16V200H753.145V199.16C755.28 199.16 755.63 198.635 755.63 196.395V176.165C755.63 173.925 755.63 173.47 753.53 174.52L753.18 173.75L758.5 171.16L759.025 171.65ZM794.529 181.45V182.29C793.059 182.29 792.429 182.745 791.834 184.915L787.389 200.315H785.289L782.244 188.415L779.024 200.315H776.819L772.234 184.915C771.569 182.745 770.939 182.29 769.469 182.29V181.45H776.819V182.29C775.139 182.29 775.244 182.745 775.874 184.915L778.849 195.275H778.989L781.544 185.72L781.334 184.95C780.774 182.745 780.249 182.29 778.989 182.29V181.45H786.304V182.29C784.414 182.29 784.414 182.78 784.904 184.985L787.284 195.275H787.424L790.364 184.915C790.994 182.745 791.029 182.29 788.789 182.29V181.45H794.529ZM801.696 200.56C797.146 200.56 794.171 196.535 794.171 190.795C794.171 185.16 796.936 180.82 801.696 180.82C806.211 180.82 809.221 184.845 809.221 190.585C809.221 196.22 806.421 200.56 801.696 200.56ZM802.221 199.02C804.706 199.02 805.686 195.73 805.686 192.65C805.686 187.89 804.251 182.36 801.171 182.36C798.686 182.36 797.671 185.65 797.671 188.73C797.671 193.49 799.141 199.02 802.221 199.02ZM821.278 180.82C822.503 180.82 823.168 181.52 823.168 182.675C823.168 184.04 822.363 184.915 821.453 184.915C820.823 184.915 820.543 184.67 820.088 184.18C819.633 183.725 819.458 183.585 819.038 183.585C818.233 183.585 817.288 184.74 816.553 186.875V196.185C816.553 198.565 817.078 199.125 820.263 199.125V200H810.813V199.16C812.843 199.16 813.193 198.635 813.193 196.395V185.615C813.193 183.27 813.193 182.78 811.093 183.655L810.743 182.85L813.543 181.73L815.923 180.75L816.553 181.275V184.635H816.658C817.638 182.78 819.353 180.82 821.278 180.82ZM829.299 171.65V196.395C829.299 198.635 829.579 199.16 831.469 199.16V200H823.419V199.16C825.554 199.16 825.904 198.635 825.904 196.395V176.165C825.904 173.925 825.904 173.47 823.804 174.52L823.454 173.75L828.774 171.16L829.299 171.65ZM833.149 188.135L838.119 196.85C839.239 198.845 840.149 199.16 841.619 199.16V200H833.254V199.16C835.634 199.16 835.354 198.845 834.234 196.85L830.034 189.43L833.989 184.53C835.389 182.85 834.794 182.29 832.694 182.29V181.45H840.639V182.29C838.994 182.29 837.874 182.5 836.404 184.215L833.149 188.135ZM845.367 200.56C844.212 200.56 843.302 199.65 843.302 198.495C843.302 197.375 844.212 196.43 845.367 196.43C846.487 196.43 847.432 197.375 847.432 198.495C847.432 199.65 846.487 200.56 845.367 200.56Z" fill="#282F2D"/>
</svg>
