<svg width="1425" height="354" viewBox="0 0 1425 354" fill="none" xmlns="http://www.w3.org/2000/svg">
<rect width="1425" height="353.942" fill="#FFC4DF"/>
<path d="M337.92 168.12C335.867 168.12 333.883 167.7 331.97 166.86C330.057 166.02 328.377 164.877 326.93 163.43C326.417 162.917 325.973 162.66 325.6 162.66C325.133 162.66 324.83 163.103 324.69 163.99L324.06 167.21H322.31L322.45 146.28H324.27C324.457 149.687 325.133 152.837 326.3 155.73C327.467 158.623 329.053 160.933 331.06 162.66C333.067 164.34 335.307 165.18 337.78 165.18C340.58 165.18 342.703 164.293 344.15 162.52C345.643 160.7 346.39 158.577 346.39 156.15C346.39 154.143 345.923 152.3 344.99 150.62C344.057 148.893 342.843 147.353 341.35 146C339.903 144.6 338.013 143.013 335.68 141.24C332.647 138.907 330.29 136.993 328.61 135.5C326.93 133.96 325.53 132.187 324.41 130.18C323.337 128.127 322.8 125.817 322.8 123.25C322.8 120.543 323.407 118.187 324.62 116.18C325.833 114.127 327.49 112.563 329.59 111.49C331.69 110.417 334.07 109.88 336.73 109.88C338.69 109.88 340.417 110.183 341.91 110.79C343.403 111.35 344.78 112.237 346.04 113.45C346.553 113.87 346.973 114.08 347.3 114.08C347.907 114.08 348.28 113.613 348.42 112.68L348.77 110.58H350.45L351.29 128.99H349.54C349.167 124.37 347.907 120.52 345.76 117.44C343.613 114.313 340.767 112.75 337.22 112.75C334.747 112.75 332.787 113.543 331.34 115.13C329.94 116.67 329.24 118.583 329.24 120.87C329.24 122.597 329.637 124.183 330.43 125.63C331.27 127.077 332.39 128.453 333.79 129.76C335.237 131.067 337.243 132.677 339.81 134.59C342.75 136.737 345.107 138.673 346.88 140.4C348.653 142.08 350.077 143.993 351.15 146.14C352.27 148.287 352.83 150.713 352.83 153.42C352.83 156.313 352.177 158.88 350.87 161.12C349.61 163.313 347.837 165.04 345.55 166.3C343.31 167.513 340.767 168.12 337.92 168.12ZM363.957 121.78C362.65 121.78 361.554 121.383 360.667 120.59C359.827 119.75 359.407 118.723 359.407 117.51C359.407 116.25 359.827 115.223 360.667 114.43C361.554 113.59 362.65 113.17 363.957 113.17C365.264 113.17 366.337 113.59 367.177 114.43C368.017 115.223 368.437 116.25 368.437 117.51C368.437 118.723 368.017 119.75 367.177 120.59C366.337 121.383 365.264 121.78 363.957 121.78ZM367.877 159.79C367.877 161.377 367.994 162.543 368.227 163.29C368.46 164.037 368.927 164.573 369.627 164.9C370.327 165.18 371.4 165.32 372.847 165.32V167H356.187V165.32C357.634 165.32 358.707 165.18 359.407 164.9C360.107 164.573 360.574 164.037 360.807 163.29C361.04 162.543 361.157 161.377 361.157 159.79V138.23C361.157 136.363 361.087 135.103 360.947 134.45C360.807 133.797 360.387 133.47 359.687 133.47C359.174 133.47 358.287 133.727 357.027 134.24L356.397 132.63L366.687 128.5L367.877 129.55V159.79ZM406.886 159.09C406.653 165.11 404.483 168.12 400.376 168.12C396.129 168.12 394.006 165.063 394.006 158.95V157.69C393.213 161.003 391.906 163.57 390.086 165.39C388.313 167.21 386.166 168.12 383.646 168.12C381.219 168.12 379.306 167.35 377.906 165.81C376.553 164.223 375.876 162.24 375.876 159.86C375.876 157.293 376.669 155.077 378.256 153.21C379.843 151.297 381.733 149.71 383.926 148.45C386.166 147.19 389.036 145.767 392.536 144.18L394.006 143.55V139.49C394.006 136.597 393.539 134.52 392.606 133.26C391.719 132 390.389 131.37 388.616 131.37C387.216 131.37 386.073 131.72 385.186 132.42C384.346 133.073 383.926 133.96 383.926 135.08C383.926 135.5 383.996 135.92 384.136 136.34C384.276 136.76 384.369 137.017 384.416 137.11C384.743 137.857 384.906 138.557 384.906 139.21C384.906 140.19 384.603 140.983 383.996 141.59C383.389 142.15 382.549 142.43 381.476 142.43C380.263 142.43 379.306 142.033 378.606 141.24C377.953 140.447 377.626 139.397 377.626 138.09C377.626 136.363 378.139 134.777 379.166 133.33C380.239 131.883 381.686 130.74 383.506 129.9C385.373 129.013 387.449 128.57 389.736 128.57C393.189 128.57 395.873 129.55 397.786 131.51C399.746 133.423 400.726 136.247 400.726 139.98V160.63C400.726 162.263 400.866 163.383 401.146 163.99C401.473 164.597 401.939 164.9 402.546 164.9C404.226 164.9 405.136 162.963 405.276 159.09H406.886ZM386.376 162.8C387.869 162.8 389.293 162.077 390.646 160.63C391.999 159.183 393.119 157.013 394.006 154.12V145.86C390.366 147.727 387.543 149.57 385.536 151.39C383.576 153.163 382.596 155.357 382.596 157.97C382.596 159.463 382.923 160.653 383.576 161.54C384.229 162.38 385.163 162.8 386.376 162.8ZM428.528 151.32C428.528 157.013 427.851 161.237 426.498 163.99C425.145 166.743 422.811 168.12 419.498 168.12C416.651 168.12 414.551 167.14 413.198 165.18C411.845 163.173 411.168 159.79 411.168 155.03V132.77H406.268V130.18C408.835 130.133 410.888 129.2 412.428 127.38C413.968 125.56 414.925 122.993 415.298 119.68H417.818V129.9H426.218V132.77H417.958V153.21C417.958 156.663 418.215 159.253 418.728 160.98C419.288 162.707 420.338 163.57 421.878 163.57C423.465 163.57 424.631 162.567 425.378 160.56C426.171 158.553 426.568 155.473 426.568 151.32H428.528ZM453.849 121.78C452.543 121.78 451.446 121.383 450.559 120.59C449.719 119.75 449.299 118.723 449.299 117.51C449.299 116.25 449.719 115.223 450.559 114.43C451.446 113.59 452.543 113.17 453.849 113.17C455.156 113.17 456.229 113.59 457.069 114.43C457.909 115.223 458.329 116.25 458.329 117.51C458.329 118.723 457.909 119.75 457.069 120.59C456.229 121.383 455.156 121.78 453.849 121.78ZM457.769 159.79C457.769 161.377 457.886 162.543 458.119 163.29C458.353 164.037 458.819 164.573 459.519 164.9C460.219 165.18 461.293 165.32 462.739 165.32V167H446.079V165.32C447.526 165.32 448.599 165.18 449.299 164.9C449.999 164.573 450.466 164.037 450.699 163.29C450.933 162.543 451.049 161.377 451.049 159.79V138.23C451.049 136.363 450.979 135.103 450.839 134.45C450.699 133.797 450.279 133.47 449.579 133.47C449.066 133.47 448.179 133.727 446.919 134.24L446.289 132.63L456.579 128.5L457.769 129.55V159.79ZM478.089 168.12C475.335 168.12 472.792 167.28 470.459 165.6C470.132 165.32 469.805 165.18 469.479 165.18C469.152 165.18 468.849 165.437 468.569 165.95L468.009 167.35H466.469L465.979 152.23H467.519C468.032 156.29 469.175 159.463 470.949 161.75C472.769 164.037 474.915 165.18 477.389 165.18C479.022 165.18 480.259 164.667 481.099 163.64C481.985 162.613 482.429 161.19 482.429 159.37C482.429 158.297 482.219 157.387 481.799 156.64C481.379 155.847 480.655 154.983 479.629 154.05C478.602 153.07 476.875 151.6 474.449 149.64C471.415 147.26 469.315 145.253 468.149 143.62C467.029 141.987 466.469 140.19 466.469 138.23C466.469 135.383 467.379 133.073 469.199 131.3C471.065 129.527 473.399 128.64 476.199 128.64C478.672 128.64 480.865 129.433 482.779 131.02C483.105 131.347 483.432 131.51 483.759 131.51C484.179 131.51 484.459 131.23 484.599 130.67L485.019 129.13H486.629L486.909 141.38H485.369C484.949 138.533 483.969 136.2 482.429 134.38C480.889 132.513 478.999 131.58 476.759 131.58C475.359 131.58 474.239 132.023 473.399 132.91C472.559 133.75 472.139 134.87 472.139 136.27C472.139 137.623 472.582 138.813 473.469 139.84C474.355 140.867 476.152 142.453 478.859 144.6C482.312 147.307 484.715 149.57 486.069 151.39C487.469 153.21 488.169 155.38 488.169 157.9C488.169 161.213 487.212 163.757 485.299 165.53C483.385 167.257 480.982 168.12 478.089 168.12ZM537.521 159.09C537.287 165.11 535.117 168.12 531.011 168.12C526.764 168.12 524.641 165.063 524.641 158.95V157.69C523.847 161.003 522.541 163.57 520.721 165.39C518.947 167.21 516.801 168.12 514.281 168.12C511.854 168.12 509.941 167.35 508.541 165.81C507.187 164.223 506.511 162.24 506.511 159.86C506.511 157.293 507.304 155.077 508.891 153.21C510.477 151.297 512.367 149.71 514.561 148.45C516.801 147.19 519.671 145.767 523.171 144.18L524.641 143.55V139.49C524.641 136.597 524.174 134.52 523.241 133.26C522.354 132 521.024 131.37 519.251 131.37C517.851 131.37 516.707 131.72 515.821 132.42C514.981 133.073 514.561 133.96 514.561 135.08C514.561 135.5 514.631 135.92 514.771 136.34C514.911 136.76 515.004 137.017 515.051 137.11C515.377 137.857 515.541 138.557 515.541 139.21C515.541 140.19 515.237 140.983 514.631 141.59C514.024 142.15 513.184 142.43 512.111 142.43C510.897 142.43 509.941 142.033 509.241 141.24C508.587 140.447 508.261 139.397 508.261 138.09C508.261 136.363 508.774 134.777 509.801 133.33C510.874 131.883 512.321 130.74 514.141 129.9C516.007 129.013 518.084 128.57 520.371 128.57C523.824 128.57 526.507 129.55 528.421 131.51C530.381 133.423 531.361 136.247 531.361 139.98V160.63C531.361 162.263 531.501 163.383 531.781 163.99C532.107 164.597 532.574 164.9 533.181 164.9C534.861 164.9 535.771 162.963 535.911 159.09H537.521ZM517.011 162.8C518.504 162.8 519.927 162.077 521.281 160.63C522.634 159.183 523.754 157.013 524.641 154.12V145.86C521.001 147.727 518.177 149.57 516.171 151.39C514.211 153.163 513.231 155.357 513.231 157.97C513.231 159.463 513.557 160.653 514.211 161.54C514.864 162.38 515.797 162.8 517.011 162.8ZM574.395 128.64C577.802 128.64 580.392 130.32 582.165 133.68C583.939 136.993 584.825 141.45 584.825 147.05C584.825 150.923 584.335 154.447 583.355 157.62C582.422 160.747 581.045 163.243 579.225 165.11C577.405 166.93 575.259 167.84 572.785 167.84C571.105 167.84 569.519 167.42 568.025 166.58C566.532 165.693 565.319 164.433 564.385 162.8H564.245V175.19C564.245 176.777 564.362 177.943 564.595 178.69C564.829 179.483 565.295 180.02 565.995 180.3C566.695 180.58 567.769 180.72 569.215 180.72V182.4H552.555V180.72C554.002 180.72 555.052 180.58 555.705 180.3C556.405 180.02 556.872 179.483 557.105 178.69C557.339 177.943 557.455 176.777 557.455 175.19V138.23C557.455 136.317 557.385 135.057 557.245 134.45C557.105 133.797 556.685 133.47 555.985 133.47C555.472 133.47 554.562 133.727 553.255 134.24L552.625 132.63L563.125 128.5L564.245 129.55V135.71H564.525C567.419 130.997 570.709 128.64 574.395 128.64ZM571.035 164.48C573.275 164.48 574.909 162.94 575.935 159.86C576.962 156.78 577.475 152.86 577.475 148.1C577.475 138.347 575.492 133.47 571.525 133.47C570.172 133.47 568.865 133.983 567.605 135.01C566.345 136.037 565.225 137.39 564.245 139.07V151.81C564.245 154.33 564.549 156.57 565.155 158.53C565.762 160.443 566.579 161.913 567.605 162.94C568.632 163.967 569.775 164.48 571.035 164.48ZM599.195 159.79C599.195 161.377 599.312 162.543 599.545 163.29C599.778 164.037 600.222 164.573 600.875 164.9C601.575 165.18 602.648 165.32 604.095 165.32V167H587.435V165.32C588.882 165.32 589.955 165.18 590.655 164.9C591.355 164.573 591.822 164.037 592.055 163.29C592.288 162.543 592.405 161.377 592.405 159.79V119.33C592.405 117.603 592.335 116.46 592.195 115.9C592.102 115.293 591.775 114.99 591.215 114.99C590.608 114.99 589.605 115.34 588.205 116.04L587.505 114.5L598.145 109.32L599.195 110.3V159.79ZM637.599 159.09C637.366 165.11 635.196 168.12 631.089 168.12C626.842 168.12 624.719 165.063 624.719 158.95V157.69C623.926 161.003 622.619 163.57 620.799 165.39C619.026 167.21 616.879 168.12 614.359 168.12C611.932 168.12 610.019 167.35 608.619 165.81C607.266 164.223 606.589 162.24 606.589 159.86C606.589 157.293 607.382 155.077 608.969 153.21C610.556 151.297 612.446 149.71 614.639 148.45C616.879 147.19 619.749 145.767 623.249 144.18L624.719 143.55V139.49C624.719 136.597 624.252 134.52 623.319 133.26C622.432 132 621.102 131.37 619.329 131.37C617.929 131.37 616.786 131.72 615.899 132.42C615.059 133.073 614.639 133.96 614.639 135.08C614.639 135.5 614.709 135.92 614.849 136.34C614.989 136.76 615.082 137.017 615.129 137.11C615.456 137.857 615.619 138.557 615.619 139.21C615.619 140.19 615.316 140.983 614.709 141.59C614.102 142.15 613.262 142.43 612.189 142.43C610.976 142.43 610.019 142.033 609.319 141.24C608.666 140.447 608.339 139.397 608.339 138.09C608.339 136.363 608.852 134.777 609.879 133.33C610.952 131.883 612.399 130.74 614.219 129.9C616.086 129.013 618.162 128.57 620.449 128.57C623.902 128.57 626.586 129.55 628.499 131.51C630.459 133.423 631.439 136.247 631.439 139.98V160.63C631.439 162.263 631.579 163.383 631.859 163.99C632.186 164.597 632.652 164.9 633.259 164.9C634.939 164.9 635.849 162.963 635.989 159.09H637.599ZM617.089 162.8C618.582 162.8 620.006 162.077 621.359 160.63C622.712 159.183 623.832 157.013 624.719 154.12V145.86C621.079 147.727 618.256 149.57 616.249 151.39C614.289 153.163 613.309 155.357 613.309 157.97C613.309 159.463 613.636 160.653 614.289 161.54C614.942 162.38 615.876 162.8 617.089 162.8ZM652.563 168.12C649.903 168.12 647.593 167.327 645.633 165.74C643.673 164.107 642.18 161.867 641.153 159.02C640.126 156.127 639.613 152.813 639.613 149.08C639.613 145.16 640.173 141.66 641.293 138.58C642.413 135.5 644.023 133.073 646.123 131.3C648.27 129.527 650.813 128.64 653.753 128.64C656.693 128.64 659.073 129.503 660.893 131.23C662.713 132.91 663.623 135.08 663.623 137.74C663.623 139.233 663.296 140.4 662.643 141.24C661.99 142.033 661.08 142.43 659.913 142.43C658.886 142.43 658.07 142.127 657.463 141.52C656.903 140.913 656.623 140.143 656.623 139.21C656.623 138.837 656.646 138.51 656.693 138.23C656.74 137.903 656.786 137.623 656.833 137.39C657.02 136.457 657.113 135.71 657.113 135.15C657.113 133.983 656.81 133.097 656.203 132.49C655.596 131.883 654.756 131.58 653.683 131.58C651.303 131.58 649.506 132.98 648.293 135.78C647.126 138.58 646.543 142.127 646.543 146.42C646.543 151.227 647.266 155.17 648.713 158.25C650.206 161.283 652.33 162.8 655.083 162.8C656.903 162.8 658.536 161.96 659.983 160.28C661.476 158.553 662.503 155.66 663.063 151.6H664.743C664.37 157.153 663.086 161.307 660.893 164.06C658.7 166.767 655.923 168.12 652.563 168.12ZM693.741 152.02C693.041 157.48 691.571 161.54 689.331 164.2C687.137 166.813 684.337 168.12 680.931 168.12C678.317 168.12 676.031 167.35 674.071 165.81C672.157 164.223 670.664 162.007 669.591 159.16C668.564 156.267 668.051 152.907 668.051 149.08C668.051 145.347 668.587 141.94 669.661 138.86C670.734 135.733 672.251 133.26 674.211 131.44C676.217 129.573 678.574 128.64 681.281 128.64C685.201 128.64 688.187 130.297 690.241 133.61C692.294 136.877 693.321 141.193 693.321 146.56H674.841V146.7C674.841 151.6 675.587 155.543 677.081 158.53C678.574 161.47 680.744 162.94 683.591 162.94C685.411 162.94 687.067 162.1 688.561 160.42C690.101 158.74 691.267 155.94 692.061 152.02H693.741ZM681.281 131.58C677.501 131.58 675.377 135.617 674.911 143.69H686.601C686.601 135.617 684.827 131.58 681.281 131.58ZM760.916 131.58C759.423 131.58 758.279 131.93 757.486 132.63C756.739 133.33 756.086 134.73 755.526 136.83L746.636 167.63H742.436L736.346 143.83L729.906 167.63H725.496L716.326 136.83C715.673 134.73 714.949 133.33 714.156 132.63C713.409 131.93 712.289 131.58 710.796 131.58V129.9H725.496V131.58C724.469 131.58 723.746 131.697 723.326 131.93C722.953 132.117 722.766 132.49 722.766 133.05C722.766 133.563 723.046 134.823 723.606 136.83L729.556 157.55H729.836L734.946 138.44L734.526 136.9C733.966 134.753 733.359 133.33 732.706 132.63C732.099 131.93 731.143 131.58 729.836 131.58V129.9H744.466V131.58C743.206 131.58 742.319 131.72 741.806 132C741.339 132.28 741.106 132.817 741.106 133.61C741.106 134.263 741.293 135.383 741.666 136.97L746.426 157.55H746.706L752.586 136.83C752.633 136.597 752.773 136.083 753.006 135.29C753.239 134.45 753.356 133.82 753.356 133.4C753.356 132.7 753.076 132.233 752.516 132C751.956 131.72 750.929 131.58 749.436 131.58V129.9H760.916V131.58ZM771.936 159.79C771.936 161.377 772.029 162.543 772.216 163.29C772.449 164.037 772.869 164.573 773.476 164.9C774.083 165.18 775.016 165.32 776.276 165.32V167H760.456V165.32C761.856 165.32 762.883 165.18 763.536 164.9C764.189 164.573 764.633 164.037 764.866 163.29C765.099 162.543 765.216 161.377 765.216 159.79L765.146 119.54C765.146 117.767 765.099 116.6 765.006 116.04C764.913 115.48 764.586 115.2 764.026 115.2C763.513 115.2 762.533 115.573 761.086 116.32L760.386 114.85L765.846 111.98L771.026 109.32L771.936 110.3V135.99H772.146C773.873 133.563 775.599 131.743 777.326 130.53C779.053 129.27 781.036 128.64 783.276 128.64C785.749 128.64 787.639 129.503 788.946 131.23C790.253 132.957 790.906 135.477 790.906 138.79V159.79C790.906 161.377 791.023 162.543 791.256 163.29C791.489 164.037 791.909 164.573 792.516 164.9C793.169 165.18 794.196 165.32 795.596 165.32V167H779.916V165.32C781.176 165.32 782.086 165.18 782.646 164.9C783.253 164.573 783.649 164.037 783.836 163.29C784.069 162.543 784.186 161.377 784.186 159.79V139.14C784.186 135.407 782.809 133.54 780.056 133.54C778.656 133.54 777.303 134.007 775.996 134.94C774.689 135.827 773.336 137.157 771.936 138.93V159.79ZM823.828 152.02C823.128 157.48 821.658 161.54 819.418 164.2C817.225 166.813 814.425 168.12 811.018 168.12C808.405 168.12 806.118 167.35 804.158 165.81C802.245 164.223 800.752 162.007 799.678 159.16C798.652 156.267 798.138 152.907 798.138 149.08C798.138 145.347 798.675 141.94 799.748 138.86C800.822 135.733 802.338 133.26 804.298 131.44C806.305 129.573 808.662 128.64 811.368 128.64C815.288 128.64 818.275 130.297 820.328 133.61C822.382 136.877 823.408 141.193 823.408 146.56H804.928V146.7C804.928 151.6 805.675 155.543 807.168 158.53C808.662 161.47 810.832 162.94 813.678 162.94C815.498 162.94 817.155 162.1 818.648 160.42C820.188 158.74 821.355 155.94 822.148 152.02H823.828ZM811.368 131.58C807.588 131.58 805.465 135.617 804.998 143.69H816.688C816.688 135.617 814.915 131.58 811.368 131.58ZM848.046 128.64C849.26 128.64 850.193 128.967 850.846 129.62C851.5 130.273 851.826 131.183 851.826 132.35C851.826 133.657 851.476 134.73 850.776 135.57C850.123 136.41 849.33 136.83 848.396 136.83C847.79 136.83 847.3 136.737 846.926 136.55C846.6 136.317 846.18 135.92 845.666 135.36C845.2 134.893 844.826 134.59 844.546 134.45C844.313 134.263 843.986 134.17 843.566 134.17C842.726 134.17 841.863 134.753 840.976 135.92C840.09 137.04 839.296 138.65 838.596 140.75V159.37C838.596 161.05 838.76 162.287 839.086 163.08C839.46 163.873 840.16 164.433 841.186 164.76C842.213 165.087 843.823 165.25 846.016 165.25V167H827.116V165.32C828.516 165.32 829.543 165.18 830.196 164.9C830.85 164.573 831.293 164.037 831.526 163.29C831.76 162.543 831.876 161.377 831.876 159.79V138.23C831.876 136.317 831.806 135.057 831.666 134.45C831.526 133.797 831.13 133.47 830.476 133.47C829.87 133.47 828.936 133.75 827.676 134.31L826.976 132.7L832.576 130.46L837.336 128.5L838.596 129.55V136.27H838.806C839.926 134.17 841.303 132.373 842.936 130.88C844.57 129.387 846.273 128.64 848.046 128.64ZM879.336 152.02C878.636 157.48 877.166 161.54 874.926 164.2C872.733 166.813 869.933 168.12 866.526 168.12C863.913 168.12 861.626 167.35 859.666 165.81C857.753 164.223 856.26 162.007 855.186 159.16C854.16 156.267 853.646 152.907 853.646 149.08C853.646 145.347 854.183 141.94 855.256 138.86C856.33 135.733 857.846 133.26 859.806 131.44C861.813 129.573 864.17 128.64 866.876 128.64C870.796 128.64 873.783 130.297 875.836 133.61C877.89 136.877 878.916 141.193 878.916 146.56H860.436V146.7C860.436 151.6 861.183 155.543 862.676 158.53C864.17 161.47 866.34 162.94 869.186 162.94C871.006 162.94 872.663 162.1 874.156 160.42C875.696 158.74 876.863 155.94 877.656 152.02H879.336ZM866.876 131.58C863.096 131.58 860.973 135.617 860.506 143.69H872.196C872.196 135.617 870.423 131.58 866.876 131.58ZM904.932 118.21C904.932 116.67 904.745 115.527 904.372 114.78C904.045 114.033 903.368 113.497 902.342 113.17C901.315 112.843 899.705 112.68 897.512 112.68V111H920.332V112.68C918.138 112.68 916.505 112.843 915.432 113.17C914.405 113.497 913.705 114.033 913.332 114.78C913.005 115.527 912.842 116.67 912.842 118.21V159.79C912.842 161.33 913.005 162.473 913.332 163.22C913.705 163.967 914.405 164.503 915.432 164.83C916.505 165.157 918.138 165.32 920.332 165.32V167H897.512V165.32C899.705 165.32 901.315 165.157 902.342 164.83C903.368 164.503 904.045 163.967 904.372 163.22C904.745 162.473 904.932 161.33 904.932 159.79V118.21ZM956.052 109.11C957.685 109.11 959.132 109.367 960.392 109.88C961.699 110.393 962.702 111.07 963.402 111.91C964.149 112.75 964.522 113.637 964.522 114.57C964.522 115.503 964.219 116.297 963.612 116.95C963.005 117.603 962.142 117.93 961.022 117.93C960.229 117.93 959.575 117.72 959.062 117.3C958.595 116.88 958.035 116.18 957.382 115.2C956.635 114.08 956.052 113.333 955.632 112.96C955.259 112.587 954.769 112.4 954.162 112.4C952.669 112.4 951.502 113.263 950.662 114.99C949.869 116.67 949.472 119.493 949.472 123.46V129.9H957.312V132.77H949.472V159.79C949.472 161.377 949.635 162.543 949.962 163.29C950.335 164.037 951.012 164.573 951.992 164.9C952.972 165.18 954.489 165.32 956.542 165.32V167H937.432V165.32C938.972 165.32 940.092 165.18 940.792 164.9C941.539 164.573 942.029 164.037 942.262 163.29C942.542 162.543 942.682 161.377 942.682 159.79V132.77H938.062V130.46L942.682 130.11V124.72C942.682 121.033 943.335 118.023 944.642 115.69C945.949 113.357 947.605 111.677 949.612 110.65C951.665 109.623 953.812 109.11 956.052 109.11ZM984.678 152.02C983.978 157.48 982.508 161.54 980.268 164.2C978.075 166.813 975.275 168.12 971.868 168.12C969.255 168.12 966.968 167.35 965.008 165.81C963.095 164.223 961.601 162.007 960.528 159.16C959.501 156.267 958.988 152.907 958.988 149.08C958.988 145.347 959.525 141.94 960.598 138.86C961.671 135.733 963.188 133.26 965.148 131.44C967.155 129.573 969.511 128.64 972.218 128.64C976.138 128.64 979.125 130.297 981.178 133.61C983.231 136.877 984.258 141.193 984.258 146.56H965.778V146.7C965.778 151.6 966.525 155.543 968.018 158.53C969.511 161.47 971.681 162.94 974.528 162.94C976.348 162.94 978.005 162.1 979.498 160.42C981.038 158.74 982.205 155.94 982.998 152.02H984.678ZM972.218 131.58C968.438 131.58 966.315 135.617 965.848 143.69H977.538C977.538 135.617 975.765 131.58 972.218 131.58ZM1015.17 152.02C1014.47 157.48 1013 161.54 1010.76 164.2C1008.56 166.813 1005.76 168.12 1002.36 168.12C999.743 168.12 997.456 167.35 995.496 165.81C993.583 164.223 992.09 162.007 991.016 159.16C989.99 156.267 989.476 152.907 989.476 149.08C989.476 145.347 990.013 141.94 991.086 138.86C992.16 135.733 993.676 133.26 995.636 131.44C997.643 129.573 1000 128.64 1002.71 128.64C1006.63 128.64 1009.61 130.297 1011.67 133.61C1013.72 136.877 1014.75 141.193 1014.75 146.56H996.266V146.7C996.266 151.6 997.013 155.543 998.506 158.53C1000 161.47 1002.17 162.94 1005.02 162.94C1006.84 162.94 1008.49 162.1 1009.99 160.42C1011.53 158.74 1012.69 155.94 1013.49 152.02H1015.17ZM1002.71 131.58C998.926 131.58 996.803 135.617 996.336 143.69H1008.03C1008.03 135.617 1006.25 131.58 1002.71 131.58ZM1029.45 159.79C1029.45 161.377 1029.57 162.543 1029.8 163.29C1030.03 164.037 1030.48 164.573 1031.13 164.9C1031.83 165.18 1032.9 165.32 1034.35 165.32V167H1017.69V165.32C1019.14 165.32 1020.21 165.18 1020.91 164.9C1021.61 164.573 1022.08 164.037 1022.31 163.29C1022.54 162.543 1022.66 161.377 1022.66 159.79V119.33C1022.66 117.603 1022.59 116.46 1022.45 115.9C1022.36 115.293 1022.03 114.99 1021.47 114.99C1020.86 114.99 1019.86 115.34 1018.46 116.04L1017.76 114.5L1028.4 109.32L1029.45 110.3V159.79ZM1083.1 159.09C1082.86 165.11 1080.69 168.12 1076.59 168.12C1072.34 168.12 1070.22 165.063 1070.22 158.95V157.69C1069.42 161.003 1068.12 163.57 1066.3 165.39C1064.52 167.21 1062.38 168.12 1059.86 168.12C1057.43 168.12 1055.52 167.35 1054.12 165.81C1052.76 164.223 1052.09 162.24 1052.09 159.86C1052.09 157.293 1052.88 155.077 1054.47 153.21C1056.05 151.297 1057.94 149.71 1060.14 148.45C1062.38 147.19 1065.25 145.767 1068.75 144.18L1070.22 143.55V139.49C1070.22 136.597 1069.75 134.52 1068.82 133.26C1067.93 132 1066.6 131.37 1064.83 131.37C1063.43 131.37 1062.28 131.72 1061.4 132.42C1060.56 133.073 1060.14 133.96 1060.14 135.08C1060.14 135.5 1060.21 135.92 1060.35 136.34C1060.49 136.76 1060.58 137.017 1060.63 137.11C1060.95 137.857 1061.12 138.557 1061.12 139.21C1061.12 140.19 1060.81 140.983 1060.21 141.59C1059.6 142.15 1058.76 142.43 1057.69 142.43C1056.47 142.43 1055.52 142.033 1054.82 141.24C1054.16 140.447 1053.84 139.397 1053.84 138.09C1053.84 136.363 1054.35 134.777 1055.38 133.33C1056.45 131.883 1057.9 130.74 1059.72 129.9C1061.58 129.013 1063.66 128.57 1065.95 128.57C1069.4 128.57 1072.08 129.55 1074 131.51C1075.96 133.423 1076.94 136.247 1076.94 139.98V160.63C1076.94 162.263 1077.08 163.383 1077.36 163.99C1077.68 164.597 1078.15 164.9 1078.76 164.9C1080.44 164.9 1081.35 162.963 1081.49 159.09H1083.1ZM1062.59 162.8C1064.08 162.8 1065.5 162.077 1066.86 160.63C1068.21 159.183 1069.33 157.013 1070.22 154.12V145.86C1066.58 147.727 1063.75 149.57 1061.75 151.39C1059.79 153.163 1058.81 155.357 1058.81 157.97C1058.81 159.463 1059.13 160.653 1059.79 161.54C1060.44 162.38 1061.37 162.8 1062.59 162.8ZM1104.74 151.32C1104.74 157.013 1104.06 161.237 1102.71 163.99C1101.36 166.743 1099.02 168.12 1095.71 168.12C1092.86 168.12 1090.76 167.14 1089.41 165.18C1088.06 163.173 1087.38 159.79 1087.38 155.03V132.77H1082.48V130.18C1085.05 130.133 1087.1 129.2 1088.64 127.38C1090.18 125.56 1091.14 122.993 1091.51 119.68H1094.03V129.9H1102.43V132.77H1094.17V153.21C1094.17 156.663 1094.43 159.253 1094.94 160.98C1095.5 162.707 1096.55 163.57 1098.09 163.57C1099.68 163.57 1100.84 162.567 1101.59 160.56C1102.38 158.553 1102.78 155.473 1102.78 151.32H1104.74ZM307.434 230.79C307.434 232.377 307.527 233.543 307.714 234.29C307.947 235.037 308.367 235.573 308.974 235.9C309.581 236.18 310.514 236.32 311.774 236.32V238H295.954V236.32C297.354 236.32 298.381 236.18 299.034 235.9C299.687 235.573 300.131 235.037 300.364 234.29C300.597 233.543 300.714 232.377 300.714 230.79L300.644 190.54C300.644 188.767 300.597 187.6 300.504 187.04C300.411 186.48 300.084 186.2 299.524 186.2C299.011 186.2 298.031 186.573 296.584 187.32L295.884 185.85L301.344 182.98L306.524 180.32L307.434 181.3V206.99H307.644C309.371 204.563 311.097 202.743 312.824 201.53C314.551 200.27 316.534 199.64 318.774 199.64C321.247 199.64 323.137 200.503 324.444 202.23C325.751 203.957 326.404 206.477 326.404 209.79V230.79C326.404 232.377 326.521 233.543 326.754 234.29C326.987 235.037 327.407 235.573 328.014 235.9C328.667 236.18 329.694 236.32 331.094 236.32V238H315.414V236.32C316.674 236.32 317.584 236.18 318.144 235.9C318.751 235.573 319.147 235.037 319.334 234.29C319.567 233.543 319.684 232.377 319.684 230.79V210.14C319.684 206.407 318.307 204.54 315.554 204.54C314.154 204.54 312.801 205.007 311.494 205.94C310.187 206.827 308.834 208.157 307.434 209.93V230.79ZM348.686 239.12C345.7 239.12 343.063 238.303 340.776 236.67C338.49 234.99 336.716 232.68 335.456 229.74C334.243 226.753 333.636 223.37 333.636 219.59C333.636 215.81 334.22 212.403 335.386 209.37C336.6 206.337 338.35 203.957 340.636 202.23C342.923 200.503 345.606 199.64 348.686 199.64C351.673 199.64 354.286 200.48 356.526 202.16C358.813 203.793 360.586 206.103 361.846 209.09C363.106 212.03 363.736 215.39 363.736 219.17C363.736 222.95 363.13 226.357 361.916 229.39C360.703 232.423 358.953 234.803 356.666 236.53C354.426 238.257 351.766 239.12 348.686 239.12ZM349.736 236.04C352.023 236.04 353.75 234.78 354.916 232.26C356.083 229.74 356.666 226.753 356.666 223.3C356.666 219.94 356.316 216.697 355.616 213.57C354.963 210.397 353.96 207.807 352.606 205.8C351.253 203.747 349.596 202.72 347.636 202.72C345.303 202.72 343.553 203.98 342.386 206.5C341.22 209.02 340.636 212.007 340.636 215.46C340.636 218.82 340.963 222.087 341.616 225.26C342.316 228.387 343.343 230.977 344.696 233.03C346.096 235.037 347.776 236.04 349.736 236.04ZM414.241 230.79C414.241 232.377 414.358 233.543 414.591 234.29C414.824 235.037 415.244 235.573 415.851 235.9C416.504 236.18 417.531 236.32 418.931 236.32V238H403.461V236.32C404.674 236.32 405.561 236.18 406.121 235.9C406.681 235.573 407.054 235.037 407.241 234.29C407.428 233.543 407.521 232.377 407.521 230.79V210.07C407.521 206.383 406.214 204.54 403.601 204.54C402.388 204.54 401.198 204.96 400.031 205.8C398.864 206.64 397.651 207.9 396.391 209.58V209.72V230.79C396.391 232.377 396.484 233.543 396.671 234.29C396.858 235.037 397.231 235.573 397.791 235.9C398.351 236.18 399.238 236.32 400.451 236.32V238H385.541V236.32C386.754 236.32 387.641 236.18 388.201 235.9C388.808 235.573 389.204 235.037 389.391 234.29C389.578 233.543 389.671 232.377 389.671 230.79V210.07C389.671 206.383 388.364 204.54 385.751 204.54C384.491 204.54 383.254 204.983 382.041 205.87C380.874 206.757 379.638 208.087 378.331 209.86V230.79C378.331 232.377 378.424 233.543 378.611 234.29C378.798 235.037 379.171 235.573 379.731 235.9C380.338 236.18 381.248 236.32 382.461 236.32V238H366.851V236.32C368.251 236.32 369.278 236.18 369.931 235.9C370.584 235.573 371.028 235.037 371.261 234.29C371.494 233.543 371.611 232.377 371.611 230.79V209.23C371.611 207.363 371.541 206.127 371.401 205.52C371.261 204.867 370.864 204.54 370.211 204.54C369.698 204.54 368.788 204.797 367.481 205.31L366.781 203.77L377.001 199.5L378.331 200.55V206.99H378.541C380.081 204.657 381.644 202.86 383.231 201.6C384.864 200.293 386.778 199.64 388.971 199.64C391.024 199.64 392.658 200.27 393.871 201.53C395.084 202.79 395.878 204.61 396.251 206.99H396.461C397.954 204.657 399.494 202.86 401.081 201.6C402.714 200.293 404.628 199.64 406.821 199.64C409.248 199.64 411.091 200.503 412.351 202.23C413.611 203.957 414.241 206.453 414.241 209.72V230.79ZM447.168 223.02C446.468 228.48 444.998 232.54 442.758 235.2C440.565 237.813 437.765 239.12 434.358 239.12C431.745 239.12 429.458 238.35 427.498 236.81C425.585 235.223 424.092 233.007 423.018 230.16C421.992 227.267 421.478 223.907 421.478 220.08C421.478 216.347 422.015 212.94 423.088 209.86C424.162 206.733 425.678 204.26 427.638 202.44C429.645 200.573 432.002 199.64 434.708 199.64C438.628 199.64 441.615 201.297 443.668 204.61C445.722 207.877 446.748 212.193 446.748 217.56H428.268V217.7C428.268 222.6 429.015 226.543 430.508 229.53C432.002 232.47 434.172 233.94 437.018 233.94C438.838 233.94 440.495 233.1 441.988 231.42C443.528 229.74 444.695 226.94 445.488 223.02H447.168ZM434.708 202.58C430.928 202.58 428.805 206.617 428.338 214.69H440.028C440.028 206.617 438.255 202.58 434.708 202.58ZM453.58 238.77C452.6 238.77 451.784 238.42 451.13 237.72C450.477 237.02 450.15 236.133 450.15 235.06C450.15 233.847 450.547 232.843 451.34 232.05C452.18 231.257 453.184 230.86 454.35 230.86C455.797 230.86 457.01 231.42 457.99 232.54C459.017 233.613 459.53 235.083 459.53 236.95C459.53 239.47 458.76 241.873 457.22 244.16C455.727 246.493 453.394 248.29 450.22 249.55V247.66C452.087 246.867 453.65 245.7 454.91 244.16C456.217 242.667 456.87 241.15 456.87 239.61C456.87 238.677 456.567 238.21 455.96 238.21C455.727 238.21 455.377 238.303 454.91 238.49C454.444 238.677 454 238.77 453.58 238.77ZM510.382 230.09C510.149 236.11 507.979 239.12 503.872 239.12C499.625 239.12 497.502 236.063 497.502 229.95V228.69C496.709 232.003 495.402 234.57 493.582 236.39C491.809 238.21 489.662 239.12 487.142 239.12C484.715 239.12 482.802 238.35 481.402 236.81C480.049 235.223 479.372 233.24 479.372 230.86C479.372 228.293 480.165 226.077 481.752 224.21C483.339 222.297 485.229 220.71 487.422 219.45C489.662 218.19 492.532 216.767 496.032 215.18L497.502 214.55V210.49C497.502 207.597 497.035 205.52 496.102 204.26C495.215 203 493.885 202.37 492.112 202.37C490.712 202.37 489.569 202.72 488.682 203.42C487.842 204.073 487.422 204.96 487.422 206.08C487.422 206.5 487.492 206.92 487.632 207.34C487.772 207.76 487.865 208.017 487.912 208.11C488.239 208.857 488.402 209.557 488.402 210.21C488.402 211.19 488.099 211.983 487.492 212.59C486.885 213.15 486.045 213.43 484.972 213.43C483.759 213.43 482.802 213.033 482.102 212.24C481.449 211.447 481.122 210.397 481.122 209.09C481.122 207.363 481.635 205.777 482.662 204.33C483.735 202.883 485.182 201.74 487.002 200.9C488.869 200.013 490.945 199.57 493.232 199.57C496.685 199.57 499.369 200.55 501.282 202.51C503.242 204.423 504.222 207.247 504.222 210.98V231.63C504.222 233.263 504.362 234.383 504.642 234.99C504.969 235.597 505.435 235.9 506.042 235.9C507.722 235.9 508.632 233.963 508.772 230.09H510.382ZM489.872 233.8C491.365 233.8 492.789 233.077 494.142 231.63C495.495 230.183 496.615 228.013 497.502 225.12V216.86C493.862 218.727 491.039 220.57 489.032 222.39C487.072 224.163 486.092 226.357 486.092 228.97C486.092 230.463 486.419 231.653 487.072 232.54C487.725 233.38 488.659 233.8 489.872 233.8ZM511.843 236.32C513.243 236.32 514.269 236.18 514.923 235.9C515.576 235.573 516.019 235.037 516.253 234.29C516.486 233.543 516.603 232.377 516.603 230.79V209.23C516.603 207.317 516.533 206.057 516.393 205.45C516.253 204.797 515.856 204.47 515.203 204.47C514.596 204.47 513.663 204.75 512.403 205.31L511.703 203.7L517.303 201.46L522.063 199.5L523.393 200.55V206.99H523.603C525.376 204.563 527.103 202.743 528.783 201.53C530.463 200.27 532.423 199.64 534.663 199.64C537.136 199.64 539.026 200.527 540.333 202.3C541.686 204.027 542.363 206.523 542.363 209.79V230.79C542.363 232.377 542.479 233.543 542.713 234.29C542.946 235.037 543.366 235.573 543.973 235.9C544.626 236.18 545.629 236.32 546.983 236.32V238H531.303V236.32C532.563 236.32 533.473 236.18 534.033 235.9C534.639 235.573 535.036 235.037 535.223 234.29C535.456 233.543 535.573 232.377 535.573 230.79V210.21C535.573 206.43 534.196 204.54 531.443 204.54C530.043 204.54 528.689 205.007 527.383 205.94C526.123 206.827 524.793 208.157 523.393 209.93V230.79C523.393 232.377 523.486 233.543 523.673 234.29C523.906 235.037 524.303 235.573 524.863 235.9C525.469 236.18 526.403 236.32 527.663 236.32V238H511.843V236.32ZM581.995 235.2L571.635 239.12L570.165 237.93V232.19H569.885C568.952 234.337 567.669 236.04 566.035 237.3C564.449 238.513 562.559 239.12 560.365 239.12C558.172 239.12 556.259 238.35 554.625 236.81C552.992 235.27 551.732 233.1 550.845 230.3C549.959 227.5 549.515 224.257 549.515 220.57C549.515 216.51 550.029 212.893 551.055 209.72C552.129 206.547 553.622 204.073 555.535 202.3C557.495 200.527 559.735 199.64 562.255 199.64C563.982 199.64 565.522 199.99 566.875 200.69C568.275 201.39 569.372 202.347 570.165 203.56V190.47C570.165 188.743 570.095 187.577 569.955 186.97C569.862 186.363 569.535 186.06 568.975 186.06C568.415 186.06 567.435 186.41 566.035 187.11L565.335 185.64L576.045 180.32L576.955 181.3V229.67C576.955 231.537 577.025 232.797 577.165 233.45C577.352 234.057 577.795 234.36 578.495 234.36C579.009 234.36 579.965 234.103 581.365 233.59L581.995 235.2ZM563.305 234.22C564.752 234.22 566.012 233.753 567.085 232.82C568.159 231.84 569.185 230.463 570.165 228.69V215.74C570.165 212.1 569.605 209.113 568.485 206.78C567.412 204.447 565.825 203.28 563.725 203.28C561.392 203.28 559.642 204.727 558.475 207.62C557.309 210.467 556.725 214.223 556.725 218.89C556.725 223.557 557.262 227.29 558.335 230.09C559.455 232.843 561.112 234.22 563.305 234.22ZM612.573 239.12C609.913 239.12 607.603 238.327 605.643 236.74C603.683 235.107 602.189 232.867 601.163 230.02C600.136 227.127 599.623 223.813 599.623 220.08C599.623 216.16 600.183 212.66 601.303 209.58C602.423 206.5 604.033 204.073 606.133 202.3C608.279 200.527 610.823 199.64 613.763 199.64C616.703 199.64 619.083 200.503 620.903 202.23C622.723 203.91 623.633 206.08 623.633 208.74C623.633 210.233 623.306 211.4 622.653 212.24C621.999 213.033 621.089 213.43 619.923 213.43C618.896 213.43 618.079 213.127 617.473 212.52C616.913 211.913 616.633 211.143 616.633 210.21C616.633 209.837 616.656 209.51 616.703 209.23C616.749 208.903 616.796 208.623 616.843 208.39C617.029 207.457 617.123 206.71 617.123 206.15C617.123 204.983 616.819 204.097 616.213 203.49C615.606 202.883 614.766 202.58 613.693 202.58C611.313 202.58 609.516 203.98 608.303 206.78C607.136 209.58 606.553 213.127 606.553 217.42C606.553 222.227 607.276 226.17 608.723 229.25C610.216 232.283 612.339 233.8 615.093 233.8C616.913 233.8 618.546 232.96 619.993 231.28C621.486 229.553 622.513 226.66 623.073 222.6H624.753C624.379 228.153 623.096 232.307 620.903 235.06C618.709 237.767 615.933 239.12 612.573 239.12ZM658.449 230.09C658.215 236.11 656.045 239.12 651.939 239.12C647.692 239.12 645.569 236.063 645.569 229.95V228.69C644.775 232.003 643.469 234.57 641.649 236.39C639.875 238.21 637.729 239.12 635.209 239.12C632.782 239.12 630.869 238.35 629.469 236.81C628.115 235.223 627.439 233.24 627.439 230.86C627.439 228.293 628.232 226.077 629.819 224.21C631.405 222.297 633.295 220.71 635.489 219.45C637.729 218.19 640.599 216.767 644.099 215.18L645.569 214.55V210.49C645.569 207.597 645.102 205.52 644.169 204.26C643.282 203 641.952 202.37 640.179 202.37C638.779 202.37 637.635 202.72 636.749 203.42C635.909 204.073 635.489 204.96 635.489 206.08C635.489 206.5 635.559 206.92 635.699 207.34C635.839 207.76 635.932 208.017 635.979 208.11C636.305 208.857 636.469 209.557 636.469 210.21C636.469 211.19 636.165 211.983 635.559 212.59C634.952 213.15 634.112 213.43 633.039 213.43C631.825 213.43 630.869 213.033 630.169 212.24C629.515 211.447 629.189 210.397 629.189 209.09C629.189 207.363 629.702 205.777 630.729 204.33C631.802 202.883 633.249 201.74 635.069 200.9C636.935 200.013 639.012 199.57 641.299 199.57C644.752 199.57 647.435 200.55 649.349 202.51C651.309 204.423 652.289 207.247 652.289 210.98V231.63C652.289 233.263 652.429 234.383 652.709 234.99C653.035 235.597 653.502 235.9 654.109 235.9C655.789 235.9 656.699 233.963 656.839 230.09H658.449ZM637.939 233.8C639.432 233.8 640.855 233.077 642.209 231.63C643.562 230.183 644.682 228.013 645.569 225.12V216.86C641.929 218.727 639.105 220.57 637.099 222.39C635.139 224.163 634.159 226.357 634.159 228.97C634.159 230.463 634.485 231.653 635.139 232.54C635.792 233.38 636.725 233.8 637.939 233.8ZM659.909 236.32C661.309 236.32 662.336 236.18 662.989 235.9C663.643 235.573 664.086 235.037 664.319 234.29C664.553 233.543 664.669 232.377 664.669 230.79V209.23C664.669 207.317 664.599 206.057 664.459 205.45C664.319 204.797 663.923 204.47 663.269 204.47C662.663 204.47 661.729 204.75 660.469 205.31L659.769 203.7L665.369 201.46L670.129 199.5L671.459 200.55V206.99H671.669C673.443 204.563 675.169 202.743 676.849 201.53C678.529 200.27 680.489 199.64 682.729 199.64C685.203 199.64 687.093 200.527 688.399 202.3C689.753 204.027 690.429 206.523 690.429 209.79V230.79C690.429 232.377 690.546 233.543 690.779 234.29C691.013 235.037 691.433 235.573 692.039 235.9C692.693 236.18 693.696 236.32 695.049 236.32V238H679.369V236.32C680.629 236.32 681.539 236.18 682.099 235.9C682.706 235.573 683.103 235.037 683.289 234.29C683.523 233.543 683.639 232.377 683.639 230.79V210.21C683.639 206.43 682.263 204.54 679.509 204.54C678.109 204.54 676.756 205.007 675.449 205.94C674.189 206.827 672.859 208.157 671.459 209.93V230.79C671.459 232.377 671.553 233.543 671.739 234.29C671.973 235.037 672.369 235.573 672.929 235.9C673.536 236.18 674.469 236.32 675.729 236.32V238H659.909V236.32ZM743.898 230.09C743.664 236.11 741.494 239.12 737.388 239.12C733.141 239.12 731.018 236.063 731.018 229.95V228.69C730.224 232.003 728.918 234.57 727.098 236.39C725.324 238.21 723.178 239.12 720.658 239.12C718.231 239.12 716.318 238.35 714.918 236.81C713.564 235.223 712.888 233.24 712.888 230.86C712.888 228.293 713.681 226.077 715.268 224.21C716.854 222.297 718.744 220.71 720.938 219.45C723.178 218.19 726.048 216.767 729.548 215.18L731.018 214.55V210.49C731.018 207.597 730.551 205.52 729.618 204.26C728.731 203 727.401 202.37 725.628 202.37C724.228 202.37 723.084 202.72 722.198 203.42C721.358 204.073 720.938 204.96 720.938 206.08C720.938 206.5 721.008 206.92 721.148 207.34C721.288 207.76 721.381 208.017 721.428 208.11C721.754 208.857 721.918 209.557 721.918 210.21C721.918 211.19 721.614 211.983 721.008 212.59C720.401 213.15 719.561 213.43 718.488 213.43C717.274 213.43 716.318 213.033 715.618 212.24C714.964 211.447 714.638 210.397 714.638 209.09C714.638 207.363 715.151 205.777 716.178 204.33C717.251 202.883 718.698 201.74 720.518 200.9C722.384 200.013 724.461 199.57 726.748 199.57C730.201 199.57 732.884 200.55 734.798 202.51C736.758 204.423 737.738 207.247 737.738 210.98V231.63C737.738 233.263 737.878 234.383 738.158 234.99C738.484 235.597 738.951 235.9 739.558 235.9C741.238 235.9 742.148 233.963 742.288 230.09H743.898ZM723.388 233.8C724.881 233.8 726.304 233.077 727.658 231.63C729.011 230.183 730.131 228.013 731.018 225.12V216.86C727.378 218.727 724.554 220.57 722.548 222.39C720.588 224.163 719.608 226.357 719.608 228.97C719.608 230.463 719.934 231.653 720.588 232.54C721.241 233.38 722.174 233.8 723.388 233.8ZM756.832 230.79C756.832 232.377 756.949 233.543 757.182 234.29C757.415 235.037 757.859 235.573 758.512 235.9C759.212 236.18 760.285 236.32 761.732 236.32V238H745.072V236.32C746.519 236.32 747.592 236.18 748.292 235.9C748.992 235.573 749.459 235.037 749.692 234.29C749.925 233.543 750.042 232.377 750.042 230.79V190.33C750.042 188.603 749.972 187.46 749.832 186.9C749.739 186.293 749.412 185.99 748.852 185.99C748.245 185.99 747.242 186.34 745.842 187.04L745.142 185.5L755.782 180.32L756.832 181.3V230.79ZM811.297 202.58C809.803 202.58 808.66 202.93 807.867 203.63C807.12 204.33 806.467 205.73 805.907 207.83L797.017 238.63H792.817L786.727 214.83L780.287 238.63H775.877L766.707 207.83C766.053 205.73 765.33 204.33 764.537 203.63C763.79 202.93 762.67 202.58 761.177 202.58V200.9H775.877V202.58C774.85 202.58 774.127 202.697 773.707 202.93C773.333 203.117 773.147 203.49 773.147 204.05C773.147 204.563 773.427 205.823 773.987 207.83L779.937 228.55H780.217L785.327 209.44L784.907 207.9C784.347 205.753 783.74 204.33 783.087 203.63C782.48 202.93 781.523 202.58 780.217 202.58V200.9H794.847V202.58C793.587 202.58 792.7 202.72 792.187 203C791.72 203.28 791.487 203.817 791.487 204.61C791.487 205.263 791.673 206.383 792.047 207.97L796.807 228.55H797.087L802.967 207.83C803.013 207.597 803.153 207.083 803.387 206.29C803.62 205.45 803.737 204.82 803.737 204.4C803.737 203.7 803.457 203.233 802.897 203C802.337 202.72 801.31 202.58 799.817 202.58V200.9H811.297V202.58ZM841.447 230.09C841.213 236.11 839.043 239.12 834.937 239.12C830.69 239.12 828.567 236.063 828.567 229.95V228.69C827.773 232.003 826.467 234.57 824.647 236.39C822.873 238.21 820.727 239.12 818.207 239.12C815.78 239.12 813.867 238.35 812.467 236.81C811.113 235.223 810.437 233.24 810.437 230.86C810.437 228.293 811.23 226.077 812.817 224.21C814.403 222.297 816.293 220.71 818.487 219.45C820.727 218.19 823.597 216.767 827.097 215.18L828.567 214.55V210.49C828.567 207.597 828.1 205.52 827.167 204.26C826.28 203 824.95 202.37 823.177 202.37C821.777 202.37 820.633 202.72 819.747 203.42C818.907 204.073 818.487 204.96 818.487 206.08C818.487 206.5 818.557 206.92 818.697 207.34C818.837 207.76 818.93 208.017 818.977 208.11C819.303 208.857 819.467 209.557 819.467 210.21C819.467 211.19 819.163 211.983 818.557 212.59C817.95 213.15 817.11 213.43 816.037 213.43C814.823 213.43 813.867 213.033 813.167 212.24C812.513 211.447 812.187 210.397 812.187 209.09C812.187 207.363 812.7 205.777 813.727 204.33C814.8 202.883 816.247 201.74 818.067 200.9C819.933 200.013 822.01 199.57 824.297 199.57C827.75 199.57 830.433 200.55 832.347 202.51C834.307 204.423 835.287 207.247 835.287 210.98V231.63C835.287 233.263 835.427 234.383 835.707 234.99C836.033 235.597 836.5 235.9 837.107 235.9C838.787 235.9 839.697 233.963 839.837 230.09H841.447ZM820.937 233.8C822.43 233.8 823.853 233.077 825.207 231.63C826.56 230.183 827.68 228.013 828.567 225.12V216.86C824.927 218.727 822.103 220.57 820.097 222.39C818.137 224.163 817.157 226.357 817.157 228.97C817.157 230.463 817.483 231.653 818.137 232.54C818.79 233.38 819.723 233.8 820.937 233.8ZM844.119 254.38C842.439 254.38 841.039 253.913 839.919 252.98C838.846 252.093 838.309 250.95 838.309 249.55C838.309 248.43 838.636 247.543 839.289 246.89C839.942 246.283 840.782 245.98 841.809 245.98C842.602 245.98 843.256 246.167 843.769 246.54C844.282 246.913 844.772 247.427 845.239 248.08C845.659 248.687 846.056 249.107 846.429 249.34C846.802 249.573 847.246 249.69 847.759 249.69C849.486 249.69 851.002 247.17 852.309 242.13C852.356 241.897 852.379 241.477 852.379 240.87C852.379 239.237 852.169 237.44 851.749 235.48L843.069 207.83C842.369 205.683 841.622 204.283 840.829 203.63C840.082 202.93 838.916 202.58 837.329 202.58V200.9H853.709V202.58C852.169 202.58 851.096 202.72 850.489 203C849.929 203.233 849.649 203.723 849.649 204.47C849.649 205.077 849.882 206.197 850.349 207.83L856.229 228.41H856.579L862.389 207.83C862.856 206.197 863.089 205.077 863.089 204.47C863.089 203.723 862.786 203.233 862.179 203C861.619 202.72 860.569 202.58 859.029 202.58V200.9H870.579V202.58C869.132 202.58 868.036 202.93 867.289 203.63C866.542 204.33 865.866 205.73 865.259 207.83L856.439 237.58C855.319 241.267 854.246 244.277 853.219 246.61C852.192 248.943 850.932 250.81 849.439 252.21C847.992 253.61 846.219 254.333 844.119 254.38ZM883.46 239.12C880.706 239.12 878.163 238.28 875.83 236.6C875.503 236.32 875.176 236.18 874.85 236.18C874.523 236.18 874.22 236.437 873.94 236.95L873.38 238.35H871.84L871.35 223.23H872.89C873.403 227.29 874.546 230.463 876.32 232.75C878.14 235.037 880.286 236.18 882.76 236.18C884.393 236.18 885.63 235.667 886.47 234.64C887.356 233.613 887.8 232.19 887.8 230.37C887.8 229.297 887.59 228.387 887.17 227.64C886.75 226.847 886.026 225.983 885 225.05C883.973 224.07 882.246 222.6 879.82 220.64C876.786 218.26 874.686 216.253 873.52 214.62C872.4 212.987 871.84 211.19 871.84 209.23C871.84 206.383 872.75 204.073 874.57 202.3C876.436 200.527 878.77 199.64 881.57 199.64C884.043 199.64 886.236 200.433 888.15 202.02C888.476 202.347 888.803 202.51 889.13 202.51C889.55 202.51 889.83 202.23 889.97 201.67L890.39 200.13H892L892.28 212.38H890.74C890.32 209.533 889.34 207.2 887.8 205.38C886.26 203.513 884.37 202.58 882.13 202.58C880.73 202.58 879.61 203.023 878.77 203.91C877.93 204.75 877.51 205.87 877.51 207.27C877.51 208.623 877.953 209.813 878.84 210.84C879.726 211.867 881.523 213.453 884.23 215.6C887.683 218.307 890.086 220.57 891.44 222.39C892.84 224.21 893.54 226.38 893.54 228.9C893.54 232.213 892.583 234.757 890.67 236.53C888.756 238.257 886.353 239.12 883.46 239.12ZM923.082 230.79C923.082 232.377 923.199 233.543 923.432 234.29C923.665 235.037 924.109 235.573 924.762 235.9C925.462 236.18 926.535 236.32 927.982 236.32V238H911.322V236.32C912.769 236.32 913.842 236.18 914.542 235.9C915.242 235.573 915.709 235.037 915.942 234.29C916.175 233.543 916.292 232.377 916.292 230.79V190.33C916.292 188.603 916.222 187.46 916.082 186.9C915.989 186.293 915.662 185.99 915.102 185.99C914.495 185.99 913.492 186.34 912.092 187.04L911.392 185.5L922.032 180.32L923.082 181.3V230.79ZM956.172 223.02C955.472 228.48 954.002 232.54 951.762 235.2C949.569 237.813 946.769 239.12 943.362 239.12C940.749 239.12 938.462 238.35 936.502 236.81C934.589 235.223 933.096 233.007 932.022 230.16C930.996 227.267 930.482 223.907 930.482 220.08C930.482 216.347 931.019 212.94 932.092 209.86C933.166 206.733 934.682 204.26 936.642 202.44C938.649 200.573 941.006 199.64 943.712 199.64C947.632 199.64 950.619 201.297 952.672 204.61C954.726 207.877 955.752 212.193 955.752 217.56H937.272V217.7C937.272 222.6 938.019 226.543 939.512 229.53C941.006 232.47 943.176 233.94 946.022 233.94C947.842 233.94 949.499 233.1 950.992 231.42C952.532 229.74 953.699 226.94 954.492 223.02H956.172ZM943.712 202.58C939.932 202.58 937.809 206.617 937.342 214.69H949.032C949.032 206.617 947.259 202.58 943.712 202.58ZM990.88 230.09C990.647 236.11 988.477 239.12 984.37 239.12C980.123 239.12 978 236.063 978 229.95V228.69C977.207 232.003 975.9 234.57 974.08 236.39C972.307 238.21 970.16 239.12 967.64 239.12C965.213 239.12 963.3 238.35 961.9 236.81C960.547 235.223 959.87 233.24 959.87 230.86C959.87 228.293 960.663 226.077 962.25 224.21C963.837 222.297 965.727 220.71 967.92 219.45C970.16 218.19 973.03 216.767 976.53 215.18L978 214.55V210.49C978 207.597 977.533 205.52 976.6 204.26C975.713 203 974.383 202.37 972.61 202.37C971.21 202.37 970.067 202.72 969.18 203.42C968.34 204.073 967.92 204.96 967.92 206.08C967.92 206.5 967.99 206.92 968.13 207.34C968.27 207.76 968.363 208.017 968.41 208.11C968.737 208.857 968.9 209.557 968.9 210.21C968.9 211.19 968.597 211.983 967.99 212.59C967.383 213.15 966.543 213.43 965.47 213.43C964.257 213.43 963.3 213.033 962.6 212.24C961.947 211.447 961.62 210.397 961.62 209.09C961.62 207.363 962.133 205.777 963.16 204.33C964.233 202.883 965.68 201.74 967.5 200.9C969.367 200.013 971.443 199.57 973.73 199.57C977.183 199.57 979.867 200.55 981.78 202.51C983.74 204.423 984.72 207.247 984.72 210.98V231.63C984.72 233.263 984.86 234.383 985.14 234.99C985.467 235.597 985.933 235.9 986.54 235.9C988.22 235.9 989.13 233.963 989.27 230.09H990.88ZM970.37 233.8C971.863 233.8 973.287 233.077 974.64 231.63C975.993 230.183 977.113 228.013 978 225.12V216.86C974.36 218.727 971.537 220.57 969.53 222.39C967.57 224.163 966.59 226.357 966.59 228.97C966.59 230.463 966.917 231.653 967.57 232.54C968.223 233.38 969.157 233.8 970.37 233.8ZM992.341 236.32C993.741 236.32 994.768 236.18 995.421 235.9C996.074 235.573 996.518 235.037 996.751 234.29C996.984 233.543 997.101 232.377 997.101 230.79V209.23C997.101 207.317 997.031 206.057 996.891 205.45C996.751 204.797 996.354 204.47 995.701 204.47C995.094 204.47 994.161 204.75 992.901 205.31L992.201 203.7L997.801 201.46L1002.56 199.5L1003.89 200.55V206.99H1004.1C1005.87 204.563 1007.6 202.743 1009.28 201.53C1010.96 200.27 1012.92 199.64 1015.16 199.64C1017.63 199.64 1019.52 200.527 1020.83 202.3C1022.18 204.027 1022.86 206.523 1022.86 209.79V230.79C1022.86 232.377 1022.98 233.543 1023.21 234.29C1023.44 235.037 1023.86 235.573 1024.47 235.9C1025.12 236.18 1026.13 236.32 1027.48 236.32V238H1011.8V236.32C1013.06 236.32 1013.97 236.18 1014.53 235.9C1015.14 235.573 1015.53 235.037 1015.72 234.29C1015.95 233.543 1016.07 232.377 1016.07 230.79V210.21C1016.07 206.43 1014.69 204.54 1011.94 204.54C1010.54 204.54 1009.19 205.007 1007.88 205.94C1006.62 206.827 1005.29 208.157 1003.89 209.93V230.79C1003.89 232.377 1003.98 233.543 1004.17 234.29C1004.4 235.037 1004.8 235.573 1005.36 235.9C1005.97 236.18 1006.9 236.32 1008.16 236.32V238H992.341V236.32ZM1060.65 239.12C1057.66 239.12 1055.03 238.303 1052.74 236.67C1050.45 234.99 1048.68 232.68 1047.42 229.74C1046.21 226.753 1045.6 223.37 1045.6 219.59C1045.6 215.81 1046.18 212.403 1047.35 209.37C1048.56 206.337 1050.31 203.957 1052.6 202.23C1054.89 200.503 1057.57 199.64 1060.65 199.64C1063.64 199.64 1066.25 200.48 1068.49 202.16C1070.78 203.793 1072.55 206.103 1073.81 209.09C1075.07 212.03 1075.7 215.39 1075.7 219.17C1075.7 222.95 1075.09 226.357 1073.88 229.39C1072.67 232.423 1070.92 234.803 1068.63 236.53C1066.39 238.257 1063.73 239.12 1060.65 239.12ZM1061.7 236.04C1063.99 236.04 1065.71 234.78 1066.88 232.26C1068.05 229.74 1068.63 226.753 1068.63 223.3C1068.63 219.94 1068.28 216.697 1067.58 213.57C1066.93 210.397 1065.92 207.807 1064.57 205.8C1063.22 203.747 1061.56 202.72 1059.6 202.72C1057.27 202.72 1055.52 203.98 1054.35 206.5C1053.18 209.02 1052.6 212.007 1052.6 215.46C1052.6 218.82 1052.93 222.087 1053.58 225.26C1054.28 228.387 1055.31 230.977 1056.66 233.03C1058.06 235.037 1059.74 236.04 1061.7 236.04ZM1078.88 236.32C1080.28 236.32 1081.31 236.18 1081.96 235.9C1082.62 235.573 1083.06 235.037 1083.29 234.29C1083.53 233.543 1083.64 232.377 1083.64 230.79V209.23C1083.64 207.317 1083.57 206.057 1083.43 205.45C1083.29 204.797 1082.9 204.47 1082.24 204.47C1081.64 204.47 1080.7 204.75 1079.44 205.31L1078.74 203.7L1084.34 201.46L1089.1 199.5L1090.43 200.55V206.99H1090.64C1092.42 204.563 1094.14 202.743 1095.82 201.53C1097.5 200.27 1099.46 199.64 1101.7 199.64C1104.18 199.64 1106.07 200.527 1107.37 202.3C1108.73 204.027 1109.4 206.523 1109.4 209.79V230.79C1109.4 232.377 1109.52 233.543 1109.75 234.29C1109.99 235.037 1110.41 235.573 1111.01 235.9C1111.67 236.18 1112.67 236.32 1114.02 236.32V238H1098.34V236.32C1099.6 236.32 1100.51 236.18 1101.07 235.9C1101.68 235.573 1102.08 235.037 1102.26 234.29C1102.5 233.543 1102.61 232.377 1102.61 230.79V210.21C1102.61 206.43 1101.24 204.54 1098.48 204.54C1097.08 204.54 1095.73 205.007 1094.42 205.94C1093.16 206.827 1091.83 208.157 1090.43 209.93V230.79C1090.43 232.377 1090.53 233.543 1090.71 234.29C1090.95 235.037 1091.34 235.573 1091.9 235.9C1092.51 236.18 1093.44 236.32 1094.7 236.32V238H1078.88V236.32ZM1122.97 239.12C1121.81 239.12 1120.83 238.723 1120.03 237.93C1119.24 237.137 1118.84 236.157 1118.84 234.99C1118.84 233.87 1119.24 232.913 1120.03 232.12C1120.83 231.28 1121.81 230.86 1122.97 230.86C1124.09 230.86 1125.05 231.28 1125.84 232.12C1126.68 232.913 1127.1 233.87 1127.1 234.99C1127.1 236.157 1126.68 237.137 1125.84 237.93C1125.05 238.723 1124.09 239.12 1122.97 239.12Z" fill="#E50600"/>
<path d="M91.2422 89.4C95.8422 89.4 99.5422 91 102.342 94.2C105.142 97.2 106.542 101.1 106.542 105.9C106.542 111.1 104.642 115.5 100.842 119.1C97.2422 122.7 92.3422 124.5 86.1422 124.5C79.5422 124.5 74.0422 122.1 69.6422 117.3C65.2422 112.3 63.0422 105.8 63.0422 97.8C63.0422 88.8 66.1422 80.6 72.3422 73.2C78.5422 65.8 87.9422 60.2 100.542 56.4V64.2C92.3422 66.4 85.9422 69.8 81.3422 74.4C76.7422 79 74.4422 83.8 74.4422 88.8C74.4422 90.6 74.7422 92 75.3422 93C76.1422 94 77.0422 94.5 78.0422 94.5C78.8422 94.5 80.4422 93.7 82.8422 92.1C85.2422 90.3 88.0422 89.4 91.2422 89.4ZM148.842 89.4C153.442 89.4 157.142 91 159.942 94.2C162.742 97.2 164.142 101.1 164.142 105.9C164.142 111.1 162.242 115.5 158.442 119.1C154.842 122.7 149.942 124.5 143.742 124.5C137.142 124.5 131.642 122.1 127.242 117.3C122.842 112.3 120.642 105.8 120.642 97.8C120.642 88.8 123.742 80.6 129.942 73.2C136.142 65.8 145.542 60.2 158.142 56.4V64.2C149.942 66.4 143.542 69.8 138.942 74.4C134.342 79 132.042 83.8 132.042 88.8C132.042 90.6 132.342 92 132.942 93C133.742 94 134.642 94.5 135.642 94.5C136.642 94.5 138.242 93.7 140.442 92.1C142.842 90.3 145.642 89.4 148.842 89.4Z" fill="#E50600"/>
<path d="M1311.37 298.98H1276.06L1276.75 296.82H1312.03L1311.37 298.98ZM1320.03 306.48C1317.83 306.48 1316.15 305.75 1314.99 304.29C1313.85 302.81 1313.28 300.87 1313.28 298.47C1313.28 295.99 1313.85 293.43 1314.99 290.79C1316.15 288.13 1317.72 285.93 1319.7 284.19C1321.68 282.43 1323.84 281.55 1326.18 281.55C1327.16 281.55 1327.99 281.71 1328.67 282.03C1329.35 282.35 1329.95 282.84 1330.47 283.5C1330.65 283.74 1330.8 283.86 1330.92 283.86C1331.04 283.86 1331.17 283.71 1331.31 283.41L1331.97 281.82L1332.66 281.91L1330.26 290.28H1329.54C1329.68 289.12 1329.75 288.2 1329.75 287.52C1329.75 286.04 1329.49 284.9 1328.97 284.1C1328.47 283.3 1327.63 282.9 1326.45 282.9C1324.69 282.9 1323.08 283.75 1321.62 285.45C1320.16 287.13 1319.01 289.19 1318.17 291.63C1317.33 294.05 1316.91 296.29 1316.91 298.35C1316.91 300.31 1317.29 301.82 1318.05 302.88C1318.83 303.92 1319.92 304.44 1321.32 304.44C1322.96 304.44 1324.45 303.76 1325.79 302.4C1327.13 301.02 1328.31 299.21 1329.33 296.97H1330.2C1329.34 298.97 1328.45 300.65 1327.53 302.01C1326.63 303.37 1325.56 304.46 1324.32 305.28C1323.08 306.08 1321.65 306.48 1320.03 306.48ZM1342.1 304.65C1342.62 304.65 1343.18 304.27 1343.78 303.51C1344.4 302.75 1344.99 301.77 1345.55 300.57H1346.24C1345.6 302.13 1344.8 303.47 1343.84 304.59C1342.9 305.71 1341.87 306.27 1340.75 306.27C1339.33 306.27 1338.62 305.63 1338.62 304.35C1338.62 304.11 1338.66 303.86 1338.74 303.6C1338.82 303.32 1338.96 302.94 1339.16 302.46L1339.43 301.74L1340.6 298.44H1340.33C1339.39 300.48 1338.31 302.31 1337.09 303.93C1335.87 305.53 1334.66 306.33 1333.46 306.33C1332.54 306.33 1331.85 305.98 1331.39 305.28C1330.95 304.56 1330.73 303.6 1330.73 302.4C1330.73 300.66 1331.19 298.79 1332.11 296.79C1333.05 294.77 1334.22 293.08 1335.62 291.72C1337.02 290.36 1338.39 289.68 1339.73 289.68C1340.69 289.68 1341.39 289.99 1341.83 290.61C1342.29 291.23 1342.49 292.05 1342.43 293.07H1342.52L1343.39 290.67C1343.95 290.67 1344.46 290.56 1344.92 290.34C1345.4 290.12 1345.78 289.84 1346.06 289.5L1346.54 289.77L1342.22 301.83C1342.16 301.99 1342.03 302.33 1341.83 302.85C1341.65 303.37 1341.56 303.74 1341.56 303.96C1341.56 304.2 1341.6 304.38 1341.68 304.5C1341.76 304.6 1341.9 304.65 1342.1 304.65ZM1334.69 304.14C1335.25 304.14 1335.93 303.72 1336.73 302.88C1337.55 302.02 1338.33 300.96 1339.07 299.7C1339.83 298.44 1340.4 297.26 1340.78 296.16C1341.16 295.06 1341.35 294.09 1341.35 293.25C1341.35 292.57 1341.24 292.06 1341.02 291.72C1340.82 291.38 1340.48 291.21 1340 291.21C1339.14 291.21 1338.21 291.81 1337.21 293.01C1336.23 294.21 1335.4 295.67 1334.72 297.39C1334.04 299.11 1333.7 300.66 1333.7 302.04C1333.7 302.74 1333.78 303.27 1333.94 303.63C1334.1 303.97 1334.35 304.14 1334.69 304.14ZM1350.48 301.8C1350.1 302.9 1349.91 303.62 1349.91 303.96C1349.91 304.2 1349.95 304.38 1350.03 304.5C1350.11 304.6 1350.25 304.65 1350.45 304.65C1350.97 304.65 1351.53 304.27 1352.13 303.51C1352.75 302.75 1353.34 301.77 1353.9 300.57H1354.59C1353.95 302.13 1353.15 303.47 1352.19 304.59C1351.25 305.71 1350.22 306.27 1349.1 306.27C1347.68 306.27 1346.97 305.63 1346.97 304.35C1346.97 304.03 1347.02 303.68 1347.12 303.3C1347.22 302.92 1347.39 302.39 1347.63 301.71L1353.03 284.97C1353.21 284.49 1353.3 284.09 1353.3 283.77C1353.3 283.37 1353.14 283.09 1352.82 282.93C1352.5 282.77 1351.97 282.69 1351.23 282.69L1351.41 282C1353.09 282 1354.31 281.94 1355.07 281.82C1355.85 281.68 1356.41 281.45 1356.75 281.13L1357.11 281.34L1350.48 301.8ZM1360.74 304.5C1362.42 304.5 1364.07 302.87 1365.69 299.61H1366.35C1365.49 301.75 1364.46 303.42 1363.26 304.62C1362.08 305.82 1360.8 306.42 1359.42 306.42C1358.22 306.42 1357.26 306.02 1356.54 305.22C1355.84 304.4 1355.49 303.26 1355.49 301.8C1355.49 300.1 1355.92 298.3 1356.78 296.4C1357.64 294.48 1358.75 292.88 1360.11 291.6C1361.47 290.3 1362.85 289.65 1364.25 289.65C1365.13 289.65 1365.83 289.9 1366.35 290.4C1366.87 290.9 1367.13 291.56 1367.13 292.38C1367.13 293.46 1366.73 294.48 1365.93 295.44C1365.13 296.4 1364.08 297.21 1362.78 297.87C1361.5 298.53 1360.16 298.97 1358.76 299.19C1358.58 300.05 1358.49 300.86 1358.49 301.62C1358.49 302.56 1358.69 303.28 1359.09 303.78C1359.49 304.26 1360.04 304.5 1360.74 304.5ZM1364.07 290.79C1363.07 290.79 1362.1 291.54 1361.16 293.04C1360.22 294.54 1359.5 296.27 1359 298.23C1360.08 297.95 1361.08 297.51 1362 296.91C1362.94 296.31 1363.68 295.6 1364.22 294.78C1364.78 293.94 1365.06 293.07 1365.06 292.17C1365.06 291.71 1364.98 291.37 1364.82 291.15C1364.68 290.91 1364.43 290.79 1364.07 290.79ZM1372.46 306.42C1371.36 306.42 1370.28 306.27 1369.22 305.97C1368.18 305.65 1367.41 305.31 1366.91 304.95L1373.42 284.97C1373.58 284.45 1373.66 284.06 1373.66 283.8C1373.66 283.4 1373.5 283.12 1373.18 282.96C1372.88 282.78 1372.35 282.69 1371.59 282.69L1371.77 282C1373.57 282 1374.81 281.95 1375.49 281.85C1376.19 281.73 1376.73 281.49 1377.11 281.13L1377.47 281.34L1372.04 297.72L1372.1 297.6C1372.94 295.56 1373.97 293.73 1375.19 292.11C1376.41 290.49 1377.67 289.68 1378.97 289.68C1379.81 289.68 1380.43 290.04 1380.83 290.76C1381.25 291.48 1381.46 292.45 1381.46 293.67C1381.46 295.55 1381.05 297.49 1380.23 299.49C1379.41 301.47 1378.31 303.12 1376.93 304.44C1375.55 305.76 1374.06 306.42 1372.46 306.42ZM1372.58 304.92C1373.58 304.92 1374.54 304.33 1375.46 303.15C1376.38 301.97 1377.12 300.53 1377.68 298.83C1378.24 297.11 1378.52 295.53 1378.52 294.09C1378.52 293.35 1378.43 292.8 1378.25 292.44C1378.09 292.06 1377.82 291.87 1377.44 291.87C1376.6 291.87 1375.62 292.7 1374.5 294.36C1373.38 296.02 1372.43 297.88 1371.65 299.94L1370.21 304.02C1370.85 304.62 1371.64 304.92 1372.58 304.92Z" fill="#E50600"/>
</svg>
